<svg xmlns="http://www.w3.org/2000/svg" width="8.411" height="10.070" viewBox="0 0 8.411 10.070" fill="none">
  <path d="M 3.903 10.068 C 3.9 10.066 3.872 10.062 3.839 10.058 C 3.806 10.054 3.767 10.049 3.753 10.048 C 3.74 10.046 3.706 10.04 3.677 10.033 C 3.65 10.027 3.619 10.021 3.609 10.02 C 3.572 10.015 3.496 10 3.46 9.99 C 3.441 9.984 3.404 9.976 3.381 9.972 C 3.333 9.965 3.304 9.959 3.192 9.931 C 3.152 9.921 3.1 9.91 3.076 9.908 C 3.053 9.904 3.019 9.896 3.001 9.89 C 2.984 9.884 2.962 9.879 2.952 9.879 C 2.943 9.879 2.921 9.872 2.905 9.864 C 2.888 9.856 2.864 9.85 2.851 9.85 C 2.838 9.85 2.81 9.843 2.789 9.836 C 2.768 9.828 2.722 9.815 2.685 9.806 C 2.65 9.798 2.603 9.783 2.582 9.774 C 2.561 9.764 2.538 9.756 2.533 9.756 C 2.517 9.756 2.434 9.73 2.381 9.707 C 2.357 9.697 2.322 9.685 2.302 9.68 C 2.264 9.671 2.206 9.649 2.157 9.626 C 2.141 9.618 2.124 9.612 2.119 9.612 C 2.096 9.612 1.801 9.466 1.73 9.42 C 1.71 9.407 1.691 9.397 1.686 9.397 C 1.682 9.397 1.661 9.384 1.639 9.368 C 1.618 9.352 1.594 9.337 1.586 9.335 C 1.577 9.332 1.557 9.321 1.541 9.31 C 1.517 9.294 1.476 9.268 1.421 9.235 C 1.4 9.222 1.34 9.177 1.309 9.152 C 1.292 9.138 1.25 9.104 1.215 9.076 C 1.179 9.049 1.135 9.01 1.114 8.99 C 1.065 8.941 1.009 8.893 1.001 8.893 C 0.998 8.893 0.995 8.89 0.995 8.887 C 0.995 8.883 0.951 8.837 0.899 8.783 C 0.788 8.672 0.71 8.586 0.706 8.574 C 0.704 8.569 0.694 8.556 0.683 8.544 C 0.662 8.521 0.644 8.497 0.599 8.432 C 0.584 8.411 0.568 8.39 0.563 8.385 C 0.552 8.375 0.517 8.326 0.517 8.321 C 0.517 8.318 0.502 8.298 0.485 8.275 C 0.467 8.252 0.449 8.226 0.445 8.216 C 0.441 8.206 0.432 8.19 0.424 8.18 C 0.369 8.095 0.358 8.078 0.358 8.069 C 0.358 8.064 0.353 8.056 0.348 8.051 C 0.342 8.046 0.335 8.033 0.332 8.021 C 0.329 8.01 0.324 8 0.321 8 C 0.317 8 0.311 7.992 0.306 7.981 C 0.301 7.969 0.284 7.932 0.266 7.896 C 0.25 7.861 0.229 7.813 0.222 7.792 C 0.214 7.77 0.195 7.721 0.182 7.684 C 0.169 7.645 0.155 7.599 0.153 7.58 C 0.15 7.561 0.143 7.539 0.138 7.533 C 0.132 7.527 0.126 7.507 0.124 7.489 C 0.122 7.471 0.117 7.445 0.113 7.432 C 0.109 7.418 0.099 7.384 0.093 7.356 C 0.086 7.329 0.076 7.289 0.07 7.268 C 0.056 7.217 0.044 7.149 0.025 6.993 C 0.004 6.829 0 6.747 0 6.467 C 0 6.169 0.001 6.125 0.009 6.111 C 0.012 6.107 0.012 6.096 0.012 6.086 C 0.009 6.053 0.042 5.887 0.054 5.874 C 0.058 5.87 0.061 5.86 0.061 5.851 C 0.061 5.831 0.081 5.777 0.094 5.762 C 0.099 5.756 0.108 5.733 0.113 5.712 C 0.117 5.69 0.124 5.671 0.127 5.668 C 0.13 5.666 0.153 5.623 0.18 5.571 C 0.24 5.456 0.266 5.409 0.275 5.404 C 0.285 5.396 0.314 5.353 0.314 5.346 C 0.314 5.336 0.466 5.179 0.476 5.179 C 0.48 5.179 0.49 5.173 0.499 5.165 C 0.537 5.128 0.572 5.1 0.581 5.1 C 0.586 5.1 0.601 5.088 0.615 5.075 C 0.629 5.061 0.659 5.038 0.682 5.024 C 0.704 5.009 0.727 4.994 0.731 4.989 C 0.74 4.978 0.9 4.898 0.913 4.898 C 0.919 4.898 0.935 4.893 0.95 4.885 C 0.964 4.877 1.009 4.866 1.049 4.859 C 1.089 4.852 1.138 4.842 1.158 4.837 C 1.196 4.827 1.316 4.808 1.411 4.795 C 1.492 4.785 1.721 4.787 1.758 4.798 C 1.931 4.85 1.979 4.872 2.067 4.94 C 2.09 4.957 2.111 4.97 2.115 4.97 C 2.119 4.97 2.149 4.998 2.182 5.034 C 2.26 5.116 2.288 5.157 2.323 5.247 C 2.334 5.275 2.345 5.304 2.349 5.312 C 2.373 5.373 2.385 5.406 2.385 5.419 C 2.385 5.432 2.394 5.468 2.407 5.499 C 2.41 5.507 2.415 5.54 2.418 5.571 C 2.42 5.603 2.425 5.632 2.429 5.636 C 2.433 5.64 2.436 5.656 2.436 5.673 C 2.436 5.69 2.439 5.706 2.443 5.708 C 2.447 5.711 2.451 5.725 2.451 5.739 C 2.458 6.265 2.462 6.428 2.472 6.481 C 2.476 6.506 2.478 6.529 2.476 6.531 C 2.474 6.533 2.475 6.538 2.478 6.542 C 2.482 6.547 2.491 6.584 2.497 6.626 C 2.504 6.667 2.515 6.714 2.523 6.73 C 2.539 6.769 2.552 6.803 2.559 6.838 C 2.564 6.854 2.573 6.873 2.58 6.881 C 2.594 6.898 2.617 6.946 2.617 6.961 C 2.617 6.967 2.621 6.973 2.627 6.975 C 2.633 6.978 2.639 6.987 2.641 6.997 C 2.644 7.006 2.649 7.014 2.653 7.014 C 2.657 7.014 2.672 7.036 2.686 7.063 C 2.712 7.107 2.721 7.119 2.769 7.173 C 2.779 7.184 2.801 7.21 2.819 7.232 C 2.866 7.288 2.984 7.402 3.038 7.441 C 3.063 7.461 3.107 7.488 3.135 7.502 C 3.163 7.517 3.195 7.536 3.206 7.545 C 3.218 7.554 3.234 7.561 3.243 7.561 C 3.252 7.561 3.267 7.567 3.276 7.575 C 3.297 7.591 3.351 7.616 3.381 7.623 C 3.393 7.626 3.42 7.636 3.442 7.645 C 3.516 7.678 3.525 7.681 3.565 7.694 C 3.587 7.701 3.614 7.711 3.625 7.717 C 3.637 7.723 3.651 7.727 3.658 7.727 C 3.668 7.727 3.752 7.751 3.786 7.763 C 3.837 7.782 4.011 7.81 4.134 7.818 C 4.246 7.827 4.454 7.825 4.514 7.814 C 4.644 7.792 4.692 7.783 4.703 7.777 C 4.708 7.774 4.733 7.768 4.757 7.763 C 4.78 7.758 4.813 7.748 4.83 7.74 C 4.847 7.733 4.866 7.727 4.871 7.727 C 4.876 7.727 4.894 7.72 4.91 7.712 C 4.926 7.705 4.948 7.698 4.958 7.698 C 4.968 7.698 4.979 7.694 4.984 7.688 C 4.989 7.682 5.004 7.676 5.018 7.673 C 5.032 7.671 5.049 7.666 5.056 7.663 C 5.09 7.645 5.135 7.626 5.141 7.626 C 5.144 7.626 5.188 7.604 5.238 7.579 C 5.288 7.553 5.338 7.527 5.351 7.522 C 5.363 7.517 5.377 7.506 5.383 7.499 C 5.389 7.492 5.42 7.47 5.452 7.449 C 5.508 7.414 5.625 7.304 5.676 7.241 C 5.688 7.227 5.71 7.201 5.725 7.186 C 5.74 7.17 5.758 7.147 5.763 7.135 C 5.769 7.124 5.779 7.109 5.785 7.102 C 5.811 7.073 5.86 6.999 5.86 6.989 C 5.86 6.983 5.863 6.978 5.868 6.978 C 5.871 6.978 5.885 6.957 5.897 6.932 C 5.91 6.906 5.923 6.885 5.926 6.885 C 5.929 6.885 5.934 6.876 5.936 6.865 C 5.94 6.848 5.951 6.824 5.992 6.739 C 5.995 6.732 5.998 6.719 5.998 6.71 C 5.998 6.701 6.002 6.688 6.007 6.68 C 6.028 6.649 6.06 6.503 6.07 6.385 C 6.08 6.291 6.074 5.956 6.064 5.936 C 6.06 5.928 6.056 5.908 6.056 5.892 C 6.056 5.876 6.053 5.861 6.049 5.859 C 6.045 5.857 6.041 5.846 6.041 5.834 C 6.041 5.822 6.039 5.811 6.034 5.809 C 6.031 5.807 6.027 5.79 6.027 5.773 C 6.027 5.756 6.024 5.734 6.02 5.725 C 6.017 5.715 6.007 5.686 5.998 5.658 C 5.968 5.56 5.894 5.376 5.861 5.316 C 5.796 5.196 5.779 5.165 5.759 5.136 C 5.747 5.118 5.731 5.092 5.721 5.078 C 5.68 5.014 5.635 4.949 5.629 4.945 C 5.624 4.943 5.621 4.936 5.621 4.929 C 5.621 4.923 5.606 4.899 5.585 4.876 C 5.566 4.853 5.549 4.832 5.549 4.829 C 5.549 4.826 5.534 4.806 5.514 4.784 C 5.471 4.733 5.439 4.693 5.428 4.673 C 5.423 4.664 5.406 4.642 5.388 4.623 C 5.371 4.603 5.344 4.573 5.328 4.555 C 5.312 4.537 5.291 4.513 5.28 4.502 C 5.27 4.491 5.259 4.475 5.256 4.467 C 5.254 4.459 5.245 4.451 5.237 4.449 C 5.23 4.446 5.223 4.44 5.223 4.435 C 5.223 4.43 5.216 4.42 5.208 4.412 C 5.199 4.405 5.19 4.391 5.186 4.382 C 5.183 4.373 5.175 4.366 5.17 4.366 C 5.162 4.366 5.135 4.333 5.099 4.282 C 5.093 4.272 5.066 4.24 5.039 4.209 C 5.013 4.179 4.977 4.138 4.96 4.119 C 4.85 3.992 4.635 3.768 4.622 3.768 C 4.62 3.768 4.594 3.745 4.564 3.717 C 4.535 3.689 4.498 3.658 4.485 3.647 C 4.462 3.63 4.377 3.56 4.347 3.534 C 4.307 3.498 4.294 3.488 4.286 3.488 C 4.282 3.488 4.256 3.466 4.228 3.441 C 4.2 3.415 4.161 3.38 4.142 3.364 C 4.123 3.347 4.092 3.318 4.074 3.299 C 4.055 3.28 4.037 3.265 4.031 3.265 C 4.026 3.265 4.021 3.262 4.021 3.257 C 4.021 3.254 3.999 3.228 3.971 3.2 C 3.943 3.172 3.92 3.146 3.92 3.142 C 3.92 3.131 3.781 2.991 3.771 2.991 C 3.766 2.991 3.76 2.985 3.758 2.979 C 3.756 2.972 3.745 2.957 3.734 2.947 C 3.722 2.936 3.708 2.921 3.701 2.914 C 3.664 2.88 3.584 2.791 3.57 2.772 C 3.562 2.76 3.541 2.734 3.524 2.715 C 3.507 2.696 3.493 2.676 3.493 2.672 C 3.493 2.667 3.485 2.655 3.475 2.646 C 3.465 2.637 3.454 2.62 3.449 2.609 C 3.444 2.597 3.437 2.588 3.433 2.588 C 3.43 2.588 3.422 2.577 3.416 2.563 C 3.41 2.549 3.401 2.536 3.395 2.533 C 3.389 2.531 3.384 2.525 3.384 2.522 C 3.384 2.518 3.373 2.502 3.361 2.487 C 3.324 2.446 3.173 2.223 3.148 2.174 C 3.142 2.163 3.128 2.137 3.116 2.117 C 3.104 2.097 3.078 2.047 3.058 2.005 C 3.038 1.963 3.005 1.899 2.987 1.861 C 2.967 1.824 2.946 1.776 2.939 1.755 C 2.932 1.735 2.924 1.716 2.92 1.714 C 2.916 1.711 2.914 1.7 2.914 1.688 C 2.914 1.677 2.91 1.665 2.906 1.663 C 2.902 1.661 2.899 1.652 2.899 1.642 C 2.899 1.634 2.891 1.606 2.881 1.58 C 2.871 1.555 2.861 1.514 2.859 1.488 C 2.857 1.464 2.851 1.429 2.844 1.411 C 2.838 1.393 2.833 1.367 2.833 1.352 C 2.833 1.337 2.832 1.301 2.831 1.271 C 2.827 1.163 2.842 0.932 2.857 0.875 C 2.865 0.846 2.874 0.812 2.877 0.8 C 2.89 0.749 2.943 0.636 2.958 0.627 C 2.961 0.624 2.964 0.617 2.964 0.61 C 2.964 0.602 2.971 0.591 2.979 0.584 C 2.987 0.577 2.993 0.567 2.993 0.562 C 2.993 0.558 3.001 0.546 3.011 0.537 C 3.021 0.528 3.029 0.517 3.029 0.514 C 3.029 0.501 3.205 0.338 3.228 0.328 C 3.234 0.326 3.247 0.314 3.257 0.302 C 3.268 0.289 3.281 0.278 3.286 0.278 C 3.291 0.278 3.301 0.271 3.308 0.263 C 3.315 0.256 3.326 0.249 3.33 0.249 C 3.335 0.249 3.344 0.244 3.349 0.238 C 3.354 0.231 3.365 0.223 3.373 0.22 C 3.396 0.209 3.419 0.195 3.433 0.184 C 3.446 0.172 3.524 0.134 3.533 0.134 C 3.536 0.134 3.544 0.13 3.55 0.125 C 3.556 0.119 3.573 0.111 3.587 0.106 C 3.601 0.101 3.619 0.094 3.627 0.091 C 3.668 0.074 3.687 0.068 3.693 0.07 C 3.696 0.071 3.706 0.069 3.714 0.066 C 3.772 0.044 3.846 0.028 3.92 0.021 C 3.942 0.019 3.963 0.014 3.968 0.011 C 3.973 0.007 4.022 0.003 4.079 0.001 C 4.157 -0.001 4.201 0.001 4.268 0.012 C 4.383 0.03 4.397 0.035 4.569 0.104 C 4.59 0.113 4.611 0.119 4.615 0.119 C 4.619 0.119 4.65 0.132 4.683 0.148 C 4.716 0.164 4.745 0.177 4.748 0.177 C 4.767 0.177 4.906 0.274 4.921 0.298 C 4.925 0.303 4.944 0.325 4.965 0.345 C 4.986 0.366 5.014 0.402 5.028 0.425 C 5.041 0.449 5.063 0.483 5.077 0.5 C 5.091 0.517 5.117 0.559 5.134 0.593 C 5.152 0.627 5.169 0.659 5.173 0.663 C 5.177 0.668 5.186 0.69 5.194 0.713 C 5.202 0.736 5.22 0.777 5.233 0.806 C 5.247 0.834 5.262 0.872 5.267 0.89 C 5.272 0.908 5.279 0.925 5.283 0.928 C 5.286 0.933 5.288 0.942 5.288 0.95 C 5.288 0.959 5.295 0.983 5.304 1.005 C 5.312 1.026 5.323 1.07 5.329 1.102 C 5.343 1.186 5.365 1.272 5.376 1.294 C 5.38 1.301 5.383 1.317 5.383 1.33 C 5.383 1.343 5.391 1.37 5.401 1.39 C 5.411 1.41 5.419 1.434 5.419 1.444 C 5.419 1.455 5.424 1.468 5.43 1.473 C 5.435 1.478 5.44 1.489 5.44 1.498 C 5.44 1.506 5.446 1.518 5.451 1.523 C 5.457 1.528 5.462 1.536 5.462 1.54 C 5.462 1.545 5.47 1.563 5.48 1.582 C 5.49 1.601 5.498 1.621 5.498 1.627 C 5.498 1.632 5.503 1.64 5.509 1.643 C 5.514 1.646 5.524 1.662 5.532 1.678 C 5.553 1.724 5.645 1.839 5.705 1.894 C 5.735 1.922 5.797 1.98 5.842 2.023 C 5.886 2.067 5.944 2.122 5.97 2.146 C 5.995 2.17 6.039 2.214 6.067 2.243 C 6.095 2.273 6.134 2.312 6.154 2.33 C 6.174 2.348 6.199 2.372 6.209 2.384 C 6.22 2.395 6.245 2.419 6.265 2.437 C 6.286 2.455 6.306 2.474 6.311 2.479 C 6.317 2.483 6.336 2.502 6.356 2.522 C 6.375 2.541 6.406 2.572 6.424 2.59 C 6.573 2.744 6.656 2.83 6.673 2.846 C 6.684 2.856 6.693 2.867 6.693 2.87 C 6.693 2.875 6.815 2.995 6.888 3.061 C 6.913 3.084 6.938 3.107 6.942 3.113 C 6.946 3.118 6.975 3.148 7.006 3.179 C 7.036 3.21 7.067 3.244 7.074 3.254 C 7.08 3.264 7.088 3.272 7.092 3.272 C 7.099 3.272 7.33 3.499 7.33 3.506 C 7.33 3.508 7.352 3.531 7.378 3.558 C 7.404 3.585 7.43 3.617 7.436 3.63 C 7.442 3.642 7.452 3.656 7.46 3.66 C 7.467 3.664 7.475 3.675 7.478 3.685 C 7.48 3.694 7.497 3.719 7.516 3.741 C 7.548 3.779 7.559 3.795 7.579 3.839 C 7.585 3.851 7.593 3.862 7.597 3.862 C 7.6 3.862 7.615 3.886 7.631 3.915 C 7.646 3.943 7.661 3.97 7.664 3.974 C 7.668 3.979 7.682 4.004 7.697 4.032 C 7.711 4.059 7.733 4.098 7.747 4.117 C 7.76 4.138 7.774 4.166 7.779 4.181 C 7.783 4.195 7.79 4.207 7.793 4.207 C 7.797 4.207 7.868 4.343 7.894 4.402 C 7.899 4.412 7.905 4.425 7.909 4.431 C 7.918 4.444 8.011 4.639 8.011 4.644 C 8.011 4.649 8.054 4.741 8.062 4.754 C 8.072 4.77 8.085 4.799 8.108 4.862 C 8.119 4.892 8.134 4.929 8.141 4.945 C 8.148 4.961 8.156 4.985 8.158 5 C 8.161 5.014 8.169 5.039 8.177 5.055 C 8.185 5.072 8.192 5.094 8.192 5.105 C 8.192 5.127 8.203 5.174 8.214 5.197 C 8.217 5.205 8.224 5.229 8.23 5.251 C 8.236 5.273 8.245 5.309 8.252 5.33 C 8.258 5.352 8.265 5.386 8.268 5.406 C 8.27 5.426 8.277 5.448 8.282 5.456 C 8.287 5.464 8.295 5.494 8.3 5.521 C 8.314 5.602 8.324 5.641 8.334 5.671 C 8.34 5.685 8.344 5.715 8.344 5.738 C 8.344 5.759 8.347 5.784 8.351 5.791 C 8.358 5.804 8.372 5.903 8.376 5.967 C 8.377 5.983 8.382 6.025 8.386 6.061 C 8.391 6.097 8.395 6.146 8.395 6.17 C 8.395 6.195 8.397 6.223 8.402 6.233 C 8.418 6.277 8.41 6.665 8.389 6.806 C 8.384 6.847 8.376 6.901 8.373 6.924 C 8.361 7.009 8.334 7.137 8.322 7.169 C 8.319 7.177 8.313 7.196 8.309 7.212 C 8.292 7.281 8.277 7.345 8.268 7.386 C 8.263 7.409 8.253 7.441 8.247 7.456 C 8.24 7.471 8.235 7.491 8.235 7.501 C 8.235 7.509 8.232 7.519 8.229 7.522 C 8.224 7.524 8.215 7.549 8.206 7.578 C 8.198 7.606 8.183 7.647 8.173 7.668 C 8.164 7.689 8.156 7.711 8.156 7.718 C 8.156 7.725 8.149 7.743 8.141 7.759 C 8.133 7.775 8.127 7.791 8.127 7.795 C 8.127 7.8 8.114 7.829 8.098 7.86 C 8.082 7.891 8.069 7.922 8.069 7.929 C 8.069 7.936 8.064 7.945 8.058 7.95 C 8.052 7.955 8.047 7.965 8.047 7.973 C 8.047 7.985 8.002 8.074 7.988 8.09 C 7.985 8.094 7.982 8.105 7.982 8.114 C 7.982 8.123 7.971 8.148 7.958 8.168 C 7.944 8.189 7.925 8.218 7.916 8.234 C 7.907 8.25 7.896 8.268 7.891 8.275 C 7.888 8.281 7.877 8.299 7.868 8.315 C 7.859 8.331 7.847 8.347 7.841 8.352 C 7.835 8.358 7.823 8.375 7.815 8.392 C 7.807 8.408 7.786 8.441 7.769 8.465 C 7.751 8.488 7.736 8.511 7.736 8.513 C 7.736 8.52 7.733 8.524 7.698 8.565 C 7.684 8.581 7.664 8.608 7.652 8.626 C 7.64 8.644 7.613 8.68 7.591 8.706 C 7.569 8.732 7.535 8.773 7.516 8.796 C 7.486 8.833 7.364 8.965 7.319 9.012 C 7.311 9.019 7.293 9.04 7.278 9.058 C 7.264 9.076 7.246 9.096 7.239 9.103 C 7.126 9.207 7.125 9.208 7.05 9.264 C 6.984 9.314 6.967 9.325 6.897 9.368 C 6.868 9.386 6.831 9.409 6.814 9.42 C 6.797 9.43 6.778 9.439 6.772 9.439 C 6.765 9.44 6.756 9.445 6.75 9.451 C 6.745 9.457 6.722 9.471 6.699 9.481 C 6.676 9.492 6.657 9.502 6.657 9.506 C 6.657 9.509 6.653 9.512 6.649 9.512 C 6.642 9.512 6.602 9.529 6.529 9.563 C 6.513 9.57 6.497 9.576 6.493 9.576 C 6.49 9.577 6.474 9.583 6.458 9.591 C 6.442 9.599 6.427 9.605 6.424 9.605 C 6.421 9.605 6.395 9.616 6.366 9.63 C 6.337 9.643 6.288 9.663 6.259 9.674 C 6.229 9.684 6.188 9.701 6.169 9.71 C 6.149 9.72 6.128 9.728 6.122 9.728 C 6.117 9.728 6.1 9.733 6.086 9.741 C 6.071 9.748 6.032 9.765 5.998 9.778 C 5.964 9.79 5.93 9.804 5.922 9.807 C 5.914 9.81 5.885 9.821 5.857 9.832 C 5.829 9.843 5.787 9.859 5.763 9.868 C 5.713 9.887 5.633 9.91 5.491 9.944 C 5.477 9.946 5.445 9.956 5.419 9.964 C 5.333 9.99 5.257 10.003 5.18 10.005 C 5.138 10.006 5.084 10.009 5.06 10.011 C 5.036 10.013 4.983 10.016 4.942 10.019 C 4.9 10.021 4.861 10.026 4.855 10.029 C 4.84 10.036 4.76 10.046 4.691 10.048 C 4.664 10.049 4.595 10.053 4.539 10.058 C 4.438 10.066 3.909 10.074 3.903 10.068 Z" fill="currentColor" fill-rule="nonzero"/>
</svg>
