<svg xmlns="http://www.w3.org/2000/svg" width="2.791" height="2.774" viewBox="0 0 2.791 2.774" fill="none">
  <path d="M 1.244 2.772 C 1.201 2.768 1.133 2.755 1.092 2.744 C 1.073 2.739 1.033 2.729 1.005 2.722 C 0.978 2.716 0.934 2.701 0.91 2.689 C 0.886 2.678 0.861 2.668 0.855 2.668 C 0.85 2.668 0.839 2.664 0.831 2.659 C 0.823 2.653 0.801 2.644 0.782 2.637 C 0.763 2.631 0.735 2.617 0.721 2.605 C 0.706 2.593 0.688 2.582 0.68 2.58 C 0.632 2.562 0.468 2.435 0.4 2.362 C 0.378 2.339 0.349 2.308 0.335 2.294 C 0.322 2.279 0.301 2.254 0.29 2.239 C 0.278 2.224 0.255 2.192 0.237 2.168 C 0.22 2.144 0.205 2.121 0.205 2.117 C 0.205 2.113 0.196 2.095 0.183 2.08 C 0.172 2.063 0.162 2.047 0.162 2.045 C 0.162 2.043 0.149 2.014 0.133 1.982 C 0.044 1.796 0.005 1.636 0 1.421 C -0.003 1.296 0.021 1.074 0.04 1.053 C 0.043 1.049 0.046 1.035 0.046 1.023 C 0.046 1.01 0.049 0.998 0.052 0.996 C 0.055 0.994 0.06 0.978 0.063 0.962 C 0.066 0.945 0.075 0.919 0.083 0.902 C 0.091 0.886 0.107 0.849 0.119 0.821 C 0.144 0.757 0.175 0.698 0.191 0.678 C 0.202 0.664 0.241 0.6 0.249 0.583 C 0.26 0.555 0.429 0.376 0.492 0.324 C 0.548 0.279 0.644 0.213 0.663 0.205 C 0.674 0.201 0.683 0.195 0.683 0.192 C 0.683 0.177 0.842 0.103 0.94 0.073 C 0.96 0.067 0.996 0.055 1.02 0.047 C 1.091 0.023 1.18 0.01 1.327 0.001 C 1.407 -0.004 1.637 0.01 1.65 0.021 C 1.654 0.023 1.664 0.025 1.672 0.023 C 1.68 0.021 1.702 0.025 1.722 0.033 C 1.742 0.041 1.776 0.051 1.798 0.056 C 1.82 0.061 1.855 0.072 1.876 0.082 C 1.896 0.091 1.917 0.099 1.923 0.099 C 1.936 0.099 2.063 0.163 2.073 0.175 C 2.078 0.18 2.086 0.185 2.091 0.185 C 2.114 0.185 2.21 0.249 2.277 0.308 C 2.308 0.336 2.334 0.358 2.335 0.358 C 2.34 0.358 2.464 0.48 2.464 0.485 C 2.464 0.488 2.477 0.506 2.493 0.524 C 2.509 0.543 2.522 0.56 2.522 0.563 C 2.522 0.565 2.534 0.583 2.547 0.601 C 2.561 0.62 2.575 0.639 2.578 0.642 C 2.581 0.647 2.593 0.668 2.605 0.689 C 2.616 0.711 2.631 0.735 2.639 0.744 C 2.647 0.752 2.652 0.768 2.652 0.778 C 2.652 0.788 2.657 0.799 2.663 0.801 C 2.669 0.804 2.678 0.819 2.683 0.836 C 2.687 0.852 2.694 0.868 2.697 0.872 C 2.7 0.876 2.703 0.885 2.703 0.893 C 2.703 0.9 2.711 0.923 2.72 0.943 C 2.736 0.978 2.749 1.022 2.75 1.049 C 2.75 1.055 2.753 1.064 2.756 1.069 C 2.763 1.08 2.773 1.132 2.783 1.218 C 2.793 1.29 2.793 1.551 2.783 1.564 C 2.778 1.57 2.775 1.584 2.765 1.666 C 2.764 1.678 2.756 1.706 2.747 1.728 C 2.739 1.751 2.732 1.777 2.732 1.785 C 2.732 1.794 2.727 1.81 2.721 1.822 C 2.715 1.833 2.71 1.851 2.71 1.862 C 2.71 1.872 2.705 1.887 2.699 1.895 C 2.694 1.903 2.686 1.921 2.681 1.935 C 2.678 1.949 2.666 1.973 2.656 1.987 C 2.646 2.002 2.638 2.018 2.638 2.023 C 2.638 2.028 2.631 2.041 2.623 2.052 C 2.615 2.062 2.609 2.075 2.609 2.081 C 2.609 2.088 2.598 2.105 2.586 2.119 C 2.558 2.151 2.545 2.17 2.539 2.188 C 2.537 2.195 2.532 2.201 2.529 2.201 C 2.525 2.201 2.516 2.213 2.508 2.229 C 2.5 2.244 2.487 2.262 2.481 2.267 C 2.474 2.272 2.459 2.288 2.448 2.301 C 2.42 2.339 2.36 2.398 2.346 2.404 C 2.34 2.406 2.334 2.412 2.334 2.416 C 2.334 2.424 2.25 2.49 2.219 2.506 C 2.206 2.512 2.196 2.521 2.196 2.524 C 2.196 2.529 2.193 2.532 2.188 2.532 C 2.185 2.532 2.169 2.541 2.154 2.552 C 2.121 2.578 1.924 2.683 1.908 2.683 C 1.904 2.683 1.873 2.692 1.837 2.704 C 1.802 2.715 1.757 2.727 1.74 2.729 C 1.722 2.732 1.705 2.737 1.7 2.74 C 1.697 2.744 1.674 2.748 1.65 2.751 C 1.626 2.754 1.598 2.76 1.588 2.763 C 1.57 2.771 1.298 2.777 1.244 2.772 Z" fill="currentColor" fill-rule="nonzero"/>
</svg>
