<svg xmlns="http://www.w3.org/2000/svg" width="40" height="31.610" viewBox="0 0 40 31.610" fill="none">
  <path d="M 24.82 6.39 C 25.03 6.39 25.235 6.328 25.409 6.211 C 25.583 6.095 25.719 5.929 25.799 5.736 C 25.88 5.542 25.901 5.329 25.86 5.123 C 25.819 4.918 25.718 4.729 25.57 4.58 C 25.421 4.432 25.232 4.331 25.027 4.29 C 24.821 4.249 24.608 4.27 24.414 4.351 C 24.221 4.431 24.055 4.567 23.939 4.741 C 23.822 4.915 23.76 5.12 23.76 5.33 C 23.759 5.47 23.785 5.608 23.838 5.737 C 23.891 5.866 23.969 5.984 24.067 6.083 C 24.166 6.181 24.284 6.259 24.413 6.312 C 24.542 6.365 24.68 6.391 24.82 6.39 Z M 8.03 6.39 C 8.24 6.39 8.445 6.328 8.619 6.211 C 8.793 6.095 8.929 5.929 9.009 5.736 C 9.09 5.542 9.111 5.329 9.07 5.123 C 9.029 4.918 8.928 4.729 8.78 4.58 C 8.631 4.432 8.442 4.331 8.237 4.29 C 8.031 4.249 7.818 4.27 7.624 4.351 C 7.431 4.431 7.265 4.567 7.149 4.741 C 7.032 4.915 6.97 5.12 6.97 5.33 C 6.969 5.47 6.995 5.608 7.048 5.737 C 7.101 5.866 7.179 5.984 7.277 6.083 C 7.376 6.181 7.494 6.259 7.623 6.312 C 7.752 6.365 7.89 6.391 8.03 6.39 Z M 31.96 15.53 C 29.828 15.521 27.779 16.359 26.265 17.86 C 24.75 19.361 23.894 21.403 23.885 23.535 C 23.876 25.667 24.714 27.716 26.215 29.23 C 27.716 30.745 29.758 31.601 31.89 31.61 L 31.96 31.61 C 34.092 31.61 36.137 30.763 37.645 29.255 C 39.153 27.747 40 25.702 40 23.57 C 40 21.438 39.153 19.393 37.645 17.885 C 36.137 16.377 34.092 15.53 31.96 15.53 Z M 31.25 20.36 C 31.271 20.185 31.355 20.024 31.487 19.906 C 31.619 19.789 31.789 19.725 31.965 19.725 C 32.141 19.725 32.311 19.789 32.443 19.906 C 32.575 20.024 32.659 20.185 32.68 20.36 L 32.68 24.29 C 32.659 24.465 32.575 24.626 32.443 24.744 C 32.311 24.861 32.141 24.925 31.965 24.925 C 31.789 24.925 31.619 24.861 31.487 24.744 C 31.355 24.626 31.271 24.465 31.25 24.29 L 31.25 20.36 Z M 31.96 27.49 C 31.802 27.49 31.647 27.443 31.516 27.355 C 31.384 27.267 31.281 27.142 31.221 26.996 C 31.16 26.85 31.145 26.689 31.175 26.534 C 31.206 26.379 31.282 26.236 31.394 26.124 C 31.506 26.012 31.649 25.936 31.804 25.905 C 31.959 25.875 32.12 25.89 32.266 25.951 C 32.412 26.011 32.537 26.114 32.625 26.246 C 32.713 26.377 32.76 26.532 32.76 26.69 C 32.76 26.902 32.676 27.106 32.526 27.256 C 32.376 27.406 32.172 27.49 31.96 27.49 Z M 20.89 26.96 L 3.65 26.96 C 3.471 26.961 3.293 26.927 3.126 26.859 C 2.96 26.792 2.809 26.692 2.682 26.565 C 2.555 26.439 2.453 26.288 2.384 26.123 C 2.316 25.957 2.28 25.779 2.28 25.6 L 2.28 12.31 L 30.57 12.31 L 30.57 12.79 C 30.57 13.092 30.69 13.382 30.904 13.596 C 31.118 13.81 31.408 13.93 31.71 13.93 C 32.012 13.93 32.302 13.81 32.516 13.596 C 32.73 13.382 32.85 13.092 32.85 12.79 L 32.85 3.65 C 32.847 2.683 32.462 1.756 31.778 1.072 C 31.094 0.388 30.167 0.003 29.2 0 L 25.8 0 L 25.8 2.79 C 26.392 3.023 26.883 3.455 27.19 4.012 C 27.497 4.568 27.601 5.215 27.482 5.839 C 27.364 6.464 27.031 7.027 26.541 7.433 C 26.052 7.838 25.436 8.06 24.8 8.06 C 24.164 8.06 23.548 7.838 23.059 7.433 C 22.569 7.027 22.236 6.464 22.118 5.839 C 21.999 5.215 22.103 4.568 22.41 4.012 C 22.717 3.455 23.208 3.023 23.8 2.79 L 23.8 0 L 9.01 0 L 9.01 2.79 C 9.602 3.023 10.093 3.455 10.4 4.012 C 10.707 4.568 10.811 5.215 10.692 5.839 C 10.574 6.464 10.241 7.027 9.751 7.433 C 9.262 7.838 8.646 8.06 8.01 8.06 C 7.374 8.06 6.758 7.838 6.269 7.433 C 5.779 7.027 5.446 6.464 5.328 5.839 C 5.209 5.215 5.313 4.568 5.62 4.012 C 5.927 3.455 6.418 3.023 7.01 2.79 L 7.01 0 L 3.65 0 C 2.682 0 1.754 0.385 1.069 1.069 C 0.385 1.754 0 2.682 0 3.65 L 0 25.65 C 0 26.129 0.094 26.603 0.278 27.045 C 0.462 27.488 0.731 27.889 1.07 28.227 C 1.409 28.566 1.811 28.833 2.254 29.016 C 2.697 29.198 3.171 29.291 3.65 29.29 L 20.89 29.29 C 21.04 29.29 21.188 29.261 21.326 29.203 C 21.465 29.146 21.59 29.062 21.696 28.956 C 21.802 28.85 21.886 28.725 21.943 28.586 C 22.001 28.448 22.03 28.3 22.03 28.15 C 22.03 28 22.001 27.852 21.943 27.714 C 21.886 27.575 21.802 27.45 21.696 27.344 C 21.59 27.238 21.465 27.154 21.326 27.097 C 21.188 27.039 21.04 27.01 20.89 27.01 L 20.89 26.96 Z" fill="currentColor" fill-rule="nonzero"/>
</svg>
