<svg xmlns="http://www.w3.org/2000/svg" width="40" height="28" viewBox="0 0 40 28" fill="none">
  <path d="M 30 0 C 31.387 0.014 32.722 0.527 33.762 1.445 C 34.801 2.364 35.475 3.625 35.66 5 L 36.49 10.57 C 37.533 11.025 38.421 11.775 39.044 12.727 C 39.667 13.679 40 14.792 40 15.93 L 40 19.11 C 39.997 20.412 39.561 21.675 38.76 22.7 L 38.76 26 C 38.76 26.53 38.549 27.039 38.174 27.414 C 37.799 27.789 37.29 28 36.76 28 C 36.229 28 35.721 27.789 35.346 27.414 C 34.971 27.039 34.76 26.53 34.76 26 L 34.76 24.95 C 34.557 24.96 34.353 24.96 34.15 24.95 L 5.85 24.95 C 5.589 24.949 5.329 24.932 5.07 24.9 L 5.07 26 C 5.07 26.53 4.859 27.039 4.484 27.414 C 4.109 27.789 3.601 28 3.07 28 C 2.54 28 2.031 27.789 1.656 27.414 C 1.281 27.039 1.07 26.53 1.07 26 L 1.07 22.47 C 0.375 21.487 0.001 20.314 0 19.11 L 0 15.93 C 0.005 14.798 0.339 13.692 0.96 12.746 C 1.581 11.8 2.464 11.054 3.5 10.6 L 4.33 5 C 4.515 3.624 5.191 2.361 6.232 1.442 C 7.274 0.524 8.611 0.012 10 0 L 30 0 Z M 5.85 12.58 C 4.961 12.58 4.11 12.933 3.481 13.562 C 2.853 14.19 2.5 15.041 2.5 15.93 L 2.5 19.11 C 2.503 19.992 2.852 20.837 3.474 21.462 C 4.095 22.087 4.939 22.442 5.82 22.45 L 34.15 22.45 C 35.037 22.45 35.888 22.099 36.516 21.473 C 37.143 20.847 37.497 19.997 37.5 19.11 L 37.5 15.93 C 37.5 15.49 37.413 15.055 37.245 14.648 C 37.077 14.242 36.83 13.873 36.519 13.562 C 36.207 13.25 35.838 13.003 35.432 12.835 C 35.025 12.667 34.59 12.58 34.15 12.58 L 5.85 12.58 Z M 31.6 15.9 C 32.114 15.768 32.661 15.844 33.118 16.114 C 33.576 16.384 33.907 16.825 34.04 17.34 C 34.173 17.854 34.095 18.401 33.825 18.858 C 33.555 19.316 33.114 19.648 32.6 19.78 C 32.262 19.868 31.908 19.866 31.571 19.774 C 31.235 19.683 30.927 19.505 30.681 19.259 C 30.434 19.012 30.256 18.706 30.165 18.369 C 30.074 18.033 30.072 17.677 30.16 17.34 C 30.25 16.992 30.432 16.674 30.688 16.421 C 30.943 16.168 31.262 15.988 31.61 15.9 L 31.6 15.9 Z M 7.4 15.9 C 7.824 15.782 8.274 15.805 8.683 15.969 C 9.091 16.132 9.434 16.426 9.659 16.804 C 9.884 17.182 9.978 17.623 9.927 18.06 C 9.875 18.496 9.681 18.904 9.374 19.22 C 9.067 19.535 8.666 19.741 8.23 19.805 C 7.795 19.868 7.351 19.787 6.967 19.573 C 6.583 19.359 6.279 19.024 6.104 18.62 C 5.93 18.217 5.893 17.766 6 17.34 C 6.086 16.998 6.26 16.684 6.506 16.432 C 6.752 16.179 7.061 15.996 7.4 15.9 Z M 26.07 16.59 C 26.402 16.59 26.72 16.722 26.954 16.956 C 27.188 17.19 27.32 17.508 27.32 17.84 C 27.32 18.171 27.188 18.489 26.954 18.724 C 26.72 18.958 26.402 19.09 26.07 19.09 L 13.93 19.09 C 13.598 19.09 13.28 18.958 13.046 18.724 C 12.812 18.489 12.68 18.171 12.68 17.84 C 12.68 17.508 12.812 17.19 13.046 16.956 C 13.28 16.722 13.598 16.59 13.93 16.59 L 26.07 16.59 Z M 10 2.5 C 9.218 2.508 8.464 2.799 7.88 3.319 C 7.295 3.84 6.919 4.554 6.82 5.33 L 6.11 10.08 L 33.9 10.08 L 33.19 5.33 C 33.091 4.552 32.713 3.837 32.126 3.316 C 31.539 2.796 30.784 2.506 30 2.5 L 10 2.5 Z" fill="currentColor" fill-rule="nonzero"/>
</svg>
