<svg xmlns="http://www.w3.org/2000/svg" width="40" height="32.270" viewBox="0 0 40 32.270" fill="none">
  <path d="M 12.342 11.563 C 11.906 13.45 12.18 15.43 13.11 17.128 C 10.744 18.736 8.998 21.103 8.16 23.838 C 8.1 24.028 8.05 24.218 8 24.408 L 8 24.408 C 5.128 23.982 2.44 22.736 0.26 20.818 C 0.158 20.765 0.069 20.689 0 20.598 L 0 20.008 C -0.004 18.161 0.485 16.347 1.417 14.752 C 2.348 13.157 3.689 11.841 5.3 10.938 C 5.793 10.666 6.308 10.435 6.84 10.248 C 6.098 9.693 5.503 8.967 5.106 8.13 C 4.709 7.294 4.522 6.373 4.561 5.448 C 4.601 4.523 4.865 3.621 5.332 2.821 C 5.799 2.022 6.454 1.348 7.24 0.859 C 8.026 0.37 8.92 0.08 9.844 0.014 C 10.767 -0.051 11.693 0.11 12.54 0.483 C 13.388 0.856 14.131 1.431 14.706 2.157 C 15.281 2.882 15.67 3.738 15.84 4.648 C 15.955 5.309 15.955 5.986 15.84 6.648 L 15.47 6.898 C 13.89 8.017 12.777 9.677 12.342 11.563 Z M 40 20.598 L 40 20.008 C 40.011 18.161 39.528 16.344 38.601 14.746 C 37.675 13.148 36.338 11.826 34.73 10.918 C 34.237 10.646 33.721 10.415 33.19 10.228 C 33.926 9.672 34.516 8.946 34.909 8.112 C 35.301 7.277 35.485 6.36 35.443 5.439 C 35.402 4.518 35.137 3.62 34.671 2.824 C 34.205 2.028 33.553 1.358 32.77 0.871 C 31.987 0.384 31.097 0.094 30.177 0.028 C 29.258 -0.038 28.335 0.121 27.491 0.49 C 26.646 0.86 25.904 1.43 25.329 2.151 C 24.754 2.872 24.363 3.722 24.19 4.628 C 24.077 5.29 24.077 5.966 24.19 6.628 C 25.18 7.236 26.026 8.054 26.669 9.023 C 27.311 9.991 27.735 11.089 27.91 12.238 C 28.145 13.923 27.825 15.64 27 17.128 C 29.329 18.72 31.052 21.053 31.89 23.748 C 31.95 23.958 32.01 24.178 32.06 24.398 C 34.92 23.962 37.596 22.717 39.77 20.808 C 39.86 20.754 39.938 20.683 40 20.598 Z M 23.49 17.868 L 24 18.058 C 25.377 18.631 26.61 19.502 27.609 20.608 C 28.609 21.715 29.35 23.03 29.78 24.458 C 30.131 25.57 30.296 26.732 30.27 27.898 L 30.27 28.338 C 30.215 28.398 30.151 28.449 30.08 28.488 C 27.319 30.925 23.763 32.27 20.08 32.27 C 16.397 32.27 12.841 30.925 10.08 28.488 C 9.981 28.427 9.893 28.349 9.82 28.258 L 9.82 27.678 C 9.826 26.609 9.991 25.548 10.31 24.528 C 10.713 23.18 11.393 21.931 12.305 20.86 C 13.218 19.789 14.343 18.92 15.61 18.308 C 15.93 18.158 16.26 18.018 16.61 17.898 C 15.664 17.178 14.968 16.179 14.619 15.043 C 14.271 13.906 14.288 12.689 14.668 11.563 C 15.048 10.436 15.771 9.457 16.737 8.764 C 17.703 8.071 18.861 7.698 20.05 7.698 L 20.7 7.698 C 21.825 7.831 22.884 8.296 23.743 9.035 C 24.602 9.773 25.22 10.751 25.52 11.843 C 25.82 12.935 25.787 14.092 25.425 15.165 C 25.063 16.239 24.39 17.18 23.49 17.868 Z" fill="currentColor" fill-rule="evenodd"/>
</svg>
