<svg xmlns="http://www.w3.org/2000/svg" width="36.124" height="39.999" viewBox="0 0 36.124 39.999" fill="none">
  <path d="M 35.201 7.72 C 32.256 7.18 29.423 6.149 26.821 4.67 C 21.691 1.93 18.821 0.16 18.821 0.16 C 18.592 0.054 18.343 0 18.091 0 C 17.839 0 17.59 0.054 17.361 0.16 C 17.361 0.16 14.501 1.93 9.361 4.67 C 6.765 6.147 3.939 7.178 1.001 7.72 C 0.694 7.857 0.435 8.082 0.257 8.367 C 0.079 8.652 -0.01 8.984 0.001 9.32 C 0.221 14.61 1.301 33.32 15.791 39.53 C 16.508 39.839 17.28 39.999 18.061 39.999 C 18.842 39.999 19.614 39.839 20.331 39.53 C 34.821 33.27 35.901 14.61 36.121 9.32 C 36.139 8.992 36.062 8.667 35.899 8.383 C 35.735 8.099 35.493 7.868 35.201 7.72 Z M 19.541 36.72 C 19.146 36.887 18.72 36.973 18.291 36.97 L 18.291 3 C 19.361 3.63 21.881 5.1 25.651 7.12 C 28.107 8.452 30.725 9.461 33.441 10.12 C 32.701 23.94 27.911 33.12 19.541 36.74 L 19.541 36.72 Z" fill="currentColor" fill-rule="nonzero"/>
</svg>
