<svg xmlns="http://www.w3.org/2000/svg" width="40" height="40" viewBox="0 0 40 40" fill="none">
  <path d="M 17.1 17 L 17.1 16.2 L 8.3 12.1 L 0 16.2 L 0 17 C 0.1 19.3 0.4 21.5 1 23.7 C 2.7 29.6 5.9 30.9 8.3 30.9 C 16.3 30.8 17.1 17.5 17.1 17 Z M 35.9 0 L 12 0 C 9.8 0 8.1 1.8 8.1 3.9 L 8.1 9.5 L 19.6 14.7 L 19.5 17.1 C 19.2 23.1 16.5 33.1 8.1 33.1 L 8.1 35.9 C 8.1 38.2 9.9 40 12.2 40 L 35.9 40 C 38.2 40 40 38.2 40 35.9 L 40 4.1 C 40 1.8 38.2 0 35.9 0 Z M 32.1 33.9 L 17 33.9 C 16.3 33.8 15.8 33.2 15.9 32.5 C 16 31.9 16.4 31.4 17 31.4 L 32 31.4 C 32.7 31.4 33.2 32 33.2 32.7 C 33.2 33.3 32.7 33.8 32.1 33.9 Z M 21.5 26.2 L 32 26.2 C 32.7 26.3 33.2 26.9 33.1 27.6 C 33 28.2 32.6 28.7 32 28.7 L 21.6 28.7 C 20.9 28.7 20.4 28.1 20.4 27.4 C 20.5 26.8 20.9 26.3 21.5 26.2 Z M 21.3 13 C 21.4 12.4 21.8 11.9 22.4 11.9 L 25.8 11.9 C 26.5 11.9 27 12.5 27 13.2 C 27 13.9 26.6 14.4 25.9 14.4 L 22.4 14.4 C 21.7 14.3 21.2 13.7 21.3 13 Z M 32 23.6 L 22.6 23.6 C 21.9 23.5 21.4 22.9 21.5 22.2 C 21.6 21.6 22 21.1 22.6 21.1 L 31.9 21.1 C 32.6 21.1 33.2 21.6 33.2 22.3 C 33.2 23 32.7 23.5 32 23.6 Z M 32.3 9.6 C 32.2 9.6 32.1 9.6 32.1 9.6 L 17 9.6 C 16.3 9.7 15.7 9.2 15.6 8.5 C 15.5 7.8 16 7.2 16.7 7.1 C 16.8 7.1 16.8 7.1 16.9 7.1 L 32 7.1 C 32.7 7 33.3 7.5 33.4 8.2 C 33.5 8.9 33 9.5 32.3 9.6 Z" fill="currentColor" fill-rule="nonzero"/>
</svg>
