<svg xmlns="http://www.w3.org/2000/svg" width="39.959" height="35.691" viewBox="0 0 39.959 35.691" fill="none">
  <path d="M 18.321 0.406 C 20.611 -0.091 22.977 -0.132 25.283 0.285 C 27.589 0.703 29.79 1.571 31.76 2.839 C 34.052 4.314 35.977 6.293 37.387 8.626 C 38.796 10.959 39.652 13.584 39.891 16.299 C 40.129 19.014 39.743 21.748 38.762 24.29 C 37.781 26.833 36.231 29.118 34.23 30.969 C 34.137 31.089 34.021 31.191 33.89 31.269 C 30.609 34.143 26.39 35.717 22.028 35.691 C 17.667 35.665 13.466 34.042 10.22 31.129 C 9.977 30.91 9.831 30.604 9.814 30.278 C 9.798 29.951 9.911 29.632 10.13 29.389 C 10.349 29.146 10.655 29.001 10.981 28.984 C 11.308 28.967 11.627 29.08 11.87 29.299 C 14.621 31.771 18.172 33.168 21.87 33.233 C 25.568 33.297 29.165 32.025 32 29.65 C 31.852 27.136 30.751 24.774 28.92 23.045 C 27.089 21.317 24.668 20.352 22.15 20.349 C 20.691 20.344 19.249 20.665 17.93 21.289 C 17.635 21.43 17.298 21.448 16.99 21.339 C 16.683 21.23 16.431 21.004 16.29 20.709 C 16.149 20.415 16.131 20.076 16.24 19.769 C 16.349 19.461 16.576 19.21 16.87 19.07 C 17.145 18.931 17.429 18.81 17.72 18.709 C 16.695 17.833 15.952 16.673 15.586 15.375 C 15.22 14.077 15.247 12.7 15.664 11.417 C 16.081 10.135 16.869 9.004 17.928 8.169 C 18.987 7.334 20.269 6.832 21.613 6.726 C 22.958 6.62 24.304 6.914 25.48 7.573 C 26.657 8.231 27.613 9.224 28.226 10.425 C 28.838 11.626 29.081 12.982 28.924 14.322 C 28.766 15.661 28.215 16.923 27.34 17.95 C 27.104 18.22 26.851 18.474 26.58 18.709 C 28.462 19.434 30.137 20.609 31.46 22.131 C 32.783 23.653 33.714 25.476 34.17 27.44 C 35.396 25.801 36.283 23.933 36.778 21.948 C 37.274 19.962 37.368 17.898 37.056 15.875 C 36.743 13.853 36.03 11.913 34.958 10.169 C 33.886 8.426 32.477 6.914 30.813 5.722 C 29.15 4.53 27.264 3.682 25.269 3.228 C 23.273 2.774 21.207 2.722 19.191 3.076 C 17.176 3.431 15.251 4.185 13.53 5.293 C 11.81 6.401 10.327 7.841 9.17 9.53 C 8.992 9.804 8.713 9.996 8.394 10.065 C 8.074 10.133 7.739 10.072 7.465 9.894 C 7.191 9.716 6.998 9.437 6.93 9.118 C 6.861 8.798 6.922 8.464 7.1 8.19 C 8.367 6.219 10.011 4.516 11.937 3.181 C 13.862 1.846 16.031 0.902 18.321 0.406 Z M 6.78 11.162 C 7.483 11.162 8.178 11.31 8.819 11.597 C 9.461 11.884 10.035 12.302 10.504 12.826 C 10.973 13.349 11.326 13.966 11.541 14.635 C 11.756 15.304 11.827 16.011 11.75 16.709 L 11.75 17.839 L 11.92 17.839 C 12.361 17.839 12.785 18.014 13.098 18.325 C 13.411 18.636 13.587 19.058 13.59 19.499 L 13.59 25.589 C 13.59 26.033 13.414 26.459 13.102 26.774 C 12.789 27.089 12.364 27.266 11.92 27.269 L 1.67 27.269 C 1.226 27.266 0.801 27.089 0.488 26.774 C 0.175 26.459 0 26.033 0 25.589 L 0 19.499 C 0.003 19.063 0.176 18.645 0.482 18.335 C 0.789 18.025 1.204 17.847 1.64 17.839 L 1.81 17.839 L 1.81 16.709 C 1.733 16.011 1.805 15.304 2.02 14.635 C 2.234 13.966 2.587 13.349 3.056 12.826 C 3.525 12.302 4.1 11.884 4.741 11.597 C 5.383 11.311 6.078 11.162 6.78 11.162 Z M 6.78 13.74 C 5.958 13.74 5.169 14.066 4.588 14.648 C 4.007 15.229 3.68 16.017 3.68 16.839 L 3.68 17.839 L 9.88 17.839 L 9.88 16.839 C 9.88 16.017 9.553 15.229 8.972 14.648 C 8.39 14.066 7.602 13.74 6.78 13.74 Z M 23.778 9.451 C 22.982 9.122 22.105 9.035 21.26 9.203 C 20.414 9.372 19.637 9.787 19.027 10.397 C 18.418 11.006 18.002 11.783 17.834 12.628 C 17.666 13.474 17.752 14.351 18.082 15.148 C 18.412 15.944 18.971 16.626 19.688 17.105 C 20.404 17.584 21.248 17.839 22.11 17.839 C 23.267 17.839 24.376 17.379 25.193 16.562 C 26.011 15.744 26.47 14.636 26.47 13.48 C 26.47 12.617 26.214 11.774 25.735 11.057 C 25.256 10.34 24.575 9.781 23.778 9.451 Z" fill="currentColor" fill-rule="nonzero"/>
</svg>
