<svg xmlns="http://www.w3.org/2000/svg" width="39.349" height="40" viewBox="0 0 39.349 40" fill="none">
  <path d="M 28.053 19.516 C 25.91 21.661 23.003 22.867 19.97 22.87 C 16.996 22.782 14.173 21.539 12.1 19.404 C 10.028 17.269 8.868 14.411 8.868 11.435 C 8.868 8.459 10.028 5.601 12.1 3.466 C 14.173 1.331 16.996 0.088 19.97 0 C 21.471 0 22.958 0.296 24.344 0.87 C 25.731 1.444 26.991 2.286 28.052 3.348 C 29.114 4.409 29.956 5.669 30.53 7.056 C 31.105 8.443 31.4 9.929 31.4 11.43 C 31.4 14.462 30.196 17.371 28.053 19.516 Z M 26.25 12.12 C 26.035 11.825 25.749 11.588 25.42 11.43 C 25.015 11.264 24.578 11.189 24.14 11.21 C 23.71 11.203 23.284 11.288 22.89 11.46 C 22.553 11.615 22.256 11.844 22.02 12.13 C 21.791 12.428 21.621 12.768 21.52 13.13 C 21.404 13.536 21.347 13.957 21.35 14.38 C 21.352 14.804 21.399 15.226 21.49 15.64 C 21.576 16 21.732 16.34 21.95 16.64 C 22.164 16.934 22.45 17.168 22.78 17.32 C 23.591 17.633 24.489 17.633 25.3 17.32 C 25.637 17.17 25.933 16.94 26.16 16.65 C 26.389 16.352 26.559 16.012 26.66 15.65 C 26.774 15.236 26.832 14.809 26.83 14.38 C 26.831 13.957 26.788 13.534 26.7 13.12 C 26.621 12.759 26.468 12.419 26.25 12.12 Z M 24.06 5.5 L 22.66 5.5 L 15.83 17.68 L 17.25 17.68 L 24.06 5.5 Z M 13.61 6.62 C 13.38 6.919 13.207 7.258 13.1 7.62 L 13.05 7.62 C 12.934 8.033 12.874 8.461 12.87 8.89 C 12.867 9.311 12.914 9.73 13.01 10.14 C 13.091 10.502 13.248 10.843 13.47 11.14 C 13.689 11.424 13.974 11.651 14.3 11.8 C 14.705 11.969 15.141 12.051 15.58 12.04 C 16.005 12.057 16.428 11.982 16.82 11.82 C 17.155 11.681 17.451 11.461 17.68 11.18 C 17.913 10.884 18.084 10.544 18.18 10.18 C 18.292 9.776 18.349 9.359 18.35 8.94 C 18.347 8.514 18.304 8.088 18.22 7.67 C 18.143 7.288 17.986 6.927 17.76 6.61 C 17.549 6.307 17.268 6.06 16.94 5.89 C 16.538 5.71 16.101 5.622 15.66 5.63 C 15.25 5.643 14.847 5.746 14.48 5.93 C 14.141 6.09 13.844 6.326 13.61 6.62 Z M 14.66 10.12 C 14.722 10.303 14.829 10.468 14.97 10.6 C 15.142 10.739 15.359 10.811 15.58 10.8 C 15.798 10.811 16.012 10.74 16.18 10.6 C 16.327 10.469 16.44 10.304 16.51 10.12 C 16.578 9.923 16.622 9.718 16.64 9.51 L 16.64 8.93 L 16.64 8.33 C 16.62 8.1 16.58 7.873 16.52 7.65 C 16.459 7.443 16.353 7.252 16.21 7.09 C 16.139 7.014 16.052 6.954 15.955 6.914 C 15.858 6.875 15.754 6.856 15.65 6.86 C 15.423 6.85 15.201 6.929 15.03 7.08 C 14.88 7.224 14.766 7.403 14.7 7.6 C 14.619 7.815 14.572 8.041 14.56 8.27 L 14.56 8.91 L 14.56 9.5 C 14.568 9.71 14.602 9.918 14.66 10.12 Z M 23.47 16.13 C 23.325 15.984 23.215 15.806 23.15 15.61 C 23.092 15.398 23.058 15.18 23.05 14.96 L 23.05 14.36 L 23.05 13.73 C 23.061 13.51 23.109 13.294 23.19 13.09 C 23.259 12.903 23.372 12.735 23.52 12.6 C 23.696 12.462 23.916 12.391 24.14 12.4 C 24.245 12.394 24.349 12.412 24.446 12.451 C 24.543 12.491 24.63 12.552 24.7 12.63 C 24.84 12.778 24.946 12.956 25.01 13.15 C 25.075 13.358 25.115 13.573 25.13 13.79 L 25.13 14.37 L 25.13 14.97 C 25.112 15.188 25.068 15.402 25 15.61 C 24.931 15.806 24.818 15.984 24.67 16.13 C 24.497 16.26 24.286 16.33 24.07 16.33 C 23.854 16.33 23.643 16.26 23.47 16.13 Z M 37.661 23.685 C 38.25 24.098 38.711 24.668 38.99 25.33 C 39.37 26.094 39.452 26.973 39.219 27.794 C 38.986 28.615 38.455 29.319 37.73 29.77 L 35.21 31.47 C 32.107 33.648 28.886 35.651 25.56 37.47 C 24.935 37.779 24.297 38.05 23.735 38.288 L 23.735 38.289 L 23.735 38.289 C 23.588 38.351 23.445 38.412 23.31 38.47 C 22.556 38.786 21.747 38.949 20.93 38.95 C 20.439 38.948 19.948 38.915 19.46 38.85 L 15.22 38.28 L 14.22 38.14 C 13.091 37.976 11.951 37.893 10.81 37.89 C 10.109 37.886 9.408 37.923 8.71 38 C 8.587 38.565 8.276 39.07 7.827 39.434 C 7.378 39.798 6.818 39.997 6.24 40 L 2.53 40 C 2.196 40.001 1.865 39.936 1.556 39.808 C 1.247 39.68 0.967 39.492 0.731 39.255 C 0.496 39.018 0.31 38.736 0.184 38.426 C 0.059 38.116 -0.004 37.784 0 37.45 L 0 26 C 0.023 25.352 0.294 24.737 0.758 24.283 C 1.221 23.829 1.841 23.57 2.49 23.56 L 5.71 23.56 L 6.21 23.56 C 6.686 23.561 7.152 23.697 7.553 23.952 C 7.955 24.207 8.276 24.57 8.48 25 C 9.787 24.658 11.13 24.47 12.48 24.44 L 13.08 24.44 C 14.563 24.56 16.027 24.856 17.44 25.32 C 18.16 25.539 18.908 25.654 19.66 25.66 L 20.01 25.66 C 21.2 25.58 22.4 25.58 23.79 25.58 C 24.551 25.579 25.298 25.775 25.96 26.15 C 26.197 26.297 26.418 26.468 26.62 26.66 L 32.84 23.75 L 33.64 23.38 C 34.2 23.129 34.807 22.999 35.42 23 C 35.5 22.989 35.581 22.989 35.66 23 C 36.378 23.036 37.072 23.273 37.661 23.685 Z M 24.36 35.18 C 28.488 32.841 32.494 30.29 36.36 27.54 C 36.566 27.42 36.719 27.226 36.786 26.997 C 36.853 26.768 36.829 26.522 36.72 26.31 C 36.615 26.056 36.436 25.84 36.205 25.69 C 35.975 25.54 35.705 25.463 35.43 25.47 C 35.164 25.47 34.902 25.528 34.66 25.64 L 33.65 26.13 C 32.38 26.729 31.104 27.334 29.826 27.94 L 29.824 27.941 L 29.823 27.941 L 29.822 27.942 C 28.606 28.518 27.388 29.095 26.17 29.67 C 26.063 29.703 25.935 29.872 25.849 29.986 C 25.831 30.011 25.814 30.032 25.8 30.05 C 25.608 30.381 25.33 30.653 24.996 30.838 C 24.661 31.023 24.282 31.114 23.9 31.1 L 17.13 31.34 L 15.41 31.4 C 15.356 31.404 15.302 31.397 15.251 31.379 C 15.2 31.36 15.153 31.331 15.114 31.293 C 15.075 31.255 15.045 31.21 15.025 31.159 C 15.006 31.108 14.997 31.054 15 31 C 14.99 30.59 15.17 30.44 15.45 30.44 C 15.516 30.427 17.969 30.34 20.408 30.254 C 21.674 30.209 22.937 30.164 23.86 30.13 C 24.132 30.12 24.4 30.059 24.65 29.95 C 24.841 29.861 24.998 29.714 25.1 29.53 C 25.214 29.312 25.239 29.058 25.167 28.822 C 25.096 28.587 24.936 28.388 24.72 28.27 C 24.45 28.123 24.147 28.047 23.84 28.05 C 22.62 28.05 21.4 28.07 20.18 28.13 L 19.76 28.13 C 18.744 28.124 17.733 27.973 16.76 27.68 C 15.551 27.279 14.299 27.021 13.03 26.91 L 12.57 26.91 C 10.749 26.976 8.951 27.344 7.25 28 L 6.25 28 L 6.25 26 L 2.53 26 L 2.5 37.51 L 6.18 37.51 C 6.184 37.427 6.184 37.343 6.18 37.26 L 6.18 35.84 L 7.18 35.67 C 8.373 35.466 9.58 35.365 10.79 35.37 C 12.049 35.373 13.305 35.467 14.55 35.65 C 14.951 35.705 15.352 35.761 15.754 35.817 L 15.759 35.818 L 15.759 35.818 L 15.759 35.818 C 17.099 36.004 18.443 36.191 19.78 36.36 C 20.14 36.44 20.49 36.44 20.85 36.44 C 21.329 36.444 21.804 36.356 22.25 36.18 C 22.565 36.025 22.883 35.879 23.197 35.735 C 23.592 35.554 23.982 35.375 24.36 35.18 Z" fill="currentColor" fill-rule="evenodd"/>
</svg>
