<svg xmlns="http://www.w3.org/2000/svg" width="36.006" height="36" viewBox="0 0 36.006 36" fill="none">
  <path d="M 2.725 36 C 2.362 35.991 2.015 35.846 1.752 35.595 C 1.489 35.343 1.33 35.003 1.305 34.64 L 0.005 10 C -0.028 9.61 0.094 9.223 0.345 8.924 C 0.596 8.624 0.956 8.436 1.345 8.4 L 10.575 8.4 C 10.766 8.403 10.954 8.443 11.129 8.518 C 11.304 8.593 11.462 8.702 11.595 8.839 C 11.728 8.975 11.832 9.137 11.903 9.314 C 11.973 9.491 12.008 9.68 12.005 9.87 C 11.995 10.49 12.229 11.089 12.658 11.537 C 13.087 11.984 13.676 12.244 14.295 12.26 L 34.595 12.26 C 34.786 12.264 34.974 12.306 35.149 12.383 C 35.324 12.46 35.481 12.571 35.612 12.71 C 35.743 12.849 35.846 13.012 35.913 13.19 C 35.981 13.369 36.012 13.559 36.005 13.75 L 35.485 34.49 C 35.493 34.682 35.463 34.874 35.396 35.054 C 35.33 35.234 35.228 35.4 35.096 35.54 C 34.965 35.681 34.807 35.794 34.632 35.873 C 34.457 35.952 34.268 35.995 34.075 36 L 2.725 36 Z M 15.615 9.18 C 14.991 9.167 14.397 8.909 13.961 8.462 C 13.525 8.015 13.283 7.414 13.285 6.79 C 13.274 6.412 13.125 6.051 12.865 5.776 C 12.605 5.501 12.252 5.332 11.875 5.3 L 2.725 5.3 L 2.595 1.62 C 2.575 1.426 2.593 1.23 2.649 1.043 C 2.705 0.856 2.797 0.682 2.921 0.531 C 3.045 0.381 3.197 0.256 3.37 0.165 C 3.542 0.073 3.731 0.017 3.925 0 L 14.135 0 C 14.518 0.01 14.881 0.172 15.146 0.449 C 15.41 0.727 15.553 1.097 15.545 1.48 L 15.545 1.57 C 15.545 4.13 16.545 4.78 17.875 4.78 L 32.225 4.78 C 33.055 4.78 33.325 5 33.295 5.71 L 33.165 9.18 L 15.615 9.18 Z" fill="currentColor" fill-rule="nonzero"/>
</svg>
