<svg xmlns="http://www.w3.org/2000/svg" width="40" height="25.083" viewBox="0 0 40 25.083" fill="none">
  <path d="M 4.16 0.001 C 3.088 -0.026 2.049 0.372 1.27 1.109 C 0.49 1.845 0.034 2.86 0 3.931 L 0 21.151 C 0.034 22.223 0.49 23.238 1.27 23.974 C 2.049 24.71 3.088 25.108 4.16 25.081 L 35.84 25.081 C 36.912 25.108 37.951 24.71 38.73 23.974 C 39.51 23.238 39.966 22.223 40 21.151 L 40 3.931 C 39.966 2.86 39.51 1.845 38.73 1.109 C 37.951 0.372 36.912 -0.026 35.84 0.001 L 4.16 0.001 Z M 36.55 3.871 L 23 13.101 C 22.11 13.688 21.067 14.001 20 14.001 C 18.933 14.001 17.89 13.688 17 13.101 L 3.52 3.871 C 3.434 3.823 3.361 3.754 3.308 3.671 C 3.254 3.588 3.221 3.493 3.213 3.395 C 3.204 3.297 3.219 3.198 3.257 3.106 C 3.295 3.015 3.354 2.934 3.43 2.871 C 3.59 2.738 3.792 2.667 4 2.671 L 36 2.671 C 36.097 2.664 36.195 2.677 36.287 2.708 C 36.38 2.739 36.465 2.788 36.538 2.852 C 36.612 2.916 36.672 2.994 36.715 3.082 C 36.758 3.169 36.784 3.264 36.79 3.361 C 36.787 3.462 36.76 3.561 36.711 3.65 C 36.663 3.739 36.594 3.814 36.51 3.871 L 36.55 3.871 Z" fill="currentColor" fill-rule="nonzero"/>
</svg>
