<svg xmlns="http://www.w3.org/2000/svg" width="40" height="40" viewBox="0 0 40 40" fill="none">
  <path d="M 20 0 C 16.044 0 12.178 1.173 8.889 3.371 C 5.6 5.568 3.036 8.692 1.522 12.346 C 0.009 16.001 -0.387 20.022 0.384 23.902 C 1.156 27.781 3.061 31.345 5.858 34.142 C 8.655 36.939 12.219 38.844 16.098 39.616 C 19.978 40.387 23.999 39.991 27.654 38.478 C 31.308 36.964 34.432 34.4 36.629 31.111 C 38.827 27.822 40 23.956 40 20 C 40 17.374 39.483 14.773 38.478 12.346 C 37.473 9.92 35.999 7.715 34.142 5.858 C 32.285 4.001 30.08 2.528 27.654 1.522 C 25.227 0.517 22.626 0 20 0 Z M 20 37.5 C 16.539 37.5 13.155 36.474 10.278 34.551 C 7.4 32.628 5.157 29.895 3.832 26.697 C 2.508 23.499 2.161 19.981 2.836 16.586 C 3.512 13.191 5.178 10.073 7.626 7.626 C 10.073 5.178 13.191 3.511 16.586 2.836 C 19.981 2.161 23.499 2.508 26.697 3.832 C 29.895 5.157 32.628 7.4 34.551 10.278 C 36.474 13.155 37.5 16.539 37.5 20 C 37.495 24.64 35.649 29.088 32.369 32.369 C 29.088 35.649 24.64 37.495 20 37.5 Z M 19.84 25.5 C 19.612 25.494 19.386 25.534 19.175 25.619 C 18.963 25.703 18.771 25.829 18.61 25.99 C 18.448 26.145 18.32 26.331 18.234 26.538 C 18.148 26.744 18.106 26.966 18.11 27.19 C 18.097 27.423 18.136 27.656 18.224 27.873 C 18.312 28.089 18.447 28.283 18.62 28.44 C 18.952 28.731 19.378 28.892 19.82 28.892 C 20.262 28.892 20.688 28.731 21.02 28.44 C 21.192 28.282 21.327 28.088 21.415 27.872 C 21.503 27.656 21.543 27.423 21.53 27.19 C 21.533 26.967 21.491 26.746 21.407 26.54 C 21.323 26.334 21.198 26.146 21.041 25.989 C 20.884 25.832 20.696 25.707 20.49 25.623 C 20.284 25.539 20.063 25.497 19.84 25.5 Z M 23.14 11.64 C 22.2 11.207 21.175 10.992 20.14 11.01 C 19.023 10.987 17.918 11.249 16.93 11.77 C 16.081 12.208 15.361 12.859 14.84 13.66 C 14.395 14.328 14.146 15.108 14.12 15.91 C 14.12 16.098 14.159 16.284 14.235 16.456 C 14.311 16.628 14.422 16.783 14.56 16.91 C 14.697 17.055 14.863 17.17 15.048 17.248 C 15.232 17.325 15.43 17.363 15.63 17.36 C 16.34 17.36 16.82 16.94 17.08 16.07 C 17.29 15.335 17.655 14.653 18.15 14.07 C 18.417 13.822 18.733 13.632 19.077 13.513 C 19.421 13.394 19.787 13.349 20.15 13.38 C 20.844 13.354 21.521 13.598 22.04 14.06 C 22.276 14.269 22.465 14.526 22.592 14.814 C 22.72 15.102 22.784 15.415 22.78 15.73 C 22.791 16.079 22.709 16.424 22.54 16.73 C 22.378 17.012 22.18 17.271 21.95 17.5 C 21.72 17.73 21.35 18.07 20.84 18.5 C 20.33 18.93 19.84 19.5 19.47 19.81 C 19.125 20.181 18.851 20.611 18.66 21.08 C 18.446 21.621 18.34 22.198 18.35 22.78 C 18.335 22.987 18.363 23.195 18.432 23.391 C 18.501 23.588 18.609 23.767 18.75 23.92 C 18.882 24.048 19.039 24.148 19.211 24.213 C 19.383 24.279 19.566 24.308 19.75 24.3 C 20.074 24.303 20.386 24.179 20.619 23.955 C 20.853 23.73 20.99 23.424 21 23.1 C 21.09 22.71 21.16 22.44 21.2 22.28 C 21.25 22.115 21.314 21.955 21.39 21.8 C 21.493 21.608 21.621 21.43 21.77 21.27 C 21.973 21.037 22.19 20.817 22.42 20.61 C 23.42 19.74 24.08 19.12 24.42 18.75 C 24.818 18.37 25.155 17.932 25.42 17.45 C 25.694 16.915 25.831 16.321 25.82 15.72 C 25.822 14.887 25.575 14.072 25.11 13.38 C 24.62 12.643 23.939 12.052 23.14 11.67 L 23.14 11.64 Z" fill="currentColor" fill-rule="nonzero"/>
</svg>
