<svg xmlns="http://www.w3.org/2000/svg" width="31.948" height="39.821" viewBox="0 0 31.948 39.821" fill="none">
  <path d="M 31.347 27.441 L 22.347 18.441 C 21.967 18.096 21.469 17.909 20.955 17.921 C 20.442 17.933 19.953 18.141 19.589 18.504 C 19.226 18.866 19.015 19.355 19.002 19.868 C 18.988 20.381 19.173 20.88 19.517 21.261 L 25.107 26.891 L 5.297 26.891 C 4.767 26.893 4.26 27.105 3.887 27.481 C 3.515 27.856 3.306 28.363 3.307 28.891 C 3.307 29.421 3.517 29.93 3.892 30.305 C 4.267 30.68 4.776 30.891 5.307 30.891 L 25.107 30.891 L 19.517 36.481 C 19.173 36.862 18.988 37.361 19.002 37.874 C 19.015 38.387 19.226 38.876 19.589 39.238 C 19.953 39.6 20.442 39.809 20.955 39.821 C 21.469 39.832 21.967 39.646 22.347 39.301 L 31.347 30.301 C 31.537 30.115 31.688 29.892 31.792 29.647 C 31.895 29.401 31.948 29.137 31.948 28.871 C 31.948 28.604 31.895 28.341 31.792 28.095 C 31.688 27.85 31.537 27.627 31.347 27.441 Z M 12.407 21.341 C 12.593 21.155 12.74 20.935 12.841 20.692 C 12.941 20.449 12.993 20.189 12.993 19.926 C 12.993 19.663 12.941 19.403 12.841 19.16 C 12.74 18.917 12.593 18.697 12.407 18.511 L 6.817 12.891 L 26.627 12.891 C 26.89 12.891 27.152 12.839 27.396 12.738 C 27.639 12.637 27.861 12.488 28.047 12.301 C 28.325 12.021 28.515 11.664 28.591 11.276 C 28.667 10.889 28.626 10.487 28.474 10.122 C 28.323 9.757 28.066 9.446 27.737 9.226 C 27.408 9.007 27.022 8.891 26.627 8.891 L 6.817 8.891 L 12.407 3.301 C 12.734 2.918 12.905 2.426 12.886 1.923 C 12.867 1.419 12.658 0.942 12.302 0.586 C 11.946 0.23 11.468 0.021 10.965 0.001 C 10.461 -0.018 9.969 0.153 9.587 0.481 L 0.587 9.481 C 0.401 9.667 0.253 9.887 0.152 10.13 C 0.052 10.373 0 10.633 0 10.896 C 0 11.159 0.052 11.419 0.152 11.662 C 0.253 11.905 0.401 12.125 0.587 12.311 L 9.587 21.311 C 9.957 21.687 10.462 21.902 10.99 21.908 C 11.519 21.913 12.028 21.709 12.407 21.341 Z" fill="currentColor" fill-rule="nonzero"/>
</svg>
