<svg xmlns="http://www.w3.org/2000/svg" width="39.634" height="29.995" viewBox="0 0 39.634 29.995" fill="none">
  <path d="M 1.482 29.994 C 1.286 29.993 1.092 29.952 0.912 29.874 C 0.55 29.722 0.262 29.432 0.113 29.069 C -0.037 28.705 -0.038 28.298 0.112 27.934 C 0.112 27.934 2.322 22.614 5.232 16.824 C 9.232 8.924 12.582 3.824 15.232 1.664 C 16.192 0.868 17.337 0.328 18.562 0.094 C 19.735 -0.144 20.954 0.074 21.972 0.704 C 22.49 1.06 22.929 1.517 23.265 2.049 C 23.6 2.58 23.824 3.174 23.922 3.794 C 24.172 5.362 24.059 6.967 23.592 8.484 C 22.992 10.674 22.182 13.414 21.392 16.064 C 20.392 19.434 19.392 22.924 18.782 25.234 C 18.562 26.154 18.902 26.644 19.262 26.784 C 19.462 26.854 19.832 26.904 20.122 26.364 C 21.333 23.852 22.378 21.263 23.252 18.614 C 23.712 17.314 24.072 16.284 24.332 15.704 C 24.703 14.828 25.358 14.103 26.192 13.644 C 26.961 13.258 27.847 13.179 28.672 13.424 C 29.503 13.678 30.214 14.226 30.672 14.964 C 31.159 15.759 31.344 16.704 31.192 17.624 C 31.022 18.514 30.785 19.39 30.482 20.244 C 30.154 21.181 29.906 22.145 29.742 23.124 C 29.709 23.369 29.728 23.619 29.797 23.856 C 29.865 24.094 29.983 24.314 30.142 24.504 C 30.268 24.644 30.422 24.755 30.595 24.829 C 30.767 24.903 30.954 24.939 31.142 24.934 C 33.003 24.874 34.854 24.643 36.672 24.244 C 37.192 24.134 37.602 24.054 37.942 24.014 C 38.337 23.964 38.736 24.072 39.051 24.316 C 39.366 24.56 39.572 24.919 39.622 25.314 C 39.672 25.709 39.564 26.108 39.32 26.423 C 39.076 26.738 38.717 26.944 38.322 26.994 C 38.092 26.994 37.712 27.104 37.322 27.194 C 35.327 27.638 33.295 27.889 31.252 27.944 C 30.636 27.964 30.024 27.848 29.457 27.607 C 28.891 27.365 28.384 27.002 27.972 26.544 C 27.516 26.038 27.176 25.438 26.975 24.787 C 26.775 24.136 26.719 23.449 26.812 22.774 C 26.989 21.606 27.277 20.457 27.672 19.344 C 27.923 18.629 28.124 17.897 28.272 17.154 C 28.322 16.98 28.306 16.794 28.226 16.631 C 28.147 16.469 28.01 16.341 27.842 16.274 C 27.462 16.164 27.182 16.694 27.072 16.934 C 26.862 17.394 26.502 18.414 26.072 19.604 C 25.154 22.399 24.048 25.128 22.762 27.774 C 22.342 28.604 21.63 29.249 20.762 29.584 C 19.954 29.894 19.06 29.894 18.252 29.584 C 17.369 29.231 16.654 28.555 16.252 27.694 C 15.798 26.715 15.703 25.607 15.982 24.564 C 16.562 22.174 17.612 18.654 18.632 15.244 C 19.412 12.614 20.232 9.894 20.812 7.734 C 21.153 6.659 21.252 5.522 21.102 4.404 C 21.107 4.16 21.052 3.919 20.942 3.702 C 20.832 3.485 20.669 3.298 20.469 3.158 C 20.27 3.019 20.038 2.931 19.796 2.902 C 19.554 2.874 19.309 2.905 19.082 2.994 C 18.358 3.158 17.688 3.502 17.132 3.994 C 15.337 5.652 13.806 7.574 12.592 9.694 C 11.152 11.984 9.592 14.824 7.902 18.154 C 5.032 23.854 2.902 29.034 2.902 29.084 C 2.784 29.361 2.585 29.595 2.332 29.758 C 2.079 29.92 1.783 30.002 1.482 29.994 Z" fill="currentColor" fill-rule="nonzero"/>
</svg>
