<svg xmlns="http://www.w3.org/2000/svg" width="36" height="36" viewBox="0 0 36 36" fill="none">
  <path d="M 18 0 C 8.05 0 0 2.52 0 5.63 L 0 9 L 13.5 22.5 L 13.5 33.75 C 13.5 35 15.52 36 18 36 C 20.48 36 22.51 35 22.51 33.75 L 22.51 22.5 L 36 9 L 36 5.61 C 36 2.52 28 0 18 0 Z M 3.32 4.88 C 4.403 4.306 5.552 3.862 6.74 3.56 C 10.422 2.645 14.206 2.205 18 2.25 C 21.794 2.204 25.578 2.645 29.26 3.56 C 30.448 3.862 31.597 4.306 32.68 4.88 C 33.052 5.074 33.39 5.327 33.68 5.63 C 33.389 5.93 33.052 6.18 32.68 6.37 C 31.598 6.948 30.45 7.391 29.26 7.69 C 25.579 8.61 21.794 9.051 18 9 C 14.206 9.05 10.421 8.61 6.74 7.69 C 5.551 7.381 4.403 6.931 3.32 6.35 C 2.948 6.16 2.61 5.91 2.32 5.61 C 2.613 5.316 2.951 5.07 3.32 4.88 Z" fill="currentColor" fill-rule="nonzero"/>
</svg>
