<svg xmlns="http://www.w3.org/2000/svg" width="39.349" height="40.020" viewBox="0 0 39.349 40.020" fill="none">
  <path d="M 38.99 25.35 C 38.711 24.688 38.25 24.118 37.661 23.705 C 37.072 23.293 36.378 23.056 35.66 23.02 C 35.581 23.009 35.5 23.009 35.42 23.02 C 34.807 23.019 34.2 23.149 33.64 23.4 L 32.84 23.77 L 26.62 26.68 C 26.418 26.488 26.197 26.317 25.96 26.17 C 25.298 25.795 24.551 25.599 23.79 25.6 C 22.4 25.6 21.2 25.6 20.01 25.68 L 19.66 25.68 C 18.908 25.674 18.16 25.559 17.44 25.34 C 16.027 24.876 14.563 24.58 13.08 24.46 L 12.48 24.46 C 11.13 24.49 9.787 24.678 8.48 25.02 C 8.276 24.59 7.955 24.227 7.553 23.972 C 7.152 23.717 6.686 23.581 6.21 23.58 L 5.71 23.58 L 2.49 23.58 C 1.841 23.59 1.221 23.849 0.758 24.303 C 0.294 24.757 0.023 25.372 0 26.02 L 0 37.47 C -0.004 37.804 0.059 38.136 0.184 38.446 C 0.31 38.756 0.496 39.038 0.731 39.275 C 0.967 39.512 1.247 39.7 1.556 39.828 C 1.865 39.956 2.196 40.021 2.53 40.02 L 6.24 40.02 C 6.818 40.017 7.378 39.818 7.827 39.454 C 8.276 39.09 8.587 38.585 8.71 38.02 C 9.408 37.943 10.109 37.906 10.81 37.91 C 11.951 37.913 13.091 37.996 14.22 38.16 L 15.22 38.3 L 19.46 38.87 C 19.948 38.935 20.439 38.968 20.93 38.97 C 21.747 38.969 22.556 38.806 23.31 38.49 C 23.96 38.21 24.77 37.88 25.56 37.49 C 28.886 35.671 32.107 33.668 35.21 31.49 L 37.73 29.79 C 38.455 29.339 38.986 28.635 39.219 27.814 C 39.452 26.993 39.37 26.114 38.99 25.35 Z M 36.36 27.56 C 32.494 30.31 28.488 32.861 24.36 35.2 C 23.68 35.55 22.96 35.85 22.25 36.2 C 21.804 36.376 21.329 36.464 20.85 36.46 C 20.49 36.46 20.14 36.46 19.78 36.38 C 18.04 36.16 16.29 35.91 14.55 35.67 C 13.305 35.487 12.049 35.393 10.79 35.39 C 9.58 35.385 8.373 35.486 7.18 35.69 L 6.18 35.86 L 6.18 37.28 C 6.184 37.363 6.184 37.447 6.18 37.53 L 2.5 37.53 L 2.53 26.02 L 6.25 26.02 L 6.25 28.02 L 7.25 28.02 C 8.951 27.364 10.749 26.996 12.57 26.93 L 13.03 26.93 C 14.299 27.041 15.551 27.299 16.76 27.7 C 17.733 27.993 18.744 28.144 19.76 28.15 L 20.18 28.15 C 21.4 28.09 22.62 28.07 23.84 28.07 C 24.147 28.067 24.45 28.143 24.72 28.29 C 24.936 28.409 25.096 28.607 25.167 28.842 C 25.239 29.078 25.214 29.332 25.1 29.55 C 24.998 29.734 24.841 29.881 24.65 29.97 C 24.4 30.079 24.132 30.14 23.86 30.15 C 21.16 30.25 15.55 30.44 15.45 30.46 C 15.17 30.46 14.99 30.61 15 31.02 C 14.997 31.074 15.006 31.128 15.025 31.179 C 15.045 31.23 15.075 31.275 15.114 31.313 C 15.153 31.351 15.2 31.38 15.251 31.399 C 15.302 31.417 15.356 31.424 15.41 31.42 L 17.13 31.36 L 23.9 31.12 C 24.282 31.134 24.661 31.043 24.996 30.858 C 25.33 30.673 25.608 30.401 25.8 30.07 C 25.88 29.97 26.04 29.73 26.17 29.69 C 28.67 28.51 31.17 27.32 33.65 26.15 L 34.66 25.66 C 34.903 25.553 35.165 25.495 35.43 25.49 C 35.705 25.483 35.975 25.56 36.205 25.71 C 36.436 25.86 36.615 26.076 36.72 26.33 C 36.829 26.542 36.853 26.788 36.786 27.017 C 36.719 27.246 36.566 27.44 36.36 27.56 Z M 19.96 22.9 C 22.995 22.9 25.906 21.695 28.053 19.55 C 30.2 17.405 31.408 14.495 31.41 11.46 C 31.412 9.195 30.742 6.98 29.485 5.096 C 28.228 3.212 26.441 1.743 24.349 0.874 C 22.257 0.006 19.954 -0.222 17.733 0.219 C 15.511 0.659 13.47 1.749 11.867 3.35 C 10.265 4.951 9.174 6.991 8.731 9.213 C 8.288 11.434 8.514 13.737 9.381 15.829 C 10.247 17.922 11.715 19.711 13.598 20.97 C 15.481 22.228 17.695 22.9 19.96 22.9 Z M 19.64 11.9 C 18.27 11.37 17 10.66 17 9.08 C 17.016 8.444 17.256 7.834 17.676 7.357 C 18.097 6.88 18.671 6.566 19.3 6.47 L 19.3 5.61 C 19.3 5.432 19.371 5.262 19.496 5.136 C 19.622 5.011 19.792 4.94 19.97 4.94 C 20.148 4.94 20.318 5.011 20.444 5.136 C 20.57 5.262 20.64 5.432 20.64 5.61 L 20.64 6.43 C 21.113 6.456 21.579 6.557 22.02 6.73 C 22.11 6.764 22.192 6.816 22.261 6.883 C 22.33 6.95 22.384 7.031 22.42 7.12 C 22.46 7.208 22.481 7.303 22.481 7.4 C 22.481 7.497 22.46 7.592 22.42 7.68 C 22.369 7.813 22.279 7.928 22.161 8.008 C 22.043 8.089 21.903 8.131 21.76 8.13 C 21.664 8.129 21.568 8.109 21.48 8.07 C 21.054 7.899 20.599 7.811 20.14 7.81 C 19.14 7.81 18.72 8.4 18.72 8.92 C 18.72 9.44 19.11 9.92 20.47 10.47 C 22.19 11.19 22.92 12.07 22.92 13.42 C 22.919 14.09 22.678 14.737 22.242 15.244 C 21.805 15.752 21.202 16.088 20.54 16.19 L 20.54 17.11 C 20.552 17.204 20.543 17.3 20.515 17.39 C 20.487 17.481 20.44 17.565 20.377 17.636 C 20.314 17.707 20.237 17.764 20.15 17.803 C 20.064 17.842 19.97 17.862 19.875 17.862 C 19.78 17.862 19.686 17.842 19.6 17.803 C 19.513 17.764 19.436 17.707 19.373 17.636 C 19.31 17.565 19.263 17.481 19.235 17.39 C 19.207 17.3 19.199 17.204 19.21 17.11 L 19.21 16.25 C 18.595 16.223 17.99 16.077 17.43 15.82 C 17.277 15.754 17.151 15.637 17.073 15.489 C 16.996 15.341 16.971 15.171 17.004 15.007 C 17.037 14.843 17.125 14.695 17.253 14.588 C 17.382 14.482 17.543 14.422 17.71 14.42 C 17.815 14.417 17.918 14.441 18.01 14.49 C 18.519 14.711 19.066 14.83 19.62 14.84 C 20.62 14.84 21.24 14.32 21.24 13.56 C 21.24 12.8 20.79 12.39 19.66 11.91 L 19.64 11.9 Z" fill="currentColor" fill-rule="nonzero"/>
</svg>
