<svg xmlns="http://www.w3.org/2000/svg" width="36" height="36" viewBox="0 0 36 36" fill="none">
  <path d="M 28.4 0 L 7.6 0 C 3.4 0 0 3.4 0 7.6 L 0 28.4 C 0 32.6 3.4 36 7.6 36 L 22.07 36 L 36 22.27 L 36 7.53 C 35.97 3.36 32.58 0 28.4 0 Z M 21.73 32.67 L 21.73 26.67 C 21.73 23.91 23.96 21.67 26.72 21.67 L 32.87 21.67 L 21.74 32.67 L 21.73 32.67 Z M 33.32 19.07 L 26.73 19.07 C 22.53 19.07 19.13 22.47 19.13 26.67 L 19.13 33.34 L 7.53 33.41 C 4.77 33.41 2.53 31.18 2.53 28.42 L 2.53 7.6 C 2.53 4.84 4.76 2.6 7.52 2.6 L 28.33 2.6 C 31.09 2.6 33.33 4.83 33.33 7.59 L 33.32 19.07 Z" fill="currentColor" fill-rule="nonzero"/>
</svg>
