<svg xmlns="http://www.w3.org/2000/svg" width="40" height="40.025" viewBox="0 0 40 40.025" fill="none">
  <path d="M 20 40.025 C 15.146 39.994 10.465 38.22 6.81 35.025 C 6.672 34.953 6.55 34.855 6.45 34.735 C 4.436 32.847 2.827 30.57 1.718 28.041 C 0.609 25.513 0.025 22.786 0 20.025 C -0.004 16.697 0.822 13.421 2.404 10.492 C 3.987 7.564 6.275 5.077 9.061 3.257 C 11.847 1.436 15.044 0.34 18.361 0.067 C 21.678 -0.205 25.011 0.354 28.057 1.695 C 31.103 3.035 33.767 5.115 35.806 7.745 C 37.845 10.376 39.196 13.473 39.735 16.758 C 40.275 20.042 39.986 23.409 38.896 26.553 C 37.805 29.698 35.947 32.521 33.49 34.765 C 33.388 34.875 33.27 34.97 33.14 35.045 C 29.511 38.247 24.84 40.018 20 40.025 Z M 20.06 22.785 C 17.224 22.798 14.498 23.88 12.425 25.816 C 10.353 27.751 9.087 30.397 8.88 33.225 L 8.88 33.475 L 9.11 33.595 C 12.233 36.096 16.109 37.47 20.11 37.495 C 24.12 37.502 28.008 36.117 31.11 33.575 L 31.31 33.475 L 31.31 33.235 C 31.113 30.534 29.949 27.994 28.031 26.08 C 26.114 24.167 23.572 23.008 20.87 22.815 L 20.06 22.785 Z M 20 7.485 C 21.504 7.49 22.974 7.94 24.222 8.779 C 25.471 9.618 26.443 10.808 27.015 12.199 C 27.588 13.59 27.735 15.12 27.439 16.595 C 27.142 18.07 26.415 19.424 25.35 20.485 L 24.88 20.945 L 25.47 21.175 C 27.356 21.99 29.037 23.215 30.39 24.762 C 31.743 26.308 32.734 28.137 33.29 30.115 L 33.51 30.995 L 34.03 30.375 L 34.08 30.305 C 35.992 27.703 37.145 24.621 37.411 21.402 C 37.677 18.184 37.045 14.954 35.586 12.073 C 34.128 9.191 31.899 6.771 29.147 5.08 C 26.396 3.389 23.23 2.494 20 2.494 C 16.77 2.494 13.604 3.389 10.853 5.08 C 8.101 6.771 5.872 9.191 4.414 12.073 C 2.955 14.954 2.323 18.184 2.589 21.402 C 2.855 24.621 4.008 27.703 5.92 30.305 L 6.49 30.995 L 6.71 30.105 C 7.244 28.118 8.227 26.28 9.582 24.732 C 10.938 23.184 12.631 21.967 14.53 21.175 L 15.12 20.945 L 14.58 20.405 C 13.533 19.337 12.824 17.983 12.543 16.514 C 12.262 15.045 12.42 13.525 12.999 12.145 C 13.578 10.766 14.551 9.588 15.796 8.759 C 17.042 7.93 18.504 7.487 20 7.485 Z M 15 15.195 C 15.022 16.58 15.591 17.9 16.582 18.868 C 17.574 19.835 18.907 20.372 20.292 20.36 C 21.677 20.349 23.001 19.791 23.977 18.808 C 24.952 17.824 25.499 16.496 25.499 15.11 C 25.499 13.725 24.952 12.397 23.977 11.413 C 23.001 10.43 21.677 9.872 20.292 9.861 C 18.907 9.849 17.574 10.386 16.582 11.353 C 15.591 12.321 15.022 13.641 15 15.025 L 15 15.195 Z" fill="currentColor" fill-rule="nonzero"/>
</svg>
