<svg xmlns="http://www.w3.org/2000/svg" width="36" height="36" viewBox="0 0 36 36" fill="none">
  <path d="M 34.85 9.06 L 27.07 1.19 C 26.699 0.814 26.257 0.515 25.769 0.311 C 25.282 0.107 24.759 0.001 24.23 0 L 4 0 C 2.939 0 1.922 0.421 1.172 1.172 C 0.421 1.922 0 2.939 0 4 L 0 32 C 0 33.061 0.421 34.078 1.172 34.828 C 1.922 35.579 2.939 36 4 36 L 32 36 C 33.061 36 34.078 35.579 34.828 34.828 C 35.579 34.078 36 33.061 36 32 L 36 11.87 C 36.001 10.819 35.588 9.809 34.85 9.06 Z M 21.33 5.32 C 21.33 4.988 21.462 4.671 21.696 4.436 C 21.931 4.202 22.248 4.07 22.58 4.07 C 22.912 4.07 23.229 4.202 23.464 4.436 C 23.698 4.671 23.83 4.988 23.83 5.32 L 23.83 9.09 C 23.83 9.422 23.698 9.739 23.464 9.974 C 23.229 10.208 22.912 10.34 22.58 10.34 C 22.248 10.34 21.931 10.208 21.696 9.974 C 21.462 9.739 21.33 9.422 21.33 9.09 L 21.33 5.32 Z M 7.56 5.32 C 7.56 4.988 7.692 4.671 7.926 4.436 C 8.161 4.202 8.478 4.07 8.81 4.07 C 9.142 4.07 9.459 4.202 9.694 4.436 C 9.928 4.671 10.06 4.988 10.06 5.32 L 10.06 9.61 C 10.06 11.3 10.8 12.12 12.33 12.12 L 24.67 12.12 C 25.002 12.12 25.319 12.252 25.554 12.486 C 25.788 12.721 25.92 13.038 25.92 13.37 C 25.92 13.702 25.788 14.019 25.554 14.254 C 25.319 14.488 25.002 14.62 24.67 14.62 L 12.33 14.62 C 9.43 14.62 7.56 12.62 7.56 9.62 L 7.56 5.32 Z M 28.44 33.5 L 7.56 33.5 L 7.56 26 C 7.563 24.737 8.066 23.526 8.961 22.634 C 9.855 21.741 11.067 21.24 12.33 21.24 L 23.67 21.24 C 24.933 21.24 26.145 21.741 27.039 22.634 C 27.934 23.526 28.437 24.737 28.44 26 L 28.44 33.5 Z" fill="currentColor" fill-rule="nonzero"/>
</svg>
