<svg xmlns="http://www.w3.org/2000/svg" width="27.010" height="39.995" viewBox="0 0 27.010 39.995" fill="none">
  <path d="M 24 0 L 3 0 C 2.204 0 1.441 0.316 0.879 0.879 C 0.316 1.441 0 2.204 0 3 L 0 30.7 C 0.017 31.207 0.163 31.702 0.424 32.137 C 0.685 32.573 1.051 32.935 1.49 33.19 L 12 39.57 C 12.465 39.848 12.998 39.995 13.54 39.995 C 14.082 39.995 14.615 39.848 15.08 39.57 L 25.59 33.19 C 26.021 32.923 26.378 32.551 26.626 32.108 C 26.875 31.666 27.007 31.167 27.01 30.66 L 27.01 3 C 27.01 2.605 26.932 2.214 26.781 1.85 C 26.629 1.485 26.407 1.154 26.128 0.875 C 25.848 0.596 25.516 0.376 25.151 0.226 C 24.786 0.075 24.395 -0.001 24 0 Z M 19.07 28.25 L 13.49 23.3 L 7.91 28.25 L 5.91 26.05 L 12.49 20.23 C 12.762 19.978 13.119 19.837 13.49 19.837 C 13.861 19.837 14.218 19.978 14.49 20.23 L 21.04 26.05 L 19.07 28.25 Z M 19.07 21.42 L 13.49 16.42 L 7.91 21.42 L 5.91 19.21 L 12.49 13.4 C 12.762 13.148 13.119 13.007 13.49 13.007 C 13.861 13.007 14.218 13.148 14.49 13.4 L 21.04 19.21 L 19.07 21.42 Z M 19.07 14.58 L 13.49 9.63 L 7.91 14.58 L 5.91 12.38 L 12.49 6.56 C 12.764 6.312 13.12 6.175 13.49 6.175 C 13.86 6.175 14.216 6.312 14.49 6.56 L 21.04 12.38 L 19.07 14.58 Z" fill="currentColor" fill-rule="nonzero"/>
</svg>
