<svg xmlns="http://www.w3.org/2000/svg" width="29.589" height="39.900" viewBox="0 0 29.589 39.900" fill="none">
  <path d="M 29.425 16.16 C 29.279 15.845 29.046 15.578 28.754 15.39 C 28.462 15.203 28.122 15.102 27.775 15.1 L 18.305 15.1 L 22.115 2.34 C 22.237 1.946 22.219 1.521 22.064 1.138 C 21.909 0.756 21.627 0.438 21.265 0.24 C 20.992 0.081 20.681 -0.002 20.365 0 C 20.111 0.001 19.859 0.055 19.627 0.159 C 19.395 0.262 19.186 0.412 19.015 0.6 L 0.435 21.19 C 0.212 21.452 0.067 21.771 0.019 22.111 C -0.03 22.452 0.018 22.799 0.158 23.113 C 0.298 23.427 0.525 23.695 0.811 23.885 C 1.097 24.076 1.431 24.182 1.775 24.19 L 10.855 24.19 L 7.855 37.71 C 7.773 38.107 7.828 38.52 8.009 38.883 C 8.19 39.246 8.488 39.537 8.855 39.71 C 9.107 39.833 9.384 39.898 9.665 39.9 C 9.929 39.9 10.19 39.843 10.43 39.732 C 10.67 39.622 10.883 39.461 11.055 39.26 L 29.155 18.1 C 29.379 17.835 29.523 17.513 29.571 17.169 C 29.619 16.826 29.568 16.476 29.425 16.16 Z M 26.695 17.69 L 10.435 37.11 C 10.398 37.162 10.344 37.199 10.282 37.215 C 10.221 37.231 10.155 37.225 10.098 37.197 C 10.04 37.17 9.995 37.123 9.968 37.065 C 9.942 37.007 9.937 36.941 9.955 36.88 L 13.435 22.51 C 13.445 22.463 13.445 22.415 13.434 22.368 C 13.424 22.322 13.403 22.278 13.373 22.241 C 13.343 22.204 13.306 22.173 13.263 22.152 C 13.22 22.131 13.173 22.12 13.125 22.12 L 3.125 22.12 C 3.071 22.122 3.018 22.107 2.972 22.078 C 2.926 22.049 2.89 22.007 2.869 21.958 C 2.847 21.908 2.841 21.853 2.851 21.8 C 2.861 21.747 2.887 21.698 2.925 21.66 L 19.595 2.66 C 19.636 2.61 19.693 2.577 19.756 2.566 C 19.819 2.554 19.885 2.566 19.94 2.599 C 19.996 2.631 20.038 2.682 20.059 2.743 C 20.08 2.804 20.078 2.87 20.055 2.93 L 15.555 16.83 C 15.534 16.874 15.523 16.922 15.523 16.97 C 15.523 17.019 15.534 17.066 15.555 17.11 C 15.585 17.15 15.625 17.183 15.67 17.205 C 15.715 17.228 15.764 17.24 15.815 17.24 L 26.485 17.24 C 26.538 17.238 26.59 17.252 26.635 17.28 C 26.68 17.307 26.716 17.348 26.738 17.396 C 26.761 17.444 26.769 17.497 26.761 17.549 C 26.753 17.602 26.73 17.651 26.695 17.69 Z" fill="currentColor" fill-rule="nonzero"/>
</svg>
