<svg xmlns="http://www.w3.org/2000/svg" width="28.033" height="37.990" viewBox="0 0 28.033 37.990" fill="none">
  <path d="M 22.25 11.82 C 22.108 11.607 22.032 11.356 22.032 11.1 C 22.032 10.844 22.108 10.593 22.25 10.38 L 27.82 2 C 27.948 1.806 28.021 1.581 28.032 1.349 C 28.042 1.117 27.99 0.886 27.88 0.681 C 27.771 0.477 27.608 0.305 27.409 0.185 C 27.21 0.065 26.982 0.001 26.75 0 L 1.81 0 C 1.325 0.01 0.863 0.211 0.524 0.559 C 0.186 0.907 -0.003 1.374 0 1.86 L 0 36.37 C 0 36.8 0.171 37.212 0.475 37.516 C 0.778 37.819 1.19 37.99 1.62 37.99 C 2.05 37.99 2.462 37.819 2.766 37.516 C 3.069 37.212 3.24 36.8 3.24 36.37 L 3.24 22.19 L 26.75 22.19 C 26.982 22.189 27.21 22.125 27.409 22.005 C 27.608 21.885 27.771 21.713 27.88 21.509 C 27.99 21.304 28.042 21.073 28.032 20.841 C 28.021 20.609 27.948 20.384 27.82 20.19 L 22.25 11.82 Z" fill="currentColor" fill-rule="nonzero"/>
</svg>
