<svg xmlns="http://www.w3.org/2000/svg" width="34.487" height="34.479" viewBox="0 0 34.487 34.479" fill="none">
  <path d="M 34.086 0.41 C 33.888 0.213 33.636 0.079 33.362 0.026 C 33.088 -0.027 32.804 0.002 32.546 0.11 L 1.236 11.99 C 0.066 12.43 -0.764 14.26 1.086 14.92 C 1.776 15.17 10.916 18.39 11.776 18.66 C 12.178 18.867 12.624 18.975 13.076 18.975 C 13.528 18.975 13.974 18.867 14.376 18.66 C 15.316 18.1 19.856 13.85 20.116 13.66 C 20.376 13.47 20.696 13.2 20.946 13.45 C 21.196 13.7 20.946 14.02 20.746 14.28 C 20.546 14.54 16.396 19.15 15.836 20.09 C 15.629 20.492 15.521 20.938 15.521 21.39 C 15.521 21.842 15.629 22.288 15.836 22.69 C 16.106 23.55 19.326 32.69 19.576 33.38 C 20.236 35.28 22.066 34.38 22.516 33.2 C 23.026 31.81 34.016 2.88 34.386 1.92 C 34.488 1.666 34.514 1.389 34.46 1.12 C 34.407 0.852 34.277 0.606 34.086 0.41 Z" fill="currentColor" fill-rule="nonzero"/>
</svg>
