<svg xmlns="http://www.w3.org/2000/svg" width="40" height="40" viewBox="0 0 40 40" fill="none">
  <path d="M 20 0 C 16.044 0 12.178 1.173 8.889 3.371 C 5.6 5.568 3.036 8.692 1.522 12.346 C 0.009 16.001 -0.387 20.022 0.384 23.902 C 1.156 27.781 3.061 31.345 5.858 34.142 C 8.655 36.939 12.219 38.844 16.098 39.616 C 19.978 40.387 23.999 39.991 27.654 38.478 C 31.308 36.964 34.432 34.4 36.629 31.111 C 38.827 27.822 40 23.956 40 20 C 40 17.374 39.483 14.773 38.478 12.346 C 37.473 9.92 35.999 7.715 34.142 5.858 C 32.285 4.001 30.08 2.528 27.654 1.522 C 25.227 0.517 22.626 0 20 0 Z M 20 37.48 C 16.543 37.48 13.163 36.455 10.289 34.534 C 7.414 32.613 5.174 29.883 3.851 26.689 C 2.528 23.495 2.181 19.981 2.856 16.59 C 3.53 13.199 5.195 10.084 7.64 7.64 C 10.084 5.195 13.199 3.53 16.59 2.856 C 19.981 2.181 23.495 2.528 26.689 3.851 C 29.883 5.174 32.613 7.414 34.534 10.289 C 36.455 13.163 37.48 16.543 37.48 20 C 37.472 24.634 35.628 29.075 32.351 32.351 C 29.075 35.628 24.634 37.472 20 37.48 Z M 26.89 18.74 L 21.33 18.74 L 21.33 13.19 C 21.346 13.016 21.325 12.84 21.269 12.675 C 21.213 12.509 21.123 12.357 21.005 12.227 C 20.887 12.098 20.743 11.995 20.583 11.925 C 20.423 11.854 20.25 11.818 20.075 11.818 C 19.9 11.818 19.727 11.854 19.567 11.925 C 19.407 11.995 19.263 12.098 19.145 12.227 C 19.027 12.357 18.937 12.509 18.881 12.675 C 18.825 12.84 18.804 13.016 18.82 13.19 L 18.82 18.74 L 13.26 18.74 C 12.926 18.74 12.605 18.873 12.369 19.109 C 12.133 19.345 12 19.666 12 20 C 12 20.334 12.133 20.655 12.369 20.891 C 12.605 21.127 12.926 21.26 13.26 21.26 L 18.82 21.26 L 18.82 26.81 C 18.804 26.984 18.825 27.16 18.881 27.325 C 18.937 27.491 19.027 27.643 19.145 27.773 C 19.263 27.902 19.407 28.005 19.567 28.075 C 19.727 28.146 19.9 28.182 20.075 28.182 C 20.25 28.182 20.423 28.146 20.583 28.075 C 20.743 28.005 20.887 27.902 21.005 27.773 C 21.123 27.643 21.213 27.491 21.269 27.325 C 21.325 27.16 21.346 26.984 21.33 26.81 L 21.33 21.26 L 26.89 21.26 C 27.224 21.26 27.545 21.127 27.781 20.891 C 28.017 20.655 28.15 20.334 28.15 20 C 28.15 19.666 28.017 19.345 27.781 19.109 C 27.545 18.873 27.224 18.74 26.89 18.74 Z" fill="currentColor" fill-rule="nonzero"/>
</svg>
