<svg xmlns="http://www.w3.org/2000/svg" width="28.804" height="39.959" viewBox="0 0 28.804 39.959" fill="none">
  <path d="M 26.917 23.59 C 27.4 23.605 27.858 23.806 28.197 24.15 L 28.197 24.16 C 28.388 24.35 28.539 24.576 28.642 24.825 C 28.745 25.074 28.798 25.341 28.798 25.61 C 28.798 25.88 28.745 26.146 28.642 26.395 C 28.539 26.643 28.388 26.87 28.197 27.061 L 15.857 39.4 C 15.46 39.76 14.943 39.959 14.407 39.959 C 13.871 39.959 13.354 39.76 12.957 39.4 L 0.617 26.95 L 0.558 26.88 C 0.22 26.502 0.038 26.01 0.049 25.503 C 0.06 24.996 0.263 24.513 0.617 24.15 C 1.034 23.77 1.584 23.569 2.147 23.59 L 26.917 23.59 Z M 14.412 0 C 14.95 0 15.468 0.2 15.867 0.561 L 28.197 12.99 C 28.225 13.008 28.25 13.032 28.268 13.061 C 28.444 13.245 28.582 13.463 28.674 13.701 C 28.766 13.94 28.81 14.194 28.804 14.449 C 28.797 14.705 28.741 14.957 28.637 15.19 C 28.533 15.424 28.383 15.635 28.197 15.811 C 27.785 16.193 27.239 16.397 26.678 16.38 L 1.907 16.38 C 1.421 16.358 0.96 16.156 0.617 15.811 L 0.617 15.771 C 0.422 15.584 0.267 15.359 0.161 15.11 C 0.055 14.862 0 14.595 0 14.325 C 0 14.055 0.055 13.787 0.161 13.539 C 0.267 13.291 0.422 13.066 0.617 12.88 L 12.957 0.561 C 13.356 0.2 13.875 0 14.412 0 Z" fill="currentColor" fill-rule="nonzero"/>
</svg>
