<svg xmlns="http://www.w3.org/2000/svg" width="33.520" height="39.999" viewBox="0 0 33.520 39.999" fill="none">
  <path d="M 21.43 16.252 C 23.042 15.231 24.279 13.714 24.954 11.929 C 25.63 10.144 25.708 8.188 25.176 6.355 C 24.644 4.522 23.532 2.912 22.006 1.766 C 20.48 0.62 18.623 0 16.715 0 C 14.807 0 12.95 0.62 11.424 1.766 C 9.898 2.912 8.786 4.522 8.254 6.355 C 7.722 8.188 7.8 10.144 8.476 11.929 C 9.151 13.714 10.388 15.231 12 16.252 C 8.762 17.214 5.887 19.125 3.748 21.739 C 1.608 24.352 0.303 27.548 0 30.912 C 1.817 33.702 4.301 35.994 7.228 37.581 C 10.154 39.168 13.431 39.999 16.76 39.999 C 20.089 39.999 23.366 39.168 26.292 37.581 C 29.219 35.994 31.703 33.702 33.52 30.912 C 33.212 27.536 31.894 24.332 29.737 21.717 C 27.58 19.101 24.685 17.197 21.43 16.252 Z" fill="currentColor" fill-rule="nonzero"/>
</svg>
