<svg xmlns="http://www.w3.org/2000/svg" width="40.000" height="34.830" viewBox="0 0 40.000 34.830" fill="none">
  <path d="M 35.83 10.23 L 34.83 10.23 L 34.83 11.91 L 34.83 14.45 L 33 14.45 L 33 0 L 7 0 L 7 14.45 L 5.18 14.45 L 5.18 12.93 L 5.18 10.23 L 4.18 10.23 C 3.628 10.23 3.081 10.339 2.571 10.552 C 2.062 10.765 1.599 11.076 1.21 11.468 C 0.822 11.861 0.515 12.326 0.307 12.838 C 0.099 13.35 -0.005 13.898 0 14.45 L 0 23.45 C 0.003 24.556 0.443 25.616 1.224 26.399 C 2.005 27.182 3.064 27.625 4.17 27.63 L 5.37 27.63 C 5.423 27.63 5.474 27.651 5.512 27.689 C 5.549 27.726 5.57 27.777 5.57 27.83 L 5.57 34.83 L 34.43 34.83 L 34.43 27.83 C 34.43 27.777 34.451 27.726 34.489 27.689 C 34.526 27.651 34.577 27.63 34.63 27.63 L 35.83 27.63 C 36.937 27.627 37.998 27.186 38.779 26.402 C 39.561 25.619 40 24.557 40 23.45 L 40 14.45 C 40.007 13.898 39.904 13.351 39.697 12.839 C 39.491 12.327 39.185 11.862 38.797 11.469 C 38.409 11.076 37.947 10.765 37.438 10.552 C 36.928 10.339 36.382 10.23 35.83 10.23 Z M 9.69 2.91 C 9.69 2.857 9.711 2.806 9.749 2.769 C 9.786 2.731 9.837 2.71 9.89 2.71 L 30.11 2.71 C 30.163 2.71 30.214 2.731 30.252 2.769 C 30.289 2.806 30.31 2.857 30.31 2.91 L 30.31 14.45 L 9.69 14.45 L 9.69 2.91 Z M 31.69 31.99 C 31.69 32.043 31.669 32.094 31.632 32.131 C 31.594 32.169 31.543 32.19 31.49 32.19 L 8.47 32.19 C 8.417 32.19 8.366 32.169 8.329 32.131 C 8.291 32.094 8.27 32.043 8.27 31.99 L 8.27 27.86 C 8.27 27.834 8.275 27.808 8.285 27.783 C 8.295 27.759 8.31 27.737 8.329 27.719 C 8.347 27.7 8.369 27.685 8.394 27.675 C 8.418 27.665 8.444 27.66 8.47 27.66 L 31.53 27.66 C 31.556 27.66 31.582 27.665 31.607 27.675 C 31.631 27.685 31.653 27.7 31.672 27.719 C 31.69 27.737 31.705 27.759 31.715 27.783 C 31.725 27.808 31.73 27.834 31.73 27.86 L 31.69 31.99 Z" fill="currentColor" fill-rule="nonzero"/>
</svg>
