<svg xmlns="http://www.w3.org/2000/svg" width="35.984" height="35.971" viewBox="0 0 35.984 35.971" fill="none">
  <path d="M 32.846 16.644 L 17.346 0.394 C 17.223 0.269 17.076 0.17 16.913 0.102 C 16.751 0.035 16.577 0 16.401 0 C 16.226 0 16.052 0.035 15.889 0.102 C 15.727 0.17 15.58 0.269 15.456 0.394 C 15.196 0.674 15.051 1.042 15.051 1.424 C 15.051 1.806 15.196 2.175 15.456 2.454 L 30.926 18.704 C 32.434 20.32 33.273 22.449 33.273 24.659 C 33.273 26.87 32.434 28.998 30.926 30.614 C 29.51 32.112 27.56 32.989 25.5 33.057 C 23.441 33.124 21.437 32.376 19.926 30.974 L 19.566 30.614 L 4.306 14.614 C 3.318 13.558 2.768 12.166 2.768 10.719 C 2.768 9.273 3.318 7.88 4.306 6.824 C 4.764 6.332 5.315 5.936 5.926 5.657 C 6.538 5.378 7.198 5.223 7.87 5.199 C 8.541 5.176 9.211 5.286 9.84 5.522 C 10.469 5.757 11.046 6.115 11.536 6.574 L 11.806 6.844 L 26.406 21.614 C 26.884 22.124 27.149 22.796 27.149 23.494 C 27.149 24.192 26.884 24.865 26.406 25.374 C 25.929 25.847 25.284 26.113 24.611 26.113 C 23.939 26.113 23.294 25.847 22.816 25.374 L 8.496 10.374 C 8.245 10.124 7.906 9.984 7.551 9.984 C 7.197 9.984 6.857 10.124 6.606 10.374 C 6.346 10.654 6.201 11.022 6.201 11.404 C 6.201 11.786 6.346 12.155 6.606 12.434 L 20.936 27.434 C 21.392 27.924 21.941 28.319 22.549 28.596 C 23.158 28.874 23.816 29.029 24.485 29.052 C 25.153 29.075 25.82 28.966 26.447 28.732 C 27.073 28.497 27.647 28.141 28.136 27.684 L 28.396 27.434 C 29.394 26.361 29.949 24.95 29.949 23.484 C 29.949 22.019 29.394 20.607 28.396 19.534 L 13.656 4.754 C 12.258 3.255 10.321 2.371 8.272 2.298 C 6.223 2.225 4.228 2.968 2.726 4.364 L 2.346 4.754 C 0.839 6.37 0 8.499 0 10.709 C 0 12.92 0.839 15.048 2.346 16.664 L 17.606 32.664 C 18.541 33.665 19.665 34.472 20.912 35.038 C 22.159 35.605 23.506 35.92 24.875 35.965 C 26.244 36.011 27.608 35.786 28.89 35.304 C 30.173 34.821 31.347 34.091 32.346 33.154 C 32.516 32.994 32.676 32.834 32.836 32.664 C 34.859 30.491 35.984 27.633 35.984 24.664 C 35.984 21.695 34.859 18.837 32.836 16.664 L 32.846 16.644 Z" fill="currentColor" fill-rule="nonzero"/>
</svg>
