<svg xmlns="http://www.w3.org/2000/svg" width="40.000" height="24.600" viewBox="0 0 40.000 24.600" fill="none">
  <path d="M 35.83 0 L 34.83 0 L 34.83 2.7 L 35.83 2.7 C 36.027 2.7 36.223 2.739 36.404 2.816 C 36.586 2.893 36.75 3.006 36.888 3.148 C 37.025 3.29 37.132 3.458 37.203 3.642 C 37.274 3.826 37.307 4.023 37.3 4.22 L 37.3 13.22 C 37.3 13.61 37.145 13.984 36.869 14.259 C 36.594 14.535 36.22 14.69 35.83 14.69 L 4.17 14.69 C 3.78 14.69 3.406 14.535 3.131 14.259 C 2.855 13.984 2.7 13.61 2.7 13.22 L 2.7 4.22 C 2.7 3.83 2.855 3.456 3.131 3.181 C 3.406 2.905 3.78 2.75 4.17 2.75 L 5.17 2.75 L 5.17 0.05 L 4.17 0.05 C 3.065 0.053 2.006 0.493 1.224 1.274 C 0.443 2.056 0.003 3.115 0 4.22 L 0 13.22 C 0.003 14.326 0.442 15.386 1.224 16.169 C 2.005 16.952 3.064 17.395 4.17 17.4 L 5.37 17.4 C 5.423 17.4 5.474 17.421 5.511 17.459 C 5.549 17.496 5.57 17.547 5.57 17.6 L 5.57 24.6 L 34.43 24.6 L 34.43 17.6 C 34.43 17.547 34.451 17.496 34.489 17.459 C 34.526 17.421 34.577 17.4 34.63 17.4 L 35.83 17.4 C 36.937 17.397 37.998 16.956 38.779 16.172 C 39.561 15.389 40 14.327 40 13.22 L 40 4.22 C 40.007 3.668 39.904 3.121 39.697 2.609 C 39.49 2.097 39.184 1.632 38.796 1.239 C 38.409 0.846 37.947 0.535 37.437 0.322 C 36.928 0.109 36.382 0 35.83 0 Z M 31.73 21.76 C 31.73 21.813 31.709 21.864 31.671 21.901 C 31.634 21.939 31.583 21.96 31.53 21.96 L 8.47 21.96 C 8.417 21.96 8.366 21.939 8.329 21.901 C 8.291 21.864 8.27 21.813 8.27 21.76 L 8.27 17.63 C 8.27 17.604 8.275 17.578 8.285 17.553 C 8.295 17.529 8.31 17.507 8.329 17.489 C 8.347 17.47 8.369 17.455 8.393 17.445 C 8.418 17.435 8.444 17.43 8.47 17.43 L 31.53 17.43 C 31.556 17.43 31.582 17.435 31.607 17.445 C 31.631 17.455 31.653 17.47 31.671 17.489 C 31.69 17.507 31.705 17.529 31.715 17.553 C 31.725 17.578 31.73 17.604 31.73 17.63 L 31.73 21.76 Z" fill="currentColor" fill-rule="nonzero"/>
</svg>
