<svg xmlns="http://www.w3.org/2000/svg" width="23.050" height="40" viewBox="0 0 23.050 40" fill="none">
  <path d="M 6.05 40 C 4.455 39.997 2.925 39.366 1.792 38.243 C 0.66 37.12 0.016 35.595 0 34 L 0 6 C 0.018 4.406 0.663 2.883 1.795 1.76 C 2.927 0.637 4.456 0.005 6.05 0 L 17.05 0 C 18.63 0.036 20.136 0.679 21.253 1.797 C 22.371 2.914 23.014 4.42 23.05 6 L 23.05 34 C 23.032 35.586 22.394 37.101 21.273 38.223 C 20.151 39.344 18.636 39.982 17.05 40 L 6.05 40 Z M 2.7 34 C 2.703 34.887 3.057 35.736 3.685 36.362 C 4.313 36.988 5.163 37.34 6.05 37.34 L 17.05 37.34 C 17.934 37.335 18.781 36.981 19.406 36.356 C 20.031 35.731 20.385 34.884 20.39 34 L 20.39 31.9 L 2.7 31.9 L 2.7 34 Z M 20.31 29.17 L 20.31 7.66 L 2.62 7.66 L 2.62 29.21 L 20.31 29.17 Z M 19.98 4.89 C 19.741 4.277 19.331 3.745 18.8 3.357 C 18.268 2.969 17.637 2.741 16.98 2.7 L 5.98 2.7 C 5.315 2.747 4.676 2.976 4.133 3.363 C 3.589 3.749 3.163 4.277 2.9 4.89 L 19.98 4.89 Z M 9.23 35.89 C 9.056 35.906 8.88 35.885 8.715 35.829 C 8.549 35.773 8.397 35.683 8.267 35.565 C 8.138 35.447 8.035 35.303 7.965 35.143 C 7.894 34.983 7.858 34.81 7.858 34.635 C 7.858 34.46 7.894 34.287 7.965 34.127 C 8.035 33.967 8.138 33.823 8.267 33.705 C 8.397 33.587 8.549 33.497 8.715 33.441 C 8.88 33.385 9.056 33.364 9.23 33.38 L 13.85 33.38 C 14.024 33.364 14.2 33.385 14.365 33.441 C 14.531 33.497 14.683 33.587 14.813 33.705 C 14.942 33.823 15.045 33.967 15.115 34.127 C 15.186 34.287 15.222 34.46 15.222 34.635 C 15.222 34.81 15.186 34.983 15.115 35.143 C 15.045 35.303 14.942 35.447 14.813 35.565 C 14.683 35.683 14.531 35.773 14.365 35.829 C 14.2 35.885 14.024 35.906 13.85 35.89 L 9.23 35.89 Z" fill="currentColor" fill-rule="nonzero"/>
</svg>
