<svg xmlns="http://www.w3.org/2000/svg" width="40" height="37.780" viewBox="0 0 40 37.780" fill="none">
  <path d="M 2.38 37.78 C 2.3 37.783 2.221 37.761 2.153 37.718 C 2.085 37.676 2.032 37.613 2 37.54 C 1.985 37.474 1.985 37.406 2 37.34 C 2 34.34 2 24.9 2 24.81 L 2 24.68 C 2.002 24.546 1.952 24.417 1.86 24.32 C 1.802 24.196 1.732 24.079 1.65 23.97 C 0.565 21.853 0 19.509 0 17.13 C 0 7.68 9 0 20 0 C 31 0 40 7.69 40 17.13 C 40 26.57 31 34.27 20 34.27 C 17.552 34.271 15.12 33.872 12.8 33.09 C 12.747 33.08 12.693 33.08 12.64 33.09 C 12.568 33.07 12.492 33.07 12.42 33.09 C 12.35 33.09 5.27 36.4 2.55 37.72 C 2.5 37.755 2.441 37.776 2.38 37.78 Z M 20 2.61 C 10.43 2.61 2.65 9.12 2.65 17.13 C 2.63 19.089 3.093 21.023 4 22.76 C 4.323 23.384 4.526 24.062 4.6 24.76 L 4.6 33.05 C 4.6 33.135 4.621 33.219 4.661 33.294 C 4.702 33.369 4.759 33.433 4.83 33.48 C 4.913 33.535 5.011 33.563 5.11 33.56 C 5.179 33.574 5.251 33.574 5.32 33.56 L 12.02 30.56 C 12.381 30.467 12.759 30.467 13.12 30.56 C 15.342 31.281 17.664 31.649 20 31.65 C 29.57 31.65 37.35 25.13 37.35 17.12 C 37.35 9.11 29.56 2.61 20 2.61 Z" fill="currentColor" fill-rule="nonzero"/>
</svg>
