<svg xmlns="http://www.w3.org/2000/svg" width="39.800" height="32.159" viewBox="0 0 39.800 32.159" fill="none">
  <path d="M 11.9 0.459 C 12.7 -0.241 14 -0.14 14.7 0.76 L 28.7 14.76 C 29.5 15.56 29.5 16.76 28.7 17.559 L 14.7 31.559 C 13.9 32.359 12.7 32.359 11.9 31.559 C 11.1 30.759 11.1 29.56 11.9 28.76 L 22.5 18.159 L 2 18.159 C 0.9 18.159 0 17.259 0 16.159 C 0 15.059 0.9 14.159 2 14.159 L 22.5 14.159 L 11.9 3.559 C 11.8 3.459 11.7 3.36 11.6 3.26 C 10.9 2.46 11 1.159 11.9 0.459 Z M 22.4 0.859 C 23.1 0.059 24.4 0.06 25.2 0.76 L 36.9 12.359 L 39.2 14.76 C 40 15.56 40 16.759 39.2 17.459 L 36.9 19.859 L 25.2 31.559 C 24.4 32.359 23.2 32.359 22.4 31.559 C 21.6 30.759 21.6 29.56 22.4 28.76 L 33 18.159 L 33.8 17.359 C 34.4 16.559 34.3 15.46 33.6 14.76 L 33 14.159 L 22.4 3.559 C 21.7 2.759 21.7 1.659 22.4 0.859 Z" fill="currentColor" fill-rule="nonzero"/>
</svg>
