<svg xmlns="http://www.w3.org/2000/svg" width="40.027" height="40" viewBox="0 0 40.027 40" fill="none">
  <path d="M 33.678 30.845 C 31.834 33.155 29.434 34.959 26.703 36.089 C 23.972 37.218 20.999 37.637 18.062 37.304 C 15.125 36.972 12.321 35.9 9.911 34.189 C 7.501 32.477 5.565 30.183 4.283 27.519 C 3.002 24.856 2.417 21.911 2.584 18.96 C 2.75 16.009 3.663 13.149 5.236 10.647 C 6.809 8.145 8.991 6.082 11.578 4.653 C 14.165 3.224 17.073 2.475 20.028 2.475 C 22.656 2.475 25.25 3.07 27.616 4.214 C 29.982 5.359 32.058 7.024 33.688 9.085 C 33.798 9.22 33.936 9.331 34.091 9.411 C 34.247 9.49 34.417 9.536 34.591 9.545 C 34.766 9.555 34.94 9.527 35.103 9.465 C 35.266 9.403 35.414 9.308 35.538 9.185 C 35.754 8.972 35.884 8.688 35.904 8.386 C 35.924 8.084 35.833 7.785 35.648 7.545 C 33.065 4.299 29.536 1.937 25.55 0.786 C 21.565 -0.366 17.32 -0.249 13.403 1.119 C 9.487 2.488 6.093 5.04 3.692 8.423 C 1.29 11.806 0 15.851 0 20 C 0 24.149 1.29 28.194 3.692 31.577 C 6.093 34.96 9.487 37.512 13.403 38.881 C 17.32 40.249 21.565 40.366 25.55 39.214 C 29.536 38.063 33.065 35.701 35.648 32.455 C 35.849 32.21 35.951 31.9 35.936 31.585 C 35.922 31.269 35.791 30.97 35.568 30.745 C 35.443 30.617 35.292 30.517 35.125 30.452 C 34.958 30.387 34.78 30.358 34.601 30.368 C 34.422 30.377 34.247 30.424 34.088 30.507 C 33.929 30.589 33.789 30.704 33.678 30.845 Z M 19.678 30.435 C 19.894 30.432 20.1 30.345 20.252 30.191 C 20.403 30.038 20.488 29.831 20.488 29.615 L 20.488 27.765 C 21.598 27.659 22.629 27.145 23.383 26.323 C 24.136 25.502 24.559 24.43 24.568 23.315 C 24.568 21.025 23.228 19.685 20.568 18.575 C 18.348 17.575 17.378 16.945 17.378 15.575 C 17.378 14.575 18.118 13.355 20.118 13.355 C 20.954 13.354 21.783 13.514 22.558 13.825 C 22.668 13.872 22.786 13.897 22.905 13.898 C 23.024 13.899 23.142 13.875 23.252 13.83 C 23.362 13.784 23.462 13.717 23.545 13.632 C 23.629 13.547 23.695 13.446 23.738 13.335 C 23.824 13.105 23.816 12.851 23.717 12.627 C 23.618 12.403 23.436 12.226 23.208 12.135 C 22.386 11.824 21.517 11.655 20.638 11.635 L 20.638 9.955 C 20.638 9.74 20.553 9.534 20.401 9.382 C 20.249 9.23 20.043 9.145 19.828 9.145 C 19.616 9.15 19.414 9.237 19.265 9.389 C 19.116 9.54 19.031 9.743 19.028 9.955 L 19.028 11.735 C 17.95 11.799 16.937 12.27 16.194 13.054 C 15.451 13.838 15.034 14.875 15.028 15.955 C 15.028 18.255 16.658 19.435 19.328 20.475 C 21.248 21.285 22.328 22.175 22.328 23.585 C 22.328 24.995 21.028 26.065 19.218 26.065 C 18.229 26.048 17.254 25.834 16.348 25.435 C 16.232 25.38 16.105 25.351 15.976 25.349 C 15.848 25.347 15.72 25.373 15.602 25.424 C 15.484 25.475 15.378 25.55 15.291 25.645 C 15.204 25.74 15.139 25.853 15.098 25.975 C 15.026 26.196 15.039 26.436 15.133 26.648 C 15.227 26.86 15.396 27.03 15.608 27.125 C 16.63 27.578 17.731 27.823 18.848 27.845 L 18.848 29.615 C 18.848 29.831 18.933 30.038 19.085 30.191 C 19.237 30.345 19.443 30.432 19.658 30.435 L 19.678 30.435 Z M 39.678 19.065 L 34.158 13.545 C 34.043 13.426 33.904 13.331 33.752 13.266 C 33.599 13.202 33.434 13.168 33.268 13.168 C 33.102 13.168 32.938 13.202 32.785 13.266 C 32.632 13.331 32.494 13.426 32.378 13.545 C 32.143 13.781 32.01 14.101 32.01 14.435 C 32.01 14.769 32.143 15.089 32.378 15.325 L 35.748 18.695 L 27.378 18.695 C 27.044 18.696 26.724 18.829 26.488 19.065 C 26.255 19.303 26.122 19.622 26.118 19.955 C 26.118 20.289 26.251 20.61 26.487 20.846 C 26.724 21.082 27.044 21.215 27.378 21.215 L 35.728 21.215 L 32.358 24.585 C 32.14 24.825 32.022 25.139 32.03 25.463 C 32.037 25.787 32.17 26.096 32.399 26.325 C 32.628 26.554 32.936 26.686 33.26 26.693 C 33.584 26.701 33.899 26.583 34.138 26.365 L 39.658 20.845 C 39.894 20.609 40.027 20.289 40.027 19.955 C 40.027 19.621 39.894 19.301 39.658 19.065 L 39.678 19.065 Z" fill="currentColor" fill-rule="nonzero"/>
</svg>
