<svg xmlns="http://www.w3.org/2000/svg" width="40.023" height="35.140" viewBox="0 0 40.023 35.140" fill="none">
  <path d="M 17.581 35.14 C 14.226 35.142 10.941 34.184 8.114 32.378 C 5.287 30.573 3.035 27.996 1.626 24.952 C 0.217 21.908 -0.292 18.524 0.161 15.2 C 0.613 11.876 2.008 8.751 4.179 6.195 C 6.351 3.638 9.21 1.757 12.417 0.773 C 15.624 -0.211 19.045 -0.256 22.277 0.642 C 25.509 1.541 28.416 3.346 30.655 5.844 C 32.894 8.342 34.37 11.429 34.911 14.74 L 36.621 13.13 C 36.81 12.946 37.035 12.802 37.281 12.706 C 37.527 12.609 37.789 12.563 38.053 12.568 C 38.317 12.574 38.577 12.632 38.819 12.738 C 39.061 12.845 39.279 12.999 39.461 13.19 C 39.644 13.38 39.788 13.604 39.885 13.85 C 39.981 14.096 40.028 14.358 40.022 14.622 C 40.017 14.887 39.959 15.147 39.852 15.388 C 39.746 15.63 39.592 15.848 39.401 16.03 L 38.921 16.49 L 34.251 20.89 C 33.889 21.236 33.412 21.433 32.912 21.445 C 32.413 21.456 31.927 21.279 31.551 20.95 L 26.161 16.2 C 25.859 15.939 25.642 15.593 25.538 15.207 C 25.434 14.821 25.448 14.413 25.578 14.036 C 25.709 13.658 25.949 13.328 26.268 13.088 C 26.588 12.848 26.972 12.71 27.371 12.69 L 27.531 12.69 C 28.006 12.698 28.464 12.875 28.821 13.19 L 30.821 14.96 C 30.324 12.448 29.124 10.129 27.36 8.273 C 25.596 6.417 23.341 5.101 20.858 4.477 C 18.375 3.853 15.765 3.948 13.334 4.75 C 10.902 5.553 8.749 7.029 7.124 9.008 C 5.5 10.987 4.471 13.387 4.158 15.929 C 3.845 18.47 4.261 21.048 5.357 23.362 C 6.453 25.676 8.183 27.631 10.348 28.999 C 12.512 30.367 15.02 31.093 17.581 31.09 L 26.001 31.09 C 26.531 31.09 27.04 31.301 27.415 31.676 C 27.79 32.051 28.001 32.56 28.001 33.09 C 28.001 33.62 27.79 34.129 27.415 34.504 C 27.04 34.879 26.531 35.09 26.001 35.09 L 17.581 35.14 Z" fill="currentColor" fill-rule="nonzero"/>
</svg>
