<svg xmlns="http://www.w3.org/2000/svg" width="40" height="37.780" viewBox="0 0 40 37.780" fill="none">
  <path d="M 2.38 37.78 C 2.3 37.783 2.221 37.761 2.153 37.718 C 2.085 37.676 2.032 37.613 2 37.54 C 1.985 37.474 1.985 37.406 2 37.34 C 2 34.34 2 24.9 2 24.81 L 2 24.68 C 2.002 24.546 1.952 24.417 1.86 24.32 C 1.802 24.196 1.732 24.079 1.65 23.97 C 0.565 21.853 0 19.509 0 17.13 C 0 7.68 9 0 20 0 C 31 0 40 7.69 40 17.13 C 40 26.57 31 34.27 20 34.27 C 17.552 34.271 15.12 33.872 12.8 33.09 C 12.747 33.08 12.693 33.08 12.64 33.09 C 12.568 33.07 12.492 33.07 12.42 33.09 C 12.35 33.09 5.27 36.4 2.55 37.72 C 2.5 37.755 2.441 37.776 2.38 37.78 Z" fill="currentColor" fill-rule="nonzero"/>
</svg>
