<svg xmlns="http://www.w3.org/2000/svg" width="32" height="39.900" viewBox="0 0 32 39.900" fill="none">
  <path d="M 16.6 26.8 C 16.5 26.8 16.5 26.8 16.4 26.8 L 6.7 26.8 C 6 26.9 5.5 27.5 5.6 28.2 C 5.7 28.8 6.1 29.3 6.7 29.3 L 16.4 29.3 C 17.1 29.4 17.7 28.9 17.8 28.2 C 17.7 27.4 17.2 26.8 16.6 26.8 Z M 19.3 21.9 L 6.6 21.9 C 5.9 21.8 5.3 22.3 5.2 23 C 5.1 23.7 5.6 24.3 6.3 24.4 C 6.4 24.4 6.4 24.4 6.5 24.4 L 19.2 24.4 C 19.9 24.4 20.4 23.9 20.4 23.2 C 20.6 22.4 20 21.9 19.3 21.9 Z M 14.9 31.7 L 6.6 31.7 C 5.9 31.8 5.4 32.4 5.5 33.1 C 5.6 33.7 6 34.2 6.6 34.2 L 15.1 34.2 C 15.7 34.2 16.2 33.7 16.2 33.1 L 16.2 33 C 16.2 32.2 15.6 31.7 14.9 31.7 Z M 19.3 14.1 C 20 14 20.5 13.4 20.4 12.7 C 20.3 12.1 19.9 11.6 19.3 11.6 L 7.1 11.6 C 6.4 11.7 5.9 12.3 6 13 C 6.1 13.6 6.5 14.1 7.1 14.1 L 19.3 14.1 Z M 27.8 0 C 27.7 0 27.7 0 27.8 0 L 4.3 0 C 1.9 0 0 1.9 0 4.2 L 0 35.7 C 0 38 1.9 39.9 4.2 39.9 L 20.9 39.9 C 21.2 39.9 21.5 39.8 21.8 39.6 L 31.6 29.9 C 31.8 29.7 32 29.4 32 29 L 32 27.4 L 32 4.2 C 32 1.9 30.1 0 27.8 0 Z M 20.8 37.2 L 20.6 37.4 L 20.6 32.6 C 20.6 30.5 22.3 28.8 24.4 28.8 L 29.4 28.8 L 20.8 37.2 Z M 29.5 26.3 L 24.4 26.3 C 20.9 26.3 18.1 29.1 18.1 32.5 L 18.1 37.4 L 4.3 37.4 C 3.3 37.4 2.6 36.6 2.6 35.7 L 2.6 4.2 C 2.6 3.2 3.4 2.5 4.3 2.4 L 27.7 2.4 C 28.7 2.4 29.5 3.2 29.5 4.2 L 29.5 26.3 Z M 25.6 7 L 6.6 7 C 5.9 7.1 5.4 7.7 5.5 8.4 C 5.6 9 6 9.5 6.6 9.5 L 25.5 9.5 C 26.2 9.4 26.7 8.8 26.6 8.1 C 26.6 7.5 26.2 7.1 25.6 7 Z" fill="currentColor" fill-rule="nonzero"/>
</svg>
