<svg xmlns="http://www.w3.org/2000/svg" width="32.022" height="39.983" viewBox="0 0 32.022 39.983" fill="none">
  <path d="M 30.001 21.98 C 30.532 21.98 31.041 22.191 31.416 22.566 C 31.791 22.942 32.002 23.451 32.002 23.981 C 32.002 24.512 31.791 25.021 31.416 25.396 L 17.416 39.396 C 17.23 39.582 17.009 39.73 16.767 39.831 C 16.524 39.932 16.264 39.983 16.001 39.983 C 15.738 39.983 15.478 39.932 15.235 39.831 C 14.993 39.73 14.772 39.582 14.586 39.396 L 0.586 25.396 C 0.211 25.021 0 24.512 0 23.981 C 0 23.451 0.211 22.942 0.586 22.566 C 0.961 22.191 1.47 21.981 2.001 21.98 C 2.532 21.98 3.041 22.191 3.416 22.566 L 16.006 35.167 L 28.586 22.566 C 28.961 22.191 29.47 21.981 30.001 21.98 Z M 16.021 0 C 16.284 0 16.544 0.052 16.787 0.152 C 17.03 0.253 17.251 0.401 17.437 0.587 L 31.437 14.587 C 31.622 14.773 31.77 14.993 31.87 15.235 C 31.971 15.478 32.022 15.739 32.022 16.002 C 32.022 16.265 31.971 16.525 31.87 16.768 C 31.77 17.01 31.622 17.231 31.437 17.417 C 31.251 17.603 31.03 17.75 30.787 17.851 C 30.544 17.951 30.284 18.003 30.021 18.003 C 29.759 18.003 29.498 17.951 29.255 17.851 C 29.012 17.75 28.792 17.603 28.606 17.417 L 16.006 4.816 L 3.437 17.417 C 3.251 17.603 3.03 17.75 2.787 17.851 C 2.544 17.951 2.284 18.003 2.021 18.003 C 1.759 18.003 1.498 17.951 1.255 17.851 C 1.012 17.75 0.792 17.603 0.606 17.417 C 0.421 17.231 0.272 17.01 0.172 16.768 C 0.071 16.525 0.021 16.265 0.021 16.002 C 0.021 15.739 0.071 15.478 0.172 15.235 C 0.272 14.993 0.421 14.773 0.606 14.587 L 14.606 0.587 C 14.792 0.401 15.012 0.253 15.255 0.152 C 15.498 0.052 15.759 0 16.021 0 Z" fill="currentColor" fill-rule="nonzero"/>
</svg>
