<svg xmlns="http://www.w3.org/2000/svg" width="35.782" height="35.737" viewBox="0 0 35.782 35.737" fill="none">
  <path d="M 22.63 33.93 C 20.88 32.52 17.88 26.88 13.65 17.18 C 13.401 16.628 13.333 16.011 13.457 15.418 C 13.581 14.824 13.89 14.286 14.34 13.88 C 14.807 13.473 15.383 13.214 15.997 13.133 C 16.611 13.053 17.235 13.157 17.79 13.43 C 21.61 15.32 30.72 19.95 32.88 21.68 C 33.712 22.316 34.398 23.122 34.893 24.045 C 35.388 24.967 35.68 25.985 35.75 27.03 C 35.939 29.133 35.29 31.225 33.943 32.851 C 32.596 34.477 30.661 35.505 28.56 35.71 L 28.35 35.71 C 26.285 35.88 24.234 35.242 22.63 33.93 Z M 24.88 31.29 C 25.8 31.997 26.942 32.352 28.1 32.29 C 29.325 32.178 30.459 31.594 31.26 30.66 C 31.638 30.206 31.921 29.681 32.092 29.116 C 32.264 28.551 32.321 27.957 32.26 27.37 C 32.204 26.78 32.024 26.207 31.733 25.691 C 31.442 25.174 31.046 24.724 30.57 24.37 C 29.28 23.21 22.88 19.88 17.39 17.04 C 21.54 26.38 24.06 30.55 24.88 31.29 Z M 0 32.88 C 0 14.75 15 0 33.41 0 C 33.795 0.01 34.162 0.167 34.435 0.438 C 34.708 0.71 34.867 1.075 34.88 1.46 C 34.872 1.843 34.713 2.207 34.438 2.473 C 34.162 2.739 33.793 2.885 33.41 2.88 C 16.61 2.88 2.88 16.35 2.88 32.88 C 2.86 33.251 2.698 33.601 2.429 33.858 C 2.159 34.114 1.802 34.258 1.43 34.26 C 1.058 34.265 0.698 34.123 0.431 33.865 C 0.163 33.606 0.008 33.252 0 32.88 Z" fill="currentColor" fill-rule="nonzero"/>
</svg>
