<svg xmlns="http://www.w3.org/2000/svg" width="34.023" height="40.379" viewBox="0 0 34.023 40.379" fill="none">
  <path d="M 17.011 40.379 C 13.68 40.383 10.401 39.552 7.473 37.962 C 4.545 36.373 2.062 34.075 0.251 31.279 C 0.053 30.985 -0.033 30.63 0.011 30.279 C 0.277 27.451 1.238 24.734 2.808 22.368 C 4.378 20.002 6.509 18.062 9.011 16.719 C 7.608 14.938 6.846 12.736 6.851 10.469 C 6.809 9.109 7.039 7.756 7.53 6.488 C 8.021 5.219 8.761 4.063 9.707 3.086 C 10.654 2.11 11.786 1.334 13.039 0.803 C 14.291 0.273 15.637 0 16.996 0 C 18.356 0 19.702 0.273 20.954 0.803 C 22.206 1.334 23.339 2.11 24.285 3.086 C 25.231 4.063 25.972 5.219 26.462 6.488 C 26.953 7.756 27.184 9.109 27.141 10.469 C 27.155 12.732 26.405 14.935 25.011 16.719 C 27.513 18.062 29.644 20.002 31.214 22.368 C 32.785 24.734 33.745 27.451 34.011 30.279 C 34.055 30.63 33.97 30.985 33.771 31.279 C 31.96 34.075 29.477 36.373 26.55 37.962 C 23.622 39.552 20.343 40.383 17.011 40.379 Z M 3.011 30.029 C 4.577 32.279 6.664 34.118 9.094 35.387 C 11.524 36.657 14.225 37.32 16.966 37.32 C 19.708 37.32 22.409 36.657 24.839 35.387 C 27.269 34.118 29.356 32.279 30.921 30.029 C 30.587 27.483 29.568 25.076 27.972 23.064 C 26.377 21.053 24.264 19.513 21.861 18.609 C 21.614 18.516 21.395 18.36 21.227 18.155 C 21.059 17.951 20.949 17.706 20.906 17.445 C 20.863 17.184 20.89 16.917 20.984 16.67 C 21.078 16.423 21.236 16.205 21.441 16.039 C 22.597 15.113 23.437 13.85 23.845 12.426 C 24.253 11.002 24.208 9.487 23.717 8.089 C 23.227 6.692 22.314 5.481 21.106 4.625 C 19.897 3.768 18.452 3.308 16.971 3.308 C 15.49 3.308 14.045 3.768 12.837 4.625 C 11.628 5.481 10.716 6.692 10.225 8.089 C 9.734 9.487 9.69 11.002 10.098 12.426 C 10.505 13.85 11.345 15.113 12.501 16.039 C 12.707 16.205 12.864 16.423 12.958 16.67 C 13.052 16.917 13.079 17.184 13.037 17.445 C 12.994 17.706 12.883 17.951 12.715 18.155 C 12.548 18.36 12.329 18.516 12.081 18.609 C 9.678 19.514 7.565 21.054 5.968 23.065 C 4.371 25.076 3.349 27.483 3.011 30.029 Z" fill="currentColor" fill-rule="nonzero"/>
</svg>
