<svg xmlns="http://www.w3.org/2000/svg" width="39.990" height="24.881" viewBox="0 0 39.990 24.881" fill="none">
  <path d="M 7.11 10.441 C 7.11 10.109 6.978 9.791 6.744 9.557 C 6.509 9.322 6.192 9.191 5.86 9.191 L 1.25 9.191 C 0.918 9.191 0.601 9.322 0.366 9.557 C 0.132 9.791 0 10.109 0 10.441 C 0 10.772 0.132 11.09 0.366 11.325 C 0.601 11.559 0.918 11.691 1.25 11.691 L 5.86 11.691 C 6.192 11.691 6.509 11.559 6.744 11.325 C 6.978 11.09 7.11 10.772 7.11 10.441 Z M 35.99 0.001 L 11.99 0.001 C 10.961 -0.005 9.972 0.393 9.233 1.109 C 8.494 1.825 8.066 2.802 8.04 3.831 L 8.04 4.181 L 3.78 4.181 C 3.448 4.181 3.131 4.312 2.896 4.547 C 2.662 4.781 2.53 5.099 2.53 5.431 C 2.53 5.762 2.662 6.08 2.896 6.315 C 3.131 6.549 3.448 6.681 3.78 6.681 L 8.08 6.681 L 8.08 14.281 L 4.17 14.281 C 3.838 14.281 3.521 14.412 3.286 14.647 C 3.052 14.881 2.92 15.199 2.92 15.531 C 2.92 15.862 3.052 16.18 3.286 16.415 C 3.521 16.649 3.838 16.781 4.17 16.781 L 8.08 16.781 L 8.08 21.051 C 8.106 22.072 8.529 23.043 9.259 23.758 C 9.989 24.473 10.968 24.876 11.99 24.881 L 35.99 24.881 C 37.027 24.899 38.03 24.507 38.779 23.79 C 39.529 23.072 39.964 22.088 39.99 21.051 L 39.99 3.831 C 39.964 2.794 39.529 1.809 38.779 1.091 C 38.03 0.374 37.027 -0.018 35.99 0.001 Z M 18.46 20.801 L 13.29 20.801 C 12.958 20.801 12.641 20.669 12.406 20.435 C 12.172 20.2 12.04 19.882 12.04 19.551 C 12.04 19.219 12.172 18.901 12.406 18.667 C 12.641 18.432 12.958 18.301 13.29 18.301 L 18.46 18.301 C 18.792 18.301 19.109 18.432 19.344 18.667 C 19.578 18.901 19.71 19.219 19.71 19.551 C 19.71 19.882 19.578 20.2 19.344 20.435 C 19.109 20.669 18.792 20.801 18.46 20.801 Z M 20.79 16.801 L 13.29 16.801 C 12.958 16.801 12.641 16.669 12.406 16.435 C 12.172 16.2 12.04 15.882 12.04 15.551 C 12.04 15.219 12.172 14.901 12.406 14.667 C 12.641 14.432 12.958 14.301 13.29 14.301 L 20.79 14.301 C 21.122 14.301 21.439 14.432 21.674 14.667 C 21.908 14.901 22.04 15.219 22.04 15.551 C 22.04 15.882 21.908 16.2 21.674 16.435 C 21.439 16.669 21.122 16.801 20.79 16.801 Z M 34.34 11.441 C 34.34 11.706 34.235 11.96 34.047 12.148 C 33.86 12.335 33.605 12.441 33.34 12.441 L 28.45 12.441 C 28.185 12.441 27.93 12.335 27.743 12.148 C 27.555 11.96 27.45 11.706 27.45 11.441 L 27.45 6.571 C 27.45 6.305 27.555 6.051 27.743 5.864 C 27.93 5.676 28.185 5.571 28.45 5.571 L 33.34 5.571 C 33.605 5.571 33.86 5.676 34.047 5.864 C 34.235 6.051 34.34 6.305 34.34 6.571 L 34.34 11.441 Z M 6.05 19.331 L 2.99 19.331 C 2.658 19.331 2.341 19.462 2.106 19.697 C 1.872 19.931 1.74 20.249 1.74 20.581 C 1.74 20.912 1.872 21.23 2.106 21.465 C 2.341 21.699 2.658 21.831 2.99 21.831 L 5.99 21.831 C 6.322 21.831 6.639 21.699 6.874 21.465 C 7.108 21.23 7.24 20.912 7.24 20.581 C 7.24 20.249 7.108 19.931 6.874 19.697 C 6.639 19.462 6.322 19.331 5.99 19.331 L 6.05 19.331 Z" fill="currentColor" fill-rule="nonzero"/>
</svg>
