<svg xmlns="http://www.w3.org/2000/svg" width="39.989" height="26.967" viewBox="0 0 39.989 26.967" fill="none">
  <path d="M 17.819 8.467 C 18.892 8.19 20.02 8.195 21.091 8.483 C 22.161 8.77 23.139 9.33 23.929 10.108 C 24.823 9.684 25.801 9.465 26.79 9.467 C 27.642 9.483 28.483 9.66 29.269 9.988 C 30.137 10.362 30.92 10.91 31.568 11.598 C 32.216 12.286 32.717 13.099 33.04 13.988 L 33.5 13.988 C 33.79 13.988 34.09 14.037 34.389 14.037 L 34.489 14.037 C 35.979 14.288 37.339 15.042 38.34 16.174 C 39.341 17.306 39.923 18.748 39.989 20.257 C 39.991 21.803 39.461 23.303 38.489 24.504 C 37.517 25.706 36.161 26.537 34.649 26.858 C 34.515 26.889 34.377 26.906 34.239 26.908 L 12.239 26.967 C 10.742 26.961 9.291 26.443 8.129 25.499 C 6.966 24.555 6.162 23.242 5.849 21.778 C 5.628 20.762 5.66 19.706 5.942 18.705 C 6.225 17.704 6.749 16.788 7.469 16.037 C 8.064 15.386 8.787 14.863 9.592 14.501 C 10.396 14.14 11.267 13.949 12.149 13.938 L 12.819 13.938 C 12.972 12.616 13.538 11.376 14.435 10.394 C 15.333 9.412 16.517 8.738 17.819 8.467 Z M 20.971 10.806 C 20.184 10.536 19.335 10.502 18.529 10.707 C 16.409 11.237 15.32 12.648 15.09 15.148 L 14.989 16.268 L 13.609 16.137 L 13.199 16.087 C 13.007 16.055 12.813 16.039 12.619 16.037 C 12.027 16.048 11.443 16.18 10.905 16.426 C 10.366 16.672 9.884 17.026 9.489 17.467 C 9.024 17.956 8.684 18.552 8.5 19.202 C 8.315 19.851 8.291 20.537 8.429 21.198 C 8.637 22.187 9.182 23.073 9.972 23.703 C 10.763 24.332 11.749 24.667 12.76 24.648 L 33.819 24.587 C 34.82 24.375 35.717 23.827 36.363 23.034 C 37.009 22.241 37.364 21.251 37.369 20.228 C 37.33 19.221 36.945 18.257 36.278 17.501 C 35.611 16.745 34.704 16.243 33.71 16.078 C 33.35 16.048 32.989 16.048 32.63 16.078 L 31.189 16.078 L 30.989 15.268 C 30.83 14.565 30.509 13.909 30.051 13.353 C 29.592 12.797 29.009 12.357 28.349 12.068 C 27.693 11.806 26.985 11.701 26.281 11.764 C 25.578 11.827 24.899 12.054 24.3 12.427 L 23.55 12.877 L 22.96 12.228 C 22.45 11.571 21.758 11.076 20.971 10.806 Z M 7.72 0.233 C 9.202 -0.095 10.739 -0.076 12.212 0.287 C 13.684 0.651 15.053 1.351 16.212 2.33 C 17.37 3.31 18.287 4.545 18.889 5.938 C 18.047 5.831 17.191 5.884 16.369 6.097 C 15.066 6.382 13.88 7.056 12.968 8.029 C 12.055 9.002 11.46 10.228 11.26 11.547 C 10.259 11.483 9.256 11.647 8.328 12.027 C 7.399 12.406 6.569 12.991 5.899 13.738 C 4.845 14.86 4.21 16.311 4.099 17.847 C 2.868 16.961 1.857 15.803 1.146 14.462 C 0.436 13.122 0.045 11.635 0.004 10.119 C -0.038 8.602 0.272 7.096 0.908 5.719 C 1.544 4.342 2.49 3.13 3.672 2.178 C 4.853 1.227 6.239 0.561 7.72 0.233 Z" fill="currentColor" fill-rule="nonzero"/>
</svg>
