<svg xmlns="http://www.w3.org/2000/svg" width="40" height="40" viewBox="0 0 40 40" fill="none">
  <path d="M 20 0 C 16.044 0 12.178 1.173 8.889 3.371 C 5.6 5.568 3.036 8.692 1.522 12.346 C 0.009 16.001 -0.387 20.022 0.384 23.902 C 1.156 27.781 3.061 31.345 5.858 34.142 C 8.655 36.939 12.219 38.844 16.098 39.616 C 19.978 40.387 23.999 39.991 27.654 38.478 C 31.308 36.964 34.432 34.4 36.629 31.111 C 38.827 27.822 40 23.956 40 20 C 40 17.374 39.483 14.773 38.478 12.346 C 37.473 9.92 35.999 7.715 34.142 5.858 C 32.285 4.001 30.08 2.528 27.654 1.522 C 25.227 0.517 22.626 0 20 0 Z M 26.84 28.85 C 26.838 28.945 26.807 29.037 26.753 29.116 C 26.699 29.194 26.624 29.255 26.536 29.291 C 26.448 29.327 26.351 29.336 26.258 29.319 C 26.165 29.301 26.078 29.256 26.01 29.19 L 18.54 21.72 L 18.54 28.85 C 18.54 28.945 18.512 29.038 18.459 29.117 C 18.407 29.196 18.332 29.258 18.244 29.295 C 18.156 29.331 18.059 29.341 17.966 29.322 C 17.873 29.303 17.787 29.257 17.72 29.19 L 8.87 20.34 C 8.825 20.295 8.79 20.242 8.766 20.184 C 8.741 20.126 8.729 20.063 8.729 20 C 8.729 19.937 8.741 19.874 8.766 19.816 C 8.79 19.758 8.825 19.705 8.87 19.66 L 17.72 10.81 C 17.787 10.743 17.873 10.697 17.966 10.678 C 18.059 10.659 18.156 10.669 18.244 10.705 C 18.332 10.742 18.407 10.804 18.459 10.883 C 18.512 10.962 18.54 11.055 18.54 11.15 L 18.54 18.29 L 26 10.81 C 26.068 10.744 26.155 10.699 26.248 10.681 C 26.341 10.664 26.438 10.673 26.526 10.709 C 26.614 10.745 26.689 10.806 26.743 10.884 C 26.797 10.963 26.828 11.055 26.83 11.15 L 26.84 28.85 Z" fill="currentColor" fill-rule="nonzero"/>
</svg>
