<svg xmlns="http://www.w3.org/2000/svg" width="36.012" height="35.980" viewBox="0 0 36.012 35.980" fill="none">
  <path d="M 29.101 1.11 C 27.533 0.385 25.828 0.006 24.101 0 C 22.365 -0.004 20.649 0.371 19.073 1.1 C 17.497 1.828 16.099 2.892 14.977 4.217 C 13.855 5.541 13.036 7.095 12.577 8.77 C 12.119 10.444 12.031 12.198 12.321 13.91 C 12.345 14.077 12.333 14.247 12.287 14.409 C 12.24 14.571 12.16 14.721 12.051 14.85 L 1.001 25.92 C 0.685 26.225 0.434 26.59 0.263 26.994 C 0.091 27.397 0.002 27.831 0.001 28.27 L 0.001 33.76 C -0.007 34.046 0.042 34.331 0.145 34.598 C 0.248 34.865 0.403 35.109 0.601 35.316 C 0.8 35.522 1.037 35.687 1.299 35.801 C 1.562 35.915 1.845 35.976 2.131 35.98 L 5.231 35.98 C 5.674 35.98 6.099 35.806 6.415 35.496 C 6.731 35.185 6.913 34.763 6.921 34.32 L 6.921 33.12 C 6.929 32.664 7.115 32.229 7.441 31.909 C 7.766 31.589 8.205 31.41 8.661 31.41 L 11.021 31.41 C 11.464 31.41 11.889 31.236 12.205 30.926 C 12.521 30.615 12.703 30.193 12.711 29.75 L 12.711 27.81 C 12.696 27.584 12.726 27.357 12.799 27.143 C 12.872 26.929 12.986 26.731 13.136 26.561 C 13.285 26.391 13.467 26.252 13.67 26.152 C 13.874 26.053 14.095 25.994 14.321 25.98 L 14.931 25.98 C 15.375 25.98 15.801 25.807 16.119 25.496 C 16.437 25.186 16.62 24.764 16.631 24.32 C 16.631 23.867 16.811 23.432 17.132 23.111 C 17.452 22.79 17.887 22.61 18.341 22.61 C 18.583 22.613 18.821 22.668 19.041 22.77 C 21.913 24.104 25.198 24.242 28.172 23.155 C 31.146 22.067 33.567 19.842 34.901 16.97 C 36.235 14.098 36.373 10.813 35.286 7.839 C 34.198 4.864 31.973 2.444 29.101 1.11 Z M 33.031 16.11 C 32.231 17.821 30.959 19.269 29.365 20.282 C 27.77 21.296 25.92 21.833 24.031 21.83 C 22.589 21.831 21.165 21.513 19.861 20.9 C 19.32 20.653 18.729 20.537 18.135 20.563 C 17.542 20.589 16.962 20.755 16.445 21.047 C 15.928 21.34 15.488 21.751 15.16 22.247 C 14.832 22.743 14.627 23.309 14.561 23.9 L 14.411 23.9 L 14.111 23.9 C 13.138 23.984 12.236 24.444 11.596 25.181 C 10.956 25.918 10.628 26.875 10.681 27.85 L 10.681 29.34 L 8.681 29.34 C 7.687 29.345 6.734 29.74 6.028 30.439 C 5.321 31.138 4.917 32.086 4.901 33.08 L 4.901 33.91 L 2.181 33.91 C 2.159 33.92 2.134 33.924 2.11 33.921 C 2.085 33.917 2.062 33.907 2.044 33.892 C 2.025 33.876 2.011 33.855 2.003 33.832 C 1.996 33.809 1.995 33.784 2.001 33.76 L 2.001 28.26 C 2.001 27.923 2.134 27.6 2.371 27.36 L 13.491 16.3 L 13.611 16.17 C 13.909 15.813 14.128 15.396 14.252 14.948 C 14.377 14.5 14.403 14.03 14.331 13.57 C 14.094 12.153 14.169 10.701 14.55 9.316 C 14.931 7.931 15.608 6.645 16.536 5.548 C 17.464 4.45 18.619 3.568 19.922 2.963 C 21.225 2.357 22.644 2.042 24.081 2.04 C 25.745 2.033 27.384 2.446 28.846 3.242 C 30.308 4.037 31.546 5.189 32.444 6.591 C 33.341 7.992 33.87 9.598 33.982 11.259 C 34.093 12.919 33.783 14.581 33.081 16.09 L 33.031 16.11 Z M 25.511 6.92 C 24.944 7.041 24.423 7.32 24.009 7.726 C 23.595 8.131 23.304 8.646 23.171 9.21 C 23.081 9.642 23.081 10.088 23.171 10.52 C 23.335 11.335 23.816 12.052 24.507 12.513 C 25.199 12.974 26.045 13.142 26.861 12.98 C 27.665 12.794 28.364 12.298 28.804 11.599 C 29.244 10.9 29.39 10.056 29.211 9.25 C 29.123 8.852 28.958 8.476 28.724 8.142 C 28.491 7.808 28.194 7.524 27.85 7.305 C 27.506 7.087 27.122 6.939 26.721 6.869 C 26.319 6.8 25.908 6.81 25.511 6.9 L 25.511 6.92 Z" fill="currentColor" fill-rule="nonzero"/>
</svg>
