<svg xmlns="http://www.w3.org/2000/svg" width="37.144" height="40.213" viewBox="0 0 37.144 40.213" fill="none">
  <path d="M 37.14 20.427 C 37.173 19.707 37.002 18.993 36.649 18.365 C 36.295 17.738 35.773 17.222 35.14 16.877 C 34.999 16.809 34.882 16.698 34.806 16.56 C 34.731 16.421 34.701 16.263 34.72 16.107 C 34.693 15.218 34.599 14.332 34.44 13.457 C 33.775 9.47 31.635 5.879 28.445 3.397 C 25.255 0.914 21.249 -0.279 17.221 0.055 C 13.193 0.389 9.437 2.224 6.699 5.198 C 3.961 8.171 2.441 12.065 2.44 16.107 C 2.456 16.28 2.417 16.454 2.329 16.605 C 2.242 16.755 2.109 16.875 1.95 16.947 C 1.349 17.29 0.851 17.789 0.508 18.39 C 0.165 18.992 -0.01 19.674 0 20.367 L 0 25.107 C 0.004 25.932 0.269 26.735 0.758 27.4 C 1.247 28.064 1.934 28.557 2.72 28.807 C 3.49 29.027 4.25 29.157 5.02 29.367 C 5.714 29.583 6.465 29.517 7.11 29.181 C 7.754 28.846 8.24 28.269 8.46 27.577 C 8.56 27.253 8.601 26.915 8.58 26.577 L 8.58 16.457 C 8.512 13.805 9.499 11.234 11.326 9.31 C 13.152 7.385 15.668 6.266 18.32 6.197 C 20.973 6.128 23.544 7.115 25.468 8.942 C 27.392 10.768 28.512 13.285 28.58 15.937 L 28.58 28.387 C 28.603 29.82 28.165 31.222 27.33 32.387 C 26.739 33.274 25.955 34.016 25.038 34.56 C 24.12 35.103 23.093 35.434 22.03 35.527 C 21.974 35.357 21.9 35.192 21.81 35.037 C 21.463 34.322 20.899 33.735 20.199 33.358 C 19.499 32.981 18.699 32.834 17.91 32.937 C 17.143 33.069 16.439 33.443 15.9 34.005 C 15.36 34.566 15.015 35.285 14.913 36.057 C 14.811 36.829 14.959 37.613 15.335 38.294 C 15.71 38.976 16.294 39.52 17 39.847 C 17.717 40.213 18.541 40.308 19.321 40.115 C 20.102 39.922 20.787 39.454 21.25 38.797 C 21.523 38.394 21.874 38.05 22.283 37.787 C 22.692 37.524 23.151 37.347 23.63 37.267 C 25.408 36.843 27.015 35.888 28.237 34.528 C 29.459 33.169 30.238 31.47 30.47 29.657 C 31.65 29.447 32.76 29.317 33.89 29.037 C 34.816 28.832 35.638 28.305 36.211 27.551 C 36.785 26.796 37.071 25.863 37.02 24.917 C 37.14 23.367 37.14 21.897 37.14 20.427 Z" fill="currentColor" fill-rule="nonzero"/>
</svg>
