<svg xmlns="http://www.w3.org/2000/svg" width="40" height="40" viewBox="0 0 40 40" fill="none">
  <path d="M 0 20 C 0 16.044 1.173 12.178 3.371 8.889 C 5.568 5.6 8.692 3.036 12.346 1.522 C 16.001 0.009 20.022 -0.387 23.902 0.384 C 27.781 1.156 31.345 3.061 34.142 5.858 C 36.939 8.655 38.844 12.219 39.616 16.098 C 40.387 19.978 39.991 23.999 38.478 27.654 C 36.964 31.308 34.4 34.432 31.111 36.629 C 27.822 38.827 23.956 40 20 40 C 17.374 40 14.773 39.483 12.346 38.478 C 9.92 37.473 7.715 35.999 5.858 34.142 C 2.107 30.391 0 25.304 0 20 Z M 2.52 20 C 2.52 23.457 3.545 26.837 5.466 29.711 C 7.387 32.586 10.117 34.826 13.311 36.149 C 16.505 37.472 20.019 37.819 23.41 37.144 C 26.801 36.47 29.916 34.805 32.36 32.36 C 34.805 29.916 36.47 26.801 37.144 23.41 C 37.819 20.019 37.472 16.505 36.149 13.311 C 34.826 10.117 32.586 7.387 29.711 5.466 C 26.837 3.545 23.457 2.52 20 2.52 C 15.366 2.528 10.925 4.372 7.649 7.649 C 4.372 10.925 2.528 15.366 2.52 20 Z M 13.11 28.59 C 12.776 28.59 12.455 28.457 12.219 28.221 C 11.983 27.985 11.85 27.664 11.85 27.33 C 11.85 26.996 11.983 26.675 12.219 26.439 C 12.455 26.203 12.776 26.07 13.11 26.07 L 26 26.07 C 26.318 26.056 26.628 26.168 26.864 26.382 C 27.1 26.595 27.242 26.893 27.26 27.21 L 27.26 27.33 C 27.252 27.662 27.117 27.978 26.883 28.213 C 26.648 28.447 26.332 28.582 26 28.59 L 13.11 28.59 Z M 19.55 24.29 L 19.48 24.29 C 19.278 24.213 19.099 24.085 18.96 23.92 L 15.11 19.48 C 14.913 19.226 14.82 18.907 14.85 18.588 C 14.881 18.268 15.032 17.972 15.273 17.76 C 15.515 17.548 15.828 17.436 16.149 17.447 C 16.469 17.459 16.774 17.592 17 17.82 L 18.56 19.67 L 18.56 11.4 C 18.56 11.066 18.693 10.745 18.929 10.509 C 19.165 10.273 19.486 10.14 19.82 10.14 C 20.154 10.14 20.475 10.273 20.711 10.509 C 20.947 10.745 21.08 11.066 21.08 11.4 L 21.08 19.63 L 22.49 17.85 C 22.708 17.643 22.993 17.519 23.293 17.502 C 23.594 17.485 23.89 17.575 24.13 17.757 C 24.371 17.938 24.539 18.199 24.604 18.492 C 24.67 18.786 24.63 19.093 24.49 19.36 L 24.49 19.41 L 20.86 23.93 C 20.86 24 20.78 24 20.71 24.07 C 20.602 24.169 20.476 24.247 20.34 24.3 L 20.26 24.3 C 20.022 24.395 19.758 24.395 19.52 24.3 L 19.55 24.29 Z" fill="currentColor" fill-rule="nonzero"/>
</svg>
