<svg xmlns="http://www.w3.org/2000/svg" width="36" height="36" viewBox="0 0 36 36" fill="none">
  <path d="M 31.83 8.24 C 32.934 8.24 33.994 8.678 34.775 9.458 C 35.557 10.238 35.997 11.296 36 12.4 L 36 31.82 C 36.001 32.369 35.894 32.912 35.686 33.419 C 35.477 33.926 35.17 34.387 34.782 34.775 C 34.395 35.164 33.934 35.471 33.428 35.682 C 32.921 35.892 32.378 36 31.83 36 L 12.42 36 C 11.317 36 10.259 35.561 9.479 34.781 C 8.698 34.001 8.26 32.943 8.26 31.84 L 8.26 12.4 C 8.26 11.297 8.698 10.238 9.479 9.458 C 10.259 8.678 11.317 8.24 12.42 8.24 L 31.83 8.24 Z M 12.42 11.13 C 12.078 11.13 11.75 11.266 11.508 11.508 C 11.266 11.75 11.13 12.078 11.13 12.42 L 11.13 31.82 C 11.13 32.162 11.266 32.491 11.508 32.732 C 11.75 32.974 12.078 33.11 12.42 33.11 L 31.83 33.11 C 32.172 33.11 32.5 32.974 32.742 32.732 C 32.984 32.491 33.12 32.162 33.12 31.82 L 33.12 12.4 C 33.12 12.058 32.984 11.73 32.742 11.488 C 32.5 11.246 32.172 11.11 31.83 11.11 L 12.42 11.13 Z M 23.58 0 C 24.683 0.003 25.739 0.442 26.519 1.222 C 27.298 2.001 27.738 3.058 27.74 4.16 L 27.74 5.51 L 24.87 5.51 L 24.87 4.18 C 24.87 3.838 24.734 3.509 24.492 3.268 C 24.25 3.026 23.922 2.89 23.58 2.89 L 4.17 2.89 C 3.828 2.89 3.5 3.026 3.258 3.268 C 3.016 3.509 2.88 3.838 2.88 4.18 L 2.88 23.6 C 2.88 23.942 3.016 24.27 3.258 24.512 C 3.5 24.754 3.828 24.89 4.17 24.89 L 5.54 24.89 L 5.54 27.76 L 4.17 27.76 C 3.066 27.76 2.006 27.322 1.225 26.542 C 0.443 25.762 0.003 24.704 0 23.6 L 0 4.18 C -0.001 3.631 0.106 3.088 0.314 2.581 C 0.523 2.074 0.83 1.613 1.218 1.225 C 1.605 0.836 2.066 0.529 2.572 0.318 C 3.079 0.108 3.622 0 4.17 0 L 23.58 0 Z" fill="currentColor" fill-rule="nonzero"/>
</svg>
