<svg xmlns="http://www.w3.org/2000/svg" width="39.995" height="31.540" viewBox="0 0 39.995 31.540" fill="none">
  <path d="M 8.03 6.39 C 8.24 6.39 8.445 6.328 8.619 6.211 C 8.793 6.095 8.929 5.929 9.009 5.736 C 9.09 5.542 9.111 5.329 9.07 5.123 C 9.029 4.918 8.928 4.729 8.78 4.58 C 8.631 4.432 8.442 4.331 8.237 4.29 C 8.031 4.249 7.818 4.27 7.624 4.351 C 7.431 4.431 7.265 4.567 7.149 4.741 C 7.032 4.915 6.97 5.12 6.97 5.33 C 6.97 5.611 7.082 5.881 7.28 6.08 C 7.479 6.278 7.749 6.39 8.03 6.39 Z M 24.83 6.39 C 25.04 6.39 25.245 6.328 25.419 6.211 C 25.593 6.095 25.729 5.929 25.809 5.736 C 25.89 5.542 25.911 5.329 25.87 5.123 C 25.829 4.918 25.728 4.729 25.58 4.58 C 25.431 4.432 25.242 4.331 25.037 4.29 C 24.831 4.249 24.618 4.27 24.424 4.351 C 24.231 4.431 24.065 4.567 23.949 4.741 C 23.832 4.915 23.77 5.12 23.77 5.33 C 23.77 5.611 23.882 5.881 24.08 6.08 C 24.279 6.278 24.549 6.39 24.83 6.39 Z M 20.89 26.96 L 3.65 26.96 C 3.471 26.961 3.293 26.927 3.126 26.859 C 2.96 26.792 2.809 26.692 2.682 26.565 C 2.555 26.439 2.453 26.288 2.384 26.123 C 2.316 25.957 2.28 25.779 2.28 25.6 L 2.28 12.3 L 30.57 12.3 L 30.57 12.79 C 30.57 13.092 30.69 13.382 30.904 13.596 C 31.118 13.81 31.408 13.93 31.71 13.93 C 32.012 13.93 32.302 13.81 32.516 13.596 C 32.73 13.382 32.85 13.092 32.85 12.79 L 32.85 3.65 C 32.851 3.17 32.758 2.695 32.575 2.252 C 32.392 1.808 32.123 1.405 31.784 1.066 C 31.445 0.727 31.042 0.458 30.598 0.275 C 30.155 0.092 29.68 -0.001 29.2 0 L 25.81 0 L 25.81 2.79 C 26.402 3.023 26.893 3.455 27.2 4.012 C 27.507 4.568 27.611 5.215 27.492 5.839 C 27.374 6.464 27.041 7.027 26.551 7.433 C 26.062 7.838 25.446 8.06 24.81 8.06 C 24.174 8.06 23.558 7.838 23.069 7.433 C 22.579 7.027 22.246 6.464 22.128 5.839 C 22.009 5.215 22.113 4.568 22.42 4.012 C 22.727 3.455 23.218 3.023 23.81 2.79 L 23.81 0 L 9.01 0 L 9.01 2.79 C 9.602 3.023 10.093 3.455 10.4 4.012 C 10.707 4.568 10.811 5.215 10.692 5.839 C 10.574 6.464 10.241 7.027 9.751 7.433 C 9.262 7.838 8.646 8.06 8.01 8.06 C 7.374 8.06 6.758 7.838 6.269 7.433 C 5.779 7.027 5.446 6.464 5.328 5.839 C 5.209 5.215 5.313 4.568 5.62 4.012 C 5.927 3.455 6.418 3.023 7.01 2.79 L 7.01 0 L 3.65 0 C 3.17 -0.001 2.695 0.092 2.252 0.275 C 1.808 0.458 1.405 0.727 1.066 1.066 C 0.727 1.405 0.458 1.808 0.275 2.252 C 0.092 2.695 -0.001 3.17 0 3.65 L 0 25.65 C 0 26.129 0.094 26.603 0.278 27.045 C 0.462 27.488 0.731 27.889 1.07 28.227 C 1.409 28.566 1.811 28.833 2.254 29.016 C 2.697 29.198 3.171 29.291 3.65 29.29 L 20.89 29.29 C 21.04 29.29 21.188 29.261 21.326 29.203 C 21.465 29.146 21.59 29.062 21.696 28.956 C 21.802 28.85 21.886 28.725 21.943 28.586 C 22.001 28.448 22.03 28.3 22.03 28.15 C 22.03 28 22.001 27.852 21.943 27.714 C 21.886 27.575 21.802 27.45 21.696 27.344 C 21.59 27.238 21.465 27.154 21.326 27.097 C 21.188 27.04 21.04 27.01 20.89 27.01 L 20.89 26.96 Z M 32.03 15.54 L 31.96 15.54 C 29.841 15.549 27.813 16.399 26.32 17.902 C 24.826 19.405 23.99 21.439 23.995 23.557 C 24 25.676 24.845 27.706 26.344 29.203 C 27.844 30.699 29.876 31.54 31.995 31.54 C 34.114 31.54 36.146 30.699 37.646 29.203 C 39.145 27.706 39.99 25.676 39.995 23.557 C 40 21.439 39.164 19.405 37.67 17.902 C 36.177 16.399 34.149 15.549 32.03 15.54 Z M 35.96 24.31 L 32.69 24.31 L 32.69 27.58 C 32.669 27.76 32.582 27.926 32.447 28.047 C 32.311 28.168 32.136 28.234 31.955 28.234 C 31.774 28.234 31.599 28.168 31.463 28.047 C 31.328 27.926 31.241 27.76 31.22 27.58 L 31.22 24.31 L 27.96 24.31 C 27.78 24.289 27.614 24.202 27.493 24.067 C 27.373 23.931 27.306 23.756 27.306 23.575 C 27.306 23.394 27.373 23.219 27.493 23.083 C 27.614 22.948 27.78 22.861 27.96 22.84 L 31.23 22.84 L 31.23 19.57 C 31.251 19.39 31.338 19.224 31.473 19.103 C 31.609 18.983 31.784 18.916 31.965 18.916 C 32.146 18.916 32.321 18.983 32.457 19.103 C 32.592 19.224 32.679 19.39 32.7 19.57 L 32.7 22.84 L 35.96 22.84 C 36.064 22.828 36.169 22.838 36.268 22.869 C 36.368 22.901 36.46 22.953 36.538 23.022 C 36.616 23.092 36.678 23.177 36.721 23.272 C 36.764 23.367 36.786 23.471 36.786 23.575 C 36.786 23.679 36.764 23.783 36.721 23.878 C 36.678 23.973 36.616 24.058 36.538 24.128 C 36.46 24.197 36.368 24.249 36.268 24.281 C 36.169 24.312 36.064 24.322 35.96 24.31 Z" fill="currentColor" fill-rule="nonzero"/>
</svg>
