<svg xmlns="http://www.w3.org/2000/svg" width="40" height="40" viewBox="0 0 40 40" fill="none">
  <path d="M 20 0 C 16.044 0 12.178 1.173 8.889 3.371 C 5.6 5.568 3.036 8.692 1.522 12.346 C 0.009 16.001 -0.387 20.022 0.384 23.902 C 1.156 27.781 3.061 31.345 5.858 34.142 C 8.655 36.939 12.219 38.844 16.098 39.616 C 19.978 40.387 23.999 39.991 27.654 38.478 C 31.308 36.964 34.432 34.4 36.629 31.111 C 38.827 27.822 40 23.956 40 20 C 40 17.374 39.483 14.773 38.478 12.346 C 37.473 9.92 35.999 7.715 34.142 5.858 C 32.285 4.001 30.08 2.528 27.654 1.522 C 25.227 0.517 22.626 0 20 0 Z M 21.2 29 C 20.819 29.335 20.328 29.52 19.82 29.52 C 19.312 29.52 18.821 29.335 18.44 29 C 18.234 28.819 18.072 28.594 17.966 28.341 C 17.86 28.088 17.814 27.814 17.83 27.54 C 17.827 27.28 17.876 27.021 17.976 26.78 C 18.076 26.54 18.223 26.322 18.41 26.14 C 18.599 25.955 18.823 25.81 19.068 25.712 C 19.313 25.614 19.576 25.566 19.84 25.57 C 20.1 25.565 20.358 25.613 20.599 25.711 C 20.84 25.809 21.058 25.955 21.24 26.14 C 21.422 26.324 21.565 26.543 21.662 26.783 C 21.758 27.024 21.805 27.281 21.8 27.54 C 21.812 27.812 21.765 28.084 21.662 28.336 C 21.558 28.589 21.4 28.815 21.2 29 Z M 25.76 17.51 C 25.497 18.017 25.16 18.482 24.76 18.89 C 24.37 19.26 23.7 19.89 22.69 20.79 C 22.43 21.03 22.21 21.25 22.04 21.43 C 21.909 21.58 21.795 21.745 21.7 21.92 C 21.623 22.063 21.563 22.214 21.52 22.37 C 21.52 22.52 21.41 22.79 21.32 23.19 C 21.306 23.386 21.254 23.577 21.166 23.753 C 21.077 23.928 20.956 24.084 20.807 24.213 C 20.658 24.341 20.486 24.438 20.299 24.5 C 20.113 24.561 19.916 24.585 19.72 24.57 C 19.504 24.576 19.289 24.538 19.088 24.459 C 18.887 24.38 18.704 24.261 18.55 24.11 C 18.381 23.932 18.251 23.721 18.169 23.491 C 18.086 23.26 18.052 23.014 18.07 22.77 C 18.057 22.165 18.162 21.564 18.38 21 C 18.584 20.499 18.875 20.039 19.24 19.64 C 19.6 19.26 20.08 18.8 20.66 18.29 C 21.24 17.78 21.54 17.51 21.77 17.29 C 21.99 17.071 22.179 16.821 22.33 16.55 C 22.47 16.292 22.543 16.003 22.54 15.71 C 22.542 15.425 22.484 15.143 22.368 14.883 C 22.253 14.622 22.083 14.389 21.87 14.2 C 21.394 13.772 20.769 13.55 20.13 13.58 C 19.795 13.549 19.458 13.589 19.14 13.695 C 18.821 13.802 18.528 13.974 18.28 14.2 C 17.816 14.759 17.475 15.41 17.28 16.11 C 17.218 16.521 17.012 16.897 16.699 17.17 C 16.386 17.443 15.986 17.595 15.57 17.6 C 15.323 17.599 15.079 17.544 14.855 17.441 C 14.631 17.337 14.431 17.187 14.27 17 C 14.113 16.852 13.987 16.674 13.9 16.476 C 13.812 16.279 13.765 16.066 13.76 15.85 C 13.782 14.988 14.045 14.149 14.52 13.43 C 15.08 12.587 15.843 11.899 16.74 11.43 C 17.783 10.879 18.95 10.604 20.13 10.63 C 21.224 10.612 22.307 10.841 23.3 11.3 C 24.169 11.695 24.91 12.326 25.44 13.12 C 25.936 13.863 26.201 14.737 26.2 15.63 C 26.216 16.29 26.064 16.944 25.76 17.53 L 25.76 17.51 Z" fill="currentColor" fill-rule="nonzero"/>
</svg>
