<svg xmlns="http://www.w3.org/2000/svg" width="36" height="33.384" viewBox="0 0 36 33.384" fill="none">
  <path d="M 10.663 9.44 C 10.139 9.886 9.478 10.138 8.79 10.154 C 8.103 10.136 7.443 9.882 6.921 9.436 C 6.398 8.99 6.045 8.377 5.92 7.702 C 5.794 7.026 5.905 6.328 6.233 5.724 C 6.56 5.12 7.085 4.647 7.72 4.384 L 7.72 1.184 C 7.706 1.034 7.723 0.883 7.77 0.74 C 7.817 0.597 7.894 0.465 7.995 0.354 C 8.097 0.242 8.22 0.153 8.358 0.092 C 8.496 0.031 8.644 0 8.795 0 C 8.946 0 9.094 0.031 9.232 0.092 C 9.37 0.153 9.493 0.242 9.595 0.354 C 9.696 0.465 9.773 0.597 9.82 0.74 C 9.867 0.883 9.884 1.034 9.87 1.184 L 9.87 4.384 C 10.505 4.647 11.031 5.122 11.358 5.726 C 11.686 6.331 11.795 7.03 11.669 7.707 C 11.542 8.383 11.187 8.995 10.663 9.44 Z M 9.437 6.194 C 9.245 6.068 9.02 6.002 8.79 6.004 C 8.484 6.006 8.192 6.13 7.976 6.347 C 7.761 6.564 7.64 6.858 7.64 7.164 C 7.64 7.394 7.708 7.618 7.836 7.809 C 7.964 8 8.146 8.149 8.358 8.236 C 8.571 8.324 8.805 8.346 9.03 8.301 C 9.255 8.255 9.462 8.144 9.624 7.98 C 9.786 7.817 9.895 7.61 9.939 7.384 C 9.983 7.158 9.958 6.925 9.869 6.713 C 9.779 6.501 9.629 6.321 9.437 6.194 Z M 23 3.814 L 13 3.814 C 12.668 3.814 12.351 3.682 12.116 3.448 C 11.882 3.213 11.75 2.895 11.75 2.564 C 11.75 2.232 11.882 1.914 12.116 1.68 C 12.351 1.446 12.668 1.314 13 1.314 L 23 1.314 C 23.332 1.314 23.649 1.446 23.884 1.68 C 24.118 1.914 24.25 2.232 24.25 2.564 C 24.25 2.895 24.118 3.213 23.884 3.448 C 23.649 3.682 23.332 3.814 23 3.814 Z M 27.2 10.154 C 27.888 10.138 28.549 9.886 29.073 9.44 C 29.597 8.995 29.952 8.383 30.079 7.707 C 30.205 7.03 30.096 6.331 29.768 5.726 C 29.441 5.122 28.915 4.647 28.28 4.384 L 28.28 1.184 C 28.294 1.034 28.277 0.883 28.23 0.74 C 28.183 0.597 28.106 0.465 28.005 0.354 C 27.903 0.242 27.78 0.153 27.642 0.092 C 27.504 0.031 27.356 0 27.205 0 C 27.054 0 26.906 0.031 26.768 0.092 C 26.63 0.153 26.507 0.242 26.405 0.354 C 26.304 0.465 26.227 0.597 26.18 0.74 C 26.133 0.883 26.116 1.034 26.13 1.184 L 26.13 4.384 C 25.495 4.647 24.97 5.12 24.643 5.724 C 24.315 6.328 24.204 7.026 24.33 7.702 C 24.455 8.377 24.808 8.99 25.331 9.436 C 25.853 9.882 26.513 10.136 27.2 10.154 Z M 27.2 6.004 C 27.428 6.012 27.648 6.086 27.833 6.218 C 28.019 6.351 28.161 6.534 28.243 6.747 C 28.324 6.959 28.342 7.191 28.293 7.414 C 28.243 7.636 28.13 7.839 27.966 7.997 C 27.803 8.155 27.596 8.262 27.372 8.304 C 27.148 8.345 26.917 8.32 26.707 8.231 C 26.498 8.142 26.319 7.994 26.193 7.804 C 26.067 7.614 26 7.391 26 7.164 C 26 7.008 26.031 6.854 26.092 6.71 C 26.153 6.567 26.242 6.437 26.354 6.329 C 26.466 6.221 26.598 6.136 26.744 6.08 C 26.889 6.024 27.044 5.998 27.2 6.004 Z M 31.4 1.314 L 32 1.314 C 33.061 1.314 34.078 1.735 34.828 2.485 C 35.579 3.236 36 4.253 36 5.314 L 36 21.484 L 35.13 22.304 L 24.26 32.594 L 23.44 33.384 L 4 33.384 C 2.939 33.384 1.922 32.962 1.172 32.212 C 0.421 31.462 0 30.445 0 29.384 L 0 5.314 C 0 4.253 0.421 3.236 1.172 2.485 C 1.922 1.735 2.939 1.314 4 1.314 L 4.6 1.314 C 4.764 1.314 4.927 1.346 5.078 1.409 C 5.23 1.472 5.368 1.564 5.484 1.68 C 5.6 1.796 5.692 1.934 5.755 2.085 C 5.818 2.237 5.85 2.4 5.85 2.564 C 5.85 2.728 5.818 2.891 5.755 3.042 C 5.692 3.194 5.6 3.332 5.484 3.448 C 5.368 3.564 5.23 3.656 5.078 3.719 C 4.927 3.781 4.764 3.814 4.6 3.814 L 4 3.814 C 3.602 3.814 3.221 3.972 2.939 4.253 C 2.658 4.534 2.5 4.916 2.5 5.314 L 2.5 12.314 L 33.5 12.314 L 33.5 5.314 C 33.5 4.916 33.342 4.534 33.061 4.253 C 32.779 3.972 32.398 3.814 32 3.814 L 31.4 3.814 C 31.068 3.814 30.751 3.682 30.516 3.448 C 30.282 3.213 30.15 2.895 30.15 2.564 C 30.15 2.232 30.282 1.914 30.516 1.68 C 30.751 1.446 31.068 1.314 31.4 1.314 Z M 22 30.934 L 22 25.744 C 21.992 24.995 22.132 24.252 22.412 23.557 C 22.692 22.862 23.106 22.23 23.631 21.696 C 24.156 21.161 24.781 20.736 25.471 20.444 C 26.161 20.152 26.901 19.999 27.65 19.994 L 33.5 19.994 L 33.5 14.804 L 2.5 14.804 L 2.5 29.434 C 2.5 29.832 2.658 30.213 2.939 30.494 C 3.221 30.776 3.602 30.934 4 30.934 L 22 30.934 Z M 24.26 25.744 L 24.26 29.524 L 31.87 22.354 L 27.65 22.354 C 26.751 22.354 25.889 22.711 25.253 23.347 C 24.617 23.982 24.26 24.845 24.26 25.744 Z" fill="currentColor" fill-rule="evenodd"/>
</svg>
