<svg xmlns="http://www.w3.org/2000/svg" width="36" height="36" viewBox="0 0 36 36" fill="none">
  <path d="M 28.4 0 L 7.6 0 C 5.584 0 3.651 0.801 2.226 2.226 C 0.801 3.651 0 5.584 0 7.6 L 0 28.4 C 0 30.416 0.801 32.349 2.226 33.774 C 3.651 35.199 5.584 36 7.6 36 L 22.07 36 L 36 22.27 L 36 7.53 C 35.987 5.525 35.18 3.607 33.755 2.195 C 32.331 0.784 30.405 -0.005 28.4 0 Z M 21.15 33.24 L 21.15 26.61 C 21.15 25.148 21.73 23.745 22.763 22.71 C 23.796 21.675 25.198 21.093 26.66 21.09 L 33.45 21.09 L 21.15 33.24 Z" fill="currentColor" fill-rule="nonzero"/>
</svg>
