<svg xmlns="http://www.w3.org/2000/svg" width="40" height="40" viewBox="0 0 40 40" fill="none">
  <path d="M 6.6 33.4 L 15.7 33.4 C 16.3 33.3 16.7 32.8 16.6 32.2 L 16.6 32 C 16.6 31.4 16 30.8 15.4 30.9 L 6.6 30.9 C 5.9 31 5.4 31.6 5.5 32.2 C 5.5 32.8 6 33.3 6.6 33.4 Z M 19.9 37.5 L 4.3 37.5 C 3.3 37.5 2.5 36.7 2.5 35.8 L 2.5 4.3 C 2.5 3.3 3.3 2.5 4.2 2.5 L 27.7 2.5 C 28.7 2.5 29.5 3.3 29.5 4.3 L 29.5 15.9 C 29.5 16.6 30.1 17.1 30.7 17.1 C 31.3 17.1 31.9 16.5 31.9 15.9 L 31.9 4.3 C 31.9 1.9 30 0 27.6 0 L 4.3 0 C 1.9 0.1 0 2 0 4.3 L 0 35.7 C 0 38 1.9 40 4.2 40 C 4.2 40 4.2 40 4.3 40 L 19.9 40 C 20.6 40 21.1 39.4 21.1 38.8 C 21.1 38.2 20.5 37.5 19.9 37.5 Z M 6.7 28.6 L 14.7 28.6 C 15.4 28.6 15.9 28 15.9 27.4 C 15.9 26.7 15.3 26.2 14.7 26.2 L 6.7 26.2 C 6 26.2 5.5 26.7 5.5 27.4 C 5.4 28 6 28.6 6.7 28.6 Z M 30.5 20 C 25.2 20 21 24.2 21 29.5 C 21 34.8 25.2 39 30.5 39 C 35.8 39 40 34.8 40 29.5 C 40 24.3 35.7 20 30.5 20 Z M 29.7 26.3 C 29.7 25.9 30.1 25.5 30.5 25.5 C 30.9 25.5 31.3 25.9 31.3 26.3 L 31.3 29.4 C 31.3 29.8 30.9 30.2 30.5 30.2 C 30.1 30.2 29.7 29.8 29.7 29.4 L 29.7 26.3 Z M 30.5 33.5 C 30 33.5 29.6 33.1 29.6 32.6 C 29.6 32.1 30 31.7 30.5 31.7 C 31 31.7 31.4 32.1 31.4 32.6 C 31.5 33.1 31.1 33.5 30.5 33.5 C 30.5 33.6 30.5 33.6 30.5 33.5 Z M 26.3 8.1 C 26.3 7.4 25.8 6.9 25.1 6.8 L 6.6 6.8 C 5.9 6.8 5.4 7.4 5.4 8 C 5.4 8.7 6 9.2 6.6 9.2 L 25.1 9.2 C 25.8 9.2 26.3 8.7 26.3 8.1 Z M 20.2 12.6 C 20.2 11.9 19.7 11.4 19 11.3 C 19 11.3 19 11.3 18.9 11.3 L 7.1 11.3 C 6.4 11.3 5.9 11.9 5.9 12.5 C 5.9 13.2 6.5 13.7 7.1 13.7 L 19 13.7 C 19.7 13.8 20.2 13.2 20.2 12.6 Z M 18.5 22.6 C 18.5 21.9 17.9 21.4 17.3 21.4 L 6.6 21.4 C 5.9 21.4 5.4 22 5.4 22.6 C 5.4 23.3 6 23.8 6.6 23.8 L 17.3 23.8 C 18 23.8 18.5 23.2 18.5 22.6 C 18.5 22.5 18.5 22.5 18.5 22.6 Z" fill="currentColor" fill-rule="nonzero"/>
</svg>
