<svg xmlns="http://www.w3.org/2000/svg" width="40" height="25.946" viewBox="0 0 40 25.946" fill="none">
  <path d="M 30.37 3.956 L 32.62 1.706 C 32.806 1.518 32.911 1.265 32.911 1.001 C 32.911 0.737 32.806 0.483 32.62 0.296 C 32.527 0.202 32.416 0.128 32.295 0.077 C 32.173 0.026 32.042 0 31.91 0 C 31.778 0 31.647 0.026 31.525 0.077 C 31.404 0.128 31.293 0.202 31.2 0.296 L 28.41 3.086 C 25.729 2.042 22.877 1.503 20 1.496 C 15.962 1.523 11.999 2.592 8.495 4.6 C 4.992 6.608 2.065 9.486 0 12.956 C 2.289 16.814 5.634 19.937 9.64 21.956 L 7.36 24.246 C 7.174 24.433 7.069 24.687 7.069 24.951 C 7.069 25.215 7.174 25.468 7.36 25.656 C 7.546 25.841 7.798 25.945 8.06 25.946 C 8.192 25.947 8.322 25.921 8.444 25.872 C 8.566 25.822 8.677 25.748 8.77 25.656 L 11.6 22.756 C 14.276 23.809 17.124 24.358 20 24.376 C 24.033 24.346 27.99 23.28 31.493 21.28 C 34.995 19.28 37.924 16.414 40 12.956 C 37.718 9.096 34.375 5.972 30.37 3.956 Z M 3.21 12.956 C 5.273 10.243 7.904 8.014 10.92 6.426 C 9.504 8.31 8.739 10.604 8.739 12.961 C 8.739 15.318 9.504 17.611 10.92 19.496 C 7.904 17.904 5.272 15.672 3.21 12.956 Z M 11 12.956 C 11.028 11.156 11.594 9.407 12.626 7.933 C 13.658 6.458 15.109 5.327 16.79 4.686 C 18.908 4.366 21.062 4.366 23.18 4.686 C 24.026 4.989 24.821 5.417 25.54 5.956 L 24 7.506 C 22.84 6.656 21.438 6.201 20 6.206 L 19.92 6.206 C 19.751 6.219 19.594 6.297 19.482 6.424 C 19.37 6.551 19.312 6.717 19.32 6.886 L 19.32 6.956 C 19.333 7.125 19.411 7.282 19.538 7.394 C 19.665 7.506 19.831 7.564 20 7.556 C 21.087 7.544 22.151 7.865 23.05 8.476 L 13.05 18.476 C 11.752 16.926 11.028 14.977 11 12.956 Z M 23.2 21.206 C 21.083 21.536 18.927 21.536 16.81 21.206 C 15.967 20.906 15.172 20.485 14.45 19.956 L 24.45 9.956 C 25.087 10.85 25.436 11.918 25.45 13.016 C 25.45 13.196 25.522 13.369 25.649 13.497 C 25.777 13.624 25.95 13.696 26.13 13.696 C 26.31 13.696 26.483 13.624 26.611 13.497 C 26.738 13.369 26.81 13.196 26.81 13.016 C 26.791 11.569 26.307 10.166 25.43 9.016 L 27 7.396 C 28.279 8.968 28.984 10.929 29 12.956 C 28.977 14.755 28.411 16.506 27.376 17.978 C 26.341 19.45 24.885 20.575 23.2 21.206 Z M 29.09 19.466 C 30.507 17.583 31.273 15.292 31.273 12.936 C 31.273 10.58 30.507 8.288 29.09 6.406 C 32.109 7.997 34.742 10.233 36.8 12.956 C 34.739 15.665 32.107 17.888 29.09 19.466 Z" fill="currentColor" fill-rule="nonzero"/>
</svg>
