<svg xmlns="http://www.w3.org/2000/svg" width="33.236" height="36" viewBox="0 0 33.236 36" fill="none">
  <path d="M 32.417 10 L 18.017 0.5 C 17.717 0.3 17.417 0.1 17.017 0 L 16.317 0 C 15.917 0.1 15.617 0.2 15.317 0.5 L 0.817 10 C 0.017 10.6 -0.283 11.7 0.317 12.5 C 0.717 13.1 1.317 13.4 2.017 13.3 L 31.217 13.3 C 32.217 13.4 33.117 12.7 33.217 11.7 C 33.317 11 33.017 10.4 32.417 10 Z M 31.117 18.5 C 32.117 18.4 32.817 17.6 32.717 16.6 C 32.617 15.7 31.917 15 31.117 15 L 2.117 15 C 1.117 15.1 0.417 15.9 0.517 16.9 C 0.617 17.8 1.317 18.5 2.117 18.5 L 3.717 18.5 L 3.717 32.5 L 2.517 32.5 C 1.517 32.6 0.817 33.5 0.917 34.4 C 1.017 35.2 1.617 35.9 2.517 36 L 30.717 36 C 31.717 35.9 32.417 35 32.317 34.1 C 32.217 33.3 31.617 32.6 30.717 32.5 L 29.517 32.5 L 29.517 18.5 L 31.117 18.5 Z M 11.417 32.2 C 11.417 32.4 11.217 32.5 11.117 32.5 L 8.017 32.5 C 7.817 32.5 7.717 32.4 7.717 32.2 L 7.717 22.2 C 7.717 21.2 8.617 20.3 9.617 20.3 C 10.617 20.3 11.517 21.2 11.517 22.2 L 11.517 32.2 L 11.417 32.2 Z M 18.417 32.2 C 18.417 32.4 18.217 32.5 18.117 32.5 L 15.017 32.5 C 14.817 32.5 14.717 32.4 14.717 32.2 L 14.717 22.2 C 14.717 21.2 15.617 20.4 16.617 20.4 C 17.617 20.4 18.517 21.2 18.517 22.2 L 18.517 32.2 L 18.417 32.2 Z M 25.617 32.2 C 25.617 32.4 25.417 32.5 25.317 32.5 L 22.217 32.5 C 22.017 32.5 21.917 32.4 21.917 32.2 L 21.917 22.2 C 21.917 21.2 22.817 20.3 23.817 20.3 C 24.817 20.3 25.717 21.2 25.717 22.2 L 25.717 32.2 L 25.617 32.2 Z" fill="currentColor" fill-rule="nonzero"/>
</svg>
