<svg xmlns="http://www.w3.org/2000/svg" width="40" height="31.850" viewBox="0 0 40 31.850" fill="none">
  <path d="M 24.88 16.8 L 21.88 16.8 L 21.88 13.8 C 21.88 13.299 21.681 12.818 21.326 12.464 C 20.972 12.109 20.491 11.91 19.99 11.91 C 19.489 11.91 19.008 12.109 18.654 12.464 C 18.299 12.818 18.1 13.299 18.1 13.8 L 18.1 16.8 L 15.1 16.8 C 14.599 16.8 14.118 16.999 13.764 17.354 C 13.409 17.708 13.21 18.189 13.21 18.69 C 13.21 19.191 13.409 19.672 13.764 20.026 C 14.118 20.381 14.599 20.58 15.1 20.58 L 18.1 20.58 L 18.1 23.58 C 18.1 24.081 18.299 24.562 18.654 24.916 C 19.008 25.271 19.489 25.47 19.99 25.47 C 20.491 25.47 20.972 25.271 21.326 24.916 C 21.681 24.562 21.88 24.081 21.88 23.58 L 21.88 20.58 L 24.88 20.58 C 25.381 20.58 25.862 20.381 26.216 20.026 C 26.571 19.672 26.77 19.191 26.77 18.69 C 26.77 18.189 26.571 17.708 26.216 17.354 C 25.862 16.999 25.381 16.8 24.88 16.8 Z M 35 5.52 L 27.79 5.52 C 27.669 4.013 26.984 2.608 25.872 1.584 C 24.759 0.561 23.302 -0.005 21.79 0 L 17.79 0 C 16.278 -0.005 14.821 0.561 13.708 1.584 C 12.596 2.608 11.911 4.013 11.79 5.52 L 5 5.52 C 3.674 5.52 2.402 6.047 1.464 6.984 C 0.527 7.922 0 9.194 0 10.52 L 0 26.85 C 0 28.176 0.527 29.448 1.464 30.386 C 2.402 31.323 3.674 31.85 5 31.85 L 35 31.85 C 36.326 31.85 37.598 31.323 38.536 30.386 C 39.473 29.448 40 28.176 40 26.85 L 40 10.52 C 40 9.194 39.473 7.922 38.536 6.984 C 37.598 6.047 36.326 5.52 35 5.52 Z M 17.81 3 L 21.81 3 C 22.529 2.991 23.228 3.24 23.778 3.703 C 24.329 4.165 24.695 4.81 24.81 5.52 L 14.91 5.52 C 15.022 4.827 15.374 4.195 15.904 3.735 C 16.434 3.274 17.108 3.014 17.81 3 Z M 37.5 26.85 C 37.5 27.513 37.237 28.149 36.768 28.618 C 36.299 29.087 35.663 29.35 35 29.35 L 5 29.35 C 4.337 29.35 3.701 29.087 3.232 28.618 C 2.763 28.149 2.5 27.513 2.5 26.85 L 2.5 10.52 C 2.5 9.857 2.763 9.221 3.232 8.752 C 3.701 8.283 4.337 8.02 5 8.02 L 35 8.02 C 35.663 8.02 36.299 8.283 36.768 8.752 C 37.237 9.221 37.5 9.857 37.5 10.52 L 37.5 26.85 Z" fill="currentColor" fill-rule="nonzero"/>
</svg>
