<svg xmlns="http://www.w3.org/2000/svg" width="40" height="28.340" viewBox="0 0 40 28.340" fill="none">
  <path d="M 35.54 0 C 36.724 0.003 37.858 0.475 38.694 1.313 C 39.53 2.15 40 3.286 40 4.47 L 40 23.87 C 40 25.054 39.53 26.189 38.694 27.027 C 37.858 27.865 36.724 28.337 35.54 28.34 L 4.46 28.34 C 3.276 28.337 2.142 27.865 1.306 27.027 C 0.47 26.189 0 25.054 0 23.87 L 0 4.47 C 0 3.286 0.47 2.15 1.306 1.313 C 2.142 0.475 3.276 0.003 4.46 0 L 35.54 0 Z M 4.46 2.47 C 3.93 2.47 3.421 2.681 3.046 3.056 C 2.671 3.431 2.46 3.939 2.46 4.47 L 2.46 23.87 C 2.46 24.401 2.671 24.909 3.046 25.284 C 3.421 25.659 3.93 25.87 4.46 25.87 L 35.54 25.87 C 36.07 25.87 36.579 25.659 36.954 25.284 C 37.329 24.909 37.54 24.401 37.54 23.87 L 37.54 4.47 C 37.54 3.939 37.329 3.431 36.954 3.056 C 36.579 2.681 36.07 2.47 35.54 2.47 L 4.46 2.47 Z M 26.84 18.91 C 27.006 18.91 27.14 19.044 27.14 19.21 L 27.14 22.19 C 27.139 22.356 27.005 22.49 26.84 22.49 L 13.16 22.49 C 12.995 22.49 12.861 22.356 12.86 22.19 L 12.86 19.21 C 12.86 19.044 12.994 18.91 13.16 18.91 L 26.84 18.91 Z M 10.75 12.18 C 10.916 12.18 11.05 12.315 11.05 12.48 L 11.05 15.46 C 11.05 15.626 10.916 15.76 10.75 15.76 L 7.77 15.76 C 7.604 15.76 7.47 15.625 7.47 15.46 L 7.47 12.48 C 7.47 12.315 7.604 12.18 7.77 12.18 L 10.75 12.18 Z M 16.12 12.18 C 16.286 12.18 16.42 12.315 16.42 12.48 L 16.42 15.46 C 16.42 15.626 16.286 15.76 16.12 15.76 L 13.14 15.76 C 12.974 15.76 12.84 15.626 12.84 15.46 L 12.84 12.48 C 12.84 12.315 12.974 12.18 13.14 12.18 L 16.12 12.18 Z M 21.49 12.18 C 21.656 12.18 21.79 12.315 21.79 12.48 L 21.79 15.46 C 21.79 15.626 21.656 15.76 21.49 15.76 L 18.51 15.76 C 18.344 15.76 18.21 15.626 18.21 15.46 L 18.21 12.48 C 18.21 12.315 18.344 12.18 18.51 12.18 L 21.49 12.18 Z M 26.86 12.18 C 27.026 12.18 27.16 12.315 27.16 12.48 L 27.16 15.46 C 27.16 15.626 27.026 15.76 26.86 15.76 L 23.88 15.76 C 23.714 15.76 23.58 15.626 23.58 15.46 L 23.58 12.48 C 23.58 12.315 23.714 12.18 23.88 12.18 L 26.86 12.18 Z M 32.23 12.18 C 32.396 12.18 32.53 12.315 32.53 12.48 L 32.53 15.46 C 32.53 15.625 32.396 15.76 32.23 15.76 L 29.25 15.76 C 29.084 15.76 28.95 15.626 28.95 15.46 L 28.95 12.48 C 28.95 12.315 29.084 12.18 29.25 12.18 L 32.23 12.18 Z M 10.75 6.05 C 10.916 6.05 11.05 6.184 11.05 6.35 L 11.05 9.33 C 11.05 9.496 10.916 9.63 10.75 9.63 L 7.77 9.63 C 7.604 9.63 7.47 9.496 7.47 9.33 L 7.47 6.35 C 7.47 6.184 7.604 6.05 7.77 6.05 L 10.75 6.05 Z M 16.12 6.05 C 16.286 6.05 16.42 6.184 16.42 6.35 L 16.42 9.33 C 16.42 9.496 16.286 9.63 16.12 9.63 L 13.14 9.63 C 12.974 9.63 12.84 9.496 12.84 9.33 L 12.84 6.35 C 12.84 6.184 12.974 6.05 13.14 6.05 L 16.12 6.05 Z M 21.49 6.05 C 21.656 6.05 21.79 6.184 21.79 6.35 L 21.79 9.33 C 21.79 9.496 21.656 9.63 21.49 9.63 L 18.51 9.63 C 18.344 9.63 18.21 9.496 18.21 9.33 L 18.21 6.35 C 18.21 6.184 18.344 6.05 18.51 6.05 L 21.49 6.05 Z M 26.86 6.05 C 27.026 6.05 27.16 6.184 27.16 6.35 L 27.16 9.33 C 27.16 9.496 27.026 9.63 26.86 9.63 L 23.88 9.63 C 23.714 9.63 23.58 9.496 23.58 9.33 L 23.58 6.35 C 23.58 6.184 23.714 6.05 23.88 6.05 L 26.86 6.05 Z M 32.23 6.05 C 32.396 6.05 32.53 6.184 32.53 6.35 L 32.53 9.33 C 32.53 9.496 32.396 9.63 32.23 9.63 L 29.25 9.63 C 29.084 9.63 28.95 9.496 28.95 9.33 L 28.95 6.35 C 28.95 6.184 29.084 6.05 29.25 6.05 L 32.23 6.05 Z" fill="currentColor" fill-rule="nonzero"/>
</svg>
