<svg xmlns="http://www.w3.org/2000/svg" width="40" height="40" viewBox="0 0 40 40" fill="none">
  <path d="M 20 40 C 16.044 40 12.178 38.827 8.889 36.629 C 5.6 34.432 3.036 31.308 1.522 27.654 C 0.009 23.999 -0.387 19.978 0.384 16.098 C 1.156 12.219 3.061 8.655 5.858 5.858 C 8.655 3.061 12.219 1.156 16.098 0.384 C 19.978 -0.387 23.999 0.009 27.654 1.522 C 31.308 3.036 34.432 5.6 36.629 8.889 C 38.827 12.178 40 16.044 40 20 C 39.953 25.29 37.831 30.35 34.09 34.09 C 30.35 37.831 25.29 39.953 20 40 Z M 31 21.2 C 30.686 27.281 28.048 33.009 23.63 37.2 C 31.09 35.89 37.54 28.51 37.47 21.2 L 31 21.2 Z M 2.48 21.2 C 2.68 28.76 8.92 35.87 16.39 37.2 C 11.957 33.018 9.31 27.286 9 21.2 L 2.48 21.2 Z M 21.2 36.2 C 25.65 32.48 28.09 27.58 28.67 21.2 L 21.19 21.2 L 21.2 36.2 Z M 11.45 21.2 C 11.12 25.87 15.28 34.2 18.81 36.07 L 18.81 21.2 L 11.45 21.2 Z M 37.54 18.8 C 37.47 10.69 30.37 3.89 23.68 2.8 C 28.08 6.998 30.7 12.726 31 18.8 L 37.54 18.8 Z M 28.54 18.8 C 28.68 13.72 24.49 5.36 21.12 3.9 L 21.12 18.61 C 21.118 18.643 21.118 18.677 21.12 18.71 L 21.12 18.8 L 28.54 18.8 Z M 18.8 18.8 L 18.8 3.85 C 14.8 6.66 10.68 14.94 11.49 18.85 L 18.8 18.8 Z M 9 18.8 C 9.128 15.717 9.851 12.688 11.13 9.88 C 12.396 7.188 14.18 4.772 16.38 2.77 C 9.51 4.21 2.52 10.77 2.46 18.77 L 9 18.8 Z" fill="currentColor" fill-rule="nonzero"/>
</svg>
