<svg xmlns="http://www.w3.org/2000/svg" width="40.011" height="40" viewBox="0 0 40.011 40" fill="none">
  <path d="M 20 0 C 9 0 0 9 0 20 C 0 31 9 40 20 40 C 24.2 40 28.3 38.7 31.7 36.2 L 32.2 35.9 L 27.7 35.9 L 27.6 35.9 C 25.2 37.1 22.6 37.7 19.9 37.7 C 10.2 37.7 2.3 29.8 2.3 20.1 C 2.3 10.4 10.2 2.5 19.9 2.5 C 29.6 2.5 37.5 10.4 37.5 20.1 C 37.5 22.8 36.9 25.4 35.7 27.9 L 29.1 27.9 L 21.9 20 L 31.8 9.7 L 28 9.7 L 20 18.1 L 12 9.7 L 8.3 9.7 L 18.2 20 L 8.3 30.4 L 12 30.4 L 20 22 L 25.6 27.8 L 28.1 30.4 L 37.2 30.4 L 37.3 30.3 C 37.5 30 37.7 29.6 37.9 29.2 L 38.1 28.9 C 38.2 28.7 38.3 28.4 38.4 28.1 L 38.5 27.8 C 39.5 25.3 40.1 22.7 40 20 C 40 9 31 0 20 0 Z" fill="currentColor" fill-rule="nonzero"/>
</svg>
