<svg xmlns="http://www.w3.org/2000/svg" width="40" height="37.360" viewBox="0 0 40 37.360" fill="none">
  <path d="M 31.44 8.75 L 21.52 8.75 L 21.52 1.51 C 21.52 1.311 21.481 1.114 21.404 0.93 C 21.328 0.746 21.215 0.579 21.074 0.439 C 20.933 0.298 20.765 0.187 20.581 0.112 C 20.397 0.037 20.199 -0.001 20 0 C 19.802 0 19.605 0.039 19.422 0.115 C 19.239 0.191 19.072 0.302 18.932 0.442 C 18.792 0.583 18.681 0.749 18.605 0.932 C 18.529 1.115 18.49 1.312 18.49 1.51 L 18.49 8.75 L 8.57 8.75 L 7.35 11.75 L 0 29.89 C 0.07 34.57 3.88 37.36 8.57 37.36 C 13.26 37.36 17.08 34.57 17.14 29.89 L 9.8 11.77 L 30.21 11.77 L 22.87 29.89 C 22.93 34.57 26.74 37.36 31.44 37.36 C 36.14 37.36 39.94 34.57 40 29.89 L 31.44 8.75 Z M 13.53 30.35 L 3.62 30.35 L 8.62 17.55 L 13.53 30.35 Z M 36.39 30.35 L 26.48 30.35 L 31.48 17.55 L 36.39 30.35 Z" fill="currentColor" fill-rule="nonzero"/>
</svg>
