<svg xmlns="http://www.w3.org/2000/svg" width="17.891" height="40" viewBox="0 0 17.891 40" fill="none">
  <path d="M 7.161 38.47 L 7.161 35.13 C 5.064 35.095 2.996 34.636 1.081 33.78 C 0.676 33.609 0.349 33.293 0.164 32.893 C -0.021 32.494 -0.051 32.04 0.081 31.62 C 0.161 31.393 0.287 31.186 0.451 31.011 C 0.616 30.835 0.815 30.696 1.036 30.602 C 1.257 30.508 1.495 30.461 1.735 30.464 C 1.976 30.467 2.212 30.52 2.431 30.62 C 4.133 31.374 5.97 31.778 7.831 31.81 C 11.311 31.81 13.681 29.86 13.681 27.07 C 13.681 24.43 11.681 22.75 8.111 21.22 C 3.111 19.27 0.021 17.04 0.021 12.73 C 0.055 10.739 0.83 8.833 2.195 7.383 C 3.56 5.933 5.416 5.044 7.401 4.89 L 7.401 1.53 C 7.402 1.328 7.444 1.128 7.522 0.941 C 7.601 0.755 7.715 0.586 7.859 0.444 C 8.003 0.302 8.174 0.19 8.361 0.113 C 8.548 0.037 8.749 -0.001 8.951 0 C 9.358 0 9.748 0.161 10.037 0.448 C 10.325 0.734 10.488 1.123 10.491 1.53 L 10.491 4.74 C 12.143 4.771 13.778 5.089 15.321 5.68 C 15.75 5.852 16.094 6.184 16.281 6.607 C 16.468 7.029 16.482 7.507 16.321 7.94 C 16.237 8.148 16.112 8.338 15.954 8.497 C 15.795 8.656 15.607 8.782 15.399 8.868 C 15.192 8.954 14.969 8.997 14.744 8.996 C 14.52 8.994 14.298 8.948 14.091 8.86 C 12.639 8.275 11.086 7.983 9.521 8 C 5.761 8 4.371 10.22 4.371 12.18 C 4.371 14.68 6.181 15.94 10.371 17.75 C 15.371 19.83 17.891 22.34 17.891 26.66 C 17.866 28.751 17.069 30.76 15.653 32.299 C 14.238 33.838 12.303 34.8 10.221 35 L 10.221 38.49 C 10.216 38.892 10.052 39.276 9.766 39.559 C 9.48 39.842 9.093 40 8.691 40 C 8.285 40 7.896 39.839 7.609 39.552 C 7.322 39.265 7.161 38.876 7.161 38.47 Z" fill="currentColor" fill-rule="nonzero"/>
</svg>
