<svg xmlns="http://www.w3.org/2000/svg" width="40" height="40" viewBox="0 0 40 40" fill="none">
  <path d="M 20 0 C 16.044 0 12.178 1.173 8.889 3.371 C 5.6 5.568 3.036 8.692 1.522 12.346 C 0.009 16.001 -0.387 20.022 0.384 23.902 C 1.156 27.781 3.061 31.345 5.858 34.142 C 8.655 36.939 12.219 38.844 16.098 39.616 C 19.978 40.387 23.999 39.991 27.654 38.478 C 31.308 36.964 34.432 34.4 36.629 31.111 C 38.827 27.822 40 23.956 40 20 C 40 17.374 39.483 14.773 38.478 12.346 C 37.473 9.92 35.999 7.715 34.142 5.858 C 32.285 4.001 30.08 2.528 27.654 1.522 C 25.227 0.517 22.626 0 20 0 Z M 20 2.5 C 23.288 2.498 26.51 3.423 29.296 5.17 C 32.082 6.917 34.319 9.414 35.749 12.374 C 37.18 15.335 37.747 18.639 37.384 21.907 C 37.022 25.175 35.745 28.275 33.7 30.85 C 32.868 29.905 31.752 29.256 30.52 29 C 28.733 28.62 26.988 28.064 25.31 27.34 C 25.003 27.194 24.731 26.985 24.511 26.727 C 24.291 26.468 24.128 26.166 24.034 25.84 C 23.939 25.514 23.915 25.171 23.963 24.835 C 24.01 24.499 24.129 24.177 24.31 23.89 C 24.83 22.81 27.15 19.23 27.15 15.02 C 27.15 8.38 22.41 7.07 19.92 7.07 C 17.43 7.07 12.68 8.38 12.68 15.07 C 12.68 19.28 15 22.86 15.52 23.94 C 15.701 24.227 15.82 24.549 15.867 24.885 C 15.915 25.221 15.891 25.564 15.796 25.89 C 15.702 26.216 15.539 26.518 15.319 26.777 C 15.099 27.035 14.827 27.244 14.52 27.39 C 12.817 28.098 11.048 28.637 9.24 29 C 8.084 29.242 7.022 29.811 6.18 30.64 C 4.184 28.056 2.952 24.965 2.624 21.716 C 2.296 18.467 2.884 15.192 4.323 12.261 C 5.762 9.33 7.994 6.861 10.765 5.134 C 13.535 3.407 16.735 2.491 20 2.49 L 20 2.5 Z" fill="currentColor" fill-rule="nonzero"/>
</svg>
