<svg xmlns="http://www.w3.org/2000/svg" width="35.256" height="35.760" viewBox="0 0 35.256 35.760" fill="none">
  <path d="M 14.14 25.41 L 14.61 25.41 C 14.826 25.413 15.039 25.373 15.239 25.293 C 15.439 25.213 15.622 25.095 15.776 24.944 C 15.93 24.794 16.053 24.614 16.138 24.417 C 16.223 24.219 16.268 24.006 16.27 23.79 C 16.272 23.57 16.316 23.352 16.402 23.148 C 16.488 22.945 16.612 22.76 16.769 22.605 C 16.926 22.45 17.112 22.328 17.317 22.244 C 17.521 22.161 17.74 22.119 17.96 22.12 C 18.198 22.12 18.434 22.171 18.65 22.27 C 21.018 23.372 23.686 23.648 26.228 23.055 C 28.771 22.462 31.042 21.034 32.678 19 C 34.314 16.965 35.222 14.441 35.255 11.83 C 35.289 9.219 34.447 6.673 32.863 4.597 C 31.28 2.521 29.046 1.035 26.52 0.377 C 23.993 -0.281 21.319 -0.073 18.924 0.967 C 16.529 2.007 14.552 3.819 13.307 6.115 C 12.063 8.41 11.624 11.056 12.06 13.63 C 12.084 13.794 12.072 13.961 12.026 14.12 C 11.979 14.279 11.899 14.426 11.79 14.55 L 0.94 25.38 C 0.637 25.683 0.398 26.044 0.237 26.44 C 0.075 26.837 -0.005 27.262 0 27.69 L 0 33.63 C -0.005 34.188 0.211 34.726 0.601 35.125 C 0.99 35.524 1.522 35.753 2.08 35.76 L 5.08 35.76 C 5.516 35.763 5.935 35.593 6.246 35.288 C 6.557 34.982 6.735 34.566 6.74 34.13 L 6.74 32.39 C 6.748 31.942 6.932 31.515 7.252 31.201 C 7.571 30.886 8.002 30.71 8.45 30.71 L 10.76 30.71 C 11.196 30.713 11.615 30.543 11.926 30.238 C 12.237 29.932 12.415 29.516 12.42 29.08 L 12.42 27.18 C 12.384 26.738 12.525 26.299 12.812 25.96 C 13.098 25.62 13.508 25.409 13.95 25.37 L 14.14 25.41 Z M 22.67 9 C 22.792 8.305 23.155 7.675 23.696 7.221 C 24.236 6.767 24.919 6.518 25.625 6.518 C 26.331 6.518 27.014 6.767 27.555 7.221 C 28.095 7.675 28.458 8.305 28.58 9 C 28.694 9.467 28.694 9.954 28.58 10.42 C 28.45 10.971 28.167 11.473 27.763 11.869 C 27.36 12.266 26.853 12.54 26.3 12.66 C 25.501 12.82 24.671 12.657 23.991 12.208 C 23.311 11.758 22.836 11.058 22.67 10.26 C 22.589 9.844 22.589 9.417 22.67 9 Z" fill="currentColor" fill-rule="nonzero"/>
</svg>
