<svg xmlns="http://www.w3.org/2000/svg" width="36" height="36" viewBox="0 0 36 36" fill="none">
  <path d="M 4 28 C 3.209 28 2.436 28.235 1.778 28.674 C 1.12 29.114 0.607 29.738 0.304 30.469 C 0.002 31.2 -0.077 32.004 0.077 32.78 C 0.231 33.556 0.612 34.269 1.172 34.828 C 1.731 35.388 2.444 35.769 3.22 35.923 C 3.996 36.077 4.8 35.998 5.531 35.696 C 6.262 35.393 6.886 34.88 7.326 34.222 C 7.765 33.564 8 32.791 8 32 C 8 30.939 7.579 29.922 6.828 29.172 C 6.078 28.421 5.061 28 4 28 Z M 32 14 C 31.209 14 30.436 14.235 29.778 14.674 C 29.12 15.114 28.607 15.738 28.304 16.469 C 28.002 17.2 27.923 18.004 28.077 18.78 C 28.231 19.556 28.612 20.269 29.172 20.828 C 29.731 21.388 30.444 21.769 31.22 21.923 C 31.996 22.077 32.8 21.998 33.531 21.696 C 34.262 21.393 34.886 20.88 35.326 20.222 C 35.765 19.564 36 18.791 36 18 C 36 16.939 35.579 15.922 34.828 15.172 C 34.078 14.421 33.061 14 32 14 Z M 4 14 C 3.209 14 2.436 14.235 1.778 14.674 C 1.12 15.114 0.607 15.738 0.304 16.469 C 0.002 17.2 -0.077 18.004 0.077 18.78 C 0.231 19.556 0.612 20.269 1.172 20.828 C 1.731 21.388 2.444 21.769 3.22 21.923 C 3.996 22.077 4.8 21.998 5.531 21.696 C 6.262 21.393 6.886 20.88 7.326 20.222 C 7.765 19.564 8 18.791 8 18 C 8 16.939 7.579 15.922 6.828 15.172 C 6.078 14.421 5.061 14 4 14 Z M 32 8 C 32.791 8 33.564 7.765 34.222 7.326 C 34.88 6.886 35.393 6.262 35.696 5.531 C 35.998 4.8 36.077 3.996 35.923 3.22 C 35.769 2.444 35.388 1.731 34.828 1.172 C 34.269 0.612 33.556 0.231 32.78 0.077 C 32.004 -0.077 31.2 0.002 30.469 0.304 C 29.738 0.607 29.114 1.12 28.674 1.778 C 28.235 2.436 28 3.209 28 4 C 28 5.061 28.421 6.078 29.172 6.828 C 29.922 7.579 30.939 8 32 8 Z M 4 0 C 3.209 0 2.436 0.235 1.778 0.674 C 1.12 1.114 0.607 1.738 0.304 2.469 C 0.002 3.2 -0.077 4.004 0.077 4.78 C 0.231 5.556 0.612 6.269 1.172 6.828 C 1.731 7.388 2.444 7.769 3.22 7.923 C 3.996 8.077 4.8 7.998 5.531 7.696 C 6.262 7.393 6.886 6.88 7.326 6.222 C 7.765 5.564 8 4.791 8 4 C 8 2.939 7.579 1.922 6.828 1.172 C 6.078 0.421 5.061 0 4 0 Z M 18 0 C 17.209 0 16.436 0.235 15.778 0.674 C 15.12 1.114 14.607 1.738 14.304 2.469 C 14.002 3.2 13.923 4.004 14.077 4.78 C 14.231 5.556 14.612 6.269 15.172 6.828 C 15.731 7.388 16.444 7.769 17.22 7.923 C 17.996 8.077 18.8 7.998 19.531 7.696 C 20.262 7.393 20.886 6.88 21.326 6.222 C 21.765 5.564 22 4.791 22 4 C 22 2.939 21.579 1.922 20.828 1.172 C 20.078 0.421 19.061 0 18 0 Z M 32 28 C 31.209 28 30.436 28.235 29.778 28.674 C 29.12 29.114 28.607 29.738 28.304 30.469 C 28.002 31.2 27.923 32.004 28.077 32.78 C 28.231 33.556 28.612 34.269 29.172 34.828 C 29.731 35.388 30.444 35.769 31.22 35.923 C 31.996 36.077 32.8 35.998 33.531 35.696 C 34.262 35.393 34.886 34.88 35.326 34.222 C 35.765 33.564 36 32.791 36 32 C 36 30.939 35.579 29.922 34.828 29.172 C 34.078 28.421 33.061 28 32 28 Z M 18 28 C 17.209 28 16.436 28.235 15.778 28.674 C 15.12 29.114 14.607 29.738 14.304 30.469 C 14.002 31.2 13.923 32.004 14.077 32.78 C 14.231 33.556 14.612 34.269 15.172 34.828 C 15.731 35.388 16.444 35.769 17.22 35.923 C 17.996 36.077 18.8 35.998 19.531 35.696 C 20.262 35.393 20.886 34.88 21.326 34.222 C 21.765 33.564 22 32.791 22 32 C 22 30.939 21.579 29.922 20.828 29.172 C 20.078 28.421 19.061 28 18 28 Z M 18 14 C 17.209 14 16.436 14.235 15.778 14.674 C 15.12 15.114 14.607 15.738 14.304 16.469 C 14.002 17.2 13.923 18.004 14.077 18.78 C 14.231 19.556 14.612 20.269 15.172 20.828 C 15.731 21.388 16.444 21.769 17.22 21.923 C 17.996 22.077 18.8 21.998 19.531 21.696 C 20.262 21.393 20.886 20.88 21.326 20.222 C 21.765 19.564 22 18.791 22 18 C 22 16.939 21.579 15.922 20.828 15.172 C 20.078 14.421 19.061 14 18 14 Z" fill="currentColor" fill-rule="nonzero"/>
</svg>
