<svg xmlns="http://www.w3.org/2000/svg" width="39.940" height="37.600" viewBox="0 0 39.940 37.600" fill="none">
  <path d="M 3.86 37.6 C 2.52 37.6 0 36.7 0 33.29 L 0 14.13 C -0.002 14.018 0.015 13.907 0.05 13.8 C 0.05 13.52 0.05 13.19 0.35 13.05 L 6.59 8.49 L 6.59 6.96 C 6.583 6.821 6.605 6.681 6.655 6.55 C 6.706 6.42 6.783 6.301 6.882 6.202 C 6.981 6.103 7.099 6.026 7.23 5.976 C 7.361 5.926 7.5 5.903 7.64 5.91 L 10.12 5.91 L 10.17 5.91 L 17 0.92 C 17.906 0.32 18.968 0 20.055 0 C 21.142 0 22.204 0.32 23.11 0.92 L 23.24 1.01 L 30 5.87 L 32.56 5.87 C 32.696 5.87 32.83 5.898 32.955 5.951 C 33.079 6.004 33.192 6.083 33.286 6.181 C 33.379 6.279 33.452 6.395 33.499 6.522 C 33.546 6.65 33.567 6.785 33.56 6.92 L 33.56 8.48 L 33.64 8.54 C 38.11 11.79 39.36 12.76 39.64 13.01 C 39.92 13.26 39.94 13.55 39.94 14.32 L 39.94 33.99 C 39.878 34.95 39.461 35.852 38.769 36.519 C 38.077 37.187 37.161 37.573 36.2 37.6 L 3.86 37.6 Z M 19.86 24.54 C 19.677 24.543 19.499 24.603 19.35 24.71 L 17.51 25.85 L 3.72 34.17 C 3.363 34.375 3.061 34.663 2.84 35.01 L 2.64 35.32 L 37.12 35.32 L 36.93 35.01 C 36.713 34.663 36.415 34.375 36.06 34.17 L 21.73 25.56 L 20.35 24.68 C 20.21 24.59 20.047 24.542 19.88 24.54 L 19.86 24.54 Z M 37.3 15.74 C 36.721 15.915 36.181 16.2 35.71 16.58 L 25.21 25.25 L 29 27.56 L 36.48 31.97 L 37.1 32.31 L 37.54 32.55 L 37.54 15.66 L 37.3 15.74 Z M 2.41 15.8 L 2.41 32.37 L 2.94 32.08 L 3.47 31.78 L 14.82 25.09 L 4.26 16.4 C 4.194 16.345 4.124 16.295 4.05 16.25 C 3.6 16 3.15 15.77 2.73 15.58 L 2.46 15.49 L 2.41 15.8 Z M 19.88 22.53 C 20.422 22.531 20.955 22.669 21.43 22.93 L 23.43 24.16 L 23.54 24.05 L 31.54 17.44 L 31.54 8.01 L 8.69 8.01 L 8.69 17.41 L 16.42 23.8 L 16.53 23.92 L 16.74 23.92 L 17 23.8 L 18.34 22.95 C 18.806 22.668 19.336 22.507 19.88 22.48 L 19.88 22.53 Z M 6.21 11.57 C 4.86 12.52 4.49 12.8 4.31 12.95 L 4.05 13.17 L 4.37 13.29 C 4.814 13.447 5.227 13.68 5.59 13.98 L 6.53 14.75 L 6.53 11.35 L 6.21 11.57 Z M 33.66 14.8 L 34.59 14.03 C 34.958 13.738 35.37 13.505 35.81 13.34 L 36.14 13.22 L 35.88 13 C 35.7 12.85 35.34 12.58 33.98 11.62 L 33.66 11.4 L 33.66 14.8 Z M 20 2.61 C 19.327 2.607 18.669 2.805 18.11 3.18 L 14.19 5.91 L 26.08 5.91 L 21.94 3.18 C 21.367 2.796 20.69 2.597 20 2.61 Z" fill="currentColor" fill-rule="nonzero"/>
</svg>
