<svg xmlns="http://www.w3.org/2000/svg" width="39.983" height="31.820" viewBox="0 0 39.983 31.820" fill="none">
  <path d="M 0.135 26.36 C 0.072 26.262 0.03 26.152 0.011 26.036 C -0.008 25.921 -0.003 25.803 0.025 25.69 C 0.095 25.4 0.165 25.25 0.315 25.18 L 6.675 22.18 L 21.115 25.91 C 21.255 25.966 21.405 25.99 21.555 25.98 C 21.84 25.977 22.118 25.901 22.365 25.76 L 33.225 20.59 L 39.125 22.15 C 39.182 22.249 39.219 22.358 39.232 22.472 C 39.246 22.585 39.237 22.7 39.205 22.81 C 39.125 23.11 39.055 23.26 38.905 23.33 L 21.185 31.82 L 0.135 26.36 Z M 10.255 20.45 L 8.405 20.01 L 6.555 19.49 L 0.575 17.91 C 0.519 17.811 0.484 17.701 0.472 17.587 C 0.46 17.474 0.472 17.359 0.505 17.25 C 0.575 16.95 0.655 16.8 0.805 16.73 L 7.155 13.73 L 14.535 15.65 L 16.385 16.17 L 21.555 17.5 C 21.698 17.558 21.852 17.582 22.005 17.57 C 22.29 17.567 22.568 17.491 22.815 17.35 L 23.925 16.83 L 25.695 16.02 L 33.595 12.25 L 39.655 13.81 C 39.711 13.909 39.746 14.019 39.758 14.133 C 39.77 14.246 39.759 14.361 39.725 14.47 C 39.655 14.77 39.575 14.91 39.425 14.99 L 33.075 17.99 L 31.305 18.8 L 29.535 19.61 L 21.625 23.41 L 10.255 20.45 Z M 10.625 12.18 L 8.775 11.73 L 6.925 11.22 L 0.925 9.67 C 0.869 9.571 0.834 9.461 0.822 9.347 C 0.81 9.234 0.822 9.119 0.855 9.01 C 0.925 8.71 1.005 8.56 1.155 8.49 L 18.895 0 L 39.895 5.46 C 39.975 5.53 40.045 5.76 39.895 6.2 C 39.745 6.64 39.755 6.64 39.605 6.72 L 33.255 9.72 L 31.485 10.54 L 29.705 11.35 L 21.875 15.12 L 10.625 12.18 Z" fill="currentColor" fill-rule="nonzero"/>
</svg>
