<svg xmlns="http://www.w3.org/2000/svg" width="36.010" height="36" viewBox="0 0 36.010 36" fill="none">
  <path d="M 3.79 36 C 3.135 35.975 2.515 35.703 2.053 35.24 C 1.591 34.776 1.322 34.154 1.3 33.5 L 0.01 8.41 C -0.05 7.659 0.175 6.913 0.64 6.32 C 0.852 6.049 1.124 5.829 1.434 5.678 C 1.744 5.528 2.085 5.45 2.43 5.45 L 10.83 5.45 C 11.171 5.462 11.507 5.541 11.818 5.683 C 12.129 5.826 12.408 6.029 12.64 6.28 C 12.873 6.528 13.054 6.821 13.173 7.14 C 13.291 7.46 13.345 7.8 13.33 8.14 C 13.324 8.452 13.44 8.753 13.653 8.981 C 13.865 9.208 14.158 9.344 14.47 9.36 L 32.17 9.36 C 32.196 9.36 32.222 9.355 32.246 9.345 C 32.27 9.335 32.292 9.32 32.311 9.301 C 32.329 9.283 32.344 9.261 32.354 9.237 C 32.364 9.212 32.37 9.186 32.37 9.16 L 32.44 6.67 C 32.44 6.42 32.29 6.33 32.17 6.33 L 16.7 6.33 C 15.778 6.278 14.913 5.871 14.286 5.194 C 13.659 4.517 13.32 3.623 13.34 2.7 C 13.337 2.612 13.302 2.529 13.241 2.466 C 13.18 2.403 13.097 2.365 13.01 2.36 L 3.72 2.36 C 3.652 2.372 3.59 2.403 3.54 2.45 C 3.54 2.45 3.45 2.55 3.45 2.63 L 3.45 2.77 C 3.47 2.92 3.461 3.072 3.422 3.218 C 3.382 3.363 3.314 3.5 3.22 3.618 C 3.127 3.737 3.01 3.835 2.878 3.908 C 2.746 3.98 2.6 4.025 2.45 4.04 C 2.161 4.048 1.88 3.945 1.665 3.751 C 1.451 3.557 1.32 3.288 1.3 3 C 1.255 2.628 1.287 2.25 1.394 1.891 C 1.5 1.532 1.679 1.198 1.92 0.91 C 2.129 0.632 2.399 0.405 2.709 0.247 C 3.019 0.09 3.361 0.005 3.71 0 L 13.01 0 C 13.349 0.013 13.683 0.093 13.992 0.235 C 14.301 0.378 14.579 0.58 14.81 0.83 C 15.043 1.076 15.224 1.367 15.342 1.685 C 15.461 2.003 15.514 2.341 15.5 2.68 C 15.493 2.836 15.518 2.992 15.573 3.138 C 15.628 3.284 15.712 3.417 15.82 3.53 C 16.032 3.76 16.327 3.896 16.64 3.91 L 32.11 3.91 C 32.448 3.919 32.782 3.995 33.091 4.134 C 33.4 4.273 33.678 4.472 33.91 4.72 C 34.365 5.262 34.606 5.952 34.59 6.66 L 34.53 9.49 L 34.75 9.74 C 34.92 9.9 35.06 10.03 35.19 10.17 C 35.636 10.79 35.918 11.512 36.01 12.27 L 35.47 33.37 C 35.476 34.04 35.224 34.688 34.766 35.177 C 34.308 35.667 33.679 35.961 33.01 36 L 3.79 36 Z M 15.41 15.62 C 16.81 15.614 18.184 16.01 19.366 16.762 C 20.549 17.513 21.491 18.588 22.08 19.859 C 22.67 21.13 22.882 22.543 22.693 23.932 C 22.503 25.32 21.919 26.624 21.01 27.69 C 20.86 27.86 20.86 27.86 23.33 30.44 C 24.39 31.54 25.42 32.6 25.82 33.06 C 25.894 33.152 25.952 33.257 25.99 33.37 C 26.002 33.41 26.027 33.446 26.062 33.471 C 26.096 33.496 26.137 33.51 26.18 33.51 L 32.9 33.51 C 32.984 33.505 33.064 33.471 33.124 33.412 C 33.185 33.353 33.222 33.274 33.23 33.19 L 33.71 12.12 C 33.71 11.87 33.56 11.78 33.44 11.78 L 14.48 11.78 C 13.558 11.728 12.693 11.321 12.066 10.644 C 11.439 9.967 11.1 9.073 11.12 8.15 C 11.117 8.064 11.084 7.982 11.024 7.919 C 10.965 7.856 10.885 7.817 10.8 7.81 L 2.37 7.81 C 2.299 7.816 2.233 7.844 2.18 7.89 C 2.135 7.944 2.107 8.01 2.1 8.08 L 3.38 33.25 C 3.394 33.315 3.427 33.374 3.475 33.421 C 3.523 33.467 3.584 33.498 3.65 33.51 L 23.01 33.51 C 23.05 33.508 23.089 33.495 23.123 33.472 C 23.156 33.449 23.183 33.417 23.2 33.38 C 23.213 33.344 23.216 33.305 23.207 33.267 C 23.198 33.23 23.178 33.196 23.15 33.17 C 19.3 29.27 19.23 29.27 19.15 29.27 C 18.018 29.912 16.741 30.256 15.44 30.27 C 13.697 30.267 12.013 29.643 10.69 28.51 C 9.547 27.543 8.728 26.248 8.345 24.8 C 7.962 23.353 8.033 21.823 8.547 20.416 C 9.062 19.01 9.997 17.796 11.224 16.939 C 12.451 16.081 13.912 15.62 15.41 15.62 Z M 15.51 17.83 C 14.334 17.831 13.192 18.228 12.271 18.958 C 11.349 19.688 10.701 20.708 10.431 21.853 C 10.161 22.998 10.286 24.2 10.785 25.265 C 11.284 26.329 12.127 27.195 13.18 27.72 L 13.27 27.72 C 13.965 28.054 14.728 28.225 15.5 28.22 C 16.843 28.161 18.112 27.586 19.042 26.614 C 19.972 25.643 20.491 24.35 20.491 23.005 C 20.491 21.66 19.972 20.367 19.042 19.396 C 18.112 18.424 16.843 17.849 15.5 17.79 L 15.51 17.83 Z" fill="currentColor" fill-rule="nonzero"/>
</svg>
