<svg xmlns="http://www.w3.org/2000/svg" width="40" height="40" viewBox="0 0 40 40" fill="none">
  <path d="M 20 0 C 16.044 0 12.178 1.173 8.889 3.371 C 5.6 5.568 3.036 8.692 1.522 12.346 C 0.009 16.001 -0.387 20.022 0.384 23.902 C 1.156 27.781 3.061 31.345 5.858 34.142 C 8.655 36.939 12.219 38.844 16.098 39.616 C 19.978 40.387 23.999 39.991 27.654 38.478 C 31.308 36.964 34.432 34.4 36.629 31.111 C 38.827 27.822 40 23.956 40 20 C 40 17.374 39.483 14.773 38.478 12.346 C 37.473 9.92 35.999 7.715 34.142 5.858 C 32.285 4.001 30.08 2.528 27.654 1.522 C 25.227 0.517 22.626 0 20 0 Z M 15.53 27.62 C 15.53 27.789 15.497 27.956 15.432 28.112 C 15.367 28.268 15.271 28.41 15.152 28.529 C 15.032 28.648 14.889 28.742 14.733 28.805 C 14.576 28.869 14.409 28.901 14.24 28.9 C 13.907 28.887 13.591 28.745 13.36 28.505 C 13.129 28.264 13 27.944 13 27.61 L 13 12.39 C 13.002 12.045 13.138 11.715 13.38 11.47 C 13.561 11.29 13.791 11.167 14.042 11.118 C 14.293 11.069 14.552 11.096 14.788 11.194 C 15.023 11.293 15.224 11.459 15.365 11.672 C 15.506 11.885 15.581 12.135 15.58 12.39 L 15.53 27.62 Z M 27 28.85 C 27 28.945 26.972 29.038 26.919 29.117 C 26.867 29.196 26.792 29.258 26.704 29.295 C 26.616 29.331 26.519 29.341 26.426 29.322 C 26.333 29.303 26.247 29.257 26.18 29.19 L 17.33 20.34 C 17.244 20.248 17.197 20.126 17.197 20 C 17.197 19.874 17.244 19.752 17.33 19.66 L 26.18 10.81 C 26.247 10.743 26.333 10.697 26.426 10.678 C 26.519 10.659 26.616 10.669 26.704 10.705 C 26.792 10.742 26.867 10.804 26.919 10.883 C 26.972 10.962 27 11.055 27 11.15 L 27 28.85 Z" fill="currentColor" fill-rule="nonzero"/>
</svg>
