<svg xmlns="http://www.w3.org/2000/svg" width="40.274" height="26.190" viewBox="0 0 40.274 26.190" fill="none">
  <path d="M 30.227 22.435 C 30.484 22.416 30.744 22.451 30.987 22.536 C 31.231 22.622 31.455 22.757 31.645 22.933 C 31.834 23.109 31.985 23.322 32.088 23.559 C 32.191 23.795 32.244 24.051 32.244 24.31 C 32.244 24.568 32.191 24.824 32.088 25.061 C 31.985 25.297 31.834 25.511 31.645 25.687 C 31.455 25.863 31.231 25.998 30.987 26.084 C 30.744 26.17 30.484 26.204 30.227 26.185 L 2.017 26.185 C 1.759 26.203 1.5 26.17 1.257 26.084 C 1.013 25.998 0.789 25.863 0.6 25.687 C 0.411 25.511 0.259 25.297 0.156 25.061 C 0.053 24.824 0 24.568 0 24.31 C 0 24.051 0.053 23.795 0.156 23.559 C 0.259 23.322 0.41 23.109 0.6 22.933 C 0.789 22.757 1.013 22.622 1.257 22.536 C 1.5 22.451 1.759 22.416 2.017 22.435 L 30.227 22.435 Z M 23.547 11.215 C 24.045 11.215 24.523 11.413 24.876 11.766 C 25.228 12.118 25.427 12.596 25.427 13.095 C 25.427 13.593 25.229 14.072 24.876 14.425 C 24.523 14.777 24.045 14.975 23.547 14.975 L 2.017 14.975 C 1.518 14.975 1.04 14.777 0.688 14.425 C 0.335 14.072 0.137 13.593 0.137 13.095 C 0.137 12.596 0.335 12.118 0.688 11.766 C 1.04 11.413 1.518 11.215 2.017 11.215 L 23.547 11.215 Z M 38.257 0.005 C 38.515 -0.014 38.774 0.021 39.018 0.107 C 39.261 0.192 39.485 0.327 39.674 0.503 C 39.863 0.679 40.014 0.892 40.117 1.129 C 40.22 1.366 40.274 1.622 40.274 1.88 C 40.274 2.138 40.22 2.394 40.117 2.631 C 40.014 2.868 39.863 3.081 39.674 3.257 C 39.485 3.433 39.261 3.568 39.018 3.653 C 38.774 3.739 38.515 3.774 38.257 3.755 L 2.017 3.755 C 1.759 3.774 1.5 3.739 1.257 3.653 C 1.013 3.568 0.789 3.433 0.6 3.257 C 0.41 3.081 0.259 2.868 0.156 2.631 C 0.053 2.394 0 2.138 0 1.88 C 0 1.622 0.053 1.366 0.156 1.129 C 0.259 0.892 0.41 0.679 0.6 0.503 C 0.789 0.327 1.013 0.192 1.257 0.107 C 1.5 0.021 1.759 -0.014 2.017 0.005 L 38.257 0.005 Z" fill="currentColor" fill-rule="nonzero"/>
</svg>
