<svg xmlns="http://www.w3.org/2000/svg" width="40" height="40" viewBox="0 0 40 40" fill="none">
  <path d="M 20 40 C 23.956 40 27.822 38.827 31.111 36.629 C 34.4 34.432 36.964 31.308 38.478 27.654 C 39.991 23.999 40.387 19.978 39.616 16.098 C 38.844 12.219 36.939 8.655 34.142 5.858 C 31.345 3.061 27.781 1.156 23.902 0.384 C 20.022 -0.387 16.001 0.009 12.346 1.522 C 8.692 3.036 5.568 5.6 3.371 8.889 C 1.173 12.178 0 16.044 0 20 C 0 25.304 2.107 30.391 5.858 34.142 C 7.715 35.999 9.92 37.473 12.346 38.478 C 14.773 39.483 17.374 40 20 40 Z M 20 2.68 C 23.412 2.678 26.748 3.688 29.586 5.582 C 32.424 7.477 34.637 10.17 35.944 13.322 C 37.251 16.474 37.594 19.942 36.93 23.289 C 36.265 26.636 34.623 29.711 32.211 32.124 C 29.799 34.538 26.725 36.181 23.379 36.848 C 20.033 37.514 16.564 37.173 13.411 35.868 C 10.258 34.563 7.564 32.352 5.668 29.515 C 3.772 26.678 2.76 23.342 2.76 19.93 C 2.765 15.358 4.583 10.975 7.815 7.742 C 11.046 4.508 15.428 2.688 20 2.68 Z M 28 26.52 C 28.284 26.515 28.56 26.428 28.796 26.27 C 29.031 26.112 29.217 25.89 29.33 25.63 C 29.463 25.265 29.453 24.864 29.303 24.506 C 29.153 24.148 28.873 23.86 28.52 23.7 L 20.44 20.3 L 20.44 9 C 20.44 8.602 20.282 8.221 20.001 7.939 C 19.719 7.658 19.338 7.5 18.94 7.5 C 18.542 7.5 18.161 7.658 17.879 7.939 C 17.598 8.221 17.44 8.602 17.44 9 L 17.44 22.3 L 27.29 26.45 C 27.515 26.46 27.738 26.484 27.96 26.52 L 28 26.52 Z" fill="currentColor" fill-rule="nonzero"/>
</svg>
