<svg xmlns="http://www.w3.org/2000/svg" width="40" height="40" viewBox="0 0 40 40" fill="none">
  <path d="M 20 0 C 16.044 0 12.178 1.173 8.889 3.371 C 5.6 5.568 3.036 8.692 1.522 12.346 C 0.009 16.001 -0.387 20.022 0.384 23.902 C 1.156 27.781 3.061 31.345 5.858 34.142 C 8.655 36.939 12.219 38.844 16.098 39.616 C 19.978 40.387 23.999 39.991 27.654 38.478 C 31.308 36.964 34.432 34.4 36.629 31.111 C 38.827 27.822 40 23.956 40 20 C 40 14.696 37.893 9.609 34.142 5.858 C 30.391 2.107 25.304 0 20 0 Z M 24.56 16.81 C 24.435 16.919 24.29 17.003 24.133 17.056 C 23.976 17.109 23.81 17.13 23.645 17.119 C 23.48 17.108 23.318 17.064 23.17 16.991 C 23.021 16.917 22.889 16.815 22.78 16.69 L 21.23 14.84 L 21.23 23.12 C 21.23 23.454 21.097 23.775 20.861 24.011 C 20.625 24.247 20.304 24.38 19.97 24.38 C 19.636 24.38 19.315 24.247 19.079 24.011 C 18.843 23.775 18.71 23.454 18.71 23.12 L 18.71 14.88 L 17.3 16.66 C 17.082 16.867 16.797 16.991 16.497 17.008 C 16.196 17.025 15.9 16.935 15.66 16.753 C 15.419 16.572 15.251 16.311 15.186 16.018 C 15.12 15.724 15.16 15.417 15.3 15.15 L 15.3 15.1 L 18.93 10.59 C 18.93 10.51 19 10.51 19.08 10.44 C 19.183 10.337 19.31 10.261 19.45 10.22 L 19.52 10.22 C 19.758 10.125 20.022 10.125 20.26 10.22 L 20.34 10.22 C 20.542 10.297 20.721 10.425 20.86 10.59 L 24.71 15.03 C 24.819 15.155 24.903 15.3 24.956 15.457 C 25.009 15.614 25.03 15.78 25.019 15.945 C 25.008 16.11 24.964 16.272 24.891 16.42 C 24.817 16.569 24.715 16.701 24.59 16.81 L 24.56 16.81 Z M 27.7 27.33 C 27.692 27.662 27.557 27.978 27.323 28.213 C 27.088 28.447 26.772 28.582 26.44 28.59 L 13.58 28.59 C 13.246 28.59 12.925 28.457 12.689 28.221 C 12.453 27.985 12.32 27.664 12.32 27.33 C 12.32 26.996 12.453 26.675 12.689 26.439 C 12.925 26.203 13.246 26.07 13.58 26.07 L 26.47 26.07 C 26.788 26.056 27.098 26.168 27.334 26.382 C 27.57 26.595 27.712 26.893 27.73 27.21 L 27.7 27.33 Z" fill="currentColor" fill-rule="nonzero"/>
</svg>
