<svg xmlns="http://www.w3.org/2000/svg" width="40.000" height="40.000" viewBox="0 0 40.000 40.000" fill="none">
  <path d="M 20 0 C 22.626 0 25.226 0.517 27.653 1.522 C 30.079 2.528 32.285 4 34.142 5.857 C 35.999 7.715 37.472 9.92 38.477 12.347 C 39.482 14.773 40 17.374 40 20 C 40 23.956 38.827 27.822 36.629 31.111 C 34.432 34.4 31.307 36.964 27.653 38.478 C 23.999 39.991 19.978 40.387 16.098 39.615 C 12.219 38.844 8.654 36.94 5.857 34.143 C 3.06 31.346 1.156 27.781 0.384 23.901 C -0.387 20.022 0.008 16.001 1.522 12.347 C 3.036 8.692 5.599 5.569 8.888 3.371 C 12.177 1.173 16.044 0 20 0 Z M 22.531 7.963 C 21.384 7.425 20.108 7.226 18.851 7.387 C 17.595 7.548 16.409 8.064 15.435 8.874 C 14.461 9.684 13.738 10.754 13.35 11.96 C 12.962 13.166 12.925 14.458 13.245 15.684 C 13.564 16.909 14.226 18.019 15.153 18.883 C 16.08 19.746 17.235 20.328 18.48 20.56 L 18.48 31.56 C 18.48 31.894 18.612 32.215 18.848 32.451 C 19.084 32.687 19.406 32.82 19.74 32.82 C 20.074 32.82 20.394 32.687 20.63 32.451 C 20.867 32.215 21 31.894 21 31.56 L 21 30.44 L 22.799 30.44 C 22.974 30.456 23.149 30.435 23.315 30.379 C 23.481 30.323 23.633 30.233 23.762 30.115 C 23.891 29.997 23.994 29.853 24.065 29.693 C 24.136 29.533 24.171 29.359 24.171 29.185 C 24.171 29.01 24.135 28.837 24.065 28.677 C 23.994 28.517 23.891 28.373 23.762 28.255 C 23.633 28.137 23.481 28.047 23.315 27.991 C 23.149 27.935 22.974 27.914 22.799 27.93 L 21 27.93 L 21 26.67 L 23.849 26.67 C 24.183 26.67 24.504 26.537 24.741 26.301 C 24.977 26.065 25.11 25.744 25.11 25.41 C 25.11 25.076 24.977 24.756 24.741 24.52 C 24.504 24.283 24.183 24.15 23.849 24.15 L 21 24.15 L 21 20.59 C 22.514 20.273 23.874 19.446 24.852 18.246 C 25.83 17.046 26.366 15.548 26.37 14 C 26.369 12.733 26.007 11.493 25.328 10.424 C 24.648 9.355 23.678 8.501 22.531 7.963 Z M 19.7 9.85 C 20.8 9.85 21.856 10.287 22.634 11.065 C 23.413 11.844 23.849 12.899 23.849 14 C 23.848 14.545 23.74 15.084 23.53 15.587 C 23.32 16.09 23.013 16.547 22.627 16.932 C 22.24 17.316 21.783 17.621 21.279 17.828 C 20.775 18.035 20.235 18.141 19.69 18.14 C 18.592 18.14 17.539 17.704 16.762 16.928 C 15.986 16.151 15.549 15.098 15.549 14 C 15.549 12.899 15.987 11.844 16.765 11.065 C 17.543 10.287 18.599 9.85 19.7 9.85 Z" fill="currentColor" fill-rule="nonzero"/>
</svg>
