<svg xmlns="http://www.w3.org/2000/svg" width="34.858" height="39.941" viewBox="0 0 34.858 39.941" fill="none">
  <path d="M 34.829 24.221 C 34.777 23.906 34.603 23.624 34.345 23.436 C 34.086 23.249 33.764 23.172 33.449 23.221 C 33.381 23.235 33.314 23.255 33.249 23.281 L 28.079 24.971 L 20.139 19.971 L 28.079 15.021 L 33.249 16.641 C 33.314 16.667 33.381 16.687 33.449 16.701 C 33.764 16.75 34.086 16.672 34.345 16.485 C 34.603 16.297 34.777 16.016 34.829 15.701 C 34.9 15.337 34.839 14.961 34.655 14.639 C 34.471 14.318 34.178 14.073 33.829 13.951 L 31.139 13.111 L 34.079 11.281 C 34.362 11.062 34.554 10.746 34.617 10.394 C 34.68 10.043 34.61 9.68 34.421 9.377 C 34.231 9.073 33.935 8.852 33.591 8.754 C 33.247 8.657 32.879 8.691 32.559 8.851 L 29.559 10.741 L 30.019 7.971 C 30.079 7.603 30.003 7.226 29.807 6.91 C 29.61 6.594 29.305 6.359 28.949 6.251 L 28.739 6.251 C 28.429 6.213 28.116 6.295 27.864 6.481 C 27.613 6.667 27.443 6.943 27.389 7.251 L 26.389 12.751 L 18.859 17.441 L 18.859 8.521 L 22.999 4.771 C 23.236 4.562 23.384 4.27 23.412 3.956 C 23.44 3.641 23.346 3.328 23.149 3.081 C 23.149 3.031 23.049 2.971 22.999 2.931 C 22.72 2.693 22.366 2.562 21.999 2.562 C 21.632 2.562 21.278 2.693 20.999 2.931 L 18.859 4.851 L 18.859 1.271 C 18.817 0.92 18.649 0.598 18.385 0.364 C 18.122 0.129 17.782 0 17.429 0 C 17.076 0 16.736 0.129 16.473 0.364 C 16.209 0.598 16.04 0.92 15.999 1.271 L 15.999 4.741 L 13.859 2.901 C 13.573 2.671 13.216 2.551 12.85 2.56 C 12.484 2.569 12.133 2.707 11.859 2.951 C 11.628 3.166 11.49 3.462 11.473 3.777 C 11.457 4.093 11.562 4.402 11.769 4.641 C 11.814 4.695 11.864 4.746 11.919 4.791 L 16.029 8.321 L 16.029 17.391 L 8.429 12.701 L 7.429 7.201 C 7.375 6.893 7.205 6.617 6.954 6.431 C 6.702 6.245 6.389 6.163 6.079 6.201 L 5.869 6.201 C 5.51 6.318 5.207 6.563 5.017 6.89 C 4.827 7.216 4.764 7.601 4.839 7.971 L 5.349 10.781 L 2.349 8.891 C 2.029 8.731 1.661 8.697 1.317 8.794 C 0.973 8.892 0.677 9.113 0.487 9.417 C 0.298 9.72 0.228 10.083 0.291 10.434 C 0.354 10.786 0.546 11.102 0.829 11.321 L 3.769 13.151 L 1.049 13.971 C 0.7 14.093 0.407 14.338 0.223 14.659 C 0.039 14.981 -0.022 15.357 0.049 15.721 C 0.101 16.036 0.275 16.317 0.533 16.505 C 0.792 16.692 1.114 16.77 1.429 16.721 C 1.497 16.707 1.564 16.687 1.629 16.661 L 6.799 15.041 L 14.719 19.971 L 6.779 24.971 L 1.609 23.301 C 1.544 23.275 1.477 23.255 1.409 23.241 C 1.094 23.192 0.772 23.269 0.513 23.456 C 0.255 23.644 0.081 23.926 0.029 24.241 C -0.042 24.604 0.019 24.981 0.203 25.302 C 0.387 25.623 0.68 25.868 1.029 25.991 L 3.719 26.831 L 0.799 28.641 C 0.516 28.859 0.324 29.175 0.261 29.527 C 0.198 29.879 0.268 30.242 0.457 30.545 C 0.647 30.848 0.943 31.07 1.287 31.167 C 1.631 31.264 1.999 31.23 2.319 31.071 L 5.319 29.181 L 4.839 31.971 C 4.779 32.338 4.855 32.715 5.051 33.031 C 5.248 33.348 5.553 33.582 5.909 33.691 L 6.119 33.691 C 6.429 33.729 6.742 33.646 6.994 33.46 C 7.245 33.274 7.415 32.998 7.469 32.691 L 8.469 27.191 L 15.999 22.501 L 15.999 31.371 L 11.859 35.171 C 11.622 35.379 11.474 35.671 11.446 35.986 C 11.418 36.3 11.512 36.614 11.709 36.861 C 11.709 36.861 11.809 36.971 11.859 37.011 C 12.138 37.249 12.492 37.379 12.859 37.379 C 13.226 37.379 13.58 37.249 13.859 37.011 L 15.969 35.091 L 15.969 38.671 C 16.01 39.021 16.179 39.343 16.443 39.578 C 16.706 39.812 17.046 39.941 17.399 39.941 C 17.752 39.941 18.092 39.812 18.355 39.578 C 18.619 39.343 18.787 39.021 18.829 38.671 L 18.829 35.201 L 20.969 37.041 C 21.249 37.277 21.603 37.406 21.969 37.406 C 22.335 37.406 22.689 37.277 22.969 37.041 C 23.2 36.825 23.338 36.529 23.355 36.214 C 23.371 35.899 23.265 35.589 23.059 35.351 C 23.014 35.296 22.964 35.245 22.909 35.201 L 18.799 31.671 L 18.799 22.551 L 26.429 27.241 L 27.429 32.741 C 27.483 33.048 27.653 33.324 27.904 33.51 C 28.156 33.696 28.469 33.779 28.779 33.741 L 28.989 33.741 C 29.348 33.623 29.651 33.378 29.841 33.052 C 30.031 32.725 30.094 32.341 30.019 31.971 L 29.509 29.161 L 32.509 31.051 C 32.829 31.21 33.197 31.244 33.541 31.147 C 33.885 31.05 34.181 30.828 34.371 30.525 C 34.56 30.222 34.63 29.859 34.567 29.507 C 34.504 29.155 34.312 28.839 34.029 28.621 L 31.089 26.791 L 33.809 25.971 C 34.162 25.852 34.46 25.609 34.647 25.287 C 34.835 24.965 34.899 24.586 34.829 24.221 Z" fill="currentColor" fill-rule="nonzero"/>
</svg>
