<svg xmlns="http://www.w3.org/2000/svg" width="40" height="40" viewBox="0 0 40 40" fill="none">
  <path d="M 30.5 20 C 25.2 20 21 24.2 21 29.5 C 21 34.8 25.2 39 30.5 39 C 35.8 39 40 34.8 40 29.5 C 40 24.3 35.8 20 30.5 20 Z M 29.7 26.3 C 29.7 25.9 30.1 25.5 30.5 25.5 C 30.9 25.5 31.3 25.9 31.3 26.3 L 31.3 29.3 C 31.3 29.7 30.9 30.1 30.5 30.1 C 30 30.1 29.7 29.7 29.7 29.3 L 29.7 26.3 Z M 30.5 33.5 C 30 33.5 29.6 33.1 29.6 32.6 C 29.6 32.1 30 31.7 30.5 31.7 C 31 31.7 31.4 32.1 31.4 32.6 C 31.5 33.1 31.1 33.5 30.5 33.5 Z M 17.9 29.5 C 17.9 22.5 23.6 16.9 30.5 16.9 C 31 16.9 31.5 16.9 32 17 L 32 4.3 C 32 1.9 30.1 0 27.7 0 L 4.3 0 C 1.9 0 0 1.9 0 4.3 L 0 35.7 C 0 38 1.9 40 4.2 40 C 4.2 40 4.2 40 4.3 40 L 23.4 40 C 19.9 37.6 17.9 33.7 17.9 29.5 Z M 5.1 6.8 L 23.6 6.8 C 24.3 6.8 24.8 7.4 24.8 8 C 24.8 8.7 24.2 9.2 23.6 9.2 L 5.1 9.2 C 4.4 9.2 3.9 8.6 3.9 8 C 3.9 7.4 4.5 6.8 5.1 6.8 Z M 15.2 32.2 C 15.3 32.8 14.9 33.3 14.3 33.4 L 5.2 33.4 C 4.5 33.3 4 32.7 4 32 C 4.1 31.4 4.5 30.9 5.1 30.9 L 14 30.9 C 14.6 30.9 15.2 31.4 15.2 32 L 15.2 32.2 Z M 4 27.4 C 4 26.7 4.6 26.2 5.2 26.2 L 13.2 26.2 C 13.9 26.2 14.4 26.8 14.4 27.4 C 14.4 28.1 13.8 28.6 13.2 28.6 L 5.2 28.6 C 4.6 28.6 4 28 4 27.4 Z M 15.9 23.8 L 5.1 23.8 C 4.4 23.8 3.9 23.2 3.9 22.6 C 3.9 21.9 4.5 21.4 5.1 21.4 L 15.8 21.4 C 16.5 21.4 17 21.9 17 22.6 C 17.1 23.2 16.5 23.7 15.9 23.8 Z M 5.7 13.8 C 5 13.8 4.5 13.2 4.5 12.6 C 4.5 11.9 5.1 11.4 5.7 11.4 L 17.7 11.4 C 18.4 11.4 18.9 12 18.9 12.6 C 18.9 13.3 18.4 13.8 17.7 13.8 L 5.7 13.8 Z" fill="currentColor" fill-rule="nonzero"/>
</svg>
