<svg xmlns="http://www.w3.org/2000/svg" width="32.720" height="40" viewBox="0 0 32.720 40" fill="none">
  <path d="M 31.42 8.38 C 31.294 8.34 31.163 8.32 31.03 8.32 C 30.694 7.94 30.442 7.493 30.288 7.009 C 30.135 6.525 30.085 6.015 30.14 5.51 C 30.049 4.503 30.35 3.5 30.98 2.71 C 31.32 2.681 31.636 2.525 31.866 2.275 C 32.096 2.024 32.224 1.696 32.224 1.355 C 32.224 1.014 32.096 0.686 31.866 0.435 C 31.636 0.185 31.32 0.029 30.98 0 L 6.57 0 C 2.95 0 0 2.47 0 5.51 C -0.003 5.728 0.014 5.945 0.05 6.16 C 0.014 6.27 -0.003 6.385 0 6.5 L 0 34.1 C 0 35.665 0.622 37.165 1.728 38.272 C 2.835 39.378 4.336 40 5.9 40 L 32.72 40 L 32.72 9.74 C 32.723 9.389 32.589 9.05 32.346 8.796 C 32.104 8.542 31.771 8.393 31.42 8.38 Z M 15.63 28 C 15.49 28.154 15.321 28.279 15.132 28.368 C 14.944 28.457 14.739 28.507 14.531 28.516 C 14.323 28.526 14.115 28.494 13.919 28.422 C 13.723 28.351 13.544 28.241 13.39 28.1 L 10.91 25.75 L 8.48 28.07 C 8.182 28.348 7.788 28.502 7.38 28.5 C 6.961 28.5 6.559 28.334 6.263 28.037 C 5.967 27.741 5.8 27.339 5.8 26.92 L 5.8 11 L 8.51 11 L 8.51 24.31 L 9.82 23.06 C 10.114 22.788 10.5 22.637 10.9 22.637 C 11.301 22.637 11.687 22.788 11.98 23.06 L 13.36 24.32 L 13.27 11 L 15.97 11 L 16.05 26.88 C 16.062 27.294 15.911 27.696 15.63 28 Z M 6.63 8.3 C 4.53 8.3 2.76 7.02 2.76 5.5 C 2.76 3.98 4.48 2.7 6.57 2.7 L 27.9 2.7 C 27.789 2.999 27.702 3.307 27.64 3.62 L 12.09 3.62 C 11.904 3.6 11.714 3.619 11.535 3.675 C 11.356 3.732 11.19 3.825 11.049 3.948 C 10.907 4.072 10.793 4.224 10.713 4.394 C 10.633 4.564 10.59 4.749 10.585 4.937 C 10.58 5.125 10.614 5.312 10.685 5.486 C 10.756 5.66 10.862 5.817 10.997 5.948 C 11.132 6.079 11.293 6.181 11.469 6.246 C 11.645 6.312 11.833 6.341 12.02 6.33 L 27.48 6.33 C 27.534 7.012 27.675 7.684 27.9 8.33 L 6.63 8.3 Z" fill="currentColor" fill-rule="nonzero"/>
</svg>
