<svg xmlns="http://www.w3.org/2000/svg" width="39.283" height="40.000" viewBox="0 0 39.283 40.000" fill="none">
  <path d="M 37.8 10.93 C 37.401 10.585 36.938 10.322 36.436 10.157 C 35.935 9.992 35.407 9.927 34.881 9.967 C 34.354 10.007 33.841 10.151 33.371 10.39 C 32.901 10.629 32.482 10.959 32.14 11.36 L 32.14 11.41 L 30.91 12.85 L 30.69 13.11 L 21.93 23.27 L 21.86 23.37 C 21.657 23.558 21.532 23.815 21.51 24.09 L 20.93 30.72 L 27.35 29.08 C 27.383 29.086 27.417 29.086 27.45 29.08 L 27.56 29.08 L 27.69 29 L 27.75 29 C 27.811 28.956 27.868 28.905 27.92 28.85 L 37.66 17.48 L 38.23 16.82 C 38.599 16.41 38.882 15.93 39.061 15.408 C 39.24 14.886 39.312 14.334 39.272 13.783 C 39.231 13.233 39.08 12.697 38.827 12.206 C 38.575 11.716 38.225 11.282 37.8 10.93 Z M 26.46 27 L 23.46 27.77 L 23.73 24.63 L 32.36 14.56 L 33.74 15.74 L 35.11 16.92 L 26.46 27 Z M 36.55 15.23 L 35.55 14.38 L 33.78 12.87 L 33.83 12.82 C 33.981 12.643 34.165 12.496 34.372 12.39 C 34.58 12.284 34.806 12.22 35.038 12.201 C 35.271 12.182 35.504 12.21 35.726 12.282 C 35.948 12.354 36.153 12.469 36.33 12.62 C 36.701 12.94 36.932 13.392 36.973 13.88 C 37.014 14.368 36.862 14.853 36.55 15.23 Z M 6.55 33.73 L 15.75 33.73 C 16.44 33.73 16.81 33.17 16.81 32.48 C 16.811 32.317 16.78 32.155 16.718 32.004 C 16.656 31.853 16.565 31.716 16.45 31.6 C 16.334 31.485 16.197 31.394 16.046 31.332 C 15.895 31.27 15.733 31.239 15.57 31.24 L 6.57 31.24 C 6.397 31.225 6.223 31.245 6.058 31.301 C 5.894 31.356 5.743 31.446 5.615 31.563 C 5.487 31.68 5.384 31.822 5.314 31.981 C 5.244 32.14 5.208 32.312 5.208 32.485 C 5.208 32.659 5.244 32.83 5.314 32.989 C 5.384 33.148 5.487 33.291 5.615 33.408 C 5.743 33.525 5.894 33.614 6.058 33.67 C 6.223 33.725 6.397 33.746 6.57 33.73 L 6.55 33.73 Z M 6.55 28.84 L 14.76 28.84 C 15.092 28.84 15.409 28.708 15.644 28.474 C 15.878 28.24 16.01 27.922 16.01 27.59 C 16.01 27.259 15.878 26.941 15.644 26.706 C 15.409 26.472 15.092 26.34 14.76 26.34 L 6.53 26.34 C 6.198 26.34 5.881 26.472 5.646 26.706 C 5.412 26.941 5.28 27.259 5.28 27.59 C 5.28 27.922 5.412 28.24 5.646 28.474 C 5.881 28.708 6.198 28.84 6.53 28.84 L 6.55 28.84 Z M 30.72 29.74 C 30.553 29.738 30.388 29.768 30.233 29.83 C 30.079 29.893 29.938 29.985 29.82 30.103 C 29.701 30.22 29.608 30.36 29.544 30.514 C 29.481 30.668 29.449 30.833 29.45 31 L 29.45 35.76 C 29.447 36.223 29.262 36.665 28.934 36.991 C 28.606 37.317 28.162 37.5 27.7 37.5 L 4.29 37.5 C 3.826 37.5 3.381 37.316 3.053 36.988 C 2.724 36.659 2.54 36.214 2.54 35.75 L 2.54 4.25 C 2.54 3.786 2.724 3.341 3.053 3.013 C 3.381 2.685 3.826 2.5 4.29 2.5 L 27.7 2.5 C 28.164 2.5 28.609 2.685 28.937 3.013 C 29.266 3.341 29.45 3.786 29.45 4.25 L 29.45 6.39 C 29.45 6.722 29.582 7.04 29.816 7.274 C 30.051 7.508 30.368 7.64 30.7 7.64 C 31.032 7.64 31.349 7.508 31.584 7.274 C 31.818 7.04 31.95 6.722 31.95 6.39 L 31.95 4.25 C 31.95 3.123 31.502 2.042 30.705 1.245 C 29.908 0.448 28.827 0 27.7 0 L 4.29 0 C 3.729 -0.005 3.172 0.101 2.651 0.312 C 2.131 0.523 1.658 0.836 1.259 1.231 C 0.86 1.626 0.543 2.096 0.327 2.614 C 0.111 3.133 0 3.689 0 4.25 L 0 35.75 C 0 36.312 0.111 36.868 0.327 37.386 C 0.543 37.904 0.86 38.374 1.259 38.77 C 1.658 39.165 2.131 39.477 2.651 39.688 C 3.172 39.899 3.729 40.005 4.29 40 L 27.7 40 C 28.262 40.007 28.82 39.902 29.342 39.691 C 29.863 39.481 30.338 39.169 30.738 38.773 C 31.138 38.378 31.455 37.907 31.672 37.388 C 31.888 36.869 32 36.313 32 35.75 L 32 31 C 32.001 30.831 31.969 30.663 31.903 30.507 C 31.838 30.351 31.742 30.209 31.62 30.092 C 31.498 29.974 31.354 29.882 31.196 29.821 C 31.038 29.761 30.869 29.733 30.7 29.74 L 30.72 29.74 Z M 18.72 22.74 C 18.72 22.409 18.588 22.091 18.354 21.856 C 18.119 21.622 17.802 21.49 17.47 21.49 L 6.53 21.49 C 6.219 21.518 5.93 21.661 5.719 21.892 C 5.509 22.122 5.392 22.423 5.392 22.735 C 5.392 23.047 5.509 23.348 5.719 23.579 C 5.93 23.809 6.219 23.952 6.53 23.98 L 17.53 23.98 C 17.855 23.962 18.161 23.819 18.383 23.58 C 18.605 23.341 18.726 23.026 18.72 22.7 L 18.72 22.74 Z M 13.64 2.54 L 22.72 2.54 L 15.46 2.54 L 13.64 2.54 Z M 20.45 12.47 C 20.45 12.307 20.418 12.146 20.356 11.996 C 20.293 11.845 20.202 11.709 20.087 11.593 C 19.972 11.478 19.835 11.387 19.685 11.325 C 19.534 11.262 19.373 11.23 19.21 11.23 L 7 11.23 C 6.827 11.215 6.653 11.235 6.488 11.291 C 6.324 11.346 6.173 11.436 6.045 11.553 C 5.917 11.67 5.814 11.812 5.744 11.971 C 5.674 12.13 5.638 12.302 5.638 12.475 C 5.638 12.649 5.674 12.82 5.744 12.979 C 5.814 13.138 5.917 13.281 6.045 13.398 C 6.173 13.515 6.324 13.604 6.488 13.66 C 6.653 13.715 6.827 13.736 7 13.72 L 19.21 13.72 C 19.54 13.718 19.855 13.585 20.087 13.351 C 20.32 13.116 20.45 12.8 20.45 12.47 Z M 26.69 7.87 C 26.69 7.539 26.558 7.221 26.324 6.986 C 26.089 6.752 25.772 6.62 25.44 6.62 L 6.53 6.62 C 6.357 6.605 6.183 6.625 6.018 6.681 C 5.854 6.736 5.703 6.826 5.575 6.943 C 5.447 7.06 5.344 7.202 5.274 7.361 C 5.204 7.52 5.168 7.692 5.168 7.865 C 5.168 8.039 5.204 8.21 5.274 8.369 C 5.344 8.528 5.447 8.671 5.575 8.788 C 5.703 8.905 5.854 8.994 6.018 9.05 C 6.183 9.105 6.357 9.126 6.53 9.11 L 25.44 9.11 C 25.604 9.112 25.766 9.08 25.918 9.019 C 26.069 8.957 26.207 8.866 26.323 8.751 C 26.439 8.635 26.532 8.498 26.595 8.347 C 26.658 8.196 26.69 8.034 26.69 7.87 Z" fill="currentColor" fill-rule="nonzero"/>
</svg>
