<svg xmlns="http://www.w3.org/2000/svg" width="40.258" height="40.001" viewBox="0 0 40.258 40.001" fill="none">
  <path d="M 37.689 17.581 L 38.349 17.211 C 39.156 16.758 39.751 16.004 40.004 15.114 C 40.257 14.224 40.147 13.27 39.699 12.461 L 36.699 7.541 C 36.191 6.723 35.387 6.135 34.455 5.898 C 33.522 5.661 32.535 5.795 31.699 6.271 L 31.039 6.651 C 30.913 6.72 30.772 6.756 30.629 6.756 C 30.485 6.756 30.344 6.72 30.219 6.651 L 27.139 4.911 C 27.023 4.835 26.924 4.737 26.849 4.622 C 26.773 4.506 26.722 4.377 26.699 4.241 L 26.699 3.501 C 26.681 2.568 26.298 1.679 25.632 1.025 C 24.967 0.371 24.072 0.003 23.139 0.001 L 17.139 0.001 C 16.194 -0.016 15.281 0.344 14.6 1 C 13.92 1.656 13.527 2.555 13.509 3.501 L 13.509 4.241 C 13.51 4.383 13.469 4.523 13.391 4.642 C 13.312 4.762 13.2 4.855 13.069 4.911 L 9.959 6.631 C 9.833 6.7 9.692 6.736 9.549 6.736 C 9.405 6.736 9.264 6.7 9.139 6.631 L 8.479 6.251 C 7.641 5.785 6.656 5.657 5.727 5.893 C 4.797 6.129 3.993 6.711 3.479 7.521 L 0.479 12.441 C 0.251 12.838 0.104 13.277 0.047 13.731 C -0.011 14.185 0.023 14.647 0.144 15.088 C 0.266 15.53 0.474 15.943 0.756 16.304 C 1.039 16.665 1.39 16.966 1.789 17.191 L 2.449 17.561 C 2.566 17.635 2.667 17.733 2.744 17.848 C 2.822 17.963 2.874 18.094 2.899 18.231 L 2.899 21.731 C 2.901 21.875 2.859 22.016 2.778 22.136 C 2.698 22.255 2.583 22.348 2.449 22.401 L 1.789 22.771 C 0.982 23.223 0.386 23.977 0.133 24.867 C -0.12 25.757 -0.01 26.711 0.439 27.521 L 3.439 32.441 C 3.953 33.25 4.757 33.832 5.687 34.068 C 6.616 34.304 7.601 34.176 8.439 33.711 L 9.099 33.331 C 9.224 33.261 9.365 33.225 9.509 33.225 C 9.652 33.225 9.793 33.261 9.919 33.331 L 13.139 35.091 C 13.254 35.166 13.353 35.264 13.429 35.38 C 13.505 35.495 13.556 35.625 13.579 35.761 L 13.579 36.501 C 13.597 37.433 13.98 38.322 14.645 38.976 C 15.311 39.63 16.206 39.998 17.139 40.001 L 23.139 40.001 C 24.084 40.017 24.997 39.657 25.677 39.001 C 26.358 38.345 26.75 37.446 26.769 36.501 L 26.769 35.761 C 26.768 35.618 26.809 35.478 26.887 35.359 C 26.965 35.239 27.077 35.146 27.209 35.091 L 30.319 33.371 C 30.444 33.301 30.585 33.265 30.729 33.265 C 30.872 33.265 31.013 33.301 31.139 33.371 L 31.799 33.751 C 32.637 34.216 33.622 34.344 34.551 34.108 C 35.48 33.872 36.285 33.29 36.799 32.481 L 39.799 27.561 C 40.027 27.163 40.173 26.724 40.231 26.27 C 40.288 25.816 40.255 25.354 40.133 24.913 C 40.011 24.471 39.803 24.058 39.521 23.697 C 39.239 23.336 38.888 23.035 38.489 22.811 L 37.829 22.441 C 37.711 22.366 37.611 22.268 37.533 22.153 C 37.456 22.038 37.403 21.907 37.379 21.771 L 37.379 18.271 C 37.37 18.139 37.394 18.007 37.448 17.887 C 37.502 17.767 37.585 17.662 37.689 17.581 Z M 19.879 28.001 C 18.309 27.949 16.788 27.437 15.507 26.528 C 14.226 25.618 13.242 24.352 12.676 22.886 C 12.11 21.421 11.988 19.821 12.326 18.286 C 12.663 16.752 13.445 15.351 14.573 14.258 C 15.702 13.165 17.127 12.429 18.671 12.141 C 20.216 11.852 21.811 12.025 23.257 12.638 C 24.704 13.25 25.938 14.275 26.807 15.584 C 27.675 16.894 28.138 18.43 28.139 20.001 C 28.123 21.067 27.898 22.12 27.475 23.099 C 27.052 24.078 26.441 24.964 25.676 25.707 C 24.911 26.45 24.007 27.035 23.015 27.429 C 22.024 27.822 20.965 28.016 19.899 28.001 L 19.879 28.001 Z" fill="currentColor" fill-rule="nonzero"/>
</svg>
