<svg xmlns="http://www.w3.org/2000/svg" width="40.076" height="39.900" viewBox="0 0 40.076 39.900" fill="none">
  <path d="M 38.168 6.2 L 33.868 6.2 L 33.868 1.9 C 33.868 0.9 33.068 0 31.968 0 C 30.968 0 30.068 0.8 30.068 1.9 L 30.068 6.2 L 25.768 6.2 C 24.768 6.1 23.868 6.9 23.768 7.9 C 23.668 8.9 24.468 9.8 25.468 9.9 C 25.568 9.9 25.668 9.9 25.768 9.9 L 30.068 9.9 L 30.068 14.2 C 30.068 15.2 30.868 16.1 31.968 16.1 C 32.468 16.1 32.968 15.9 33.268 15.5 C 33.568 15.1 33.768 14.7 33.768 14.2 L 33.768 9.9 L 38.068 9.9 C 39.068 10 39.968 9.2 40.068 8.2 C 40.168 7.2 39.368 6.3 38.368 6.2 C 38.368 6.2 38.268 6.2 38.168 6.2 Z M 25.868 30.4 C 30.568 24.1 29.268 15.1 22.968 10.3 C 16.668 5.5 7.668 6.9 2.868 13.2 C -1.932 19.5 -0.532 28.6 5.768 33.3 C 10.868 37.1 17.968 37.1 23.068 33.2 L 29.168 39.3 C 29.968 40.1 31.268 40.1 31.968 39.3 C 32.668 38.5 32.768 37.2 31.968 36.5 L 25.868 30.4 Z M 14.468 32.1 C 8.768 32.2 4.068 27.5 4.068 21.8 C 4.068 16.1 8.668 11.5 14.368 11.5 C 20.068 11.5 24.668 16.1 24.668 21.8 C 24.768 27.5 20.168 32.1 14.468 32.1 Z" fill="currentColor" fill-rule="nonzero"/>
</svg>
