<svg xmlns="http://www.w3.org/2000/svg" width="40" height="40" viewBox="0 0 40 40" fill="none">
  <path d="M 20 0 C 16.044 0 12.178 1.173 8.889 3.371 C 5.6 5.568 3.036 8.692 1.522 12.346 C 0.009 16.001 -0.387 20.022 0.384 23.902 C 1.156 27.781 3.061 31.345 5.858 34.142 C 8.655 36.939 12.219 38.844 16.098 39.616 C 19.978 40.387 23.999 39.991 27.654 38.478 C 31.308 36.964 34.432 34.4 36.629 31.111 C 38.827 27.822 40 23.956 40 20 C 40 17.374 39.483 14.773 38.478 12.346 C 37.473 9.92 35.999 7.715 34.142 5.858 C 32.285 4.001 30.08 2.528 27.654 1.522 C 25.227 0.517 22.626 0 20 0 Z M 22.66 26.64 L 20.75 28.64 C 20.662 28.738 20.555 28.818 20.435 28.875 C 20.316 28.932 20.187 28.965 20.055 28.971 C 19.923 28.978 19.791 28.958 19.666 28.913 C 19.542 28.868 19.428 28.799 19.33 28.71 L 19.26 28.64 L 17.39 26.64 L 17.39 26.59 C 17.279 26.424 17.22 26.229 17.22 26.03 C 17.221 25.865 17.262 25.703 17.341 25.559 C 17.419 25.414 17.532 25.291 17.67 25.2 C 18.38 24.743 19.206 24.501 20.05 24.501 C 20.894 24.501 21.72 24.743 22.43 25.2 C 22.543 25.277 22.639 25.376 22.713 25.491 C 22.786 25.606 22.835 25.735 22.857 25.87 C 22.878 26.005 22.872 26.143 22.838 26.275 C 22.804 26.408 22.744 26.532 22.66 26.64 Z M 26.45 22.2 L 24.86 23.84 C 24.697 23.949 24.506 24.008 24.31 24.01 C 24.081 24.011 23.859 23.933 23.68 23.79 C 22.627 22.97 21.33 22.525 19.995 22.525 C 18.66 22.525 17.363 22.97 16.31 23.79 C 16.137 23.92 15.926 23.99 15.71 23.99 C 15.514 23.988 15.323 23.929 15.16 23.82 L 13.63 22.26 C 13.512 22.051 13.427 21.825 13.38 21.59 C 13.381 21.44 13.415 21.292 13.481 21.157 C 13.547 21.022 13.642 20.903 13.76 20.81 C 15.526 19.36 17.74 18.567 20.025 18.567 C 22.31 18.567 24.524 19.36 26.29 20.81 C 26.399 20.903 26.486 21.018 26.546 21.147 C 26.607 21.276 26.639 21.417 26.64 21.56 C 26.652 21.789 26.585 22.015 26.45 22.2 Z M 30.16 17.82 L 28.76 19.3 L 28.7 19.3 C 28.537 19.418 28.341 19.481 28.14 19.48 C 27.899 19.477 27.667 19.392 27.48 19.24 C 26.586 18.461 25.573 17.83 24.48 17.37 C 22.502 16.532 20.329 16.267 18.208 16.602 C 16.087 16.938 14.102 17.863 12.48 19.27 C 12.308 19.409 12.091 19.481 11.87 19.47 C 11.666 19.47 11.467 19.407 11.3 19.29 L 9.84 17.78 C 9.652 17.595 9.544 17.344 9.54 17.08 C 9.54 16.925 9.576 16.772 9.646 16.633 C 9.715 16.494 9.816 16.373 9.94 16.28 C 12.044 14.471 14.597 13.263 17.33 12.783 C 20.063 12.303 22.875 12.568 25.47 13.55 C 27.151 14.194 28.707 15.125 30.07 16.3 C 30.191 16.393 30.289 16.513 30.357 16.65 C 30.424 16.787 30.46 16.937 30.46 17.09 C 30.462 17.226 30.437 17.36 30.385 17.486 C 30.333 17.611 30.257 17.725 30.16 17.82 Z" fill="currentColor" fill-rule="nonzero"/>
</svg>
