<svg xmlns="http://www.w3.org/2000/svg" width="39.250" height="40" viewBox="0 0 39.250 40" fill="none">
  <path d="M 30.93 11.11 C 29.284 11.11 27.676 11.598 26.308 12.512 C 24.939 13.426 23.873 14.726 23.243 16.246 C 22.614 17.766 22.449 19.439 22.77 21.053 C 23.091 22.667 23.883 24.15 25.047 25.313 C 26.21 26.477 27.693 27.269 29.307 27.59 C 30.921 27.911 32.594 27.746 34.114 27.117 C 35.634 26.487 36.934 25.421 37.848 24.052 C 38.762 22.684 39.25 21.076 39.25 19.43 C 39.247 17.224 38.37 15.11 36.81 13.55 C 35.25 11.99 33.136 11.113 30.93 11.11 Z M 34.93 23 C 34.788 23.156 34.591 23.252 34.381 23.266 C 34.171 23.281 33.962 23.215 33.8 23.08 L 30.8 20.49 L 30.74 20.49 C 30.591 20.43 30.464 20.326 30.374 20.192 C 30.285 20.058 30.238 19.901 30.24 19.74 L 30.31 15.44 C 30.31 15.228 30.394 15.024 30.544 14.874 C 30.694 14.724 30.898 14.64 31.11 14.64 C 31.322 14.64 31.526 14.724 31.676 14.874 C 31.826 15.024 31.91 15.228 31.91 15.44 L 31.84 19.3 L 34.84 21.89 C 34.999 22.026 35.097 22.218 35.114 22.426 C 35.131 22.634 35.065 22.841 34.93 23 Z M 23.67 26.73 C 22.228 25.289 21.245 23.453 20.845 21.455 C 20.445 19.456 20.646 17.383 21.423 15.498 C 22.199 13.614 23.517 12.001 25.209 10.864 C 26.901 9.727 28.892 9.117 30.93 9.11 C 31.25 9.11 31.56 9.11 31.87 9.16 L 31.87 4.25 C 31.87 3.13 31.428 2.055 30.639 1.259 C 29.851 0.463 28.78 0.011 27.66 0 L 4.25 0 C 3.123 0 2.042 0.448 1.245 1.245 C 0.448 2.042 0 3.123 0 4.25 L 0 35.75 C 0 36.877 0.448 37.958 1.245 38.755 C 2.042 39.552 3.123 40 4.25 40 L 27.66 40 C 28.22 40.003 28.775 39.895 29.293 39.682 C 29.81 39.47 30.281 39.157 30.678 38.762 C 31.075 38.367 31.39 37.898 31.605 37.381 C 31.819 36.864 31.93 36.31 31.93 35.75 L 31.93 29.75 C 31.62 29.75 31.3 29.75 30.99 29.75 C 29.631 29.757 28.283 29.494 27.027 28.975 C 25.77 28.457 24.629 27.694 23.67 26.73 Z M 5.57 6.62 L 24.49 6.62 C 24.663 6.604 24.837 6.625 25.002 6.681 C 25.166 6.736 25.317 6.825 25.445 6.942 C 25.573 7.06 25.676 7.202 25.746 7.361 C 25.816 7.52 25.852 7.691 25.852 7.865 C 25.852 8.039 25.816 8.21 25.746 8.369 C 25.676 8.528 25.573 8.67 25.445 8.788 C 25.317 8.905 25.166 8.994 25.002 9.049 C 24.837 9.105 24.663 9.126 24.49 9.11 L 5.57 9.11 C 5.259 9.082 4.97 8.939 4.759 8.708 C 4.549 8.478 4.432 8.177 4.432 7.865 C 4.432 7.553 4.549 7.252 4.759 7.022 C 4.97 6.791 5.259 6.648 5.57 6.62 Z M 14.78 33.73 L 5.57 33.73 C 5.259 33.702 4.97 33.559 4.759 33.328 C 4.549 33.098 4.432 32.797 4.432 32.485 C 4.432 32.173 4.549 31.872 4.759 31.642 C 4.97 31.411 5.259 31.268 5.57 31.24 L 14.57 31.24 C 14.899 31.24 15.214 31.371 15.447 31.603 C 15.679 31.836 15.81 32.151 15.81 32.48 C 15.84 33.17 15.47 33.73 14.78 33.73 Z M 4.33 27.59 C 4.33 27.26 4.46 26.944 4.693 26.71 C 4.925 26.475 5.24 26.343 5.57 26.34 L 13.79 26.34 C 14.122 26.34 14.439 26.472 14.674 26.706 C 14.908 26.941 15.04 27.258 15.04 27.59 C 15.04 27.922 14.908 28.239 14.674 28.474 C 14.439 28.708 14.122 28.84 13.79 28.84 L 5.57 28.84 C 5.24 28.837 4.925 28.705 4.693 28.47 C 4.46 28.236 4.33 27.92 4.33 27.59 Z M 16.52 23.94 L 5.57 23.94 C 5.259 23.912 4.97 23.769 4.759 23.538 C 4.549 23.308 4.432 23.007 4.432 22.695 C 4.432 22.383 4.549 22.082 4.759 21.852 C 4.97 21.621 5.259 21.478 5.57 21.45 L 16.57 21.45 C 16.881 21.478 17.17 21.621 17.381 21.852 C 17.591 22.082 17.708 22.383 17.708 22.695 C 17.708 23.007 17.591 23.308 17.381 23.538 C 17.17 23.769 16.881 23.912 16.57 23.94 L 16.52 23.94 Z M 18.25 13.72 L 6.07 13.72 C 5.759 13.692 5.47 13.549 5.259 13.318 C 5.049 13.088 4.932 12.787 4.932 12.475 C 4.932 12.163 5.049 11.862 5.259 11.632 C 5.47 11.401 5.759 11.258 6.07 11.23 L 18.25 11.23 C 18.423 11.214 18.597 11.235 18.762 11.291 C 18.926 11.346 19.077 11.435 19.205 11.552 C 19.333 11.67 19.436 11.812 19.506 11.971 C 19.576 12.13 19.612 12.301 19.612 12.475 C 19.612 12.649 19.576 12.82 19.506 12.979 C 19.436 13.138 19.333 13.28 19.205 13.398 C 19.077 13.515 18.926 13.604 18.762 13.659 C 18.597 13.715 18.423 13.736 18.25 13.72 Z" fill="currentColor" fill-rule="nonzero"/>
</svg>
