<svg xmlns="http://www.w3.org/2000/svg" width="40.277" height="38.149" viewBox="0 0 40.277 38.149" fill="none">
  <path d="M 31.892 21.953 C 32.979 21.915 34.063 22.097 35.079 22.487 C 36.094 22.876 37.021 23.467 37.803 24.222 C 38.586 24.977 39.207 25.882 39.632 26.883 C 40.057 27.884 40.277 28.961 40.277 30.049 C 40.277 31.137 40.057 32.213 39.632 33.214 C 39.207 34.215 38.586 35.121 37.803 35.876 C 37.021 36.632 36.094 37.222 35.079 37.612 C 34.063 38.001 32.979 38.182 31.892 38.144 L 31.823 38.144 C 29.725 38.062 27.741 37.168 26.289 35.652 C 24.837 34.135 24.031 32.114 24.04 30.015 C 24.049 27.916 24.873 25.901 26.338 24.398 C 27.802 22.894 29.794 22.018 31.892 21.953 Z M 13.577 0.79 C 17.314 -0.323 21.302 -0.259 25.002 0.973 C 28.701 2.205 31.932 4.545 34.256 7.676 C 36.579 10.807 37.885 14.576 37.993 18.474 C 37.998 18.643 37.969 18.812 37.908 18.97 C 37.847 19.128 37.756 19.272 37.638 19.394 C 37.521 19.516 37.38 19.614 37.224 19.681 C 37.069 19.748 36.901 19.782 36.732 19.783 C 36.402 19.784 36.085 19.656 35.848 19.426 C 35.611 19.196 35.473 18.884 35.463 18.554 C 35.372 15.177 34.244 11.91 32.233 9.197 C 30.222 6.483 27.424 4.452 24.219 3.383 C 21.015 2.314 17.56 2.256 14.322 3.218 C 11.084 4.18 8.22 6.115 6.119 8.76 C 4.018 11.405 2.782 14.632 2.579 18.004 C 2.375 21.376 3.213 24.729 4.98 27.608 C 6.747 30.486 9.358 32.752 12.457 34.097 C 15.555 35.441 18.993 35.799 22.302 35.123 C 22.633 35.056 22.976 35.122 23.257 35.308 C 23.539 35.493 23.735 35.783 23.802 36.114 C 23.87 36.444 23.803 36.787 23.618 37.069 C 23.432 37.35 23.142 37.546 22.812 37.614 C 18.992 38.396 15.025 37.985 11.447 36.435 C 7.869 34.885 4.855 32.272 2.813 28.95 C 0.771 25.629 -0.199 21.759 0.034 17.867 C 0.266 13.975 1.69 10.248 4.113 7.194 C 6.536 4.139 9.84 1.903 13.577 0.79 Z M 31.84 31.97 C 31.683 32.002 31.539 32.08 31.426 32.195 C 31.314 32.309 31.237 32.454 31.207 32.612 C 31.177 32.769 31.195 32.933 31.257 33.08 C 31.32 33.228 31.425 33.355 31.559 33.443 C 31.692 33.529 31.847 33.573 32.005 33.573 C 32.108 33.572 32.21 33.553 32.305 33.515 C 32.405 33.475 32.496 33.415 32.572 33.34 C 32.648 33.265 32.708 33.175 32.75 33.076 C 32.791 32.978 32.812 32.871 32.812 32.764 C 32.812 32.603 32.765 32.446 32.675 32.313 C 32.586 32.179 32.459 32.076 32.31 32.015 C 32.162 31.954 31.998 31.938 31.84 31.97 Z M 32.012 27.054 C 31.918 27.054 31.824 27.072 31.737 27.109 C 31.65 27.145 31.57 27.198 31.504 27.265 C 31.437 27.332 31.383 27.411 31.347 27.498 C 31.311 27.586 31.293 27.679 31.293 27.774 L 31.293 30.344 C 31.293 30.535 31.369 30.718 31.504 30.853 C 31.639 30.988 31.821 31.064 32.012 31.064 C 32.203 31.064 32.386 30.988 32.521 30.853 C 32.656 30.718 32.732 30.535 32.732 30.344 L 32.732 27.774 C 32.732 27.679 32.714 27.586 32.677 27.498 C 32.641 27.411 32.588 27.332 32.521 27.265 C 32.454 27.198 32.375 27.145 32.288 27.109 C 32.2 27.072 32.107 27.054 32.012 27.054 Z M 18.637 7.54 C 18.978 7.54 19.306 7.668 19.557 7.899 C 19.808 8.129 19.964 8.444 19.993 8.783 L 19.993 19.064 L 26.623 21.913 C 25.741 22.45 24.951 23.126 24.283 23.913 L 17.283 20.913 L 17.283 8.783 C 17.312 8.444 17.467 8.129 17.717 7.899 C 17.968 7.668 18.297 7.54 18.637 7.54 Z" fill="currentColor" fill-rule="nonzero"/>
</svg>
