<svg xmlns="http://www.w3.org/2000/svg" width="31.560" height="36.010" viewBox="0 0 31.560 36.010" fill="none">
  <path d="M 27.69 14.14 L 27.31 14.14 L 27.31 11.53 C 27.31 8.472 26.095 5.539 23.933 3.377 C 21.771 1.215 18.838 0 15.78 0 C 12.722 0 9.789 1.215 7.627 3.377 C 5.465 5.539 4.25 8.472 4.25 11.53 L 4.25 14.14 L 3.87 14.14 C 2.844 14.14 1.859 14.548 1.133 15.273 C 0.408 15.999 0 16.984 0 18.01 L 0 32.13 C 0 33.157 0.407 34.143 1.133 34.87 C 1.858 35.597 2.843 36.007 3.87 36.01 L 27.69 36.01 C 28.717 36.007 29.702 35.597 30.427 34.87 C 31.153 34.143 31.56 33.157 31.56 32.13 L 31.56 18.01 C 31.56 16.984 31.152 15.999 30.427 15.273 C 29.701 14.548 28.716 14.14 27.69 14.14 Z M 8.05 11.53 C 8.05 9.48 8.864 7.514 10.314 6.064 C 11.764 4.614 13.73 3.8 15.78 3.8 C 17.83 3.8 19.796 4.614 21.246 6.064 C 22.696 7.514 23.51 9.48 23.51 11.53 L 23.51 14.14 L 8.05 14.14 L 8.05 11.53 Z" fill="currentColor" fill-rule="nonzero"/>
</svg>
