<svg xmlns="http://www.w3.org/2000/svg" width="40" height="40" viewBox="0 0 40 40" fill="none">
  <path d="M 20 0 C 16.044 0 12.178 1.173 8.889 3.371 C 5.6 5.568 3.036 8.692 1.522 12.346 C 0.009 16.001 -0.387 20.022 0.384 23.902 C 1.156 27.781 3.061 31.345 5.858 34.142 C 8.655 36.939 12.219 38.844 16.098 39.616 C 19.978 40.387 23.999 39.991 27.654 38.478 C 31.308 36.964 34.432 34.4 36.629 31.111 C 38.827 27.822 40 23.956 40 20 C 40 17.374 39.483 14.773 38.478 12.346 C 37.473 9.92 35.999 7.715 34.142 5.858 C 32.285 4.001 30.08 2.528 27.654 1.522 C 25.227 0.517 22.626 0 20 0 Z M 20 26.12 C 18.79 26.12 17.606 25.761 16.6 25.089 C 15.593 24.416 14.809 23.46 14.346 22.342 C 13.883 21.224 13.761 19.993 13.998 18.806 C 14.234 17.619 14.817 16.528 15.673 15.673 C 16.528 14.817 17.619 14.234 18.806 13.998 C 19.993 13.761 21.224 13.883 22.342 14.346 C 23.46 14.809 24.416 15.593 25.089 16.6 C 25.761 17.606 26.12 18.79 26.12 20 C 26.12 21.623 25.475 23.18 24.328 24.327 C 23.18 25.475 21.623 26.12 20 26.12 Z" fill="currentColor" fill-rule="nonzero"/>
</svg>
