<svg xmlns="http://www.w3.org/2000/svg" width="40.043" height="32.580" viewBox="0 0 40.043 32.580" fill="none">
  <path d="M 40.043 4.64 C 40.043 3.41 39.554 2.229 38.684 1.359 C 37.814 0.489 36.633 0 35.403 0 L 4.683 0 C 3.532 -0.01 2.418 0.407 1.558 1.172 C 0.697 1.936 0.152 2.993 0.027 4.138 C -0.097 5.282 0.208 6.431 0.883 7.363 C 1.559 8.295 2.557 8.943 3.683 9.18 C 3.678 9.223 3.678 9.267 3.683 9.31 L 3.683 27.51 C 3.664 28.833 4.17 30.109 5.091 31.059 C 6.011 32.01 7.27 32.557 8.593 32.58 L 31.473 32.58 C 32.795 32.557 34.055 32.01 34.975 31.059 C 35.895 30.109 36.402 28.833 36.383 27.51 L 36.383 9.29 C 36.387 9.247 36.387 9.203 36.383 9.16 C 37.418 8.938 38.345 8.369 39.011 7.547 C 39.677 6.724 40.041 5.698 40.043 4.64 Z M 24.523 16.77 L 15.523 16.77 C 14.839 16.77 14.182 16.498 13.698 16.015 C 13.215 15.531 12.943 14.874 12.943 14.19 C 12.943 13.506 13.215 12.85 13.698 12.366 C 14.182 11.882 14.839 11.61 15.523 11.61 L 24.523 11.61 C 25.207 11.61 25.863 11.882 26.347 12.366 C 26.831 12.85 27.103 13.506 27.103 14.19 C 27.103 14.874 26.831 15.531 26.347 16.015 C 25.863 16.498 25.207 16.77 24.523 16.77 Z" fill="currentColor" fill-rule="nonzero"/>
</svg>
