<svg xmlns="http://www.w3.org/2000/svg" width="39.794" height="36.820" viewBox="0 0 39.794 36.820" fill="none">
  <path d="M 25.037 20.83 C 25.205 20.83 25.371 20.863 25.525 20.928 C 25.68 20.992 25.82 21.086 25.938 21.205 C 26.057 21.324 26.15 21.466 26.213 21.621 C 26.276 21.776 26.308 21.943 26.307 22.11 L 26.307 30.41 C 26.307 32.11 25.632 33.74 24.43 34.942 C 23.228 36.144 21.597 36.82 19.896 36.82 C 18.197 36.82 16.566 36.144 15.364 34.942 C 14.162 33.74 13.487 32.11 13.487 30.41 L 13.487 23.62 C 13.516 23.302 13.662 23.005 13.897 22.789 C 14.133 22.573 14.442 22.453 14.762 22.453 C 15.082 22.453 15.39 22.573 15.626 22.789 C 15.862 23.005 16.009 23.301 16.037 23.62 L 16.037 30.41 C 16.088 31.401 16.517 32.335 17.236 33.019 C 17.956 33.702 18.91 34.083 19.902 34.083 C 20.895 34.083 21.849 33.702 22.568 33.019 C 23.288 32.335 23.716 31.401 23.767 30.41 L 23.767 22.1 C 23.767 21.763 23.901 21.44 24.139 21.202 C 24.377 20.964 24.7 20.83 25.037 20.83 Z M 31.107 21.35 C 31.275 21.35 31.44 21.385 31.595 21.45 C 31.749 21.515 31.889 21.611 32.007 21.73 L 37.367 27.09 C 37.492 27.206 37.592 27.346 37.662 27.501 C 37.732 27.656 37.769 27.825 37.772 27.995 C 37.776 28.165 37.745 28.335 37.682 28.493 C 37.618 28.651 37.523 28.795 37.403 28.916 C 37.283 29.037 37.14 29.132 36.982 29.196 C 36.825 29.261 36.655 29.292 36.484 29.29 C 36.314 29.288 36.146 29.251 35.99 29.183 C 35.834 29.114 35.694 29.014 35.577 28.89 L 30.207 23.53 C 30.03 23.351 29.91 23.124 29.861 22.877 C 29.813 22.63 29.838 22.374 29.934 22.142 C 30.03 21.909 30.193 21.71 30.401 21.569 C 30.61 21.429 30.856 21.352 31.107 21.35 Z M 8.687 21.35 C 9.025 21.352 9.349 21.49 9.587 21.73 C 9.705 21.848 9.799 21.988 9.863 22.143 C 9.927 22.297 9.961 22.463 9.961 22.63 C 9.961 22.797 9.927 22.963 9.863 23.117 C 9.799 23.272 9.705 23.412 9.587 23.53 L 4.227 28.89 C 4.108 29.008 3.969 29.102 3.814 29.166 C 3.66 29.23 3.494 29.263 3.327 29.263 C 2.99 29.263 2.665 29.128 2.427 28.89 C 2.309 28.772 2.215 28.632 2.151 28.478 C 2.087 28.323 2.055 28.157 2.055 27.99 C 2.055 27.823 2.087 27.657 2.151 27.503 C 2.215 27.349 2.309 27.208 2.427 27.09 L 7.787 21.73 C 7.905 21.611 8.045 21.515 8.199 21.45 C 8.354 21.385 8.519 21.35 8.687 21.35 Z M 38.627 17.14 C 38.946 17.168 39.242 17.315 39.458 17.551 C 39.674 17.787 39.794 18.095 39.794 18.415 C 39.794 18.735 39.674 19.043 39.458 19.279 C 39.242 19.515 38.946 19.662 38.627 19.69 L 31.037 19.69 C 30.719 19.662 30.422 19.515 30.206 19.279 C 29.99 19.043 29.87 18.735 29.87 18.415 C 29.87 18.095 29.99 17.787 30.206 17.551 C 30.422 17.315 30.719 17.168 31.037 17.14 L 38.627 17.14 Z M 8.757 17.13 C 9.075 17.158 9.372 17.305 9.588 17.541 C 9.804 17.777 9.924 18.085 9.924 18.405 C 9.924 18.725 9.804 19.034 9.588 19.27 C 9.372 19.505 9.075 19.651 8.757 19.68 L 1.167 19.68 C 0.848 19.651 0.552 19.505 0.336 19.27 C 0.12 19.034 0 18.725 0 18.405 C 0 18.085 0.12 17.777 0.336 17.541 C 0.552 17.305 0.848 17.158 1.167 17.13 L 8.757 17.13 Z M 26.377 17.13 C 26.696 17.158 26.992 17.305 27.208 17.541 C 27.424 17.777 27.544 18.085 27.544 18.405 C 27.544 18.725 27.424 19.034 27.208 19.27 C 26.992 19.505 26.695 19.651 26.377 19.68 L 13.377 19.68 C 13.058 19.651 12.762 19.505 12.546 19.27 C 12.33 19.034 12.21 18.725 12.21 18.405 C 12.21 18.085 12.33 17.777 12.546 17.541 C 12.762 17.305 13.058 17.158 13.377 17.13 L 26.377 17.13 Z M 19.897 0 C 21.597 0 23.228 0.676 24.43 1.878 C 25.632 3.08 26.307 4.71 26.307 6.41 L 26.307 13.19 C 26.278 13.509 26.132 13.806 25.896 14.021 C 25.661 14.237 25.352 14.357 25.032 14.357 C 24.712 14.357 24.404 14.237 24.168 14.021 C 23.932 13.806 23.785 13.509 23.757 13.19 L 23.757 6.41 C 23.706 5.419 23.277 4.485 22.558 3.802 C 21.838 3.118 20.884 2.736 19.892 2.736 C 18.899 2.736 17.945 3.118 17.226 3.802 C 16.506 4.485 16.078 5.419 16.027 6.41 L 16.027 14.72 C 16.027 15.057 15.893 15.38 15.655 15.618 C 15.417 15.856 15.094 15.99 14.757 15.99 C 14.589 15.99 14.423 15.957 14.269 15.893 C 14.114 15.828 13.974 15.733 13.855 15.614 C 13.738 15.495 13.644 15.354 13.581 15.199 C 13.518 15.044 13.486 14.878 13.487 14.71 L 13.487 6.41 C 13.487 4.71 14.162 3.08 15.364 1.878 C 16.566 0.676 18.197 0 19.897 0 Z M 3.327 7.591 C 3.656 7.584 3.976 7.706 4.217 7.93 L 9.587 13.29 C 9.764 13.469 9.884 13.696 9.933 13.943 C 9.981 14.19 9.956 14.446 9.86 14.679 C 9.764 14.911 9.601 15.11 9.393 15.251 C 9.184 15.392 8.938 15.468 8.687 15.47 C 8.519 15.469 8.353 15.435 8.199 15.37 C 8.045 15.305 7.905 15.209 7.787 15.09 L 2.427 9.73 C 2.201 9.491 2.078 9.172 2.083 8.843 C 2.088 8.513 2.22 8.198 2.452 7.965 C 2.684 7.731 2.998 7.597 3.327 7.591 Z M 36.467 7.558 C 36.634 7.558 36.8 7.59 36.954 7.654 C 37.108 7.718 37.249 7.812 37.367 7.93 C 37.485 8.048 37.579 8.188 37.643 8.343 C 37.707 8.497 37.74 8.663 37.74 8.83 C 37.74 8.997 37.707 9.163 37.643 9.317 C 37.579 9.472 37.485 9.612 37.367 9.73 L 32.007 15.09 C 31.889 15.209 31.749 15.305 31.595 15.37 C 31.44 15.435 31.275 15.469 31.107 15.47 C 30.769 15.467 30.445 15.331 30.207 15.09 C 30.089 14.972 29.995 14.832 29.931 14.678 C 29.867 14.523 29.833 14.358 29.833 14.19 C 29.833 14.023 29.867 13.858 29.931 13.703 C 29.995 13.549 30.089 13.408 30.207 13.29 L 35.567 7.93 C 35.685 7.812 35.825 7.718 35.979 7.654 C 36.134 7.59 36.3 7.558 36.467 7.558 Z" fill="currentColor" fill-rule="nonzero"/>
</svg>
