<svg xmlns="http://www.w3.org/2000/svg" width="40" height="8" viewBox="0 0 40 8" fill="none">
  <path d="M 4 0 C 3.209 0 2.436 0.235 1.778 0.674 C 1.12 1.114 0.607 1.738 0.304 2.469 C 0.002 3.2 -0.077 4.004 0.077 4.78 C 0.231 5.556 0.612 6.269 1.172 6.828 C 1.731 7.388 2.444 7.769 3.22 7.923 C 3.996 8.077 4.8 7.998 5.531 7.696 C 6.262 7.393 6.886 6.88 7.326 6.222 C 7.765 5.564 8 4.791 8 4 C 8 2.939 7.579 1.922 6.828 1.172 C 6.078 0.421 5.061 0 4 0 Z M 36 0 C 35.209 0 34.436 0.235 33.778 0.674 C 33.12 1.114 32.607 1.738 32.304 2.469 C 32.002 3.2 31.923 4.004 32.077 4.78 C 32.231 5.556 32.612 6.269 33.172 6.828 C 33.731 7.388 34.444 7.769 35.22 7.923 C 35.996 8.077 36.8 7.998 37.531 7.696 C 38.262 7.393 38.886 6.88 39.326 6.222 C 39.765 5.564 40 4.791 40 4 C 40 2.939 39.579 1.922 38.828 1.172 C 38.078 0.421 37.061 0 36 0 Z M 20 0 C 19.209 0 18.436 0.235 17.778 0.674 C 17.12 1.114 16.607 1.738 16.304 2.469 C 16.002 3.2 15.923 4.004 16.077 4.78 C 16.231 5.556 16.612 6.269 17.172 6.828 C 17.731 7.388 18.444 7.769 19.22 7.923 C 19.996 8.077 20.8 7.998 21.531 7.696 C 22.262 7.393 22.886 6.88 23.326 6.222 C 23.765 5.564 24 4.791 24 4 C 24 2.939 23.579 1.922 22.828 1.172 C 22.078 0.421 21.061 0 20 0 Z" fill="currentColor" fill-rule="nonzero"/>
</svg>
