<svg xmlns="http://www.w3.org/2000/svg" width="39.993" height="40" viewBox="0 0 39.993 40" fill="none">
  <path d="M 39.971 18.92 C 39.76 15.017 38.41 11.262 36.088 8.118 C 33.766 4.974 30.574 2.58 26.906 1.23 C 23.238 -0.119 19.255 -0.365 15.449 0.525 C 11.643 1.414 8.181 3.399 5.491 6.234 C 2.801 9.07 1.001 12.631 0.312 16.478 C -0.376 20.326 0.078 24.29 1.619 27.882 C 3.159 31.474 5.718 34.536 8.98 36.69 C 12.241 38.844 16.062 39.994 19.971 40 C 22.685 39.985 25.369 39.422 27.86 38.344 C 30.351 37.266 32.598 35.695 34.467 33.725 C 36.335 31.756 37.786 29.429 38.731 26.885 C 39.677 24.341 40.099 21.631 39.971 18.92 Z M 20.411 27.81 L 20.411 29.66 C 20.411 29.875 20.325 30.081 20.174 30.233 C 20.022 30.385 19.816 30.47 19.601 30.47 C 19.386 30.47 19.18 30.385 19.028 30.233 C 18.876 30.081 18.791 29.875 18.791 29.66 L 18.791 27.88 C 17.674 27.866 16.571 27.625 15.551 27.17 C 15.334 27.075 15.161 26.902 15.067 26.685 C 14.972 26.468 14.963 26.223 15.041 26 C 15.081 25.878 15.147 25.765 15.234 25.67 C 15.32 25.575 15.426 25.5 15.544 25.449 C 15.663 25.398 15.79 25.372 15.919 25.374 C 16.047 25.376 16.174 25.405 16.291 25.46 C 17.196 25.859 18.172 26.073 19.161 26.09 C 21.011 26.09 22.271 25.09 22.271 23.57 C 22.271 22.05 21.271 21.27 19.271 20.46 C 16.601 19.46 14.971 18.23 14.971 15.94 C 14.994 14.872 15.419 13.852 16.16 13.083 C 16.901 12.314 17.905 11.853 18.971 11.79 L 18.971 10 C 18.973 9.784 19.061 9.578 19.215 9.427 C 19.368 9.275 19.575 9.19 19.791 9.19 C 20.006 9.19 20.212 9.275 20.364 9.427 C 20.515 9.579 20.601 9.785 20.601 10 L 20.601 11.71 C 21.48 11.725 22.35 11.895 23.171 12.21 C 23.398 12.301 23.581 12.478 23.68 12.702 C 23.779 12.926 23.786 13.18 23.701 13.41 C 23.656 13.521 23.589 13.622 23.505 13.707 C 23.42 13.792 23.32 13.86 23.209 13.905 C 23.098 13.951 22.979 13.974 22.859 13.973 C 22.739 13.972 22.621 13.947 22.511 13.9 C 21.739 13.588 20.914 13.428 20.081 13.43 C 18.081 13.43 17.341 14.61 17.341 15.65 C 17.341 16.98 18.341 17.65 20.531 18.65 C 23.191 19.76 24.531 21.1 24.531 23.39 C 24.513 24.506 24.081 25.576 23.32 26.392 C 22.559 27.208 21.523 27.714 20.411 27.81 Z" fill="currentColor" fill-rule="nonzero"/>
</svg>
