<svg xmlns="http://www.w3.org/2000/svg" width="40" height="40" viewBox="0 0 40 40" fill="none">
  <path d="M 20 40 C 25.304 40 30.391 37.893 34.142 34.142 C 37.893 30.391 40 25.304 40 20 C 40 16.044 38.827 12.178 36.629 8.889 C 34.432 5.6 31.308 3.036 27.654 1.522 C 23.999 0.009 19.978 -0.387 16.098 0.384 C 12.219 1.156 8.655 3.061 5.858 5.858 C 3.061 8.655 1.156 12.219 0.384 16.098 C -0.387 19.978 0.009 23.999 1.522 27.654 C 3.036 31.308 5.6 34.432 8.889 36.629 C 12.178 38.827 16.044 40 20 40 Z M 20 2.52 C 23.457 2.52 26.837 3.545 29.711 5.466 C 32.586 7.387 34.826 10.117 36.149 13.311 C 37.472 16.505 37.819 20.019 37.144 23.41 C 36.47 26.801 34.805 29.916 32.36 32.36 C 29.916 34.805 26.801 36.47 23.41 37.144 C 20.019 37.819 16.505 37.472 13.311 36.149 C 10.117 34.826 7.387 32.586 5.466 29.711 C 3.545 26.837 2.52 23.457 2.52 20 C 2.528 15.366 4.372 10.925 7.649 7.649 C 10.925 4.372 15.366 2.528 20 2.52 Z M 20 9.93 C 20.25 9.929 20.499 9.977 20.73 10.072 C 20.962 10.167 21.172 10.306 21.35 10.483 C 21.527 10.66 21.668 10.869 21.764 11.101 C 21.861 11.332 21.91 11.58 21.91 11.83 L 21.91 21.48 C 21.911 21.731 21.863 21.98 21.767 22.212 C 21.672 22.445 21.531 22.656 21.354 22.834 C 21.176 23.011 20.965 23.152 20.733 23.247 C 20.5 23.343 20.251 23.391 20 23.39 C 19.493 23.39 19.008 23.189 18.649 22.831 C 18.291 22.472 18.09 21.987 18.09 21.48 L 18.09 11.83 C 18.093 11.325 18.295 10.842 18.653 10.486 C 19.011 10.13 19.495 9.93 20 9.93 Z M 22.16 27.58 C 22.157 28.154 21.93 28.704 21.526 29.112 C 21.122 29.519 20.574 29.752 20 29.76 C 19.424 29.757 18.872 29.527 18.465 29.118 C 18.058 28.709 17.83 28.156 17.83 27.58 C 17.83 27.004 18.059 26.453 18.466 26.046 C 18.873 25.639 19.424 25.41 20 25.41 C 20.576 25.41 21.129 25.638 21.538 26.045 C 21.947 26.452 22.177 27.004 22.18 27.58 L 22.16 27.58 Z" fill="currentColor" fill-rule="nonzero"/>
</svg>
