<svg xmlns="http://www.w3.org/2000/svg" width="40" height="40" viewBox="0 0 40 40" fill="none">
  <path d="M 20 0 C 16.044 0 12.178 1.173 8.889 3.371 C 5.6 5.568 3.036 8.692 1.522 12.346 C 0.009 16.001 -0.387 20.022 0.384 23.902 C 1.156 27.781 3.061 31.345 5.858 34.142 C 8.655 36.939 12.219 38.844 16.098 39.616 C 19.978 40.387 23.999 39.991 27.654 38.478 C 31.308 36.964 34.432 34.4 36.629 31.111 C 38.827 27.822 40 23.956 40 20 C 40 17.374 39.483 14.773 38.478 12.346 C 37.473 9.92 35.999 7.715 34.142 5.858 C 32.285 4.001 30.08 2.528 27.654 1.522 C 25.227 0.517 22.626 0 20 0 Z M 26.15 20.35 L 17.31 29.2 C 17.242 29.266 17.155 29.311 17.062 29.329 C 16.969 29.346 16.872 29.337 16.784 29.301 C 16.696 29.265 16.621 29.204 16.567 29.126 C 16.513 29.047 16.482 28.955 16.48 28.86 L 16.48 11.16 C 16.482 11.065 16.513 10.973 16.567 10.894 C 16.621 10.816 16.696 10.755 16.784 10.719 C 16.872 10.683 16.969 10.674 17.062 10.691 C 17.155 10.709 17.242 10.754 17.31 10.82 L 26.15 19.67 C 26.195 19.715 26.23 19.768 26.254 19.826 C 26.279 19.884 26.291 19.947 26.291 20.01 C 26.291 20.073 26.279 20.136 26.254 20.194 C 26.23 20.252 26.195 20.305 26.15 20.35 Z" fill="currentColor" fill-rule="nonzero"/>
</svg>
