<svg xmlns="http://www.w3.org/2000/svg" width="40" height="40" viewBox="0 0 40 40" fill="none">
  <path d="M 0 20 C 0 16.044 1.173 12.178 3.371 8.889 C 5.568 5.6 8.692 3.036 12.346 1.522 C 16.001 0.009 20.022 -0.387 23.902 0.384 C 27.781 1.156 31.345 3.061 34.142 5.858 C 36.939 8.655 38.844 12.219 39.616 16.098 C 40.387 19.978 39.991 23.999 38.478 27.654 C 36.964 31.308 34.4 34.432 31.111 36.629 C 27.822 38.827 23.956 40 20 40 C 17.374 40 14.773 39.483 12.346 38.478 C 9.92 37.473 7.715 35.999 5.858 34.142 C 2.107 30.391 0 25.304 0 20 Z M 2.52 20 C 2.52 24.641 4.364 29.092 7.646 32.374 C 10.928 35.656 15.379 37.5 20.02 37.5 C 24.661 37.5 29.112 35.656 32.394 32.374 C 35.676 29.092 37.52 24.641 37.52 20 C 37.52 17.701 37.067 15.425 36.186 13.301 C 35.305 11.178 34.014 9.249 32.386 7.626 C 30.759 6.002 28.827 4.715 26.702 3.839 C 24.576 2.963 22.299 2.515 20 2.52 C 15.364 2.52 10.918 4.362 7.64 7.64 C 4.362 10.918 2.52 15.364 2.52 20 Z M 19.72 28.76 L 17.85 26.76 L 17.85 26.71 C 17.742 26.543 17.687 26.348 17.69 26.15 C 17.691 25.985 17.732 25.823 17.811 25.679 C 17.889 25.534 18.002 25.411 18.14 25.32 C 18.85 24.863 19.676 24.621 20.52 24.621 C 21.364 24.621 22.19 24.863 22.9 25.32 C 23.11 25.469 23.255 25.694 23.303 25.948 C 23.352 26.201 23.301 26.464 23.16 26.68 L 21.24 28.68 C 21.062 28.876 20.814 28.993 20.549 29.006 C 20.285 29.019 20.026 28.927 19.83 28.75 C 19.804 28.729 19.781 28.706 19.76 28.68 L 19.72 28.76 Z M 24.14 24.4 C 23.087 23.58 21.79 23.135 20.455 23.135 C 19.12 23.135 17.823 23.58 16.77 24.4 C 16.594 24.532 16.38 24.602 16.16 24.6 C 15.964 24.598 15.773 24.539 15.61 24.43 L 14.09 22.87 C 13.97 22.665 13.882 22.442 13.83 22.21 C 13.834 22.059 13.87 21.91 13.935 21.774 C 14.001 21.638 14.094 21.517 14.21 21.42 C 15.976 19.97 18.19 19.177 20.475 19.177 C 22.76 19.177 24.974 19.97 26.74 21.42 C 26.85 21.514 26.938 21.63 26.998 21.762 C 27.059 21.893 27.09 22.036 27.09 22.18 C 27.092 22.387 27.029 22.59 26.91 22.76 L 25.31 24.4 C 25.15 24.508 24.963 24.567 24.77 24.57 C 24.538 24.569 24.313 24.492 24.13 24.35 L 24.14 24.4 Z M 27.94 20.4 C 27.045 19.622 26.033 18.991 24.94 18.53 C 22.962 17.696 20.789 17.432 18.669 17.768 C 16.548 18.103 14.564 19.026 12.94 20.43 C 12.772 20.57 12.558 20.641 12.34 20.63 C 12.135 20.634 11.935 20.57 11.77 20.45 L 10.3 18.94 C 10.115 18.754 10.011 18.502 10.01 18.24 C 10.01 18.085 10.046 17.932 10.116 17.793 C 10.185 17.654 10.286 17.533 10.41 17.44 C 12.512 15.631 15.064 14.423 17.795 13.943 C 20.526 13.462 23.337 13.727 25.93 14.71 C 27.611 15.354 29.167 16.285 30.53 17.46 C 30.642 17.547 30.735 17.658 30.801 17.783 C 30.867 17.909 30.906 18.048 30.914 18.19 C 30.923 18.332 30.901 18.474 30.85 18.607 C 30.8 18.739 30.721 18.86 30.62 18.96 L 29.22 20.43 L 29.16 20.43 C 29.001 20.548 28.808 20.611 28.61 20.61 C 28.368 20.612 28.134 20.527 27.95 20.37 L 27.94 20.4 Z" fill="currentColor" fill-rule="nonzero"/>
</svg>
