<svg xmlns="http://www.w3.org/2000/svg" width="32.000" height="40" viewBox="0 0 32.000 40" fill="none">
  <path d="M 27.84 6.66 L 26.91 6.66 L 26.91 11.13 L 5.09 11.13 L 5.09 6.66 L 4.16 6.66 C 3.059 6.66 2.002 7.097 1.222 7.875 C 0.442 8.653 0.003 9.708 0 10.81 L 0 35.81 C -0.004 36.359 0.101 36.903 0.308 37.411 C 0.515 37.919 0.821 38.382 1.208 38.771 C 1.595 39.16 2.055 39.47 2.561 39.68 C 3.068 39.891 3.611 40 4.16 40 L 27.84 40 C 28.942 40 29.998 39.563 30.778 38.785 C 31.558 38.007 31.997 36.952 32 35.85 L 32 10.85 C 32.004 10.301 31.899 9.757 31.692 9.249 C 31.485 8.741 31.179 8.278 30.792 7.889 C 30.406 7.5 29.946 7.19 29.439 6.98 C 28.932 6.769 28.389 6.66 27.84 6.66 Z M 25.45 6.43 C 25.491 5.995 25.381 5.559 25.139 5.195 C 24.897 4.831 24.537 4.561 24.12 4.43 C 23.822 4.323 23.514 4.246 23.2 4.2 L 22.93 4.15 C 22.457 4.074 21.979 4.024 21.5 4 C 20.55 4 19.22 3.61 18.91 2.75 L 18.79 2.38 C 18.44 1.25 17.9 0 16 0 C 14.1 0 13.55 1.25 13.18 2.46 C 13.18 2.57 13.11 2.67 13.08 2.77 C 12.78 3.64 11.45 4 10.5 4 C 10.049 4.001 9.599 4.024 9.15 4.07 L 8.8 4.13 C 8.489 4.178 8.184 4.259 7.89 4.37 C 7.471 4.499 7.109 4.768 6.865 5.132 C 6.621 5.496 6.51 5.933 6.55 6.37 L 6.55 9.61 L 25.45 9.61 L 25.45 6.43 Z" fill="currentColor" fill-rule="nonzero"/>
</svg>
