<svg xmlns="http://www.w3.org/2000/svg" width="40.247" height="40.001" viewBox="0 0 40.247 40.001" fill="none">
  <path d="M 38.335 22.791 L 37.675 22.421 C 37.557 22.346 37.457 22.248 37.379 22.133 C 37.302 22.018 37.249 21.887 37.225 21.751 L 37.225 18.251 C 37.226 18.107 37.269 17.967 37.349 17.848 C 37.429 17.729 37.542 17.636 37.675 17.581 L 38.335 17.211 C 38.736 16.987 39.088 16.688 39.373 16.328 C 39.658 15.969 39.869 15.556 39.994 15.115 C 40.12 14.674 40.157 14.213 40.104 13.757 C 40.051 13.302 39.908 12.861 39.685 12.461 L 36.685 7.551 C 36.179 6.732 35.375 6.141 34.442 5.904 C 33.509 5.667 32.52 5.802 31.685 6.281 L 31.015 6.651 C 30.892 6.724 30.752 6.762 30.61 6.762 C 30.467 6.762 30.327 6.724 30.205 6.651 L 27.135 4.921 C 27.017 4.846 26.917 4.748 26.839 4.633 C 26.762 4.518 26.709 4.387 26.685 4.251 L 26.685 3.501 C 26.669 2.569 26.288 1.68 25.625 1.025 C 24.961 0.371 24.067 0.003 23.135 0.001 L 17.135 0.001 C 16.19 -0.016 15.277 0.344 14.596 1 C 13.916 1.656 13.523 2.555 13.505 3.501 L 13.505 4.241 C 13.507 4.384 13.467 4.524 13.388 4.644 C 13.31 4.763 13.197 4.856 13.065 4.911 L 9.955 6.631 C 9.831 6.705 9.689 6.744 9.545 6.744 C 9.4 6.744 9.259 6.705 9.135 6.631 L 8.475 6.261 C 7.639 5.789 6.654 5.657 5.723 5.891 C 4.792 6.126 3.987 6.709 3.475 7.521 L 0.475 12.441 C 0.02 13.244 -0.097 14.196 0.148 15.086 C 0.394 15.977 0.982 16.733 1.785 17.191 L 2.455 17.561 C 2.57 17.636 2.669 17.734 2.745 17.85 C 2.821 17.965 2.872 18.095 2.895 18.231 L 2.895 21.731 C 2.897 21.874 2.857 22.014 2.778 22.134 C 2.7 22.253 2.587 22.346 2.455 22.401 L 1.785 22.771 C 0.977 23.223 0.382 23.977 0.131 24.868 C -0.12 25.759 -0.007 26.713 0.445 27.521 L 3.445 32.431 C 3.957 33.242 4.762 33.826 5.692 34.062 C 6.622 34.298 7.607 34.169 8.445 33.701 L 9.115 33.331 C 9.237 33.257 9.377 33.219 9.52 33.219 C 9.662 33.219 9.802 33.257 9.925 33.331 L 13.135 35.081 C 13.25 35.156 13.349 35.254 13.425 35.369 C 13.501 35.485 13.552 35.615 13.575 35.751 L 13.575 36.501 C 13.593 37.433 13.976 38.322 14.641 38.976 C 15.307 39.63 16.202 39.998 17.135 40.001 L 23.135 40.001 C 24.08 40.017 24.993 39.657 25.673 39.001 C 26.354 38.345 26.746 37.446 26.765 36.501 L 26.765 35.761 C 26.761 35.617 26.801 35.476 26.879 35.356 C 26.958 35.236 27.072 35.144 27.205 35.091 L 30.315 33.371 C 30.437 33.297 30.577 33.259 30.72 33.259 C 30.862 33.259 31.002 33.297 31.125 33.371 L 31.795 33.741 C 32.631 34.212 33.616 34.344 34.547 34.11 C 35.477 33.875 36.282 33.292 36.795 32.481 L 39.795 27.561 C 40.249 26.757 40.367 25.805 40.121 24.915 C 39.876 24.025 39.287 23.268 38.485 22.811 L 38.335 22.791 Z M 37.225 26.221 L 34.225 31.131 C 34.172 31.223 34.101 31.305 34.017 31.37 C 33.932 31.436 33.835 31.484 33.732 31.512 C 33.629 31.54 33.521 31.547 33.415 31.533 C 33.309 31.519 33.207 31.484 33.115 31.431 L 32.455 31.061 C 31.894 30.769 31.272 30.618 30.64 30.618 C 30.008 30.618 29.386 30.769 28.825 31.061 L 25.715 32.771 C 25.171 33.074 24.718 33.518 24.405 34.056 C 24.092 34.595 23.93 35.208 23.935 35.831 L 23.935 36.571 C 23.935 36.786 23.85 36.993 23.698 37.147 C 23.547 37.3 23.341 37.388 23.125 37.391 L 17.245 37.391 C 17.029 37.388 16.823 37.3 16.671 37.147 C 16.52 36.993 16.435 36.786 16.435 36.571 L 16.435 35.831 C 16.432 35.209 16.266 34.6 15.953 34.063 C 15.641 33.526 15.193 33.08 14.655 32.771 L 11.545 31.061 C 10.999 30.773 10.392 30.619 9.775 30.611 C 9.154 30.614 8.543 30.768 7.995 31.061 L 7.325 31.431 C 7.137 31.533 6.916 31.56 6.709 31.504 C 6.503 31.448 6.325 31.314 6.215 31.131 L 3.215 26.221 C 3.114 26.031 3.089 25.809 3.144 25.601 C 3.2 25.394 3.332 25.215 3.515 25.101 L 4.185 24.731 C 4.728 24.429 5.179 23.987 5.49 23.45 C 5.802 22.913 5.962 22.301 5.955 21.681 L 5.955 18.251 C 5.957 17.635 5.799 17.03 5.495 16.496 C 5.192 15.961 4.754 15.514 4.225 15.201 L 3.555 14.831 C 3.372 14.716 3.24 14.537 3.184 14.33 C 3.129 14.122 3.154 13.901 3.255 13.711 L 6.255 8.791 C 6.367 8.609 6.544 8.477 6.75 8.421 C 6.957 8.365 7.176 8.39 7.365 8.491 L 8.035 8.871 C 8.594 9.161 9.215 9.313 9.845 9.313 C 10.475 9.313 11.096 9.161 11.655 8.871 L 14.765 7.151 C 15.302 6.845 15.747 6.401 16.053 5.864 C 16.359 5.328 16.515 4.718 16.505 4.101 L 16.505 3.351 C 16.505 3.136 16.59 2.93 16.742 2.778 C 16.894 2.626 17.1 2.541 17.315 2.541 L 23.235 2.541 C 23.45 2.543 23.655 2.629 23.808 2.78 C 23.961 2.931 24.05 3.136 24.055 3.351 L 24.055 4.101 C 24.056 4.72 24.22 5.328 24.53 5.863 C 24.841 6.399 25.288 6.843 25.825 7.151 L 28.935 8.871 C 29.496 9.162 30.118 9.313 30.75 9.313 C 31.382 9.313 32.004 9.162 32.565 8.871 L 33.225 8.491 C 33.413 8.388 33.633 8.361 33.84 8.417 C 34.047 8.473 34.224 8.607 34.335 8.791 L 37.335 13.711 C 37.438 13.9 37.465 14.122 37.409 14.331 C 37.353 14.539 37.219 14.718 37.035 14.831 L 36.375 15.201 C 35.831 15.501 35.378 15.944 35.065 16.481 C 34.752 17.017 34.589 17.629 34.595 18.251 L 34.595 21.751 C 34.597 22.372 34.762 22.982 35.075 23.519 C 35.387 24.056 35.836 24.502 36.375 24.811 L 37.035 25.181 C 37.184 25.294 37.289 25.456 37.331 25.639 C 37.373 25.822 37.35 26.013 37.265 26.181 L 37.225 26.221 Z M 20.135 10.001 C 18.157 10.001 16.224 10.587 14.579 11.686 C 12.935 12.785 11.653 14.346 10.896 16.174 C 10.139 18.001 9.941 20.012 10.327 21.951 C 10.713 23.891 11.665 25.673 13.064 27.072 C 14.462 28.47 16.244 29.423 18.184 29.808 C 20.124 30.194 22.134 29.996 23.962 29.239 C 25.789 28.482 27.351 27.201 28.449 25.556 C 29.548 23.912 30.135 21.978 30.135 20.001 C 30.135 17.348 29.081 14.805 27.206 12.929 C 25.331 11.054 22.787 10.001 20.135 10.001 Z M 20.135 27.501 C 18.651 27.501 17.201 27.061 15.968 26.237 C 14.735 25.412 13.773 24.241 13.206 22.871 C 12.638 21.5 12.49 19.992 12.779 18.537 C 13.068 17.082 13.783 15.746 14.832 14.697 C 15.88 13.648 17.217 12.934 18.672 12.645 C 20.126 12.355 21.634 12.504 23.005 13.071 C 24.375 13.639 25.547 14.6 26.371 15.834 C 27.195 17.067 27.635 18.517 27.635 20.001 C 27.637 20.987 27.445 21.965 27.07 22.877 C 26.694 23.789 26.142 24.618 25.445 25.317 C 24.748 26.015 23.921 26.57 23.01 26.948 C 22.098 27.326 21.121 27.521 20.135 27.521 L 20.135 27.501 Z" fill="currentColor" fill-rule="nonzero"/>
</svg>
