<svg xmlns="http://www.w3.org/2000/svg" width="26.660" height="40" viewBox="0 0 26.660 40" fill="none">
  <path d="M 22.66 0 L 4 0 C 2.939 0 1.922 0.421 1.172 1.172 C 0.421 1.922 0 2.939 0 4 L 0 36 C 0 37.061 0.421 38.078 1.172 38.828 C 1.922 39.579 2.939 40 4 40 L 22.66 40 C 23.721 40 24.738 39.579 25.488 38.828 C 26.239 38.078 26.66 37.061 26.66 36 L 26.66 4 C 26.66 2.939 26.239 1.922 25.488 1.172 C 24.738 0.421 23.721 0 22.66 0 Z M 16.99 11.49 L 9.67 11.49 L 9.67 8.79 L 16.99 8.79 L 16.99 11.49 Z M 20.57 25 C 20.024 25 19.5 24.783 19.113 24.397 C 18.727 24.01 18.51 23.486 18.51 22.94 C 18.515 22.395 18.734 21.874 19.119 21.489 C 19.504 21.104 20.025 20.885 20.57 20.88 C 21.116 20.88 21.64 21.097 22.027 21.483 C 22.413 21.87 22.63 22.394 22.63 22.94 C 22.63 23.486 22.413 24.01 22.027 24.397 C 21.64 24.783 21.116 25 20.57 25 Z" fill="currentColor" fill-rule="nonzero"/>
</svg>
