<svg xmlns="http://www.w3.org/2000/svg" width="21.270" height="40" viewBox="0 0 21.270 40" fill="none">
  <path d="M 4.66 40 C 3.427 39.997 2.244 39.507 1.371 38.636 C 0.498 37.765 0.005 36.583 0 35.35 L 0 4.65 C 0.005 3.417 0.498 2.235 1.371 1.364 C 2.244 0.493 3.427 0.003 4.66 0 L 16.61 0 C 17.843 0.003 19.026 0.493 19.899 1.364 C 20.772 2.235 21.265 3.417 21.27 4.65 L 21.27 35.35 C 21.265 36.583 20.772 37.765 19.899 38.636 C 19.026 39.507 17.843 39.997 16.61 40 L 4.66 40 Z M 4.66 2.56 C 4.112 2.573 3.59 2.8 3.207 3.192 C 2.824 3.585 2.61 4.112 2.61 4.66 L 2.61 35.35 C 2.613 35.906 2.835 36.439 3.228 36.832 C 3.621 37.225 4.154 37.447 4.71 37.45 L 16.61 37.45 C 17.166 37.447 17.699 37.225 18.092 36.832 C 18.485 36.439 18.707 35.906 18.71 35.35 L 18.71 31.09 C 18.71 31.008 18.677 30.929 18.619 30.871 C 18.561 30.813 18.482 30.78 18.4 30.78 L 13.01 30.78 C 12.671 30.78 12.345 30.645 12.105 30.405 C 11.865 30.165 11.73 29.839 11.73 29.5 C 11.73 29.161 11.865 28.835 12.105 28.595 C 12.345 28.355 12.671 28.22 13.01 28.22 L 18.35 28.22 C 18.39 28.221 18.43 28.215 18.468 28.2 C 18.505 28.186 18.54 28.164 18.569 28.136 C 18.598 28.108 18.621 28.074 18.636 28.037 C 18.652 28 18.66 27.96 18.66 27.92 L 18.66 21.58 C 18.657 21.5 18.624 21.423 18.566 21.367 C 18.508 21.311 18.431 21.28 18.35 21.28 L 9.61 21.28 C 9.439 21.285 9.268 21.256 9.108 21.194 C 8.948 21.132 8.802 21.039 8.679 20.92 C 8.556 20.8 8.458 20.657 8.391 20.499 C 8.324 20.341 8.29 20.172 8.29 20 C 8.289 19.833 8.321 19.667 8.385 19.513 C 8.448 19.358 8.542 19.218 8.66 19.1 C 8.776 18.979 8.916 18.882 9.071 18.817 C 9.225 18.751 9.392 18.719 9.56 18.72 L 18.35 18.72 C 18.39 18.721 18.43 18.715 18.468 18.7 C 18.505 18.686 18.54 18.664 18.569 18.636 C 18.598 18.608 18.621 18.574 18.636 18.537 C 18.652 18.5 18.66 18.46 18.66 18.42 L 18.66 12.24 C 18.66 12.2 18.652 12.16 18.636 12.123 C 18.621 12.086 18.598 12.052 18.569 12.024 C 18.54 11.996 18.505 11.974 18.468 11.96 C 18.43 11.945 18.39 11.939 18.35 11.94 L 13.01 11.94 C 12.671 11.937 12.347 11.802 12.108 11.562 C 11.868 11.323 11.733 10.999 11.73 10.66 C 11.73 10.321 11.865 9.995 12.105 9.755 C 12.345 9.515 12.671 9.38 13.01 9.38 L 18.35 9.38 C 18.432 9.38 18.511 9.347 18.569 9.289 C 18.627 9.231 18.66 9.152 18.66 9.07 L 18.66 4.66 C 18.66 4.112 18.446 3.585 18.063 3.192 C 17.68 2.8 17.158 2.573 16.61 2.56 L 4.66 2.56 Z" fill="currentColor" fill-rule="nonzero"/>
</svg>
