<svg xmlns="http://www.w3.org/2000/svg" width="39.285" height="40.000" viewBox="0 0 39.285 40.000" fill="none">
  <path d="M 23.67 26.73 C 22.227 25.288 21.244 23.45 20.844 21.45 C 20.445 19.449 20.648 17.375 21.427 15.489 C 22.206 13.604 23.526 11.991 25.221 10.856 C 26.916 9.72 28.91 9.113 30.95 9.11 C 31.27 9.11 31.58 9.11 31.89 9.16 L 31.89 4.25 C 31.89 3.126 31.445 2.048 30.652 1.252 C 29.86 0.455 28.784 0.005 27.66 0 L 4.25 0 C 3.123 0 2.042 0.448 1.245 1.245 C 0.448 2.042 0 3.123 0 4.25 L 0 35.75 C 0 36.877 0.448 37.958 1.245 38.755 C 2.042 39.552 3.123 40 4.25 40 L 27.66 40 C 28.221 40.005 28.778 39.899 29.299 39.688 C 29.819 39.477 30.292 39.165 30.691 38.769 C 31.09 38.374 31.407 37.904 31.623 37.386 C 31.839 36.867 31.95 36.312 31.95 35.75 L 31.95 29.75 C 31.64 29.75 31.32 29.75 31.01 29.75 C 29.647 29.76 28.296 29.498 27.036 28.979 C 25.776 28.461 24.631 27.696 23.67 26.73 Z M 5.57 6.62 L 24.49 6.62 C 24.663 6.604 24.837 6.625 25.002 6.681 C 25.166 6.736 25.317 6.825 25.445 6.942 C 25.573 7.06 25.676 7.202 25.746 7.361 C 25.816 7.52 25.852 7.691 25.852 7.865 C 25.852 8.039 25.816 8.21 25.746 8.369 C 25.676 8.528 25.573 8.67 25.445 8.788 C 25.317 8.905 25.166 8.994 25.002 9.049 C 24.837 9.105 24.663 9.126 24.49 9.11 L 5.57 9.11 C 5.259 9.082 4.97 8.939 4.759 8.708 C 4.549 8.478 4.432 8.177 4.432 7.865 C 4.432 7.553 4.549 7.252 4.759 7.022 C 4.97 6.791 5.259 6.648 5.57 6.62 Z M 14.78 33.73 L 5.57 33.73 C 5.259 33.702 4.97 33.559 4.759 33.328 C 4.549 33.098 4.432 32.797 4.432 32.485 C 4.432 32.173 4.549 31.872 4.759 31.642 C 4.97 31.411 5.259 31.268 5.57 31.24 L 14.57 31.24 C 14.899 31.24 15.214 31.371 15.447 31.603 C 15.679 31.836 15.81 32.151 15.81 32.48 C 15.84 33.17 15.47 33.73 14.78 33.73 Z M 4.33 27.59 C 4.33 27.26 4.46 26.944 4.693 26.71 C 4.925 26.475 5.24 26.343 5.57 26.34 L 13.79 26.34 C 14.122 26.34 14.439 26.472 14.674 26.706 C 14.908 26.941 15.04 27.258 15.04 27.59 C 15.04 27.922 14.908 28.239 14.674 28.474 C 14.439 28.708 14.122 28.84 13.79 28.84 L 5.57 28.84 C 5.24 28.837 4.925 28.705 4.693 28.47 C 4.46 28.236 4.33 27.92 4.33 27.59 Z M 16.52 23.94 L 5.52 23.94 C 5.209 23.912 4.92 23.769 4.709 23.538 C 4.499 23.308 4.382 23.007 4.382 22.695 C 4.382 22.383 4.499 22.082 4.709 21.852 C 4.92 21.621 5.209 21.478 5.52 21.45 L 16.52 21.45 C 16.831 21.478 17.12 21.621 17.331 21.852 C 17.541 22.082 17.658 22.383 17.658 22.695 C 17.658 23.007 17.541 23.308 17.331 23.538 C 17.12 23.769 16.831 23.912 16.52 23.94 Z M 18.25 13.72 L 6.07 13.72 C 5.759 13.692 5.47 13.549 5.259 13.318 C 5.049 13.088 4.932 12.787 4.932 12.475 C 4.932 12.163 5.049 11.862 5.259 11.632 C 5.47 11.401 5.759 11.258 6.07 11.23 L 18.25 11.23 C 18.423 11.214 18.597 11.235 18.762 11.291 C 18.926 11.346 19.077 11.435 19.205 11.552 C 19.333 11.67 19.436 11.812 19.506 11.971 C 19.576 12.13 19.612 12.301 19.612 12.475 C 19.612 12.649 19.576 12.82 19.506 12.979 C 19.436 13.138 19.333 13.28 19.205 13.398 C 19.077 13.515 18.926 13.604 18.762 13.659 C 18.597 13.715 18.423 13.736 18.25 13.72 Z M 31.04 11.11 L 30.95 11.11 C 28.752 11.119 26.647 12 25.097 13.56 C 23.548 15.119 22.68 17.229 22.685 19.427 C 22.69 21.626 23.566 23.732 25.122 25.285 C 26.678 26.838 28.787 27.71 30.985 27.71 C 33.183 27.71 35.292 26.838 36.848 25.285 C 38.404 23.732 39.28 21.626 39.285 19.427 C 39.29 17.229 38.422 15.119 36.873 13.56 C 35.323 12 33.218 11.119 31.02 11.11 L 31.04 11.11 Z M 31.59 22.37 C 31.59 22.467 31.571 22.563 31.534 22.653 C 31.496 22.743 31.442 22.825 31.373 22.893 C 31.305 22.962 31.223 23.016 31.133 23.054 C 31.043 23.091 30.947 23.11 30.85 23.11 C 30.753 23.11 30.657 23.091 30.567 23.054 C 30.477 23.016 30.395 22.962 30.327 22.893 C 30.258 22.825 30.204 22.743 30.166 22.653 C 30.129 22.563 30.11 22.467 30.11 22.37 L 30.11 19.09 C 30.11 18.993 30.129 18.897 30.166 18.807 C 30.204 18.717 30.258 18.635 30.327 18.567 C 30.395 18.498 30.477 18.444 30.567 18.406 C 30.657 18.369 30.753 18.35 30.85 18.35 C 30.947 18.35 31.043 18.369 31.133 18.406 C 31.223 18.444 31.305 18.498 31.373 18.567 C 31.442 18.635 31.496 18.717 31.534 18.807 C 31.571 18.897 31.59 18.993 31.59 19.09 L 31.59 22.37 Z M 30.85 17.44 C 30.686 17.44 30.525 17.391 30.389 17.3 C 30.252 17.209 30.146 17.079 30.083 16.928 C 30.02 16.776 30.004 16.609 30.036 16.448 C 30.068 16.287 30.147 16.139 30.263 16.023 C 30.379 15.907 30.527 15.828 30.688 15.796 C 30.849 15.764 31.016 15.78 31.168 15.843 C 31.319 15.906 31.449 16.012 31.54 16.149 C 31.631 16.285 31.68 16.446 31.68 16.61 C 31.68 16.83 31.593 17.041 31.437 17.197 C 31.281 17.353 31.07 17.44 30.85 17.44 Z" fill="currentColor" fill-rule="nonzero"/>
</svg>
