<svg xmlns="http://www.w3.org/2000/svg" width="40" height="40" viewBox="0 0 40 40" fill="none">
  <path d="M 20 0 C 16.044 0 12.178 1.173 8.889 3.371 C 5.6 5.568 3.036 8.692 1.522 12.346 C 0.009 16.001 -0.387 20.022 0.384 23.902 C 1.156 27.781 3.061 31.345 5.858 34.142 C 8.655 36.939 12.219 38.844 16.098 39.616 C 19.978 40.387 23.999 39.991 27.654 38.478 C 31.308 36.964 34.432 34.4 36.629 31.111 C 38.827 27.822 40 23.956 40 20 C 40 17.374 39.483 14.773 38.478 12.346 C 37.473 9.92 35.999 7.715 34.142 5.858 C 32.285 4.001 30.08 2.528 27.654 1.522 C 25.227 0.517 22.626 0 20 0 Z M 15.43 17.7 C 15.555 17.591 15.7 17.507 15.857 17.454 C 16.014 17.401 16.18 17.38 16.345 17.391 C 16.51 17.402 16.672 17.446 16.82 17.519 C 16.969 17.593 17.101 17.695 17.21 17.82 L 18.77 19.67 L 18.77 11.4 C 18.77 11.066 18.903 10.745 19.139 10.509 C 19.375 10.273 19.696 10.14 20.03 10.14 C 20.364 10.14 20.685 10.273 20.921 10.509 C 21.157 10.745 21.29 11.066 21.29 11.4 L 21.29 19.63 L 22.7 17.85 C 22.918 17.643 23.203 17.519 23.503 17.502 C 23.804 17.485 24.1 17.575 24.34 17.757 C 24.581 17.938 24.749 18.199 24.814 18.492 C 24.88 18.786 24.84 19.093 24.7 19.36 L 24.7 19.41 L 21.07 23.93 C 21.07 24 20.99 24 20.92 24.07 C 20.813 24.171 20.687 24.249 20.55 24.3 L 20.47 24.3 C 20.232 24.395 19.968 24.395 19.73 24.3 L 19.66 24.3 C 19.458 24.223 19.279 24.095 19.14 23.93 L 15.29 19.49 C 15.18 19.364 15.097 19.217 15.045 19.058 C 14.992 18.9 14.972 18.732 14.985 18.566 C 14.998 18.399 15.044 18.237 15.121 18.088 C 15.197 17.94 15.302 17.808 15.43 17.7 Z M 27.7 27.33 C 27.692 27.662 27.557 27.978 27.323 28.213 C 27.088 28.447 26.772 28.582 26.44 28.59 L 13.56 28.59 C 13.226 28.59 12.905 28.457 12.669 28.221 C 12.433 27.985 12.3 27.664 12.3 27.33 C 12.3 26.996 12.433 26.675 12.669 26.439 C 12.905 26.203 13.226 26.07 13.56 26.07 L 26.44 26.07 C 26.598 26.062 26.755 26.085 26.904 26.138 C 27.053 26.191 27.189 26.273 27.307 26.379 C 27.424 26.484 27.519 26.612 27.586 26.755 C 27.654 26.898 27.692 27.052 27.7 27.21 C 27.71 27.249 27.71 27.291 27.7 27.33 Z" fill="currentColor" fill-rule="nonzero"/>
</svg>
