<svg xmlns="http://www.w3.org/2000/svg" width="40.001" height="33.041" viewBox="0 0 40.001 33.041" fill="none">
  <path d="M 5.111 33.04 C 4.298 33.058 3.506 32.783 2.88 32.266 C 2.254 31.748 1.835 31.021 1.701 30.22 L 0.001 18.9 L 0.001 18.6 C -0.007 18.311 0.069 18.026 0.221 17.78 L 4.291 3.2 C 4.501 2.443 4.957 1.778 5.587 1.31 C 6.217 0.841 6.985 0.595 7.771 0.61 L 14.771 0.61 C 15.123 0.61 15.462 0.75 15.711 1 C 15.96 1.249 16.101 1.587 16.101 1.94 C 16.101 2.293 15.96 2.631 15.711 2.88 C 15.462 3.13 15.123 3.27 14.771 3.27 L 7.771 3.27 C 7.577 3.251 7.382 3.301 7.222 3.41 C 7.061 3.52 6.944 3.683 6.891 3.87 L 6.891 3.94 L 3.261 16.82 L 13.551 16.82 C 13.902 16.82 14.238 16.959 14.487 17.206 C 14.737 17.453 14.878 17.789 14.881 18.14 L 14.881 18.3 C 14.881 21.49 15.621 22 20.071 22 C 24.361 22 25.321 21.63 25.321 18.3 L 25.321 18.16 C 25.32 17.808 25.459 17.47 25.706 17.219 C 25.953 16.969 26.289 16.825 26.641 16.82 L 36.641 16.82 L 33.241 3.94 C 33.167 3.737 33.031 3.563 32.85 3.444 C 32.67 3.325 32.456 3.267 32.241 3.28 L 25.621 3.28 C 25.286 3.251 24.975 3.098 24.749 2.851 C 24.522 2.604 24.396 2.28 24.396 1.945 C 24.396 1.61 24.522 1.286 24.749 1.039 C 24.975 0.792 25.286 0.639 25.621 0.61 L 32.281 0.61 C 33.075 0.606 33.847 0.866 34.477 1.35 C 35.107 1.833 35.559 2.512 35.761 3.28 L 39.681 18.01 C 39.889 18.368 40 18.775 40.001 19.19 C 40.001 19.29 40.001 19.39 40.001 19.49 L 38.351 30.22 C 38.22 31.012 37.81 31.731 37.196 32.248 C 36.582 32.765 35.803 33.046 35.001 33.04 L 5.111 33.04 Z M 4.371 29.78 C 4.371 30.08 4.741 30.3 5.111 30.3 L 35.001 30.3 C 35.164 30.307 35.325 30.26 35.459 30.166 C 35.593 30.072 35.692 29.936 35.741 29.78 L 37.371 19.41 L 27.971 19.41 C 27.401 24.08 24.071 24.52 20.071 24.52 C 16.071 24.52 12.811 24.08 12.291 19.41 L 2.811 19.41 L 4.371 29.78 Z M 19.371 17.12 L 12.711 11.2 C 12.555 11.066 12.43 10.9 12.344 10.714 C 12.258 10.528 12.212 10.325 12.211 10.12 C 12.209 9.871 12.282 9.627 12.421 9.42 C 12.59 9.142 12.864 8.942 13.181 8.865 C 13.498 8.788 13.832 8.84 14.111 9.01 C 14.194 9.065 14.271 9.128 14.341 9.2 L 18.711 13.05 L 18.711 1.35 C 18.71 1.002 18.844 0.668 19.084 0.416 C 19.325 0.164 19.653 0.015 20.001 0 L 20.211 0 C 20.529 0.069 20.813 0.247 21.016 0.502 C 21.218 0.757 21.326 1.074 21.321 1.4 L 21.321 12.97 L 25.691 9.13 C 25.818 9.014 25.967 8.924 26.13 8.866 C 26.292 8.808 26.464 8.783 26.636 8.793 C 26.809 8.802 26.977 8.845 27.132 8.92 C 27.288 8.996 27.426 9.101 27.541 9.23 C 27.601 9.288 27.652 9.355 27.691 9.43 C 27.829 9.637 27.902 9.881 27.901 10.13 C 27.9 10.334 27.854 10.535 27.768 10.72 C 27.682 10.905 27.556 11.068 27.401 11.2 L 20.731 17.13 C 20.549 17.3 20.31 17.397 20.061 17.4 C 19.788 17.398 19.526 17.299 19.321 17.12 L 19.371 17.12 Z" fill="currentColor" fill-rule="nonzero"/>
</svg>
