<svg xmlns="http://www.w3.org/2000/svg" width="29.347" height="29.340" viewBox="0 0 29.347 29.340" fill="none">
  <path d="M 28.76 25.93 L 6.83 4 L 21.83 4 C 22.36 4 22.869 3.789 23.244 3.414 C 23.619 3.039 23.83 2.53 23.83 2 C 23.83 1.47 23.619 0.961 23.244 0.586 C 22.869 0.211 22.36 0 21.83 0 L 2 0 C 1.47 0 0.961 0.211 0.586 0.586 C 0.211 0.961 0 1.47 0 2 L 0 21.82 C 0 22.35 0.211 22.859 0.586 23.234 C 0.961 23.609 1.47 23.82 2 23.82 C 2.53 23.82 3.039 23.609 3.414 23.234 C 3.789 22.859 4 22.35 4 21.82 L 4 6.82 L 25.93 28.76 C 26.117 28.945 26.339 29.092 26.582 29.192 C 26.826 29.291 27.087 29.342 27.35 29.34 C 27.878 29.34 28.385 29.132 28.76 28.76 C 28.946 28.574 29.093 28.354 29.194 28.111 C 29.295 27.868 29.347 27.608 29.347 27.345 C 29.347 27.082 29.295 26.822 29.194 26.579 C 29.093 26.336 28.946 26.116 28.76 25.93 Z" fill="currentColor" fill-rule="nonzero"/>
</svg>
