<svg xmlns="http://www.w3.org/2000/svg" width="31.950" height="40.000" viewBox="0 0 31.950 40.000" fill="none">
  <path d="M 27.66 0 L 4.24 0 C 3.115 0.003 2.036 0.452 1.241 1.249 C 0.446 2.045 0 3.125 0 4.25 L 0 35.75 C 0 36.876 0.446 37.955 1.241 38.752 C 2.036 39.549 3.115 39.998 4.24 40 L 27.66 40 C 28.221 40.005 28.778 39.899 29.299 39.688 C 29.819 39.477 30.292 39.165 30.691 38.77 C 31.09 38.374 31.407 37.904 31.623 37.386 C 31.839 36.868 31.95 36.312 31.95 35.75 L 31.95 4.25 C 31.95 3.689 31.839 3.133 31.623 2.614 C 31.407 2.096 31.09 1.626 30.691 1.231 C 30.292 0.836 29.819 0.523 29.299 0.312 C 28.778 0.101 28.221 -0.005 27.66 0 Z M 8.26 21 L 23.59 21 C 23.764 20.985 23.94 21.006 24.105 21.061 C 24.271 21.117 24.423 21.207 24.553 21.325 C 24.682 21.443 24.785 21.587 24.855 21.747 C 24.926 21.907 24.962 22.08 24.962 22.255 C 24.962 22.43 24.926 22.603 24.855 22.763 C 24.785 22.923 24.682 23.067 24.553 23.185 C 24.423 23.303 24.271 23.393 24.105 23.449 C 23.94 23.505 23.764 23.526 23.59 23.51 L 8.26 23.51 C 8.086 23.526 7.91 23.505 7.745 23.449 C 7.579 23.393 7.427 23.303 7.297 23.185 C 7.168 23.067 7.065 22.923 6.995 22.763 C 6.924 22.603 6.888 22.43 6.888 22.255 C 6.888 22.08 6.924 21.907 6.995 21.747 C 7.065 21.587 7.168 21.443 7.297 21.325 C 7.427 21.207 7.579 21.117 7.745 21.061 C 7.91 21.006 8.086 20.985 8.26 21 Z M 7.47 13.16 C 7.465 12.995 7.492 12.83 7.55 12.675 C 7.609 12.52 7.697 12.378 7.811 12.257 C 7.924 12.137 8.06 12.039 8.211 11.971 C 8.362 11.903 8.525 11.865 8.69 11.86 L 17.37 11.86 C 17.704 11.851 18.028 11.975 18.271 12.204 C 18.514 12.434 18.656 12.751 18.665 13.085 C 18.674 13.419 18.55 13.744 18.321 13.986 C 18.091 14.229 17.774 14.371 17.44 14.38 L 8.76 14.38 C 8.431 14.388 8.111 14.267 7.87 14.043 C 7.629 13.819 7.486 13.509 7.47 13.18 L 7.47 13.16 Z M 8.26 26.16 L 23.59 26.16 C 23.924 26.16 24.245 26.293 24.481 26.529 C 24.717 26.766 24.85 27.086 24.85 27.42 C 24.85 27.754 24.717 28.075 24.481 28.311 C 24.245 28.547 23.924 28.68 23.59 28.68 L 8.26 28.68 C 7.926 28.68 7.605 28.547 7.369 28.311 C 7.133 28.075 7 27.754 7 27.42 C 7 27.086 7.133 26.766 7.369 26.529 C 7.605 26.293 7.926 26.16 8.26 26.16 Z M 23.63 33.82 L 8.3 33.82 C 8.126 33.836 7.95 33.815 7.785 33.759 C 7.619 33.703 7.467 33.613 7.337 33.495 C 7.208 33.377 7.105 33.233 7.035 33.073 C 6.964 32.913 6.928 32.74 6.928 32.565 C 6.928 32.39 6.964 32.217 7.035 32.057 C 7.105 31.897 7.208 31.753 7.337 31.635 C 7.467 31.517 7.619 31.427 7.785 31.371 C 7.95 31.316 8.126 31.295 8.3 31.31 L 23.63 31.31 C 23.944 31.338 24.235 31.483 24.448 31.715 C 24.66 31.947 24.778 32.25 24.778 32.565 C 24.778 32.88 24.66 33.183 24.448 33.416 C 24.235 33.648 23.944 33.792 23.63 33.82 Z M 23.71 9.58 L 8.26 9.58 C 8.087 9.6 7.911 9.583 7.745 9.531 C 7.578 9.48 7.424 9.394 7.292 9.279 C 7.161 9.165 7.054 9.025 6.979 8.867 C 6.905 8.709 6.864 8.538 6.859 8.363 C 6.854 8.189 6.886 8.015 6.951 7.854 C 7.017 7.692 7.115 7.546 7.241 7.424 C 7.366 7.303 7.515 7.209 7.678 7.148 C 7.842 7.087 8.016 7.06 8.19 7.07 L 23.64 7.07 C 23.813 7.051 23.989 7.067 24.155 7.119 C 24.322 7.171 24.476 7.257 24.608 7.371 C 24.739 7.485 24.846 7.626 24.921 7.784 C 24.995 7.941 25.036 8.113 25.041 8.287 C 25.046 8.461 25.014 8.635 24.949 8.797 C 24.883 8.958 24.785 9.104 24.659 9.226 C 24.534 9.348 24.385 9.442 24.222 9.503 C 24.058 9.564 23.884 9.59 23.71 9.58 Z" fill="currentColor" fill-rule="nonzero"/>
</svg>
