<svg xmlns="http://www.w3.org/2000/svg" width="40.007" height="40" viewBox="0 0 40.007 40" fill="none">
  <path d="M 19.22 12.412 C 18.421 12.104 17.558 12.001 16.71 12.112 C 15.86 12.238 15.059 12.586 14.388 13.122 C 13.717 13.657 13.2 14.361 12.89 15.162 C 12.632 15.752 12.5 16.388 12.5 17.032 C 12.5 17.675 12.632 18.312 12.89 18.902 C 13.44 20.075 14.411 20.999 15.61 21.492 C 16.199 21.749 16.836 21.882 17.48 21.882 C 18.123 21.882 18.76 21.749 19.35 21.492 C 20.558 20.953 21.512 19.968 22.01 18.742 C 22.474 17.532 22.441 16.188 21.919 15.002 C 21.396 13.816 20.426 12.885 19.22 12.412 Z M 28.66 1.972 C 25.52 0.464 22.041 -0.198 18.567 0.051 C 15.092 0.301 11.744 1.454 8.852 3.395 C 5.96 5.337 3.625 8 2.079 11.121 C 0.533 14.242 -0.172 17.713 0.035 21.19 C 0.243 24.667 1.354 28.029 3.26 30.945 C 5.167 33.86 7.801 36.227 10.903 37.811 C 14.005 39.396 17.467 40.142 20.946 39.978 C 24.425 39.813 27.801 38.742 30.74 36.872 C 33.842 34.877 36.352 32.087 38.01 28.792 C 40.325 23.995 40.64 18.476 38.887 13.446 C 37.134 8.417 33.455 4.29 28.66 1.972 Z M 29.45 29.372 C 29.256 29.546 29.017 29.661 28.76 29.702 C 28.56 29.743 28.353 29.732 28.159 29.67 C 27.965 29.609 27.79 29.5 27.65 29.352 L 21.59 23.162 C 21.25 23.362 20.83 23.582 20.42 23.792 C 19.818 24.035 19.19 24.209 18.55 24.312 C 17.268 24.529 15.951 24.394 14.74 23.922 C 13.822 23.574 12.983 23.045 12.274 22.366 C 11.564 21.687 10.998 20.873 10.61 19.972 C 9.818 18.17 9.771 16.128 10.48 14.292 C 10.827 13.376 11.353 12.54 12.028 11.83 C 12.703 11.121 13.512 10.554 14.41 10.162 C 16.211 9.37 18.253 9.323 20.09 10.032 C 21.009 10.377 21.849 10.904 22.56 11.581 C 23.271 12.258 23.839 13.071 24.23 13.972 C 25.016 15.775 25.063 17.815 24.36 19.652 C 24.142 20.233 23.846 20.782 23.48 21.282 L 29.48 27.552 C 29.596 27.673 29.688 27.815 29.75 27.972 C 29.812 28.128 29.842 28.295 29.839 28.463 C 29.837 28.631 29.801 28.797 29.734 28.951 C 29.667 29.106 29.57 29.245 29.45 29.362 L 29.45 29.372 Z" fill="currentColor" fill-rule="nonzero"/>
</svg>
