<svg xmlns="http://www.w3.org/2000/svg" width="39.880" height="24.881" viewBox="0 0 39.880 24.881" fill="none">
  <path d="M 4 24.88 C 2.963 24.897 1.962 24.504 1.214 23.787 C 0.465 23.07 0.029 22.087 0 21.05 L 0 3.83 C 0.029 2.794 0.465 1.811 1.214 1.094 C 1.962 0.377 2.963 -0.016 4 0 L 35.88 0 C 36.917 -0.016 37.918 0.377 38.666 1.094 C 39.415 1.811 39.851 2.794 39.88 3.83 L 39.88 21.05 C 39.851 22.087 39.415 23.07 38.666 23.787 C 37.918 24.504 36.917 24.897 35.88 24.88 L 4 24.88 Z M 35.78 22.44 L 35.94 22.44 C 36.114 22.445 36.288 22.413 36.45 22.348 C 36.612 22.283 36.759 22.186 36.883 22.063 C 37.006 21.94 37.103 21.792 37.168 21.63 C 37.233 21.468 37.264 21.295 37.26 21.12 L 37.26 4.15 L 23.94 14.22 C 22.781 15.074 21.379 15.533 19.94 15.53 C 18.501 15.535 17.098 15.075 15.94 14.22 L 2.59 4.15 L 2.59 21.05 C 2.611 21.428 2.776 21.783 3.051 22.042 C 3.327 22.301 3.692 22.444 4.07 22.44 L 35.78 22.44 Z M 17.62 12.3 C 18.297 12.819 19.127 13.101 19.98 13.101 C 20.833 13.101 21.663 12.819 22.34 12.3 L 35.34 2.44 L 4.61 2.44 L 17.62 12.3 Z" fill="currentColor" fill-rule="nonzero"/>
</svg>
