<svg xmlns="http://www.w3.org/2000/svg" width="40" height="40" viewBox="0 0 40 40" fill="none">
  <path d="M 20 0 C 16.044 0 12.178 1.173 8.889 3.371 C 5.6 5.568 3.036 8.692 1.522 12.346 C 0.009 16.001 -0.387 20.022 0.384 23.902 C 1.156 27.781 3.061 31.345 5.858 34.142 C 8.655 36.939 12.219 38.844 16.098 39.616 C 19.978 40.387 23.999 39.991 27.654 38.478 C 31.308 36.964 34.432 34.4 36.629 31.111 C 38.827 27.822 40 23.956 40 20 C 40 17.374 39.483 14.773 38.478 12.346 C 37.473 9.92 35.999 7.715 34.142 5.858 C 32.285 4.001 30.08 2.528 27.654 1.522 C 25.227 0.517 22.626 0 20 0 Z M 26.89 21.26 L 21.33 21.26 L 21.33 26.81 C 21.346 26.984 21.325 27.16 21.269 27.325 C 21.213 27.491 21.123 27.643 21.005 27.773 C 20.887 27.902 20.743 28.005 20.583 28.075 C 20.423 28.146 20.25 28.182 20.075 28.182 C 19.9 28.182 19.727 28.146 19.567 28.075 C 19.407 28.005 19.263 27.902 19.145 27.773 C 19.027 27.643 18.937 27.491 18.881 27.325 C 18.825 27.16 18.804 26.984 18.82 26.81 L 18.82 21.26 L 13.26 21.26 C 12.926 21.26 12.605 21.127 12.369 20.891 C 12.133 20.655 12 20.334 12 20 C 12 19.666 12.133 19.345 12.369 19.109 C 12.605 18.873 12.926 18.74 13.26 18.74 L 18.82 18.74 L 18.82 13.19 C 18.804 13.016 18.825 12.84 18.881 12.675 C 18.937 12.509 19.027 12.357 19.145 12.227 C 19.263 12.098 19.407 11.995 19.567 11.925 C 19.727 11.854 19.9 11.818 20.075 11.818 C 20.25 11.818 20.423 11.854 20.583 11.925 C 20.743 11.995 20.887 12.098 21.005 12.227 C 21.123 12.357 21.213 12.509 21.269 12.675 C 21.325 12.84 21.346 13.016 21.33 13.19 L 21.33 18.74 L 26.89 18.74 C 27.224 18.74 27.545 18.873 27.781 19.109 C 28.017 19.345 28.15 19.666 28.15 20 C 28.15 20.334 28.017 20.655 27.781 20.891 C 27.545 21.127 27.224 21.26 26.89 21.26 Z" fill="currentColor" fill-rule="nonzero"/>
</svg>
