<svg xmlns="http://www.w3.org/2000/svg" width="40.037" height="40" viewBox="0 0 40.037 40" fill="none">
  <path d="M 19.658 30.435 C 19.874 30.432 20.08 30.345 20.232 30.191 C 20.383 30.038 20.468 29.831 20.468 29.615 L 20.468 27.765 C 21.578 27.659 22.609 27.145 23.363 26.323 C 24.116 25.502 24.539 24.43 24.548 23.315 C 24.548 21.025 23.208 19.685 20.548 18.575 C 18.328 17.575 17.358 16.945 17.358 15.575 C 17.358 14.575 18.098 13.355 20.098 13.355 C 20.934 13.354 21.763 13.514 22.538 13.825 C 22.648 13.872 22.766 13.897 22.885 13.898 C 23.004 13.899 23.122 13.875 23.232 13.83 C 23.342 13.784 23.442 13.717 23.525 13.632 C 23.609 13.547 23.675 13.446 23.718 13.335 C 23.804 13.105 23.796 12.851 23.697 12.627 C 23.598 12.403 23.416 12.226 23.188 12.135 C 22.366 11.824 21.497 11.655 20.618 11.635 L 20.618 9.955 C 20.618 9.74 20.533 9.534 20.381 9.382 C 20.229 9.23 20.023 9.145 19.808 9.145 C 19.6 9.155 19.403 9.245 19.258 9.395 C 19.113 9.546 19.031 9.746 19.028 9.955 L 19.028 11.735 C 17.95 11.799 16.937 12.27 16.194 13.054 C 15.451 13.838 15.034 14.875 15.028 15.955 C 15.028 18.255 16.658 19.435 19.328 20.475 C 21.248 21.285 22.328 22.175 22.328 23.585 C 22.328 24.995 21.028 26.065 19.218 26.065 C 18.229 26.048 17.254 25.834 16.348 25.435 C 16.232 25.38 16.105 25.351 15.976 25.349 C 15.848 25.347 15.72 25.373 15.602 25.424 C 15.484 25.475 15.378 25.55 15.291 25.645 C 15.204 25.74 15.139 25.853 15.098 25.975 C 15.026 26.196 15.039 26.436 15.133 26.648 C 15.227 26.86 15.396 27.03 15.608 27.125 C 16.63 27.578 17.731 27.823 18.848 27.845 L 18.848 29.615 C 18.848 29.831 18.933 30.038 19.085 30.191 C 19.237 30.345 19.443 30.432 19.658 30.435 Z M 33.658 30.845 C 31.814 33.155 29.413 34.96 26.681 36.09 C 23.949 37.219 20.975 37.637 18.037 37.304 C 15.099 36.97 12.294 35.897 9.885 34.184 C 7.475 32.472 5.539 30.175 4.259 27.51 C 2.979 24.846 2.396 21.899 2.564 18.948 C 2.733 15.996 3.648 13.136 5.224 10.634 C 6.8 8.132 8.984 6.072 11.574 4.645 C 14.163 3.218 17.072 2.471 20.028 2.475 C 22.656 2.475 25.25 3.07 27.616 4.214 C 29.982 5.359 32.058 7.024 33.688 9.085 C 33.798 9.22 33.936 9.331 34.091 9.411 C 34.247 9.49 34.417 9.536 34.591 9.545 C 34.766 9.555 34.94 9.527 35.103 9.465 C 35.266 9.403 35.414 9.308 35.538 9.185 C 35.754 8.972 35.884 8.688 35.904 8.386 C 35.924 8.084 35.833 7.785 35.648 7.545 C 33.065 4.299 29.536 1.937 25.55 0.786 C 21.565 -0.366 17.32 -0.249 13.403 1.119 C 9.487 2.488 6.093 5.04 3.692 8.423 C 1.29 11.806 0 15.851 0 20 C 0 24.149 1.29 28.194 3.692 31.577 C 6.093 34.96 9.487 37.512 13.403 38.881 C 17.32 40.249 21.565 40.366 25.55 39.214 C 29.536 38.063 33.065 35.701 35.648 32.455 C 35.849 32.21 35.951 31.9 35.936 31.585 C 35.922 31.269 35.791 30.97 35.568 30.745 C 35.443 30.617 35.292 30.517 35.125 30.452 C 34.958 30.387 34.78 30.358 34.601 30.368 C 34.422 30.377 34.247 30.424 34.088 30.507 C 33.929 30.589 33.789 30.704 33.678 30.845 L 33.658 30.845 Z M 39.658 19.065 C 39.542 18.947 39.403 18.854 39.251 18.791 C 39.098 18.727 38.934 18.695 38.768 18.695 L 30.418 18.695 L 33.798 15.325 C 34.034 15.089 34.167 14.769 34.167 14.435 C 34.167 14.101 34.034 13.781 33.798 13.545 C 33.683 13.426 33.544 13.331 33.392 13.266 C 33.239 13.202 33.074 13.168 32.908 13.168 C 32.742 13.168 32.578 13.202 32.425 13.266 C 32.272 13.331 32.134 13.426 32.018 13.545 L 26.488 19.065 C 26.253 19.301 26.12 19.621 26.12 19.955 C 26.12 20.289 26.253 20.609 26.488 20.845 L 32.028 26.365 C 32.268 26.583 32.582 26.701 32.906 26.693 C 33.23 26.686 33.539 26.554 33.768 26.325 C 33.997 26.096 34.129 25.787 34.137 25.463 C 34.144 25.139 34.027 24.825 33.808 24.585 L 30.428 21.215 L 38.778 21.215 C 39.027 21.215 39.271 21.141 39.477 21.002 C 39.684 20.864 39.845 20.667 39.941 20.437 C 40.036 20.207 40.061 19.954 40.012 19.71 C 39.964 19.466 39.844 19.241 39.668 19.065 L 39.658 19.065 Z" fill="currentColor" fill-rule="nonzero"/>
</svg>
