<svg xmlns="http://www.w3.org/2000/svg" width="36" height="39.992" viewBox="0 0 36 39.992" fill="none">
  <path d="M 5.64 17.082 L 16 6.682 L 16 29.742 C 15.993 30.006 16.04 30.27 16.138 30.515 C 16.236 30.761 16.383 30.984 16.57 31.171 C 16.758 31.359 16.981 31.506 17.227 31.604 C 17.472 31.702 17.735 31.749 18 31.742 C 18.53 31.742 19.039 31.531 19.414 31.156 C 19.789 30.781 20 30.272 20 29.742 L 20 6.682 L 30.4 17.082 C 30.565 17.327 30.782 17.533 31.036 17.684 C 31.29 17.835 31.574 17.928 31.868 17.956 C 32.162 17.984 32.459 17.947 32.737 17.847 C 33.015 17.746 33.267 17.586 33.476 17.377 C 33.684 17.167 33.844 16.915 33.943 16.636 C 34.042 16.358 34.078 16.061 34.049 15.767 C 34.02 15.473 33.926 15.189 33.774 14.936 C 33.622 14.683 33.416 14.466 33.17 14.302 L 19.39 0.562 C 19.017 0.202 18.519 0 18 0 C 17.481 0 16.983 0.202 16.61 0.562 L 2.87 14.302 C 2.624 14.466 2.418 14.683 2.266 14.936 C 2.114 15.189 2.02 15.473 1.991 15.767 C 1.962 16.061 1.998 16.358 2.097 16.636 C 2.196 16.915 2.356 17.167 2.564 17.377 C 2.773 17.586 3.025 17.746 3.303 17.847 C 3.581 17.947 3.878 17.984 4.172 17.956 C 4.466 17.928 4.75 17.835 5.004 17.684 C 5.258 17.533 5.475 17.327 5.64 17.082 Z M 34 35.992 L 2 35.992 C 1.47 35.992 0.961 36.203 0.586 36.578 C 0.211 36.953 0 37.462 0 37.992 C 0 38.522 0.211 39.031 0.586 39.406 C 0.961 39.781 1.47 39.992 2 39.992 L 34 39.992 C 34.53 39.992 35.039 39.781 35.414 39.406 C 35.789 39.031 36 38.522 36 37.992 C 36 37.462 35.789 36.953 35.414 36.578 C 35.039 36.203 34.53 35.992 34 35.992 Z" fill="currentColor" fill-rule="nonzero"/>
</svg>
