<svg xmlns="http://www.w3.org/2000/svg" width="43.939" height="40.007" viewBox="0 0 43.939 40.007" fill="none">
  <path d="M 43.908 18.886 C 43.688 14.942 42.305 11.15 39.932 7.991 C 37.56 4.831 34.305 2.445 30.578 1.134 C 26.851 -0.177 22.819 -0.356 18.991 0.622 C 15.163 1.599 11.71 3.689 9.068 6.626 C 8.954 6.753 8.866 6.9 8.81 7.061 C 8.754 7.222 8.731 7.392 8.743 7.562 C 8.754 7.732 8.799 7.897 8.876 8.049 C 8.952 8.201 9.058 8.336 9.188 8.446 C 9.435 8.651 9.752 8.753 10.072 8.73 C 10.392 8.708 10.692 8.563 10.908 8.326 C 13.609 5.313 17.271 3.329 21.27 2.712 C 25.27 2.094 29.36 2.882 32.844 4.941 C 36.327 7 38.99 10.203 40.378 14.005 C 41.766 17.806 41.794 21.971 40.456 25.79 C 39.119 29.61 36.499 32.848 33.043 34.953 C 29.587 37.058 25.508 37.9 21.5 37.336 C 17.493 36.772 13.805 34.837 11.064 31.859 C 8.323 28.882 6.699 25.047 6.468 21.006 L 8.408 22.606 C 8.534 22.725 8.683 22.817 8.847 22.876 C 9.01 22.935 9.183 22.96 9.356 22.949 C 9.529 22.939 9.698 22.893 9.853 22.814 C 10.008 22.736 10.144 22.627 10.255 22.493 C 10.366 22.36 10.448 22.205 10.497 22.039 C 10.546 21.872 10.56 21.698 10.539 21.526 C 10.517 21.354 10.461 21.188 10.373 21.038 C 10.285 20.889 10.168 20.759 10.028 20.656 L 6.088 17.396 C 5.859 17.21 5.573 17.108 5.278 17.108 C 4.983 17.108 4.697 17.21 4.468 17.396 L 0.468 20.676 C 0.338 20.782 0.231 20.912 0.152 21.059 C 0.072 21.206 0.023 21.368 0.006 21.534 C -0.01 21.7 0.006 21.868 0.054 22.028 C 0.103 22.188 0.182 22.337 0.288 22.466 C 0.411 22.612 0.564 22.728 0.737 22.807 C 0.91 22.887 1.098 22.928 1.288 22.926 C 1.583 22.926 1.87 22.824 2.098 22.636 L 3.948 21.106 C 4.242 26.405 6.63 31.37 10.585 34.909 C 14.54 38.448 19.739 40.271 25.038 39.976 C 30.337 39.682 35.302 37.295 38.841 33.34 C 42.38 29.384 44.202 24.185 43.908 18.886 Z M 23.908 8.406 C 23.533 8.409 23.174 8.56 22.91 8.826 C 22.646 9.092 22.498 9.452 22.498 9.826 L 22.498 21.936 L 31.498 25.736 C 31.845 25.883 32.235 25.888 32.586 25.752 C 32.936 25.616 33.221 25.348 33.378 25.006 C 33.45 24.834 33.488 24.65 33.489 24.463 C 33.49 24.277 33.454 24.092 33.383 23.919 C 33.313 23.746 33.209 23.589 33.078 23.456 C 32.946 23.324 32.79 23.219 32.618 23.146 L 25.308 20.056 L 25.308 9.826 C 25.305 9.454 25.158 9.097 24.896 8.832 C 24.635 8.567 24.28 8.414 23.908 8.406 Z" fill="currentColor" fill-rule="nonzero"/>
</svg>
