<svg xmlns="http://www.w3.org/2000/svg" width="25.016" height="40.000" viewBox="0 0 25.016 40.000" fill="none">
  <path d="M 1.186 40 C 0.862 39.972 0.561 39.823 0.341 39.583 C 0.122 39.343 0 39.03 0 38.705 C 0 38.38 0.122 38.067 0.341 37.827 C 0.561 37.587 0.862 37.439 1.186 37.41 L 2.256 37.41 C 2.27 37.412 2.283 37.41 2.296 37.406 C 2.309 37.401 2.321 37.394 2.33 37.384 C 2.34 37.375 2.347 37.363 2.352 37.35 C 2.356 37.337 2.358 37.324 2.356 37.31 L 2.356 28 C 2.352 27.263 2.522 26.536 2.852 25.878 C 3.182 25.219 3.663 24.648 4.256 24.21 L 9.996 20.11 C 10.011 20.103 10.023 20.091 10.032 20.077 C 10.04 20.063 10.045 20.047 10.045 20.03 C 10.045 20.014 10.04 19.997 10.032 19.983 C 10.023 19.969 10.011 19.958 9.996 19.95 L 4.256 15.85 C 3.654 15.408 3.167 14.827 2.836 14.157 C 2.506 13.487 2.341 12.747 2.356 12 L 2.356 2.69 C 2.358 2.677 2.356 2.663 2.352 2.65 C 2.347 2.637 2.34 2.626 2.33 2.616 C 2.321 2.606 2.309 2.599 2.296 2.594 C 2.283 2.59 2.27 2.589 2.256 2.59 L 1.186 2.59 C 0.862 2.562 0.561 2.413 0.341 2.173 C 0.122 1.933 0 1.62 0 1.295 C 0 0.97 0.122 0.657 0.341 0.417 C 0.561 0.177 0.862 0.029 1.186 0 L 23.686 0 C 23.861 -0.003 24.036 0.03 24.198 0.096 C 24.361 0.162 24.509 0.26 24.633 0.384 C 24.757 0.508 24.854 0.655 24.92 0.818 C 24.986 0.981 25.019 1.155 25.016 1.33 C 25.008 1.667 24.869 1.988 24.628 2.223 C 24.387 2.458 24.063 2.59 23.726 2.59 L 22.616 2.59 C 22.59 2.59 22.564 2.601 22.545 2.619 C 22.527 2.638 22.516 2.664 22.516 2.69 L 22.516 12 C 22.524 12.737 22.357 13.464 22.029 14.123 C 21.7 14.782 21.219 15.354 20.626 15.79 L 14.876 19.89 C 14.864 19.899 14.854 19.912 14.847 19.925 C 14.84 19.939 14.836 19.955 14.836 19.97 C 14.836 19.986 14.84 20.001 14.847 20.015 C 14.854 20.029 14.864 20.041 14.876 20.05 L 20.626 24.15 C 21.22 24.597 21.699 25.18 22.02 25.85 C 22.342 26.52 22.499 27.257 22.476 28 L 22.476 37.34 C 22.476 37.367 22.487 37.392 22.505 37.411 C 22.524 37.43 22.55 37.44 22.576 37.44 L 23.646 37.44 C 23.821 37.437 23.996 37.47 24.158 37.536 C 24.321 37.602 24.469 37.7 24.593 37.824 C 24.717 37.948 24.814 38.095 24.88 38.258 C 24.946 38.421 24.979 38.595 24.976 38.77 C 24.963 39.096 24.827 39.404 24.595 39.633 C 24.363 39.861 24.052 39.993 23.726 40 L 1.186 40 Z M 12.476 31.31 C 12.15 31.313 11.829 31.388 11.536 31.53 L 5.046 34.71 C 5.029 34.718 5.014 34.73 5.003 34.746 C 4.992 34.762 4.986 34.781 4.986 34.8 L 4.986 37.31 C 4.986 37.337 4.997 37.362 5.015 37.381 C 5.034 37.4 5.06 37.41 5.086 37.41 L 19.826 37.41 C 19.84 37.412 19.853 37.41 19.866 37.406 C 19.879 37.401 19.891 37.394 19.9 37.384 C 19.91 37.375 19.917 37.363 19.922 37.35 C 19.926 37.337 19.928 37.324 19.926 37.31 L 19.926 34.8 C 19.926 34.782 19.921 34.765 19.912 34.749 C 19.904 34.733 19.891 34.72 19.876 34.71 L 13.376 31.53 C 13.096 31.393 12.788 31.318 12.476 31.31 Z M 12.476 28.73 C 13.197 28.732 13.907 28.896 14.556 29.21 L 19.826 31.79 L 19.926 31.79 C 19.941 31.78 19.954 31.767 19.962 31.751 C 19.971 31.736 19.976 31.718 19.976 31.7 L 19.976 28 C 19.98 27.677 19.909 27.356 19.769 27.065 C 19.628 26.773 19.422 26.518 19.166 26.32 L 12.476 21.56 L 12.416 21.56 L 12.366 21.56 L 5.736 26.29 C 5.48 26.493 5.275 26.754 5.138 27.051 C 5 27.348 4.935 27.673 4.946 28 L 4.946 31.7 C 4.946 31.718 4.951 31.736 4.96 31.751 C 4.969 31.767 4.981 31.78 4.996 31.79 L 5.096 31.79 L 10.356 29.21 C 11.018 28.892 11.742 28.728 12.476 28.73 Z M 5.476 13.12 C 5.458 13.121 5.441 13.125 5.425 13.134 C 5.409 13.143 5.396 13.155 5.386 13.17 C 5.376 13.187 5.371 13.206 5.371 13.225 C 5.371 13.244 5.376 13.263 5.386 13.28 C 5.503 13.445 5.644 13.59 5.806 13.71 L 11.636 17.87 C 11.884 18.055 12.186 18.154 12.496 18.15 C 12.803 18.154 13.102 18.055 13.346 17.87 L 19.176 13.72 C 19.333 13.594 19.471 13.446 19.586 13.28 C 19.594 13.263 19.597 13.244 19.597 13.225 C 19.597 13.206 19.594 13.188 19.586 13.17 C 19.576 13.155 19.563 13.143 19.547 13.134 C 19.532 13.125 19.514 13.121 19.496 13.12 L 5.476 13.12 Z M 5.056 2.58 C 5.03 2.57 5.002 2.57 4.976 2.58 C 4.972 2.603 4.972 2.627 4.976 2.65 L 4.976 10.4 C 4.976 10.414 4.979 10.428 4.985 10.441 C 4.99 10.454 4.998 10.465 5.009 10.475 C 5.019 10.484 5.031 10.491 5.045 10.496 C 5.058 10.5 5.072 10.502 5.086 10.5 L 19.836 10.5 C 19.863 10.5 19.888 10.49 19.907 10.471 C 19.926 10.452 19.936 10.427 19.936 10.4 L 19.936 2.69 C 19.938 2.678 19.936 2.665 19.932 2.653 C 19.928 2.641 19.922 2.629 19.914 2.62 C 19.905 2.61 19.895 2.603 19.883 2.598 C 19.871 2.593 19.859 2.59 19.846 2.59 L 5.056 2.58 Z" fill="currentColor" fill-rule="nonzero"/>
</svg>
