<svg xmlns="http://www.w3.org/2000/svg" width="34.900" height="34.800" viewBox="0 0 34.900 34.800" fill="none">
  <path d="M 12 32.5 L 30.5 14 L 33.1 11.4 C 35.5 9 35.5 5.1 33.1 2.6 L 32.7 2.2 L 32.3 1.8 C 29.7 -0.6 25.8 -0.6 23.4 1.8 L 20.8 4.4 L 2.3 22.8 C 2.1 23 1.9 23.3 1.8 23.6 L 0 34.8 L 11.2 32.9 C 11.5 32.9 11.8 32.7 12 32.5 Z M 25.3 3.7 C 26.7 2.3 28.9 2.3 30.3 3.7 L 30.7 4.1 L 31.1 4.5 C 32.5 5.9 32.5 8.1 31.1 9.5 L 30.3 10.3 L 30.2 10.4 C 30.1 10.4 30.1 10.4 30.1 10.4 L 27.3 7.6 L 24.4 4.8 L 24.4 4.7 C 24.4 4.6 24.4 4.6 24.5 4.6 L 25.3 3.7 Z M 10.3 30.5 L 3.5 31.5 C 3.4 31.5 3.3 31.5 3.3 31.4 C 3.3 31.4 3.3 31.4 3.3 31.3 L 4.4 24.5 C 4.4 24.5 4.4 24.4 4.5 24.4 L 22.4 6.6 L 22.5 6.5 C 22.5 6.5 22.6 6.5 22.6 6.6 L 25.4 9.4 L 28.2 12.2 L 28.2 12.3 L 28.2 12.4 L 10.4 30.4 L 10.3 30.5 Z" fill="currentColor" fill-rule="nonzero"/>
</svg>
