<svg xmlns="http://www.w3.org/2000/svg" width="36" height="32" viewBox="0 0 36 32" fill="none">
  <path d="M 1.25 18.25 L 2.33 18.25 L 2.33 21 L 4.84 21 L 4.84 18.25 L 6.56 18.25 C 6.874 18.222 7.165 18.078 7.378 17.845 C 7.59 17.613 7.708 17.31 7.708 16.995 C 7.708 16.68 7.59 16.377 7.378 16.145 C 7.165 15.912 6.874 15.768 6.56 15.74 L 1.25 15.74 C 0.936 15.768 0.645 15.912 0.432 16.145 C 0.22 16.377 0.102 16.68 0.102 16.995 C 0.102 17.31 0.22 17.613 0.432 17.845 C 0.645 18.078 0.936 18.222 1.25 18.25 Z M 23.58 9.59 C 22.313 9.592 21.074 9.97 20.022 10.675 C 18.969 11.381 18.149 12.382 17.665 13.554 C 17.181 14.725 17.056 16.014 17.304 17.257 C 17.553 18.499 18.164 19.641 19.061 20.536 C 19.958 21.432 21.1 22.041 22.343 22.288 C 23.586 22.534 24.875 22.407 26.045 21.921 C 27.216 21.436 28.217 20.614 28.92 19.56 C 29.624 18.506 30 17.267 30 16 C 30 15.157 29.834 14.323 29.511 13.545 C 29.188 12.766 28.715 12.059 28.119 11.464 C 27.523 10.869 26.815 10.397 26.036 10.075 C 25.257 9.754 24.423 9.589 23.58 9.59 Z M 23.58 19.91 C 22.806 19.912 22.049 19.684 21.405 19.256 C 20.761 18.827 20.258 18.218 19.961 17.503 C 19.663 16.789 19.584 16.002 19.734 15.243 C 19.884 14.484 20.255 13.787 20.802 13.239 C 21.348 12.691 22.045 12.318 22.804 12.166 C 23.562 12.014 24.349 12.091 25.064 12.387 C 25.779 12.682 26.39 13.183 26.82 13.827 C 27.25 14.47 27.48 15.226 27.48 16 C 27.477 17.034 27.066 18.026 26.335 18.758 C 25.605 19.491 24.614 19.905 23.58 19.91 Z M 1.25 10.23 L 2.33 10.23 L 2.33 12.94 L 4.84 12.94 L 4.84 10.23 L 6.56 10.23 C 6.892 10.23 7.209 10.098 7.444 9.864 C 7.678 9.629 7.81 9.312 7.81 8.98 C 7.81 8.648 7.678 8.331 7.444 8.096 C 7.209 7.862 6.892 7.73 6.56 7.73 L 1.25 7.73 C 0.918 7.73 0.601 7.862 0.366 8.096 C 0.132 8.331 0 8.648 0 8.98 C 0 9.312 0.132 9.629 0.366 9.864 C 0.601 10.098 0.918 10.23 1.25 10.23 Z M 32 0 L 6.34 0 C 5.279 0 4.262 0.421 3.512 1.172 C 2.761 1.922 2.34 2.939 2.34 4 L 2.34 5.05 L 4.84 5.05 L 4.84 4 C 4.843 3.601 5.003 3.22 5.286 2.939 C 5.569 2.658 5.951 2.5 6.35 2.5 L 11.16 2.5 L 11.16 29.5 L 6.34 29.5 C 5.941 29.5 5.559 29.342 5.276 29.061 C 4.993 28.78 4.833 28.399 4.83 28 L 4.83 26.26 L 6.56 26.26 C 6.892 26.26 7.209 26.128 7.444 25.894 C 7.678 25.659 7.81 25.342 7.81 25.01 C 7.81 24.678 7.678 24.361 7.444 24.126 C 7.209 23.892 6.892 23.76 6.56 23.76 L 1.25 23.76 C 0.918 23.76 0.601 23.892 0.366 24.126 C 0.132 24.361 0 24.678 0 25.01 C 0 25.342 0.132 25.659 0.366 25.894 C 0.601 26.128 0.918 26.26 1.25 26.26 L 2.33 26.26 L 2.33 28 C 2.33 29.061 2.751 30.078 3.502 30.828 C 4.252 31.579 5.269 32 6.33 32 L 32 32 C 33.061 32 34.078 31.579 34.828 30.828 C 35.579 30.078 36 29.061 36 28 L 36 4 C 36 2.939 35.579 1.922 34.828 1.172 C 34.078 0.421 33.061 0 32 0 Z M 33.5 28 C 33.495 28.395 33.335 28.773 33.054 29.051 C 32.774 29.33 32.395 29.487 32 29.49 L 13.66 29.49 L 13.66 2.49 L 32 2.49 C 32.399 2.493 32.78 2.653 33.061 2.936 C 33.342 3.219 33.5 3.601 33.5 4 L 33.5 28 Z" fill="currentColor" fill-rule="nonzero"/>
</svg>
