<svg xmlns="http://www.w3.org/2000/svg" width="39.738" height="23.774" viewBox="0 0 39.738 23.774" fill="none">
  <path d="M 35.381 0 C 34.17 0.003 33.009 0.485 32.153 1.341 C 31.296 2.198 30.814 3.359 30.811 4.57 C 30.819 5.589 31.172 6.576 31.811 7.37 L 25.621 14.83 C 25.006 14.549 24.335 14.412 23.659 14.431 C 22.983 14.45 22.32 14.624 21.721 14.94 L 17.721 10.71 C 18.284 9.94 18.588 9.013 18.591 8.06 C 18.6 7.355 18.445 6.658 18.14 6.023 C 17.834 5.388 17.386 4.832 16.83 4.399 C 16.273 3.966 15.625 3.668 14.934 3.527 C 14.244 3.386 13.53 3.407 12.849 3.588 C 12.168 3.769 11.538 4.105 11.008 4.57 C 10.478 5.035 10.063 5.616 9.795 6.268 C 9.527 6.919 9.413 7.624 9.463 8.327 C 9.513 9.03 9.724 9.712 10.081 10.32 L 6.651 14.18 C 6.032 13.865 5.347 13.701 4.651 13.7 C 3.628 13.691 2.631 14.022 1.817 14.642 C 1.003 15.262 0.418 16.136 0.155 17.125 C -0.108 18.114 -0.035 19.162 0.364 20.104 C 0.762 21.047 1.463 21.83 2.355 22.331 C 3.248 22.831 4.282 23.021 5.294 22.869 C 6.306 22.717 7.238 22.233 7.945 21.493 C 8.651 20.752 9.092 19.798 9.196 18.78 C 9.3 17.762 9.063 16.738 8.521 15.87 L 11.921 12.08 C 12.572 12.436 13.3 12.624 14.041 12.63 C 14.628 12.626 15.208 12.511 15.751 12.29 L 19.861 16.67 C 19.433 17.368 19.205 18.171 19.201 18.99 C 19.173 19.607 19.269 20.224 19.486 20.803 C 19.702 21.382 20.034 21.912 20.46 22.359 C 20.887 22.806 21.4 23.162 21.968 23.405 C 22.537 23.648 23.148 23.774 23.766 23.774 C 24.385 23.774 24.996 23.648 25.565 23.405 C 26.133 23.162 26.646 22.806 27.073 22.359 C 27.499 21.912 27.831 21.382 28.047 20.803 C 28.264 20.224 28.36 19.607 28.331 18.99 C 28.332 18.084 28.061 17.199 27.551 16.45 L 33.861 8.85 C 34.348 9.031 34.862 9.126 35.381 9.13 C 36.555 9.075 37.663 8.57 38.474 7.72 C 39.285 6.87 39.738 5.74 39.738 4.565 C 39.738 3.39 39.285 2.26 38.474 1.41 C 37.663 0.56 36.555 0.055 35.381 0 Z M 4.661 20.3 C 4.266 20.3 3.879 20.183 3.55 19.963 C 3.221 19.743 2.965 19.431 2.814 19.065 C 2.662 18.7 2.623 18.298 2.7 17.91 C 2.777 17.522 2.968 17.165 3.247 16.886 C 3.527 16.606 3.883 16.416 4.271 16.338 C 4.659 16.261 5.061 16.301 5.427 16.452 C 5.792 16.604 6.105 16.86 6.324 17.189 C 6.544 17.518 6.661 17.904 6.661 18.3 C 6.661 18.83 6.451 19.339 6.076 19.714 C 5.701 20.089 5.192 20.3 4.661 20.3 Z M 12.021 8.06 C 12.021 7.664 12.139 7.278 12.359 6.949 C 12.578 6.62 12.891 6.364 13.256 6.212 C 13.622 6.061 14.024 6.021 14.412 6.098 C 14.8 6.176 15.156 6.366 15.436 6.646 C 15.715 6.925 15.906 7.282 15.983 7.67 C 16.06 8.058 16.021 8.46 15.869 8.825 C 15.718 9.191 15.461 9.503 15.133 9.723 C 14.804 9.943 14.417 10.06 14.021 10.06 C 13.491 10.06 12.982 9.849 12.607 9.474 C 12.232 9.099 12.021 8.59 12.021 8.06 Z M 23.781 21.06 C 23.386 21.06 22.999 20.943 22.67 20.723 C 22.341 20.503 22.085 20.191 21.934 19.825 C 21.782 19.46 21.743 19.058 21.82 18.67 C 21.897 18.282 22.088 17.925 22.367 17.646 C 22.647 17.366 23.003 17.176 23.391 17.098 C 23.779 17.021 24.181 17.061 24.547 17.212 C 24.912 17.364 25.225 17.62 25.444 17.949 C 25.664 18.278 25.781 18.664 25.781 19.06 C 25.774 19.587 25.558 20.089 25.182 20.458 C 24.805 20.827 24.298 21.033 23.771 21.03 L 23.781 21.06 Z M 35.381 6.6 C 34.986 6.6 34.599 6.483 34.27 6.263 C 33.941 6.043 33.685 5.731 33.534 5.365 C 33.382 5 33.343 4.598 33.42 4.21 C 33.497 3.822 33.688 3.465 33.967 3.186 C 34.247 2.906 34.603 2.716 34.991 2.638 C 35.379 2.561 35.781 2.601 36.147 2.752 C 36.512 2.904 36.825 3.16 37.044 3.489 C 37.264 3.818 37.381 4.204 37.381 4.6 C 37.381 5.13 37.171 5.639 36.796 6.014 C 36.421 6.389 35.912 6.6 35.381 6.6 Z" fill="currentColor" fill-rule="nonzero"/>
</svg>
