<svg xmlns="http://www.w3.org/2000/svg" width="40.010" height="39.990" viewBox="0 0 40.010 39.990" fill="none">
  <path d="M 20.01 32.23 C 20.355 32.23 20.686 32.367 20.93 32.61 C 21.173 32.854 21.31 33.186 21.31 33.53 L 21.31 38.69 C 21.309 39.035 21.173 39.366 20.93 39.609 C 20.686 39.853 20.355 39.99 20.01 39.99 C 19.665 39.99 19.335 39.853 19.091 39.609 C 18.847 39.366 18.71 39.035 18.71 38.69 L 18.71 33.53 C 18.71 33.185 18.847 32.854 19.091 32.61 C 19.335 32.367 19.665 32.231 20.01 32.23 Z M 10.46 28.272 C 10.791 28.282 11.106 28.416 11.341 28.649 C 11.575 28.883 11.712 29.198 11.723 29.528 C 11.734 29.859 11.619 30.181 11.4 30.43 L 7.7 34.13 C 7.58 34.251 7.436 34.347 7.278 34.412 C 7.12 34.477 6.951 34.51 6.78 34.51 C 6.435 34.51 6.104 34.373 5.86 34.129 C 5.617 33.885 5.48 33.555 5.48 33.21 C 5.487 32.869 5.623 32.544 5.86 32.3 L 9.56 28.6 C 9.807 28.38 10.129 28.263 10.46 28.272 Z M 29.711 28.465 C 30.034 28.449 30.35 28.554 30.6 28.76 L 34.15 32.3 C 34.392 32.545 34.527 32.876 34.527 33.22 C 34.527 33.564 34.392 33.895 34.15 34.14 C 33.908 34.378 33.58 34.511 33.24 34.51 L 33.229 34.51 C 33.059 34.512 32.888 34.48 32.73 34.415 C 32.572 34.35 32.429 34.252 32.31 34.13 L 28.77 30.59 C 28.564 30.341 28.459 30.024 28.475 29.701 C 28.49 29.378 28.625 29.072 28.854 28.844 C 29.082 28.615 29.388 28.48 29.711 28.465 Z M 18.06 10.183 C 19.999 9.797 22.01 9.994 23.837 10.751 C 25.664 11.508 27.226 12.79 28.325 14.435 C 29.424 16.079 30.01 18.013 30.01 19.99 C 30.01 22.642 28.956 25.186 27.081 27.062 C 25.206 28.937 22.662 29.99 20.01 29.99 C 18.032 29.99 16.099 29.403 14.454 28.305 C 12.81 27.206 11.528 25.644 10.771 23.816 C 10.015 21.989 9.816 19.979 10.202 18.039 C 10.588 16.099 11.54 14.317 12.938 12.919 C 14.337 11.52 16.12 10.568 18.06 10.183 Z M 20.01 12.6 C 18.543 12.598 17.109 13.032 15.889 13.846 C 14.668 14.66 13.717 15.817 13.155 17.172 C 12.593 18.527 12.446 20.018 12.732 21.457 C 13.019 22.895 13.726 24.216 14.764 25.253 C 15.802 26.289 17.124 26.995 18.563 27.279 C 20.002 27.564 21.494 27.415 22.848 26.852 C 24.202 26.288 25.358 25.335 26.17 24.113 C 26.982 22.892 27.414 21.457 27.41 19.99 C 27.408 18.028 26.627 16.146 25.24 14.757 C 23.853 13.368 21.972 12.585 20.01 12.58 L 20.01 12.6 Z M 6.46 18.69 C 6.805 18.69 7.135 18.827 7.379 19.07 C 7.623 19.314 7.76 19.645 7.76 19.99 C 7.76 20.335 7.623 20.665 7.379 20.909 C 7.135 21.153 6.805 21.29 6.46 21.29 L 1.3 21.29 C 0.955 21.29 0.625 21.153 0.381 20.909 C 0.137 20.665 0 20.335 0 19.99 C 0 19.645 0.137 19.314 0.381 19.07 C 0.625 18.827 0.955 18.69 1.3 18.69 L 6.46 18.69 Z M 38.71 18.69 C 39.055 18.69 39.385 18.827 39.629 19.07 C 39.873 19.314 40.01 19.645 40.01 19.99 C 40.01 20.335 39.873 20.665 39.629 20.909 C 39.385 21.153 39.055 21.29 38.71 21.29 L 33.62 21.29 C 33.275 21.29 32.945 21.153 32.701 20.909 C 32.457 20.665 32.32 20.335 32.32 19.99 C 32.32 19.645 32.457 19.314 32.701 19.07 C 32.945 18.827 33.276 18.69 33.62 18.69 L 38.71 18.69 Z M 33.211 5.396 C 33.384 5.384 33.557 5.407 33.721 5.463 C 33.885 5.519 34.036 5.607 34.165 5.723 C 34.294 5.838 34.399 5.978 34.474 6.135 C 34.548 6.291 34.591 6.461 34.599 6.634 C 34.606 6.807 34.579 6.979 34.52 7.142 C 34.46 7.304 34.368 7.453 34.25 7.58 C 34.218 7.618 34.181 7.652 34.14 7.68 L 30.6 11.23 C 30.479 11.351 30.335 11.447 30.178 11.512 C 30.02 11.577 29.85 11.611 29.68 11.61 C 29.423 11.609 29.173 11.531 28.961 11.388 C 28.748 11.244 28.583 11.04 28.485 10.803 C 28.388 10.566 28.364 10.305 28.414 10.054 C 28.465 9.802 28.588 9.571 28.77 9.39 L 32.31 5.85 C 32.422 5.718 32.56 5.61 32.715 5.532 C 32.869 5.454 33.038 5.407 33.211 5.396 Z M 6.78 5.469 C 7.125 5.469 7.456 5.606 7.7 5.85 L 11.19 9.34 C 11.368 9.523 11.488 9.755 11.535 10.006 C 11.583 10.257 11.556 10.516 11.458 10.752 C 11.36 10.988 11.195 11.189 10.984 11.333 C 10.773 11.476 10.526 11.555 10.271 11.56 C 9.926 11.556 9.596 11.42 9.35 11.18 L 5.86 7.69 C 5.74 7.57 5.644 7.425 5.578 7.268 C 5.513 7.11 5.479 6.94 5.479 6.77 C 5.48 6.425 5.616 6.094 5.86 5.85 C 6.104 5.606 6.435 5.469 6.78 5.469 Z M 20.01 0 C 20.355 0 20.686 0.137 20.93 0.381 C 21.173 0.625 21.31 0.955 21.31 1.3 L 21.31 6.3 C 21.31 6.645 21.173 6.976 20.93 7.22 C 20.686 7.464 20.355 7.6 20.01 7.6 C 19.665 7.6 19.335 7.463 19.091 7.22 C 18.847 6.976 18.71 6.645 18.71 6.3 L 18.71 1.3 C 18.71 0.955 18.847 0.625 19.091 0.381 C 19.335 0.137 19.665 0 20.01 0 Z" fill="currentColor" fill-rule="nonzero"/>
</svg>
