<svg xmlns="http://www.w3.org/2000/svg" width="40.022" height="40" viewBox="0 0 40.022 40" fill="none">
  <path d="M 23.489 21.286 C 23.855 20.786 24.151 20.237 24.369 19.656 C 25.072 17.819 25.025 15.779 24.239 13.976 C 23.848 13.077 23.28 12.265 22.569 11.59 C 21.857 10.915 21.017 10.39 20.099 10.046 C 19.19 9.693 18.22 9.523 17.246 9.545 C 16.271 9.568 15.31 9.782 14.419 10.176 C 13.52 10.565 12.708 11.132 12.033 11.841 C 11.358 12.551 10.833 13.389 10.489 14.306 C 9.78 16.139 9.827 18.178 10.619 19.976 C 11.008 20.876 11.575 21.688 12.284 22.365 C 12.994 23.042 13.832 23.569 14.749 23.916 C 15.961 24.385 17.278 24.517 18.559 24.296 C 19.199 24.197 19.826 24.026 20.429 23.786 C 20.839 23.576 21.259 23.356 21.599 23.156 L 27.659 29.336 C 27.798 29.485 27.973 29.596 28.167 29.659 C 28.361 29.722 28.568 29.735 28.769 29.696 C 29.026 29.652 29.266 29.534 29.459 29.356 C 29.577 29.238 29.671 29.098 29.735 28.944 C 29.799 28.789 29.832 28.623 29.832 28.456 C 29.832 28.289 29.799 28.123 29.735 27.969 C 29.671 27.814 29.577 27.674 29.459 27.556 L 23.489 21.286 Z M 22.019 18.746 C 21.529 19.944 20.603 20.913 19.429 21.456 C 18.839 21.713 18.202 21.846 17.559 21.846 C 16.915 21.846 16.278 21.713 15.689 21.456 C 14.49 20.964 13.519 20.039 12.969 18.866 C 12.711 18.276 12.579 17.64 12.579 16.996 C 12.579 16.353 12.711 15.716 12.969 15.126 C 13.285 14.334 13.805 13.64 14.476 13.114 C 15.147 12.587 15.944 12.246 16.789 12.126 C 17.636 12.006 18.5 12.106 19.299 12.416 C 20.49 12.905 21.443 13.842 21.951 15.026 C 22.46 16.209 22.484 17.545 22.019 18.746 Z M 28.669 1.976 C 25.529 0.466 22.049 -0.198 18.574 0.051 C 15.099 0.299 11.749 1.451 8.856 3.393 C 5.963 5.334 3.627 7.997 2.08 11.119 C 0.533 14.241 -0.172 17.712 0.035 21.19 C 0.243 24.668 1.355 28.031 3.262 30.947 C 5.169 33.863 7.805 36.23 10.908 37.814 C 14.011 39.398 17.474 40.143 20.954 39.977 C 24.434 39.811 27.81 38.739 30.749 36.866 C 33.852 34.878 36.364 32.09 38.019 28.796 C 39.168 26.422 39.837 23.844 39.989 21.21 C 40.141 18.577 39.772 15.939 38.904 13.448 C 38.035 10.957 36.684 8.662 34.928 6.693 C 33.172 4.725 31.045 3.122 28.669 1.976 Z M 35.609 27.626 C 34.178 30.491 32.014 32.927 29.339 34.686 C 26.085 36.734 22.243 37.641 18.417 37.266 C 14.591 36.891 10.998 35.254 8.204 32.613 C 5.41 29.972 3.574 26.477 2.984 22.679 C 2.394 18.88 3.084 14.993 4.945 11.629 C 6.806 8.265 9.733 5.616 13.265 4.097 C 16.796 2.579 20.733 2.278 24.454 3.242 C 28.176 4.206 31.471 6.381 33.822 9.423 C 36.172 12.465 37.445 16.202 37.439 20.046 C 37.382 22.676 36.754 25.263 35.599 27.626 L 35.609 27.626 Z" fill="currentColor" fill-rule="nonzero"/>
</svg>
