<svg xmlns="http://www.w3.org/2000/svg" width="29.639" height="40.040" viewBox="0 0 29.639 40.040" fill="none">
  <path d="M 24.7 18.532 C 28.56 21.852 30.45 25.812 29.31 30.852 C 28.23 35.682 24.38 39.532 19.38 39.852 C 12.97 40.212 6.52 39.942 0 39.942 L 0 0.002 L 1.63 0.002 C 6.24 0.002 10.86 0.072 15.46 0.002 C 20.31 -0.078 23.94 1.882 26.18 6.172 C 28.42 10.462 27.75 14.282 25 18.002 C 24.891 18.174 24.791 18.351 24.7 18.532 Z M 5.9 34.002 C 10.24 34.002 14.48 34.172 18.69 33.942 C 20.066 33.774 21.334 33.109 22.254 32.073 C 23.175 31.036 23.686 29.699 23.69 28.312 C 23.707 26.891 23.197 25.515 22.259 24.447 C 21.321 23.38 20.021 22.698 18.61 22.532 C 15.3 22.272 11.96 22.402 8.61 22.372 L 5.82 22.372 L 5.82 32.542 C 5.82 33.042 5.88 33.542 5.91 33.992 L 5.9 34.002 Z M 5.82 16.282 C 9.58 16.282 13.19 16.412 16.82 16.232 C 18.054 16.115 19.202 15.552 20.051 14.649 C 20.9 13.746 21.392 12.565 21.433 11.327 C 21.475 10.088 21.064 8.877 20.278 7.919 C 19.491 6.961 18.383 6.323 17.16 6.122 C 15.166 5.925 13.162 5.861 11.16 5.932 C 9.4 5.932 7.65 5.932 5.87 5.932 L 5.82 16.282 Z" fill="currentColor" fill-rule="nonzero"/>
</svg>
