<svg xmlns="http://www.w3.org/2000/svg" width="39.855" height="23.508" viewBox="0 0 39.855 23.508" fill="none">
  <path d="M 38.697 4.329 L 21.187 4.329 C 20.906 3.099 20.216 2.001 19.23 1.215 C 18.243 0.428 17.019 0 15.757 0 C 14.496 0 13.272 0.428 12.285 1.215 C 11.299 2.001 10.608 3.099 10.327 4.329 L 1.157 4.329 C 0.841 4.357 0.547 4.503 0.333 4.737 C 0.119 4.971 0 5.277 0 5.594 C 0 5.911 0.119 6.217 0.333 6.451 C 0.547 6.685 0.841 6.831 1.157 6.859 L 10.327 6.859 C 10.608 8.089 11.299 9.187 12.285 9.973 C 13.272 10.76 14.496 11.188 15.757 11.188 C 17.019 11.188 18.243 10.76 19.23 9.973 C 20.216 9.187 20.906 8.089 21.187 6.859 L 38.697 6.859 C 39.014 6.831 39.308 6.685 39.522 6.451 C 39.736 6.217 39.855 5.911 39.855 5.594 C 39.855 5.277 39.736 4.971 39.522 4.737 C 39.308 4.503 39.014 4.357 38.697 4.329 Z M 15.757 8.649 C 15.152 8.651 14.559 8.473 14.055 8.138 C 13.55 7.803 13.156 7.326 12.923 6.767 C 12.69 6.208 12.628 5.592 12.745 4.998 C 12.862 4.404 13.153 3.858 13.58 3.429 C 14.008 3 14.553 2.707 15.147 2.589 C 15.741 2.47 16.356 2.53 16.916 2.761 C 17.476 2.992 17.954 3.385 18.291 3.888 C 18.628 4.391 18.807 4.983 18.807 5.589 C 18.807 6.399 18.486 7.176 17.915 7.749 C 17.343 8.323 16.567 8.646 15.757 8.649 Z M 38.697 16.649 L 29.527 16.649 C 29.246 15.419 28.556 14.321 27.57 13.535 C 26.583 12.748 25.359 12.32 24.097 12.32 C 22.836 12.32 21.612 12.748 20.625 13.535 C 19.639 14.321 18.948 15.419 18.667 16.649 L 1.157 16.649 C 0.841 16.677 0.547 16.823 0.333 17.057 C 0.119 17.291 0 17.597 0 17.914 C 0 18.231 0.119 18.537 0.333 18.771 C 0.547 19.005 0.841 19.151 1.157 19.179 L 18.667 19.179 C 18.948 20.409 19.639 21.507 20.625 22.293 C 21.612 23.08 22.836 23.508 24.097 23.508 C 25.359 23.508 26.583 23.08 27.57 22.293 C 28.556 21.507 29.246 20.409 29.527 19.179 L 38.697 19.179 C 39.014 19.151 39.308 19.005 39.522 18.771 C 39.736 18.537 39.855 18.231 39.855 17.914 C 39.855 17.597 39.736 17.291 39.522 17.057 C 39.308 16.823 39.014 16.677 38.697 16.649 Z M 24.097 20.969 C 23.49 20.969 22.896 20.788 22.391 20.449 C 21.887 20.11 21.495 19.628 21.265 19.066 C 21.035 18.503 20.978 17.885 21.101 17.29 C 21.224 16.694 21.522 16.149 21.956 15.724 C 22.39 15.299 22.941 15.012 23.538 14.901 C 24.136 14.789 24.753 14.859 25.311 15.1 C 25.869 15.34 26.342 15.742 26.671 16.253 C 27 16.764 27.169 17.361 27.157 17.969 C 27.15 18.775 26.824 19.546 26.251 20.113 C 25.678 20.681 24.904 20.999 24.097 20.999 L 24.097 20.969 Z" fill="currentColor" fill-rule="nonzero"/>
</svg>
