<svg xmlns="http://www.w3.org/2000/svg" width="39.916" height="23.820" viewBox="0 0 39.916 23.820" fill="none">
  <path d="M 19.6 6.91 C 20.587 6.671 21.62 6.69 22.598 6.967 C 23.575 7.244 24.464 7.769 25.18 8.49 C 25.999 8.105 26.894 7.907 27.8 7.91 C 28.571 7.902 29.338 8.037 30.06 8.31 C 30.858 8.657 31.577 9.166 32.169 9.805 C 32.761 10.443 33.214 11.197 33.5 12.02 L 33.92 12.02 C 34.193 12.005 34.467 12.005 34.74 12.02 L 34.83 12.02 C 36.202 12.246 37.453 12.943 38.369 13.99 C 39.285 15.037 39.808 16.37 39.85 17.76 C 39.848 19.162 39.367 20.521 38.486 21.612 C 37.606 22.703 36.38 23.461 35.01 23.76 C 34.887 23.775 34.763 23.775 34.64 23.76 L 14.52 23.82 C 13.154 23.812 11.831 23.337 10.771 22.476 C 9.711 21.614 8.976 20.416 8.689 19.08 C 8.485 18.153 8.513 17.19 8.77 16.276 C 9.026 15.362 9.504 14.525 10.16 13.84 C 10.707 13.247 11.368 12.771 12.104 12.439 C 12.839 12.108 13.633 11.928 14.439 11.91 L 15.05 11.91 C 15.186 10.704 15.699 9.571 16.516 8.674 C 17.332 7.776 18.412 7.159 19.6 6.91 Z M 22.439 9.338 C 21.74 9.102 20.986 9.072 20.27 9.25 C 18.38 9.72 17.4 10.94 17.2 13.12 L 17.1 14.12 L 15.92 13.97 L 15.56 13.97 C 15.387 13.955 15.213 13.955 15.04 13.97 C 14.514 13.979 13.995 14.093 13.514 14.306 C 13.033 14.519 12.6 14.827 12.24 15.21 C 11.821 15.638 11.516 16.165 11.352 16.741 C 11.188 17.317 11.17 17.925 11.3 18.51 C 11.498 19.379 11.991 20.152 12.694 20.699 C 13.398 21.246 14.269 21.532 15.16 21.51 L 33.96 21.46 C 34.871 21.288 35.691 20.801 36.278 20.084 C 36.865 19.367 37.181 18.467 37.17 17.54 C 37.125 16.654 36.774 15.81 36.179 15.152 C 35.583 14.494 34.777 14.062 33.899 13.93 C 33.567 13.898 33.232 13.898 32.899 13.93 L 31.59 13.93 L 31.399 13.22 C 31.251 12.603 30.961 12.029 30.552 11.545 C 30.142 11.06 29.624 10.678 29.04 10.43 C 28.452 10.203 27.82 10.113 27.192 10.169 C 26.565 10.224 25.959 10.423 25.42 10.75 L 24.75 11.14 L 24.22 10.58 C 23.757 10.005 23.139 9.574 22.439 9.338 Z M 8.52 0 C 10.264 0.307 11.876 1.132 13.145 2.368 C 14.413 3.604 15.279 5.194 15.63 6.93 C 14.712 7.778 14.024 8.845 13.63 10.03 L 13.62 10.03 C 11.779 10.257 10.076 11.126 8.813 12.485 C 7.551 13.845 6.81 15.607 6.72 17.46 C 5.416 17.424 4.137 17.098 2.975 16.507 C 1.812 15.915 0.796 15.073 0 14.04 C 0.502 14.124 1.01 14.168 1.52 14.17 C 3.166 14.175 4.781 13.719 6.181 12.853 C 7.58 11.986 8.709 10.744 9.438 9.268 C 10.168 7.792 10.468 6.14 10.306 4.502 C 10.143 2.864 9.524 1.304 8.52 0 Z M 39.916 8.805 L 38.219 10.501 L 36.522 8.804 L 38.22 7.107 L 39.916 8.805 Z M 34.405 4.95 L 32.708 6.647 L 31.012 4.95 L 32.708 3.253 L 34.405 4.95 Z M 39.492 3.009 L 37.796 4.706 L 36.099 3.009 L 37.796 1.312 L 39.492 3.009 Z" fill="currentColor" fill-rule="nonzero"/>
</svg>
