<svg xmlns="http://www.w3.org/2000/svg" width="32" height="36.029" viewBox="0 0 32 36.029" fill="none">
  <path d="M 11.4 26.829 C 12 27.329 12.8 27.229 13.3 26.629 C 13.7 26.129 13.7 25.529 13.3 25.029 L 3.2 14.929 C 2.7 14.429 1.9 14.329 1.3 14.829 C 0.8 15.329 0.7 16.129 1.2 16.729 C 1.2 16.729 1.2 16.729 1.3 16.829 L 11.4 26.829 Z M 31.4 34.829 L 29.8 34.829 C 29.5 33.929 28.7 33.329 27.8 33.329 L 4.3 33.329 C 3.4 33.329 2.5 33.929 2.2 34.829 L 0.6 34.829 C 0.3 34.829 0 35.029 0 35.429 C 0 35.729 0.3 36.029 0.6 36.029 L 31.4 36.029 C 31.7 36.029 32 35.729 32 35.429 C 32 35.029 31.7 34.829 31.4 34.829 Z M 25.8 12.429 C 26.3 12.929 27.2 12.929 27.7 12.329 C 28.2 11.829 28.2 11.029 27.7 10.529 L 17.7 0.429 C 17.2 -0.071 16.4 -0.171 15.8 0.329 C 15.2 0.829 15.2 1.629 15.7 2.229 C 15.7 2.229 15.7 2.229 15.8 2.329 L 25.8 12.429 Z M 13.1 23.029 C 13.5 23.329 14 23.329 14.4 23.029 C 14.7 22.729 14.7 22.329 14.6 22.029 L 17.3 19.329 L 27.7 29.729 C 28.5 30.529 29.8 30.529 30.6 29.729 C 31.4 28.929 31.4 27.629 30.6 26.829 L 20.1 16.429 L 22.8 13.729 C 23.1 13.929 23.5 13.829 23.8 13.629 C 24.1 13.229 24.1 12.729 23.8 12.329 L 15.8 4.329 C 15.4 4.029 14.9 4.029 14.5 4.329 C 14.2 4.629 14.2 5.029 14.4 5.329 L 6.1 13.529 C 5.8 13.329 5.4 13.429 5.1 13.729 C 4.8 14.129 4.8 14.629 5.1 15.029 L 13.1 23.029 Z M 15.7 7.629 L 20.6 12.529 L 13.4 19.729 L 8.5 14.829 L 15.7 7.629 Z" fill="currentColor" fill-rule="nonzero"/>
</svg>
