<svg xmlns="http://www.w3.org/2000/svg" width="35.464" height="35.460" viewBox="0 0 35.464 35.460" fill="none">
  <path d="M 34.86 1.46 C 34.845 1.078 34.687 0.715 34.416 0.444 C 34.145 0.173 33.782 0.015 33.4 0 C 15.01 0 0 14.73 0 32.88 C 0.005 33.065 0.047 33.248 0.122 33.417 C 0.198 33.586 0.306 33.738 0.441 33.865 C 0.576 33.993 0.734 34.092 0.907 34.158 C 1.08 34.224 1.265 34.255 1.45 34.25 C 1.825 34.25 2.187 34.106 2.458 33.847 C 2.73 33.589 2.892 33.235 2.91 32.86 C 2.91 16.33 16.6 2.86 33.4 2.86 C 33.777 2.86 34.14 2.715 34.412 2.454 C 34.684 2.193 34.845 1.837 34.86 1.46 Z M 35.43 27.8 C 35.367 26.893 35.112 26.01 34.681 25.21 C 34.25 24.41 33.653 23.711 32.93 23.16 C 31.93 22.36 28.55 20.29 18.06 15 C 17.765 14.853 17.44 14.778 17.11 14.78 C 16.596 14.779 16.099 14.963 15.71 15.3 C 15.412 15.567 15.208 15.924 15.128 16.317 C 15.049 16.71 15.099 17.118 15.27 17.48 C 20.51 29.41 22.9 32.98 23.97 33.87 C 25.234 34.895 26.812 35.457 28.44 35.46 L 28.96 35.46 L 29.14 35.46 C 30.056 35.371 30.946 35.102 31.759 34.669 C 32.571 34.236 33.29 33.646 33.874 32.935 C 34.458 32.223 34.897 31.404 35.164 30.522 C 35.431 29.641 35.521 28.716 35.43 27.8 Z" fill="currentColor" fill-rule="nonzero"/>
</svg>
