<svg xmlns="http://www.w3.org/2000/svg" width="40.014" height="32.442" viewBox="0 0 40.014 32.442" fill="none">
  <path d="M 39.69 17.401 L 35.76 2.671 C 35.558 1.903 35.107 1.224 34.477 0.74 C 33.847 0.257 33.074 -0.003 32.28 0.001 L 7.78 0.001 C 6.994 -0.014 6.225 0.233 5.594 0.704 C 4.964 1.175 4.509 1.842 4.3 2.601 L 0.22 17.221 C 0.075 17.466 -0.002 17.746 0 18.031 L 0 18.331 L 1.7 29.621 C 1.834 30.422 2.253 31.148 2.879 31.666 C 3.506 32.184 4.298 32.459 5.11 32.441 L 35 32.441 C 35.811 32.459 36.602 32.183 37.226 31.665 C 37.851 31.147 38.268 30.421 38.4 29.621 L 40 18.891 C 40.055 18.374 39.947 17.853 39.69 17.401 Z M 6.89 3.341 C 6.938 3.145 7.051 2.972 7.212 2.85 C 7.372 2.728 7.569 2.665 7.77 2.671 L 32.28 2.671 C 32.495 2.669 32.705 2.732 32.883 2.852 C 33.062 2.971 33.2 3.142 33.28 3.341 L 36.65 16.221 L 26.58 16.221 C 26.229 16.221 25.892 16.359 25.643 16.607 C 25.394 16.854 25.253 17.19 25.25 17.541 L 25.25 17.691 C 25.25 21.021 24.25 21.391 19.99 21.391 C 15.73 21.391 14.81 20.871 14.81 17.691 L 14.81 17.541 C 14.807 17.191 14.667 16.857 14.421 16.61 C 14.174 16.363 13.839 16.223 13.49 16.221 L 3.26 16.221 L 6.89 3.341 Z M 35.69 29.221 C 35.643 29.378 35.545 29.515 35.41 29.609 C 35.276 29.703 35.114 29.75 34.95 29.741 L 5.11 29.741 C 4.74 29.741 4.37 29.521 4.37 29.221 L 2.82 18.811 L 12.29 18.811 C 12.81 23.471 16.14 23.921 20.07 23.921 C 24 23.921 27.4 23.471 27.91 18.811 L 37.31 18.811 L 35.69 29.221 Z" fill="currentColor" fill-rule="nonzero"/>
</svg>
