<svg xmlns="http://www.w3.org/2000/svg" width="31.970" height="36" viewBox="0 0 31.970 36" fill="none">
  <path d="M 15.97 0 C 17.56 0 19.135 0.313 20.604 0.922 C 22.074 1.53 23.409 2.422 24.533 3.547 C 25.658 4.671 26.55 6.006 27.158 7.476 C 27.767 8.945 28.08 10.52 28.08 12.11 L 28.08 13.04 C 29.19 13.322 30.176 13.966 30.88 14.869 C 31.584 15.773 31.967 16.885 31.97 18.03 L 31.97 30.87 C 31.957 32.232 31.408 33.533 30.442 34.493 C 29.477 35.453 28.171 35.995 26.81 36 L 5.12 36 C 3.765 35.987 2.468 35.442 1.511 34.482 C 0.553 33.523 0.01 32.226 0 30.87 L 0 18.04 C 0.009 16.899 0.391 15.793 1.088 14.89 C 1.785 13.987 2.759 13.337 3.86 13.04 L 3.86 12.11 C 3.86 8.899 5.136 5.818 7.407 3.547 C 9.678 1.276 12.758 0 15.97 0 Z M 15.97 2.68 C 13.469 2.68 11.07 3.674 9.302 5.442 C 7.533 7.211 6.54 9.61 6.54 12.11 L 6.54 15.59 L 5.12 15.59 C 4.8 15.59 4.482 15.653 4.187 15.775 C 3.89 15.898 3.621 16.078 3.395 16.305 C 3.168 16.531 2.989 16.801 2.866 17.097 C 2.744 17.393 2.68 17.71 2.68 18.03 L 2.68 30.88 C 2.685 31.524 2.945 32.141 3.401 32.596 C 3.858 33.051 4.476 33.307 5.12 33.31 L 26.81 33.31 C 27.458 33.31 28.08 33.053 28.539 32.596 C 28.998 32.138 29.257 31.518 29.26 30.87 L 29.26 18.03 C 29.257 17.382 28.998 16.761 28.539 16.304 C 28.08 15.846 27.458 15.59 26.81 15.59 L 25.4 15.59 L 25.4 12.11 C 25.4 9.609 24.406 7.211 22.638 5.442 C 20.869 3.674 18.471 2.68 15.97 2.68 Z M 15.97 7.61 C 17.183 7.61 18.346 8.091 19.205 8.948 C 20.064 9.805 20.547 10.967 20.55 12.18 L 20.55 15.57 L 11.39 15.57 L 11.39 12.18 C 11.392 10.967 11.877 9.805 12.735 8.948 C 13.594 8.092 14.757 7.61 15.97 7.61 Z" fill="currentColor" fill-rule="nonzero"/>
</svg>
