<svg xmlns="http://www.w3.org/2000/svg" width="36" height="36.000" viewBox="0 0 36 36.000" fill="none">
  <path d="M 2.92 36 C 2.537 36 2.157 35.925 1.803 35.778 C 1.448 35.631 1.126 35.416 0.855 35.145 C 0.584 34.874 0.369 34.552 0.222 34.198 C 0.076 33.843 0 33.464 0 33.08 L 0 29.52 C 0 28.746 0.308 28.003 0.855 27.455 C 1.403 26.908 2.146 26.6 2.92 26.6 L 8.92 26.6 L 8.92 20.6 C 8.92 19.826 9.228 19.083 9.775 18.535 C 10.323 17.988 11.066 17.68 11.84 17.68 L 17 17.68 L 17 11.09 C 17 10.316 17.308 9.573 17.855 9.025 C 18.403 8.478 19.146 8.17 19.92 8.17 L 24.92 8.17 L 24.92 2.92 C 24.92 2.534 24.996 2.152 25.145 1.796 C 25.294 1.44 25.511 1.116 25.786 0.845 C 26.06 0.573 26.386 0.359 26.743 0.214 C 27.101 0.069 27.484 -0.004 27.87 0 L 33.08 0 C 33.463 0 33.843 0.076 34.197 0.222 C 34.552 0.369 34.874 0.584 35.145 0.855 C 35.416 1.127 35.631 1.448 35.778 1.803 C 35.924 2.157 36 2.537 36 2.92 L 36 33.08 C 36 33.464 35.924 33.843 35.778 34.198 C 35.631 34.552 35.416 34.874 35.145 35.145 C 34.874 35.416 34.552 35.631 34.197 35.778 C 33.843 35.925 33.463 36 33.08 36 L 2.92 36 Z" fill="currentColor" fill-rule="nonzero"/>
</svg>
