<svg xmlns="http://www.w3.org/2000/svg" width="40.046" height="37.900" viewBox="0 0 40.046 37.900" fill="none">
  <path d="M 26.107 0 C 26.411 0.003 26.713 0.044 27.007 0.12 C 27.737 0.27 30.007 0.87 29.007 5.27 C 28.587 7.09 28.007 10.59 27.677 12.96 C 27.647 13.17 27.661 13.385 27.718 13.59 C 27.775 13.795 27.873 13.986 28.007 14.15 C 28.142 14.313 28.31 14.447 28.499 14.543 C 28.688 14.639 28.896 14.696 29.107 14.71 L 35.237 14.71 C 35.959 14.654 36.685 14.757 37.362 15.013 C 38.04 15.268 38.653 15.671 39.157 16.19 C 39.568 16.74 39.846 17.376 39.971 18.051 C 40.096 18.725 40.063 19.42 39.877 20.08 C 39.697 21 39.407 22.6 39.077 24.42 C 37.907 30.8 37.307 33.96 37.077 34.71 C 36.587 36.37 35.687 37.9 32.497 37.9 L 32.427 37.9 C 24.517 37.86 16.138 36.01 14.348 35.27 C 13.658 35.075 13.058 34.649 12.647 34.062 C 12.237 33.475 12.043 32.764 12.098 32.05 L 12.098 31.89 C 12.068 31.029 12.087 26.129 12.157 18.76 C 12.155 18.453 12.238 18.151 12.396 17.888 C 12.555 17.625 12.784 17.41 13.058 17.27 C 13.335 17.126 19.419 13.834 22.657 3.66 C 23.257 1.76 24.107 0 26.107 0 Z M 7.527 14.27 C 8.074 14.323 8.578 14.587 8.935 15.005 C 9.291 15.423 9.471 15.962 9.438 16.51 L 9.438 34.4 C 9.447 34.51 9.447 34.621 9.438 34.73 C 9.416 35.008 9.34 35.279 9.214 35.527 C 9.088 35.776 8.913 35.997 8.701 36.178 C 8.489 36.359 8.244 36.497 7.979 36.583 C 7.715 36.669 7.435 36.702 7.157 36.68 L 2.157 36.68 C 1.645 36.696 1.145 36.526 0.749 36.2 C 0.353 35.875 0.089 35.416 0.007 34.91 C -0.003 34.79 -0.003 34.67 0.007 34.55 L 0.007 16.37 C 0.004 15.913 0.153 15.468 0.43 15.104 C 0.706 14.741 1.096 14.48 1.537 14.36 C 1.783 14.301 2.034 14.27 2.287 14.27 L 7.527 14.27 Z M 4.747 30.36 C 4.302 30.36 3.875 30.538 3.56 30.853 C 3.245 31.168 3.067 31.595 3.067 32.04 C 3.073 32.48 3.25 32.901 3.563 33.212 C 3.875 33.522 4.297 33.698 4.737 33.7 C 4.957 33.703 5.176 33.662 5.38 33.58 C 5.584 33.498 5.771 33.376 5.928 33.222 C 6.085 33.067 6.209 32.883 6.295 32.681 C 6.381 32.478 6.425 32.26 6.427 32.04 C 6.427 31.595 6.25 31.168 5.936 30.853 C 5.62 30.537 5.193 30.36 4.747 30.36 Z" fill="currentColor" fill-rule="nonzero"/>
</svg>
