<svg xmlns="http://www.w3.org/2000/svg" width="40" height="40" viewBox="0 0 40 40" fill="none">
  <path d="M 20 0 C 16.044 0 12.178 1.173 8.889 3.371 C 5.6 5.568 3.036 8.692 1.522 12.346 C 0.009 16.001 -0.387 20.022 0.384 23.902 C 1.156 27.781 3.061 31.345 5.858 34.142 C 8.655 36.939 12.219 38.844 16.098 39.616 C 19.978 40.387 23.999 39.991 27.654 38.478 C 31.308 36.964 34.432 34.4 36.629 31.111 C 38.827 27.822 40 23.956 40 20 C 40 17.374 39.483 14.773 38.478 12.346 C 37.473 9.92 35.999 7.715 34.142 5.858 C 32.285 4.001 30.08 2.528 27.654 1.522 C 25.227 0.517 22.626 0 20 0 Z M 20 37.29 C 16.567 37.29 13.211 36.272 10.356 34.365 C 7.502 32.458 5.277 29.747 3.962 26.576 C 2.648 23.404 2.304 19.914 2.973 16.547 C 3.642 13.18 5.294 10.086 7.721 7.658 C 10.148 5.23 13.24 3.576 16.607 2.905 C 19.974 2.234 23.464 2.576 26.636 3.889 C 29.809 5.201 32.521 7.425 34.429 10.278 C 36.338 13.132 37.358 16.487 37.36 19.92 C 37.36 24.525 35.531 28.942 32.276 32.199 C 29.021 35.456 24.605 37.287 20 37.29 Z M 26.37 14 C 26.376 12.733 26.021 11.492 25.346 10.419 C 24.672 9.347 23.707 8.489 22.563 7.946 C 21.419 7.402 20.144 7.195 18.887 7.35 C 17.629 7.504 16.442 8.014 15.464 8.818 C 14.486 9.622 13.757 10.689 13.362 11.892 C 12.967 13.096 12.924 14.387 13.236 15.614 C 13.548 16.842 14.203 17.955 15.125 18.824 C 16.046 19.692 17.196 20.281 18.44 20.52 L 18.44 31.52 C 18.44 31.854 18.573 32.175 18.809 32.411 C 19.045 32.647 19.366 32.78 19.7 32.78 C 20.034 32.78 20.355 32.647 20.591 32.411 C 20.827 32.175 20.96 31.854 20.96 31.52 L 20.96 30.44 L 22.74 30.44 C 22.914 30.456 23.09 30.435 23.256 30.379 C 23.421 30.323 23.573 30.233 23.703 30.115 C 23.832 29.997 23.935 29.853 24.005 29.693 C 24.076 29.533 24.112 29.36 24.112 29.185 C 24.112 29.01 24.076 28.837 24.005 28.677 C 23.935 28.517 23.832 28.373 23.703 28.255 C 23.573 28.137 23.421 28.047 23.256 27.991 C 23.09 27.935 22.914 27.914 22.74 27.93 L 21 27.93 L 21 26.67 L 23.89 26.67 C 24.224 26.67 24.545 26.537 24.781 26.301 C 25.017 26.065 25.15 25.744 25.15 25.41 C 25.15 25.076 25.017 24.755 24.781 24.519 C 24.545 24.283 24.224 24.15 23.89 24.15 L 21 24.15 L 21 20.59 C 22.515 20.274 23.875 19.446 24.853 18.247 C 25.83 17.047 26.366 15.548 26.37 14 Z M 15.55 14 C 15.55 13.179 15.793 12.377 16.249 11.694 C 16.705 11.012 17.354 10.48 18.112 10.166 C 18.87 9.852 19.705 9.77 20.51 9.93 C 21.315 10.09 22.054 10.485 22.635 11.066 C 23.215 11.646 23.61 12.385 23.77 13.19 C 23.93 13.995 23.848 14.83 23.534 15.588 C 23.22 16.346 22.688 16.995 22.006 17.451 C 21.323 17.907 20.521 18.15 19.7 18.15 C 19.155 18.15 18.616 18.043 18.113 17.834 C 17.61 17.625 17.154 17.319 16.769 16.934 C 16.384 16.548 16.08 16.091 15.872 15.587 C 15.665 15.084 15.559 14.545 15.56 14 L 15.55 14 Z" fill="currentColor" fill-rule="nonzero"/>
</svg>
