<svg xmlns="http://www.w3.org/2000/svg" width="40" height="40" viewBox="0 0 40 40" fill="none">
  <path d="M 20 40 C 23.956 40 27.822 38.827 31.111 36.629 C 34.4 34.432 36.964 31.308 38.478 27.654 C 39.991 23.999 40.387 19.978 39.616 16.098 C 38.844 12.219 36.939 8.655 34.142 5.858 C 31.345 3.061 27.781 1.156 23.902 0.384 C 20.022 -0.387 16.001 0.009 12.346 1.522 C 8.692 3.036 5.568 5.6 3.371 8.889 C 1.173 12.178 0 16.044 0 20 C 0 25.304 2.107 30.391 5.858 34.142 C 7.715 35.999 9.92 37.473 12.346 38.478 C 14.773 39.483 17.374 40 20 40 Z M 21.92 28.75 C 21.92 29.265 21.716 29.758 21.352 30.122 C 20.988 30.486 20.495 30.69 19.98 30.69 C 19.465 30.69 18.972 30.486 18.608 30.122 C 18.244 29.758 18.04 29.265 18.04 28.75 L 18.04 17.75 C 18.04 17.235 18.244 16.742 18.608 16.378 C 18.972 16.014 19.465 15.81 19.98 15.81 C 20.495 15.81 20.988 16.014 21.352 16.378 C 21.716 16.742 21.92 17.235 21.92 17.75 L 21.92 28.75 Z M 17.79 11.52 C 17.789 11.229 17.845 10.94 17.955 10.671 C 18.066 10.402 18.228 10.157 18.434 9.951 C 18.639 9.745 18.883 9.581 19.152 9.469 C 19.421 9.357 19.709 9.3 20 9.3 C 20.29 9.3 20.578 9.357 20.846 9.468 C 21.114 9.579 21.357 9.742 21.563 9.947 C 21.768 10.153 21.931 10.396 22.042 10.664 C 22.153 10.932 22.21 11.22 22.21 11.51 C 22.21 12.096 21.977 12.658 21.563 13.073 C 21.148 13.487 20.586 13.72 20 13.72 C 19.414 13.72 18.852 13.487 18.437 13.073 C 18.023 12.658 17.79 12.096 17.79 11.51 L 17.79 11.52 Z" fill="currentColor" fill-rule="nonzero"/>
</svg>
