<svg xmlns="http://www.w3.org/2000/svg" width="35.100" height="39.945" viewBox="0 0 35.100 39.945" fill="none">
  <path d="M 22.7 14.3 C 22.6 14.3 22.6 14.3 22.5 14.3 L 9.1 14.3 C 8.5 14.4 8 14.9 8.1 15.5 C 8.2 16 8.6 16.5 9.1 16.5 L 22.5 16.5 C 23.1 16.6 23.7 16.1 23.7 15.5 C 23.8 14.9 23.3 14.4 22.7 14.3 Z M 9.1 11.6 L 22.5 11.6 C 23.1 11.6 23.6 11.1 23.6 10.5 C 23.6 9.9 23.1 9.4 22.5 9.4 L 9.1 9.4 C 8.5 9.4 8 9.9 8 10.5 C 8 11.1 8.5 11.6 9.1 11.6 Z M 31.8 20.3 L 31.8 4.2 C 31.8 1.9 29.9 0 27.5 0 L 4.2 0 C 1.9 0 0 1.9 0 4.2 L 0 35.5 C 0 37.8 1.9 39.7 4.2 39.7 L 21.4 39.7 C 27.6 41 33.7 37 34.9 30.7 C 35 30 35.1 29.2 35.1 28.5 C 35.1 25.4 33.9 22.5 31.8 20.3 Z M 4.2 37.3 C 3.3 37.3 2.5 36.5 2.5 35.6 L 2.5 4.2 C 2.5 3.2 3.3 2.5 4.2 2.5 L 27.5 2.5 C 28.5 2.5 29.2 3.3 29.2 4.2 L 29.2 18.4 C 25.2 16.2 20.3 16.5 16.7 19.2 L 9 19.2 C 8.4 19.2 7.9 19.7 7.9 20.3 C 7.9 20.9 8.4 21.4 9 21.4 L 14.4 21.4 C 13.8 22.2 13.2 23.1 12.8 24.1 L 9 24.1 C 8.4 24.2 7.9 24.7 8 25.3 C 8.1 25.8 8.5 26.3 9 26.3 L 12.2 26.3 C 12.1 27 12 27.7 12 28.4 L 12 29 L 9 29 C 8.4 29.1 7.9 29.6 8 30.2 C 8.1 30.7 8.5 31.2 9 31.2 L 12.3 31.2 C 12.9 33.5 14.2 35.6 16.1 37.2 L 4.2 37.2 L 4.2 37.3 Z M 23.6 38.1 C 18.2 38.1 13.9 33.8 13.9 28.4 C 13.9 23.1 18.2 18.7 23.6 18.7 C 28.9 18.7 33.3 23 33.3 28.4 C 33.3 33.8 29 38.1 23.6 38.1 Z M 24.9 22 L 23.1 20.8 C 22.6 20.5 21.9 20.6 21.5 21.1 C 21.4 21.3 21.3 21.5 21.3 21.7 C 21 23.1 20.4 24.5 19.6 25.7 C 19 26.7 17.9 29.4 19.2 31.4 C 20 32.7 21.6 33.4 23.9 33.4 C 23.8 34.1 23.6 34.7 23.3 35.4 C 23.2 35.8 23.4 36.3 23.8 36.4 C 23.9 36.4 24 36.4 24.1 36.4 C 24.4 36.4 24.7 36.2 24.9 35.9 C 25.2 35 25.4 34.2 25.6 33.3 C 28.3 33 29.1 31.4 29.4 30.4 C 30.1 27.9 28.1 24.1 24.9 22 Z M 27.8 30.1 C 27.5 31 26.7 31.6 25.8 31.7 C 26.1 29.5 25.7 27.3 24.8 25.3 C 24.6 24.9 24.1 24.7 23.7 24.9 C 23.3 25.1 23.1 25.6 23.3 26 C 23.3 26 23.3 26.1 23.4 26.1 C 23.8 26.9 24 27.8 24.1 28.6 C 24.2 29.7 24.2 30.8 24.1 31.8 C 22.7 31.8 21.2 31.5 20.5 30.5 C 19.6 29.2 20.5 27 20.9 26.4 C 21.7 25.2 22.3 23.9 22.7 22.5 L 23.9 23.3 C 26.6 25 28.4 28.1 27.8 30.1 Z" fill="currentColor" fill-rule="nonzero"/>
</svg>
