<svg xmlns="http://www.w3.org/2000/svg" width="40.102" height="32.800" viewBox="0 0 40.102 32.800" fill="none">
  <path d="M 22.5 7.4 C 22.9 8.4 23.9 9.1 25 9.1 C 26.5 9.1 27.7 7.9 27.7 6.4 C 27.7 5.3 27 4.3 26 3.9 L 26 1 C 26 0.4 25.6 0 25 0 C 24.4 0 24 0.4 24 1 L 24 3.9 C 22.6 4.5 21.9 6 22.5 7.4 Z M 25 5.4 C 25.6 5.4 26.1 5.8 26.1 6.4 C 26.1 7 25.7 7.5 25.1 7.5 C 24.5 7.5 24 7.1 24 6.5 C 24 6.5 24 6.5 24 6.4 C 24 5.9 24.4 5.4 25 5.4 Z M 12 3.4 L 21.1 3.4 C 21.7 3.4 22.2 2.9 22.2 2.3 C 22.2 1.7 21.7 1.2 21.1 1.2 L 12 1.2 C 11.4 1.2 10.9 1.7 10.9 2.3 C 10.9 2.9 11.4 3.4 12 3.4 Z M 5.7 7.4 C 6.1 8.4 7.1 9.1 8.2 9.1 C 9.7 9.1 10.9 7.9 10.9 6.4 C 10.9 5.3 10.2 4.3 9.2 3.9 L 9.2 1 C 9.2 0.4 8.8 0 8.2 0 C 7.6 0 7.2 0.4 7.2 1 L 7.2 3.9 C 5.8 4.5 5.1 6 5.7 7.4 Z M 8.2 5.4 C 8.8 5.4 9.3 5.9 9.3 6.5 C 9.3 7.1 8.8 7.6 8.2 7.6 C 7.6 7.6 7.1 7.1 7.1 6.5 C 7.1 5.9 7.6 5.4 8.2 5.4 Z M 32.1 16.7 C 27.7 16.7 24.1 20.3 24 24.7 C 24 29.1 27.6 32.7 32 32.8 L 32.1 32.8 C 36.5 32.8 40.1 29.2 40.1 24.8 C 40.2 20.3 36.6 16.7 32.1 16.7 Z M 35.5 23.5 L 31.6 27.1 C 31.5 27.2 31.3 27.3 31.1 27.3 L 31 27.3 C 30.8 27.3 30.6 27.2 30.5 27 L 29.1 25.3 C 28.8 25 28.9 24.5 29.2 24.2 C 29.5 23.9 30 24 30.3 24.3 L 31.2 25.4 L 34.5 22.4 C 34.8 22.2 35.3 22.2 35.6 22.5 C 35.8 22.9 35.8 23.3 35.5 23.5 Z M 21.1 28.1 L 3.8 28.1 C 3 28.1 2.4 27.5 2.4 26.7 L 2.4 13.4 L 30.7 13.4 L 30.7 13.9 C 30.8 14.5 31.3 15 32 14.9 C 32.6 14.8 33 14.4 33 13.9 L 33 4.8 C 33 2.8 31.4 1.1 29.4 1.1 L 28.8 1.1 C 28.2 1.1 27.7 1.6 27.7 2.2 C 27.7 2.8 28.2 3.3 28.8 3.3 L 29.3 3.3 C 30.1 3.3 30.7 3.9 30.7 4.7 L 30.7 11.1 L 2.4 11.1 L 2.4 4.7 C 2.4 3.9 3 3.3 3.7 3.3 L 4.2 3.3 C 4.8 3.3 5.3 2.8 5.3 2.2 C 5.3 1.6 4.8 1.1 4.2 1.1 L 3.7 1.1 C 1.7 1.1 0.1 2.7 0 4.7 C 0 4.7 0 4.7 0 4.8 L 0 26.8 C 0 28.8 1.7 30.4 3.6 30.4 L 20.8 30.4 C 21.4 30.4 21.9 29.9 21.9 29.3 C 22.2 28.6 21.7 28.1 21.1 28.1 Z" fill="currentColor" fill-rule="nonzero"/>
</svg>
