<svg xmlns="http://www.w3.org/2000/svg" width="18.750" height="33" viewBox="0 0 18.750 33" fill="none">
  <path d="M 7.5 3.51 C 7.5 1.575 5.82 0 3.75 0 C 1.68 0 0 1.575 0 3.51 C 0 5.448 1.68 7.02 3.75 7.02 C 5.82 7.02 7.5 5.448 7.5 3.51 Z M 7.5 29.49 C 7.5 27.552 5.82 25.98 3.75 25.98 C 1.68 25.98 0 27.552 0 29.49 C 0 31.425 1.68 33 3.75 33 C 5.82 33 7.5 31.425 7.5 29.49 Z M 3.75 12.99 C 5.82 12.99 7.5 14.565 7.5 16.5 C 7.5 18.435 5.82 20.01 3.75 20.01 C 1.68 20.01 0 18.435 0 16.5 C 0 14.565 1.68 12.99 3.75 12.99 Z M 18.75 3.51 C 18.75 1.575 17.07 0 15 0 C 12.93 0 11.25 1.575 11.25 3.51 C 11.25 5.448 12.93 7.02 15 7.02 C 17.07 7.02 18.75 5.448 18.75 3.51 Z M 15 25.98 C 17.07 25.98 18.75 27.552 18.75 29.49 C 18.75 31.425 17.07 33 15 33 C 12.93 33 11.25 31.425 11.25 29.49 C 11.25 27.552 12.93 25.98 15 25.98 Z M 18.75 16.5 C 18.75 14.565 17.07 12.99 15 12.99 C 12.93 12.99 11.25 14.565 11.25 16.5 C 11.25 18.435 12.93 20.01 15 20.01 C 17.07 20.01 18.75 18.435 18.75 16.5 Z" fill="currentColor" fill-rule="evenodd"/>
</svg>
