<svg xmlns="http://www.w3.org/2000/svg" width="40" height="40" viewBox="0 0 40 40" fill="none">
  <path d="M 20 0 C 16.044 0 12.178 1.173 8.889 3.371 C 5.6 5.568 3.036 8.692 1.522 12.346 C 0.009 16.001 -0.387 20.022 0.384 23.902 C 1.156 27.781 3.061 31.345 5.858 34.142 C 8.655 36.939 12.219 38.844 16.098 39.616 C 19.978 40.387 23.999 39.991 27.654 38.478 C 31.308 36.964 34.432 34.4 36.629 31.111 C 38.827 27.822 40 23.956 40 20 C 40 14.696 37.893 9.609 34.142 5.858 C 30.391 2.107 25.304 0 20 0 Z M 20 2.5 C 23.222 2.5 26.381 3.392 29.128 5.076 C 31.874 6.759 34.102 9.17 35.564 12.041 C 37.027 14.911 37.667 18.131 37.413 21.343 C 37.16 24.554 36.024 27.634 34.13 30.24 C 33.16 29.1 31.836 28.319 30.37 28.02 C 28.729 27.685 27.124 27.189 25.58 26.54 C 25.462 26.497 25.355 26.431 25.263 26.345 C 25.172 26.259 25.1 26.155 25.05 26.04 C 24.962 25.661 25.015 25.263 25.2 24.92 L 25.49 24.37 C 26.31 22.85 28.1 19.67 28.1 15.95 C 28.1 9.45 23.72 7.15 19.97 7.15 C 16.22 7.15 11.84 9.45 11.84 15.95 C 11.84 19.67 13.63 22.85 14.45 24.37 L 14.74 24.92 C 14.925 25.263 14.978 25.661 14.89 26.04 C 14.84 26.156 14.766 26.261 14.673 26.347 C 14.58 26.433 14.47 26.499 14.35 26.54 C 12.809 27.189 11.208 27.685 9.57 28.02 C 8.104 28.319 6.78 29.1 5.81 30.24 C 3.913 27.63 2.776 24.545 2.525 21.328 C 2.275 18.11 2.92 14.887 4.389 12.014 C 5.859 9.141 8.095 6.731 10.851 5.052 C 13.606 3.373 16.773 2.489 20 2.5 Z M 7.61 32.38 L 7.61 32.19 C 7.61 31.51 8.89 30.74 10.13 30.46 C 11.939 30.076 13.707 29.52 15.41 28.8 C 15.827 28.618 16.202 28.355 16.515 28.025 C 16.828 27.695 17.071 27.306 17.23 26.88 C 17.544 25.887 17.458 24.811 16.99 23.88 C 16.91 23.71 16.79 23.49 16.64 23.21 C 15.92 21.87 14.33 19.07 14.33 15.98 C 14.33 10.13 18.64 9.68 19.96 9.68 C 21.28 9.68 25.59 10.13 25.59 15.98 C 25.59 19.07 24 21.87 23.28 23.21 C 23.13 23.49 23.01 23.71 22.93 23.88 C 22.463 24.811 22.376 25.887 22.69 26.88 C 22.849 27.306 23.092 27.695 23.405 28.025 C 23.718 28.355 24.093 28.618 24.51 28.8 C 26.212 29.523 27.98 30.079 29.79 30.46 C 31.02 30.74 32.33 31.46 32.31 32.29 L 32.31 32.38 C 30.688 34.003 28.762 35.29 26.642 36.168 C 24.522 37.047 22.25 37.499 19.955 37.499 C 17.66 37.499 15.388 37.047 13.268 36.168 C 11.148 35.29 9.222 34.003 7.6 32.38 L 7.61 32.38 Z" fill="currentColor" fill-rule="nonzero"/>
</svg>
