<svg xmlns="http://www.w3.org/2000/svg" width="32.000" height="40" viewBox="0 0 32.000 40" fill="none">
  <path d="M 27.84 6.66 L 26.91 6.66 L 26.91 11.13 L 5.09 11.13 L 5.09 6.66 L 4.16 6.66 C 3.059 6.66 2.002 7.097 1.222 7.875 C 0.442 8.653 0.003 9.708 0 10.81 L 0 35.81 C -0.004 36.359 0.101 36.903 0.308 37.411 C 0.515 37.919 0.821 38.382 1.208 38.771 C 1.595 39.16 2.055 39.47 2.561 39.68 C 3.068 39.891 3.611 40 4.16 40 L 27.84 40 C 28.942 40 29.998 39.563 30.778 38.785 C 31.558 38.007 31.997 36.952 32 35.85 L 32 10.85 C 32.004 10.301 31.899 9.757 31.692 9.249 C 31.485 8.741 31.179 8.278 30.792 7.889 C 30.406 7.5 29.946 7.19 29.439 6.98 C 28.932 6.769 28.389 6.66 27.84 6.66 Z M 24.91 17.73 L 12.7 28.73 C 12.473 28.936 12.177 29.051 11.87 29.05 L 11.76 29.05 C 11.591 29.035 11.426 28.985 11.277 28.905 C 11.127 28.824 10.996 28.713 10.89 28.58 L 6.95 23.58 C 6.846 23.452 6.769 23.305 6.722 23.147 C 6.675 22.989 6.66 22.823 6.677 22.659 C 6.694 22.495 6.744 22.336 6.822 22.192 C 6.901 22.047 7.007 21.919 7.135 21.815 C 7.263 21.711 7.41 21.634 7.568 21.587 C 7.726 21.54 7.892 21.525 8.056 21.542 C 8.22 21.559 8.379 21.608 8.524 21.687 C 8.668 21.766 8.796 21.872 8.9 22 L 12 25.94 L 23.24 15.87 C 23.362 15.757 23.505 15.67 23.66 15.613 C 23.816 15.556 23.981 15.531 24.147 15.538 C 24.313 15.546 24.475 15.587 24.625 15.658 C 24.775 15.729 24.909 15.829 25.02 15.952 C 25.13 16.075 25.215 16.219 25.27 16.376 C 25.325 16.533 25.347 16.698 25.337 16.864 C 25.327 17.029 25.284 17.191 25.211 17.34 C 25.137 17.489 25.035 17.621 24.91 17.73 Z M 25.45 6.43 C 25.491 5.995 25.381 5.559 25.139 5.195 C 24.897 4.831 24.537 4.561 24.12 4.43 C 23.822 4.323 23.514 4.246 23.2 4.2 L 22.93 4.15 C 22.457 4.074 21.979 4.024 21.5 4 C 20.55 4 19.22 3.61 18.91 2.75 L 18.79 2.38 C 18.44 1.25 17.9 0 16 0 C 14.1 0 13.55 1.25 13.18 2.46 C 13.18 2.57 13.11 2.67 13.08 2.77 C 12.78 3.64 11.45 4 10.5 4 C 10.049 4.001 9.599 4.024 9.15 4.07 L 8.8 4.13 C 8.489 4.178 8.184 4.259 7.89 4.37 C 7.471 4.499 7.109 4.768 6.865 5.132 C 6.621 5.496 6.51 5.933 6.55 6.37 L 6.55 9.61 L 25.45 9.61 L 25.45 6.43 Z" fill="currentColor" fill-rule="nonzero"/>
</svg>
