<svg xmlns="http://www.w3.org/2000/svg" width="39.837" height="32.012" viewBox="0 0 39.837 32.012" fill="none">
  <path d="M 39.25 14.586 L 25.25 0.586 C 25.064 0.4 24.844 0.253 24.601 0.152 C 24.358 0.052 24.098 0 23.835 0 C 23.572 0 23.312 0.052 23.069 0.152 C 22.826 0.253 22.606 0.4 22.42 0.586 C 22.234 0.772 22.087 0.993 21.986 1.235 C 21.886 1.478 21.834 1.738 21.834 2.001 C 21.834 2.264 21.886 2.524 21.986 2.767 C 22.087 3.01 22.234 3.23 22.42 3.416 L 33.01 13.986 L 2.01 13.986 C 1.48 13.988 0.973 14.201 0.6 14.576 C 0.412 14.76 0.263 14.979 0.16 15.221 C 0.057 15.463 0.002 15.723 0 15.986 C 0 16.517 0.211 17.025 0.586 17.4 C 0.961 17.775 1.47 17.986 2 17.986 L 33 17.986 L 22.41 28.596 C 22.224 28.782 22.077 29.003 21.976 29.245 C 21.876 29.488 21.824 29.748 21.824 30.011 C 21.824 30.274 21.876 30.534 21.976 30.777 C 22.077 31.02 22.224 31.24 22.41 31.426 C 22.785 31.801 23.294 32.012 23.825 32.012 C 24.088 32.012 24.348 31.96 24.591 31.86 C 24.834 31.759 25.054 31.612 25.24 31.426 L 39.24 17.426 C 39.428 17.241 39.578 17.02 39.68 16.777 C 39.782 16.533 39.836 16.272 39.837 16.008 C 39.838 15.744 39.786 15.483 39.685 15.239 C 39.585 14.994 39.437 14.773 39.25 14.586 Z" fill="currentColor" fill-rule="nonzero"/>
</svg>
