<svg xmlns="http://www.w3.org/2000/svg" width="32.013" height="39.817" viewBox="0 0 32.013 39.817" fill="none">
  <path d="M 31.436 22.4 C 31.25 22.214 31.03 22.067 30.787 21.966 C 30.544 21.865 30.284 21.813 30.021 21.813 C 29.758 21.813 29.498 21.865 29.255 21.966 C 29.012 22.067 28.792 22.214 28.606 22.4 L 18.006 33 L 18.006 2 C 18.006 1.47 17.795 0.961 17.42 0.586 C 17.045 0.211 16.537 0 16.006 0 C 15.476 0 14.967 0.211 14.592 0.586 C 14.217 0.961 14.006 1.47 14.006 2 L 14.006 33 L 3.416 22.4 C 3.041 22.025 2.532 21.814 2.001 21.814 C 1.47 21.814 0.961 22.025 0.586 22.4 C 0.211 22.775 0 23.284 0 23.815 C 0 24.346 0.211 24.855 0.586 25.23 L 14.586 39.23 C 14.772 39.416 14.992 39.563 15.235 39.664 C 15.478 39.765 15.738 39.817 16.001 39.817 C 16.264 39.817 16.524 39.765 16.767 39.664 C 17.01 39.563 17.23 39.416 17.416 39.23 L 31.416 25.23 C 31.603 25.046 31.752 24.826 31.855 24.584 C 31.957 24.342 32.011 24.082 32.013 23.819 C 32.015 23.556 31.965 23.296 31.866 23.052 C 31.767 22.809 31.621 22.587 31.436 22.4 Z" fill="currentColor" fill-rule="nonzero"/>
</svg>
