<svg xmlns="http://www.w3.org/2000/svg" width="34.553" height="34.553" viewBox="0 0 34.553 34.553" fill="none">
  <path d="M 33.06 9.393 L 31.16 11.293 L 23.26 3.393 L 25.16 1.493 C 26.22 0.509 27.621 -0.026 29.067 0.001 C 30.513 0.028 31.893 0.614 32.916 1.637 C 33.939 2.66 34.525 4.04 34.552 5.486 C 34.579 6.933 34.044 8.333 33.06 9.393 Z M 10.468 16.168 C 14.444 12.2 18.837 7.817 20.89 5.763 L 28.79 13.663 L 10.44 32.043 C 10.227 32.276 9.958 32.451 9.66 32.553 L 0 34.553 L 2 24.893 C 2.097 24.592 2.273 24.323 2.51 24.113 C 2.541 24.077 6.272 20.354 10.468 16.168 Z" fill="currentColor" fill-rule="evenodd"/>
</svg>
