<svg xmlns="http://www.w3.org/2000/svg" width="40.002" height="34.900" viewBox="0 0 40.002 34.900" fill="none">
  <path d="M 33.801 0 C 35.439 0.021 37.004 0.681 38.163 1.839 C 39.321 2.997 39.981 4.562 40.002 6.2 C 40.006 7.115 39.801 8.019 39.402 8.842 C 39.003 9.665 38.422 10.386 37.702 10.95 L 37.532 11.08 L 37.631 11.27 C 37.651 11.345 37.651 11.425 37.631 11.5 L 37.631 31.03 C 37.648 32.021 37.279 32.979 36.601 33.701 C 35.924 34.423 34.991 34.854 34.002 34.9 L 5.902 34.9 C 4.906 34.866 3.964 34.44 3.281 33.716 C 2.64 33.037 2.275 32.146 2.252 31.217 L 2.252 11.52 C 2.245 11.487 2.245 11.453 2.252 11.42 C 2.266 11.331 2.266 11.24 2.252 11.15 L 2.252 11.03 L 2.162 10.95 C 1.467 10.372 0.913 9.645 0.539 8.822 C 0.165 8 -0.019 7.103 0.002 6.2 C 0.022 4.562 0.682 2.997 1.84 1.839 C 2.999 0.681 4.564 0.021 6.202 0 L 33.801 0 Z M 4.742 31.03 C 4.724 31.361 4.827 31.687 5.031 31.948 C 5.235 32.209 5.527 32.388 5.852 32.45 L 34.102 32.45 C 34.812 32.45 35.252 31.7 35.252 31 L 35.252 12.32 L 6.002 12.32 C 5.669 12.352 5.334 12.355 5.002 12.33 L 4.702 12.28 L 4.742 31.03 Z M 24.432 17.1 C 24.897 17.104 25.357 17.201 25.784 17.385 C 26.211 17.568 26.598 17.836 26.922 18.17 C 27.248 18.498 27.505 18.889 27.676 19.318 C 27.848 19.748 27.931 20.207 27.922 20.67 C 27.919 21.617 27.542 22.525 26.874 23.195 C 26.205 23.866 25.299 24.245 24.352 24.25 L 15.452 24.25 C 14.536 24.194 13.677 23.79 13.051 23.119 C 12.426 22.449 12.081 21.564 12.089 20.646 C 12.096 19.729 12.456 18.85 13.092 18.19 C 13.729 17.531 14.595 17.14 15.511 17.1 L 24.432 17.1 Z M 15.582 19.6 C 15.295 19.6 15.02 19.714 14.818 19.916 C 14.616 20.118 14.502 20.393 14.502 20.68 C 14.502 20.966 14.616 21.241 14.818 21.443 C 15.02 21.646 15.295 21.76 15.582 21.76 L 24.432 21.76 C 24.575 21.752 24.714 21.717 24.842 21.655 C 24.971 21.593 25.087 21.507 25.182 21.4 C 25.271 21.3 25.339 21.183 25.382 21.056 C 25.425 20.929 25.442 20.794 25.432 20.66 C 25.427 20.377 25.31 20.107 25.108 19.909 C 24.906 19.711 24.635 19.6 24.352 19.6 L 15.582 19.6 Z M 6.202 2.45 C 5.699 2.424 5.196 2.5 4.724 2.675 C 4.252 2.849 3.82 3.118 3.455 3.465 C 3.09 3.811 2.799 4.228 2.6 4.69 C 2.402 5.153 2.299 5.652 2.299 6.155 C 2.299 6.659 2.402 7.157 2.6 7.619 C 2.799 8.082 3.09 8.499 3.455 8.846 C 3.82 9.192 4.252 9.461 4.724 9.636 C 5.196 9.81 5.699 9.886 6.202 9.86 L 33.801 9.86 C 34.779 9.845 35.713 9.45 36.405 8.76 C 37.097 8.07 37.494 7.137 37.512 6.16 C 37.51 5.18 37.119 4.24 36.425 3.547 C 35.732 2.854 34.793 2.463 33.812 2.46 L 6.202 2.45 Z" fill="currentColor" fill-rule="nonzero"/>
</svg>
