<svg xmlns="http://www.w3.org/2000/svg" width="39.800" height="40" viewBox="0 0 39.800 40" fill="none">
  <path d="M 35.7 0 C 38 0 39.8 1.8 39.8 4 L 39.8 36 C 39.8 38.2 38 40 35.8 40 L 12 40 C 9.7 40 7.9 38.2 7.9 36 L 7.9 35.3 C 7.901 34.7 8.5 34.1 9.1 34.1 C 9.7 34.1 10.3 34.6 10.3 35.3 L 10.3 36 C 10.3 36.8 11 37.5 11.9 37.5 L 35.6 37.5 C 36.4 37.5 37.1 36.9 37.1 36 L 37.1 4 C 37.1 3.2 36.5 2.5 35.6 2.5 L 11.8 2.5 C 11 2.5 10.3 3.2 10.3 4.1 L 10.3 7.6 C 10.3 8.2 9.7 8.8 9.1 8.8 C 8.5 8.8 7.9 8.299 7.9 7.6 L 7.9 4 C 7.9 1.8 9.7 0 11.9 0 L 35.7 0 Z M 31.8 31.4 C 32.4 31.4 32.9 31.9 33 32.5 C 33.1 33.2 32.6 33.8 31.9 33.9 L 16.8 33.9 C 16.1 33.9 15.6 33.3 15.6 32.6 C 15.6 31.9 16.1 31.4 16.8 31.4 L 31.8 31.4 Z M 18.8 15.8 L 18.8 16.7 C 18.7 17.303 17.899 31.4 9.1 31.3 C 6.5 31.3 3 30 1.1 23.7 C 0.4 21.4 0.1 19 0 16.6 L 0 15.8 L 9.1 11.5 L 18.8 15.8 Z M 2.6 17.4 C 2.7 20.101 3.8 28.8 9.2 28.8 C 14.6 28.8 15.9 20.201 16.2 17.4 L 9.2 14.3 L 2.6 17.4 Z M 31.8 26.2 C 32.4 26.2 32.8 26.7 32.9 27.3 C 33 28 32.5 28.6 31.8 28.7 L 21.4 28.7 C 20.7 28.7 20.1 28.2 20.1 27.5 C 20.1 26.8 20.7 26.2 21.3 26.2 L 31.8 26.2 Z M 32.1 21.1 C 32.8 21.2 33.3 21.8 33.2 22.5 C 33.1 23.2 32.5 23.7 31.8 23.6 L 22.4 23.6 C 21.7 23.6 21.2 23 21.2 22.3 C 21.2 21.6 21.7 21.1 22.5 21.1 L 32.1 21.1 Z M 25.7 11.9 C 26.3 12 26.8 12.4 26.9 13 C 27 13.7 26.5 14.3 25.8 14.4 L 22.3 14.4 C 21.7 14.4 21.3 13.9 21.2 13.3 C 21.1 12.6 21.6 12 22.3 11.9 L 25.7 11.9 Z M 32 7.1 C 32.7 7.1 33.2 7.7 33.2 8.4 C 33.2 9.1 32.6 9.599 31.9 9.6 L 16.6 9.6 C 15.9 9.599 15.4 9 15.4 8.3 C 15.401 7.6 16 7.1 16.7 7.1 L 32 7.1 Z" fill="currentColor" fill-rule="nonzero"/>
</svg>
