<svg xmlns="http://www.w3.org/2000/svg" width="23.050" height="40" viewBox="0 0 23.050 40" fill="none">
  <path d="M 17.05 0 L 6.05 0 C 4.456 0.005 2.927 0.637 1.795 1.76 C 0.663 2.883 0.018 4.406 0 6 L 0 34 C 0.016 35.595 0.66 37.12 1.792 38.243 C 2.925 39.366 4.455 39.997 6.05 40 L 17.05 40 C 18.636 39.982 20.151 39.344 21.273 38.223 C 22.394 37.101 23.032 35.586 23.05 34 L 23.05 6 C 23.014 4.42 22.371 2.914 21.253 1.797 C 20.136 0.679 18.63 0.036 17.05 0 Z M 13.86 36.44 L 9.24 36.44 C 9.075 36.44 8.911 36.407 8.758 36.344 C 8.605 36.281 8.466 36.188 8.349 36.071 C 8.232 35.954 8.139 35.815 8.076 35.662 C 8.013 35.509 7.98 35.345 7.98 35.18 C 7.98 35.015 8.013 34.851 8.076 34.698 C 8.139 34.545 8.232 34.406 8.349 34.289 C 8.466 34.172 8.605 34.079 8.758 34.016 C 8.911 33.953 9.075 33.92 9.24 33.92 L 13.86 33.92 C 14.025 33.92 14.189 33.953 14.342 34.016 C 14.495 34.079 14.634 34.172 14.751 34.289 C 14.868 34.406 14.961 34.545 15.024 34.698 C 15.087 34.851 15.12 35.015 15.12 35.18 C 15.12 35.345 15.087 35.509 15.024 35.662 C 14.961 35.815 14.868 35.954 14.751 36.071 C 14.634 36.188 14.495 36.281 14.342 36.344 C 14.189 36.407 14.025 36.44 13.86 36.44 Z M 20.32 30.84 L 2.63 30.84 L 2.63 6 L 20.32 6 L 20.32 30.84 Z" fill="currentColor" fill-rule="nonzero"/>
</svg>
