<svg xmlns="http://www.w3.org/2000/svg" width="40" height="40" viewBox="0 0 40 40" fill="none">
  <path d="M 20 0 C 16.044 0 12.178 1.173 8.889 3.371 C 5.6 5.568 3.036 8.692 1.522 12.346 C 0.009 16.001 -0.387 20.022 0.384 23.902 C 1.156 27.781 3.061 31.345 5.858 34.142 C 8.655 36.939 12.219 38.844 16.098 39.616 C 19.978 40.387 23.999 39.991 27.654 38.478 C 31.308 36.964 34.432 34.4 36.629 31.111 C 38.827 27.822 40 23.956 40 20 C 40 17.374 39.483 14.773 38.478 12.346 C 37.473 9.92 35.999 7.715 34.142 5.858 C 32.285 4.001 30.08 2.528 27.654 1.522 C 25.227 0.517 22.626 0 20 0 Z M 27.15 25.11 C 27.15 25.64 26.939 26.149 26.564 26.524 C 26.189 26.899 25.68 27.11 25.15 27.11 L 14.89 27.11 C 14.36 27.11 13.851 26.899 13.476 26.524 C 13.101 26.149 12.89 25.64 12.89 25.11 L 12.89 14.89 C 12.89 14.36 13.101 13.851 13.476 13.476 C 13.851 13.101 14.36 12.89 14.89 12.89 L 25.11 12.89 C 25.64 12.89 26.149 13.101 26.524 13.476 C 26.899 13.851 27.11 14.36 27.11 14.89 L 27.15 25.11 Z" fill="currentColor" fill-rule="nonzero"/>
</svg>
