<svg xmlns="http://www.w3.org/2000/svg" width="36" height="35.807" viewBox="0 0 36 35.807" fill="none">
  <path d="M 4 4 L 4 20.07 C 4 20.6 3.789 21.109 3.414 21.484 C 3.039 21.859 2.53 22.07 2 22.07 C 1.47 22.07 0.961 21.859 0.586 21.484 C 0.211 21.109 0 20.6 0 20.07 L 0 0 L 36 0 L 36 20.07 C 36 20.6 35.789 21.109 35.414 21.484 C 35.039 21.859 34.53 22.07 34 22.07 C 33.47 22.07 32.961 21.859 32.586 21.484 C 32.211 21.109 32 20.6 32 20.07 L 32 4 L 4 4 Z M 27.42 27.22 L 19.42 35.22 C 19.234 35.406 19.014 35.553 18.771 35.654 C 18.528 35.755 18.268 35.807 18.005 35.807 C 17.742 35.807 17.482 35.755 17.239 35.654 C 16.996 35.553 16.776 35.406 16.59 35.22 L 8.59 27.22 C 8.244 26.84 8.058 26.342 8.07 25.829 C 8.082 25.316 8.29 24.826 8.653 24.463 C 9.015 24.099 9.504 23.889 10.017 23.875 C 10.53 23.862 11.029 24.046 11.41 24.39 L 16 28.98 L 16 12.17 C 16 11.64 16.211 11.131 16.586 10.756 C 16.961 10.381 17.469 10.17 18 10.17 C 18.53 10.17 19.039 10.381 19.414 10.756 C 19.789 11.131 20 11.64 20 12.17 L 20 28.98 L 24.6 24.39 C 24.782 24.19 25.003 24.028 25.25 23.916 C 25.496 23.803 25.763 23.742 26.034 23.736 C 26.305 23.73 26.574 23.779 26.825 23.88 C 27.077 23.981 27.305 24.132 27.496 24.324 C 27.688 24.516 27.838 24.745 27.938 24.996 C 28.038 25.248 28.086 25.517 28.079 25.788 C 28.072 26.059 28.01 26.326 27.896 26.572 C 27.783 26.818 27.621 27.038 27.42 27.22 Z" fill="currentColor" fill-rule="evenodd"/>
</svg>
