<svg xmlns="http://www.w3.org/2000/svg" width="21.545" height="40.121" viewBox="0 0 21.545 40.121" fill="none">
  <path d="M 20.435 0.24 C 20.506 0.266 20.577 0.296 20.645 0.33 L 20.745 0.391 L 20.935 0.521 L 21.015 0.59 C 21.073 0.642 21.127 0.699 21.175 0.761 C 21.207 0.789 21.234 0.823 21.255 0.86 L 21.375 1.03 C 21.395 1.076 21.418 1.119 21.445 1.16 C 21.515 1.22 21.515 1.281 21.515 1.351 L 21.515 1.88 L 21.545 1.88 L 21.545 38.351 C 21.534 38.831 21.333 39.286 20.986 39.618 C 20.64 39.95 20.175 40.131 19.695 40.12 C 19.215 40.11 18.759 39.908 18.427 39.562 C 18.095 39.215 17.914 38.75 17.925 38.271 L 17.925 26.82 L 14.545 26.82 L 14.545 25.09 C 14.545 11.18 16.165 0.81 19.365 0.24 L 20.435 0.24 Z M 1.45 0 C 1.651 0 1.849 0.042 2.032 0.122 C 2.216 0.203 2.381 0.32 2.517 0.468 C 2.652 0.615 2.756 0.79 2.821 0.979 C 2.886 1.169 2.911 1.37 2.895 1.57 L 2.895 9.57 C 2.895 10.82 3.605 11.69 4.235 11.69 L 4.715 11.69 L 4.715 1.69 C 4.698 1.491 4.723 1.289 4.788 1.1 C 4.853 0.91 4.957 0.735 5.093 0.588 C 5.229 0.44 5.394 0.323 5.577 0.242 C 5.761 0.162 5.96 0.12 6.16 0.12 C 6.361 0.12 6.559 0.162 6.742 0.242 C 6.926 0.323 7.091 0.44 7.227 0.588 C 7.362 0.735 7.466 0.91 7.531 1.1 C 7.596 1.289 7.622 1.491 7.606 1.69 L 7.606 11.69 L 8.425 11.69 C 9.065 11.69 9.776 10.82 9.776 9.57 L 9.776 1.57 C 9.774 1.378 9.811 1.187 9.885 1.009 C 9.959 0.831 10.067 0.67 10.204 0.535 C 10.341 0.4 10.504 0.293 10.683 0.222 C 10.862 0.151 11.053 0.116 11.245 0.12 L 11.255 0.12 C 11.447 0.124 11.636 0.166 11.811 0.244 C 11.986 0.322 12.144 0.434 12.276 0.574 C 12.407 0.714 12.509 0.878 12.576 1.058 C 12.643 1.237 12.673 1.429 12.665 1.62 L 12.665 9.62 C 12.665 12.37 10.765 14.62 8.425 14.62 L 7.975 14.62 L 7.975 38.351 C 7.932 38.809 7.718 39.234 7.374 39.54 C 7.031 39.846 6.583 40.011 6.123 40.001 C 5.663 39.991 5.224 39.807 4.894 39.485 C 4.564 39.164 4.367 38.73 4.345 38.271 L 4.345 14.57 L 4.245 14.57 C 1.905 14.57 0.005 12.34 0.005 9.57 L 0.005 1.57 C -0.012 1.37 0.013 1.169 0.078 0.979 C 0.143 0.79 0.247 0.615 0.383 0.468 C 0.519 0.32 0.684 0.203 0.867 0.122 C 1.051 0.041 1.25 0 1.45 0 Z" fill="currentColor" fill-rule="nonzero"/>
</svg>
