<svg xmlns="http://www.w3.org/2000/svg" width="30.891" height="39.989" viewBox="0 0 30.891 39.989" fill="none">
  <path d="M 21.186 4.569 C 20.887 3.271 20.156 2.112 19.114 1.282 C 18.071 0.452 16.778 0 15.446 0 C 14.113 0 12.82 0.452 11.777 1.282 C 10.735 2.112 10.004 3.271 9.706 4.569 C 11.436 3.52 13.422 2.965 15.446 2.965 C 17.47 2.965 19.455 3.52 21.186 4.569 Z M 16.596 39.849 C 17.442 39.639 18.215 39.202 18.832 38.585 C 19.448 37.968 19.885 37.196 20.096 36.349 L 10.796 36.349 C 10.947 36.96 11.216 37.535 11.59 38.041 C 11.963 38.548 12.432 38.975 12.971 39.3 C 13.509 39.625 14.107 39.841 14.729 39.935 C 15.351 40.03 15.985 40 16.596 39.849 Z M 27.736 27.319 L 27.736 19.809 L 27.736 17.169 C 27.736 13.91 26.441 10.784 24.136 8.479 C 21.831 6.174 18.705 4.879 15.446 4.879 C 12.186 4.879 9.06 6.174 6.755 8.479 C 4.45 10.784 3.156 13.91 3.156 17.169 L 3.156 27.319 C 2.241 27.437 1.406 27.9 0.822 28.613 C 0.237 29.326 -0.054 30.235 0.008 31.155 C 0.071 32.075 0.482 32.936 1.158 33.563 C 1.834 34.19 2.724 34.536 3.646 34.529 L 27.246 34.529 C 28.168 34.536 29.057 34.19 29.733 33.563 C 30.409 32.936 30.82 32.075 30.883 31.155 C 30.945 30.235 30.655 29.326 30.07 28.613 C 29.485 27.9 28.65 27.437 27.736 27.319 Z" fill="currentColor" fill-rule="nonzero"/>
</svg>
