<svg xmlns="http://www.w3.org/2000/svg" width="40" height="28.340" viewBox="0 0 40 28.340" fill="none">
  <path d="M 35.54 0 L 4.46 0 C 3.276 0.003 2.142 0.475 1.306 1.313 C 0.47 2.151 0 3.286 0 4.47 L 0 23.87 C 0 25.054 0.47 26.189 1.306 27.027 C 2.142 27.865 3.276 28.337 4.46 28.34 L 35.54 28.34 C 36.724 28.337 37.858 27.865 38.694 27.027 C 39.53 26.189 40 25.054 40 23.87 L 40 4.47 C 40 3.286 39.53 2.151 38.694 1.313 C 37.858 0.475 36.724 0.003 35.54 0 Z M 18 6.35 C 18 6.217 18.053 6.09 18.146 5.996 C 18.24 5.903 18.367 5.85 18.5 5.85 L 21.5 5.85 C 21.633 5.85 21.76 5.903 21.854 5.996 C 21.947 6.09 22 6.217 22 6.35 L 22 9.35 C 22 9.483 21.947 9.61 21.854 9.704 C 21.76 9.797 21.633 9.85 21.5 9.85 L 18.5 9.85 C 18.367 9.85 18.24 9.797 18.146 9.704 C 18.053 9.61 18 9.483 18 9.35 L 18 6.35 Z M 18 12.48 C 18 12.347 18.053 12.22 18.146 12.126 C 18.24 12.033 18.367 11.98 18.5 11.98 L 21.5 11.98 C 21.633 11.98 21.76 12.033 21.854 12.126 C 21.947 12.22 22 12.347 22 12.48 L 22 15.48 C 22 15.613 21.947 15.74 21.854 15.834 C 21.76 15.927 21.633 15.98 21.5 15.98 L 18.5 15.98 C 18.367 15.98 18.24 15.927 18.146 15.834 C 18.053 15.74 18 15.613 18 15.48 L 18 12.48 Z M 12.63 6.35 C 12.63 6.217 12.683 6.09 12.776 5.996 C 12.87 5.903 12.997 5.85 13.13 5.85 L 16.13 5.85 C 16.263 5.85 16.39 5.903 16.484 5.996 C 16.577 6.09 16.63 6.217 16.63 6.35 L 16.63 9.35 C 16.63 9.483 16.577 9.61 16.484 9.704 C 16.39 9.797 16.263 9.85 16.13 9.85 L 13.13 9.85 C 12.997 9.85 12.87 9.797 12.776 9.704 C 12.683 9.61 12.63 9.483 12.63 9.35 L 12.63 6.35 Z M 11.24 15.46 C 11.24 15.593 11.187 15.72 11.094 15.814 C 11 15.907 10.873 15.96 10.74 15.96 L 7.74 15.96 C 7.607 15.96 7.48 15.907 7.386 15.814 C 7.293 15.72 7.24 15.593 7.24 15.46 L 7.24 12.46 C 7.24 12.327 7.293 12.2 7.386 12.106 C 7.48 12.013 7.607 11.96 7.74 11.96 L 10.74 11.96 C 10.873 11.96 11 12.013 11.094 12.106 C 11.187 12.2 11.24 12.327 11.24 12.46 L 11.24 15.46 Z M 11.24 9.33 C 11.24 9.463 11.187 9.59 11.094 9.684 C 11 9.777 10.873 9.83 10.74 9.83 L 7.74 9.83 C 7.607 9.83 7.48 9.777 7.386 9.684 C 7.293 9.59 7.24 9.463 7.24 9.33 L 7.24 6.33 C 7.24 6.197 7.293 6.07 7.386 5.976 C 7.48 5.883 7.607 5.83 7.74 5.83 L 10.74 5.83 C 10.873 5.83 11 5.883 11.094 5.976 C 11.187 6.07 11.24 6.197 11.24 6.33 L 11.24 9.33 Z M 12.63 12.48 C 12.63 12.347 12.683 12.22 12.776 12.126 C 12.87 12.033 12.997 11.98 13.13 11.98 L 16.13 11.98 C 16.263 11.98 16.39 12.033 16.484 12.126 C 16.577 12.22 16.63 12.347 16.63 12.48 L 16.63 15.48 C 16.63 15.613 16.577 15.74 16.484 15.834 C 16.39 15.927 16.263 15.98 16.13 15.98 L 13.13 15.98 C 12.997 15.98 12.87 15.927 12.776 15.834 C 12.683 15.74 12.63 15.613 12.63 15.48 L 12.63 12.48 Z M 27.34 22.17 C 27.34 22.303 27.287 22.43 27.194 22.524 C 27.1 22.617 26.973 22.67 26.84 22.67 L 13.16 22.67 C 13.027 22.67 12.9 22.617 12.806 22.524 C 12.713 22.43 12.66 22.303 12.66 22.17 L 12.66 19.17 C 12.66 19.037 12.713 18.91 12.806 18.816 C 12.9 18.723 13.027 18.67 13.16 18.67 L 26.84 18.67 C 26.973 18.67 27.1 18.723 27.194 18.816 C 27.287 18.91 27.34 19.037 27.34 19.17 L 27.34 22.17 Z M 27.34 15.44 C 27.34 15.573 27.287 15.7 27.194 15.794 C 27.1 15.887 26.973 15.94 26.84 15.94 L 23.84 15.94 C 23.707 15.94 23.58 15.887 23.486 15.794 C 23.393 15.7 23.34 15.573 23.34 15.44 L 23.34 12.44 C 23.34 12.307 23.393 12.18 23.486 12.086 C 23.58 11.993 23.707 11.94 23.84 11.94 L 26.84 11.94 C 26.973 11.94 27.1 11.993 27.194 12.086 C 27.287 12.18 27.34 12.307 27.34 12.44 L 27.34 15.44 Z M 27.34 9.31 C 27.34 9.443 27.287 9.57 27.194 9.664 C 27.1 9.757 26.973 9.81 26.84 9.81 L 23.84 9.81 C 23.707 9.81 23.58 9.757 23.486 9.664 C 23.393 9.57 23.34 9.443 23.34 9.31 L 23.34 6.31 C 23.34 6.177 23.393 6.05 23.486 5.956 C 23.58 5.863 23.707 5.81 23.84 5.81 L 26.84 5.81 C 26.973 5.81 27.1 5.863 27.194 5.956 C 27.287 6.05 27.34 6.177 27.34 6.31 L 27.34 9.31 Z M 32.71 15.44 C 32.71 15.573 32.657 15.7 32.564 15.794 C 32.47 15.887 32.343 15.94 32.21 15.94 L 29.21 15.94 C 29.077 15.94 28.95 15.887 28.856 15.794 C 28.763 15.7 28.71 15.573 28.71 15.44 L 28.71 12.44 C 28.71 12.307 28.763 12.18 28.856 12.086 C 28.95 11.993 29.077 11.94 29.21 11.94 L 32.21 11.94 C 32.343 11.94 32.47 11.993 32.564 12.086 C 32.657 12.18 32.71 12.307 32.71 12.44 L 32.71 15.44 Z M 32.71 9.31 C 32.71 9.443 32.657 9.57 32.564 9.664 C 32.47 9.757 32.343 9.81 32.21 9.81 L 29.21 9.81 C 29.077 9.81 28.95 9.757 28.856 9.664 C 28.763 9.57 28.71 9.443 28.71 9.31 L 28.71 6.31 C 28.71 6.177 28.763 6.05 28.856 5.956 C 28.95 5.863 29.077 5.81 29.21 5.81 L 32.21 5.81 C 32.343 5.81 32.47 5.863 32.564 5.956 C 32.657 6.05 32.71 6.177 32.71 6.31 L 32.71 9.31 Z" fill="currentColor" fill-rule="nonzero"/>
</svg>
