<svg xmlns="http://www.w3.org/2000/svg" width="40" height="40" viewBox="0 0 40 40" fill="none">
  <path d="M 27.65 4 C 27.65 2.939 27.229 1.922 26.478 1.172 C 25.728 0.421 24.711 0 23.65 0 L 4 0 C 2.939 0 1.922 0.421 1.172 1.172 C 0.421 1.922 0 2.939 0 4 L 0 23.61 C 0 24.671 0.421 25.688 1.172 26.438 C 1.922 27.189 2.939 27.61 4 27.61 L 8 27.61 L 8 11.91 C 8 10.849 8.421 9.832 9.172 9.082 C 9.922 8.331 10.939 7.91 12 7.91 L 27.66 7.91 L 27.65 4 Z M 36 12.34 L 16.36 12.34 C 15.299 12.34 14.282 12.761 13.532 13.512 C 12.781 14.262 12.36 15.279 12.36 16.34 L 12.36 36 C 12.36 37.061 12.781 38.078 13.532 38.828 C 14.282 39.579 15.299 40 16.36 40 L 36 40 C 37.061 40 38.078 39.579 38.828 38.828 C 39.579 38.078 40 37.061 40 36 L 40 16.35 C 40.001 15.824 39.899 15.303 39.698 14.816 C 39.498 14.33 39.204 13.888 38.832 13.515 C 38.46 13.143 38.019 12.847 37.533 12.645 C 37.047 12.444 36.526 12.34 36 12.34 Z" fill="currentColor" fill-rule="nonzero"/>
</svg>
