<svg xmlns="http://www.w3.org/2000/svg" width="39.914" height="32.780" viewBox="0 0 39.914 32.780" fill="none">
  <path d="M 33.599 26.94 C 34.598 27.941 34.099 30.52 33.179 31.43 C 32.446 32.189 31.469 32.668 30.419 32.78 L 30.269 32.74 C 30.03 32.734 29.794 32.681 29.576 32.583 C 29.358 32.485 29.162 32.344 28.999 32.17 L 28.929 32.11 L 23.688 26.88 L 28.528 21.88 L 33.599 26.94 Z M 35.249 0.63 C 35.373 0.632 35.494 0.674 35.593 0.749 C 35.692 0.825 35.764 0.93 35.799 1.05 C 35.803 1.09 35.803 1.13 35.799 1.17 C 35.834 1.289 35.831 1.416 35.792 1.534 C 35.753 1.652 35.679 1.756 35.579 1.83 L 35.358 2.05 L 31.568 6 C 31.5 6.068 31.448 6.149 31.413 6.238 C 31.379 6.328 31.363 6.424 31.368 6.52 C 31.368 6.615 31.388 6.71 31.426 6.798 C 31.464 6.886 31.519 6.965 31.589 7.03 L 33.738 9.03 C 33.874 9.157 34.053 9.229 34.238 9.23 C 34.432 9.223 34.616 9.14 34.749 9 L 38.479 5 L 38.639 4.82 C 38.702 4.723 38.788 4.642 38.889 4.585 C 38.99 4.528 39.103 4.495 39.219 4.49 L 39.469 4.49 C 39.543 4.508 39.613 4.539 39.675 4.584 C 39.737 4.629 39.789 4.686 39.829 4.751 C 39.869 4.816 39.895 4.889 39.907 4.964 C 39.919 5.039 39.916 5.116 39.898 5.19 L 38.898 10.89 C 38.876 11.443 38.665 11.973 38.299 12.39 L 36.299 14.45 C 35.963 14.832 35.494 15.071 34.988 15.12 L 30.759 15.27 C 30.57 15.274 30.39 15.354 30.259 15.49 L 26.999 19.03 L 19.299 27.18 L 15.719 31.01 C 15.353 31.466 14.898 31.844 14.383 32.121 C 13.867 32.398 13.301 32.568 12.719 32.62 L 12.698 32.62 C 11.869 32.588 11.079 32.262 10.469 31.7 L 10.349 31.58 L 10.269 31.51 C 9.379 30.62 8.269 28.75 10.669 26.21 L 14.299 22.42 L 21.999 14.31 L 25.309 10.75 C 25.439 10.612 25.511 10.43 25.509 10.24 L 25.429 6.06 C 25.434 5.543 25.638 5.049 25.999 4.68 L 27.999 2.54 C 28.366 2.177 28.845 1.952 29.358 1.9 L 35.039 0.63 C 35.109 0.619 35.18 0.619 35.249 0.63 Z M 14.198 0 C 15.354 0.023 16.48 0.369 17.448 1 C 17.672 1.135 17.859 1.324 17.992 1.549 C 18.125 1.774 18.2 2.029 18.209 2.29 C 18.232 2.552 18.187 2.816 18.076 3.055 C 17.966 3.293 17.794 3.499 17.579 3.65 L 17.238 3.9 C 16.018 4.71 14.689 5.691 14.579 6.9 C 14.574 6.963 14.574 7.027 14.579 7.09 C 14.727 7.849 15.099 8.546 15.648 9.09 L 19.459 12.88 L 14.658 17.88 L 11.099 14.27 C 11.031 14.197 10.949 14.139 10.857 14.1 C 10.766 14.06 10.668 14.04 10.568 14.04 C 10.469 14.041 10.371 14.062 10.28 14.102 C 10.189 14.141 10.107 14.198 10.039 14.27 L 8.139 16.37 C 7.764 16.726 7.266 16.923 6.749 16.92 C 5.749 16.92 4.649 16.22 3.209 14.7 L 2.849 14.27 C 0.359 11.72 -0.621 10.37 0.398 9.16 L 3.539 5.79 C 3.598 5.713 3.673 5.65 3.76 5.606 C 3.846 5.563 3.942 5.54 4.039 5.54 C 4.167 5.541 4.292 5.58 4.398 5.65 C 4.52 5.739 4.667 5.788 4.818 5.79 C 4.996 5.786 5.166 5.718 5.299 5.6 L 8.929 2.37 C 10.308 0.922 12.199 0.071 14.198 0 Z" fill="currentColor" fill-rule="nonzero"/>
</svg>
