<svg xmlns="http://www.w3.org/2000/svg" width="29.420" height="40" viewBox="0 0 29.420 40" fill="none">
  <path d="M 14.71 40 C 14.314 39.998 13.923 39.907 13.566 39.734 C 13.21 39.561 12.897 39.31 12.65 39 C 9.71 35.47 0 23.2 0 14.71 C 0 10.809 1.55 7.067 4.308 4.308 C 7.067 1.55 10.809 0 14.71 0 C 18.611 0 22.353 1.55 25.112 4.308 C 27.87 7.067 29.42 10.809 29.42 14.71 C 29.42 23.2 19.71 35.48 16.77 39 C 16.522 39.309 16.208 39.558 15.852 39.731 C 15.496 39.904 15.106 39.996 14.71 40 Z M 14.71 2.48 C 11.47 2.485 8.364 3.774 6.071 6.064 C 3.779 8.355 2.488 11.46 2.48 14.7 C 2.48 22.56 12.54 35.03 14.55 37.45 C 14.571 37.472 14.595 37.489 14.623 37.501 C 14.65 37.513 14.68 37.519 14.71 37.519 C 14.74 37.519 14.77 37.513 14.797 37.501 C 14.825 37.489 14.849 37.472 14.87 37.45 C 16.87 35.03 26.94 22.56 26.94 14.71 C 26.935 11.468 25.644 8.36 23.352 6.068 C 21.06 3.776 17.952 2.485 14.71 2.48 Z M 14.71 22.48 C 13.179 22.48 11.683 22.026 10.41 21.176 C 9.137 20.325 8.145 19.116 7.559 17.702 C 6.973 16.288 6.82 14.731 7.119 13.23 C 7.417 11.729 8.155 10.349 9.237 9.267 C 10.319 8.185 11.699 7.447 13.2 7.149 C 14.701 6.85 16.258 7.003 17.672 7.589 C 19.086 8.175 20.295 9.167 21.146 10.44 C 21.996 11.713 22.45 13.209 22.45 14.74 C 22.455 15.76 22.259 16.771 21.872 17.714 C 21.486 18.658 20.916 19.516 20.197 20.239 C 19.478 20.962 18.623 21.536 17.681 21.927 C 16.74 22.318 15.73 22.52 14.71 22.52 L 14.71 22.48 Z M 14.71 9.55 C 13.684 9.552 12.681 9.858 11.829 10.43 C 10.977 11.001 10.313 11.812 9.922 12.761 C 9.531 13.709 9.43 14.753 9.631 15.759 C 9.832 16.765 10.327 17.689 11.054 18.413 C 11.78 19.138 12.705 19.632 13.711 19.831 C 14.718 20.03 15.761 19.927 16.708 19.534 C 17.656 19.141 18.466 18.476 19.036 17.622 C 19.606 16.769 19.91 15.766 19.91 14.74 C 19.899 13.369 19.347 12.057 18.372 11.092 C 17.398 10.127 16.081 9.587 14.71 9.59 L 14.71 9.55 Z" fill="currentColor" fill-rule="nonzero"/>
</svg>
