<svg xmlns="http://www.w3.org/2000/svg" width="40" height="40" viewBox="0 0 40 40" fill="none">
  <path d="M 20 40 C 23.956 40 27.822 38.827 31.111 36.629 C 34.4 34.432 36.964 31.308 38.478 27.654 C 39.991 23.999 40.387 19.978 39.616 16.098 C 38.844 12.219 36.939 8.655 34.142 5.858 C 31.345 3.061 27.781 1.156 23.902 0.384 C 20.022 -0.387 16.001 0.009 12.346 1.522 C 8.692 3.036 5.568 5.6 3.371 8.889 C 1.173 12.178 0 16.044 0 20 C 0 25.304 2.107 30.391 5.858 34.142 C 7.715 35.999 9.92 37.473 12.346 38.478 C 14.773 39.483 17.374 40 20 40 Z M 24.47 12.39 C 24.473 12.049 24.609 11.722 24.851 11.481 C 25.092 11.239 25.419 11.103 25.76 11.1 C 26.102 11.1 26.43 11.236 26.672 11.478 C 26.914 11.72 27.05 12.048 27.05 12.39 L 27.05 27.62 C 27.047 27.961 26.91 28.288 26.67 28.53 C 26.551 28.65 26.409 28.745 26.253 28.808 C 26.096 28.872 25.929 28.903 25.76 28.9 C 25.591 28.901 25.424 28.869 25.267 28.805 C 25.111 28.742 24.968 28.648 24.848 28.529 C 24.729 28.41 24.633 28.268 24.568 28.112 C 24.503 27.956 24.47 27.789 24.47 27.62 L 24.47 12.39 Z M 13 11.15 C 13 11.055 13.028 10.962 13.081 10.883 C 13.133 10.804 13.208 10.742 13.296 10.705 C 13.384 10.669 13.481 10.659 13.574 10.678 C 13.667 10.697 13.753 10.743 13.82 10.81 L 22.67 19.66 C 22.756 19.752 22.803 19.874 22.803 20 C 22.803 20.126 22.756 20.248 22.67 20.34 L 13.82 29.19 C 13.753 29.257 13.667 29.303 13.574 29.322 C 13.481 29.341 13.384 29.331 13.296 29.295 C 13.208 29.258 13.133 29.196 13.081 29.117 C 13.028 29.038 13 28.945 13 28.85 L 13 11.15 Z" fill="currentColor" fill-rule="nonzero"/>
</svg>
