<svg xmlns="http://www.w3.org/2000/svg" width="40" height="22.880" viewBox="0 0 40 22.880" fill="none">
  <path d="M 20 0 C 15.964 0.025 12.002 1.092 8.499 3.096 C 4.995 5.1 2.068 7.974 0 11.44 C 2.069 14.906 4.996 17.779 8.5 19.783 C 12.003 21.787 15.964 22.854 20 22.88 C 24.035 22.848 27.994 21.779 31.496 19.775 C 34.999 17.772 37.927 14.902 40 11.44 C 37.933 7.973 35.006 5.098 31.502 3.094 C 27.998 1.09 24.036 0.024 20 0 Z M 29 11.44 C 28.982 13.242 28.419 14.996 27.386 16.472 C 26.352 17.948 24.897 19.077 23.21 19.71 C 21.093 20.04 18.937 20.04 16.82 19.71 C 15.123 19.093 13.656 17.968 12.62 16.488 C 11.584 15.009 11.028 13.246 11.028 11.44 C 11.028 9.634 11.584 7.871 12.62 6.392 C 13.656 4.912 15.123 3.787 16.82 3.17 C 18.938 2.85 21.092 2.85 23.21 3.17 C 24.897 3.803 26.352 4.932 27.386 6.408 C 28.419 7.884 28.982 9.638 29 11.44 Z M 3.22 11.44 C 5.283 8.727 7.914 6.498 10.93 4.91 C 9.514 6.795 8.749 9.088 8.749 11.445 C 8.749 13.802 9.514 16.095 10.93 17.98 C 7.91 16.389 5.275 14.157 3.21 11.44 L 3.22 11.44 Z M 29.09 17.98 C 30.506 16.095 31.271 13.802 31.271 11.445 C 31.271 9.088 30.506 6.795 29.09 4.91 C 32.107 6.495 34.74 8.725 36.8 11.44 C 34.734 14.154 32.099 16.383 29.08 17.97 L 29.09 17.98 Z M 20 4.71 C 21.797 4.699 23.526 5.402 24.806 6.663 C 26.086 7.925 26.814 9.643 26.83 11.44 C 26.83 11.529 26.812 11.618 26.778 11.7 C 26.744 11.783 26.694 11.858 26.631 11.921 C 26.568 11.984 26.493 12.034 26.41 12.068 C 26.328 12.102 26.239 12.12 26.15 12.12 C 26.061 12.12 25.972 12.102 25.89 12.068 C 25.807 12.034 25.732 11.984 25.669 11.921 C 25.606 11.858 25.556 11.783 25.522 11.7 C 25.488 11.618 25.47 11.529 25.47 11.44 C 25.457 10.002 24.873 8.627 23.848 7.619 C 22.822 6.61 21.438 6.049 20 6.06 C 19.831 6.068 19.665 6.01 19.538 5.898 C 19.411 5.786 19.333 5.629 19.32 5.46 L 19.32 5.44 C 19.312 5.271 19.37 5.105 19.482 4.978 C 19.594 4.851 19.751 4.773 19.92 4.76 L 20 4.71 Z" fill="currentColor" fill-rule="nonzero"/>
</svg>
