<svg xmlns="http://www.w3.org/2000/svg" width="40" height="40" viewBox="0 0 40 40" fill="none">
  <path d="M 5.85 5.866 C 3.055 8.664 1.153 12.227 0.383 16.106 C -0.387 19.985 0.01 24.006 1.525 27.659 C 3.039 31.312 5.602 34.434 8.891 36.631 C 12.179 38.828 16.045 40 20 40 C 23.955 40 27.821 38.828 31.109 36.631 C 34.398 34.434 36.961 31.312 38.475 27.659 C 39.99 24.006 40.387 19.985 39.617 16.106 C 38.847 12.227 36.945 8.664 34.15 5.866 C 32.293 4.006 30.087 2.531 27.659 1.525 C 25.231 0.518 22.628 0 20 0 C 17.372 0 14.769 0.518 12.341 1.525 C 9.913 2.531 7.707 4.006 5.85 5.866 Z M 32.37 32.356 C 29.924 34.801 26.807 36.466 23.415 37.14 C 20.022 37.814 16.506 37.468 13.311 36.144 C 10.115 34.82 7.384 32.578 5.462 29.702 C 3.541 26.826 2.515 23.445 2.515 19.986 C 2.515 16.527 3.541 13.146 5.462 10.27 C 7.384 7.394 10.115 5.152 13.311 3.828 C 16.506 2.504 20.022 2.157 23.415 2.831 C 26.807 3.505 29.924 5.17 32.37 7.616 C 35.637 10.904 37.471 15.351 37.471 19.986 C 37.471 24.621 35.637 29.068 32.37 32.356 Z M 24 14.226 L 20.07 18.146 L 16.15 14.226 C 16.035 14.1 15.896 13.998 15.741 13.928 C 15.586 13.857 15.418 13.819 15.248 13.815 C 15.078 13.811 14.908 13.842 14.75 13.905 C 14.592 13.968 14.448 14.063 14.328 14.184 C 14.207 14.304 14.113 14.448 14.049 14.606 C 13.986 14.764 13.955 14.933 13.959 15.104 C 13.963 15.274 14.002 15.442 14.072 15.597 C 14.143 15.752 14.244 15.891 14.37 16.006 L 18.3 19.926 L 14.37 23.846 C 14.145 24.091 14.024 24.415 14.036 24.748 C 14.047 25.081 14.189 25.396 14.43 25.626 C 14.662 25.846 14.97 25.969 15.29 25.969 C 15.61 25.969 15.918 25.846 16.15 25.626 L 20.07 21.706 L 24 25.616 C 24.112 25.75 24.25 25.86 24.407 25.937 C 24.564 26.015 24.735 26.06 24.909 26.068 C 25.084 26.076 25.258 26.048 25.421 25.985 C 25.584 25.922 25.733 25.826 25.857 25.703 C 25.981 25.58 26.077 25.432 26.141 25.269 C 26.205 25.106 26.234 24.932 26.227 24.757 C 26.22 24.583 26.176 24.411 26.099 24.255 C 26.022 24.098 25.914 23.958 25.78 23.846 L 21.85 19.926 L 25.78 16.006 C 25.897 15.898 25.991 15.768 26.058 15.624 C 26.125 15.48 26.163 15.324 26.169 15.165 C 26.176 15.006 26.151 14.848 26.096 14.699 C 26.041 14.55 25.958 14.413 25.85 14.296 L 25.78 14.236 C 25.535 14.018 25.218 13.897 24.89 13.897 C 24.562 13.897 24.245 14.018 24 14.236 L 24 14.226 Z" fill="currentColor" fill-rule="nonzero"/>
</svg>
