<svg xmlns="http://www.w3.org/2000/svg" width="40.012" height="32.760" viewBox="0 0 40.012 32.760" fill="none">
  <path d="M 39.192 23.13 L 34.012 20.96 C 33.684 20.827 33.317 20.828 32.99 20.962 C 32.662 21.097 32.401 21.355 32.262 21.68 C 32.196 21.839 32.161 22.009 32.161 22.18 C 32.161 22.352 32.196 22.522 32.262 22.68 C 32.334 22.841 32.437 22.986 32.566 23.106 C 32.695 23.226 32.847 23.32 33.012 23.38 L 34.872 24.16 C 34.89 24.17 34.906 24.184 34.916 24.202 C 34.927 24.219 34.932 24.24 34.932 24.26 C 34.933 24.28 34.928 24.299 34.917 24.315 C 34.906 24.332 34.89 24.344 34.872 24.35 L 20.012 30.01 L 5.172 24.38 C 5.154 24.374 5.138 24.362 5.127 24.345 C 5.116 24.329 5.111 24.31 5.112 24.29 C 5.112 24.27 5.117 24.249 5.128 24.232 C 5.138 24.214 5.154 24.2 5.172 24.19 L 7.012 23.38 C 7.293 23.219 7.506 22.961 7.612 22.655 C 7.717 22.348 7.708 22.014 7.586 21.714 C 7.464 21.414 7.237 21.168 6.948 21.022 C 6.658 20.876 6.326 20.84 6.012 20.92 L 0.832 23.13 C 0.586 23.231 0.375 23.403 0.227 23.624 C 0.079 23.844 0 24.104 0 24.37 C 0 24.636 0.079 24.896 0.227 25.117 C 0.375 25.338 0.586 25.51 0.832 25.61 L 19.432 32.67 C 19.581 32.731 19.741 32.761 19.902 32.76 L 20.032 32.76 C 20.196 32.76 20.359 32.73 20.512 32.67 L 39.112 25.61 C 39.371 25.523 39.596 25.359 39.758 25.138 C 39.919 24.918 40.008 24.653 40.012 24.38 C 40.015 24.114 39.939 23.853 39.793 23.63 C 39.647 23.408 39.437 23.234 39.192 23.13 Z M 1.012 9.89 L 19.612 16.95 C 19.762 17.01 19.921 17.04 20.082 17.04 C 20.25 17.041 20.416 17.011 20.572 16.95 L 39.012 9.7 C 39.262 9.601 39.476 9.429 39.626 9.206 C 39.776 8.982 39.855 8.719 39.852 8.45 C 39.854 8.183 39.775 7.921 39.625 7.7 C 39.475 7.478 39.261 7.308 39.012 7.21 L 20.512 0.09 C 20.353 0.027 20.183 -0.003 20.012 0 C 19.848 0.001 19.685 0.032 19.532 0.09 L 6.162 5.24 L 1.012 7.38 C 0.766 7.481 0.555 7.653 0.407 7.874 C 0.259 8.094 0.18 8.354 0.18 8.62 C 0.18 8.886 0.259 9.146 0.407 9.367 C 0.555 9.588 0.766 9.76 1.012 9.86 L 1.012 9.89 Z M 5.332 8.48 L 7.152 7.71 L 20.012 2.77 L 20.092 2.77 L 34.602 8.38 C 34.619 8.388 34.633 8.401 34.643 8.417 C 34.653 8.433 34.658 8.452 34.658 8.47 C 34.658 8.489 34.653 8.507 34.643 8.523 C 34.633 8.539 34.619 8.552 34.602 8.56 L 20.072 14.26 L 5.342 8.67 C 5.322 8.662 5.304 8.649 5.292 8.631 C 5.279 8.613 5.273 8.592 5.272 8.57 C 5.272 8.551 5.278 8.532 5.289 8.516 C 5.299 8.501 5.314 8.488 5.332 8.48 Z M 0.872 17.58 L 19.472 24.64 C 19.621 24.701 19.781 24.731 19.942 24.73 L 20.072 24.73 C 20.236 24.73 20.399 24.7 20.552 24.64 L 39.152 17.58 C 39.397 17.486 39.609 17.323 39.762 17.109 C 39.915 16.896 40.002 16.643 40.012 16.38 C 40.018 16.113 39.942 15.851 39.796 15.628 C 39.65 15.405 39.439 15.231 39.192 15.13 L 34.012 12.93 C 33.685 12.796 33.319 12.796 32.992 12.928 C 32.665 13.061 32.403 13.317 32.262 13.64 C 32.196 13.799 32.161 13.969 32.161 14.14 C 32.161 14.312 32.196 14.482 32.262 14.64 C 32.331 14.808 32.432 14.96 32.561 15.087 C 32.69 15.214 32.844 15.314 33.012 15.38 L 34.872 16.16 C 34.89 16.168 34.905 16.181 34.915 16.196 C 34.926 16.212 34.932 16.231 34.932 16.25 C 34.934 16.271 34.929 16.292 34.918 16.31 C 34.907 16.328 34.891 16.342 34.872 16.35 L 20.012 21.98 L 5.172 16.38 C 5.153 16.372 5.137 16.358 5.126 16.34 C 5.115 16.322 5.11 16.301 5.112 16.28 C 5.112 16.261 5.118 16.242 5.129 16.226 C 5.139 16.211 5.154 16.198 5.172 16.19 L 7.012 15.38 C 7.197 15.333 7.37 15.246 7.519 15.126 C 7.668 15.007 7.79 14.856 7.876 14.685 C 7.962 14.515 8.011 14.327 8.018 14.136 C 8.026 13.945 7.993 13.755 7.921 13.578 C 7.849 13.4 7.74 13.241 7.601 13.109 C 7.462 12.978 7.297 12.877 7.116 12.815 C 6.935 12.753 6.743 12.73 6.553 12.748 C 6.362 12.766 6.178 12.825 6.012 12.92 L 0.832 15.1 C 0.58 15.203 0.366 15.381 0.219 15.61 C 0.073 15.84 0 16.108 0.012 16.38 C 0.022 16.643 0.109 16.896 0.262 17.109 C 0.415 17.323 0.627 17.486 0.872 17.58 Z" fill="currentColor" fill-rule="nonzero"/>
</svg>
