<svg xmlns="http://www.w3.org/2000/svg" width="39.712" height="27.220" viewBox="0 0 39.712 27.220" fill="none">
  <path d="M 39.351 10.52 L 31.231 1.71 C 30.734 1.172 30.13 0.742 29.459 0.448 C 28.788 0.154 28.064 0.001 27.331 0 L 10.331 0 C 9.551 0 8.781 0 8.331 0.65 L 0.331 11.48 C 0.077 11.822 -0.037 12.248 0.011 12.671 C 0.059 13.095 0.266 13.484 0.591 13.76 C 0.85 13.95 1.16 14.058 1.481 14.07 L 1.481 27.22 L 38.711 27.22 L 38.711 12.76 C 38.884 12.713 39.046 12.631 39.187 12.521 C 39.329 12.411 39.447 12.274 39.535 12.118 C 39.624 11.962 39.68 11.789 39.702 11.611 C 39.723 11.433 39.709 11.253 39.661 11.08 C 39.604 10.871 39.497 10.679 39.351 10.52 Z M 4.591 24.05 L 4.591 11.24 C 4.6 11.16 4.6 11.08 4.591 11 L 10.591 2.81 L 18.831 11.69 C 19.384 12.279 20.121 12.663 20.921 12.78 L 20.921 24.05 L 4.591 24.05 Z" fill="currentColor" fill-rule="nonzero"/>
</svg>
