<svg xmlns="http://www.w3.org/2000/svg" width="40.006" height="37.620" viewBox="0 0 40.006 37.620" fill="none">
  <path d="M 20.102 24.42 C 21.002 24.42 21.821 25.041 23.001 25.9 L 23.181 26.04 L 25.581 27.811 C 28.921 30.301 34.472 34.4 38.071 37 C 37.457 37.405 36.737 37.621 36.001 37.62 L 4.001 37.62 C 3.266 37.593 2.55 37.38 1.921 37 C 5.761 34.28 11.691 29.93 14.921 27.57 L 16.971 26.061 L 17.201 25.9 C 18.381 25.04 19.202 24.42 20.102 24.42 Z M 0.142 13.46 C 1.022 13.41 1.912 13.97 3.142 14.75 L 3.381 14.91 C 3.671 15.09 4.601 15.671 5.881 16.521 C 10.181 19.401 11.571 20.32 16.371 23.4 L 16.522 23.521 L 15.801 24.03 L 15.571 24.2 L 13.511 25.75 C 10.231 28.16 4.172 32.6 0.402 35.29 C 0.123 34.626 -0.014 33.911 0.001 33.19 L 0.001 14.19 C -0.002 14.057 0.022 13.924 0.071 13.8 C 0.081 13.684 0.105 13.57 0.142 13.46 Z M 39.911 13.41 C 39.988 13.738 40.018 14.074 40.001 14.41 L 40.001 33.811 C 39.982 34.301 39.86 34.782 39.642 35.221 C 35.942 32.601 30.112 28.271 26.942 25.931 L 24.531 24.15 L 24.301 23.99 L 23.652 23.521 C 28.671 20.301 30.031 19.401 34.411 16.471 C 35.691 15.621 36.621 15.04 36.911 14.86 L 37.152 14.7 C 37.961 14.066 38.905 13.625 39.911 13.41 Z M 20.012 0 C 21.126 0 22.216 0.331 23.142 0.95 C 23.433 1.151 26.552 3.371 30.001 5.86 L 32.451 5.86 C 32.778 5.86 33.091 5.99 33.321 6.221 C 33.552 6.451 33.682 6.764 33.682 7.09 L 33.682 8.53 C 35.332 9.73 36.831 10.83 37.921 11.65 C 37.229 11.99 36.56 12.378 35.921 12.811 L 35.682 12.96 C 35.392 13.15 34.451 13.73 33.161 14.59 L 31.241 15.88 L 31.241 8.181 L 9.001 8.181 L 9.001 15.811 L 7.131 14.59 C 5.851 13.73 4.901 13.15 4.612 12.96 L 4.381 12.811 C 3.71 12.365 3.008 11.967 2.281 11.62 L 6.531 8.511 L 6.531 7.09 C 6.534 6.763 6.666 6.45 6.899 6.22 C 7.131 5.99 7.445 5.86 7.772 5.86 L 10.152 5.86 C 13.561 3.361 16.619 1.131 16.881 0.95 C 17.807 0.331 18.898 0 20.012 0 Z" fill="currentColor" fill-rule="nonzero"/>
</svg>
