<svg xmlns="http://www.w3.org/2000/svg" width="36" height="32" viewBox="0 0 36 32" fill="none">
  <path d="M 7.72 3 C 7.066 3.251 6.52 3.724 6.178 4.335 C 5.835 4.946 5.718 5.659 5.846 6.348 C 5.973 7.037 6.338 7.659 6.877 8.107 C 7.416 8.555 8.094 8.801 8.795 8.801 C 9.496 8.801 10.174 8.555 10.713 8.107 C 11.252 7.659 11.617 7.037 11.745 6.348 C 11.873 5.659 11.755 4.946 11.412 4.335 C 11.07 3.724 10.524 3.251 9.87 3 L 9.87 0 L 26.13 0 L 26.13 3 C 25.476 3.251 24.93 3.724 24.588 4.335 C 24.245 4.946 24.127 5.659 24.255 6.348 C 24.383 7.037 24.748 7.659 25.287 8.107 C 25.826 8.555 26.504 8.801 27.205 8.801 C 27.906 8.801 28.584 8.555 29.123 8.107 C 29.662 7.659 30.027 7.037 30.154 6.348 C 30.282 5.659 30.165 4.946 29.822 4.335 C 29.48 3.724 28.934 3.251 28.28 3 L 28.28 0 L 32 0 C 33.061 0 34.078 0.422 34.828 1.172 C 35.578 1.922 36 2.939 36 4 L 36 20.18 L 35.13 21 L 24.26 31.22 L 23.44 32 L 4 32 C 2.939 32 1.922 31.578 1.172 30.828 C 0.422 30.078 0 29.061 0 28 L 0 4 C 0 2.939 0.422 1.922 1.172 1.172 C 1.922 0.422 2.939 0 4 0 L 7.72 0 L 7.72 3 Z M 2.5 28 C 2.496 28.199 2.532 28.398 2.605 28.583 C 2.679 28.768 2.789 28.938 2.929 29.08 C 3.068 29.223 3.235 29.336 3.419 29.413 C 3.603 29.49 3.8 29.53 4 29.53 L 22 29.53 L 22 24.34 C 22 22.837 22.593 21.395 23.651 20.327 C 24.71 19.26 26.147 18.653 27.65 18.64 L 33.5 18.64 L 33.5 13.46 L 2.5 13.46 L 2.5 28 Z M 27.65 21 C 26.76 21 25.905 21.351 25.271 21.976 C 24.636 22.601 24.273 23.45 24.26 24.34 L 24.26 28.12 L 31.87 21 L 27.65 21 Z M 9.03 4.703 C 9.255 4.749 9.462 4.86 9.624 5.023 C 9.786 5.187 9.895 5.395 9.938 5.62 C 9.982 5.846 9.958 6.079 9.869 6.291 C 9.78 6.503 9.629 6.683 9.438 6.81 C 9.245 6.936 9.02 7.002 8.79 7 C 8.484 6.997 8.192 6.874 7.977 6.656 C 7.761 6.439 7.64 6.146 7.64 5.84 C 7.64 5.61 7.708 5.385 7.836 5.194 C 7.964 5.003 8.146 4.855 8.358 4.768 C 8.571 4.68 8.805 4.658 9.03 4.703 Z M 27.2 4.65 C 27.841 4.65 28.36 5.169 28.36 5.81 C 28.36 6.45 27.841 6.97 27.2 6.97 C 26.56 6.97 26.04 6.45 26.04 5.81 C 26.04 5.169 26.56 4.65 27.2 4.65 Z" fill="currentColor" fill-rule="nonzero"/>
</svg>
