<svg xmlns="http://www.w3.org/2000/svg" width="27.080" height="40" viewBox="0 0 27.080 40" fill="none">
  <path d="M 24.32 0 C 24.689 0 25.042 0.147 25.303 0.407 C 25.563 0.668 25.71 1.021 25.71 1.39 L 25.71 37.32 L 25.74 37.32 C 26.096 37.32 26.436 37.462 26.688 37.713 C 26.939 37.964 27.08 38.305 27.08 38.66 C 27.08 39.015 26.939 39.356 26.688 39.607 C 26.436 39.859 26.096 40 25.74 40 L 17.33 40 L 17.33 35.73 C 17.33 35.507 17.286 35.285 17.2 35.079 C 17.115 34.873 16.99 34.686 16.832 34.528 C 16.674 34.37 16.487 34.245 16.28 34.159 C 16.074 34.074 15.853 34.03 15.63 34.03 L 11.47 34.03 C 11.247 34.03 11.026 34.074 10.819 34.159 C 10.613 34.245 10.425 34.37 10.268 34.528 C 10.11 34.686 9.985 34.873 9.899 35.079 C 9.814 35.285 9.77 35.507 9.77 35.73 L 9.77 40 L 1.34 40 C 0.985 40 0.644 39.859 0.393 39.607 C 0.141 39.356 0 39.015 0 38.66 C 0 38.305 0.141 37.964 0.393 37.713 C 0.644 37.462 0.985 37.32 1.34 37.32 L 1.34 6.17 C 1.34 5.988 1.376 5.808 1.446 5.64 C 1.516 5.472 1.619 5.319 1.748 5.19 C 1.877 5.062 2.031 4.961 2.199 4.893 C 2.368 4.824 2.548 4.789 2.73 4.79 L 24.32 0 Z M 12.92 36 L 14.12 36 C 14.351 35.986 14.579 36.063 14.755 36.214 C 14.93 36.365 15.039 36.579 15.06 36.81 L 15.06 40 L 11.98 40 L 11.98 36.77 C 12.011 36.546 12.123 36.342 12.298 36.199 C 12.472 36.056 12.695 35.985 12.92 36 Z M 6.67 25.28 C 6.615 25.279 6.561 25.289 6.51 25.309 C 6.459 25.329 6.413 25.358 6.374 25.396 C 6.335 25.435 6.303 25.48 6.282 25.53 C 6.261 25.581 6.25 25.636 6.25 25.69 L 6.25 29.77 C 6.25 29.825 6.261 29.88 6.282 29.931 C 6.303 29.982 6.334 30.028 6.373 30.067 C 6.412 30.106 6.458 30.137 6.509 30.158 C 6.56 30.179 6.615 30.19 6.67 30.19 L 10.67 30.19 C 10.781 30.19 10.888 30.146 10.967 30.067 C 11.046 29.989 11.09 29.881 11.09 29.77 L 11.09 25.69 C 11.09 25.636 11.079 25.581 11.058 25.53 C 11.036 25.48 11.006 25.435 10.967 25.396 C 10.928 25.358 10.881 25.329 10.83 25.309 C 10.779 25.289 10.725 25.279 10.67 25.28 L 6.67 25.28 Z M 16.38 25.27 C 16.269 25.27 16.162 25.314 16.083 25.393 C 16.004 25.471 15.96 25.579 15.96 25.69 L 15.96 29.77 C 15.96 29.881 16.004 29.989 16.083 30.067 C 16.162 30.146 16.269 30.19 16.38 30.19 L 20.38 30.19 C 20.435 30.19 20.49 30.179 20.541 30.158 C 20.592 30.137 20.638 30.106 20.677 30.067 C 20.716 30.028 20.746 29.982 20.768 29.931 C 20.789 29.88 20.8 29.825 20.8 29.77 L 20.8 25.69 C 20.8 25.635 20.789 25.58 20.768 25.529 C 20.746 25.478 20.716 25.432 20.677 25.393 C 20.638 25.354 20.592 25.323 20.541 25.302 C 20.49 25.281 20.435 25.27 20.38 25.27 L 16.38 25.27 Z M 6.67 17.06 C 6.615 17.06 6.56 17.071 6.509 17.092 C 6.458 17.113 6.412 17.144 6.373 17.183 C 6.334 17.222 6.303 17.268 6.282 17.319 C 6.261 17.37 6.25 17.425 6.25 17.48 L 6.25 21.55 C 6.25 21.605 6.261 21.66 6.282 21.711 C 6.303 21.762 6.334 21.808 6.373 21.847 C 6.412 21.886 6.458 21.917 6.509 21.938 C 6.56 21.96 6.615 21.97 6.67 21.97 L 10.67 21.97 C 10.781 21.97 10.888 21.925 10.967 21.847 C 11.046 21.768 11.09 21.661 11.09 21.55 L 11.09 17.48 C 11.09 17.425 11.079 17.37 11.058 17.319 C 11.037 17.268 11.006 17.222 10.967 17.183 C 10.928 17.144 10.882 17.113 10.831 17.092 C 10.78 17.071 10.725 17.06 10.67 17.06 L 6.67 17.06 Z M 16.38 17.06 C 16.325 17.058 16.271 17.068 16.22 17.088 C 16.169 17.108 16.123 17.139 16.084 17.177 C 16.045 17.215 16.013 17.26 15.992 17.311 C 15.971 17.361 15.96 17.415 15.96 17.47 L 15.96 21.55 C 15.96 21.661 16.004 21.768 16.083 21.847 C 16.162 21.925 16.269 21.97 16.38 21.97 L 20.38 21.97 C 20.435 21.97 20.49 21.96 20.541 21.938 C 20.592 21.917 20.638 21.886 20.677 21.847 C 20.716 21.808 20.746 21.762 20.768 21.711 C 20.789 21.66 20.8 21.605 20.8 21.55 L 20.8 17.47 C 20.8 17.415 20.789 17.361 20.768 17.311 C 20.746 17.26 20.716 17.215 20.677 17.177 C 20.638 17.139 20.591 17.108 20.54 17.088 C 20.489 17.068 20.435 17.058 20.38 17.06 L 16.38 17.06 Z M 6.67 8.84 C 6.559 8.842 6.454 8.888 6.376 8.966 C 6.298 9.044 6.253 9.149 6.25 9.26 L 6.25 13.34 C 6.25 13.394 6.261 13.449 6.282 13.499 C 6.303 13.549 6.335 13.596 6.374 13.634 C 6.413 13.672 6.459 13.702 6.51 13.722 C 6.561 13.742 6.615 13.751 6.67 13.75 L 10.67 13.75 C 10.725 13.751 10.779 13.742 10.83 13.722 C 10.881 13.702 10.928 13.672 10.967 13.634 C 11.006 13.596 11.036 13.549 11.058 13.499 C 11.079 13.449 11.09 13.395 11.09 13.34 L 11.09 9.26 C 11.09 9.148 11.046 9.042 10.967 8.963 C 10.888 8.884 10.781 8.84 10.67 8.84 L 6.67 8.84 Z M 16.38 8.84 C 16.269 8.84 16.162 8.884 16.083 8.963 C 16.004 9.042 15.96 9.148 15.96 9.26 L 15.96 13.34 C 15.96 13.394 15.971 13.449 15.992 13.499 C 16.013 13.549 16.045 13.596 16.084 13.634 C 16.123 13.672 16.169 13.702 16.22 13.722 C 16.271 13.742 16.325 13.751 16.38 13.75 L 20.38 13.75 C 20.435 13.751 20.489 13.742 20.54 13.722 C 20.591 13.702 20.638 13.672 20.677 13.634 C 20.716 13.596 20.746 13.549 20.768 13.499 C 20.789 13.449 20.8 13.395 20.8 13.34 L 20.8 9.26 C 20.8 9.205 20.789 9.15 20.768 9.1 C 20.746 9.049 20.716 9.002 20.677 8.963 C 20.638 8.924 20.592 8.893 20.541 8.872 C 20.49 8.851 20.435 8.84 20.38 8.84 L 16.38 8.84 Z" fill="currentColor" fill-rule="nonzero"/>
</svg>
