<svg xmlns="http://www.w3.org/2000/svg" width="40" height="40" viewBox="0 0 40 40" fill="none">
  <path d="M 20 0 C 16.044 0 12.178 1.173 8.889 3.371 C 5.6 5.568 3.036 8.692 1.522 12.346 C 0.009 16.001 -0.387 20.022 0.384 23.902 C 1.156 27.781 3.061 31.345 5.858 34.142 C 8.655 36.939 12.219 38.844 16.098 39.616 C 19.978 40.387 23.999 39.991 27.654 38.478 C 31.308 36.964 34.432 34.4 36.629 31.111 C 38.827 27.822 40 23.956 40 20 C 40 17.374 39.483 14.773 38.478 12.346 C 37.473 9.92 35.999 7.715 34.142 5.858 C 32.285 4.001 30.08 2.528 27.654 1.522 C 25.227 0.517 22.626 0 20 0 Z M 18.08 11.25 C 18.08 10.735 18.284 10.242 18.648 9.878 C 19.012 9.514 19.505 9.31 20.02 9.31 C 20.535 9.31 21.028 9.514 21.392 9.878 C 21.756 10.242 21.96 10.735 21.96 11.25 L 21.96 22.25 C 21.96 22.765 21.756 23.258 21.392 23.622 C 21.028 23.986 20.535 24.19 20.02 24.19 C 19.505 24.19 19.012 23.986 18.648 23.622 C 18.284 23.258 18.08 22.765 18.08 22.25 L 18.08 11.25 Z M 22.21 28.48 C 22.211 28.771 22.155 29.06 22.045 29.329 C 21.934 29.598 21.772 29.843 21.566 30.049 C 21.361 30.255 21.117 30.419 20.848 30.531 C 20.579 30.643 20.291 30.7 20 30.7 C 19.414 30.7 18.852 30.467 18.437 30.053 C 18.023 29.638 17.79 29.076 17.79 28.49 C 17.79 27.904 18.023 27.342 18.437 26.927 C 18.852 26.513 19.414 26.28 20 26.28 C 20.586 26.28 21.148 26.513 21.563 26.927 C 21.977 27.342 22.21 27.904 22.21 28.49 L 22.21 28.48 Z" fill="currentColor" fill-rule="nonzero"/>
</svg>
