<svg xmlns="http://www.w3.org/2000/svg" width="40.048" height="38.750" viewBox="0 0 40.048 38.750" fill="none">
  <path d="M 39.713 25 C 39.608 24.727 39.416 24.496 39.166 24.343 C 38.917 24.189 38.625 24.122 38.333 24.15 C 38.026 24.164 37.724 24.235 37.443 24.36 C 37.037 24.54 36.627 24.73 36.213 24.93 C 33.293 26.29 30.403 27.68 27.483 29.05 C 27.333 29.11 27.153 29.38 27.053 29.5 C 26.796 29.855 26.463 30.149 26.08 30.361 C 25.696 30.574 25.271 30.7 24.833 30.73 L 16.933 31.01 L 14.933 31.08 C 14.87 31.083 14.806 31.072 14.746 31.049 C 14.687 31.026 14.633 30.991 14.588 30.946 C 14.543 30.901 14.507 30.847 14.484 30.787 C 14.461 30.727 14.451 30.664 14.453 30.6 C 14.453 30.12 14.653 29.95 14.973 29.95 C 15.093 29.95 21.363 29.58 24.513 29.46 C 24.831 29.45 25.143 29.378 25.433 29.25 C 25.657 29.15 25.841 28.978 25.953 28.76 C 26.093 28.47 26.125 28.141 26.045 27.829 C 25.964 27.518 25.776 27.246 25.513 27.06 C 25.206 26.894 24.863 26.805 24.513 26.8 C 23.083 26.8 21.663 26.8 20.243 26.9 L 19.743 26.9 C 18.566 26.885 17.398 26.699 16.273 26.35 C 14.951 25.923 13.58 25.664 12.193 25.58 L 11.663 25.58 C 9.541 25.66 7.446 26.089 5.463 26.85 L 4.343 27.09 C 4.343 26.5 4.343 25.9 4.343 25.3 C 4.341 25.159 4.285 25.025 4.186 24.924 C 4.087 24.824 3.954 24.765 3.813 24.76 L 0.533 24.76 C 0.458 24.76 0.384 24.775 0.316 24.805 C 0.247 24.836 0.186 24.88 0.136 24.936 C 0.086 24.992 0.048 25.057 0.025 25.129 C 0.002 25.2 -0.005 25.276 0.003 25.35 C 0.003 29.46 0.003 34.13 0.003 38.22 C 0.003 38.361 0.059 38.495 0.159 38.595 C 0.258 38.694 0.393 38.75 0.533 38.75 L 3.823 38.75 C 3.964 38.75 4.099 38.694 4.198 38.595 C 4.298 38.495 4.353 38.361 4.353 38.22 L 4.353 36.78 L 5.353 36.6 C 6.588 36.377 7.839 36.254 9.093 36.23 C 10.766 36.206 12.438 36.313 14.093 36.55 C 16.093 36.84 18.163 37.13 20.203 37.38 C 20.614 37.44 21.028 37.47 21.443 37.47 C 22.034 37.481 22.619 37.369 23.163 37.14 C 23.973 36.8 24.773 36.46 25.543 36.06 C 30.361 33.337 35.034 30.367 39.543 27.16 C 39.833 26.884 40.011 26.511 40.043 26.113 C 40.074 25.714 39.957 25.317 39.713 25 Z M 25.373 13.15 C 25.306 12.958 25.2 12.781 25.063 12.63 C 24.992 12.554 24.905 12.495 24.808 12.457 C 24.711 12.419 24.607 12.403 24.503 12.41 C 24.28 12.389 24.057 12.457 23.883 12.6 C 23.738 12.737 23.625 12.904 23.553 13.09 C 23.474 13.295 23.426 13.511 23.413 13.73 C 23.413 13.963 23.413 14.173 23.413 14.36 C 23.413 14.53 23.413 14.73 23.413 14.96 C 23.425 15.18 23.462 15.398 23.523 15.61 C 23.585 15.805 23.691 15.983 23.833 16.13 C 24.007 16.262 24.22 16.334 24.438 16.334 C 24.657 16.334 24.869 16.262 25.043 16.13 C 25.192 15.984 25.305 15.806 25.373 15.61 C 25.443 15.403 25.486 15.188 25.503 14.97 C 25.503 14.75 25.503 14.55 25.503 14.37 C 25.503 14.19 25.503 14.02 25.503 13.79 C 25.48 13.573 25.437 13.359 25.373 13.15 Z M 16.903 7.65 C 16.844 7.444 16.742 7.253 16.603 7.09 C 16.53 7.014 16.441 6.954 16.343 6.914 C 16.245 6.874 16.139 6.856 16.033 6.86 C 15.809 6.852 15.591 6.931 15.423 7.08 C 15.27 7.224 15.153 7.402 15.083 7.6 C 15.007 7.816 14.96 8.041 14.943 8.27 C 14.943 8.52 14.943 8.73 14.943 8.91 C 14.943 9.09 14.943 9.29 14.943 9.5 C 14.945 9.711 14.982 9.921 15.053 10.12 C 15.115 10.303 15.222 10.468 15.363 10.6 C 15.535 10.739 15.752 10.811 15.973 10.8 C 16.191 10.809 16.405 10.738 16.573 10.6 C 16.718 10.469 16.828 10.304 16.893 10.12 C 16.969 9.925 17.017 9.719 17.033 9.51 C 17.033 9.3 17.033 9.1 17.033 8.93 C 17.033 8.76 17.033 8.56 17.033 8.33 C 17.015 8.099 16.972 7.871 16.903 7.65 Z M 31.763 11.44 C 31.763 8.406 30.558 5.496 28.413 3.351 C 26.267 1.205 23.357 0 20.323 0 C 18.061 0 15.849 0.671 13.968 1.928 C 12.086 3.185 10.62 4.972 9.754 7.062 C 8.888 9.152 8.662 11.453 9.103 13.672 C 9.545 15.891 10.634 17.929 12.234 19.529 C 13.834 21.129 15.872 22.219 18.092 22.66 C 20.311 23.102 22.611 22.875 24.701 22.009 C 26.792 21.143 28.578 19.677 29.835 17.796 C 31.092 15.914 31.763 13.703 31.763 11.44 Z M 16.003 12.03 C 15.568 12.04 15.135 11.959 14.733 11.79 C 14.406 11.643 14.12 11.416 13.903 11.13 C 13.675 10.837 13.518 10.494 13.443 10.13 C 13.342 9.721 13.295 9.301 13.303 8.88 C 13.296 8.455 13.35 8.03 13.463 7.62 C 13.566 7.257 13.74 6.917 13.973 6.62 C 14.207 6.326 14.504 6.09 14.843 5.93 C 15.204 5.748 15.6 5.646 16.003 5.63 C 16.442 5.619 16.877 5.711 17.273 5.9 C 17.606 6.063 17.891 6.307 18.103 6.61 C 18.326 6.928 18.479 7.289 18.553 7.67 C 18.646 8.087 18.69 8.513 18.683 8.94 C 18.691 9.359 18.637 9.777 18.523 10.18 C 18.427 10.544 18.257 10.884 18.023 11.18 C 17.792 11.459 17.497 11.679 17.163 11.82 C 16.767 11.981 16.341 12.059 15.913 12.05 L 16.003 12.03 Z M 17.663 17.68 L 16.183 17.68 L 23.003 5.5 L 24.403 5.5 L 17.663 17.68 Z M 27.243 14.41 C 27.22 14.832 27.139 15.249 27.003 15.65 C 26.906 16.014 26.736 16.354 26.503 16.65 C 26.273 16.938 25.979 17.167 25.643 17.32 C 25.247 17.484 24.822 17.566 24.393 17.56 C 23.966 17.583 23.54 17.511 23.143 17.35 C 22.812 17.196 22.523 16.962 22.303 16.67 C 22.089 16.37 21.936 16.03 21.853 15.67 C 21.752 15.238 21.705 14.794 21.713 14.35 C 21.712 13.928 21.766 13.508 21.873 13.1 C 21.979 12.738 22.152 12.398 22.383 12.1 C 22.622 11.817 22.919 11.589 23.253 11.43 C 24.065 11.104 24.972 11.104 25.783 11.43 C 26.108 11.592 26.389 11.828 26.603 12.12 C 26.825 12.416 26.978 12.758 27.053 13.12 C 27.144 13.534 27.191 13.956 27.193 14.38 L 27.243 14.41 Z" fill="currentColor" fill-rule="nonzero"/>
</svg>
