<svg xmlns="http://www.w3.org/2000/svg" width="40.045" height="39.975" viewBox="0 0 40.045 39.975" fill="none">
  <path d="M 34.615 21.65 L 28.055 19.22 C 24.675 17.97 22.015 15.3 20.755 11.92 L 18.325 5.36 C 18.065 4.66 17.075 4.66 16.815 5.36 L 14.385 11.92 C 13.135 15.3 10.465 17.96 7.085 19.22 L 0.525 21.65 C -0.175 21.91 -0.175 22.9 0.525 23.16 L 7.085 25.59 C 10.465 26.84 13.125 29.51 14.385 32.89 L 16.815 39.45 C 17.075 40.15 18.065 40.15 18.325 39.45 L 20.755 32.89 C 22.005 29.51 24.675 26.85 28.055 25.59 L 34.615 23.16 C 35.315 22.9 35.315 21.91 34.615 21.65 Z M 39.805 7.67 L 35.815 6.19 C 34.905 5.85 34.185 5.14 33.855 4.23 L 32.375 0.24 C 32.255 -0.08 31.805 -0.08 31.685 0.24 L 30.205 4.23 C 29.865 5.14 29.155 5.86 28.245 6.19 L 24.255 7.67 C 23.935 7.79 23.935 8.24 24.255 8.36 L 28.245 9.84 C 29.155 10.18 29.875 10.89 30.205 11.8 L 31.685 15.79 C 31.805 16.11 32.255 16.11 32.375 15.79 L 33.855 11.8 C 34.195 10.89 34.905 10.17 35.815 9.84 L 39.805 8.36 C 40.125 8.24 40.125 7.79 39.805 7.67 Z" fill="currentColor" fill-rule="nonzero"/>
</svg>
