<svg xmlns="http://www.w3.org/2000/svg" width="36" height="35.842" viewBox="0 0 36 35.842" fill="none">
  <path d="M 34 13.741 C 34.53 13.741 35.039 13.952 35.414 14.327 C 35.789 14.702 36 15.211 36 15.741 L 36 35.842 L 0 35.842 L 0 15.741 C 0 15.211 0.211 14.702 0.586 14.327 C 0.961 13.952 1.47 13.741 2 13.741 C 2.53 13.741 3.039 13.952 3.414 14.327 C 3.789 14.702 4 15.211 4 15.741 L 4 31.842 L 32 31.842 L 32 15.741 C 32 15.211 32.211 14.702 32.586 14.327 C 32.961 13.952 33.47 13.741 34 13.741 Z M 18.004 0 C 18.268 0.002 18.529 0.056 18.772 0.159 C 19.015 0.262 19.235 0.413 19.42 0.602 L 27.42 8.602 C 27.795 8.977 28.006 9.486 28.006 10.017 C 28.006 10.547 27.795 11.056 27.42 11.432 C 27.045 11.807 26.536 12.018 26.005 12.018 C 25.474 12.018 24.965 11.807 24.59 11.432 L 20 6.842 L 20 23.632 C 20 24.162 19.789 24.671 19.414 25.046 C 19.039 25.421 18.53 25.632 18 25.632 C 17.736 25.632 17.475 25.58 17.231 25.479 C 16.988 25.377 16.766 25.229 16.58 25.042 C 16.208 24.667 16 24.16 16 23.632 L 16 6.842 L 11.41 11.412 C 11.035 11.787 10.526 11.998 9.995 11.998 C 9.465 11.998 8.955 11.787 8.58 11.412 C 8.205 11.037 7.994 10.528 7.994 9.997 C 7.994 9.466 8.205 8.957 8.58 8.582 L 16.58 0.582 C 16.767 0.396 16.99 0.248 17.234 0.148 C 17.479 0.049 17.74 -0.002 18.004 0 Z" fill="currentColor" fill-rule="nonzero"/>
</svg>
