<svg xmlns="http://www.w3.org/2000/svg" width="40" height="31.800" viewBox="0 0 40 31.800" fill="none">
  <path d="M 23.28 10.9 L 29 10.9 L 29 16.44 L 34.51 16.44 L 34.51 31.8 L 0 31.8 L 0 6.38 C 0 5.55 0.19 5.32 1 5.32 L 23.28 5.32 L 23.28 10.9 Z M 12.7 17.15 C 12.151 17.453 11.643 17.825 11.19 18.26 C 8.77 21.33 6.41 24.44 4.03 27.53 C 3.86 27.76 3.72 28 3.51 28.3 L 30.83 28.3 C 28.72 26.45 26.83 24.75 24.83 23.08 C 24.69 22.96 24.31 23.02 24.11 23.13 C 22.88 23.82 21.68 24.54 20.42 25.28 L 12.7 17.15 Z M 34.46 4.13 C 34.429 4.32 34.437 4.515 34.483 4.702 C 34.53 4.889 34.614 5.066 34.73 5.22 C 34.856 5.328 35.002 5.411 35.16 5.463 C 35.318 5.514 35.485 5.533 35.65 5.52 L 40 5.52 L 40 8.3 L 34.77 8.3 C 34.69 8.3 34.614 8.332 34.558 8.388 C 34.501 8.444 34.47 8.52 34.47 8.6 L 34.47 14.06 L 31.5 14.06 L 31.5 8.64 C 31.501 8.6 31.495 8.56 31.48 8.523 C 31.466 8.486 31.443 8.453 31.415 8.425 C 31.387 8.397 31.353 8.375 31.316 8.36 C 31.279 8.346 31.24 8.338 31.2 8.34 L 25.9 8.34 L 25.9 5.56 L 31.15 5.56 C 31.19 5.561 31.23 5.554 31.268 5.54 C 31.305 5.526 31.339 5.504 31.368 5.476 C 31.397 5.448 31.421 5.414 31.437 5.377 C 31.452 5.34 31.46 5.3 31.46 5.26 L 31.46 0 L 34.46 0 L 34.46 4.13 Z" fill="currentColor" fill-rule="nonzero"/>
</svg>
