<svg xmlns="http://www.w3.org/2000/svg" width="38.579" height="40.000" viewBox="0 0 38.579 40.000" fill="none">
  <path d="M 6.52 28.84 L 14.74 28.84 C 15.072 28.84 15.389 28.708 15.624 28.474 C 15.858 28.24 15.99 27.922 15.99 27.59 C 15.99 27.259 15.858 26.941 15.624 26.706 C 15.389 26.472 15.072 26.34 14.74 26.34 L 6.52 26.34 C 6.188 26.34 5.871 26.472 5.636 26.706 C 5.402 26.941 5.27 27.259 5.27 27.59 C 5.27 27.922 5.402 28.24 5.636 28.474 C 5.871 28.708 6.188 28.84 6.52 28.84 Z M 18.71 22.7 C 18.711 22.537 18.68 22.374 18.618 22.223 C 18.557 22.071 18.466 21.933 18.35 21.817 C 18.235 21.701 18.098 21.608 17.947 21.546 C 17.796 21.483 17.634 21.45 17.47 21.45 L 6.52 21.45 C 6.209 21.478 5.92 21.621 5.709 21.852 C 5.499 22.082 5.382 22.383 5.382 22.695 C 5.382 23.007 5.499 23.308 5.709 23.539 C 5.92 23.769 6.209 23.912 6.52 23.94 L 17.52 23.94 C 17.839 23.925 18.141 23.788 18.362 23.557 C 18.583 23.327 18.708 23.02 18.71 22.7 Z M 6.52 33.7 L 15.73 33.7 C 16.42 33.7 16.79 33.14 16.79 32.45 C 16.79 32.121 16.659 31.806 16.427 31.573 C 16.194 31.341 15.879 31.21 15.55 31.21 L 6.55 31.21 C 6.239 31.238 5.95 31.381 5.739 31.612 C 5.529 31.842 5.412 32.143 5.412 32.455 C 5.412 32.767 5.529 33.068 5.739 33.299 C 5.95 33.529 6.239 33.672 6.55 33.7 L 6.52 33.7 Z M 26.69 7.87 C 26.69 7.539 26.558 7.221 26.324 6.986 C 26.089 6.752 25.772 6.62 25.44 6.62 L 6.52 6.62 C 6.209 6.648 5.92 6.791 5.709 7.022 C 5.499 7.252 5.382 7.553 5.382 7.865 C 5.382 8.177 5.499 8.478 5.709 8.709 C 5.92 8.939 6.209 9.082 6.52 9.11 L 25.44 9.11 C 25.604 9.112 25.766 9.08 25.918 9.019 C 26.069 8.957 26.207 8.866 26.323 8.751 C 26.439 8.635 26.532 8.498 26.595 8.347 C 26.658 8.196 26.69 8.034 26.69 7.87 Z M 13.63 2.54 L 22.72 2.54 L 15.46 2.54 L 13.63 2.54 Z M 20.45 12.47 C 20.45 12.307 20.418 12.144 20.355 11.993 C 20.292 11.842 20.199 11.705 20.083 11.59 C 19.967 11.475 19.829 11.383 19.678 11.322 C 19.526 11.26 19.364 11.229 19.2 11.23 L 7 11.23 C 6.689 11.258 6.4 11.401 6.189 11.632 C 5.979 11.862 5.862 12.163 5.862 12.475 C 5.862 12.787 5.979 13.088 6.189 13.319 C 6.4 13.549 6.689 13.692 7 13.72 L 19.2 13.72 C 19.532 13.72 19.849 13.588 20.084 13.354 C 20.318 13.12 20.45 12.802 20.45 12.47 Z M 30.7 29.74 C 30.535 29.74 30.372 29.773 30.219 29.836 C 30.067 29.9 29.929 29.993 29.813 30.11 C 29.696 30.227 29.604 30.366 29.542 30.519 C 29.48 30.672 29.449 30.835 29.45 31 L 29.45 35.76 C 29.447 36.223 29.262 36.665 28.934 36.991 C 28.606 37.317 28.162 37.5 27.7 37.5 L 4.29 37.5 C 3.826 37.5 3.381 37.316 3.053 36.988 C 2.724 36.659 2.54 36.214 2.54 35.75 L 2.54 4.25 C 2.54 3.786 2.724 3.341 3.053 3.013 C 3.381 2.685 3.826 2.5 4.29 2.5 L 27.7 2.5 C 28.164 2.5 28.609 2.685 28.937 3.013 C 29.266 3.341 29.45 3.786 29.45 4.25 L 29.45 6.39 C 29.45 6.722 29.582 7.04 29.816 7.274 C 30.051 7.508 30.368 7.64 30.7 7.64 C 31.032 7.64 31.349 7.508 31.584 7.274 C 31.818 7.04 31.95 6.722 31.95 6.39 L 31.95 4.25 C 31.95 3.123 31.502 2.042 30.705 1.245 C 29.908 0.448 28.827 0 27.7 0 L 4.29 0 C 3.729 -0.005 3.172 0.101 2.651 0.312 C 2.131 0.523 1.658 0.836 1.259 1.231 C 0.86 1.626 0.543 2.096 0.327 2.614 C 0.111 3.133 0 3.689 0 4.25 L 0 35.75 C 0 36.312 0.111 36.868 0.327 37.386 C 0.543 37.904 0.86 38.374 1.259 38.77 C 1.658 39.165 2.131 39.477 2.651 39.688 C 3.172 39.899 3.729 40.005 4.29 40 L 27.7 40 C 28.262 40.007 28.82 39.902 29.342 39.691 C 29.863 39.481 30.338 39.169 30.738 38.773 C 31.138 38.378 31.455 37.907 31.672 37.388 C 31.888 36.869 32 36.313 32 35.75 L 32 31 C 32.001 30.831 31.969 30.663 31.903 30.507 C 31.838 30.351 31.742 30.209 31.62 30.092 C 31.498 29.974 31.354 29.882 31.196 29.821 C 31.038 29.761 30.869 29.733 30.7 29.74 Z M 30.5 27 C 32.659 26.935 34.708 26.034 36.215 24.487 C 37.722 22.94 38.569 20.869 38.578 18.709 C 38.588 16.549 37.758 14.471 36.263 12.911 C 34.769 11.352 32.728 10.434 30.57 10.35 L 30.5 10.35 C 29.382 10.311 28.269 10.498 27.225 10.899 C 26.181 11.3 25.228 11.907 24.424 12.684 C 23.62 13.461 22.98 14.392 22.543 15.421 C 22.107 16.45 21.881 17.557 21.881 18.675 C 21.881 19.793 22.107 20.9 22.543 21.929 C 22.98 22.959 23.62 23.89 24.424 24.667 C 25.228 25.443 26.181 26.05 27.225 26.451 C 28.269 26.852 29.382 27.039 30.5 27 Z M 31.12 21.62 C 31.12 21.816 31.042 22.005 30.903 22.143 C 30.764 22.282 30.576 22.36 30.38 22.36 C 30.184 22.36 29.996 22.282 29.857 22.143 C 29.718 22.005 29.64 21.816 29.64 21.62 L 29.64 18.31 C 29.64 18.114 29.718 17.926 29.857 17.787 C 29.996 17.648 30.184 17.57 30.38 17.57 C 30.576 17.57 30.764 17.648 30.903 17.787 C 31.042 17.926 31.12 18.114 31.12 18.31 L 31.12 21.62 Z M 30.38 15 C 30.544 15 30.705 15.049 30.841 15.14 C 30.978 15.231 31.084 15.361 31.147 15.513 C 31.21 15.664 31.226 15.831 31.194 15.992 C 31.162 16.153 31.083 16.301 30.967 16.417 C 30.851 16.533 30.703 16.612 30.542 16.644 C 30.381 16.676 30.214 16.66 30.062 16.597 C 29.911 16.534 29.781 16.428 29.69 16.291 C 29.599 16.155 29.55 15.994 29.55 15.83 C 29.55 15.61 29.637 15.399 29.793 15.243 C 29.949 15.088 30.16 15 30.38 15 Z" fill="currentColor" fill-rule="nonzero"/>
</svg>
