<svg xmlns="http://www.w3.org/2000/svg" width="40.015" height="32.690" viewBox="0 0 40.015 32.690" fill="none">
  <path d="M 24.84 9.19 C 25.476 9.19 26.091 8.968 26.581 8.562 C 27.07 8.157 27.403 7.593 27.522 6.969 C 27.64 6.344 27.537 5.698 27.23 5.142 C 26.923 4.585 26.432 4.153 25.84 3.92 L 25.84 1 C 25.84 0.735 25.735 0.48 25.547 0.293 C 25.36 0.105 25.105 0 24.84 0 C 24.575 0 24.321 0.105 24.133 0.293 C 23.945 0.48 23.84 0.735 23.84 1 L 23.84 3.92 C 23.249 4.153 22.757 4.585 22.45 5.142 C 22.143 5.698 22.04 6.344 22.159 6.969 C 22.277 7.593 22.61 8.157 23.099 8.562 C 23.589 8.968 24.204 9.19 24.84 9.19 Z M 24.84 5.4 C 25.05 5.4 25.255 5.462 25.429 5.579 C 25.603 5.695 25.739 5.861 25.819 6.054 C 25.9 6.248 25.921 6.461 25.88 6.667 C 25.839 6.872 25.738 7.061 25.59 7.21 C 25.441 7.358 25.253 7.459 25.047 7.5 C 24.841 7.541 24.628 7.52 24.434 7.439 C 24.241 7.359 24.075 7.223 23.959 7.049 C 23.842 6.875 23.78 6.67 23.78 6.46 C 23.776 6.318 23.801 6.177 23.852 6.045 C 23.904 5.913 23.981 5.793 24.08 5.691 C 24.179 5.589 24.297 5.509 24.427 5.453 C 24.558 5.398 24.698 5.37 24.84 5.37 L 24.84 5.4 Z M 11.84 3.4 L 20.98 3.4 C 21.265 3.373 21.53 3.241 21.723 3.029 C 21.916 2.818 22.023 2.541 22.023 2.255 C 22.023 1.969 21.916 1.692 21.723 1.481 C 21.53 1.269 21.265 1.137 20.98 1.11 L 11.87 1.11 C 11.585 1.137 11.32 1.269 11.127 1.481 C 10.934 1.692 10.827 1.969 10.827 2.255 C 10.827 2.541 10.934 2.818 11.127 3.029 C 11.32 3.241 11.585 3.373 11.87 3.4 L 11.84 3.4 Z M 32.05 16.69 L 31.98 16.69 C 29.861 16.699 27.833 17.549 26.34 19.052 C 24.847 20.555 24.011 22.589 24.015 24.707 C 24.02 26.826 24.865 28.856 26.364 30.353 C 27.864 31.849 29.896 32.69 32.015 32.69 C 34.134 32.69 36.166 31.849 37.666 30.353 C 39.166 28.856 40.01 26.826 40.015 24.707 C 40.02 22.589 39.184 20.555 37.691 19.052 C 36.197 17.549 34.169 16.699 32.05 16.69 Z M 35.97 25.46 L 32.71 25.46 L 32.71 28.72 C 32.722 28.824 32.712 28.929 32.681 29.028 C 32.649 29.128 32.597 29.22 32.528 29.298 C 32.458 29.376 32.373 29.438 32.278 29.481 C 32.183 29.524 32.08 29.546 31.975 29.546 C 31.871 29.546 31.767 29.524 31.672 29.481 C 31.577 29.438 31.492 29.376 31.422 29.298 C 31.353 29.22 31.301 29.128 31.269 29.028 C 31.238 28.929 31.228 28.824 31.24 28.72 L 31.24 25.46 L 27.98 25.46 C 27.8 25.439 27.634 25.352 27.513 25.217 C 27.393 25.081 27.326 24.906 27.326 24.725 C 27.326 24.544 27.393 24.369 27.513 24.233 C 27.634 24.098 27.8 24.011 27.98 23.99 L 31.25 23.99 L 31.25 20.72 C 31.271 20.54 31.358 20.374 31.493 20.253 C 31.629 20.132 31.804 20.066 31.985 20.066 C 32.167 20.066 32.342 20.132 32.477 20.253 C 32.613 20.374 32.699 20.54 32.72 20.72 L 32.72 23.99 L 35.97 23.99 C 36.074 23.978 36.179 23.988 36.279 24.019 C 36.378 24.051 36.47 24.103 36.548 24.172 C 36.626 24.242 36.688 24.327 36.731 24.422 C 36.774 24.517 36.796 24.621 36.796 24.725 C 36.796 24.829 36.774 24.933 36.731 25.028 C 36.688 25.123 36.626 25.208 36.548 25.278 C 36.47 25.347 36.378 25.399 36.279 25.431 C 36.179 25.462 36.074 25.472 35.97 25.46 Z M 8.03 9.19 C 8.666 9.19 9.281 8.968 9.771 8.562 C 10.26 8.157 10.593 7.593 10.712 6.969 C 10.83 6.344 10.727 5.698 10.42 5.142 C 10.113 4.585 9.622 4.153 9.03 3.92 L 9.03 1 C 9.03 0.735 8.925 0.48 8.737 0.293 C 8.55 0.105 8.295 0 8.03 0 C 7.765 0 7.511 0.105 7.323 0.293 C 7.135 0.48 7.03 0.735 7.03 1 L 7.03 3.92 C 6.439 4.153 5.947 4.585 5.64 5.142 C 5.333 5.698 5.23 6.344 5.349 6.969 C 5.467 7.593 5.8 8.157 6.289 8.562 C 6.779 8.968 7.394 9.19 8.03 9.19 Z M 8.03 5.4 C 8.242 5.388 8.452 5.44 8.634 5.549 C 8.816 5.658 8.962 5.819 9.051 6.011 C 9.141 6.203 9.17 6.418 9.137 6.628 C 9.103 6.837 9.007 7.031 8.861 7.186 C 8.716 7.34 8.527 7.447 8.32 7.493 C 8.113 7.539 7.897 7.522 7.7 7.444 C 7.502 7.366 7.333 7.23 7.214 7.055 C 7.094 6.879 7.03 6.672 7.03 6.46 C 7.019 6.183 7.118 5.913 7.306 5.709 C 7.493 5.505 7.753 5.383 8.03 5.37 L 8.03 5.4 Z M 20.9 28.1 L 3.65 28.1 C 3.289 28.1 2.942 27.957 2.685 27.702 C 2.428 27.448 2.283 27.102 2.28 26.74 L 2.28 13.43 L 30.59 13.43 L 30.59 13.89 C 30.59 14.192 30.71 14.482 30.924 14.696 C 31.138 14.91 31.428 15.03 31.73 15.03 C 32.032 15.03 32.322 14.91 32.536 14.696 C 32.75 14.482 32.87 14.192 32.87 13.89 L 32.87 4.77 C 32.87 3.802 32.486 2.874 31.801 2.189 C 31.117 1.505 30.188 1.12 29.22 1.12 L 28.68 1.12 C 28.521 1.105 28.36 1.124 28.208 1.174 C 28.056 1.225 27.917 1.307 27.799 1.415 C 27.68 1.523 27.586 1.654 27.521 1.8 C 27.456 1.947 27.423 2.105 27.423 2.265 C 27.423 2.425 27.456 2.583 27.521 2.73 C 27.586 2.876 27.68 3.007 27.799 3.115 C 27.917 3.223 28.056 3.305 28.208 3.356 C 28.36 3.406 28.521 3.425 28.68 3.41 L 29.22 3.41 C 29.4 3.409 29.577 3.443 29.744 3.511 C 29.91 3.578 30.061 3.678 30.188 3.805 C 30.316 3.931 30.417 4.082 30.486 4.247 C 30.555 4.413 30.59 4.591 30.59 4.77 L 30.59 11.15 L 2.28 11.15 L 2.28 4.77 C 2.276 4.588 2.309 4.406 2.376 4.237 C 2.443 4.067 2.543 3.912 2.671 3.782 C 2.798 3.651 2.951 3.548 3.119 3.477 C 3.287 3.406 3.468 3.37 3.65 3.37 L 4.2 3.37 C 4.485 3.343 4.75 3.211 4.943 2.999 C 5.136 2.788 5.243 2.511 5.243 2.225 C 5.243 1.939 5.136 1.662 4.943 1.451 C 4.75 1.239 4.485 1.107 4.2 1.08 L 3.65 1.08 C 3.168 1.081 2.69 1.178 2.246 1.364 C 1.801 1.551 1.397 1.823 1.058 2.166 C 0.719 2.509 0.451 2.916 0.269 3.362 C 0.088 3.809 -0.004 4.288 0 4.77 L 0 26.77 C 0.016 27.729 0.407 28.643 1.09 29.316 C 1.772 29.989 2.691 30.368 3.65 30.37 L 20.9 30.37 C 21.185 30.343 21.45 30.211 21.643 29.999 C 21.836 29.788 21.943 29.511 21.943 29.225 C 21.943 28.939 21.836 28.662 21.643 28.451 C 21.45 28.239 21.185 28.107 20.9 28.08 L 20.9 28.1 Z" fill="currentColor" fill-rule="nonzero"/>
</svg>
