<svg xmlns="http://www.w3.org/2000/svg" width="40" height="40" viewBox="0 0 40 40" fill="none">
  <path d="M 20 0 C 17.374 0 14.773 0.517 12.346 1.522 C 9.92 2.528 7.715 4.001 5.858 5.858 C 2.107 9.609 0 14.696 0 20 C 0 23.956 1.173 27.822 3.371 31.111 C 5.568 34.4 8.692 36.964 12.346 38.478 C 16.001 39.991 20.022 40.387 23.902 39.616 C 27.781 38.844 31.345 36.939 34.142 34.142 C 36.939 31.345 38.844 27.781 39.616 23.902 C 40.387 20.022 39.991 16.001 38.478 12.346 C 36.964 8.692 34.4 5.568 31.111 3.371 C 27.822 1.173 23.956 0 20 0 Z M 20 37.48 C 16.543 37.48 13.163 36.455 10.289 34.534 C 7.414 32.613 5.174 29.883 3.851 26.689 C 2.528 23.495 2.181 19.981 2.856 16.59 C 3.53 13.199 5.195 10.084 7.64 7.64 C 10.084 5.195 13.199 3.53 16.59 2.856 C 19.981 2.181 23.495 2.528 26.689 3.851 C 29.883 5.174 32.613 7.414 34.534 10.289 C 36.455 13.163 37.48 16.543 37.48 20 C 37.472 24.634 35.628 29.075 32.351 32.351 C 29.075 35.628 24.634 37.472 20 37.48 Z M 20 30.07 C 19.75 30.071 19.502 30.023 19.27 29.928 C 19.038 29.833 18.828 29.694 18.65 29.517 C 18.473 29.34 18.332 29.131 18.236 28.899 C 18.139 28.668 18.09 28.42 18.09 28.17 L 18.09 18.52 C 18.089 18.269 18.137 18.02 18.233 17.788 C 18.328 17.555 18.469 17.344 18.646 17.166 C 18.824 16.989 19.035 16.848 19.268 16.753 C 19.5 16.657 19.749 16.609 20 16.61 C 20.507 16.61 20.992 16.811 21.351 17.169 C 21.709 17.528 21.91 18.013 21.91 18.52 L 21.91 28.17 C 21.907 28.675 21.705 29.158 21.347 29.514 C 20.989 29.87 20.505 30.07 20 30.07 Z M 17.85 12.42 C 17.853 11.848 18.079 11.299 18.481 10.892 C 18.883 10.484 19.428 10.25 20 10.24 C 20.576 10.243 21.128 10.473 21.535 10.882 C 21.942 11.291 22.17 11.844 22.17 12.42 C 22.17 12.996 21.941 13.547 21.534 13.954 C 21.127 14.361 20.576 14.59 20 14.59 C 19.424 14.59 18.871 14.362 18.462 13.955 C 18.053 13.548 17.823 12.996 17.82 12.42 L 17.85 12.42 Z" fill="currentColor" fill-rule="nonzero"/>
</svg>
