<svg xmlns="http://www.w3.org/2000/svg" width="40.035" height="39.975" viewBox="0 0 40.035 39.975" fill="none">
  <path d="M 30.085 19.97 L 28.055 19.22 C 24.675 17.97 22.015 15.3 20.755 11.92 L 18.325 5.36 C 18.065 4.66 17.075 4.66 16.815 5.36 L 14.385 11.92 C 13.135 15.3 10.465 17.96 7.085 19.22 L 0.525 21.65 C -0.175 21.91 -0.175 22.9 0.525 23.16 L 7.085 25.59 C 10.465 26.84 13.125 29.51 14.385 32.89 L 16.815 39.45 C 17.075 40.15 18.065 40.15 18.325 39.45 L 20.385 33.89 C 20.125 32.95 19.975 31.97 19.975 30.94 C 19.975 25.16 24.425 20.44 30.085 19.98 L 30.085 19.97 Z M 39.795 7.67 L 35.805 6.19 C 34.895 5.85 34.175 5.14 33.845 4.23 L 32.365 0.24 C 32.245 -0.08 31.795 -0.08 31.675 0.24 L 30.195 4.23 C 29.855 5.14 29.145 5.86 28.235 6.19 L 24.245 7.67 C 23.925 7.79 23.925 8.24 24.245 8.36 L 28.235 9.84 C 29.145 10.18 29.865 10.89 30.195 11.8 L 31.675 15.79 C 31.795 16.11 32.245 16.11 32.365 15.79 L 33.845 11.8 C 34.185 10.89 34.895 10.17 35.805 9.84 L 39.795 8.36 C 40.115 8.24 40.115 7.79 39.795 7.67 Z M 30.975 22.43 C 26.285 22.43 22.475 26.24 22.475 30.93 C 22.475 35.62 26.285 39.43 30.975 39.43 C 35.665 39.43 39.475 35.62 39.475 30.93 C 39.475 26.24 35.665 22.43 30.975 22.43 Z M 35.245 29.08 L 29.585 34.26 L 29.545 34.26 C 29.545 34.28 29.525 34.3 29.505 34.3 L 29.465 34.34 C 29.465 34.34 29.425 34.38 29.375 34.38 L 29.335 34.38 C 29.335 34.38 29.295 34.42 29.245 34.42 L 28.855 34.42 C 28.855 34.42 28.805 34.38 28.765 34.38 L 28.725 34.34 C 28.725 34.34 28.685 34.3 28.635 34.3 L 28.595 34.26 L 28.505 34.17 L 26.585 31.82 C 26.325 31.49 26.385 31.01 26.715 30.74 C 27.045 30.47 27.535 30.53 27.805 30.86 L 29.155 32.56 L 34.205 27.95 C 34.515 27.66 35.005 27.68 35.295 27.99 C 35.585 28.3 35.565 28.79 35.255 29.08 L 35.245 29.08 Z" fill="currentColor" fill-rule="nonzero"/>
</svg>
