<svg xmlns="http://www.w3.org/2000/svg" width="40.045" height="38.770" viewBox="0 0 40.045 38.770" fill="none">
  <path d="M 20.32 22.88 C 21.823 22.88 23.31 22.584 24.698 22.009 C 26.086 21.434 27.347 20.592 28.41 19.529 C 29.472 18.467 30.315 17.206 30.89 15.818 C 31.464 14.43 31.76 12.942 31.76 11.44 C 31.76 9.177 31.089 6.966 29.832 5.084 C 28.575 3.203 26.789 1.737 24.698 0.871 C 22.608 0.005 20.308 -0.222 18.089 0.22 C 15.869 0.661 13.831 1.751 12.231 3.351 C 10.631 4.951 9.542 6.989 9.1 9.208 C 8.659 11.427 8.885 13.728 9.751 15.818 C 10.617 17.908 12.083 19.695 13.965 20.952 C 15.846 22.209 18.058 22.88 20.32 22.88 Z M 20 11.88 C 18.63 11.35 17.36 10.64 17.36 9.06 C 17.377 8.424 17.616 7.814 18.036 7.337 C 18.457 6.86 19.032 6.546 19.66 6.45 L 19.66 5.58 C 19.68 5.418 19.759 5.268 19.881 5.16 C 20.004 5.052 20.162 4.992 20.325 4.992 C 20.489 4.992 20.647 5.052 20.769 5.16 C 20.892 5.268 20.97 5.418 20.99 5.58 L 20.99 6.37 C 21.466 6.399 21.935 6.501 22.38 6.67 C 22.559 6.743 22.702 6.884 22.779 7.061 C 22.856 7.239 22.86 7.439 22.79 7.62 C 22.737 7.752 22.646 7.865 22.529 7.945 C 22.411 8.025 22.273 8.069 22.13 8.07 C 22.034 8.07 21.938 8.05 21.85 8.01 C 21.424 7.839 20.969 7.751 20.51 7.75 C 19.46 7.75 19.09 8.35 19.09 8.86 C 19.09 9.37 19.48 9.86 20.84 10.42 C 22.56 11.13 23.29 12.01 23.29 13.36 C 23.287 14.029 23.045 14.675 22.609 15.182 C 22.173 15.69 21.571 16.026 20.91 16.13 L 20.91 17.05 C 20.91 17.228 20.84 17.398 20.714 17.524 C 20.588 17.649 20.418 17.72 20.24 17.72 C 20.063 17.72 19.892 17.649 19.767 17.524 C 19.641 17.398 19.57 17.228 19.57 17.05 L 19.57 16.19 C 18.958 16.162 18.357 16.016 17.8 15.76 C 17.647 15.694 17.521 15.577 17.443 15.429 C 17.366 15.281 17.341 15.111 17.374 14.947 C 17.407 14.783 17.495 14.635 17.624 14.528 C 17.752 14.422 17.913 14.362 18.08 14.36 C 18.184 14.359 18.287 14.383 18.38 14.43 C 18.889 14.651 19.436 14.77 19.99 14.78 C 20.99 14.78 21.61 14.26 21.61 13.5 C 21.61 12.74 21.14 12.37 20 11.89 L 20 11.88 Z M 39.71 25.04 C 39.605 24.767 39.413 24.536 39.163 24.383 C 38.914 24.229 38.622 24.162 38.33 24.19 C 38.023 24.204 37.721 24.275 37.44 24.4 C 37.034 24.58 36.624 24.77 36.21 24.97 C 33.29 26.33 30.4 27.72 27.48 29.09 C 27.33 29.15 27.15 29.42 27.05 29.54 C 26.793 29.895 26.46 30.189 26.077 30.401 C 25.693 30.614 25.268 30.74 24.83 30.77 L 16.93 31.05 L 14.93 31.12 C 14.867 31.123 14.803 31.112 14.743 31.089 C 14.684 31.066 14.63 31.031 14.585 30.986 C 14.54 30.941 14.504 30.887 14.481 30.827 C 14.458 30.767 14.448 30.704 14.45 30.64 C 14.45 30.16 14.65 29.99 14.97 29.99 C 15.09 29.99 21.36 29.62 24.51 29.5 C 24.828 29.49 25.14 29.418 25.43 29.29 C 25.654 29.19 25.838 29.018 25.95 28.8 C 26.09 28.51 26.122 28.181 26.042 27.869 C 25.961 27.558 25.773 27.286 25.51 27.1 C 25.203 26.934 24.86 26.845 24.51 26.84 C 23.08 26.84 21.66 26.84 20.24 26.94 L 19.74 26.94 C 18.571 26.929 17.409 26.751 16.29 26.41 C 14.968 25.983 13.597 25.724 12.21 25.64 L 11.68 25.64 C 9.558 25.72 7.463 26.149 5.48 26.91 L 4.36 27.15 C 4.36 26.56 4.36 25.96 4.36 25.36 C 4.358 25.219 4.302 25.085 4.203 24.984 C 4.104 24.884 3.971 24.825 3.83 24.82 L 0.53 24.82 C 0.459 24.82 0.388 24.834 0.323 24.862 C 0.257 24.89 0.198 24.931 0.148 24.982 C 0.099 25.034 0.06 25.094 0.035 25.161 C 0.009 25.228 -0.002 25.299 0 25.37 C 0 29.48 0 34.15 0 38.24 C 0 38.381 0.056 38.515 0.156 38.615 C 0.255 38.714 0.39 38.77 0.53 38.77 L 3.82 38.77 C 3.961 38.77 4.096 38.714 4.195 38.615 C 4.295 38.515 4.35 38.381 4.35 38.24 L 4.35 36.82 L 5.35 36.64 C 6.585 36.417 7.836 36.294 9.09 36.27 C 10.763 36.246 12.435 36.353 14.09 36.59 C 16.09 36.88 18.16 37.17 20.2 37.42 C 20.611 37.48 21.025 37.51 21.44 37.51 C 22.03 37.521 22.616 37.409 23.16 37.18 C 23.97 36.84 24.77 36.5 25.54 36.1 C 30.358 33.377 35.031 30.407 39.54 27.2 C 39.83 26.924 40.008 26.551 40.04 26.153 C 40.071 25.754 39.954 25.358 39.71 25.04 Z" fill="currentColor" fill-rule="nonzero"/>
</svg>
