<svg xmlns="http://www.w3.org/2000/svg" width="29.347" height="29.347" viewBox="0 0 29.347 29.347" fill="none">
  <path d="M 27.347 0 L 7.537 0 C 7.006 0 6.497 0.211 6.122 0.586 C 5.747 0.961 5.537 1.47 5.537 2 C 5.537 2.53 5.747 3.039 6.122 3.414 C 6.497 3.789 7.006 4 7.537 4 L 22.537 4 L 0.587 25.93 C 0.401 26.116 0.253 26.336 0.152 26.579 C 0.052 26.822 0 27.082 0 27.345 C 0 27.608 0.052 27.868 0.152 28.111 C 0.253 28.354 0.401 28.574 0.587 28.76 C 0.772 28.946 0.993 29.093 1.236 29.194 C 1.478 29.295 1.739 29.347 2.002 29.347 C 2.264 29.347 2.525 29.295 2.767 29.194 C 3.01 29.093 3.231 28.946 3.417 28.76 L 25.347 6.83 L 25.347 21.83 C 25.347 22.36 25.557 22.869 25.932 23.244 C 26.307 23.619 26.816 23.83 27.347 23.83 C 27.877 23.83 28.386 23.619 28.761 23.244 C 29.136 22.869 29.347 22.36 29.347 21.83 L 29.347 2 C 29.347 1.47 29.136 0.961 28.761 0.586 C 28.386 0.211 27.877 0 27.347 0 Z" fill="currentColor" fill-rule="nonzero"/>
</svg>
