<svg xmlns="http://www.w3.org/2000/svg" width="31.950" height="40.000" viewBox="0 0 31.950 40.000" fill="none">
  <path d="M 31.95 27.51 L 31.95 4.25 C 31.95 3.688 31.838 3.131 31.622 2.612 C 31.405 2.093 31.088 1.623 30.688 1.227 C 30.288 0.832 29.813 0.52 29.292 0.309 C 28.77 0.099 28.212 -0.006 27.65 0 L 4.24 0 C 3.115 0.003 2.036 0.452 1.241 1.249 C 0.446 2.045 0 3.125 0 4.25 L 0 35.75 C 0 36.876 0.446 37.955 1.241 38.752 C 2.036 39.549 3.115 39.998 4.24 40 L 20.89 40 C 21.21 40.002 21.518 39.88 21.75 39.66 L 31.53 30 C 31.648 29.886 31.741 29.749 31.805 29.598 C 31.868 29.447 31.901 29.284 31.9 29.12 L 31.95 27.51 Z M 6.59 7 L 25.51 7 C 25.821 7.028 26.11 7.171 26.321 7.402 C 26.531 7.632 26.648 7.933 26.648 8.245 C 26.648 8.557 26.531 8.858 26.321 9.089 C 26.11 9.319 25.821 9.462 25.51 9.49 L 6.59 9.49 C 6.279 9.462 5.99 9.319 5.779 9.089 C 5.569 8.858 5.452 8.557 5.452 8.245 C 5.452 7.933 5.569 7.632 5.779 7.402 C 5.99 7.171 6.279 7.028 6.59 7 Z M 20.51 12.85 C 20.511 13.014 20.48 13.175 20.418 13.326 C 20.356 13.477 20.265 13.615 20.15 13.73 C 20.034 13.845 19.897 13.937 19.746 13.999 C 19.595 14.06 19.433 14.092 19.27 14.09 L 7.09 14.09 C 6.779 14.062 6.49 13.919 6.279 13.689 C 6.069 13.458 5.952 13.157 5.952 12.845 C 5.952 12.533 6.069 12.232 6.279 12.002 C 6.49 11.771 6.779 11.628 7.09 11.6 L 19.27 11.6 C 19.437 11.6 19.603 11.634 19.756 11.699 C 19.91 11.765 20.049 11.86 20.165 11.981 C 20.281 12.101 20.371 12.244 20.43 12.4 C 20.49 12.557 20.517 12.723 20.51 12.89 L 20.51 12.85 Z M 15.06 34.14 L 6.59 34.14 C 6.279 34.112 5.99 33.969 5.779 33.739 C 5.569 33.508 5.452 33.207 5.452 32.895 C 5.452 32.583 5.569 32.282 5.779 32.052 C 5.99 31.821 6.279 31.678 6.59 31.65 L 14.88 31.65 C 15.21 31.653 15.525 31.786 15.757 32.02 C 15.99 32.254 16.12 32.57 16.12 32.9 C 16.14 33.053 16.127 33.208 16.083 33.355 C 16.039 33.502 15.965 33.639 15.865 33.755 C 15.765 33.872 15.642 33.967 15.503 34.033 C 15.365 34.099 15.214 34.136 15.06 34.14 Z M 16.29 29.25 L 6.59 29.25 C 6.279 29.222 5.99 29.079 5.779 28.849 C 5.569 28.618 5.452 28.317 5.452 28.005 C 5.452 27.693 5.569 27.392 5.779 27.162 C 5.99 26.931 6.279 26.788 6.59 26.76 L 16.29 26.76 C 16.601 26.788 16.89 26.931 17.101 27.162 C 17.311 27.392 17.428 27.693 17.428 28.005 C 17.428 28.317 17.311 28.618 17.101 28.849 C 16.89 29.079 16.601 29.222 16.29 29.25 Z M 19.29 24.35 L 6.58 24.35 C 6.407 24.366 6.233 24.345 6.068 24.29 C 5.904 24.234 5.753 24.145 5.625 24.028 C 5.497 23.911 5.394 23.768 5.324 23.609 C 5.254 23.451 5.218 23.279 5.218 23.105 C 5.218 22.932 5.254 22.76 5.324 22.601 C 5.394 22.442 5.497 22.3 5.625 22.183 C 5.753 22.066 5.904 21.976 6.068 21.921 C 6.233 21.865 6.407 21.845 6.58 21.86 L 19.27 21.86 C 19.601 21.863 19.917 21.995 20.151 22.229 C 20.385 22.463 20.517 22.78 20.52 23.11 C 20.52 23.274 20.488 23.436 20.425 23.587 C 20.362 23.738 20.269 23.875 20.153 23.991 C 20.037 24.106 19.899 24.197 19.748 24.259 C 19.596 24.321 19.434 24.352 19.27 24.35 L 19.29 24.35 Z M 20.74 37.18 L 20.54 37.35 L 20.54 32.57 C 20.54 31.573 20.936 30.617 21.641 29.912 C 22.346 29.206 23.303 28.81 24.3 28.81 L 29.3 28.81 L 20.74 37.18 Z" fill="currentColor" fill-rule="nonzero"/>
</svg>
