<svg xmlns="http://www.w3.org/2000/svg" width="32.000" height="40.019" viewBox="0 0 32.000 40.019" fill="none">
  <path d="M 27.84 6.679 L 26.52 6.679 C 26.327 6.11 26.009 5.591 25.588 5.162 C 25.168 4.732 24.655 4.403 24.09 4.199 C 23.054 3.832 21.959 3.662 20.86 3.699 C 20.626 3.722 20.39 3.69 20.171 3.605 C 19.952 3.52 19.757 3.384 19.6 3.209 C 19.6 3.129 19.54 3.029 19.51 2.919 C 19.352 2.097 18.912 1.357 18.267 0.824 C 17.622 0.291 16.812 0 15.975 0 C 15.139 0 14.328 0.291 13.683 0.824 C 13.038 1.357 12.598 2.097 12.44 2.919 C 12.44 3.029 12.38 3.129 12.35 3.209 C 12.194 3.384 11.998 3.52 11.779 3.605 C 11.56 3.69 11.324 3.722 11.09 3.699 C 9.992 3.662 8.896 3.832 7.86 4.199 C 7.295 4.403 6.783 4.732 6.362 5.162 C 5.941 5.591 5.623 6.11 5.43 6.679 L 4.16 6.679 C 3.059 6.679 2.002 7.116 1.222 7.894 C 0.442 8.672 0.003 9.727 0 10.829 L 0 35.829 C -0.004 36.378 0.101 36.922 0.308 37.43 C 0.515 37.938 0.821 38.4 1.208 38.79 C 1.595 39.179 2.055 39.489 2.561 39.699 C 3.068 39.91 3.611 40.019 4.16 40.019 L 27.84 40.019 C 28.942 40.019 29.998 39.582 30.778 38.804 C 31.558 38.026 31.997 36.971 32 35.869 L 32 10.869 C 32.004 10.32 31.899 9.776 31.692 9.268 C 31.485 8.76 31.179 8.297 30.792 7.908 C 30.406 7.519 29.946 7.209 29.439 6.998 C 28.932 6.788 28.389 6.679 27.84 6.679 Z M 7.49 8.179 C 7.451 7.778 7.55 7.375 7.772 7.038 C 7.994 6.701 8.326 6.451 8.71 6.329 C 9.489 6.084 10.305 5.979 11.12 6.019 C 11.822 6.063 12.521 5.896 13.127 5.54 C 13.733 5.184 14.218 4.654 14.52 4.019 C 14.52 3.899 14.61 3.769 14.65 3.629 C 14.94 2.629 15.12 2.349 15.97 2.349 C 16.82 2.349 16.97 2.679 17.3 3.629 C 17.3 3.769 17.39 3.899 17.43 4.019 C 17.732 4.654 18.218 5.184 18.824 5.54 C 19.43 5.896 20.128 6.063 20.83 6.019 C 21.647 5.986 22.463 6.098 23.24 6.349 C 23.625 6.471 23.956 6.721 24.178 7.058 C 24.4 7.395 24.5 7.798 24.46 8.199 L 24.46 10.019 L 7.46 10.019 L 7.49 8.179 Z M 29.69 35.869 C 29.69 36.112 29.642 36.353 29.549 36.577 C 29.456 36.801 29.32 37.005 29.148 37.177 C 28.976 37.349 28.773 37.485 28.548 37.578 C 28.324 37.671 28.083 37.719 27.84 37.719 L 4.16 37.719 C 3.917 37.719 3.677 37.671 3.452 37.578 C 3.228 37.485 3.024 37.349 2.852 37.177 C 2.68 37.005 2.544 36.801 2.451 36.577 C 2.358 36.353 2.31 36.112 2.31 35.869 L 2.31 10.869 C 2.31 10.378 2.505 9.908 2.852 9.561 C 3.199 9.214 3.669 9.019 4.16 9.019 L 5.16 9.019 L 5.16 12.319 L 26.76 12.319 L 26.76 9.019 L 27.84 9.019 C 28.331 9.019 28.801 9.214 29.148 9.561 C 29.495 9.908 29.69 10.378 29.69 10.869 L 29.69 35.869 Z" fill="currentColor" fill-rule="nonzero"/>
</svg>
