<svg xmlns="http://www.w3.org/2000/svg" width="36" height="36" viewBox="0 0 36 36" fill="none">
  <path d="M 17.19 36 L 3 36 C 2.204 36 1.442 35.684 0.879 35.121 C 0.316 34.558 0 33.796 0 33 L 0 18.81 L 17.19 18.81 L 17.19 36 Z M 36 33 C 36 33.796 35.684 34.558 35.121 35.121 C 34.558 35.684 33.796 36 33 36 L 18.811 36 L 18.811 18.81 L 36 18.81 L 36 33 Z M 5.82 23.524 C 5.688 23.524 5.557 23.551 5.436 23.602 C 5.314 23.652 5.203 23.727 5.11 23.82 C 4.924 24.008 4.819 24.261 4.819 24.525 C 4.819 24.789 4.924 25.043 5.11 25.23 L 7.23 27.35 L 5.11 29.47 C 5.017 29.563 4.941 29.674 4.891 29.796 C 4.84 29.917 4.814 30.048 4.814 30.18 C 4.814 30.312 4.84 30.443 4.891 30.564 C 4.941 30.686 5.017 30.797 5.11 30.89 C 5.203 30.983 5.314 31.059 5.436 31.109 C 5.557 31.16 5.688 31.186 5.82 31.186 C 5.952 31.186 6.083 31.16 6.204 31.109 C 6.326 31.059 6.437 30.983 6.53 30.89 L 8.65 28.77 L 10.77 30.89 C 10.957 31.076 11.211 31.181 11.475 31.181 C 11.739 31.181 11.992 31.076 12.18 30.89 C 12.273 30.797 12.348 30.686 12.398 30.564 C 12.449 30.443 12.476 30.312 12.476 30.18 C 12.476 30.048 12.449 29.918 12.398 29.796 C 12.348 29.674 12.273 29.563 12.18 29.47 L 10.06 27.35 L 12.18 25.24 C 12.273 25.147 12.348 25.037 12.398 24.915 C 12.449 24.793 12.476 24.662 12.476 24.53 C 12.476 24.398 12.449 24.267 12.398 24.146 C 12.348 24.024 12.273 23.913 12.18 23.82 C 11.992 23.634 11.739 23.529 11.475 23.529 C 11.211 23.529 10.957 23.634 10.77 23.82 L 8.65 25.94 L 6.53 23.82 C 6.437 23.727 6.326 23.652 6.204 23.602 C 6.082 23.551 5.952 23.524 5.82 23.524 Z M 23.4 28.35 C 23.135 28.338 22.876 28.432 22.68 28.611 C 22.484 28.79 22.367 29.04 22.355 29.305 C 22.344 29.57 22.437 29.829 22.616 30.025 C 22.795 30.221 23.045 30.338 23.311 30.35 L 31.4 30.35 C 31.665 30.35 31.92 30.244 32.107 30.057 C 32.295 29.869 32.4 29.615 32.4 29.35 C 32.4 29.085 32.295 28.83 32.107 28.643 C 31.92 28.455 31.665 28.35 31.4 28.35 L 23.4 28.35 Z M 23.4 24.35 C 23.135 24.338 22.876 24.432 22.68 24.611 C 22.484 24.79 22.367 25.04 22.355 25.305 C 22.344 25.57 22.437 25.829 22.616 26.025 C 22.795 26.221 23.045 26.338 23.311 26.35 L 31.4 26.35 C 31.665 26.35 31.92 26.244 32.107 26.057 C 32.295 25.869 32.4 25.615 32.4 25.35 C 32.4 25.085 32.295 24.83 32.107 24.643 C 31.92 24.455 31.665 24.35 31.4 24.35 L 23.4 24.35 Z M 17.19 17.19 L 0 17.19 L 0 3 C 0 2.204 0.316 1.442 0.879 0.879 C 1.442 0.316 2.204 0 3 0 L 17.19 0 L 17.19 17.19 Z M 33 0 C 33.796 0 34.558 0.316 35.121 0.879 C 35.684 1.442 36 2.204 36 3 L 36 17.19 L 18.811 17.19 L 18.811 0 L 33 0 Z M 8.685 3.605 C 8.419 3.594 8.161 3.687 7.965 3.866 C 7.769 4.045 7.652 4.295 7.64 4.56 L 7.64 7.65 L 4.64 7.65 C 4.375 7.65 4.12 7.756 3.933 7.943 C 3.745 8.131 3.64 8.385 3.64 8.65 C 3.64 8.915 3.745 9.17 3.933 9.357 C 4.12 9.545 4.375 9.65 4.64 9.65 L 7.64 9.65 L 7.64 12.65 C 7.628 12.915 7.722 13.174 7.901 13.37 C 8.08 13.566 8.33 13.683 8.595 13.695 C 8.86 13.707 9.119 13.613 9.315 13.434 C 9.511 13.255 9.628 13.005 9.64 12.74 C 9.65 12.711 9.649 12.68 9.64 12.65 L 9.64 9.65 L 12.64 9.65 C 12.771 9.642 12.9 9.606 13.018 9.548 C 13.135 9.489 13.241 9.408 13.327 9.309 C 13.413 9.209 13.48 9.094 13.521 8.969 C 13.563 8.844 13.58 8.711 13.57 8.58 C 13.554 8.339 13.45 8.111 13.279 7.94 C 13.108 7.77 12.881 7.667 12.64 7.65 L 9.64 7.65 L 9.64 4.551 C 9.627 4.321 9.536 4.101 9.379 3.93 C 9.2 3.734 8.95 3.617 8.685 3.605 Z M 23.6 7.64 C 23.335 7.64 23.08 7.745 22.893 7.933 C 22.705 8.12 22.6 8.375 22.6 8.64 C 22.6 8.905 22.705 9.159 22.893 9.347 C 23.08 9.534 23.335 9.64 23.6 9.64 L 31.1 9.64 C 31.365 9.64 31.62 9.534 31.808 9.347 C 31.995 9.159 32.1 8.905 32.1 8.64 C 32.1 8.375 31.995 8.12 31.808 7.933 C 31.62 7.745 31.365 7.64 31.1 7.64 L 23.6 7.64 Z" fill="currentColor" fill-rule="nonzero"/>
</svg>
