<svg xmlns="http://www.w3.org/2000/svg" width="32.013" height="39.817" viewBox="0 0 32.013 39.817" fill="none">
  <path d="M 0.577 17.417 C 0.762 17.603 0.983 17.75 1.226 17.851 C 1.469 17.951 1.729 18.003 1.992 18.003 C 2.254 18.003 2.515 17.951 2.758 17.851 C 3 17.75 3.221 17.603 3.407 17.417 L 13.997 6.817 L 13.997 37.817 C 13.997 38.347 14.207 38.856 14.582 39.231 C 14.958 39.606 15.466 39.817 15.997 39.817 C 16.527 39.817 17.036 39.606 17.411 39.231 C 17.786 38.856 17.997 38.347 17.997 37.817 L 17.997 6.817 L 28.597 17.417 C 28.972 17.792 29.481 18.003 30.012 18.003 C 30.542 18.003 31.051 17.792 31.427 17.417 C 31.802 17.041 32.013 16.532 32.013 16.002 C 32.013 15.471 31.802 14.962 31.427 14.587 L 17.427 0.587 C 17.241 0.401 17.02 0.253 16.778 0.152 C 16.535 0.052 16.274 0 16.012 0 C 15.749 0 15.489 0.052 15.246 0.152 C 15.003 0.253 14.782 0.401 14.597 0.587 L 0.597 14.587 C 0.409 14.771 0.26 14.991 0.158 15.233 C 0.056 15.475 0.002 15.735 0 15.997 C -0.002 16.26 0.048 16.521 0.147 16.764 C 0.246 17.008 0.392 17.23 0.577 17.417 Z" fill="currentColor" fill-rule="nonzero"/>
</svg>
