<svg xmlns="http://www.w3.org/2000/svg" width="31.290" height="39.990" viewBox="0 0 31.290 39.990" fill="none">
  <path d="M 21.7 0 L 9.46 0 C 9.044 -0.003 8.631 0.077 8.246 0.234 C 7.86 0.391 7.509 0.622 7.213 0.914 C 6.917 1.207 6.681 1.555 6.519 1.938 C 6.357 2.322 6.273 2.734 6.27 3.15 L 6.27 21.29 C 6.27 21.37 6.64 27.53 15.54 27.53 C 24.44 27.53 24.82 21.37 24.82 21.29 L 24.82 3.19 C 24.853 2.379 24.563 1.588 24.014 0.99 C 23.465 0.392 22.701 0.036 21.89 0 L 21.7 0 Z M 14.28 33.47 L 14.28 37.47 L 10.28 37.47 C 9.946 37.47 9.626 37.603 9.389 37.839 C 9.153 38.075 9.02 38.396 9.02 38.73 C 9.02 39.064 9.153 39.385 9.389 39.621 C 9.626 39.857 9.946 39.99 10.28 39.99 L 20.89 39.99 C 21.224 39.99 21.545 39.857 21.781 39.621 C 22.018 39.385 22.15 39.064 22.15 38.73 C 22.15 38.396 22.018 38.075 21.781 37.839 C 21.545 37.603 21.224 37.47 20.89 37.47 L 16.89 37.47 L 16.89 33.47 C 20.813 33.13 24.466 31.335 27.131 28.436 C 29.796 25.538 31.28 21.747 31.29 17.81 C 31.28 17.475 31.137 17.158 30.894 16.927 C 30.65 16.697 30.325 16.572 29.99 16.58 C 29.667 16.588 29.36 16.72 29.133 16.949 C 28.905 17.179 28.775 17.487 28.77 17.81 C 28.819 19.565 28.515 21.313 27.876 22.949 C 27.238 24.585 26.278 26.076 25.054 27.335 C 23.829 28.594 22.365 29.594 20.747 30.277 C 19.13 30.961 17.391 31.313 15.635 31.313 C 13.879 31.313 12.141 30.961 10.523 30.277 C 8.905 29.594 7.441 28.594 6.217 27.335 C 4.992 26.076 4.032 24.585 3.394 22.949 C 2.756 21.313 2.452 19.565 2.5 17.81 C 2.502 17.646 2.471 17.483 2.409 17.331 C 2.347 17.179 2.256 17.04 2.141 16.923 C 2.026 16.806 1.889 16.713 1.738 16.649 C 1.587 16.585 1.424 16.551 1.26 16.55 C 0.928 16.558 0.612 16.693 0.378 16.928 C 0.143 17.162 0.008 17.478 0 17.81 C -0.022 21.737 1.435 25.528 4.081 28.43 C 6.727 31.332 10.368 33.131 14.28 33.47 Z" fill="currentColor" fill-rule="nonzero"/>
</svg>
