<svg xmlns="http://www.w3.org/2000/svg" width="29.185" height="40.001" viewBox="0 0 29.185 40.001" fill="none">
  <path d="M 1.621 40.001 C 1.203 40.001 0.801 39.84 0.499 39.551 C 0.197 39.262 0.019 38.868 0.001 38.451 L 0.001 1.561 C -0.005 1.354 0.032 1.149 0.108 0.957 C 0.185 0.765 0.299 0.591 0.445 0.445 C 0.591 0.299 0.765 0.185 0.957 0.108 C 1.149 0.032 1.354 -0.005 1.561 0.001 L 26.271 0.001 C 26.796 0.009 27.31 0.158 27.759 0.432 C 28.207 0.707 28.574 1.096 28.821 1.561 C 29.08 2.023 29.206 2.549 29.183 3.079 C 29.16 3.609 28.989 4.122 28.691 4.561 L 23.121 12.921 L 28.621 21.231 C 28.913 21.681 29.08 22.201 29.102 22.738 C 29.125 23.274 29.004 23.807 28.751 24.281 C 28.501 24.739 28.133 25.121 27.684 25.387 C 27.235 25.653 26.722 25.792 26.201 25.791 L 3.281 25.791 L 3.281 38.421 C 3.271 38.83 3.107 39.22 2.821 39.513 C 2.535 39.806 2.149 39.98 1.741 40.001 L 1.621 40.001 Z M 3.241 22.511 L 25.621 22.511 L 20.261 14.511 C 19.922 14.038 19.74 13.472 19.74 12.891 C 19.74 12.309 19.922 11.743 20.261 11.271 L 25.631 3.271 L 3.281 3.271 L 3.241 22.511 Z" fill="currentColor" fill-rule="nonzero"/>
</svg>
