<svg xmlns="http://www.w3.org/2000/svg" width="29.040" height="40" viewBox="0 0 29.040 40" fill="none">
  <path d="M 10.87 37.12 L 14.52 37.12 L 14.52 40 L 0 40 L 0 37.16 L 0.61 37.16 C 1.81 37.16 3.02 37.16 4.22 37.16 C 4.406 37.19 4.597 37.148 4.753 37.042 C 4.909 36.936 5.019 36.774 5.06 36.59 C 8.553 27.87 12.04 19.153 15.52 10.44 C 16.447 8.153 17.37 5.853 18.29 3.54 C 18.37 3.35 18.43 3.14 18.52 2.88 L 14.52 2.88 L 14.52 0 L 29.04 0 L 29.04 2.84 C 28.85 2.84 28.67 2.84 28.48 2.84 C 27.38 2.84 26.27 2.84 25.16 2.84 C 24.992 2.816 24.822 2.856 24.683 2.953 C 24.544 3.049 24.446 3.195 24.41 3.36 C 21.077 11.66 17.743 19.957 14.41 28.25 C 13.303 31.003 12.2 33.75 11.1 36.49 C 11.02 36.69 10.96 36.87 10.87 37.12 Z" fill="currentColor" fill-rule="nonzero"/>
</svg>
