<svg xmlns="http://www.w3.org/2000/svg" width="40" height="38.499" viewBox="0 0 40 38.499" fill="none">
  <path d="M 24.4 14.149 L 18 20.549 L 15.2 17.749 C 14.4 17.149 13.4 17.149 12.8 17.749 C 12.2 18.349 12.2 19.549 12.8 20.149 L 16.6 23.949 C 17.4 24.749 18.8 24.749 19.6 23.949 L 26.8 16.549 C 27.4 15.749 27.4 14.749 26.8 14.149 C 26.2 13.549 25.2 13.549 24.4 14.149 Z M 37.4 13.749 C 36.8 11.749 37.4 9.149 36.2 7.549 C 35 5.949 32.4 5.749 30.8 4.549 C 29.2 3.349 28.2 0.949 26.2 0.349 C 24.4 -0.451 22 0.949 20 0.949 C 18 0.949 15.6 -0.451 13.8 0.149 C 11.8 0.949 10.8 3.349 9.2 4.549 C 7.6 5.749 5 5.949 3.8 7.549 C 2.6 9.149 3.2 11.749 2.6 13.749 C 2 15.549 0 17.349 0 19.349 C 0 21.349 2 23.149 2.6 24.949 C 3.2 26.949 2.6 29.549 3.8 31.149 C 5 32.749 7.6 32.949 9.2 34.149 C 10.8 35.349 11.8 37.749 13.8 38.349 C 15.6 38.949 18 37.549 20 37.549 C 22 37.549 24.4 38.949 26.2 38.349 C 28.2 37.749 29.2 35.349 30.8 34.149 C 32.4 32.949 35 32.749 36.2 31.149 C 37.4 29.549 36.8 26.949 37.4 24.949 C 38 23.149 40 21.349 40 19.349 C 40 17.349 38 15.549 37.4 13.749 Z M 20 32.149 C 13 32.149 7.2 26.349 7.2 19.349 C 7.2 12.349 13 6.549 20 6.549 C 27 6.549 32.8 12.349 32.8 19.349 C 32.8 26.349 27 32.149 20 32.149 Z" fill="currentColor" fill-rule="nonzero"/>
</svg>
