<svg xmlns="http://www.w3.org/2000/svg" width="38.300" height="40.028" viewBox="0 0 38.300 40.028" fill="none">
  <path d="M 16.7 21.561 C 19.9 19.561 20.8 15.361 18.8 12.161 C 16.8 8.961 12.5 7.961 9.4 9.961 C 6.3 11.961 5.2 16.261 7.2 19.461 C 7.7 20.361 8.5 21.061 9.3 21.561 C 4.1 23.061 0.4 27.561 0 32.961 C 4.6 40.161 14.2 42.16 21.4 37.561 C 23.2 36.361 24.8 34.761 26 32.961 C 25.5 27.561 21.8 23.061 16.7 21.561 Z M 29 12.561 C 32.2 10.561 33.1 6.361 31.1 3.161 C 29.1 -0.039 24.9 -0.939 21.7 1.061 C 19.7 2.361 18.5 4.461 18.5 6.761 C 18.5 7.161 18.5 7.561 18.6 7.961 C 22.6 10.861 23.7 16.261 21.3 20.561 C 24.9 22.861 27.5 26.461 28.4 30.561 C 32.5 29.761 36 27.361 38.3 23.961 C 37.9 18.561 34.2 14.061 29 12.561 Z" fill="currentColor" fill-rule="nonzero"/>
</svg>
