<svg xmlns="http://www.w3.org/2000/svg" width="36" height="36" viewBox="0 0 36 36" fill="none">
  <path d="M 34.85 9.06 L 27.07 1.19 C 26.699 0.814 26.257 0.515 25.769 0.311 C 25.282 0.107 24.759 0.001 24.23 0 L 4 0 C 2.939 0 1.922 0.421 1.172 1.172 C 0.421 1.922 0 2.939 0 4 L 0 32 C 0 33.061 0.421 34.078 1.172 34.828 C 1.922 35.579 2.939 36 4 36 L 32 36 C 33.061 36 34.078 35.579 34.828 34.828 C 35.579 34.078 36 33.061 36 32 L 36 11.87 C 36.001 10.819 35.588 9.809 34.85 9.06 Z M 25.94 33.5 L 10.06 33.5 L 10.06 26 C 10.063 25.4 10.303 24.825 10.728 24.401 C 11.154 23.978 11.73 23.74 12.33 23.74 L 23.67 23.74 C 24.27 23.74 24.846 23.978 25.272 24.401 C 25.697 24.825 25.937 25.4 25.94 26 L 25.94 33.5 Z M 33.5 32 C 33.5 32.398 33.342 32.779 33.061 33.061 C 32.779 33.342 32.398 33.5 32 33.5 L 28.44 33.5 L 28.44 26 C 28.437 24.737 27.934 23.526 27.039 22.634 C 26.145 21.741 24.933 21.24 23.67 21.24 L 12.33 21.24 C 11.067 21.24 9.855 21.741 8.961 22.634 C 8.066 23.526 7.563 24.737 7.56 26 L 7.56 33.5 L 4 33.5 C 3.602 33.5 3.221 33.342 2.939 33.061 C 2.658 32.779 2.5 32.398 2.5 32 L 2.5 4 C 2.5 3.602 2.658 3.221 2.939 2.939 C 3.221 2.658 3.602 2.5 4 2.5 L 7.56 2.5 L 7.56 9.62 C 7.56 12.62 9.43 14.62 12.33 14.62 L 24.67 14.62 C 25.002 14.62 25.319 14.488 25.554 14.254 C 25.788 14.019 25.92 13.702 25.92 13.37 C 25.92 13.038 25.788 12.721 25.554 12.486 C 25.319 12.252 25.002 12.12 24.67 12.12 L 12.33 12.12 C 10.8 12.12 10.06 11.3 10.06 9.61 L 10.06 2.5 L 24.23 2.5 C 24.432 2.506 24.63 2.554 24.812 2.64 C 24.994 2.726 25.157 2.848 25.29 3 L 33.07 10.87 C 33.208 11.008 33.317 11.172 33.39 11.352 C 33.464 11.532 33.501 11.725 33.5 11.92 L 33.5 32 Z M 22.58 4.41 C 22.415 4.409 22.252 4.44 22.1 4.502 C 21.948 4.565 21.809 4.657 21.693 4.773 C 21.577 4.889 21.485 5.028 21.422 5.18 C 21.36 5.332 21.329 5.495 21.33 5.66 L 21.33 9.09 C 21.33 9.422 21.462 9.739 21.696 9.974 C 21.931 10.208 22.248 10.34 22.58 10.34 C 22.912 10.34 23.229 10.208 23.464 9.974 C 23.698 9.739 23.83 9.422 23.83 9.09 L 23.83 5.66 C 23.831 5.495 23.8 5.332 23.738 5.18 C 23.675 5.028 23.583 4.889 23.467 4.773 C 23.351 4.657 23.212 4.565 23.06 4.502 C 22.908 4.44 22.745 4.409 22.58 4.41 Z" fill="currentColor" fill-rule="nonzero"/>
</svg>
