<svg xmlns="http://www.w3.org/2000/svg" width="35" height="39" viewBox="0 0 35 39" fill="none">
  <path d="M 28.809 4.816 C 28.654 4.816 28.498 4.777 28.362 4.699 C 24.628 2.769 21.399 1.95 17.529 1.95 C 13.678 1.95 10.022 2.866 6.696 4.699 C 6.23 4.953 5.646 4.778 5.374 4.31 C 5.121 3.842 5.296 3.237 5.763 2.984 C 9.38 1.014 13.348 0 17.529 0 C 21.672 0 25.289 0.917 29.257 2.964 C 29.743 3.217 29.918 3.803 29.665 4.271 C 29.49 4.622 29.159 4.816 28.809 4.816 L 28.809 4.816 Z M 0.979 15.054 C 0.784 15.054 0.59 14.996 0.415 14.879 C -0.033 14.567 -0.13 13.962 0.181 13.514 C 2.107 10.784 4.557 8.639 7.474 7.137 C 13.581 3.978 21.399 3.959 27.526 7.118 C 30.443 8.619 32.893 10.745 34.819 13.455 C 35.13 13.884 35.033 14.508 34.585 14.82 C 34.138 15.132 33.535 15.034 33.224 14.586 C 31.474 12.129 29.257 10.198 26.631 8.853 C 21.049 5.986 13.912 5.987 8.35 8.873 C 5.705 10.238 3.487 12.188 1.737 14.645 C 1.581 14.918 1.29 15.054 0.979 15.054 L 0.979 15.054 Z M 13.134 38.591 C 12.881 38.591 12.628 38.493 12.453 38.298 C 10.761 36.602 9.847 35.51 8.544 33.15 C 7.202 30.752 6.502 27.826 6.502 24.687 C 6.502 18.896 11.442 14.177 17.51 14.177 C 23.578 14.177 28.518 18.896 28.518 24.687 C 28.518 25.233 28.09 25.662 27.545 25.662 C 27.001 25.662 26.573 25.233 26.573 24.687 C 26.573 19.968 22.508 16.127 17.51 16.127 C 12.511 16.127 8.447 19.968 8.447 24.687 C 8.447 27.495 9.069 30.088 10.255 32.194 C 11.5 34.437 12.356 35.393 13.853 36.914 C 14.223 37.304 14.223 37.908 13.853 38.298 C 13.639 38.493 13.387 38.591 13.134 38.591 Z M 27.078 34.983 C 24.764 34.983 22.722 34.398 21.049 33.247 C 18.152 31.278 16.421 28.08 16.421 24.687 C 16.421 24.141 16.848 23.712 17.393 23.712 C 17.938 23.712 18.365 24.141 18.365 24.687 C 18.365 27.437 19.766 30.03 22.138 31.629 C 23.519 32.565 25.134 33.014 27.078 33.014 C 27.545 33.014 28.323 32.955 29.101 32.819 C 29.626 32.721 30.132 33.072 30.229 33.618 C 30.326 34.145 29.976 34.652 29.432 34.749 C 28.323 34.964 27.351 34.983 27.078 34.983 L 27.078 34.983 Z M 23.169 39 C 23.091 39 22.994 38.98 22.916 38.961 C 19.824 38.103 17.801 36.952 15.682 34.866 C 12.959 32.155 11.461 28.548 11.461 24.687 C 11.461 21.528 14.145 18.954 17.451 18.954 C 20.758 18.954 23.441 21.528 23.441 24.687 C 23.441 26.774 25.25 28.47 27.487 28.47 C 29.723 28.47 31.532 26.774 31.532 24.687 C 31.532 17.336 25.211 11.368 17.432 11.368 C 11.909 11.368 6.852 14.449 4.577 19.227 C 3.818 20.806 3.429 22.659 3.429 24.687 C 3.429 26.208 3.565 28.607 4.732 31.727 C 4.927 32.234 4.674 32.799 4.168 32.974 C 3.662 33.169 3.098 32.897 2.923 32.409 C 1.97 29.855 1.504 27.319 1.504 24.687 C 1.504 22.347 1.951 20.222 2.826 18.369 C 5.413 12.929 11.15 9.399 17.432 9.399 C 26.281 9.399 33.477 16.243 33.477 24.667 C 33.477 27.826 30.793 30.401 27.487 30.401 C 24.181 30.401 21.497 27.826 21.497 24.667 C 21.497 22.581 19.688 20.885 17.451 20.885 C 15.215 20.885 13.406 22.581 13.406 24.667 C 13.406 28.002 14.69 31.122 17.043 33.462 C 18.891 35.295 20.66 36.309 23.403 37.069 C 23.928 37.206 24.219 37.752 24.083 38.259 C 23.986 38.708 23.578 39 23.169 39 L 23.169 39 Z" fill="currentColor" fill-rule="nonzero"/>
</svg>
