<svg xmlns="http://www.w3.org/2000/svg" width="40.214" height="28.600" viewBox="0 0 40.214 28.600" fill="none">
  <path d="M 39.859 10.9 C 39.559 10.3 38.959 9.9 38.359 9.8 C 38.559 9.5 38.959 9.3 39.259 9 C 39.659 8.7 39.759 8.2 39.459 7.8 C 39.159 7.4 38.659 7.3 38.259 7.6 C 37.259 8.3 36.559 9.1 36.059 10 C 35.559 10.2 35.059 10.4 34.659 10.6 C 34.159 8.6 33.159 6.7 31.559 5.1 C 28.459 1.9 23.859 0 18.859 0 L 18.759 0 C 16.259 0 13.759 0.5 11.559 1.4 C 11.059 1.5 10.859 1.5 10.459 1.3 C 8.359 0.3 5.759 0.4 3.759 1.5 L 3.659 1.6 C 3.259 1.8 2.959 2.2 2.859 2.7 C 2.759 3.1 2.859 3.6 3.159 3.9 C 3.659 4.6 3.959 4.9 4.459 5.5 C 4.759 5.9 4.759 6.4 4.459 6.8 C 3.659 8 3.059 9.4 2.759 10.8 C 2.759 10.9 2.659 10.9 2.659 10.9 L 2.559 10.9 C -0.041 11.7 -0.241 12.9 0.159 14.5 C 0.159 14.6 0.259 14.7 0.259 14.8 L 0.859 17 C 0.859 17.2 0.959 17.3 0.959 17.5 C 1.359 19.4 2.159 19.4 4.059 19.4 L 4.259 19.4 C 4.359 19.4 4.659 19.5 4.759 19.6 C 5.759 21 7.059 22.2 8.559 23.2 C 9.359 23.7 9.759 24.6 9.659 25.6 C 9.559 27.1 10.659 28.3 12.059 28.4 C 12.859 28.5 13.259 28.5 14.059 28.6 C 14.159 28.6 14.159 28.6 14.259 28.6 C 14.859 28.6 15.459 28.4 15.859 28 C 16.359 27.5 16.759 26.9 16.759 26.2 C 17.359 26.3 18.059 26.3 18.759 26.3 C 19.459 26.3 20.059 26.3 20.659 26.2 C 20.759 26.9 21.159 27.5 21.659 27.9 C 22.159 28.3 22.859 28.5 23.559 28.4 C 24.359 28.3 24.759 28.2 25.559 28.2 C 26.959 28 27.959 26.7 27.859 25.3 C 27.759 24.6 28.059 23.9 28.659 23.5 C 32.459 21.1 34.759 17.4 34.959 13.5 C 34.959 13.1 34.959 12.8 34.959 12.4 C 35.159 12.3 35.359 12.2 35.559 12 C 35.559 12.4 35.759 12.8 35.959 13.1 C 36.459 13.8 37.159 14.2 37.859 14.2 C 37.859 14.2 37.859 14.2 37.959 14.2 C 38.759 14.2 39.559 13.7 39.959 13 C 40.359 12.4 40.259 11.6 39.859 10.9 Z M 27.559 21.6 C 26.259 22.4 25.559 23.9 25.759 25.4 C 25.759 25.7 25.659 25.9 25.359 25.9 C 24.559 26 24.159 26.1 23.359 26.1 C 23.259 26.1 23.159 26.1 23.059 26 C 22.959 25.9 22.859 25.8 22.859 25.7 L 22.759 24.8 C 22.759 24.5 22.559 24.2 22.259 24 L 21.859 23.7 L 21.359 23.8 C 20.459 23.9 19.659 24 18.759 24 C 17.859 24 16.959 23.9 16.059 23.8 C 15.759 23.8 15.459 23.8 15.159 24 L 14.759 24.4 L 14.659 26 C 14.659 26.2 14.559 26.3 14.459 26.3 C 14.459 26.3 14.359 26.4 14.259 26.4 C 13.459 26.3 13.059 26.3 12.259 26.2 C 12.059 26.2 11.859 26 11.859 25.7 C 11.959 24 11.159 22.3 9.759 21.4 C 8.459 20.5 7.359 19.5 6.559 18.4 C 6.059 17.7 5.159 17.3 4.359 17.3 L 4.259 17.3 L 4.059 17.3 C 3.859 17.3 3.459 17.3 3.159 17.3 C 3.159 17.3 3.159 17.2 3.159 17.1 C 3.159 16.9 3.059 16.8 3.059 16.5 L 2.459 14.3 C 2.459 14.2 2.359 14 2.359 13.9 C 2.359 13.8 2.259 13.6 2.259 13.5 C 2.359 13.4 2.659 13.3 3.359 13 C 4.159 12.9 4.759 12.2 4.959 11.3 C 5.159 10.2 5.659 9.1 6.359 8.1 C 7.159 6.9 7.159 5.3 6.259 4.2 C 5.959 3.8 5.659 3.5 5.459 3.2 C 6.759 2.7 8.359 2.7 9.659 3.3 L 9.759 3.4 C 10.559 3.6 11.059 3.7 12.059 3.6 L 12.259 3.5 C 14.259 2.7 16.459 2.3 18.759 2.2 L 18.859 2.2 C 23.259 2.2 27.359 3.8 30.059 6.6 C 31.959 8.6 32.959 11 32.859 13.5 C 32.659 16.6 30.759 19.6 27.559 21.6 Z M 38.359 12.2 C 38.259 12.4 38.059 12.5 37.859 12.5 C 37.759 12.5 37.659 12.5 37.459 12.2 C 37.359 12 37.259 11.7 37.359 11.4 C 37.459 11.4 37.659 11.4 37.759 11.4 C 37.959 11.4 38.159 11.5 38.259 11.8 C 38.459 12 38.459 12.2 38.359 12.2 Z M 8.859 9.8 C 8.059 9.8 7.459 10.5 7.459 11.3 C 7.459 12.1 8.159 12.7 8.959 12.7 C 9.759 12.7 10.359 12 10.359 11.2 C 10.359 10.4 9.659 9.7 8.859 9.8 Z" fill="currentColor" fill-rule="nonzero"/>
</svg>
