<svg xmlns="http://www.w3.org/2000/svg" width="40" height="32.220" viewBox="0 0 40 32.220" fill="none">
  <path d="M 33.42 21.51 C 34.8 21.569 36.104 22.16 37.06 23.157 C 38.015 24.155 38.549 25.484 38.549 26.865 C 38.549 28.247 38.015 29.575 37.06 30.572 C 36.104 31.57 34.8 32.16 33.42 32.22 C 33.083 32.22 32.761 32.086 32.522 31.848 C 32.284 31.609 32.15 31.287 32.15 30.95 C 32.15 30.613 32.284 30.29 32.522 30.052 C 32.761 29.814 33.083 29.68 33.42 29.68 C 33.804 29.703 34.188 29.647 34.55 29.516 C 34.911 29.384 35.242 29.181 35.522 28.918 C 35.801 28.654 36.024 28.335 36.177 27.982 C 36.329 27.63 36.408 27.249 36.408 26.865 C 36.408 26.481 36.329 26.1 36.177 25.747 C 36.024 25.394 35.801 25.076 35.522 24.812 C 35.242 24.549 34.911 24.345 34.55 24.214 C 34.188 24.083 33.804 24.027 33.42 24.05 L 7.61 24.05 C 7.274 24.05 6.951 23.918 6.712 23.683 C 6.472 23.447 6.335 23.126 6.33 22.79 C 6.329 22.623 6.361 22.457 6.425 22.303 C 6.488 22.148 6.582 22.008 6.7 21.89 C 6.816 21.77 6.954 21.675 7.106 21.61 C 7.259 21.545 7.424 21.511 7.59 21.51 L 33.42 21.51 Z M 33.41 6.32 C 34.277 6.322 35.134 6.493 35.935 6.826 C 36.735 7.159 37.462 7.646 38.074 8.26 C 38.686 8.873 39.171 9.602 39.501 10.403 C 39.831 11.204 40.001 12.063 40 12.93 C 39.992 14.672 39.297 16.342 38.064 17.574 C 36.832 18.806 35.163 19.502 33.42 19.51 L 1.271 19.51 C 0.936 19.507 0.615 19.374 0.378 19.139 C 0.141 18.903 0.005 18.584 0 18.25 C -0.001 18.083 0.031 17.917 0.095 17.763 C 0.158 17.608 0.252 17.468 0.37 17.35 C 0.485 17.229 0.624 17.134 0.776 17.068 C 0.929 17.003 1.094 16.97 1.26 16.97 L 33.41 16.97 C 34.451 16.918 35.431 16.468 36.149 15.714 C 36.868 14.959 37.269 13.957 37.269 12.915 C 37.269 11.873 36.868 10.871 36.149 10.116 C 35.431 9.362 34.451 8.912 33.41 8.86 C 33.073 8.86 32.75 8.726 32.512 8.488 C 32.274 8.25 32.14 7.927 32.14 7.59 C 32.14 7.253 32.274 6.93 32.512 6.692 C 32.75 6.454 33.073 6.32 33.41 6.32 Z M 20.558 0.591 C 21.92 0.014 23.424 -0.145 24.877 0.134 C 26.33 0.412 27.667 1.116 28.72 2.156 C 29.772 3.196 30.492 4.525 30.788 5.975 C 31.084 7.424 30.944 8.929 30.384 10.299 C 29.824 11.668 28.869 12.84 27.642 13.666 C 26.414 14.492 24.97 14.936 23.49 14.94 L 11.45 14.94 C 11.113 14.94 10.79 14.806 10.552 14.568 C 10.314 14.33 10.18 14.007 10.18 13.67 C 10.18 13.333 10.314 13.01 10.552 12.771 C 10.79 12.533 11.113 12.4 11.45 12.4 L 23.47 12.4 C 24.445 12.4 25.398 12.111 26.209 11.569 C 27.02 11.028 27.651 10.257 28.024 9.356 C 28.398 8.456 28.496 7.464 28.306 6.508 C 28.115 5.552 27.645 4.674 26.956 3.984 C 26.267 3.295 25.388 2.825 24.432 2.635 C 23.475 2.444 22.484 2.542 21.583 2.915 C 20.682 3.288 19.913 3.921 19.371 4.731 C 18.83 5.542 18.54 6.495 18.54 7.47 C 18.548 7.805 18.423 8.129 18.192 8.373 C 17.962 8.617 17.645 8.759 17.31 8.769 C 17.143 8.775 16.976 8.747 16.82 8.688 C 16.665 8.63 16.522 8.541 16.4 8.427 C 16.279 8.313 16.18 8.175 16.111 8.023 C 16.043 7.871 16.005 7.707 16 7.54 C 15.986 6.06 16.412 4.61 17.224 3.373 C 18.035 2.136 19.195 1.167 20.558 0.591 Z" fill="currentColor" fill-rule="nonzero"/>
</svg>
