<svg xmlns="http://www.w3.org/2000/svg" width="35.345" height="40" viewBox="0 0 35.345 40" fill="none">
  <path d="M 1.375 0 C 1.038 0 0.715 0.134 0.477 0.372 C 0.239 0.61 0.105 0.933 0.105 1.27 L 0.105 19.38 C -0.035 19.781 -0.035 20.219 0.105 20.62 L 0.105 38.73 C 0.105 39.067 0.239 39.39 0.477 39.628 C 0.715 39.866 1.038 40 1.375 40 L 34.075 40 C 34.242 40 34.407 39.967 34.561 39.903 C 34.715 39.84 34.855 39.746 34.973 39.628 C 35.091 39.51 35.185 39.37 35.249 39.216 C 35.312 39.062 35.345 38.897 35.345 38.73 L 35.345 1.27 C 35.345 1.103 35.312 0.938 35.249 0.784 C 35.185 0.63 35.091 0.49 34.973 0.372 C 34.855 0.254 34.715 0.16 34.561 0.097 C 34.407 0.033 34.242 0 34.075 0 L 1.375 0 Z M 15.035 4.37 L 15.545 4.37 L 15.545 16.55 C 15.545 16.887 15.411 17.21 15.173 17.448 C 14.935 17.686 14.612 17.82 14.275 17.82 L 10.275 17.82 C 10.063 17.813 9.857 17.754 9.674 17.648 C 9.49 17.542 9.336 17.392 9.225 17.211 C 9.114 17.031 9.05 16.826 9.038 16.615 C 9.025 16.403 9.066 16.192 9.155 16 L 15.035 4.37 Z M 19.905 4.37 L 20.415 4.37 L 26.295 16 C 26.392 16.195 26.438 16.411 26.428 16.628 C 26.418 16.845 26.353 17.056 26.239 17.242 C 26.125 17.427 25.965 17.58 25.776 17.686 C 25.586 17.793 25.373 17.849 25.155 17.85 L 21.155 17.85 C 20.818 17.85 20.495 17.716 20.257 17.478 C 20.019 17.24 19.885 16.917 19.885 16.58 L 19.905 4.37 Z M 4.605 25 L 5.675 22.88 C 5.782 22.67 5.945 22.493 6.146 22.369 C 6.348 22.246 6.579 22.18 6.815 22.18 L 14.275 22.18 C 14.443 22.18 14.609 22.213 14.764 22.278 C 14.918 22.342 15.059 22.437 15.177 22.556 C 15.295 22.674 15.388 22.816 15.451 22.971 C 15.515 23.126 15.546 23.292 15.545 23.46 L 15.545 34.36 C 15.545 34.697 15.411 35.02 15.173 35.258 C 14.935 35.496 14.612 35.63 14.275 35.63 L 5.735 35.63 C 5.398 35.63 5.075 35.496 4.837 35.258 C 4.599 35.02 4.465 34.697 4.465 34.36 L 4.465 25.54 C 4.472 25.352 4.52 25.168 4.605 25 Z M 19.905 34.4 L 19.905 23.46 C 19.904 23.292 19.936 23.126 19.999 22.971 C 20.062 22.816 20.156 22.674 20.274 22.556 C 20.392 22.437 20.532 22.342 20.687 22.278 C 20.842 22.213 21.008 22.18 21.175 22.18 L 28.675 22.18 C 28.911 22.18 29.143 22.246 29.344 22.369 C 29.545 22.493 29.708 22.67 29.815 22.88 L 30.845 25 C 30.936 25.18 30.984 25.378 30.985 25.58 L 30.985 34.4 C 30.98 34.567 30.942 34.731 30.873 34.883 C 30.805 35.035 30.707 35.172 30.585 35.286 C 30.463 35.401 30.32 35.49 30.164 35.549 C 30.008 35.608 29.842 35.635 29.675 35.63 L 21.175 35.63 C 20.838 35.63 20.515 35.496 20.277 35.258 C 20.039 35.02 19.905 34.697 19.905 34.36 L 19.905 34.4 Z" fill="currentColor" fill-rule="nonzero"/>
</svg>
