<svg xmlns="http://www.w3.org/2000/svg" width="35.320" height="40.000" viewBox="0 0 35.320 40.000" fill="none">
  <path d="M 35.3 5.93 C 35.3 5.615 35.175 5.312 34.951 5.089 C 34.728 4.866 34.426 4.74 34.11 4.74 L 25.65 4.74 L 25.65 3.85 C 25.65 3.341 25.549 2.837 25.353 2.368 C 25.157 1.898 24.87 1.472 24.508 1.114 C 24.147 0.756 23.717 0.473 23.246 0.282 C 22.774 0.091 22.269 -0.005 21.76 0 L 13.54 0 C 13.031 -0.005 12.526 0.091 12.054 0.282 C 11.583 0.473 11.153 0.756 10.792 1.114 C 10.43 1.472 10.143 1.898 9.947 2.368 C 9.751 2.837 9.65 3.341 9.65 3.85 L 9.65 4.74 L 1.19 4.74 C 0.874 4.74 0.572 4.866 0.349 5.089 C 0.125 5.312 0 5.615 0 5.93 C 0 5.93 0 5.93 0 5.99 C 0 6.05 0 5.99 0 6.05 C 0 6.221 0.034 6.39 0.099 6.548 C 0.164 6.705 0.26 6.849 0.381 6.969 C 0.501 7.09 0.645 7.186 0.803 7.251 C 0.96 7.317 1.129 7.35 1.3 7.35 L 3.65 7.35 L 3.65 36 C 3.65 37.061 4.071 38.078 4.822 38.829 C 5.572 39.579 6.589 40 7.65 40 L 27.65 40 C 28.711 40 29.728 39.579 30.478 38.829 C 31.229 38.078 31.65 37.061 31.65 36 L 31.65 7.35 L 34.02 7.35 C 34.365 7.35 34.695 7.213 34.939 6.969 C 35.183 6.726 35.32 6.395 35.32 6.05 C 35.32 6.05 35.32 6.05 35.32 5.99 C 35.32 5.93 35.3 6 35.3 5.93 Z M 22.3 7.36 L 13 7.36 L 13 4.8 C 13 4.529 13.103 4.268 13.289 4.071 C 13.475 3.874 13.729 3.756 14 3.74 L 21.2 3.74 C 21.471 3.756 21.725 3.874 21.911 4.071 C 22.097 4.268 22.2 4.529 22.2 4.8 L 22.3 7.36 Z" fill="currentColor" fill-rule="nonzero"/>
</svg>
