<svg xmlns="http://www.w3.org/2000/svg" width="40" height="40" viewBox="0 0 40 40" fill="none">
  <path d="M 0 20 C 0 16.044 1.173 12.178 3.371 8.889 C 5.568 5.6 8.692 3.036 12.346 1.522 C 16.001 0.009 20.022 -0.387 23.902 0.384 C 27.781 1.156 31.345 3.061 34.142 5.858 C 36.939 8.655 38.844 12.219 39.616 16.098 C 40.387 19.978 39.991 23.999 38.478 27.654 C 36.964 31.308 34.4 34.432 31.111 36.629 C 27.822 38.827 23.956 40 20 40 C 14.696 40 9.609 37.893 5.858 34.142 C 2.107 30.391 0 25.304 0 20 Z M 2.51 20 C 2.508 23.46 3.532 26.842 5.453 29.72 C 7.373 32.597 10.104 34.84 13.3 36.166 C 16.496 37.491 20.013 37.839 23.406 37.165 C 26.799 36.491 29.917 34.826 32.364 32.381 C 34.811 29.935 36.478 26.819 37.153 23.426 C 37.829 20.033 37.483 16.516 36.16 13.319 C 34.836 10.123 32.594 7.391 29.718 5.468 C 26.842 3.546 23.46 2.52 20 2.52 C 15.371 2.536 10.936 4.383 7.664 7.658 C 4.393 10.934 2.551 15.371 2.54 20 L 2.51 20 Z M 13.11 28.59 C 12.776 28.59 12.455 28.457 12.219 28.221 C 11.983 27.985 11.85 27.664 11.85 27.33 C 11.85 26.996 11.983 26.675 12.219 26.439 C 12.455 26.203 12.776 26.07 13.11 26.07 L 26 26.07 C 26.317 26.056 26.626 26.169 26.86 26.382 C 27.094 26.596 27.234 26.893 27.25 27.21 C 27.26 27.249 27.26 27.291 27.25 27.33 C 27.242 27.66 27.109 27.975 26.876 28.209 C 26.644 28.444 26.33 28.58 26 28.59 L 13.11 28.59 Z M 20.07 10.22 L 20.15 10.22 C 20.349 10.297 20.525 10.425 20.66 10.59 L 24.52 15.03 C 24.707 15.287 24.791 15.605 24.755 15.921 C 24.719 16.237 24.566 16.527 24.326 16.736 C 24.086 16.945 23.777 17.055 23.459 17.047 C 23.141 17.038 22.838 16.911 22.61 16.69 L 21 14.81 L 21 23.12 C 21 23.454 20.867 23.775 20.631 24.011 C 20.395 24.247 20.074 24.38 19.74 24.38 C 19.406 24.38 19.085 24.247 18.849 24.011 C 18.613 23.775 18.48 23.454 18.48 23.12 L 18.48 14.88 L 17.08 16.66 C 16.862 16.867 16.577 16.991 16.277 17.008 C 15.976 17.025 15.68 16.935 15.44 16.753 C 15.199 16.572 15.031 16.311 14.966 16.018 C 14.9 15.724 14.94 15.417 15.08 15.15 L 15.08 15.1 L 18.71 10.59 C 18.71 10.51 18.78 10.51 18.86 10.44 C 18.963 10.337 19.09 10.261 19.23 10.22 L 19.3 10.22 C 19.538 10.125 19.802 10.125 20.04 10.22 L 20.07 10.22 Z" fill="currentColor" fill-rule="nonzero"/>
</svg>
