<svg xmlns="http://www.w3.org/2000/svg" width="40" height="40" viewBox="0 0 40 40" fill="none">
  <path d="M 20 0 C 16.044 0 12.178 1.173 8.889 3.371 C 5.6 5.568 3.036 8.692 1.522 12.346 C 0.009 16.001 -0.387 20.022 0.384 23.902 C 1.156 27.781 3.061 31.345 5.858 34.142 C 8.655 36.939 12.219 38.844 16.098 39.616 C 19.978 40.387 23.999 39.991 27.654 38.478 C 31.308 36.964 34.432 34.4 36.629 31.111 C 38.827 27.822 40 23.956 40 20 C 40 17.374 39.483 14.773 38.478 12.346 C 37.473 9.92 35.999 7.715 34.142 5.858 C 32.285 4.001 30.08 2.528 27.654 1.522 C 25.227 0.517 22.626 0 20 0 Z M 32.3 32.43 C 32.07 29.877 31.051 27.459 29.384 25.511 C 27.718 23.564 25.487 22.183 23 21.56 C 24.426 20.887 25.581 19.749 26.274 18.332 C 26.967 16.916 27.157 15.305 26.812 13.766 C 26.468 12.227 25.609 10.852 24.378 9.866 C 23.147 8.88 21.617 8.343 20.04 8.343 C 18.463 8.343 16.933 8.88 15.702 9.866 C 14.471 10.852 13.612 12.227 13.268 13.766 C 12.923 15.305 13.113 16.916 13.806 18.332 C 14.499 19.749 15.654 20.887 17.08 21.56 C 14.579 22.168 12.33 23.543 10.648 25.492 C 8.966 27.441 7.936 29.867 7.7 32.43 C 5.232 29.991 3.544 26.873 2.852 23.473 C 2.16 20.073 2.494 16.543 3.812 13.333 C 5.13 10.123 7.373 7.378 10.256 5.446 C 13.138 3.513 16.53 2.482 20 2.482 C 23.47 2.482 26.862 3.513 29.744 5.446 C 32.627 7.378 34.87 10.123 36.188 13.333 C 37.506 16.543 37.841 20.073 37.148 23.473 C 36.456 26.873 34.768 29.991 32.3 32.43 Z" fill="currentColor" fill-rule="nonzero"/>
</svg>
