<svg xmlns="http://www.w3.org/2000/svg" width="39.817" height="32.002" viewBox="0 0 39.817 32.002" fill="none">
  <path d="M 37.817 14.006 L 6.817 14.006 L 17.417 3.416 C 17.602 3.23 17.75 3.01 17.85 2.767 C 17.951 2.524 18.003 2.264 18.003 2.001 C 18.003 1.738 17.951 1.478 17.85 1.235 C 17.75 0.993 17.602 0.772 17.417 0.586 C 17.231 0.4 17.01 0.253 16.767 0.152 C 16.525 0.052 16.264 0 16.002 0 C 15.739 0 15.479 0.052 15.236 0.152 C 14.993 0.253 14.772 0.4 14.587 0.586 L 0.587 14.586 C 0.401 14.772 0.253 14.992 0.152 15.235 C 0.052 15.478 0 15.738 0 16.001 C 0 16.264 0.052 16.524 0.152 16.767 C 0.253 17.01 0.401 17.23 0.587 17.416 L 14.587 31.416 C 14.962 31.791 15.471 32.002 16.002 32.002 C 16.532 32.002 17.041 31.791 17.417 31.416 C 17.792 31.041 18.003 30.532 18.003 30.001 C 18.003 29.47 17.792 28.961 17.417 28.586 L 6.807 18.006 L 37.807 18.006 C 38.335 18.007 38.842 17.798 39.217 17.426 C 39.406 17.241 39.556 17.02 39.659 16.776 C 39.762 16.532 39.815 16.271 39.817 16.006 C 39.817 15.476 39.606 14.967 39.231 14.592 C 38.856 14.217 38.347 14.006 37.817 14.006 Z" fill="currentColor" fill-rule="nonzero"/>
</svg>
