<svg xmlns="http://www.w3.org/2000/svg" width="40.023" height="37.960" viewBox="0 0 40.023 37.960" fill="none">
  <path d="M 33.173 22.269 C 34.499 22.269 35.77 22.797 36.708 23.734 C 37.646 24.672 38.173 25.943 38.173 27.269 L 38.173 28.41 L 38.333 28.41 C 38.781 28.41 39.211 28.588 39.528 28.905 C 39.845 29.222 40.022 29.651 40.023 30.099 L 40.023 36.269 C 40.023 36.717 39.845 37.148 39.528 37.465 C 39.211 37.781 38.781 37.96 38.333 37.96 L 27.963 37.96 C 27.742 37.954 27.525 37.906 27.323 37.817 C 27.121 37.728 26.939 37.599 26.786 37.439 C 26.634 37.279 26.515 37.091 26.436 36.885 C 26.356 36.68 26.318 36.46 26.323 36.24 L 26.323 30.099 C 26.322 29.878 26.365 29.659 26.448 29.454 C 26.532 29.249 26.655 29.062 26.812 28.905 C 26.968 28.748 27.153 28.624 27.358 28.539 C 27.562 28.454 27.782 28.41 28.003 28.41 L 28.173 28.41 L 28.173 27.269 C 28.173 25.943 28.7 24.672 29.638 23.734 C 30.575 22.797 31.847 22.269 33.173 22.269 Z M 14.846 0.43 C 18.468 -0.357 22.243 -0.06 25.696 1.287 C 29.15 2.633 32.131 4.968 34.265 8 C 36.398 11.031 37.59 14.624 37.692 18.33 C 37.701 18.665 37.576 18.99 37.346 19.233 C 37.115 19.477 36.798 19.619 36.463 19.63 C 36.134 19.63 35.818 19.501 35.582 19.271 C 35.347 19.041 35.211 18.729 35.203 18.4 C 35.111 15.05 33.989 11.81 31.992 9.119 C 29.995 6.428 27.218 4.417 24.039 3.358 C 20.86 2.299 17.432 2.244 14.22 3.2 C 11.008 4.156 8.169 6.077 6.086 8.702 C 4.003 11.327 2.779 14.53 2.578 17.875 C 2.378 21.22 3.212 24.545 4.966 27.4 C 6.72 30.255 9.31 32.502 12.385 33.835 C 15.459 35.167 18.87 35.521 22.153 34.849 C 22.317 34.811 22.486 34.807 22.651 34.836 C 22.817 34.865 22.975 34.928 23.116 35.019 C 23.257 35.111 23.378 35.23 23.472 35.369 C 23.566 35.508 23.631 35.665 23.663 35.83 C 23.697 35.993 23.696 36.162 23.664 36.326 C 23.632 36.49 23.568 36.645 23.475 36.784 C 23.382 36.923 23.261 37.042 23.122 37.133 C 22.983 37.225 22.827 37.289 22.663 37.32 C 21.415 37.57 20.146 37.697 18.873 37.7 C 15.166 37.704 11.54 36.616 8.448 34.57 C 5.357 32.524 2.938 29.613 1.492 26.199 C 0.047 22.785 -0.36 19.021 0.322 15.378 C 1.005 11.734 2.747 8.373 5.33 5.715 C 7.913 3.056 11.224 1.218 14.846 0.43 Z M 18.813 8.259 C 19.03 8.259 19.239 8.346 19.393 8.5 C 19.546 8.653 19.633 8.862 19.633 9.08 L 19.633 10.79 C 20.522 10.805 21.402 10.974 22.233 11.29 C 22.454 11.393 22.629 11.572 22.727 11.795 C 22.824 12.017 22.837 12.268 22.763 12.5 C 22.718 12.612 22.651 12.714 22.566 12.8 C 22.481 12.887 22.379 12.955 22.268 13.002 C 22.156 13.048 22.036 13.072 21.915 13.072 C 21.794 13.072 21.674 13.047 21.563 13 C 20.786 12.68 19.953 12.516 19.113 12.519 C 17.094 12.519 16.353 13.759 16.353 14.759 C 16.353 16.119 17.323 16.76 19.563 17.759 C 22.213 18.879 23.563 20.23 23.563 22.549 C 23.548 23.673 23.12 24.751 22.359 25.578 C 21.599 26.404 20.561 26.922 19.443 27.03 L 19.443 28.9 C 19.445 29.008 19.424 29.116 19.383 29.216 C 19.342 29.315 19.282 29.406 19.206 29.482 C 19.13 29.558 19.039 29.619 18.939 29.66 C 18.839 29.701 18.731 29.721 18.623 29.719 C 18.408 29.717 18.201 29.63 18.05 29.476 C 17.898 29.323 17.813 29.116 17.813 28.9 L 17.813 27.11 C 16.688 27.09 15.579 26.842 14.553 26.38 C 14.431 26.338 14.32 26.271 14.226 26.184 C 14.131 26.097 14.056 25.992 14.004 25.875 C 13.952 25.757 13.925 25.63 13.925 25.502 C 13.925 25.373 13.951 25.246 14.002 25.129 C 14.053 25.011 14.129 24.905 14.223 24.818 C 14.317 24.731 14.428 24.664 14.549 24.622 C 14.67 24.58 14.799 24.563 14.927 24.573 C 15.055 24.583 15.18 24.619 15.293 24.679 C 16.208 25.081 17.194 25.299 18.193 25.32 C 20.063 25.32 21.333 24.189 21.333 22.769 C 21.333 21.35 20.273 20.449 18.333 19.63 C 15.643 18.59 13.993 17.39 13.993 15.07 C 14.016 13.997 14.438 12.971 15.178 12.194 C 15.918 11.417 16.923 10.944 17.993 10.87 L 17.993 9.08 C 17.993 8.862 18.08 8.653 18.233 8.5 C 18.387 8.346 18.595 8.26 18.813 8.259 Z M 33.153 24.21 C 32.323 24.21 31.527 24.54 30.94 25.127 C 30.353 25.714 30.023 26.51 30.023 27.34 L 30.023 28.41 L 36.283 28.389 L 36.283 27.34 C 36.283 26.51 35.953 25.714 35.366 25.127 C 34.779 24.54 33.983 24.21 33.153 24.21 Z" fill="currentColor" fill-rule="nonzero"/>
</svg>
