<svg xmlns="http://www.w3.org/2000/svg" width="40.000" height="40.000" viewBox="0 0 40.000 40.000" fill="none">
  <path d="M 20 0 C 22.626 0 25.226 0.517 27.653 1.522 C 30.079 2.528 32.285 4 34.142 5.857 C 35.999 7.715 37.472 9.92 38.477 12.347 C 39.482 14.773 40 17.374 40 20 C 40 23.956 38.827 27.822 36.629 31.111 C 34.432 34.4 31.307 36.964 27.653 38.478 C 23.999 39.991 19.978 40.387 16.098 39.615 C 12.219 38.844 8.654 36.94 5.857 34.143 C 3.06 31.346 1.156 27.781 0.384 23.901 C -0.387 20.022 0.008 16.001 1.522 12.347 C 3.036 8.692 5.599 5.569 8.888 3.371 C 12.177 1.173 16.044 0 20 0 Z M 20 30.119 C 16.143 30.119 12.395 31.403 9.349 33.77 C 12.392 36.142 16.141 37.432 20 37.432 C 23.858 37.432 27.607 36.142 30.65 33.77 C 27.604 31.403 23.857 30.119 20 30.119 Z M 21.25 5.63 C 21.25 5.948 21.123 6.253 20.898 6.479 C 20.673 6.704 20.368 6.83 20.049 6.83 C 19.731 6.83 19.426 6.704 19.201 6.479 C 18.976 6.253 18.849 5.948 18.849 5.63 L 18.849 2.63 C 16.353 2.791 13.921 3.49 11.72 4.68 C 9.52 5.869 7.602 7.52 6.099 9.52 L 8.58 11.27 C 8.788 11.417 8.944 11.628 9.025 11.87 C 9.106 12.112 9.108 12.374 9.03 12.617 C 8.952 12.86 8.798 13.072 8.591 13.222 C 8.385 13.372 8.135 13.452 7.879 13.45 C 7.632 13.451 7.391 13.374 7.19 13.23 L 4.78 11.5 C 2.964 14.747 2.238 18.491 2.71 22.182 C 3.181 25.872 4.825 29.314 7.4 32 C 10.963 29.11 15.411 27.532 20 27.532 C 24.588 27.532 29.036 29.11 32.599 32 C 35.169 29.316 36.811 25.878 37.283 22.191 C 37.754 18.505 37.031 14.764 35.219 11.52 L 32.809 13.25 C 32.608 13.394 32.367 13.471 32.12 13.47 C 31.864 13.471 31.615 13.392 31.408 13.242 C 31.201 13.092 31.047 12.88 30.969 12.637 C 30.891 12.394 30.893 12.132 30.974 11.89 C 31.055 11.647 31.211 11.437 31.419 11.29 L 33.9 9.52 C 32.409 7.531 30.507 5.887 28.325 4.698 C 26.142 3.509 23.729 2.804 21.25 2.63 L 21.25 5.63 Z M 12.71 11.672 C 12.872 11.672 13.033 11.704 13.182 11.768 C 13.332 11.831 13.467 11.924 13.58 12.04 L 18.58 16.92 C 18.764 17.043 18.972 17.129 19.19 17.17 C 19.408 17.211 19.632 17.208 19.849 17.16 C 20.418 17.128 20.984 17.268 21.471 17.563 C 21.959 17.857 22.347 18.292 22.584 18.811 C 22.82 19.329 22.894 19.906 22.797 20.468 C 22.7 21.029 22.435 21.548 22.039 21.957 C 21.642 22.366 21.131 22.645 20.573 22.759 C 20.015 22.872 19.435 22.815 18.91 22.594 C 18.385 22.373 17.939 21.998 17.63 21.52 C 17.322 21.041 17.164 20.48 17.179 19.91 C 17.22 19.692 17.216 19.468 17.168 19.252 C 17.119 19.036 17.029 18.831 16.9 18.65 L 11.9 13.78 C 11.78 13.672 11.682 13.54 11.614 13.393 C 11.545 13.246 11.507 13.086 11.502 12.924 C 11.496 12.762 11.523 12.6 11.582 12.448 C 11.64 12.297 11.728 12.159 11.84 12.042 C 11.953 11.925 12.089 11.832 12.238 11.769 C 12.387 11.705 12.547 11.672 12.71 11.672 Z" fill="currentColor" fill-rule="nonzero"/>
</svg>
