<svg xmlns="http://www.w3.org/2000/svg" width="39.990" height="24.881" viewBox="0 0 39.990 24.881" fill="none">
  <path d="M 6.05 19.331 L 2.99 19.331 C 2.658 19.331 2.341 19.462 2.106 19.697 C 1.872 19.931 1.74 20.249 1.74 20.581 C 1.74 20.912 1.872 21.23 2.106 21.465 C 2.341 21.699 2.658 21.831 2.99 21.831 L 5.99 21.831 C 6.322 21.831 6.639 21.699 6.874 21.465 C 7.108 21.23 7.24 20.912 7.24 20.581 C 7.24 20.249 7.108 19.931 6.874 19.697 C 6.639 19.462 6.322 19.331 5.99 19.331 L 6.05 19.331 Z M 7.11 10.441 C 7.11 10.109 6.978 9.791 6.744 9.557 C 6.509 9.322 6.192 9.191 5.86 9.191 L 1.25 9.191 C 0.918 9.191 0.601 9.322 0.366 9.557 C 0.132 9.791 0 10.109 0 10.441 C 0 10.772 0.132 11.09 0.366 11.325 C 0.601 11.559 0.918 11.691 1.25 11.691 L 5.86 11.691 C 6.192 11.691 6.509 11.559 6.744 11.325 C 6.978 11.09 7.11 10.772 7.11 10.441 Z M 18.46 18.261 L 13.29 18.261 C 12.958 18.261 12.641 18.392 12.406 18.627 C 12.172 18.861 12.04 19.179 12.04 19.511 C 12.04 19.842 12.172 20.16 12.406 20.395 C 12.641 20.629 12.958 20.761 13.29 20.761 L 18.46 20.761 C 18.792 20.761 19.109 20.629 19.344 20.395 C 19.578 20.16 19.71 19.842 19.71 19.511 C 19.71 19.179 19.578 18.861 19.344 18.627 C 19.109 18.392 18.792 18.261 18.46 18.261 Z M 20.79 14.261 L 13.29 14.261 C 12.958 14.261 12.641 14.392 12.406 14.627 C 12.172 14.861 12.04 15.179 12.04 15.511 C 12.04 15.842 12.172 16.16 12.406 16.395 C 12.641 16.629 12.958 16.761 13.29 16.761 L 20.79 16.761 C 21.122 16.761 21.439 16.629 21.674 16.395 C 21.908 16.16 22.04 15.842 22.04 15.511 C 22.04 15.179 21.908 14.861 21.674 14.627 C 21.439 14.392 21.122 14.261 20.79 14.261 Z M 35.99 0.001 L 11.99 0.001 C 10.961 -0.005 9.972 0.393 9.233 1.109 C 8.494 1.825 8.066 2.802 8.04 3.831 L 8.04 4.181 L 3.78 4.181 C 3.448 4.181 3.131 4.312 2.896 4.547 C 2.662 4.781 2.53 5.099 2.53 5.431 C 2.53 5.762 2.662 6.08 2.896 6.315 C 3.131 6.549 3.448 6.681 3.78 6.681 L 8.08 6.681 L 8.08 14.281 L 4.17 14.281 C 3.838 14.281 3.521 14.412 3.286 14.647 C 3.052 14.881 2.92 15.199 2.92 15.531 C 2.92 15.862 3.052 16.18 3.286 16.415 C 3.521 16.649 3.838 16.781 4.17 16.781 L 8.08 16.781 L 8.08 21.051 C 8.106 22.072 8.529 23.043 9.259 23.758 C 9.989 24.473 10.968 24.876 11.99 24.881 L 35.99 24.881 C 37.027 24.899 38.03 24.507 38.779 23.79 C 39.529 23.072 39.964 22.088 39.99 21.051 L 39.99 3.831 C 39.964 2.794 39.529 1.809 38.779 1.091 C 38.03 0.374 37.027 -0.018 35.99 0.001 Z M 37.4 8.511 L 37.4 21.051 C 37.378 21.416 37.222 21.759 36.962 22.016 C 36.701 22.273 36.355 22.424 35.99 22.441 L 11.99 22.441 C 11.816 22.443 11.644 22.411 11.483 22.346 C 11.322 22.28 11.176 22.183 11.054 22.06 C 10.932 21.936 10.836 21.79 10.771 21.628 C 10.707 21.467 10.676 21.294 10.68 21.121 L 10.68 15.981 L 10.68 8.801 L 10.68 3.801 C 10.67 3.624 10.697 3.447 10.759 3.281 C 10.821 3.115 10.916 2.963 11.039 2.836 C 11.162 2.708 11.31 2.607 11.473 2.539 C 11.637 2.471 11.813 2.438 11.99 2.441 L 35.99 2.441 C 36.363 2.439 36.722 2.579 36.996 2.831 C 37.271 3.083 37.44 3.429 37.47 3.801 L 37.4 8.511 Z M 33.35 4.511 L 28.35 4.511 C 27.82 4.511 27.311 4.721 26.936 5.096 C 26.561 5.472 26.35 5.98 26.35 6.511 L 26.35 11.511 C 26.35 12.041 26.561 12.55 26.936 12.925 C 27.311 13.3 27.82 13.511 28.35 13.511 L 33.35 13.511 C 33.88 13.511 34.389 13.3 34.764 12.925 C 35.139 12.55 35.35 12.041 35.35 11.511 L 35.35 6.511 C 35.35 5.987 35.145 5.484 34.778 5.11 C 34.412 4.736 33.913 4.521 33.39 4.511 L 33.35 4.511 Z M 33.29 10.441 C 33.29 10.706 33.185 10.96 32.997 11.148 C 32.81 11.335 32.555 11.441 32.29 11.441 L 29.5 11.441 C 29.235 11.441 28.98 11.335 28.793 11.148 C 28.605 10.96 28.5 10.706 28.5 10.441 L 28.5 7.621 C 28.5 7.355 28.605 7.101 28.793 6.914 C 28.98 6.726 29.235 6.621 29.5 6.621 L 32.29 6.621 C 32.555 6.621 32.81 6.726 32.997 6.914 C 33.185 7.101 33.29 7.355 33.29 7.621 L 33.29 10.441 Z" fill="currentColor" fill-rule="nonzero"/>
</svg>
