<svg xmlns="http://www.w3.org/2000/svg" width="39.954" height="32.974" viewBox="0 0 39.954 32.974" fill="none">
  <path d="M 10.839 14.974 L 13.839 18.074 L 19.439 12.074 L 16.239 8.874 C 15.839 8.474 15.539 7.874 15.439 7.274 C 15.539 6.474 16.839 5.474 17.739 4.874 L 18.039 4.674 C 18.639 4.274 19.039 3.574 18.939 2.774 C 18.939 1.974 18.539 1.374 17.839 0.974 C 13.939 -1.326 10.239 0.974 8.739 2.474 L 5.239 5.574 C 4.639 5.174 3.939 5.274 3.539 5.774 L 0.539 9.074 C -0.921 10.826 0.84 12.673 2.779 14.706 L 2.939 14.874 L 3.339 15.374 C 4.839 16.974 6.039 17.774 7.239 17.774 C 7.939 17.774 8.639 17.474 9.139 16.974 L 10.839 14.974 Z M 7.139 15.174 C 7.039 15.174 6.539 15.174 5.039 13.674 L 4.739 13.274 L 4.539 13.174 C 3.739 12.374 3.039 11.574 2.439 10.674 L 4.839 8.074 L 5.239 8.074 C 5.839 8.074 6.439 7.874 6.939 7.474 L 10.439 4.374 L 10.639 4.274 C 11.639 3.274 12.939 2.674 14.439 2.574 C 15.139 2.574 15.739 2.774 16.339 3.074 C 14.839 4.074 13.239 5.374 13.039 7.274 L 13.039 7.874 C 13.239 8.974 13.739 9.974 14.539 10.774 L 16.039 12.174 L 13.839 14.474 L 12.739 13.274 C 12.239 12.774 11.639 12.474 10.939 12.474 C 10.239 12.474 9.639 12.774 9.139 13.274 L 7.339 15.174 L 7.139 15.174 Z M 38.739 4.374 L 38.939 4.374 C 39.639 4.574 40.039 5.174 39.939 5.774 L 38.939 11.274 C 38.939 11.974 38.639 12.574 38.239 13.074 L 36.239 15.074 C 35.839 15.574 35.239 15.874 34.539 15.974 L 34.439 15.974 L 30.439 16.074 L 27.239 19.474 L 19.839 27.374 L 16.339 31.074 C 13.439 34.074 11.139 32.574 10.239 31.774 L 10.139 31.674 L 10.039 31.574 C 9.239 30.674 7.639 28.474 10.439 25.474 L 13.939 21.874 L 21.339 13.874 L 24.539 10.474 L 24.439 6.474 L 24.439 6.374 C 24.539 5.674 24.739 5.074 25.239 4.574 L 27.139 2.574 C 27.639 2.174 28.239 1.874 28.939 1.774 L 34.339 0.474 C 34.939 0.374 35.639 0.674 35.839 1.374 L 35.839 1.474 C 36.039 1.974 35.839 2.574 35.439 2.874 L 35.239 3.074 L 31.639 6.874 L 33.639 8.874 L 37.239 5.074 L 37.439 4.874 C 37.739 4.474 38.239 4.274 38.739 4.374 Z M 36.539 11.174 L 36.539 10.874 L 36.839 9.174 L 35.539 10.574 C 35.139 11.074 34.539 11.374 33.839 11.374 L 33.739 11.374 C 33.139 11.374 32.539 11.074 32.039 10.674 L 29.939 8.674 C 29.439 8.274 29.239 7.674 29.139 7.074 C 29.139 6.374 29.339 5.774 29.839 5.274 L 31.139 3.874 L 29.439 4.274 L 29.139 4.274 C 29.089 4.274 29.064 4.299 29.039 4.324 C 29.014 4.349 28.989 4.374 28.939 4.374 L 26.939 6.474 L 27.139 10.574 C 27.139 11.174 26.839 11.774 26.439 12.274 L 23.239 15.674 L 15.739 23.474 L 12.239 27.074 C 10.839 28.474 11.239 29.174 11.739 29.674 L 11.939 29.874 C 12.139 30.074 12.539 30.274 12.839 30.274 C 13.439 30.174 14.039 29.774 14.439 29.274 L 17.939 25.574 L 25.439 17.774 L 28.639 14.374 C 29.039 13.874 29.739 13.574 30.339 13.574 L 34.339 13.474 C 34.382 13.474 34.406 13.474 34.428 13.466 C 34.457 13.456 34.482 13.431 34.539 13.374 L 36.439 11.474 C 36.539 11.374 36.539 11.274 36.539 11.174 Z M 23.239 27.174 L 28.439 21.474 L 33.239 26.574 C 34.539 27.874 34.139 30.574 33.039 31.674 C 32.239 32.474 31.139 32.974 30.039 32.974 C 29.339 32.974 28.639 32.674 28.139 32.174 L 23.239 27.174 Z M 30.239 30.374 C 30.639 30.274 30.939 30.174 31.239 29.874 C 31.639 29.374 31.739 28.674 31.239 28.074 L 28.439 25.074 L 26.639 27.074 L 28.439 28.974 L 29.539 30.074 C 29.739 30.274 29.939 30.374 30.239 30.374 Z" fill="currentColor" fill-rule="evenodd"/>
</svg>
