<svg xmlns="http://www.w3.org/2000/svg" width="31.920" height="32" viewBox="0 0 31.920 32" fill="none">
  <path d="M 2 8.15 C 2.53 8.15 3.039 8.36 3.414 8.735 C 3.789 9.11 4 9.62 4 10.15 L 4 28 L 21.81 28 C 22.34 28 22.85 28.211 23.225 28.586 C 23.6 28.961 23.81 29.47 23.81 30 C 23.81 30.53 23.6 31.039 23.225 31.414 C 22.85 31.789 22.34 32 21.81 32 L 2 32 C 1.47 32 0.961 31.789 0.586 31.414 C 0.211 31.039 0 30.53 0 30 L 0 10.15 C 0 9.62 0.211 9.11 0.586 8.735 C 0.961 8.36 1.47 8.15 2 8.15 Z M 29.92 0 C 30.45 0 30.959 0.211 31.334 0.586 C 31.709 0.961 31.92 1.47 31.92 2 L 31.92 21.85 C 31.92 22.38 31.709 22.89 31.334 23.265 C 30.959 23.64 30.45 23.85 29.92 23.85 C 29.39 23.85 28.881 23.64 28.506 23.265 C 28.131 22.89 27.92 22.38 27.92 21.85 L 27.92 4 L 10.12 4 C 9.59 4 9.081 3.789 8.706 3.414 C 8.331 3.039 8.12 2.53 8.12 2 C 8.12 1.47 8.331 0.961 8.706 0.586 C 9.081 0.211 9.59 0 10.12 0 L 29.92 0 Z" fill="currentColor" fill-rule="nonzero"/>
</svg>
