<svg xmlns="http://www.w3.org/2000/svg" width="32.000" height="40" viewBox="0 0 32.000 40" fill="none">
  <path d="M 5.09 6.66 L 5.09 11.13 L 26.91 11.13 L 26.91 6.66 L 27.84 6.66 C 28.389 6.66 28.933 6.769 29.44 6.979 C 29.946 7.19 30.406 7.499 30.792 7.889 C 31.179 8.278 31.485 8.741 31.692 9.249 C 31.9 9.757 32.004 10.301 32 10.85 L 32 35.85 C 31.997 36.951 31.558 38.007 30.778 38.785 C 29.999 39.563 28.942 40 27.84 40 L 4.16 40 C 3.612 40 3.068 39.892 2.562 39.681 C 2.055 39.47 1.595 39.16 1.208 38.771 C 0.822 38.381 0.516 37.919 0.309 37.411 C 0.101 36.903 -0.004 36.358 0 35.81 L 0 10.81 C 0.003 9.708 0.442 8.653 1.222 7.875 C 2.002 7.097 3.059 6.66 4.16 6.66 L 5.09 6.66 Z M 8.005 30.482 C 7.592 30.311 7.138 30.266 6.699 30.354 C 6.261 30.441 5.858 30.656 5.542 30.972 C 5.226 31.288 5.011 31.691 4.924 32.129 C 4.837 32.567 4.881 33.022 5.052 33.435 C 5.223 33.848 5.513 34.201 5.885 34.449 C 6.256 34.697 6.693 34.83 7.14 34.83 C 7.739 34.83 8.315 34.592 8.738 34.168 C 9.162 33.744 9.4 33.17 9.4 32.57 C 9.4 32.123 9.268 31.686 9.02 31.314 C 8.771 30.943 8.418 30.653 8.005 30.482 Z M 13.49 31.28 C 13.148 31.28 12.82 31.416 12.578 31.658 C 12.336 31.9 12.2 32.228 12.2 32.57 C 12.2 32.912 12.336 33.241 12.578 33.482 C 12.82 33.724 13.148 33.86 13.49 33.86 L 20.12 33.86 C 20.462 33.86 20.79 33.724 21.032 33.482 C 21.274 33.241 21.41 32.912 21.41 32.57 C 21.41 32.228 21.274 31.9 21.032 31.658 C 20.79 31.416 20.462 31.28 20.12 31.28 L 13.49 31.28 Z M 8.005 22.912 C 7.592 22.741 7.138 22.696 6.699 22.783 C 6.261 22.87 5.858 23.086 5.542 23.402 C 5.226 23.718 5.011 24.121 4.924 24.56 C 4.837 24.998 4.881 25.452 5.052 25.865 C 5.223 26.278 5.513 26.631 5.885 26.879 C 6.256 27.127 6.693 27.26 7.14 27.26 C 7.739 27.26 8.315 27.021 8.738 26.598 C 9.162 26.174 9.4 25.599 9.4 25 C 9.4 24.553 9.268 24.116 9.02 23.744 C 8.771 23.373 8.418 23.083 8.005 22.912 Z M 25.83 23.71 L 13.49 23.71 C 13.312 23.694 13.132 23.716 12.963 23.773 C 12.793 23.831 12.638 23.923 12.506 24.044 C 12.374 24.165 12.269 24.312 12.196 24.476 C 12.124 24.639 12.087 24.816 12.087 24.995 C 12.087 25.174 12.124 25.351 12.196 25.515 C 12.269 25.678 12.374 25.825 12.506 25.946 C 12.638 26.067 12.794 26.159 12.963 26.217 C 13.132 26.274 13.312 26.296 13.49 26.28 L 25.83 26.28 C 26.008 26.296 26.188 26.274 26.358 26.217 C 26.527 26.159 26.683 26.067 26.815 25.946 C 26.947 25.825 27.052 25.678 27.124 25.515 C 27.196 25.351 27.233 25.174 27.234 24.995 C 27.234 24.816 27.196 24.639 27.124 24.476 C 27.052 24.312 26.947 24.165 26.815 24.044 C 26.683 23.923 26.527 23.831 26.358 23.773 C 26.188 23.716 26.008 23.694 25.83 23.71 Z M 8.005 15.332 C 7.592 15.161 7.138 15.116 6.699 15.203 C 6.261 15.29 5.858 15.506 5.542 15.822 C 5.226 16.138 5.011 16.541 4.924 16.979 C 4.837 17.418 4.881 17.872 5.052 18.285 C 5.223 18.698 5.513 19.051 5.885 19.299 C 6.256 19.547 6.693 19.68 7.14 19.68 C 7.739 19.68 8.315 19.441 8.738 19.018 C 9.162 18.594 9.4 18.019 9.4 17.42 C 9.4 16.973 9.268 16.536 9.02 16.164 C 8.771 15.792 8.418 15.503 8.005 15.332 Z M 13.49 16.13 C 13.148 16.13 12.82 16.266 12.578 16.508 C 12.336 16.75 12.2 17.078 12.2 17.42 C 12.2 17.762 12.336 18.09 12.578 18.332 C 12.82 18.574 13.148 18.71 13.49 18.71 L 23.71 18.71 C 24.052 18.71 24.38 18.574 24.622 18.332 C 24.864 18.09 25 17.762 25 17.42 C 25 17.078 24.864 16.75 24.622 16.508 C 24.38 16.266 24.052 16.13 23.71 16.13 L 13.49 16.13 Z M 16 0 C 17.9 0 18.44 1.25 18.79 2.38 L 18.91 2.75 C 19.22 3.61 20.55 4 21.5 4 C 21.979 4.024 22.456 4.074 22.93 4.15 L 23.2 4.2 C 23.514 4.246 23.822 4.322 24.12 4.43 C 24.537 4.56 24.897 4.831 25.139 5.194 C 25.381 5.558 25.491 5.995 25.45 6.43 L 25.45 9.61 L 6.55 9.61 L 6.55 6.37 C 6.51 5.934 6.621 5.496 6.865 5.132 C 7.109 4.768 7.471 4.499 7.89 4.37 C 8.184 4.259 8.489 4.178 8.8 4.13 L 9.15 4.07 C 9.599 4.024 10.049 4.001 10.5 4 C 11.45 4 12.78 3.64 13.08 2.77 C 13.11 2.67 13.18 2.57 13.18 2.46 C 13.55 1.25 14.1 0 16 0 Z" fill="currentColor" fill-rule="nonzero"/>
</svg>
