<svg xmlns="http://www.w3.org/2000/svg" width="40" height="31.850" viewBox="0 0 40 31.850" fill="none">
  <path d="M 17.81 0.01 L 21.81 0.01 L 21.79 0 C 23.302 -0.005 24.759 0.561 25.872 1.584 C 26.984 2.608 27.669 4.013 27.79 5.52 L 35 5.52 C 36.326 5.52 37.598 6.047 38.536 6.984 C 39.473 7.922 40 9.194 40 10.52 L 40 26.85 C 40 28.176 39.473 29.448 38.536 30.386 C 37.598 31.323 36.326 31.85 35 31.85 L 5 31.85 C 3.674 31.85 2.402 31.323 1.464 30.386 C 0.527 29.448 0 28.176 0 26.85 L 0 10.53 C 0 9.204 0.527 7.932 1.464 6.994 C 2.402 6.057 3.674 5.53 5 5.53 L 11.81 5.53 C 11.931 4.023 12.616 2.618 13.728 1.594 C 14.841 0.571 16.298 0.005 17.81 0.01 Z M 15.873 3.729 C 15.333 4.19 14.974 4.829 14.86 5.53 L 24.81 5.53 C 24.695 4.82 24.329 4.175 23.778 3.713 C 23.228 3.25 22.529 3.001 21.81 3.01 L 17.81 3.01 C 17.1 3.013 16.413 3.267 15.873 3.729 Z M 18.12 16.8 L 15.12 16.8 L 15.11 16.78 C 14.631 16.815 14.183 17.03 13.856 17.381 C 13.529 17.733 13.348 18.195 13.348 18.675 C 13.348 19.155 13.529 19.617 13.856 19.969 C 14.183 20.32 14.631 20.535 15.11 20.57 L 18.11 20.57 L 18.11 23.57 C 18.11 23.818 18.159 24.064 18.254 24.293 C 18.349 24.523 18.488 24.731 18.664 24.906 C 18.839 25.082 19.047 25.221 19.277 25.316 C 19.506 25.411 19.752 25.46 20 25.46 C 20.247 25.461 20.492 25.414 20.72 25.321 C 20.949 25.227 21.157 25.09 21.332 24.916 C 21.508 24.743 21.647 24.536 21.743 24.309 C 21.839 24.081 21.889 23.837 21.89 23.59 L 21.89 20.59 L 24.89 20.59 C 25.139 20.591 25.386 20.542 25.617 20.445 C 25.847 20.349 26.055 20.208 26.23 20.03 C 26.491 19.764 26.668 19.427 26.739 19.061 C 26.809 18.695 26.771 18.316 26.628 17.972 C 26.485 17.628 26.244 17.333 25.935 17.125 C 25.626 16.916 25.263 16.803 24.89 16.8 L 21.89 16.8 L 21.89 13.8 C 21.89 13.299 21.691 12.818 21.336 12.464 C 20.982 12.109 20.501 11.91 20 11.91 C 19.5 11.913 19.022 12.113 18.67 12.467 C 18.318 12.821 18.12 13.3 18.12 13.8 L 18.12 16.8 Z" fill="currentColor" fill-rule="evenodd"/>
</svg>
