<svg xmlns="http://www.w3.org/2000/svg" width="29.589" height="39.900" viewBox="0 0 29.589 39.900" fill="none">
  <path d="M 29.425 16.16 C 29.279 15.845 29.046 15.578 28.754 15.39 C 28.462 15.203 28.122 15.102 27.775 15.1 L 18.305 15.1 L 22.115 2.34 C 22.237 1.946 22.219 1.521 22.064 1.138 C 21.909 0.756 21.627 0.438 21.265 0.24 C 20.992 0.081 20.681 -0.002 20.365 0 C 20.111 0.001 19.859 0.055 19.627 0.159 C 19.395 0.262 19.186 0.412 19.015 0.6 L 0.435 21.19 C 0.212 21.452 0.067 21.771 0.019 22.111 C -0.03 22.452 0.018 22.799 0.158 23.113 C 0.298 23.427 0.525 23.695 0.811 23.885 C 1.097 24.076 1.431 24.182 1.775 24.19 L 10.855 24.19 L 7.855 37.71 C 7.773 38.107 7.828 38.52 8.009 38.883 C 8.19 39.246 8.488 39.537 8.855 39.71 C 9.107 39.833 9.384 39.898 9.665 39.9 C 9.929 39.9 10.19 39.843 10.43 39.732 C 10.67 39.622 10.883 39.461 11.055 39.26 L 29.155 18.1 C 29.379 17.835 29.523 17.513 29.571 17.169 C 29.619 16.826 29.568 16.476 29.425 16.16 Z" fill="currentColor" fill-rule="nonzero"/>
</svg>
