<svg xmlns="http://www.w3.org/2000/svg" width="33.981" height="23.732" viewBox="0 0 33.981 23.732" fill="none">
  <path d="M 1.32 23.732 C 1.495 23.73 1.667 23.692 1.826 23.623 C 1.986 23.554 2.131 23.453 2.252 23.328 C 2.372 23.202 2.467 23.054 2.53 22.892 C 2.594 22.73 2.624 22.556 2.62 22.382 L 2.62 10.512 L 17 2.722 L 31.38 10.512 L 31.38 22.382 C 31.38 22.727 31.517 23.058 31.761 23.301 C 32.005 23.545 32.336 23.682 32.68 23.682 C 33.025 23.682 33.356 23.545 33.6 23.301 C 33.843 23.058 33.98 22.727 33.98 22.382 L 33.98 10.282 C 33.987 9.862 33.878 9.448 33.667 9.085 C 33.455 8.722 33.149 8.424 32.78 8.222 L 18.15 0.292 C 17.799 0.1 17.405 0 17.005 0 C 16.605 0 16.212 0.1 15.86 0.292 L 1.23 8.222 C 0.856 8.42 0.544 8.717 0.327 9.08 C 0.11 9.443 -0.003 9.859 0 10.282 L 0 22.382 C -0.004 22.558 0.028 22.733 0.092 22.896 C 0.157 23.06 0.253 23.209 0.376 23.335 C 0.499 23.461 0.646 23.561 0.808 23.629 C 0.97 23.697 1.144 23.732 1.32 23.732 Z" fill="currentColor" fill-rule="nonzero"/>
</svg>
