<svg xmlns="http://www.w3.org/2000/svg" width="39.994" height="29.396" viewBox="0 0 39.994 29.396" fill="none">
  <path d="M 13.103 29.396 C 12.775 29.397 12.449 29.333 12.145 29.208 C 11.841 29.082 11.565 28.898 11.333 28.666 L 0.733 18.066 C 0.264 17.596 0 16.96 0 16.296 C 0 15.632 0.264 14.995 0.733 14.526 C 1.203 14.056 1.839 13.793 2.503 13.793 C 3.167 13.793 3.804 14.056 4.273 14.526 L 13.103 23.366 L 35.693 0.766 C 35.923 0.527 36.199 0.336 36.504 0.204 C 36.809 0.073 37.137 0.003 37.469 0 C 37.8 -0.003 38.13 0.06 38.437 0.185 C 38.745 0.31 39.024 0.495 39.259 0.73 C 39.494 0.964 39.68 1.243 39.806 1.55 C 39.932 1.857 39.996 2.186 39.994 2.518 C 39.991 2.85 39.923 3.178 39.792 3.483 C 39.662 3.789 39.472 4.065 39.233 4.296 L 14.873 28.666 C 14.641 28.898 14.365 29.082 14.061 29.208 C 13.757 29.333 13.432 29.397 13.103 29.396 Z" fill="currentColor" fill-rule="nonzero"/>
</svg>
