<svg xmlns="http://www.w3.org/2000/svg" width="36" height="40.050" viewBox="0 0 36 40.050" fill="none">
  <path d="M 16.61 31.19 C 16.983 31.55 17.481 31.752 18 31.752 C 18.519 31.752 19.017 31.55 19.39 31.19 L 33.13 17.44 C 33.378 17.277 33.587 17.06 33.741 16.807 C 33.895 16.553 33.99 16.268 34.021 15.972 C 34.051 15.677 34.015 15.378 33.915 15.099 C 33.816 14.819 33.655 14.565 33.445 14.355 C 33.235 14.145 32.981 13.984 32.701 13.885 C 32.422 13.785 32.123 13.749 31.828 13.779 C 31.532 13.81 31.247 13.905 30.993 14.059 C 30.74 14.213 30.523 14.422 30.36 14.67 L 20 25.06 L 20 2 C 20 1.47 19.789 0.961 19.414 0.586 C 19.039 0.211 18.53 0 18 0 C 17.47 0 16.961 0.211 16.586 0.586 C 16.211 0.961 16 1.47 16 2 L 16 25 L 5.64 14.67 C 5.477 14.422 5.26 14.213 5.007 14.059 C 4.753 13.905 4.468 13.81 4.172 13.779 C 3.877 13.749 3.578 13.785 3.299 13.885 C 3.019 13.984 2.765 14.145 2.555 14.355 C 2.345 14.565 2.184 14.819 2.085 15.099 C 1.985 15.378 1.949 15.677 1.979 15.972 C 2.01 16.268 2.105 16.553 2.259 16.807 C 2.413 17.06 2.622 17.277 2.87 17.44 L 16.61 31.19 Z M 34 36.05 L 2 36.05 C 1.47 36.05 0.961 36.261 0.586 36.636 C 0.211 37.011 0 37.52 0 38.05 C 0 38.58 0.211 39.089 0.586 39.464 C 0.961 39.839 1.47 40.05 2 40.05 L 34 40.05 C 34.53 40.05 35.039 39.839 35.414 39.464 C 35.789 39.089 36 38.58 36 38.05 C 36 37.52 35.789 37.011 35.414 36.636 C 35.039 36.261 34.53 36.05 34 36.05 Z" fill="currentColor" fill-rule="nonzero"/>
</svg>
