<svg xmlns="http://www.w3.org/2000/svg" width="39.907" height="29.993" viewBox="0 0 39.907 29.993" fill="none">
  <path d="M 39.382 12.373 L 20.832 0.233 C 20.604 0.081 20.336 0 20.062 0 C 19.788 0 19.52 0.081 19.292 0.233 L 0.662 12.393 C 0.5 12.494 0.361 12.627 0.252 12.784 C 0.143 12.941 0.067 13.118 0.029 13.305 C -0.01 13.492 -0.01 13.685 0.029 13.872 C 0.067 14.059 0.143 14.236 0.252 14.393 C 0.383 14.583 0.56 14.737 0.766 14.842 C 0.972 14.947 1.201 14.999 1.432 14.993 C 1.706 14.997 1.975 14.916 2.202 14.763 L 4.652 13.173 L 4.652 26.173 C 4.648 26.672 4.743 27.167 4.931 27.63 C 5.119 28.093 5.397 28.514 5.748 28.869 C 6.099 29.224 6.517 29.506 6.978 29.699 C 7.439 29.891 7.933 29.991 8.432 29.993 L 13.022 29.993 C 13.519 29.993 14.01 29.895 14.469 29.705 C 14.927 29.515 15.344 29.237 15.695 28.886 C 16.046 28.535 16.324 28.118 16.514 27.659 C 16.704 27.201 16.802 26.709 16.802 26.213 L 16.802 23.363 L 16.802 22.133 C 16.802 21.798 16.935 21.476 17.171 21.238 C 17.407 21 17.727 20.865 18.062 20.863 L 22.022 20.863 C 22.188 20.863 22.353 20.896 22.507 20.96 C 22.66 21.024 22.8 21.117 22.917 21.235 C 23.034 21.353 23.126 21.493 23.189 21.648 C 23.252 21.802 23.283 21.966 23.282 22.133 L 23.282 23.363 L 23.282 26.203 C 23.282 27.199 23.674 28.156 24.374 28.865 C 25.074 29.575 26.026 29.98 27.022 29.993 L 31.352 29.993 C 31.849 29.993 32.34 29.895 32.799 29.705 C 33.257 29.515 33.674 29.237 34.025 28.886 C 34.376 28.535 34.654 28.118 34.844 27.659 C 35.034 27.201 35.132 26.709 35.132 26.213 L 35.132 12.993 L 37.802 14.743 C 38.116 14.915 38.483 14.963 38.83 14.877 C 39.178 14.79 39.48 14.576 39.676 14.276 C 39.872 13.977 39.947 13.614 39.887 13.261 C 39.827 12.908 39.636 12.591 39.352 12.373 L 39.382 12.373 Z M 32.642 26.203 C 32.642 26.537 32.509 26.857 32.273 27.094 C 32.037 27.33 31.716 27.463 31.382 27.463 L 27.022 27.463 C 26.689 27.46 26.37 27.327 26.134 27.091 C 25.898 26.855 25.765 26.536 25.762 26.203 L 25.762 24.923 L 25.762 22.133 C 25.762 21.136 25.37 20.18 24.67 19.47 C 23.97 18.761 23.019 18.356 22.022 18.343 L 18.102 18.343 C 17.099 18.345 16.137 18.746 15.429 19.456 C 14.72 20.167 14.322 21.129 14.322 22.133 L 14.322 24.813 L 14.322 26.203 C 14.322 26.372 14.288 26.539 14.223 26.694 C 14.157 26.85 14.06 26.991 13.939 27.108 C 13.818 27.226 13.674 27.318 13.517 27.379 C 13.359 27.439 13.191 27.468 13.022 27.463 L 8.432 27.463 C 8.099 27.46 7.78 27.327 7.544 27.091 C 7.308 26.855 7.175 26.536 7.172 26.203 L 7.172 11.513 L 20.022 3.103 L 32.602 11.343 L 32.642 26.203 Z" fill="currentColor" fill-rule="nonzero"/>
</svg>
