<svg xmlns="http://www.w3.org/2000/svg" width="40" height="40.000" viewBox="0 0 40 40.000" fill="none">
  <path d="M 20 0 C 14.696 0 9.609 2.107 5.858 5.858 C 2.107 9.609 0 14.696 0 20 C 0 25.304 2.107 30.391 5.858 34.142 C 9.609 37.893 14.696 40 20 40 C 24.207 40.014 28.309 38.687 31.71 36.21 L 32.22 35.86 L 27.75 35.86 L 27.66 35.86 C 25.287 37.014 22.679 37.606 20.04 37.59 C 16.549 37.6 13.134 36.573 10.228 34.64 C 7.321 32.707 5.053 29.955 3.713 26.732 C 2.372 23.509 2.018 19.961 2.696 16.537 C 3.373 13.112 5.053 9.966 7.52 7.497 C 9.988 5.028 13.133 3.347 16.557 2.668 C 19.981 1.988 23.529 2.34 26.753 3.679 C 29.977 5.018 32.73 7.284 34.665 10.189 C 36.599 13.095 37.628 16.509 37.62 20 C 37.627 22.69 37.026 25.346 35.86 27.77 L 29.26 27.77 L 21.86 20 L 31.7 9.66 L 28.04 9.66 L 20.04 18.07 L 12.04 9.66 L 8.3 9.66 L 18.17 20 L 8.3 30.36 L 11.98 30.36 L 19.98 21.93 L 25.55 27.77 L 28.04 30.36 L 37.13 30.36 L 37.19 30.25 C 37.41 29.9 37.6 29.52 37.79 29.14 L 37.95 28.82 C 38.08 28.58 38.19 28.3 38.3 28.06 L 38.44 27.79 C 39.463 25.32 39.993 22.674 40 20 C 40 17.374 39.483 14.773 38.478 12.346 C 37.472 9.92 35.999 7.715 34.142 5.858 C 32.285 4.001 30.08 2.528 27.654 1.522 C 25.227 0.517 22.626 0 20 0 Z" fill="currentColor" fill-rule="nonzero"/>
</svg>
