<svg xmlns="http://www.w3.org/2000/svg" width="32" height="35.963" viewBox="0 0 32 35.963" fill="none">
  <path d="M 25.9 12.363 C 26.4 12.863 27.3 12.863 27.8 12.363 C 28.3 11.863 28.3 10.963 27.8 10.463 L 17.7 0.363 C 17.2 -0.137 16.3 -0.137 15.8 0.463 C 15.3 0.963 15.3 1.763 15.8 2.263 L 25.9 12.363 Z M 13.2 22.963 C 13.6 23.263 14.1 23.263 14.5 22.863 C 14.7 22.563 14.8 22.263 14.7 21.963 L 17.4 19.263 L 27.8 29.663 C 28.6 30.463 29.9 30.463 30.6 29.663 C 31.3 28.863 31.4 27.563 30.6 26.863 L 20.2 16.363 L 22.9 13.663 C 23.2 13.863 23.7 13.763 23.9 13.563 C 24.2 13.163 24.2 12.663 23.9 12.263 L 15.9 4.263 C 15.5 3.963 15 3.963 14.6 4.363 C 14.4 4.663 14.3 4.963 14.4 5.263 L 6.2 13.463 C 5.7 13.263 5.2 13.463 5 13.963 C 4.9 14.263 4.9 14.663 5.2 14.963 L 13.2 22.963 Z M 31.4 34.763 L 29.7 34.763 C 29.4 33.863 28.6 33.263 27.7 33.263 L 4.3 33.263 C 3.4 33.263 2.5 33.863 2.2 34.763 L 0.6 34.763 C 0.3 34.763 0 34.963 0 35.363 C 0 35.663 0.3 35.963 0.6 35.963 L 31.4 35.963 C 31.7 35.963 32 35.663 32 35.363 C 32 34.963 31.7 34.763 31.4 34.763 Z M 11.4 26.763 C 12 27.263 12.8 27.163 13.3 26.663 C 13.7 26.163 13.7 25.463 13.3 24.963 L 3.2 14.863 C 2.7 14.363 1.9 14.263 1.3 14.763 C 0.8 15.263 0.7 16.063 1.2 16.663 C 1.2 16.663 1.2 16.663 1.3 16.763 L 11.4 26.763 Z" fill="currentColor" fill-rule="nonzero"/>
</svg>
