<svg xmlns="http://www.w3.org/2000/svg" width="34.511" height="34.514" viewBox="0 0 34.511 34.514" fill="none">
  <path d="M 34.101 0.41 C 33.903 0.213 33.651 0.079 33.376 0.026 C 33.102 -0.027 32.818 0.002 32.561 0.11 L 1.281 12.02 C 0.081 12.46 -0.789 14.29 1.101 14.96 C 1.801 15.2 10.931 18.42 11.801 18.69 C 12.203 18.897 12.649 19.005 13.101 19.005 C 13.553 19.005 13.999 18.897 14.401 18.69 L 16.461 17.46 C 16.721 17.31 17.031 17 17.281 17.26 C 17.531 17.52 17.281 17.82 17.081 18.09 L 15.851 20.12 C 15.646 20.523 15.54 20.968 15.54 21.42 C 15.54 21.872 15.646 22.317 15.851 22.72 C 16.131 23.58 19.341 32.72 19.591 33.42 C 20.251 35.31 22.081 34.42 22.531 33.23 C 23.041 31.84 34.041 2.91 34.401 1.95 C 34.509 1.692 34.538 1.409 34.485 1.134 C 34.431 0.86 34.298 0.608 34.101 0.41 Z M 31.231 3.62 C 31.161 3.82 21.561 29.29 21.501 29.43 C 21.441 29.57 21.321 29.76 21.141 29.75 C 20.961 29.74 20.841 29.62 20.751 29.39 C 20.661 29.16 18.131 21.79 18.071 21.62 C 18.017 21.544 17.988 21.453 17.988 21.36 C 17.988 21.267 18.017 21.176 18.071 21.1 C 18.231 20.83 22.331 13.91 22.421 13.74 C 22.573 13.507 22.648 13.232 22.635 12.954 C 22.623 12.676 22.523 12.409 22.351 12.19 C 22.136 12.013 21.872 11.906 21.595 11.884 C 21.317 11.863 21.04 11.928 20.801 12.07 L 13.411 16.42 C 13.131 16.59 13.071 16.51 12.891 16.42 C 12.711 16.33 5.351 13.84 5.121 13.76 C 5.031 13.74 4.948 13.693 4.886 13.625 C 4.823 13.557 4.783 13.472 4.771 13.38 C 4.771 13.2 4.941 13.08 5.081 13.02 L 30.901 3.28 C 30.948 3.252 31.001 3.237 31.056 3.237 C 31.11 3.237 31.164 3.252 31.211 3.28 C 31.246 3.329 31.266 3.387 31.27 3.447 C 31.273 3.507 31.26 3.567 31.231 3.62 Z" fill="currentColor" fill-rule="nonzero"/>
</svg>
