<svg xmlns="http://www.w3.org/2000/svg" width="36" height="32" viewBox="0 0 36 32" fill="none">
  <path d="M 27.2 7 C 27.426 6.992 27.645 6.918 27.83 6.787 C 28.015 6.656 28.157 6.474 28.24 6.264 C 28.322 6.053 28.341 5.822 28.295 5.601 C 28.248 5.379 28.137 5.176 27.976 5.017 C 27.816 4.858 27.612 4.749 27.39 4.704 C 27.168 4.659 26.938 4.68 26.728 4.764 C 26.518 4.848 26.337 4.992 26.207 5.178 C 26.078 5.364 26.006 5.584 26 5.81 C 25.996 5.968 26.024 6.126 26.083 6.273 C 26.142 6.42 26.23 6.553 26.343 6.664 C 26.455 6.776 26.589 6.863 26.737 6.921 C 26.884 6.979 27.042 7.006 27.2 7 Z M 8.79 7 C 9.02 7.002 9.245 6.936 9.437 6.809 C 9.629 6.683 9.779 6.503 9.869 6.291 C 9.958 6.079 9.983 5.846 9.939 5.62 C 9.895 5.394 9.786 5.187 9.624 5.023 C 9.462 4.86 9.255 4.749 9.03 4.703 C 8.805 4.658 8.571 4.68 8.358 4.767 C 8.146 4.855 7.964 5.004 7.836 5.195 C 7.708 5.385 7.64 5.61 7.64 5.84 C 7.64 6.146 7.761 6.439 7.976 6.657 C 8.192 6.874 8.484 6.997 8.79 7 Z M 32 0 L 28.28 0 L 28.28 3 C 28.934 3.251 29.48 3.723 29.822 4.335 C 30.165 4.946 30.282 5.658 30.155 6.347 C 30.027 7.037 29.662 7.659 29.123 8.107 C 28.585 8.555 27.906 8.801 27.205 8.801 C 26.504 8.801 25.825 8.555 25.287 8.107 C 24.748 7.659 24.383 7.037 24.255 6.347 C 24.128 5.658 24.245 4.946 24.588 4.335 C 24.93 3.723 25.476 3.251 26.13 3 L 26.13 0 L 9.87 0 L 9.87 3 C 10.524 3.251 11.07 3.723 11.412 4.335 C 11.755 4.946 11.872 5.658 11.745 6.347 C 11.617 7.037 11.252 7.659 10.713 8.107 C 10.175 8.555 9.496 8.801 8.795 8.801 C 8.094 8.801 7.415 8.555 6.877 8.107 C 6.338 7.659 5.973 7.037 5.845 6.347 C 5.718 5.658 5.835 4.946 6.178 4.335 C 6.52 3.723 7.066 3.251 7.72 3 L 7.72 0 L 4 0 C 2.939 0 1.922 0.421 1.172 1.172 C 0.421 1.922 0 2.939 0 4 L 0 28 C 0 29.061 0.421 30.078 1.172 30.828 C 1.922 31.579 2.939 32 4 32 L 32 32 C 33.061 32 34.078 31.579 34.828 30.828 C 35.579 30.078 36 29.061 36 28 L 36 4 C 36 2.939 35.579 1.922 34.828 1.172 C 34.078 0.421 33.061 0 32 0 Z M 33.5 28 C 33.5 28.398 33.342 28.779 33.061 29.061 C 32.779 29.342 32.398 29.5 32 29.5 L 4 29.5 C 3.602 29.5 3.221 29.342 2.939 29.061 C 2.658 28.779 2.5 28.398 2.5 28 L 2.5 13.46 L 33.5 13.46 L 33.5 28 Z" fill="currentColor" fill-rule="nonzero"/>
</svg>
