<svg xmlns="http://www.w3.org/2000/svg" width="18.460" height="40" viewBox="0 0 18.460 40" fill="none">
  <path d="M 2.4 0 C 1.764 0.003 1.155 0.256 0.706 0.706 C 0.256 1.155 0.003 1.764 0 2.4 L 0 37.6 C 0.003 38.236 0.256 38.845 0.706 39.294 C 1.155 39.744 1.764 39.997 2.4 40 L 16.06 40 C 16.696 39.997 17.305 39.744 17.754 39.294 C 18.204 38.845 18.457 38.236 18.46 37.6 L 18.46 31.31 C 18.46 31.217 18.423 31.128 18.357 31.063 C 18.292 30.997 18.203 30.96 18.11 30.96 L 11.98 30.96 C 11.59 30.96 11.216 30.805 10.941 30.529 C 10.665 30.254 10.51 29.88 10.51 29.49 C 10.51 29.1 10.665 28.726 10.941 28.451 C 11.216 28.175 11.59 28.02 11.98 28.02 L 18.11 28.02 C 18.201 28.02 18.289 27.985 18.354 27.921 C 18.419 27.858 18.457 27.771 18.46 27.68 L 18.46 21.81 C 18.46 21.764 18.451 21.719 18.433 21.676 C 18.416 21.634 18.39 21.595 18.357 21.563 C 18.325 21.53 18.286 21.504 18.244 21.487 C 18.201 21.469 18.156 21.46 18.11 21.46 L 8.03 21.46 C 7.827 21.477 7.624 21.451 7.431 21.385 C 7.239 21.319 7.063 21.214 6.913 21.076 C 6.764 20.939 6.644 20.772 6.563 20.585 C 6.481 20.399 6.439 20.198 6.439 19.995 C 6.439 19.792 6.481 19.591 6.563 19.405 C 6.644 19.218 6.764 19.051 6.913 18.914 C 7.063 18.776 7.239 18.671 7.431 18.605 C 7.624 18.539 7.827 18.513 8.03 18.53 L 18.11 18.53 C 18.156 18.53 18.201 18.521 18.244 18.503 C 18.286 18.486 18.325 18.46 18.357 18.427 C 18.39 18.395 18.416 18.356 18.433 18.314 C 18.451 18.271 18.46 18.226 18.46 18.18 L 18.46 12.1 C 18.46 12.007 18.423 11.918 18.357 11.853 C 18.292 11.787 18.203 11.75 18.11 11.75 L 11.98 11.75 C 11.59 11.75 11.216 11.595 10.941 11.319 C 10.665 11.044 10.51 10.67 10.51 10.28 C 10.51 9.89 10.665 9.516 10.941 9.241 C 11.216 8.965 11.59 8.81 11.98 8.81 L 18.11 8.81 C 18.201 8.81 18.289 8.775 18.354 8.711 C 18.419 8.648 18.457 8.561 18.46 8.47 L 18.46 2.4 C 18.457 1.764 18.204 1.155 17.754 0.706 C 17.305 0.256 16.696 0.003 16.06 0 L 2.4 0 Z" fill="currentColor" fill-rule="nonzero"/>
</svg>
