<svg xmlns="http://www.w3.org/2000/svg" width="36.000" height="34.836" viewBox="0 0 36.000 34.836" fill="none">
  <path d="M 36 29.033 C 35.977 29.706 35.82 30.368 35.541 30.981 C 35.261 31.593 34.863 32.145 34.37 32.603 C 31.66 35.463 28.1 35.063 24.64 34.203 L 24.52 34.203 C 21.24 33.063 17.02 31.093 10.64 25.103 C 5.47 20.143 1.53 14.353 0.37 9.963 C 0.265 9.62 0.184 9.269 0.13 8.913 C 0.041 8.499 -0.003 8.077 0 7.653 L 0 7.433 C 0.018 6.971 0.082 6.513 0.19 6.063 C 0.489 4.531 1.229 3.12 2.32 2.003 C 2.804 1.414 3.405 0.933 4.085 0.588 C 4.765 0.244 5.509 0.045 6.27 0.003 C 8.27 -0.067 10.27 1.003 12.56 3.143 C 14.85 5.283 16 7.433 16 9.433 L 16 9.603 C 15.929 11.021 15.325 12.361 14.31 13.353 C 13.803 13.864 13.243 14.32 12.64 14.713 C 12.586 14.749 12.54 14.797 12.506 14.852 C 12.471 14.907 12.449 14.969 12.44 15.033 L 12.44 15.093 C 12.44 15.2 12.479 15.303 12.55 15.383 C 13.71 16.758 14.941 18.07 16.24 19.313 C 17.604 20.649 19.054 21.895 20.58 23.043 C 20.633 23.08 20.694 23.107 20.757 23.12 C 20.821 23.134 20.886 23.135 20.95 23.123 C 21.014 23.11 21.074 23.082 21.126 23.042 C 21.178 23.002 21.22 22.951 21.25 22.893 C 21.583 22.308 21.994 21.77 22.47 21.293 C 23.062 20.591 23.832 20.059 24.699 19.755 C 25.566 19.451 26.499 19.385 27.4 19.563 L 27.55 19.563 C 29.41 20.178 31.097 21.227 32.47 22.623 C 33.976 23.911 35.121 25.568 35.79 27.433 C 35.929 27.901 35.999 28.386 36 28.873 L 36 29.033 Z" fill="currentColor" fill-rule="nonzero"/>
</svg>
