<svg xmlns="http://www.w3.org/2000/svg" width="40" height="40" viewBox="0 0 40 40" fill="none">
  <path d="M 34.149 5.865 C 31.353 3.066 27.789 1.159 23.909 0.386 C 20.029 -0.388 16.007 0.007 12.351 1.52 C 8.695 3.034 5.571 5.597 3.372 8.887 C 1.173 12.176 0 16.044 0 20 C 0 23.956 1.173 27.824 3.372 31.114 C 5.571 34.403 8.695 36.966 12.351 38.48 C 16.007 39.993 20.029 40.388 23.909 39.614 C 27.789 38.841 31.353 36.934 34.149 34.135 C 37.896 30.385 40 25.301 40 20 C 40 14.699 37.896 9.615 34.149 5.865 Z M 25.779 23.865 C 25.922 23.975 26.039 24.114 26.124 24.273 C 26.208 24.432 26.257 24.608 26.268 24.787 C 26.279 24.967 26.251 25.147 26.187 25.315 C 26.122 25.483 26.022 25.636 25.894 25.762 C 25.765 25.888 25.611 25.985 25.442 26.047 C 25.273 26.109 25.093 26.133 24.913 26.119 C 24.734 26.106 24.559 26.053 24.402 25.966 C 24.244 25.879 24.107 25.76 23.999 25.615 L 20.069 21.695 L 16.149 25.615 C 15.917 25.835 15.609 25.958 15.289 25.958 C 14.969 25.958 14.661 25.835 14.429 25.615 C 14.188 25.385 14.046 25.07 14.035 24.737 C 14.024 24.404 14.144 24.08 14.369 23.835 L 18.299 19.915 L 14.369 16.005 C 14.243 15.89 14.142 15.751 14.071 15.596 C 14.001 15.441 13.962 15.273 13.958 15.103 C 13.954 14.933 13.985 14.763 14.048 14.605 C 14.112 14.447 14.207 14.303 14.327 14.183 C 14.448 14.062 14.591 13.968 14.749 13.904 C 14.908 13.841 15.077 13.81 15.247 13.814 C 15.418 13.818 15.585 13.857 15.74 13.927 C 15.895 13.998 16.034 14.099 16.149 14.225 L 20.069 18.145 L 23.999 14.225 C 24.245 14.007 24.561 13.887 24.889 13.887 C 25.217 13.887 25.534 14.007 25.779 14.225 L 25.849 14.285 C 25.958 14.402 26.043 14.54 26.099 14.69 C 26.155 14.84 26.18 15 26.174 15.16 C 26.167 15.32 26.129 15.477 26.061 15.622 C 25.993 15.767 25.898 15.897 25.779 16.005 L 21.849 19.935 L 25.779 23.865 Z" fill="currentColor" fill-rule="nonzero"/>
</svg>
