<svg xmlns="http://www.w3.org/2000/svg" width="39.907" height="29.993" viewBox="0 0 39.907 29.993" fill="none">
  <path d="M 39.382 12.373 L 20.832 0.233 C 20.604 0.081 20.336 0 20.062 0 C 19.788 0 19.52 0.081 19.292 0.233 L 0.662 12.393 C 0.5 12.494 0.361 12.627 0.252 12.784 C 0.143 12.941 0.067 13.118 0.029 13.305 C -0.01 13.492 -0.01 13.685 0.029 13.872 C 0.067 14.059 0.143 14.236 0.252 14.393 C 0.383 14.583 0.56 14.737 0.766 14.842 C 0.972 14.947 1.201 14.999 1.432 14.993 C 1.706 14.997 1.975 14.916 2.202 14.763 L 4.652 13.173 L 4.652 26.173 C 4.648 26.672 4.743 27.167 4.931 27.63 C 5.119 28.093 5.397 28.514 5.748 28.869 C 6.099 29.224 6.517 29.506 6.978 29.699 C 7.439 29.891 7.933 29.991 8.432 29.993 L 12.022 29.993 C 12.519 29.993 13.01 29.895 13.469 29.705 C 13.927 29.515 14.344 29.237 14.695 28.886 C 15.046 28.535 15.324 28.118 15.514 27.659 C 15.704 27.201 15.802 26.709 15.802 26.213 L 15.802 23.363 L 15.802 22.133 C 15.802 21.798 15.935 21.476 16.171 21.238 C 16.407 21 16.727 20.865 17.062 20.863 L 23.022 20.863 C 23.188 20.863 23.353 20.896 23.507 20.96 C 23.66 21.024 23.8 21.117 23.917 21.235 C 24.034 21.353 24.126 21.493 24.189 21.648 C 24.252 21.802 24.283 21.966 24.282 22.133 L 24.282 23.363 L 24.282 26.203 C 24.282 27.199 24.674 28.156 25.374 28.865 C 26.074 29.575 27.026 29.98 28.022 29.993 L 31.352 29.993 C 31.849 29.993 32.34 29.895 32.799 29.705 C 33.257 29.515 33.674 29.237 34.025 28.886 C 34.376 28.535 34.654 28.118 34.844 27.659 C 35.034 27.201 35.132 26.709 35.132 26.213 L 35.132 12.993 L 37.802 14.743 C 38.116 14.915 38.483 14.963 38.83 14.877 C 39.178 14.79 39.48 14.576 39.676 14.276 C 39.872 13.977 39.947 13.614 39.887 13.261 C 39.827 12.908 39.636 12.591 39.352 12.373 L 39.382 12.373 Z" fill="currentColor" fill-rule="nonzero"/>
</svg>
