<svg xmlns="http://www.w3.org/2000/svg" width="36" height="32" viewBox="0 0 36 32" fill="none">
  <path d="M 32 0 C 33.061 0 34.078 0.422 34.828 1.172 C 35.578 1.922 36 2.939 36 4 L 36 28 C 36 29.061 35.578 30.078 34.828 30.828 C 34.078 31.578 33.061 32 32 32 L 6.33 32 C 5.269 32 4.252 31.578 3.502 30.828 C 2.752 30.078 2.33 29.061 2.33 28 L 2.33 26.24 L 1.25 26.24 C 0.919 26.24 0.601 26.108 0.366 25.874 C 0.132 25.64 0 25.322 0 24.99 C 0 24.659 0.132 24.341 0.366 24.106 C 0.601 23.872 0.918 23.74 1.25 23.74 L 6.48 23.74 C 6.654 23.756 6.83 23.735 6.995 23.679 C 7.161 23.623 7.313 23.533 7.442 23.415 C 7.571 23.297 7.675 23.153 7.745 22.993 C 7.816 22.833 7.852 22.66 7.853 22.485 C 7.853 22.31 7.816 22.137 7.745 21.977 C 7.675 21.817 7.571 21.674 7.442 21.556 C 7.313 21.438 7.161 21.347 6.995 21.291 C 6.83 21.235 6.654 21.215 6.48 21.23 L 2.33 21.23 L 2.33 18.23 L 1.25 18.23 C 0.936 18.202 0.645 18.057 0.433 17.825 C 0.22 17.593 0.103 17.289 0.103 16.975 C 0.103 16.66 0.22 16.357 0.433 16.125 C 0.645 15.893 0.936 15.748 1.25 15.72 L 6.48 15.72 C 6.812 15.72 7.13 15.588 7.364 15.354 C 7.598 15.119 7.73 14.801 7.73 14.47 C 7.73 14.138 7.599 13.82 7.364 13.586 C 7.13 13.352 6.812 13.22 6.48 13.22 L 2.33 13.22 L 2.33 10.22 L 1.25 10.22 C 0.918 10.22 0.601 10.088 0.366 9.854 C 0.132 9.619 0 9.301 0 8.97 C 0 8.638 0.132 8.32 0.366 8.086 C 0.601 7.852 0.919 7.72 1.25 7.72 L 6.49 7.72 C 6.664 7.735 6.84 7.715 7.006 7.659 C 7.171 7.603 7.323 7.513 7.452 7.395 C 7.581 7.276 7.684 7.133 7.755 6.973 C 7.825 6.813 7.862 6.64 7.862 6.465 C 7.862 6.29 7.825 6.117 7.755 5.957 C 7.684 5.797 7.581 5.653 7.452 5.535 C 7.323 5.417 7.171 5.327 7.006 5.271 C 6.84 5.216 6.664 5.194 6.49 5.21 L 2.34 5.21 L 2.34 4 C 2.34 2.939 2.762 1.922 3.512 1.172 C 4.262 0.422 5.279 0 6.34 0 L 32 0 Z M 13.66 2.49 L 13.66 29.49 L 32 29.49 C 32.395 29.488 32.774 29.33 33.055 29.052 C 33.335 28.773 33.495 28.395 33.5 28 L 33.5 4 C 33.5 3.601 33.343 3.218 33.062 2.936 C 32.781 2.653 32.399 2.493 32 2.49 L 13.66 2.49 Z M 23.58 10.44 C 26.651 10.44 29.14 12.929 29.14 16 C 29.14 19.071 26.651 21.56 23.58 21.56 C 20.509 21.56 18.021 19.071 18.021 16 C 18.021 12.929 20.509 10.44 23.58 10.44 Z" fill="currentColor" fill-rule="nonzero"/>
</svg>
