<svg xmlns="http://www.w3.org/2000/svg" width="36" height="33.354" viewBox="0 0 36 33.354" fill="none">
  <path d="M 4.6 1.354 C 4.931 1.354 5.249 1.486 5.483 1.72 C 5.718 1.954 5.85 2.272 5.85 2.604 C 5.85 2.935 5.718 3.253 5.483 3.487 C 5.249 3.722 4.931 3.854 4.6 3.854 L 4 3.854 C 3.602 3.854 3.221 4.012 2.939 4.293 C 2.658 4.574 2.5 4.956 2.5 5.354 L 2.5 12.354 L 33.5 12.354 L 33.5 5.354 C 33.5 4.956 33.342 4.574 33.061 4.293 C 32.779 4.012 32.398 3.854 32 3.854 L 31.4 3.854 C 31.069 3.854 30.751 3.722 30.517 3.487 C 30.282 3.253 30.15 2.935 30.15 2.604 C 30.15 2.272 30.282 1.954 30.517 1.72 C 30.751 1.486 31.069 1.354 31.4 1.354 L 32 1.354 C 33.061 1.354 34.078 1.775 34.828 2.525 C 35.578 3.275 36 4.293 36 5.354 L 36 29.354 C 36 30.414 35.578 31.432 34.828 32.183 C 34.078 32.933 33.061 33.354 32 33.354 L 4 33.354 C 2.939 33.354 1.922 32.933 1.172 32.183 C 0.422 31.432 0 30.414 0 29.354 L 0 5.354 C 0 4.293 0.422 3.275 1.172 2.525 C 1.922 1.775 2.939 1.354 4 1.354 L 4.6 1.354 Z M 2.5 29.354 C 2.5 29.751 2.658 30.133 2.939 30.414 C 3.221 30.695 3.602 30.854 4 30.854 L 32 30.854 C 32.398 30.854 32.779 30.695 33.061 30.414 C 33.342 30.133 33.5 29.751 33.5 29.354 L 33.5 14.804 L 2.5 14.804 L 2.5 29.354 Z M 8.795 0 C 8.946 0 9.095 0.032 9.232 0.093 C 9.37 0.154 9.494 0.242 9.595 0.354 C 9.696 0.465 9.773 0.597 9.82 0.74 C 9.868 0.883 9.885 1.034 9.87 1.184 L 9.87 4.354 C 10.524 4.605 11.069 5.078 11.411 5.689 C 11.753 6.301 11.87 7.014 11.742 7.703 C 11.614 8.392 11.248 9.014 10.709 9.462 C 10.17 9.91 9.491 10.154 8.79 10.153 L 8.79 10.124 C 8.103 10.106 7.443 9.852 6.921 9.406 C 6.398 8.96 6.045 8.347 5.92 7.672 C 5.795 6.996 5.905 6.298 6.232 5.694 C 6.56 5.09 7.085 4.617 7.72 4.354 L 7.72 1.184 C 7.705 1.034 7.722 0.883 7.77 0.74 C 7.817 0.597 7.894 0.465 7.995 0.354 C 8.096 0.242 8.22 0.154 8.357 0.093 C 8.495 0.032 8.644 0 8.795 0 Z M 27.205 0 C 27.356 0 27.505 0.032 27.643 0.093 C 27.78 0.154 27.904 0.242 28.005 0.354 C 28.106 0.465 28.183 0.597 28.23 0.74 C 28.278 0.883 28.295 1.034 28.28 1.184 L 28.28 4.354 C 28.934 4.605 29.479 5.078 29.821 5.689 C 30.163 6.301 30.281 7.014 30.152 7.703 C 30.024 8.392 29.658 9.014 29.119 9.462 C 28.58 9.91 27.901 10.154 27.2 10.153 C 26.5 10.152 25.823 9.906 25.285 9.457 C 24.748 9.009 24.384 8.387 24.257 7.698 C 24.13 7.01 24.248 6.298 24.59 5.688 C 24.932 5.077 25.477 4.605 26.13 4.354 L 26.13 1.184 C 26.115 1.034 26.132 0.883 26.18 0.74 C 26.227 0.597 26.304 0.465 26.405 0.354 C 26.506 0.242 26.63 0.154 26.768 0.093 C 26.905 0.032 27.054 0 27.205 0 Z M 8.79 6.004 C 8.484 6.007 8.192 6.13 7.977 6.347 C 7.761 6.564 7.64 6.858 7.64 7.164 C 7.64 7.394 7.708 7.619 7.836 7.81 C 7.964 8 8.146 8.149 8.358 8.236 C 8.571 8.324 8.805 8.346 9.03 8.301 C 9.255 8.255 9.462 8.144 9.624 7.98 C 9.786 7.817 9.895 7.609 9.938 7.384 C 9.982 7.158 9.958 6.925 9.869 6.713 C 9.78 6.501 9.629 6.321 9.438 6.194 C 9.245 6.068 9.02 6.002 8.79 6.004 Z M 27.2 6.004 C 27.045 5.999 26.889 6.024 26.744 6.08 C 26.599 6.136 26.466 6.221 26.354 6.329 C 26.242 6.437 26.153 6.568 26.092 6.711 C 26.031 6.854 26 7.008 26 7.164 C 26 7.392 26.068 7.614 26.193 7.804 C 26.319 7.993 26.497 8.143 26.707 8.231 C 26.917 8.32 27.148 8.345 27.372 8.304 C 27.596 8.262 27.802 8.155 27.966 7.997 C 28.129 7.839 28.244 7.636 28.293 7.414 C 28.342 7.192 28.325 6.96 28.243 6.747 C 28.161 6.535 28.018 6.351 27.833 6.219 C 27.648 6.087 27.428 6.012 27.2 6.004 Z M 23 1.354 C 23.288 1.406 23.549 1.558 23.736 1.782 C 23.924 2.007 24.027 2.291 24.027 2.584 C 24.027 2.877 23.924 3.16 23.736 3.385 C 23.549 3.61 23.288 3.761 23 3.813 L 13 3.813 L 13 3.854 C 12.668 3.854 12.351 3.722 12.116 3.487 C 11.882 3.253 11.75 2.935 11.75 2.604 C 11.75 2.272 11.882 1.954 12.116 1.72 C 12.351 1.485 12.669 1.354 13 1.354 L 23 1.354 Z" fill="currentColor" fill-rule="nonzero"/>
</svg>
