<svg xmlns="http://www.w3.org/2000/svg" width="40.028" height="37.170" viewBox="0 0 40.028 37.170" fill="none">
  <path d="M 39.007 15.4 C 38.441 14.801 37.749 14.335 36.982 14.034 C 36.214 13.733 35.39 13.605 34.567 13.66 C 34.567 13.66 30.487 13.75 28.947 13.66 C 28.888 13.656 28.829 13.641 28.776 13.614 C 28.723 13.587 28.675 13.549 28.637 13.503 C 28.599 13.457 28.57 13.404 28.553 13.347 C 28.536 13.29 28.531 13.229 28.537 13.17 C 28.837 11.01 29.387 7.77 29.747 6.17 C 30.657 2 28.837 0.62 27.147 0.17 C 26.776 0.066 26.393 0.009 26.007 0 C 23.147 0 22.237 2.88 21.847 4.11 C 18.987 13.11 13.417 16.02 13.177 16.11 C 12.767 16.315 12.42 16.628 12.175 17.016 C 11.93 17.404 11.796 17.851 11.787 18.31 C 11.787 19.44 11.677 29.31 11.727 30.63 L 11.727 30.77 C 11.686 31.623 11.929 32.465 12.417 33.166 C 12.906 33.866 13.613 34.384 14.427 34.64 C 16.207 35.38 24.297 37.12 31.907 37.17 L 32.007 37.17 C 35.647 37.17 36.707 35.17 37.227 33.49 C 37.447 32.74 37.987 29.9 39.097 23.81 C 39.407 22.12 39.687 20.63 39.847 19.81 C 40.052 19.059 40.083 18.272 39.938 17.508 C 39.792 16.744 39.474 16.023 39.007 15.4 Z M 37.447 19.35 C 36.917 22.12 35.207 31.74 34.887 32.8 C 34.567 33.86 34.207 34.71 32.007 34.71 C 24.757 34.71 17.007 33 15.457 32.38 C 14.237 31.87 14.317 31.38 14.277 30.56 C 14.277 29.49 14.277 21.75 14.327 19.19 C 14.331 18.95 14.394 18.715 14.511 18.506 C 14.628 18.296 14.795 18.119 14.997 17.99 C 16.767 16.89 21.647 13.2 24.287 4.86 C 24.837 3.12 25.287 2.49 26.077 2.49 C 26.236 2.491 26.394 2.511 26.547 2.55 C 27.807 2.87 27.647 4.15 27.327 5.55 C 26.937 7.33 26.327 10.96 26.027 13.22 C 25.857 14.53 26.027 16.1 28.807 16.1 L 34.577 16.1 C 36.147 16.14 38.007 16.57 37.427 19.35 L 37.447 19.35 Z M 7.517 13.92 L 2.287 13.92 C 2.034 13.917 1.781 13.951 1.537 14.02 C 1.083 14.142 0.683 14.416 0.405 14.796 C 0.127 15.176 -0.013 15.64 0.007 16.11 L 0.007 25.11 C 0.007 28.13 0.007 31.16 0.007 34.2 C -0.002 34.32 -0.002 34.44 0.007 34.56 C 0.09 35.065 0.354 35.522 0.75 35.846 C 1.146 36.17 1.646 36.339 2.157 36.32 C 3.827 36.32 5.487 36.32 7.157 36.32 C 7.435 36.343 7.714 36.311 7.979 36.226 C 8.244 36.141 8.489 36.005 8.701 35.824 C 8.913 35.644 9.087 35.424 9.213 35.176 C 9.34 34.928 9.416 34.657 9.437 34.38 C 9.447 34.27 9.447 34.16 9.437 34.05 L 9.437 16.24 C 9.49 15.678 9.318 15.118 8.958 14.683 C 8.598 14.247 8.08 13.973 7.517 13.92 Z M 4.727 33.4 C 4.289 33.392 3.87 33.215 3.558 32.906 C 3.247 32.597 3.068 32.179 3.057 31.74 C 3.068 31.298 3.248 30.876 3.561 30.563 C 3.874 30.25 4.295 30.07 4.737 30.06 C 4.968 30.042 5.2 30.072 5.419 30.148 C 5.638 30.224 5.838 30.345 6.008 30.502 C 6.178 30.659 6.314 30.85 6.406 31.062 C 6.499 31.274 6.547 31.503 6.547 31.735 C 6.547 31.967 6.499 32.196 6.406 32.408 C 6.314 32.62 6.178 32.811 6.008 32.968 C 5.838 33.125 5.638 33.246 5.419 33.322 C 5.2 33.398 4.968 33.428 4.737 33.41 L 4.727 33.4 Z" fill="currentColor" fill-rule="nonzero"/>
</svg>
