<svg xmlns="http://www.w3.org/2000/svg" width="40.039" height="37.830" viewBox="0 0 40.039 37.830" fill="none">
  <path d="M 7.612 0 C 15.522 0.04 23.902 1.9 25.702 2.62 C 26.386 2.816 26.982 3.241 27.39 3.823 C 27.797 4.406 27.993 5.111 27.942 5.82 L 27.942 5.98 C 27.972 6.842 27.953 11.742 27.883 19.11 C 27.884 19.417 27.8 19.719 27.642 19.981 C 27.483 20.244 27.255 20.458 26.982 20.6 C 26.712 20.73 20.622 24.02 17.412 34.16 C 16.812 36.07 15.962 37.83 13.963 37.83 C 13.659 37.827 13.356 37.787 13.063 37.71 C 12.333 37.56 10.063 36.96 11.063 32.56 C 11.452 30.77 12.052 27.26 12.372 24.9 C 12.401 24.692 12.387 24.478 12.33 24.275 C 12.273 24.073 12.175 23.883 12.042 23.72 C 11.905 23.555 11.737 23.42 11.546 23.324 C 11.355 23.228 11.146 23.172 10.933 23.16 C 10.363 23.11 9.482 23.11 8.563 23.11 C 6.814 23.11 4.83 23.159 4.803 23.16 C 4.081 23.217 3.355 23.113 2.678 22.857 C 2 22.602 1.387 22.199 0.883 21.68 C 0.477 21.132 0.201 20.499 0.076 19.828 C -0.049 19.158 -0.02 18.467 0.162 17.81 C 0.342 16.9 0.633 15.29 0.963 13.48 C 2.133 7.101 2.733 3.941 2.963 3.19 C 3.453 1.531 4.352 0 7.542 0 L 7.612 0 Z M 32.883 1.19 L 37.883 1.19 C 38.395 1.172 38.897 1.341 39.293 1.667 C 39.689 1.993 39.952 2.453 40.032 2.96 C 40.042 3.08 40.042 3.201 40.032 3.32 L 40.032 21.5 C 40.044 21.965 39.9 22.421 39.623 22.794 C 39.346 23.167 38.951 23.437 38.502 23.56 C 38.256 23.619 38.005 23.65 37.752 23.65 L 32.822 23.65 C 32.719 23.66 32.616 23.66 32.513 23.65 C 31.958 23.595 31.447 23.323 31.09 22.895 C 30.733 22.467 30.558 21.916 30.603 21.36 L 30.603 3.52 C 30.593 3.41 30.593 3.3 30.603 3.19 C 30.618 2.908 30.689 2.631 30.813 2.377 C 30.936 2.123 31.109 1.896 31.321 1.71 C 31.534 1.524 31.782 1.381 32.05 1.292 C 32.318 1.203 32.601 1.169 32.883 1.19 Z M 35.303 4.17 C 35.084 4.167 34.866 4.208 34.662 4.289 C 34.458 4.371 34.272 4.491 34.115 4.645 C 33.958 4.798 33.833 4.981 33.747 5.183 C 33.661 5.384 33.615 5.601 33.612 5.82 C 33.615 6.266 33.792 6.693 34.106 7.009 C 34.421 7.325 34.846 7.504 35.292 7.51 C 35.734 7.5 36.156 7.32 36.469 7.007 C 36.782 6.694 36.962 6.272 36.973 5.83 C 36.967 5.39 36.789 4.969 36.477 4.658 C 36.164 4.348 35.743 4.173 35.303 4.17 Z" fill="currentColor" fill-rule="nonzero"/>
</svg>
