<svg xmlns="http://www.w3.org/2000/svg" width="25.260" height="40" viewBox="0 0 25.260 40" fill="none">
  <path d="M 25.26 40 L 0 40 L 0 35.94 L 25.26 35.94 L 25.26 40 Z M 6.48 20.19 C 6.492 21.241 6.667 22.284 7 23.28 C 7.326 24.348 7.989 25.283 8.891 25.942 C 9.792 26.602 10.883 26.952 12 26.94 C 14.36 27.08 16.45 26.51 17.89 24.49 C 18.641 23.329 19.009 21.961 18.94 20.58 L 18.94 0 L 25.04 0 L 25.04 20.59 C 25.04 26.68 20.92 30.37 15.76 31.33 C 12.911 31.921 9.955 31.724 7.21 30.76 C 2.56 29.08 0.14 25.76 0.11 20.76 L 0.11 0.58 C 0.16 0.41 0.18 0.22 0.2 0 L 6.48 0 L 6.48 20.19 Z" fill="currentColor" fill-rule="nonzero"/>
</svg>
