<svg xmlns="http://www.w3.org/2000/svg" width="36" height="36" viewBox="0 0 36 36" fill="none">
  <path d="M 12.7 20.84 L 2.46 20.84 C 1.808 20.84 1.182 21.099 0.721 21.561 C 0.259 22.022 0 22.648 0 23.3 L 0 33.54 C 0 34.192 0.259 34.818 0.721 35.279 C 1.182 35.741 1.808 36 2.46 36 L 12.7 36 C 13.352 36 13.978 35.741 14.439 35.279 C 14.901 34.818 15.16 34.192 15.16 33.54 L 15.16 23.3 C 15.16 22.648 14.901 22.022 14.439 21.561 C 13.978 21.099 13.352 20.84 12.7 20.84 Z M 12.7 0 L 2.46 0 C 1.808 0 1.182 0.259 0.721 0.721 C 0.259 1.182 0 1.808 0 2.46 L 0 12.7 C 0 13.352 0.259 13.978 0.721 14.439 C 1.182 14.901 1.808 15.16 2.46 15.16 L 12.7 15.16 C 13.352 15.16 13.978 14.901 14.439 14.439 C 14.901 13.978 15.16 13.352 15.16 12.7 L 15.16 2.46 C 15.16 1.808 14.901 1.182 14.439 0.721 C 13.978 0.259 13.352 0 12.7 0 Z M 33.54 20.84 L 23.3 20.84 C 22.648 20.84 22.022 21.099 21.561 21.561 C 21.099 22.022 20.84 22.648 20.84 23.3 L 20.84 33.54 C 20.84 34.192 21.099 34.818 21.561 35.279 C 22.022 35.741 22.648 36 23.3 36 L 33.54 36 C 34.192 36 34.818 35.741 35.279 35.279 C 35.741 34.818 36 34.192 36 33.54 L 36 23.3 C 36 22.648 35.741 22.022 35.279 21.561 C 34.818 21.099 34.192 20.84 33.54 20.84 Z M 33.54 0 L 23.3 0 C 22.648 0 22.022 0.259 21.561 0.721 C 21.099 1.182 20.84 1.808 20.84 2.46 L 20.84 12.7 C 20.84 13.352 21.099 13.978 21.561 14.439 C 22.022 14.901 22.648 15.16 23.3 15.16 L 33.54 15.16 C 34.192 15.16 34.818 14.901 35.279 14.439 C 35.741 13.978 36 13.352 36 12.7 L 36 2.46 C 36 1.808 35.741 1.182 35.279 0.721 C 34.818 0.259 34.192 0 33.54 0 Z" fill="currentColor" fill-rule="nonzero"/>
</svg>
