<svg xmlns="http://www.w3.org/2000/svg" width="29.420" height="39.966" viewBox="0 0 29.420 39.966" fill="none">
  <path d="M 23.62 25.9 C 23.402 25.901 23.188 25.959 23 26.07 C 22.812 26.181 22.656 26.34 22.55 26.53 C 21.55 28.28 20.45 29.97 19.39 31.53 L 19.3 31.66 L 19.21 31.79 C 17.29 34.51 15.58 36.61 14.87 37.47 C 14.849 37.492 14.825 37.509 14.797 37.521 C 14.77 37.533 14.74 37.539 14.71 37.539 C 14.68 37.539 14.65 37.533 14.623 37.521 C 14.595 37.509 14.571 37.492 14.55 37.47 C 12.54 35 2.48 22.56 2.48 14.7 C 2.488 11.46 3.779 8.355 6.071 6.064 C 8.364 3.774 11.47 2.485 14.71 2.48 C 17.952 2.485 21.06 3.776 23.352 6.068 C 25.644 8.36 26.935 11.468 26.94 14.71 C 26.899 16.133 26.646 17.542 26.19 18.89 L 20.59 18.89 L 16.48 14.78 L 23.08 8.18 L 19.53 8.18 L 14.71 13 L 9.88 8.17 L 6.34 8.17 L 12.94 14.77 L 6.34 21.38 L 9.87 21.38 L 14.71 16.55 L 19.55 21.39 L 27.92 21.39 C 28.82 19.273 29.329 17.009 29.42 14.71 C 29.42 10.809 27.87 7.067 25.112 4.308 C 22.353 1.55 18.611 0 14.71 0 C 10.809 0 7.067 1.55 4.308 4.308 C 1.55 7.067 0 10.809 0 14.71 C 0 23.2 9.71 35.47 12.65 39 C 12.902 39.302 13.216 39.545 13.572 39.712 C 13.928 39.879 14.317 39.966 14.71 39.966 C 15.103 39.966 15.492 39.879 15.848 39.712 C 16.204 39.545 16.518 39.302 16.77 39 C 17.77 37.81 19.48 35.66 21.35 33 L 21.46 32.84 L 21.56 32.7 C 22.62 31.15 23.7 29.46 24.7 27.7 C 24.795 27.513 24.841 27.305 24.833 27.095 C 24.825 26.886 24.765 26.682 24.657 26.502 C 24.549 26.322 24.397 26.172 24.216 26.067 C 24.035 25.962 23.83 25.904 23.62 25.9 Z" fill="currentColor" fill-rule="nonzero"/>
</svg>
