<svg xmlns="http://www.w3.org/2000/svg" width="40" height="32.920" viewBox="0 0 40 32.920" fill="none">
  <path d="M 36.75 4.14 L 34.67 4.14 C 34.629 4.14 34.589 4.132 34.551 4.116 C 34.514 4.101 34.48 4.078 34.451 4.049 C 34.422 4.02 34.399 3.986 34.384 3.949 C 34.368 3.911 34.36 3.871 34.36 3.83 L 34.36 2.93 L 34.36 2.87 C 34.357 2.11 34.054 1.381 33.516 0.844 C 32.979 0.306 32.25 0.003 31.49 0 L 23.87 0 C 23.11 0.003 22.381 0.306 21.844 0.844 C 21.306 1.381 21.003 2.11 21 2.87 L 21 3.55 L 21 3.83 C 21 3.912 20.967 3.991 20.909 4.049 C 20.851 4.107 20.772 4.14 20.69 4.14 L 3.85 4.14 C 2.83 4.143 1.852 4.549 1.131 5.271 C 0.409 5.992 0.003 6.97 0 7.99 L 0 29.07 C 0 30.091 0.406 31.07 1.128 31.792 C 1.85 32.514 2.829 32.92 3.85 32.92 L 36.15 32.92 C 37.171 32.92 38.15 32.514 38.872 31.792 C 39.594 31.07 40 30.091 40 29.07 L 40 7.99 C 40 5.65 38.72 4.14 36.75 4.14 Z M 20 26.09 C 18.507 26.09 17.047 25.647 15.805 24.818 C 14.564 23.988 13.596 22.809 13.025 21.429 C 12.453 20.05 12.304 18.532 12.595 17.067 C 12.886 15.603 13.605 14.257 14.661 13.201 C 15.717 12.145 17.063 11.426 18.527 11.135 C 19.992 10.844 21.51 10.993 22.889 11.565 C 24.269 12.136 25.448 13.104 26.278 14.345 C 27.107 15.587 27.55 17.047 27.55 18.54 C 27.55 19.531 27.355 20.513 26.975 21.429 C 26.596 22.345 26.04 23.178 25.339 23.879 C 24.638 24.58 23.805 25.136 22.889 25.515 C 21.973 25.895 20.991 26.09 20 26.09 Z" fill="currentColor" fill-rule="nonzero"/>
</svg>
