<svg xmlns="http://www.w3.org/2000/svg" width="40" height="40" viewBox="0 0 40 40" fill="none">
  <path d="M 20 40 C 16.044 40 12.178 38.827 8.889 36.629 C 5.6 34.432 3.036 31.308 1.522 27.654 C 0.009 23.999 -0.387 19.978 0.384 16.098 C 1.156 12.219 3.061 8.655 5.858 5.858 C 8.655 3.061 12.219 1.156 16.098 0.384 C 19.978 -0.387 23.999 0.009 27.654 1.522 C 31.308 3.036 34.432 5.6 36.629 8.889 C 38.827 12.178 40 16.044 40 20 C 40 25.304 37.893 30.391 34.142 34.142 C 30.391 37.893 25.304 40 20 40 Z M 20 2.52 C 16.543 2.52 13.163 3.545 10.289 5.466 C 7.414 7.387 5.174 10.117 3.851 13.311 C 2.528 16.505 2.181 20.019 2.856 23.41 C 3.53 26.801 5.195 29.916 7.64 32.36 C 10.084 34.805 13.199 36.47 16.59 37.144 C 19.981 37.819 23.495 37.472 26.689 36.149 C 29.883 34.826 32.613 32.586 34.534 29.711 C 36.455 26.837 37.48 23.457 37.48 20 C 37.477 15.365 35.635 10.92 32.357 7.643 C 29.08 4.365 24.635 2.523 20 2.52 Z M 15.78 25.63 L 15.93 25.78 L 16 25.85 C 16.07 25.85 16.07 25.93 16.15 25.93 L 16.22 26 C 16.276 26.006 16.329 26.031 16.37 26.07 L 17 26.07 C 17.07 26.07 17.07 26.07 17.14 26 L 17.22 26 C 17.29 26 17.29 25.93 17.37 25.93 L 17.44 25.85 C 17.459 25.85 17.476 25.843 17.49 25.83 C 17.503 25.816 17.51 25.799 17.51 25.78 L 17.59 25.78 L 27.26 17 C 27.391 16.883 27.498 16.742 27.575 16.583 C 27.652 16.425 27.696 16.253 27.706 16.078 C 27.717 15.902 27.692 15.726 27.634 15.56 C 27.577 15.394 27.487 15.241 27.37 15.11 C 27.253 14.979 27.112 14.872 26.953 14.795 C 26.795 14.718 26.623 14.674 26.448 14.664 C 26.272 14.653 26.096 14.678 25.93 14.736 C 25.764 14.793 25.611 14.883 25.48 15 L 16.89 22.85 L 14.59 20 C 14.374 19.724 14.057 19.546 13.709 19.503 C 13.361 19.461 13.011 19.559 12.735 19.775 C 12.459 19.991 12.281 20.308 12.238 20.656 C 12.196 21.004 12.294 21.354 12.51 21.63 L 15.78 25.63 Z" fill="currentColor" fill-rule="nonzero"/>
</svg>
