<svg xmlns="http://www.w3.org/2000/svg" width="40.015" height="32.760" viewBox="0 0 40.015 32.760" fill="none">
  <path d="M 31.981 16.69 C 34.111 16.691 36.154 17.537 37.661 19.043 C 39.168 20.55 40.015 22.594 40.015 24.725 C 40.015 26.856 39.168 28.899 37.661 30.406 C 36.154 31.913 34.111 32.76 31.981 32.76 L 31.91 32.76 C 29.779 32.75 27.739 31.895 26.238 30.382 C 25.496 29.633 24.907 28.744 24.508 27.768 C 24.108 26.791 23.906 25.745 23.91 24.69 C 23.919 22.559 24.775 20.519 26.288 19.019 C 27.037 18.276 27.926 17.688 28.902 17.288 C 29.879 16.889 30.925 16.686 31.981 16.69 Z M 4.2 1.09 C 4.502 1.09 4.792 1.21 5.006 1.424 C 5.22 1.638 5.34 1.928 5.34 2.23 C 5.34 2.533 5.22 2.822 5.006 3.036 C 4.792 3.25 4.502 3.37 4.2 3.37 L 3.65 3.37 C 3.468 3.371 3.288 3.408 3.12 3.479 C 2.953 3.551 2.801 3.655 2.674 3.785 C 2.547 3.915 2.446 4.069 2.378 4.238 C 2.311 4.407 2.278 4.588 2.28 4.77 L 2.28 11.15 L 30.59 11.15 L 30.59 4.77 C 30.587 4.407 30.442 4.06 30.186 3.804 C 29.929 3.548 29.582 3.403 29.22 3.4 L 28.67 3.4 C 28.368 3.4 28.078 3.28 27.864 3.066 C 27.651 2.853 27.53 2.562 27.53 2.26 C 27.53 1.958 27.651 1.668 27.864 1.454 C 28.078 1.24 28.368 1.12 28.67 1.12 L 29.22 1.12 C 30.188 1.12 31.116 1.505 31.801 2.189 C 32.485 2.874 32.87 3.802 32.87 4.77 L 32.87 13.89 C 32.87 14.192 32.75 14.482 32.536 14.696 C 32.323 14.91 32.033 15.03 31.731 15.03 C 31.428 15.03 31.138 14.91 30.924 14.696 C 30.71 14.482 30.59 14.192 30.59 13.89 L 30.59 13.43 L 2.28 13.43 L 2.28 26.74 C 2.283 27.103 2.428 27.45 2.685 27.706 C 2.941 27.962 3.288 28.108 3.65 28.11 L 20.9 28.11 L 20.9 28.09 C 21.203 28.09 21.492 28.21 21.706 28.424 C 21.92 28.638 22.04 28.928 22.04 29.23 C 22.04 29.533 21.92 29.822 21.706 30.036 C 21.492 30.25 21.203 30.37 20.9 30.37 L 3.65 30.37 C 2.692 30.368 1.772 29.989 1.09 29.315 C 0.407 28.642 0.016 27.728 0 26.77 L 0 4.77 C -0.003 4.288 0.089 3.811 0.272 3.365 C 0.454 2.92 0.723 2.515 1.062 2.173 C 1.401 1.831 1.804 1.559 2.248 1.373 C 2.692 1.187 3.169 1.091 3.65 1.09 L 4.2 1.09 Z M 31.934 26.636 C 31.779 26.667 31.636 26.743 31.524 26.854 C 31.413 26.966 31.337 27.109 31.306 27.264 C 31.275 27.419 31.29 27.58 31.351 27.727 C 31.411 27.873 31.514 27.997 31.646 28.085 C 31.777 28.173 31.932 28.22 32.09 28.22 C 32.302 28.22 32.505 28.135 32.655 27.985 C 32.805 27.835 32.89 27.632 32.89 27.42 C 32.89 27.262 32.843 27.107 32.755 26.976 C 32.667 26.844 32.543 26.741 32.397 26.681 C 32.25 26.62 32.089 26.605 31.934 26.636 Z M 32.095 21.824 C 31.919 21.824 31.749 21.89 31.617 22.007 C 31.485 22.124 31.401 22.285 31.38 22.46 L 31.38 25.02 C 31.368 25.121 31.378 25.223 31.408 25.32 C 31.439 25.417 31.489 25.507 31.557 25.583 C 31.624 25.659 31.707 25.72 31.8 25.762 C 31.893 25.803 31.993 25.824 32.095 25.824 C 32.196 25.824 32.297 25.803 32.39 25.762 C 32.482 25.72 32.565 25.659 32.633 25.583 C 32.7 25.507 32.752 25.417 32.782 25.32 C 32.813 25.223 32.822 25.12 32.81 25.02 L 32.81 22.46 C 32.789 22.285 32.705 22.124 32.573 22.007 C 32.442 21.89 32.271 21.824 32.095 21.824 Z M 8.03 0 C 8.295 0 8.55 0.106 8.737 0.293 C 8.925 0.48 9.03 0.735 9.03 1 L 9.03 3.92 C 9.622 4.153 10.113 4.585 10.42 5.142 C 10.727 5.698 10.829 6.344 10.711 6.969 C 10.592 7.593 10.26 8.157 9.771 8.563 C 9.281 8.968 8.666 9.19 8.03 9.19 C 7.395 9.19 6.779 8.968 6.289 8.563 C 5.8 8.157 5.467 7.593 5.349 6.969 C 5.23 6.344 5.333 5.698 5.64 5.142 C 5.947 4.585 6.439 4.153 7.03 3.92 L 7.03 1 C 7.03 0.735 7.136 0.481 7.323 0.293 C 7.511 0.106 7.765 0 8.03 0 Z M 24.84 0 C 25.105 0 25.359 0.105 25.547 0.293 C 25.734 0.481 25.84 0.735 25.84 1 L 25.84 3.92 C 26.431 4.153 26.923 4.585 27.23 5.142 C 27.536 5.698 27.64 6.344 27.522 6.969 C 27.403 7.593 27.071 8.157 26.581 8.563 C 26.092 8.968 25.476 9.19 24.84 9.19 C 24.204 9.19 23.589 8.968 23.1 8.563 C 22.61 8.157 22.277 7.593 22.158 6.969 C 22.04 6.344 22.143 5.698 22.45 5.142 C 22.757 4.585 23.249 4.153 23.84 3.92 L 23.84 1 C 23.84 0.735 23.945 0.48 24.133 0.293 C 24.32 0.105 24.575 0 24.84 0 Z M 8.03 5.37 C 7.889 5.37 7.748 5.398 7.617 5.453 C 7.487 5.508 7.368 5.59 7.27 5.691 C 7.171 5.793 7.093 5.913 7.042 6.045 C 6.991 6.177 6.966 6.318 6.97 6.46 C 6.97 6.67 7.032 6.875 7.148 7.049 C 7.265 7.223 7.43 7.359 7.624 7.439 C 7.818 7.52 8.031 7.541 8.236 7.5 C 8.442 7.459 8.631 7.358 8.779 7.21 C 8.928 7.062 9.028 6.873 9.069 6.667 C 9.11 6.461 9.089 6.248 9.009 6.055 C 8.929 5.861 8.793 5.696 8.619 5.579 C 8.445 5.463 8.24 5.4 8.03 5.4 L 8.03 5.37 Z M 24.84 5.37 C 24.698 5.37 24.558 5.398 24.428 5.453 C 24.297 5.508 24.179 5.59 24.08 5.691 C 23.981 5.793 23.903 5.913 23.852 6.045 C 23.8 6.177 23.776 6.318 23.78 6.46 C 23.78 6.67 23.843 6.875 23.959 7.049 C 24.076 7.223 24.241 7.359 24.435 7.439 C 24.628 7.52 24.841 7.541 25.047 7.5 C 25.253 7.459 25.442 7.358 25.59 7.21 C 25.738 7.062 25.839 6.873 25.88 6.667 C 25.921 6.461 25.9 6.248 25.819 6.055 C 25.739 5.861 25.603 5.696 25.429 5.579 C 25.254 5.463 25.05 5.4 24.84 5.4 L 24.84 5.37 Z M 21 1.09 C 21.302 1.09 21.592 1.21 21.806 1.424 C 22.02 1.638 22.14 1.928 22.14 2.23 C 22.14 2.533 22.019 2.822 21.806 3.036 C 21.592 3.25 21.302 3.37 21 3.37 L 11.87 3.37 C 11.568 3.37 11.277 3.25 11.064 3.036 C 10.85 2.822 10.731 2.533 10.731 2.23 C 10.731 1.928 10.85 1.638 11.064 1.424 C 11.277 1.21 11.568 1.09 11.87 1.09 L 21 1.09 Z" fill="currentColor" fill-rule="nonzero"/>
</svg>
