<svg xmlns="http://www.w3.org/2000/svg" width="38.700" height="39.900" viewBox="0 0 38.700 39.900" fill="none">
  <path d="M 6.2 33.8 C 6.3 33.7 6.4 33.7 6.4 33.7 L 15.6 33.7 C 16.3 33.7 16.7 33.1 16.7 32.5 C 16.7 31.8 16.1 31.3 15.5 31.3 L 6.5 31.3 C 5.8 31.2 5.2 31.7 5.1 32.4 C 5 33.1 5.5 33.7 6.2 33.8 Z M 14.6 28.8 C 15.3 28.8 15.8 28.2 15.8 27.6 C 15.8 27 15.2 26.4 14.6 26.4 L 6.4 26.4 C 5.7 26.4 5.2 27 5.2 27.6 C 5.2 28.2 5.7 28.8 6.4 28.8 L 14.6 28.8 Z M 30.6 29.7 C 29.9 29.7 29.4 30.3 29.3 30.9 L 29.3 35.7 C 29.3 36.7 28.5 37.5 27.5 37.5 L 4.2 37.5 C 3.2 37.5 2.4 36.7 2.4 35.7 L 2.4 4.2 C 2.4 3.2 3.2 2.4 4.2 2.4 L 27.6 2.4 C 28.6 2.4 29.4 3.2 29.4 4.2 L 29.4 6.3 C 29.4 7 30 7.5 30.6 7.5 C 31.2 7.5 31.8 6.9 31.8 6.3 L 31.8 4.2 C 31.9 1.9 30 0 27.6 0 L 4.2 0 C 1.9 0 0 1.9 0 4.2 L 0 35.7 C 0 38 1.9 39.9 4.2 39.9 L 27.6 39.9 C 29.9 39.9 31.8 38 31.8 35.7 L 31.8 31 C 31.8 30.3 31.3 29.7 30.6 29.7 Z M 30.4 10.3 C 25.8 10.3 22.1 14 22.1 18.6 C 22.1 23.2 25.8 26.9 30.4 26.9 C 35 26.9 38.7 23.2 38.7 18.6 C 38.7 14.1 35 10.4 30.4 10.3 Z M 34.4 22.2 C 34.1 22.5 33.6 22.6 33.3 22.3 L 30.3 19.7 L 30.2 19.7 C 29.9 19.6 29.7 19.3 29.7 18.9 L 29.8 14.6 C 29.8 14.2 30.2 13.8 30.6 13.8 C 31 13.8 31.4 14.2 31.4 14.6 L 31.3 18.5 L 34.3 21.1 C 34.6 21.4 34.6 21.9 34.4 22.2 Z M 26.6 7.8 C 26.6 7.1 26.1 6.6 25.4 6.6 L 6.4 6.6 C 5.7 6.5 5.1 7 5 7.7 C 4.9 8.4 5.4 9 6.1 9.1 C 6.2 9.1 6.2 9.1 6.3 9.1 L 25.2 9.1 C 26 9.1 26.6 8.5 26.6 7.8 Z M 20.4 12.4 C 20.4 11.7 19.9 11.2 19.2 11.2 L 6.9 11.2 C 6.2 11.1 5.6 11.6 5.5 12.3 C 5.4 13 5.9 13.6 6.6 13.7 C 6.7 13.7 6.7 13.7 6.8 13.7 L 19 13.7 C 19.8 13.7 20.3 13.1 20.4 12.4 Z M 18.6 22.7 C 18.6 22 18 21.5 17.4 21.5 L 6.4 21.5 C 5.7 21.4 5.1 21.9 5 22.6 C 4.9 23.3 5.4 23.9 6.1 24 C 6.2 24 6.2 24 6.3 24 L 17.3 24 C 18.1 23.9 18.6 23.4 18.6 22.7 Z" fill="currentColor" fill-rule="nonzero"/>
</svg>
