<svg xmlns="http://www.w3.org/2000/svg" width="40" height="40" viewBox="0 0 40 40" fill="none">
  <path d="M 20 0 C 16.044 0 12.178 1.173 8.889 3.371 C 5.6 5.568 3.036 8.692 1.522 12.346 C 0.009 16.001 -0.387 20.022 0.384 23.902 C 1.156 27.781 3.061 31.345 5.858 34.142 C 8.655 36.939 12.219 38.844 16.098 39.616 C 19.978 40.387 23.999 39.991 27.654 38.478 C 31.308 36.964 34.432 34.4 36.629 31.111 C 38.827 27.822 40 23.956 40 20 C 40 17.374 39.483 14.773 38.478 12.346 C 37.473 9.92 35.999 7.715 34.142 5.858 C 32.285 4.001 30.08 2.528 27.654 1.522 C 25.227 0.517 22.626 0 20 0 Z M 29.33 25.63 C 29.217 25.89 29.031 26.112 28.796 26.27 C 28.56 26.428 28.284 26.515 28 26.52 C 27.778 26.484 27.555 26.46 27.33 26.45 L 17.48 22.3 L 17.48 9 C 17.48 8.602 17.638 8.221 17.919 7.939 C 18.201 7.658 18.582 7.5 18.98 7.5 C 19.378 7.5 19.759 7.658 20.041 7.939 C 20.322 8.221 20.48 8.602 20.48 9 L 20.48 20.3 L 28.56 23.7 C 28.906 23.867 29.177 24.158 29.32 24.516 C 29.462 24.873 29.466 25.27 29.33 25.63 Z" fill="currentColor" fill-rule="nonzero"/>
</svg>
