<svg xmlns="http://www.w3.org/2000/svg" width="36.005" height="36" viewBox="0 0 36.005 36" fill="none">
  <path d="M 11.874 5.3 C 12.251 5.332 12.603 5.501 12.863 5.776 C 13.123 6.051 13.273 6.412 13.284 6.79 C 13.281 7.414 13.524 8.015 13.96 8.462 C 14.395 8.909 14.99 9.167 15.614 9.18 L 33.164 9.18 L 33.294 5.71 C 33.294 5 33.054 4.78 32.224 4.78 L 17.874 4.78 C 16.584 4.78 15.544 4.13 15.544 1.56 L 15.544 1.48 C 15.552 1.097 15.408 0.727 15.144 0.449 C 14.88 0.172 14.517 0.01 14.134 0 L 3.924 0 C 3.73 0.017 3.541 0.073 3.368 0.165 C 3.196 0.256 3.043 0.381 2.919 0.531 C 2.796 0.682 2.703 0.856 2.647 1.043 C 2.591 1.23 2.573 1.426 2.594 1.62 L 2.724 5.3 L 11.874 5.3 Z M 34.584 12.3 L 14.284 12.3 C 13.976 12.292 13.672 12.224 13.39 12.098 C 13.109 11.973 12.855 11.793 12.643 11.569 C 12.431 11.345 12.266 11.081 12.156 10.793 C 12.046 10.505 11.995 10.198 12.004 9.89 C 12.006 9.7 11.972 9.511 11.901 9.334 C 11.831 9.157 11.726 8.995 11.593 8.859 C 11.461 8.722 11.302 8.613 11.127 8.538 C 10.952 8.463 10.764 8.423 10.574 8.42 L 1.344 8.42 C 0.958 8.456 0.602 8.641 0.351 8.936 C 0.101 9.232 -0.024 9.614 0.004 10 L 1.304 34.64 C 1.329 35.003 1.488 35.343 1.751 35.595 C 2.013 35.846 2.36 35.991 2.724 36 L 34.074 36 C 34.264 35.995 34.452 35.952 34.626 35.874 C 34.8 35.797 34.957 35.686 35.088 35.547 C 35.219 35.409 35.321 35.246 35.389 35.068 C 35.457 34.89 35.489 34.7 35.484 34.51 L 36.004 13.77 C 36.01 13.578 35.979 13.387 35.911 13.208 C 35.843 13.029 35.739 12.865 35.607 12.726 C 35.475 12.588 35.316 12.477 35.14 12.4 C 34.965 12.323 34.776 12.283 34.584 12.28 L 34.584 12.3 Z M 25.894 34.47 C 25.689 34.682 25.408 34.804 25.114 34.81 C 24.971 34.811 24.829 34.783 24.696 34.728 C 24.564 34.673 24.444 34.592 24.344 34.49 L 19.664 30 C 18.423 30.898 16.935 31.391 15.404 31.41 C 13.424 31.421 11.521 30.647 10.11 29.259 C 8.699 27.87 7.895 25.98 7.874 24 C 7.855 22.028 8.618 20.129 9.995 18.718 C 11.372 17.307 13.252 16.499 15.224 16.47 C 16.616 16.453 17.984 16.828 19.173 17.552 C 20.362 18.275 21.324 19.318 21.95 20.561 C 22.575 21.805 22.839 23.199 22.71 24.585 C 22.582 25.971 22.067 27.293 21.224 28.4 L 25.854 32.91 C 25.958 33.011 26.041 33.133 26.098 33.267 C 26.154 33.401 26.184 33.545 26.184 33.69 C 26.19 33.977 26.086 34.256 25.894 34.47 Z M 15.314 18.68 L 15.254 18.68 C 13.861 18.688 12.529 19.248 11.549 20.236 C 10.568 21.225 10.02 22.562 10.024 23.955 C 10.028 25.347 10.584 26.681 11.57 27.665 C 12.556 28.648 13.891 29.2 15.284 29.2 C 16.676 29.2 18.012 28.648 18.998 27.665 C 19.984 26.681 20.54 25.347 20.544 23.955 C 20.548 22.562 19.999 21.225 19.019 20.236 C 18.039 19.248 16.706 18.688 15.314 18.68 Z" fill="currentColor" fill-rule="nonzero"/>
</svg>
