<svg xmlns="http://www.w3.org/2000/svg" width="32.751" height="40.000" viewBox="0 0 32.751 40.000" fill="none">
  <path d="M 5.841 40 C 4.297 39.995 2.817 39.379 1.725 38.287 C 0.633 37.195 0.017 35.715 0.011 34.17 L 0.011 6.43 C -0.004 6.328 -0.004 6.223 0.011 6.12 C -0.002 5.894 -0.002 5.667 0.011 5.44 C 0.011 2.44 2.931 0 6.521 0 L 30.961 0 C 31.298 -0.008 31.623 0.117 31.869 0.347 C 32.114 0.577 32.258 0.894 32.271 1.23 C 32.279 1.563 32.156 1.885 31.927 2.127 C 31.699 2.368 31.384 2.51 31.051 2.52 C 30.706 2.919 30.445 3.383 30.283 3.884 C 30.122 4.386 30.063 4.915 30.111 5.44 C 30.111 7.11 30.721 8.21 31.111 8.35 C 31.247 8.356 31.382 8.379 31.511 8.42 C 31.843 8.428 32.158 8.565 32.39 8.803 C 32.622 9.04 32.751 9.359 32.751 9.69 L 32.751 40 L 5.841 40 Z M 2.531 34.16 C 2.537 35.037 2.887 35.875 3.507 36.495 C 4.126 37.115 4.965 37.465 5.841 37.47 L 30.181 37.47 L 30.181 10.87 L 15.871 10.87 L 15.951 26.93 C 15.946 27.3 15.808 27.655 15.561 27.93 C 15.419 28.079 15.249 28.199 15.06 28.281 C 14.871 28.364 14.667 28.408 14.461 28.41 C 14.091 28.41 13.734 28.271 13.461 28.02 L 10.901 25.59 L 8.361 28 C 8.094 28.263 7.736 28.413 7.361 28.42 C 6.965 28.418 6.586 28.259 6.307 27.978 C 6.028 27.696 5.871 27.316 5.871 26.92 L 5.871 10.84 L 5.761 10.84 C 4.676 10.742 3.626 10.401 2.691 9.84 L 2.531 9.74 L 2.531 34.16 Z M 10.891 22.7 C 11.261 22.704 11.617 22.843 11.891 23.09 L 13.411 24.53 L 13.361 10.87 L 8.361 10.87 L 8.361 24.53 L 9.851 23.11 C 10.133 22.847 10.505 22.7 10.891 22.7 Z M 6.531 2.51 C 4.361 2.51 2.531 3.85 2.531 5.44 C 2.531 7.03 4.351 8.35 6.531 8.35 L 28.101 8.35 L 28.101 8.22 C 27.87 7.576 27.729 6.903 27.681 6.22 L 27.681 6.13 L 12.071 6.13 C 11.9 6.133 11.73 6.101 11.571 6.037 C 11.412 5.973 11.267 5.877 11.146 5.756 C 11.025 5.634 10.929 5.49 10.865 5.331 C 10.8 5.172 10.769 5.002 10.771 4.83 C 10.779 4.502 10.916 4.191 11.152 3.962 C 11.387 3.734 11.703 3.608 12.031 3.61 L 27.781 3.61 L 27.781 3.56 C 27.853 3.253 27.94 2.949 28.041 2.65 L 28.091 2.51 L 6.531 2.51 Z" fill="currentColor" fill-rule="nonzero"/>
</svg>
