<svg xmlns="http://www.w3.org/2000/svg" width="40.026" height="37.170" viewBox="0 0 40.026 37.170" fill="none">
  <path d="M 1.016 21.75 C 1.58 22.359 2.274 22.834 3.045 23.142 C 3.816 23.45 4.647 23.583 5.476 23.53 C 5.476 23.53 9.556 23.44 11.096 23.53 C 11.156 23.532 11.215 23.547 11.269 23.574 C 11.323 23.6 11.371 23.638 11.41 23.684 C 11.448 23.73 11.477 23.784 11.493 23.842 C 11.51 23.9 11.514 23.96 11.506 24.02 C 11.206 26.18 10.656 29.41 10.296 31.02 C 9.386 35.18 11.206 36.57 12.896 37.02 C 13.247 37.117 13.611 37.167 13.976 37.17 C 16.836 37.17 17.746 34.29 18.136 33.06 C 20.996 24.06 26.566 21.15 26.806 21.06 C 27.216 20.855 27.563 20.542 27.808 20.154 C 28.053 19.766 28.187 19.319 28.196 18.86 C 28.196 17.73 28.306 7.86 28.256 6.54 L 28.256 6.4 C 28.298 5.546 28.055 4.701 27.564 4 C 27.073 3.3 26.363 2.782 25.546 2.53 C 23.766 1.79 15.676 0.04 8.066 0 L 8.016 0 C 4.376 0 3.316 2 2.796 3.68 C 2.576 4.43 2.036 7.27 0.926 13.36 C 0.616 15.04 0.336 16.53 0.176 17.36 C -0.025 18.108 -0.054 18.891 0.091 19.652 C 0.237 20.412 0.553 21.129 1.016 21.75 Z M 2.576 17.8 C 3.106 15.03 4.816 5.41 5.136 4.34 C 5.456 3.27 5.816 2.43 8.016 2.43 C 15.266 2.43 23.066 4.15 24.566 4.77 C 25.786 5.28 25.706 5.77 25.746 6.59 C 25.746 7.66 25.746 15.4 25.696 17.96 C 25.692 18.2 25.629 18.435 25.512 18.644 C 25.395 18.854 25.228 19.031 25.026 19.16 C 23.256 20.26 18.376 23.95 15.736 32.29 C 15.186 34.03 14.736 34.66 13.946 34.66 C 13.787 34.659 13.629 34.639 13.476 34.6 C 12.216 34.28 12.376 33 12.696 31.6 C 13.086 29.82 13.696 26.19 13.996 23.93 C 14.166 22.62 13.996 21.05 11.216 21.05 L 5.476 21.05 C 3.876 21.01 2.066 20.58 2.596 17.8 L 2.576 17.8 Z M 32.486 23.19 C 32.589 23.2 32.692 23.2 32.796 23.19 C 34.436 23.19 36.076 23.19 37.716 23.19 C 37.968 23.191 38.22 23.161 38.466 23.1 C 38.919 22.983 39.319 22.715 39.6 22.341 C 39.882 21.967 40.028 21.508 40.016 21.04 L 40.016 12.04 C 40.016 9.027 40.016 6 40.016 2.96 C 40.03 2.817 40.03 2.673 40.016 2.53 C 39.933 2.024 39.67 1.566 39.274 1.24 C 38.878 0.914 38.378 0.744 37.866 0.76 L 32.866 0.76 C 32.588 0.738 32.308 0.771 32.043 0.857 C 31.778 0.944 31.533 1.081 31.321 1.262 C 31.11 1.443 30.936 1.665 30.809 1.913 C 30.683 2.161 30.607 2.432 30.586 2.71 C 30.576 2.816 30.576 2.924 30.586 3.03 L 30.586 20.91 C 30.541 21.466 30.718 22.018 31.077 22.444 C 31.437 22.871 31.95 23.139 32.506 23.19 L 32.486 23.19 Z M 35.276 3.75 C 35.499 3.745 35.721 3.783 35.929 3.864 C 36.138 3.945 36.328 4.065 36.489 4.219 C 36.651 4.374 36.781 4.558 36.871 4.762 C 36.961 4.967 37.01 5.187 37.016 5.41 C 37.005 5.852 36.825 6.274 36.512 6.587 C 36.199 6.9 35.778 7.08 35.336 7.09 C 34.891 7.085 34.466 6.904 34.153 6.588 C 33.841 6.272 33.666 5.845 33.666 5.4 C 33.671 4.967 33.843 4.554 34.147 4.246 C 34.451 3.938 34.863 3.76 35.296 3.75 L 35.276 3.75 Z" fill="currentColor" fill-rule="nonzero"/>
</svg>
