<svg xmlns="http://www.w3.org/2000/svg" width="40" height="40" viewBox="0 0 40 40" fill="none">
  <path d="M 19 34 L 19 21 L 12.56 21 C 12.27 25.09 15.89 32.37 19 34 Z M 4.73 21 C 4.932 24.344 6.231 27.528 8.426 30.059 C 10.621 32.59 13.588 34.326 16.87 35 C 12.998 31.339 10.691 26.323 10.43 21 L 4.73 21 Z M 20 0 C 16.044 0 12.178 1.173 8.889 3.371 C 5.6 5.568 3.036 8.692 1.522 12.346 C 0.009 16.001 -0.387 20.022 0.384 23.902 C 1.156 27.781 3.061 31.345 5.858 34.142 C 8.655 36.939 12.219 38.844 16.098 39.616 C 19.978 40.387 23.999 39.991 27.654 38.478 C 31.308 36.964 34.432 34.4 36.629 31.111 C 38.827 27.822 40 23.956 40 20 C 40 17.374 39.483 14.773 38.478 12.346 C 37.473 9.92 35.999 7.715 34.142 5.858 C 32.285 4.001 30.08 2.528 27.654 1.522 C 25.227 0.517 22.626 0 20 0 Z M 20 37.42 C 16.546 37.416 13.171 36.388 10.301 34.465 C 7.432 32.542 5.197 29.812 3.88 26.619 C 2.562 23.425 2.222 19.913 2.901 16.527 C 3.58 13.14 5.249 10.031 7.695 7.593 C 10.142 5.154 13.257 3.497 16.646 2.829 C 20.035 2.162 23.546 2.514 26.734 3.843 C 29.923 5.171 32.645 7.415 34.558 10.291 C 36.471 13.167 37.488 16.546 37.48 20 C 37.433 24.616 35.574 29.028 32.305 32.287 C 29.035 35.545 24.616 37.389 20 37.42 Z M 12.3 11.13 C 13.404 8.782 14.96 6.675 16.88 4.93 C 10.88 6.19 4.78 11.93 4.73 18.93 L 10.43 18.93 C 10.546 16.234 11.181 13.586 12.3 11.13 Z M 12.6 18.92 L 19 18.92 L 19 5.87 C 15.45 8.33 11.89 15.55 12.6 18.92 Z M 23.18 35 C 29.7 33.85 35.32 27.41 35.26 21 L 29.61 21 C 29.357 26.322 27.053 31.34 23.18 35 Z M 35.33 18.92 C 35.26 11.85 29.06 5.92 23.23 4.92 C 27.078 8.593 29.366 13.606 29.62 18.92 L 35.33 18.92 Z M 21.07 21 L 21.07 34.07 C 22.987 32.464 24.554 30.482 25.674 28.245 C 26.794 26.009 27.442 23.567 27.58 21.07 L 21.07 21 Z M 21 5.92 L 21 18.76 C 20.998 18.787 20.998 18.813 21 18.84 L 21 18.92 L 27.43 18.92 C 27.6 14.49 24 7.19 21 5.92 Z" fill="currentColor" fill-rule="nonzero"/>
</svg>
