<svg xmlns="http://www.w3.org/2000/svg" width="29.402" height="29.402" viewBox="0 0 29.402 29.402" fill="none">
  <path d="M 17.526 14.696 L 28.816 3.416 C 29.191 3.041 29.402 2.532 29.402 2.001 C 29.402 1.47 29.191 0.961 28.816 0.586 C 28.441 0.211 27.932 0 27.401 0 C 26.87 0 26.361 0.211 25.986 0.586 L 14.696 11.866 L 3.416 0.586 C 3.23 0.4 3.01 0.253 2.767 0.152 C 2.524 0.052 2.264 0 2.001 0 C 1.738 0 1.478 0.052 1.235 0.152 C 0.993 0.253 0.772 0.4 0.586 0.586 C 0.4 0.772 0.253 0.993 0.152 1.235 C 0.052 1.478 0 1.738 0 2.001 C 0 2.264 0.052 2.524 0.152 2.767 C 0.253 3.01 0.4 3.23 0.586 3.416 L 11.876 14.696 L 0.586 25.986 C 0.308 26.266 0.118 26.623 0.042 27.011 C -0.034 27.398 0.006 27.8 0.158 28.165 C 0.31 28.53 0.567 28.841 0.896 29.061 C 1.224 29.28 1.611 29.396 2.006 29.396 C 2.534 29.397 3.041 29.188 3.416 28.816 L 14.696 17.526 L 25.986 28.816 C 26.361 29.191 26.87 29.402 27.401 29.402 C 27.932 29.402 28.441 29.191 28.816 28.816 C 29.191 28.441 29.402 27.932 29.402 27.401 C 29.402 26.87 29.191 26.361 28.816 25.986 L 17.526 14.696 Z" fill="currentColor" fill-rule="nonzero"/>
</svg>
