<svg xmlns="http://www.w3.org/2000/svg" width="28.702" height="40.000" viewBox="0 0 28.702 40.000" fill="none">
  <path d="M 24.612 4.28 C 21.855 1.67 18.245 0.149 14.452 0 L 14.332 0 C 10.504 0.115 6.851 1.627 4.062 4.25 C 2.705 5.626 1.645 7.266 0.948 9.069 C 0.251 10.872 -0.067 12.799 0.012 14.73 C 0.012 23.73 12.372 39.58 14.012 39.96 C 14.235 40.013 14.468 40.013 14.692 39.96 C 16.312 39.58 28.692 23.7 28.692 14.73 C 28.765 12.801 28.44 10.879 27.738 9.081 C 27.036 7.283 25.972 5.649 24.612 4.28 Z M 14.332 20.57 C 12.741 20.57 11.214 19.938 10.089 18.813 C 8.964 17.687 8.332 16.161 8.332 14.57 C 8.332 13.383 8.684 12.223 9.343 11.237 C 10.002 10.25 10.939 9.481 12.036 9.027 C 13.132 8.573 14.339 8.454 15.502 8.685 C 16.666 8.917 17.735 9.488 18.575 10.327 C 19.414 11.166 19.985 12.236 20.217 13.399 C 20.448 14.563 20.329 15.77 19.875 16.866 C 19.421 17.962 18.652 18.9 17.665 19.559 C 16.679 20.218 15.519 20.57 14.332 20.57 Z" fill="currentColor" fill-rule="nonzero"/>
</svg>
