<svg xmlns="http://www.w3.org/2000/svg" width="38.884" height="40.000" viewBox="0 0 38.884 40.000" fill="none">
  <path d="M 25.85 20.26 L 22.02 24.74 L 21.59 29.74 L 26.43 28.47 L 31.08 23.09 L 35.94 17.44 L 31.54 13.65 L 25.85 20.26 Z M 38.85 12.78 C 38.819 12.527 38.73 12.284 38.59 12.07 C 38.481 11.823 38.321 11.601 38.12 11.42 C 38.059 11.344 37.984 11.279 37.9 11.23 L 37.5 10.87 C 37.359 10.729 37.188 10.619 37 10.55 C 36.822 10.442 36.625 10.367 36.42 10.33 C 36.403 10.338 36.384 10.341 36.365 10.341 C 36.346 10.341 36.327 10.338 36.31 10.33 C 35.918 10.24 35.512 10.24 35.12 10.33 C 34.884 10.404 34.657 10.501 34.44 10.62 C 34.29 10.708 34.155 10.819 34.04 10.95 L 33.86 11.13 L 32.94 12.21 L 37.32 16 L 37.4 16 L 38.23 15 C 38.649 14.533 38.881 13.928 38.88 13.3 C 38.891 13.126 38.881 12.952 38.85 12.78 Z M 19.35 32.41 L 20.08 23.93 L 24.33 18.93 L 31.94 10.14 L 31.94 4.25 C 31.94 3.689 31.829 3.133 31.613 2.614 C 31.397 2.096 31.08 1.626 30.681 1.231 C 30.282 0.836 29.809 0.523 29.289 0.312 C 28.768 0.101 28.211 -0.005 27.65 0 L 4.24 0 C 3.682 0 3.13 0.11 2.615 0.324 C 2.1 0.538 1.632 0.851 1.238 1.246 C 0.844 1.64 0.532 2.109 0.32 2.625 C 0.107 3.14 -0.001 3.693 0 4.25 L 0 35.75 C -0.001 36.308 0.107 36.86 0.32 37.376 C 0.532 37.891 0.844 38.36 1.238 38.755 C 1.632 39.15 2.1 39.463 2.615 39.676 C 3.13 39.89 3.682 40 4.24 40 L 27.65 40 C 28.211 40.005 28.768 39.899 29.289 39.688 C 29.809 39.477 30.282 39.165 30.681 38.77 C 31.08 38.374 31.397 37.904 31.613 37.386 C 31.829 36.868 31.94 36.312 31.94 35.75 L 31.94 25.22 L 27.57 30.27 L 19.35 32.41 Z M 6.48 6.62 L 25.4 6.62 C 25.711 6.648 26 6.791 26.211 7.022 C 26.422 7.252 26.538 7.553 26.538 7.865 C 26.538 8.177 26.422 8.478 26.211 8.709 C 26 8.939 25.711 9.082 25.4 9.11 L 6.48 9.11 C 6.169 9.082 5.88 8.939 5.669 8.709 C 5.459 8.478 5.342 8.177 5.342 7.865 C 5.342 7.553 5.459 7.252 5.669 7.022 C 5.88 6.791 6.169 6.648 6.48 6.62 Z M 15.69 33.73 L 6.48 33.73 C 6.169 33.702 5.88 33.559 5.669 33.329 C 5.459 33.098 5.342 32.797 5.342 32.485 C 5.342 32.173 5.459 31.872 5.669 31.642 C 5.88 31.411 6.169 31.268 6.48 31.24 L 15.48 31.24 C 15.644 31.239 15.806 31.27 15.958 31.332 C 16.109 31.393 16.247 31.485 16.363 31.6 C 16.48 31.715 16.572 31.852 16.635 32.003 C 16.698 32.154 16.73 32.317 16.73 32.48 C 16.75 33.17 16.38 33.73 15.69 33.73 Z M 5.24 27.59 C 5.239 27.427 5.27 27.264 5.332 27.113 C 5.393 26.961 5.484 26.823 5.6 26.707 C 5.715 26.591 5.852 26.498 6.003 26.436 C 6.154 26.373 6.316 26.34 6.48 26.34 L 14.7 26.34 C 15.032 26.34 15.349 26.472 15.584 26.706 C 15.818 26.941 15.95 27.259 15.95 27.59 C 15.95 27.922 15.818 28.24 15.584 28.474 C 15.349 28.708 15.032 28.84 14.7 28.84 L 6.48 28.84 C 6.316 28.84 6.154 28.808 6.003 28.745 C 5.852 28.682 5.715 28.59 5.6 28.473 C 5.484 28.357 5.393 28.219 5.332 28.068 C 5.27 27.916 5.239 27.754 5.24 27.59 Z M 17.42 23.94 L 6.42 23.94 C 6.109 23.912 5.82 23.769 5.609 23.539 C 5.399 23.308 5.282 23.007 5.282 22.695 C 5.282 22.383 5.399 22.082 5.609 21.852 C 5.82 21.621 6.109 21.478 6.42 21.45 L 17.42 21.45 C 17.731 21.478 18.02 21.621 18.231 21.852 C 18.442 22.082 18.558 22.383 18.558 22.695 C 18.558 23.007 18.442 23.308 18.231 23.539 C 18.02 23.769 17.731 23.912 17.42 23.94 Z M 6.94 13.72 C 6.629 13.692 6.34 13.549 6.129 13.319 C 5.919 13.088 5.802 12.787 5.802 12.475 C 5.802 12.163 5.919 11.862 6.129 11.632 C 6.34 11.401 6.629 11.258 6.94 11.23 L 19.16 11.23 C 19.333 11.215 19.507 11.235 19.672 11.291 C 19.836 11.346 19.987 11.436 20.115 11.553 C 20.243 11.67 20.346 11.812 20.416 11.971 C 20.486 12.13 20.522 12.302 20.522 12.475 C 20.522 12.649 20.486 12.82 20.416 12.979 C 20.346 13.138 20.243 13.281 20.115 13.398 C 19.987 13.515 19.836 13.604 19.672 13.66 C 19.507 13.715 19.333 13.736 19.16 13.72 L 6.94 13.72 Z" fill="currentColor" fill-rule="nonzero"/>
</svg>
