<svg xmlns="http://www.w3.org/2000/svg" width="35.963" height="35.123" viewBox="0 0 35.963 35.123" fill="none">
  <path d="M 28.002 35.12 C 26.503 35.089 25.014 34.863 23.572 34.45 L 23.422 34.45 C 18.912 32.88 14.942 30.22 10.132 25.54 C 5.322 20.86 1.552 15.21 0.432 10.82 C 0.293 10.457 0.202 10.077 0.162 9.69 C -0.087 8.612 -0.049 7.488 0.272 6.43 C 0.575 4.791 1.383 3.288 2.582 2.13 C 3.16 1.468 3.871 0.936 4.669 0.569 C 5.467 0.202 6.334 0.008 7.212 0 C 9.412 0 11.772 1.13 14.212 3.38 C 18.292 7.38 18.832 11.52 15.682 14.73 C 15.459 14.974 15.219 15.202 14.962 15.41 C 14.957 15.421 14.954 15.433 14.954 15.445 C 14.954 15.457 14.957 15.469 14.962 15.48 C 14.961 15.496 14.965 15.511 14.972 15.525 C 14.979 15.539 14.989 15.551 15.002 15.56 L 17.492 18.17 C 18.492 19.12 19.572 20.05 20.442 20.79 C 20.452 20.794 20.462 20.797 20.472 20.797 C 20.483 20.797 20.493 20.794 20.502 20.79 C 20.513 20.795 20.525 20.797 20.537 20.797 C 20.549 20.797 20.561 20.795 20.572 20.79 L 21.212 20.03 C 21.914 19.218 22.824 18.613 23.844 18.28 C 24.865 17.947 25.956 17.899 27.002 18.14 C 29.041 18.759 30.876 19.916 32.312 21.49 C 33.944 22.863 35.148 24.674 35.782 26.71 C 36.056 27.795 36.018 28.936 35.672 30 C 35.347 31.016 34.773 31.934 34.002 32.67 C 33.228 33.474 32.295 34.108 31.261 34.53 C 30.228 34.952 29.118 35.153 28.002 35.12 Z M 7.322 2.77 C 6.782 2.785 6.252 2.916 5.767 3.154 C 5.282 3.392 4.854 3.732 4.512 4.15 C 3.693 4.974 3.128 6.015 2.882 7.15 C 2.692 7.851 2.664 8.587 2.802 9.3 C 2.844 9.584 2.908 9.865 2.992 10.14 C 3.992 13.97 7.382 19.14 11.932 23.52 C 17.562 28.92 21.272 30.7 24.152 31.73 C 25.36 32.078 26.606 32.273 27.862 32.31 C 28.607 32.349 29.351 32.224 30.042 31.944 C 30.733 31.664 31.354 31.236 31.862 30.69 C 32.323 30.279 32.661 29.748 32.837 29.157 C 33.014 28.565 33.022 27.936 32.862 27.34 C 32.332 25.814 31.403 24.457 30.172 23.41 C 29.069 22.237 27.695 21.352 26.172 20.83 C 25.949 20.782 25.721 20.758 25.492 20.76 C 24.996 20.758 24.506 20.865 24.057 21.075 C 23.608 21.284 23.21 21.59 22.892 21.97 C 22.417 22.427 22.027 22.965 21.742 23.56 L 21.052 24.92 C 21.045 24.937 21.033 24.951 21.02 24.964 C 21.006 24.976 20.99 24.985 20.972 24.99 L 20.872 24.99 L 19.682 24.05 C 18.112 22.87 16.625 21.584 15.232 20.2 C 13.911 18.906 12.666 17.537 11.502 16.1 L 10.502 14.92 L 10.502 14.74 L 11.862 14 C 12.429 13.66 12.952 13.254 13.422 12.79 C 15.422 10.71 14.962 8.28 11.972 5.35 C 10.292 3.63 8.712 2.77 7.322 2.77 Z" fill="currentColor" fill-rule="nonzero"/>
</svg>
