<svg xmlns="http://www.w3.org/2000/svg" width="40.027" height="40" viewBox="0 0 40.027 40" fill="none">
  <path d="M 39.668 18.895 L 34.148 13.375 C 34.033 13.256 33.894 13.161 33.742 13.096 C 33.589 13.032 33.424 12.998 33.258 12.998 C 33.092 12.998 32.928 13.032 32.775 13.096 C 32.622 13.161 32.484 13.256 32.368 13.375 L 26.848 18.895 C 26.729 19.011 26.635 19.149 26.57 19.302 C 26.505 19.455 26.472 19.619 26.472 19.785 C 26.472 19.951 26.505 20.115 26.57 20.268 C 26.635 20.421 26.729 20.559 26.848 20.675 C 27.085 20.911 27.405 21.043 27.738 21.043 C 28.072 21.043 28.392 20.911 28.628 20.675 L 32.028 17.305 L 32.028 25.645 C 32.027 25.811 32.059 25.975 32.123 26.128 C 32.186 26.281 32.28 26.419 32.398 26.535 C 32.515 26.653 32.654 26.746 32.806 26.809 C 32.959 26.873 33.123 26.905 33.288 26.905 C 33.623 26.905 33.943 26.772 34.179 26.536 C 34.416 26.3 34.548 25.979 34.548 25.645 L 34.548 17.305 L 37.918 20.675 C 38.158 20.893 38.472 21.011 38.796 21.003 C 39.12 20.996 39.429 20.864 39.658 20.635 C 39.887 20.406 40.019 20.097 40.027 19.773 C 40.034 19.449 39.917 19.135 39.698 18.895 L 39.668 18.895 Z M 33.668 30.895 C 31.818 33.195 29.416 34.988 26.685 36.108 C 23.954 37.228 20.984 37.638 18.052 37.3 C 15.12 36.961 12.321 35.885 9.917 34.172 C 7.514 32.459 5.583 30.165 4.306 27.504 C 3.029 24.843 2.447 21.902 2.614 18.955 C 2.781 16.008 3.693 13.152 5.263 10.652 C 6.833 8.153 9.01 6.092 11.592 4.662 C 14.174 3.232 17.077 2.48 20.028 2.475 C 22.656 2.475 25.25 3.07 27.616 4.214 C 29.982 5.359 32.058 7.024 33.688 9.085 C 33.798 9.22 33.936 9.331 34.091 9.411 C 34.247 9.49 34.417 9.536 34.591 9.545 C 34.766 9.555 34.94 9.527 35.103 9.465 C 35.266 9.403 35.414 9.308 35.538 9.185 C 35.754 8.972 35.884 8.688 35.904 8.386 C 35.924 8.084 35.833 7.785 35.648 7.545 C 33.065 4.299 29.536 1.937 25.55 0.786 C 21.565 -0.366 17.32 -0.249 13.403 1.119 C 9.487 2.488 6.093 5.04 3.692 8.423 C 1.29 11.806 0 15.851 0 20 C 0 24.149 1.29 28.194 3.692 31.577 C 6.093 34.96 9.487 37.512 13.403 38.881 C 17.32 40.249 21.565 40.366 25.55 39.214 C 29.536 38.063 33.065 35.701 35.648 32.455 C 35.849 32.21 35.951 31.9 35.936 31.585 C 35.922 31.269 35.791 30.97 35.568 30.745 C 35.443 30.617 35.292 30.517 35.125 30.452 C 34.958 30.387 34.78 30.358 34.601 30.368 C 34.422 30.377 34.247 30.424 34.088 30.507 C 33.929 30.589 33.789 30.704 33.678 30.845 L 33.668 30.895 Z M 19.668 30.485 C 19.884 30.482 20.09 30.395 20.242 30.241 C 20.393 30.088 20.478 29.881 20.478 29.665 L 20.478 27.765 C 21.588 27.659 22.619 27.145 23.373 26.323 C 24.126 25.502 24.549 24.43 24.558 23.315 C 24.558 21.025 23.218 19.685 20.558 18.575 C 18.338 17.575 17.368 16.945 17.368 15.575 C 17.368 14.575 18.108 13.355 20.108 13.355 C 20.944 13.354 21.773 13.514 22.548 13.825 C 22.658 13.872 22.776 13.897 22.895 13.898 C 23.014 13.899 23.132 13.875 23.242 13.83 C 23.352 13.784 23.452 13.717 23.535 13.632 C 23.619 13.547 23.685 13.446 23.728 13.335 C 23.814 13.105 23.806 12.851 23.707 12.627 C 23.608 12.403 23.426 12.226 23.198 12.135 C 22.376 11.824 21.507 11.655 20.628 11.635 L 20.628 9.955 C 20.628 9.74 20.543 9.534 20.391 9.382 C 20.239 9.23 20.033 9.145 19.818 9.145 C 19.608 9.153 19.408 9.241 19.261 9.392 C 19.114 9.543 19.031 9.744 19.028 9.955 L 19.028 11.735 C 17.95 11.799 16.937 12.27 16.194 13.054 C 15.451 13.838 15.034 14.875 15.028 15.955 C 15.028 18.255 16.658 19.435 19.328 20.475 C 21.248 21.285 22.328 22.175 22.328 23.585 C 22.328 24.995 21.028 26.065 19.218 26.065 C 18.229 26.048 17.254 25.834 16.348 25.435 C 16.232 25.38 16.105 25.351 15.976 25.349 C 15.848 25.347 15.72 25.373 15.602 25.424 C 15.484 25.475 15.378 25.55 15.291 25.645 C 15.204 25.74 15.139 25.853 15.098 25.975 C 15.026 26.196 15.039 26.436 15.133 26.648 C 15.227 26.86 15.396 27.03 15.608 27.125 C 16.63 27.578 17.731 27.823 18.848 27.845 L 18.848 29.615 C 18.848 29.831 18.933 30.038 19.085 30.191 C 19.237 30.345 19.443 30.432 19.658 30.435 L 19.668 30.485 Z" fill="currentColor" fill-rule="nonzero"/>
</svg>
