<svg xmlns="http://www.w3.org/2000/svg" width="35.806" height="36" viewBox="0 0 35.806 36" fill="none">
  <path d="M 20.06 0 C 20.59 0 21.1 0.211 21.475 0.586 C 21.85 0.961 22.06 1.47 22.06 2 C 22.06 2.53 21.85 3.039 21.475 3.414 C 21.1 3.789 20.59 4 20.06 4 L 3.99 4 L 3.99 32 L 20.06 32 C 20.59 32 21.1 32.211 21.475 32.586 C 21.85 32.961 22.06 33.47 22.06 34 C 22.06 34.53 21.85 35.039 21.475 35.414 C 21.1 35.789 20.59 36 20.06 36 L 0 36 L 0 0 L 20.06 0 Z M 25.768 7.872 C 26.043 7.883 26.313 7.95 26.562 8.07 C 26.81 8.19 27.031 8.361 27.21 8.57 L 35.21 16.57 C 35.399 16.756 35.549 16.978 35.651 17.223 C 35.754 17.467 35.807 17.73 35.807 17.995 C 35.807 18.26 35.754 18.523 35.651 18.768 C 35.549 19.012 35.399 19.234 35.21 19.42 L 27.21 27.42 C 27.028 27.62 26.806 27.782 26.56 27.895 C 26.313 28.007 26.046 28.068 25.775 28.074 C 25.505 28.08 25.236 28.031 24.984 27.93 C 24.733 27.829 24.505 27.678 24.313 27.486 C 24.122 27.294 23.972 27.065 23.872 26.813 C 23.772 26.562 23.723 26.292 23.73 26.021 C 23.738 25.751 23.8 25.484 23.913 25.238 C 23.998 25.054 24.11 24.883 24.246 24.733 L 28.979 20 L 12.17 20 C 11.773 20.002 11.384 19.886 11.053 19.667 C 10.722 19.447 10.464 19.133 10.312 18.767 C 10.159 18.4 10.119 17.996 10.197 17.606 C 10.275 17.217 10.468 16.86 10.75 16.58 C 10.937 16.395 11.159 16.248 11.402 16.148 C 11.646 16.049 11.907 15.998 12.17 16 L 28.979 16 L 24.39 11.39 C 24.18 11.21 24.011 10.99 23.891 10.742 C 23.771 10.494 23.703 10.224 23.692 9.948 C 23.682 9.673 23.728 9.398 23.828 9.142 C 23.929 8.885 24.082 8.652 24.276 8.457 C 24.471 8.262 24.704 8.109 24.961 8.009 C 25.217 7.908 25.492 7.861 25.768 7.872 Z" fill="currentColor" fill-rule="nonzero"/>
</svg>
