<svg xmlns="http://www.w3.org/2000/svg" width="40" height="31.700" viewBox="0 0 40 31.700" fill="none">
  <path d="M 8 6.5 C 8.6 6.5 9.1 6.1 9.1 5.5 C 9.1 4.9 8.7 4.4 8.1 4.4 C 7.5 4.4 7 4.8 7 5.4 C 7 5.4 7 5.4 7 5.5 C 7 6 7.4 6.4 8 6.5 Z M 24.8 6.5 C 25.4 6.5 25.9 6 25.9 5.4 C 25.9 4.8 25.4 4.3 24.8 4.3 C 24.2 4.3 23.7 4.8 23.7 5.4 C 23.7 6 24.2 6.5 24.8 6.5 Z M 20.9 27 L 3.7 27 C 2.9 27 2.3 26.4 2.3 25.6 L 2.3 12.4 L 30.6 12.4 L 30.6 12.9 C 30.6 13.5 31.1 14 31.7 14 C 32.3 14 32.8 13.5 32.8 12.9 L 32.8 3.7 C 32.8 1.7 31.2 0.1 29.2 0 L 25.8 0 L 25.8 2.8 C 27.2 3.4 27.9 4.9 27.3 6.3 C 26.7 7.7 25.2 8.4 23.8 7.8 C 22.4 7.2 21.7 5.7 22.3 4.3 C 22.6 3.6 23.1 3 23.8 2.8 L 23.8 0.1 L 9 0.1 L 9 2.9 C 10.4 3.5 11.1 5 10.5 6.4 C 9.9 7.8 8.4 8.5 7 7.9 C 5.6 7.3 4.9 5.8 5.5 4.4 C 5.8 3.7 6.3 3.1 7 2.9 L 7 0.1 L 3.6 0.1 C 1.6 0.1 0 1.7 0 3.8 L 0 25.7 C 0 27.7 1.6 29.3 3.6 29.3 L 20.8 29.3 C 21.4 29.3 21.9 28.8 21.9 28.2 C 22 27.6 21.5 27 20.9 27 Z M 32 15.6 C 27.6 15.6 23.9 19.1 23.9 23.6 C 23.9 28 27.4 31.7 31.9 31.7 L 32 31.7 C 36.4 31.7 40 28.1 40 23.7 C 40 19.3 36.4 15.6 32 15.6 Z M 35.4 22.5 L 31.5 26.1 C 31.4 26.2 31.2 26.3 31 26.3 L 30.9 26.3 C 30.7 26.3 30.5 26.2 30.4 26 L 29 24.3 C 28.7 24 28.8 23.5 29.1 23.2 C 29.4 22.9 29.9 23 30.2 23.3 L 31 24.4 L 34.3 21.4 C 34.6 21.1 35.1 21.1 35.4 21.4 C 35.7 21.8 35.6 22.2 35.4 22.5 Z" fill="currentColor" fill-rule="nonzero"/>
</svg>
