<svg xmlns="http://www.w3.org/2000/svg" width="39.961" height="27.438" viewBox="0 0 39.961 27.438" fill="none">
  <path d="M 11.509 0.141 C 12.454 -0.047 13.428 -0.047 14.374 0.142 C 15.319 0.33 16.219 0.703 17.02 1.238 C 18.63 2.32 19.746 3.996 20.121 5.899 C 20.496 7.802 20.1 9.776 19.02 11.388 C 18.475 12.203 17.776 12.903 16.961 13.448 C 18.805 14.009 20.506 14.962 21.949 16.24 C 23.392 17.519 24.542 19.094 25.32 20.857 C 25.649 21.563 25.794 22.341 25.74 23.118 C 25.686 23.895 25.434 24.645 25.01 25.298 C 24.598 25.963 24.02 26.51 23.333 26.885 C 22.646 27.26 21.873 27.45 21.091 27.437 L 4.64 27.437 C 3.862 27.439 3.095 27.245 2.412 26.872 C 1.728 26.499 1.149 25.959 0.729 25.303 C 0.31 24.647 0.063 23.896 0.01 23.119 C -0.042 22.342 0.102 21.564 0.43 20.857 C 1.244 19.105 2.414 17.54 3.865 16.265 C 5.316 14.989 7.018 14.03 8.86 13.448 C 7.241 12.366 6.119 10.684 5.739 8.774 C 5.551 7.829 5.551 6.856 5.739 5.91 C 5.927 4.964 6.3 4.064 6.836 3.263 C 7.371 2.461 8.059 1.773 8.861 1.237 C 9.663 0.702 10.563 0.329 11.509 0.141 Z M 12.81 15.195 C 10.642 15.195 8.519 15.82 6.696 16.994 C 4.873 18.168 3.427 19.843 2.53 21.817 C 2.386 22.161 2.328 22.534 2.362 22.905 C 2.396 23.276 2.521 23.633 2.725 23.944 C 2.93 24.255 3.208 24.512 3.535 24.69 C 3.862 24.869 4.228 24.964 4.6 24.968 L 21.121 24.968 C 21.487 24.972 21.849 24.882 22.171 24.707 C 22.493 24.532 22.765 24.277 22.961 23.968 L 22.99 23.918 C 23.2 23.612 23.321 23.253 23.339 22.882 C 23.356 22.511 23.27 22.142 23.091 21.817 C 22.194 19.843 20.747 18.168 18.925 16.994 C 17.102 15.82 14.979 15.195 12.81 15.195 Z M 34.65 12.088 C 34.915 12.088 35.17 12.193 35.357 12.381 C 35.545 12.568 35.65 12.823 35.65 13.088 C 35.65 13.353 35.545 13.607 35.357 13.795 C 35.17 13.982 34.915 14.088 34.65 14.088 L 24.14 14.088 C 23.875 14.088 23.621 13.982 23.433 13.795 C 23.246 13.607 23.14 13.353 23.14 13.088 C 23.14 12.823 23.246 12.568 23.433 12.381 C 23.621 12.193 23.875 12.088 24.14 12.088 L 34.65 12.088 Z M 13.852 2.46 C 12.893 2.272 11.898 2.373 10.996 2.75 C 10.094 3.127 9.323 3.763 8.783 4.578 C 8.243 5.393 7.957 6.35 7.961 7.328 C 7.981 8.63 8.509 9.872 9.431 10.791 C 10.354 11.71 11.598 12.232 12.9 12.248 C 13.878 12.248 14.834 11.958 15.647 11.414 C 16.46 10.87 17.093 10.097 17.467 9.193 C 17.84 8.29 17.936 7.296 17.744 6.337 C 17.552 5.378 17.079 4.498 16.386 3.808 C 15.694 3.118 14.812 2.648 13.852 2.46 Z M 38.961 7.428 C 39.226 7.428 39.48 7.533 39.668 7.721 C 39.855 7.908 39.961 8.163 39.961 8.428 C 39.961 8.693 39.855 8.947 39.668 9.135 C 39.48 9.322 39.226 9.428 38.961 9.428 L 24.15 9.428 C 23.885 9.428 23.631 9.322 23.443 9.135 C 23.256 8.947 23.15 8.693 23.15 8.428 C 23.15 8.163 23.256 7.908 23.443 7.721 C 23.631 7.533 23.885 7.428 24.15 7.428 L 38.961 7.428 Z M 38.961 2.748 C 39.226 2.748 39.48 2.853 39.668 3.041 C 39.855 3.229 39.961 3.483 39.961 3.748 C 39.961 4.013 39.855 4.268 39.668 4.455 C 39.48 4.643 39.226 4.748 38.961 4.748 L 38.961 4.808 L 24.15 4.808 C 23.877 4.807 23.616 4.699 23.423 4.506 C 23.23 4.313 23.121 4.051 23.121 3.778 C 23.121 3.505 23.229 3.243 23.423 3.05 C 23.616 2.857 23.877 2.748 24.15 2.748 L 38.961 2.748 Z" fill="currentColor" fill-rule="nonzero"/>
</svg>
