<svg xmlns="http://www.w3.org/2000/svg" width="40" height="32.920" viewBox="0 0 40 32.920" fill="none">
  <path d="M 34.67 4.14 L 36.75 4.14 C 38.72 4.14 40 5.65 40 7.99 L 40 29.07 C 40 30.091 39.594 31.07 38.872 31.792 C 38.15 32.514 37.171 32.92 36.15 32.92 L 3.85 32.92 C 2.829 32.92 1.85 32.514 1.128 31.792 C 0.406 31.07 0 30.091 0 29.07 L 0 7.99 C 0.003 6.97 0.409 5.992 1.131 5.271 C 1.852 4.549 2.83 4.143 3.85 4.14 L 20.69 4.14 C 20.772 4.14 20.851 4.107 20.909 4.049 C 20.967 3.991 21 3.912 21 3.83 L 21 3.55 L 21 2.87 C 21.003 2.11 21.306 1.381 21.844 0.844 C 22.381 0.306 23.11 0.003 23.87 0 L 31.49 0 C 32.25 0.003 32.979 0.306 33.516 0.844 C 34.054 1.381 34.357 2.11 34.36 2.87 L 34.36 2.93 L 34.36 3.83 C 34.36 3.871 34.368 3.911 34.384 3.949 C 34.399 3.986 34.422 4.02 34.451 4.049 C 34.48 4.078 34.514 4.101 34.551 4.116 C 34.589 4.132 34.629 4.14 34.67 4.14 Z M 37.335 29.563 C 37.399 29.406 37.431 29.239 37.43 29.07 L 37.43 8 C 37.43 6.72 36.97 6.72 36.75 6.72 L 34.67 6.72 C 33.908 6.717 33.178 6.413 32.64 5.873 C 32.102 5.333 31.8 4.602 31.8 3.84 L 31.8 3.42 L 31.8 2.87 C 31.8 2.788 31.767 2.709 31.709 2.651 C 31.651 2.593 31.572 2.56 31.49 2.56 L 23.87 2.56 C 23.788 2.56 23.709 2.593 23.651 2.651 C 23.593 2.709 23.56 2.788 23.56 2.87 L 23.56 3.07 L 23.56 3.83 C 23.56 4.594 23.257 5.326 22.716 5.866 C 22.176 6.407 21.444 6.71 20.68 6.71 L 3.85 6.71 C 3.511 6.71 3.185 6.845 2.945 7.085 C 2.705 7.325 2.57 7.651 2.57 7.99 L 2.57 29.07 C 2.569 29.239 2.601 29.406 2.665 29.563 C 2.728 29.719 2.822 29.862 2.941 29.982 C 3.06 30.101 3.202 30.197 3.358 30.262 C 3.514 30.327 3.681 30.36 3.85 30.36 L 36.15 30.36 C 36.319 30.36 36.486 30.327 36.642 30.262 C 36.798 30.197 36.94 30.101 37.059 29.982 C 37.178 29.862 37.272 29.719 37.335 29.563 Z M 14.867 10.857 C 16.386 9.842 18.173 9.3 20 9.3 C 22.451 9.3 24.801 10.273 26.534 12.006 C 28.267 13.739 29.24 16.089 29.24 18.54 C 29.24 20.367 28.698 22.154 27.683 23.673 C 26.667 25.193 25.224 26.377 23.536 27.077 C 21.848 27.776 19.99 27.959 18.197 27.602 C 16.405 27.246 14.759 26.366 13.466 25.074 C 12.174 23.781 11.294 22.135 10.938 20.343 C 10.581 18.55 10.764 16.692 11.463 15.004 C 12.163 13.316 13.347 11.873 14.867 10.857 Z M 16.403 23.924 C 17.468 24.634 18.72 25.012 20 25.01 C 21.714 25.007 23.357 24.325 24.569 23.111 C 25.78 21.898 26.46 20.254 26.46 18.54 C 26.46 17.26 26.08 16.009 25.369 14.944 C 24.658 13.88 23.646 13.051 22.464 12.562 C 21.281 12.072 19.979 11.945 18.724 12.195 C 17.469 12.446 16.316 13.063 15.411 13.969 C 14.507 14.874 13.892 16.028 13.643 17.284 C 13.395 18.54 13.524 19.841 14.015 21.023 C 14.507 22.205 15.337 23.215 16.403 23.924 Z" fill="currentColor" fill-rule="evenodd"/>
</svg>
