<svg xmlns="http://www.w3.org/2000/svg" width="40" height="40" viewBox="0 0 40 40" fill="none">
  <path d="M 0 20 C 0 16.044 1.173 12.178 3.371 8.889 C 5.568 5.6 8.692 3.036 12.346 1.522 C 16.001 0.009 20.022 -0.387 23.902 0.384 C 27.781 1.156 31.345 3.061 34.142 5.858 C 36.939 8.655 38.844 12.219 39.616 16.098 C 40.387 19.978 39.991 23.999 38.478 27.654 C 36.964 31.308 34.4 34.432 31.111 36.629 C 27.822 38.827 23.956 40 20 40 C 17.374 40 14.773 39.483 12.346 38.478 C 9.92 37.473 7.715 35.999 5.858 34.142 C 2.107 30.391 0 25.304 0 20 Z M 2.52 20 C 2.52 23.457 3.545 26.837 5.466 29.711 C 7.387 32.586 10.117 34.826 13.311 36.149 C 16.505 37.472 20.019 37.819 23.41 37.144 C 26.801 36.47 29.916 34.805 32.36 32.36 C 34.805 29.916 36.47 26.801 37.144 23.41 C 37.819 20.019 37.472 16.505 36.149 13.311 C 34.826 10.117 32.586 7.387 29.711 5.466 C 26.837 3.545 23.457 2.52 20 2.52 C 15.366 2.528 10.925 4.372 7.649 7.649 C 4.372 10.925 2.528 15.366 2.52 20 Z M 18.82 29.66 L 18.82 27.89 C 17.703 27.868 16.601 27.623 15.58 27.17 C 15.363 27.075 15.191 26.902 15.096 26.685 C 15.001 26.468 14.992 26.223 15.07 26 C 15.11 25.878 15.176 25.765 15.263 25.67 C 15.349 25.575 15.455 25.5 15.574 25.449 C 15.692 25.398 15.819 25.372 15.948 25.374 C 16.077 25.376 16.203 25.405 16.32 25.46 C 17.225 25.859 18.201 26.073 19.19 26.09 C 21.04 26.09 22.3 25.09 22.3 23.57 C 22.3 22.05 21.3 21.27 19.3 20.46 C 16.63 19.46 15 18.24 15 15.94 C 15.023 14.872 15.448 13.852 16.189 13.083 C 16.93 12.314 17.934 11.853 19 11.79 L 19 10 C 19.003 9.784 19.09 9.578 19.244 9.427 C 19.397 9.275 19.604 9.19 19.82 9.19 C 20.035 9.19 20.241 9.275 20.393 9.427 C 20.545 9.579 20.63 9.785 20.63 10 L 20.63 11.71 C 21.509 11.73 22.378 11.899 23.2 12.21 C 23.427 12.301 23.61 12.478 23.709 12.702 C 23.808 12.926 23.815 13.18 23.73 13.41 C 23.685 13.521 23.619 13.622 23.534 13.707 C 23.45 13.792 23.349 13.86 23.238 13.905 C 23.127 13.951 23.008 13.974 22.889 13.973 C 22.769 13.972 22.65 13.947 22.54 13.9 C 21.768 13.588 20.943 13.428 20.11 13.43 C 18.11 13.43 17.37 14.61 17.37 15.65 C 17.37 16.98 18.37 17.65 20.56 18.65 C 23.23 19.76 24.56 21.1 24.56 23.39 C 24.55 24.505 24.128 25.577 23.374 26.398 C 22.621 27.22 21.59 27.734 20.48 27.84 L 20.48 29.69 C 20.48 29.906 20.395 30.113 20.243 30.266 C 20.092 30.42 19.886 30.507 19.67 30.51 C 19.557 30.514 19.445 30.495 19.34 30.454 C 19.235 30.413 19.139 30.35 19.06 30.27 C 18.98 30.191 18.917 30.095 18.876 29.99 C 18.835 29.885 18.816 29.773 18.82 29.66 Z" fill="currentColor" fill-rule="nonzero"/>
</svg>
