<svg xmlns="http://www.w3.org/2000/svg" width="39.980" height="36.391" viewBox="0 0 39.980 36.391" fill="none">
  <path d="M 39.796 34.533 C 34.176 24.243 28.546 14.033 22.926 3.743 L 21.296 0.743 C 21.172 0.518 20.989 0.33 20.768 0.2 C 20.546 0.069 20.294 0 20.036 0 C 19.779 0 19.527 0.069 19.305 0.2 C 19.083 0.33 18.901 0.518 18.776 0.743 C 15.886 5.973 12.996 11.153 10.116 16.403 L 0.196 34.463 C 0.167 34.503 0.144 34.547 0.126 34.593 C -0.013 34.869 -0.038 35.189 0.057 35.483 C 0.153 35.777 0.361 36.022 0.636 36.163 C 0.938 36.34 1.288 36.417 1.636 36.383 L 38.756 36.383 C 38.958 36.372 39.154 36.313 39.328 36.21 C 39.502 36.107 39.649 35.964 39.756 35.793 C 39.894 35.613 39.972 35.395 39.979 35.169 C 39.986 34.943 39.922 34.721 39.796 34.533 Z M 18.496 14.463 C 18.555 14.107 18.737 13.784 19.012 13.55 C 19.287 13.317 19.636 13.189 19.996 13.189 C 20.357 13.189 20.706 13.317 20.98 13.55 C 21.255 13.784 21.438 14.107 21.496 14.463 L 21.496 23.103 C 21.438 23.459 21.255 23.782 20.98 24.016 C 20.706 24.249 20.357 24.377 19.996 24.377 C 19.636 24.377 19.287 24.249 19.012 24.016 C 18.737 23.782 18.555 23.459 18.496 23.103 L 18.496 14.463 Z M 21.996 28.393 C 21.996 28.923 21.786 29.432 21.411 29.807 C 21.035 30.182 20.527 30.393 19.996 30.393 C 19.466 30.393 18.957 30.182 18.582 29.807 C 18.207 29.432 17.996 28.923 17.996 28.393 C 18.088 27.941 18.333 27.534 18.691 27.242 C 19.048 26.95 19.495 26.791 19.956 26.791 C 20.418 26.791 20.865 26.95 21.222 27.242 C 21.579 27.534 21.825 27.941 21.916 28.393 L 21.996 28.393 Z" fill="currentColor" fill-rule="nonzero"/>
</svg>
