<svg xmlns="http://www.w3.org/2000/svg" width="35.160" height="40" viewBox="0 0 35.160 40" fill="none">
  <path d="M 31.78 20.33 L 31.78 4.23 C 31.78 3.108 31.334 2.032 30.541 1.239 C 29.748 0.446 28.672 0 27.55 0 L 4.23 0 C 3.108 0 2.032 0.446 1.239 1.239 C 0.446 2.032 0 3.108 0 4.23 L 0 35.56 C 0.003 36.68 0.449 37.753 1.242 38.545 C 2.035 39.336 3.11 39.78 4.23 39.78 L 21.41 39.78 C 23.08 40.111 24.802 40.068 26.453 39.653 C 28.104 39.239 29.643 38.463 30.958 37.382 C 32.273 36.302 33.332 34.943 34.059 33.403 C 34.785 31.864 35.161 30.182 35.16 28.48 C 35.161 26.966 34.864 25.466 34.283 24.068 C 33.703 22.669 32.853 21.399 31.78 20.33 Z M 9.11 9.4 L 22.54 9.4 C 22.834 9.4 23.117 9.517 23.325 9.725 C 23.533 9.933 23.65 10.216 23.65 10.51 C 23.65 10.804 23.533 11.087 23.325 11.295 C 23.117 11.503 22.834 11.62 22.54 11.62 L 9.11 11.62 C 8.816 11.62 8.533 11.503 8.325 11.295 C 8.117 11.087 8 10.804 8 10.51 C 8 10.216 8.117 9.933 8.325 9.725 C 8.533 9.517 8.816 9.4 9.11 9.4 Z M 9.11 14.31 L 22.54 14.31 C 22.817 14.336 23.075 14.465 23.263 14.671 C 23.45 14.878 23.554 15.146 23.554 15.425 C 23.554 15.704 23.45 15.972 23.263 16.179 C 23.075 16.385 22.817 16.514 22.54 16.54 L 9.11 16.54 C 8.955 16.555 8.798 16.537 8.65 16.488 C 8.502 16.438 8.366 16.358 8.251 16.253 C 8.135 16.149 8.043 16.021 7.98 15.878 C 7.917 15.735 7.884 15.581 7.884 15.425 C 7.884 15.269 7.917 15.115 7.98 14.972 C 8.043 14.829 8.135 14.701 8.251 14.597 C 8.366 14.492 8.502 14.412 8.65 14.362 C 8.798 14.313 8.955 14.295 9.11 14.31 Z M 9.11 19.23 L 16.97 19.23 C 16.101 19.859 15.323 20.607 14.66 21.45 L 9.11 21.45 C 8.816 21.45 8.533 21.333 8.325 21.125 C 8.117 20.917 8 20.634 8 20.34 C 8 20.046 8.117 19.763 8.325 19.555 C 8.533 19.347 8.816 19.23 9.11 19.23 Z M 9.11 31.29 C 8.955 31.305 8.798 31.287 8.65 31.238 C 8.502 31.188 8.366 31.108 8.251 31.003 C 8.135 30.899 8.043 30.771 7.98 30.628 C 7.917 30.485 7.884 30.331 7.884 30.175 C 7.884 30.019 7.917 29.865 7.98 29.722 C 8.043 29.579 8.135 29.451 8.251 29.347 C 8.366 29.242 8.502 29.162 8.65 29.112 C 8.798 29.063 8.955 29.045 9.11 29.06 L 12.26 29.06 C 12.288 29.813 12.399 30.561 12.59 31.29 L 9.11 31.29 Z M 12.43 26.37 L 9.11 26.37 C 8.955 26.385 8.798 26.367 8.65 26.318 C 8.502 26.268 8.366 26.188 8.251 26.083 C 8.135 25.979 8.043 25.851 7.98 25.708 C 7.917 25.565 7.884 25.411 7.884 25.255 C 7.884 25.099 7.917 24.945 7.98 24.802 C 8.043 24.659 8.135 24.531 8.251 24.427 C 8.366 24.322 8.502 24.242 8.65 24.192 C 8.798 24.143 8.955 24.125 9.11 24.14 L 13.11 24.14 C 12.811 24.86 12.584 25.606 12.43 26.37 Z M 23.63 38.15 C 21.718 38.148 19.849 37.579 18.26 36.515 C 16.671 35.452 15.434 33.941 14.703 32.174 C 13.973 30.406 13.783 28.462 14.157 26.587 C 14.531 24.712 15.453 22.99 16.806 21.639 C 18.159 20.287 19.882 19.367 21.757 18.995 C 23.633 18.623 25.576 18.815 27.343 19.547 C 29.109 20.279 30.619 21.519 31.681 23.109 C 32.743 24.699 33.31 26.568 33.31 28.48 C 33.31 29.751 33.06 31.009 32.573 32.183 C 32.086 33.357 31.373 34.423 30.474 35.321 C 29.575 36.219 28.508 36.931 27.334 37.417 C 26.159 37.902 24.901 38.151 23.63 38.15 Z M 24.9 22 L 23.09 20.77 C 22.839 20.602 22.532 20.54 22.236 20.598 C 21.94 20.656 21.679 20.83 21.51 21.08 C 21.389 21.258 21.32 21.465 21.31 21.68 C 21.006 23.105 20.44 24.462 19.64 25.68 C 19.07 26.68 17.97 29.37 19.25 31.4 C 20.07 32.69 21.63 33.4 23.91 33.4 C 23.757 34.078 23.563 34.745 23.33 35.4 C 23.265 35.596 23.279 35.81 23.369 35.997 C 23.458 36.183 23.616 36.328 23.81 36.4 C 23.899 36.414 23.991 36.414 24.08 36.4 C 24.241 36.425 24.406 36.4 24.553 36.328 C 24.699 36.257 24.82 36.142 24.9 36 C 25.21 35.141 25.451 34.258 25.62 33.36 C 28.3 33.01 29.15 31.45 29.42 30.5 C 30.12 27.87 28.17 24.13 24.9 22 Z M 27.81 30.07 C 27.67 30.507 27.407 30.894 27.052 31.185 C 26.697 31.476 26.266 31.659 25.81 31.71 C 26.088 29.525 25.742 27.306 24.81 25.31 C 24.759 25.218 24.69 25.137 24.607 25.072 C 24.525 25.006 24.43 24.958 24.329 24.929 C 24.228 24.9 24.122 24.892 24.018 24.904 C 23.913 24.916 23.812 24.949 23.72 25 C 23.628 25.051 23.547 25.12 23.482 25.203 C 23.416 25.285 23.368 25.38 23.339 25.481 C 23.31 25.582 23.302 25.688 23.314 25.792 C 23.326 25.897 23.359 25.998 23.41 26.09 C 23.79 26.888 24.04 27.743 24.15 28.62 C 24.29 29.689 24.29 30.771 24.15 31.84 C 22.79 31.84 21.23 31.57 20.58 30.55 C 19.74 29.21 20.58 27.1 21.02 26.45 C 21.867 25.261 22.503 23.935 22.9 22.53 L 24.09 23.34 C 26.7 25.05 28.44 28.14 27.89 30.08 L 27.81 30.07 Z" fill="currentColor" fill-rule="nonzero"/>
</svg>
