<svg xmlns="http://www.w3.org/2000/svg" width="40" height="40" viewBox="0 0 40 40" fill="none">
  <path d="M 20 0 C 16.044 0 12.178 1.173 8.889 3.371 C 5.6 5.568 3.036 8.692 1.522 12.346 C 0.009 16.001 -0.387 20.022 0.384 23.902 C 1.156 27.781 3.061 31.345 5.858 34.142 C 8.655 36.939 12.219 38.844 16.098 39.616 C 19.978 40.387 23.999 39.991 27.654 38.478 C 31.308 36.964 34.432 34.4 36.629 31.111 C 38.827 27.822 40 23.956 40 20 C 40 17.374 39.483 14.773 38.478 12.346 C 37.473 9.92 35.999 7.715 34.142 5.858 C 32.285 4.001 30.08 2.528 27.654 1.522 C 25.227 0.517 22.626 0 20 0 Z M 18.15 27.26 C 18.119 27.648 17.942 28.011 17.656 28.275 C 17.37 28.539 16.995 28.686 16.605 28.686 C 16.215 28.686 15.84 28.539 15.554 28.275 C 15.268 28.011 15.091 27.648 15.06 27.26 L 15.06 12.74 C 15.059 12.537 15.099 12.335 15.178 12.148 C 15.257 11.96 15.373 11.791 15.52 11.65 C 15.735 11.434 16.01 11.287 16.309 11.228 C 16.608 11.168 16.918 11.198 17.2 11.315 C 17.481 11.432 17.722 11.63 17.891 11.883 C 18.06 12.137 18.15 12.435 18.15 12.74 L 18.15 27.26 Z M 24.94 27.26 C 24.941 27.463 24.901 27.665 24.822 27.852 C 24.743 28.04 24.627 28.209 24.48 28.35 C 24.265 28.566 23.99 28.713 23.691 28.772 C 23.392 28.832 23.082 28.802 22.8 28.685 C 22.519 28.568 22.278 28.37 22.109 28.117 C 21.94 27.863 21.85 27.565 21.85 27.26 L 21.85 12.74 C 21.881 12.352 22.058 11.989 22.344 11.725 C 22.63 11.461 23.005 11.314 23.395 11.314 C 23.785 11.314 24.16 11.461 24.446 11.725 C 24.732 11.989 24.909 12.352 24.94 12.74 L 24.94 27.26 Z" fill="currentColor" fill-rule="nonzero"/>
</svg>
