<svg xmlns="http://www.w3.org/2000/svg" width="26.660" height="40" viewBox="0 0 26.660 40" fill="none">
  <path d="M 22.66 0 C 23.721 0 24.738 0.422 25.488 1.172 C 26.238 1.922 26.66 2.939 26.66 4 L 26.66 36 C 26.66 37.061 26.238 38.078 25.488 38.828 C 24.738 39.578 23.721 40 22.66 40 L 4 40 C 2.939 40 1.922 39.578 1.172 38.828 C 0.422 38.078 0 37.061 0 36 L 0 4 C 0 2.939 0.422 1.922 1.172 1.172 C 1.922 0.422 2.939 0 4 0 L 22.66 0 Z M 4 2.7 C 3.832 2.703 3.666 2.738 3.512 2.805 C 3.357 2.871 3.218 2.968 3.101 3.089 C 2.984 3.21 2.892 3.352 2.83 3.509 C 2.768 3.665 2.738 3.832 2.74 4 L 2.74 36 C 2.745 36.332 2.88 36.648 3.115 36.882 C 3.351 37.115 3.668 37.247 4 37.25 L 22.66 37.25 C 22.992 37.25 23.31 37.118 23.544 36.884 C 23.778 36.649 23.91 36.331 23.91 36 L 23.91 4 C 23.914 3.833 23.885 3.666 23.824 3.51 C 23.763 3.354 23.672 3.211 23.556 3.09 C 23.439 2.969 23.3 2.873 23.146 2.806 C 22.993 2.739 22.828 2.703 22.66 2.7 L 4 2.7 Z M 19.17 20.87 C 19.577 20.87 19.976 20.991 20.314 21.217 C 20.653 21.443 20.917 21.765 21.073 22.142 C 21.229 22.518 21.27 22.932 21.19 23.332 C 21.111 23.732 20.915 24.099 20.627 24.387 C 20.339 24.675 19.972 24.871 19.572 24.95 C 19.173 25.03 18.758 24.989 18.382 24.833 C 18.005 24.677 17.683 24.413 17.457 24.074 C 17.231 23.736 17.11 23.337 17.11 22.93 C 17.116 22.385 17.334 21.865 17.719 21.479 C 18.104 21.094 18.625 20.875 19.17 20.87 Z M 16.99 11.88 L 16.99 14.57 L 9.67 14.57 L 9.67 11.88 L 16.99 11.88 Z" fill="currentColor" fill-rule="nonzero"/>
</svg>
