<svg xmlns="http://www.w3.org/2000/svg" width="29.420" height="39.967" viewBox="0 0 29.420 39.967" fill="none">
  <path d="M 25.1 4.311 C 23.044 2.253 20.424 0.851 17.571 0.283 C 14.718 -0.285 11.76 0.006 9.073 1.12 C 6.386 2.233 4.089 4.119 2.474 6.538 C 0.859 8.958 -0.002 11.802 0 14.711 C 0 23.201 9.71 35.471 12.65 39.001 C 12.902 39.303 13.216 39.546 13.572 39.713 C 13.928 39.88 14.317 39.967 14.71 39.967 C 15.103 39.967 15.492 39.88 15.848 39.713 C 16.204 39.546 16.518 39.303 16.77 39.001 C 17.77 37.811 19.48 35.661 21.35 33.001 L 21.46 32.841 L 21.56 32.701 C 22.62 31.151 23.7 29.461 24.7 27.701 C 24.791 27.56 24.851 27.401 24.879 27.235 C 24.906 27.07 24.9 26.9 24.86 26.737 C 24.819 26.574 24.747 26.42 24.645 26.286 C 24.544 26.152 24.417 26.04 24.271 25.957 C 24.125 25.873 23.964 25.82 23.797 25.801 C 23.63 25.782 23.461 25.797 23.3 25.845 C 23.139 25.893 22.99 25.973 22.861 26.081 C 22.732 26.189 22.626 26.321 22.55 26.471 C 21.55 28.221 20.45 29.911 19.39 31.471 L 19.3 31.601 L 19.21 31.731 C 17.29 34.451 15.58 36.551 14.87 37.411 C 14.849 37.433 14.825 37.45 14.797 37.462 C 14.77 37.474 14.74 37.48 14.71 37.48 C 14.68 37.48 14.65 37.474 14.623 37.462 C 14.595 37.45 14.571 37.433 14.55 37.411 C 12.54 35.001 2.48 22.561 2.48 14.701 C 2.488 11.461 3.779 8.356 6.071 6.065 C 8.364 3.775 11.47 2.486 14.71 2.481 C 17.952 2.486 21.06 3.777 23.352 6.069 C 25.645 8.361 26.935 11.469 26.94 14.711 C 26.877 16.378 26.539 18.024 25.94 19.581 L 21.28 19.581 L 16.48 14.781 L 21.65 9.611 L 19.88 7.851 L 14.71 13.001 L 9.54 7.841 L 7.77 9.601 L 12.94 14.771 L 7.77 20.001 L 9.54 21.771 L 14.71 16.551 L 20.24 22.081 L 27.65 22.081 C 28.703 19.759 29.304 17.258 29.42 14.711 C 29.425 12.778 29.045 10.863 28.304 9.077 C 27.562 7.292 26.473 5.672 25.1 4.311 Z" fill="currentColor" fill-rule="nonzero"/>
</svg>
