<svg xmlns="http://www.w3.org/2000/svg" width="25.820" height="40.036" viewBox="0 0 25.820 40.036" fill="none">
  <path d="M 12.912 35.15 C 13.386 35.151 13.842 35.338 14.177 35.674 C 14.513 36.01 14.702 36.466 14.702 36.94 L 14.702 38.29 C 14.69 38.765 14.489 39.216 14.145 39.543 C 13.801 39.87 13.34 40.047 12.866 40.035 C 12.391 40.023 11.941 39.823 11.614 39.479 C 11.287 39.134 11.11 38.675 11.121 38.2 L 11.121 36.94 C 11.121 36.466 11.309 36.01 11.645 35.674 C 11.981 35.338 12.437 35.15 12.912 35.15 Z M 1.278 35.197 C 1.694 34.967 2.184 34.91 2.641 35.04 C 3.098 35.164 3.488 35.464 3.726 35.874 C 3.964 36.284 4.031 36.772 3.912 37.23 L 3.521 38.47 C 3.414 38.844 3.189 39.174 2.878 39.408 C 2.568 39.643 2.19 39.769 1.801 39.77 C 1.632 39.772 1.463 39.749 1.301 39.7 C 1.074 39.636 0.862 39.526 0.677 39.38 C 0.493 39.233 0.339 39.052 0.225 38.846 C 0.111 38.639 0.037 38.412 0.011 38.178 C -0.015 37.944 0.005 37.707 0.071 37.48 L 0.421 36.27 C 0.554 35.813 0.862 35.428 1.278 35.197 Z M 23.208 35.126 C 23.647 34.999 24.118 35.043 24.525 35.25 C 24.932 35.457 25.245 35.811 25.401 36.24 L 25.751 37.45 C 25.881 37.909 25.824 38.401 25.594 38.818 C 25.364 39.236 24.978 39.545 24.521 39.68 C 24.358 39.723 24.19 39.747 24.021 39.75 C 23.633 39.746 23.256 39.618 22.947 39.384 C 22.637 39.15 22.411 38.823 22.301 38.45 L 21.951 37.24 C 21.853 36.794 21.929 36.327 22.162 35.935 C 22.396 35.542 22.77 35.253 23.208 35.126 Z M 12.912 27.88 C 13.387 27.883 13.842 28.074 14.177 28.411 C 14.512 28.748 14.701 29.204 14.702 29.68 L 14.702 31.03 C 14.69 31.505 14.489 31.955 14.145 32.282 C 13.801 32.609 13.34 32.787 12.866 32.775 C 12.391 32.763 11.941 32.563 11.614 32.219 C 11.287 31.875 11.11 31.415 11.121 30.94 L 11.121 29.68 C 11.122 29.204 11.31 28.748 11.645 28.411 C 11.98 28.074 12.436 27.883 12.912 27.88 Z M 21.561 27.98 C 22.02 27.848 22.513 27.902 22.931 28.133 C 23.349 28.363 23.659 28.751 23.791 29.21 L 24.131 30.42 C 24.197 30.646 24.217 30.882 24.192 31.116 C 24.166 31.35 24.094 31.577 23.981 31.783 C 23.868 31.989 23.715 32.171 23.532 32.318 C 23.348 32.465 23.136 32.574 22.911 32.64 C 22.684 32.707 22.447 32.729 22.212 32.704 C 21.977 32.679 21.749 32.608 21.541 32.494 C 21.334 32.381 21.152 32.227 21.004 32.043 C 20.857 31.859 20.746 31.647 20.681 31.42 L 20.331 30.21 C 20.199 29.751 20.253 29.258 20.484 28.84 C 20.714 28.422 21.102 28.113 21.561 27.98 Z M 2.887 28.137 C 3.303 27.906 3.794 27.851 4.251 27.98 C 4.708 28.113 5.093 28.42 5.324 28.836 C 5.554 29.252 5.611 29.743 5.481 30.2 L 5.131 31.41 C 5.025 31.784 4.799 32.113 4.489 32.348 C 4.178 32.582 3.8 32.71 3.412 32.71 C 3.243 32.707 3.075 32.683 2.912 32.64 C 2.455 32.507 2.069 32.199 1.838 31.783 C 1.608 31.367 1.551 30.877 1.681 30.42 L 2.031 29.21 C 2.163 28.753 2.471 28.367 2.887 28.137 Z M 20.655 20.885 C 20.889 20.911 21.116 20.983 21.323 21.097 C 21.529 21.21 21.711 21.364 21.859 21.548 C 22.006 21.732 22.115 21.943 22.181 22.17 L 22.521 23.38 C 22.587 23.606 22.607 23.842 22.581 24.076 C 22.556 24.31 22.485 24.537 22.371 24.743 C 22.258 24.949 22.105 25.131 21.921 25.278 C 21.738 25.425 21.527 25.534 21.301 25.6 C 21.139 25.651 20.971 25.678 20.801 25.68 C 20.412 25.679 20.033 25.553 19.723 25.318 C 19.413 25.084 19.188 24.754 19.081 24.38 L 18.731 23.17 C 18.665 22.943 18.645 22.706 18.671 22.472 C 18.697 22.237 18.769 22.01 18.883 21.804 C 18.997 21.597 19.15 21.415 19.334 21.268 C 19.518 21.12 19.73 21.011 19.956 20.945 C 20.183 20.88 20.42 20.859 20.655 20.885 Z M 4.547 21.097 C 4.963 20.866 5.453 20.811 5.911 20.94 C 6.367 21.073 6.753 21.38 6.984 21.796 C 7.214 22.212 7.271 22.703 7.141 23.16 L 6.791 24.37 C 6.685 24.744 6.459 25.073 6.149 25.308 C 5.838 25.542 5.46 25.67 5.071 25.67 C 4.902 25.672 4.733 25.648 4.571 25.6 C 4.114 25.467 3.729 25.16 3.498 24.744 C 3.268 24.328 3.211 23.837 3.341 23.38 L 3.691 22.17 C 3.823 21.713 4.131 21.327 4.547 21.097 Z M 12.911 20.62 C 13.146 20.62 13.379 20.666 13.596 20.756 C 13.813 20.846 14.011 20.978 14.177 21.145 C 14.343 21.311 14.475 21.508 14.565 21.725 C 14.655 21.942 14.701 22.175 14.701 22.41 L 14.701 23.67 C 14.701 24.145 14.513 24.6 14.177 24.936 C 13.841 25.271 13.385 25.46 12.911 25.46 C 12.436 25.46 11.98 25.271 11.645 24.936 C 11.309 24.6 11.121 24.145 11.121 23.67 L 11.121 22.41 C 11.121 21.936 11.309 21.48 11.645 21.145 C 11.98 20.809 12.436 20.62 12.911 20.62 Z M 12.912 0 C 13.386 0 13.842 0.189 14.177 0.524 C 14.513 0.86 14.702 1.315 14.702 1.79 L 14.702 11.65 L 21.011 11.65 C 21.388 11.651 21.759 11.742 22.093 11.916 C 22.427 12.09 22.715 12.342 22.931 12.65 L 24.301 14.59 C 24.581 14.988 24.731 15.463 24.731 15.95 C 24.731 16.571 24.484 17.166 24.045 17.604 C 23.606 18.043 23.012 18.29 22.391 18.29 L 3.391 18.29 L 3.391 18.3 C 2.904 18.304 2.427 18.153 2.031 17.87 C 1.526 17.51 1.185 16.965 1.081 16.354 C 0.978 15.743 1.122 15.116 1.481 14.61 L 2.851 12.66 C 3.067 12.352 3.355 12.1 3.689 11.926 C 4.023 11.752 4.394 11.661 4.771 11.66 L 11.121 11.66 L 11.121 1.79 C 11.121 1.315 11.309 0.86 11.645 0.524 C 11.981 0.189 12.437 0 12.912 0 Z" fill="currentColor" fill-rule="nonzero"/>
</svg>
