<svg xmlns="http://www.w3.org/2000/svg" width="39.008" height="40.000" viewBox="0 0 39.008 40.000" fill="none">
  <path d="M 6.48 33.73 L 15.69 33.73 C 16.38 33.73 16.75 33.17 16.75 32.48 C 16.75 32.151 16.619 31.836 16.387 31.603 C 16.154 31.371 15.839 31.24 15.51 31.24 L 6.51 31.24 C 6.199 31.268 5.91 31.411 5.699 31.642 C 5.489 31.872 5.372 32.173 5.372 32.485 C 5.372 32.797 5.489 33.098 5.699 33.328 C 5.91 33.559 6.199 33.702 6.51 33.73 L 6.48 33.73 Z M 18.67 22.73 C 18.671 22.566 18.64 22.404 18.578 22.252 C 18.517 22.101 18.426 21.963 18.31 21.847 C 18.195 21.731 18.058 21.638 17.907 21.575 C 17.756 21.512 17.594 21.48 17.43 21.48 L 6.43 21.48 C 6.257 21.464 6.083 21.485 5.918 21.541 C 5.754 21.596 5.603 21.685 5.475 21.802 C 5.347 21.92 5.244 22.062 5.174 22.221 C 5.104 22.38 5.068 22.551 5.068 22.725 C 5.068 22.899 5.104 23.07 5.174 23.229 C 5.244 23.388 5.347 23.53 5.475 23.648 C 5.603 23.765 5.754 23.854 5.918 23.909 C 6.083 23.965 6.257 23.986 6.43 23.97 L 17.42 23.97 C 17.586 23.97 17.75 23.937 17.903 23.873 C 18.056 23.809 18.195 23.715 18.311 23.597 C 18.427 23.479 18.519 23.338 18.581 23.184 C 18.642 23.031 18.673 22.866 18.67 22.7 L 18.67 22.73 Z M 30.67 29.73 C 30.503 29.729 30.338 29.761 30.184 29.824 C 30.03 29.888 29.89 29.981 29.772 30.1 C 29.655 30.218 29.563 30.359 29.5 30.513 C 29.438 30.668 29.407 30.833 29.41 31 L 29.41 35.76 C 29.41 36.224 29.226 36.669 28.897 36.997 C 28.569 37.326 28.124 37.51 27.66 37.51 L 4.25 37.51 C 3.786 37.51 3.341 37.326 3.013 36.997 C 2.684 36.669 2.5 36.224 2.5 35.76 L 2.5 4.25 C 2.5 3.786 2.684 3.341 3.013 3.013 C 3.341 2.684 3.786 2.5 4.25 2.5 L 27.66 2.5 C 28.124 2.5 28.569 2.684 28.897 3.013 C 29.226 3.341 29.41 3.786 29.41 4.25 L 29.41 6.39 C 29.41 6.722 29.542 7.039 29.776 7.274 C 30.011 7.508 30.328 7.64 30.66 7.64 C 30.992 7.64 31.309 7.508 31.544 7.274 C 31.778 7.039 31.91 6.722 31.91 6.39 L 31.91 4.25 C 31.91 3.123 31.462 2.042 30.665 1.245 C 29.868 0.448 28.787 0 27.66 0 L 4.25 0 C 3.123 0 2.042 0.448 1.245 1.245 C 0.448 2.042 0 3.123 0 4.25 L 0 35.75 C 0 36.877 0.448 37.958 1.245 38.755 C 2.042 39.552 3.123 40 4.25 40 L 27.66 40 C 28.221 40.005 28.778 39.899 29.299 39.688 C 29.819 39.477 30.292 39.165 30.691 38.769 C 31.09 38.374 31.407 37.904 31.623 37.386 C 31.839 36.867 31.95 36.312 31.95 35.75 L 31.95 31 C 31.951 30.832 31.919 30.665 31.854 30.509 C 31.789 30.354 31.694 30.213 31.573 30.095 C 31.453 29.977 31.31 29.885 31.153 29.824 C 30.996 29.763 30.828 29.735 30.66 29.74 L 30.67 29.73 Z M 6.49 28.83 L 14.71 28.83 C 15.042 28.83 15.359 28.698 15.594 28.464 C 15.828 28.229 15.96 27.912 15.96 27.58 C 15.96 27.248 15.828 26.931 15.594 26.696 C 15.359 26.462 15.042 26.33 14.71 26.33 L 6.48 26.33 C 6.148 26.33 5.831 26.462 5.596 26.696 C 5.362 26.931 5.23 27.248 5.23 27.58 C 5.23 27.912 5.362 28.229 5.596 28.464 C 5.831 28.698 6.148 28.83 6.48 28.83 L 6.49 28.83 Z M 20.41 12.47 C 20.41 12.306 20.378 12.144 20.315 11.993 C 20.252 11.842 20.159 11.705 20.043 11.59 C 19.927 11.474 19.789 11.383 19.638 11.322 C 19.486 11.26 19.324 11.229 19.16 11.23 L 6.95 11.23 C 6.639 11.258 6.35 11.401 6.139 11.632 C 5.929 11.862 5.812 12.163 5.812 12.475 C 5.812 12.787 5.929 13.088 6.139 13.318 C 6.35 13.549 6.639 13.692 6.95 13.72 L 19.16 13.72 C 19.492 13.72 19.809 13.588 20.044 13.354 C 20.278 13.119 20.41 12.802 20.41 12.47 Z M 30.61 10.17 C 29.253 10.165 27.915 10.485 26.707 11.105 C 25.5 11.724 24.459 12.624 23.671 13.73 C 22.884 14.835 22.373 16.113 22.182 17.457 C 21.991 18.8 22.126 20.17 22.574 21.451 C 23.022 22.731 23.771 23.886 24.758 24.817 C 25.745 25.749 26.941 26.43 28.246 26.803 C 29.55 27.176 30.926 27.231 32.256 26.962 C 33.586 26.694 34.832 26.11 35.89 25.26 L 35.97 25.2 L 36.04 25.14 C 37.356 24.016 38.296 22.515 38.733 20.841 C 39.171 19.166 39.085 17.398 38.487 15.773 C 37.889 14.149 36.807 12.747 35.388 11.756 C 33.969 10.765 32.281 10.232 30.55 10.23 L 30.61 10.17 Z M 30.61 24.79 C 28.97 24.806 27.391 24.17 26.219 23.023 C 25.047 21.876 24.378 20.31 24.36 18.67 C 24.363 17.234 24.881 15.847 25.82 14.76 L 33.64 24 C 32.714 24.519 31.671 24.791 30.61 24.79 Z M 35.4 22.58 L 27.57 13.33 C 28.49 12.825 29.521 12.557 30.57 12.55 C 32.208 12.537 33.785 13.173 34.955 14.321 C 36.124 15.468 36.792 17.032 36.81 18.67 C 36.821 20.1 36.321 21.486 35.4 22.58 Z M 13.59 2.58 L 22.68 2.58 L 15.42 2.58 L 13.59 2.58 Z M 26.65 7.87 C 26.65 7.538 26.518 7.221 26.284 6.986 C 26.049 6.752 25.732 6.62 25.4 6.62 L 6.48 6.62 C 6.169 6.648 5.88 6.791 5.669 7.022 C 5.459 7.252 5.342 7.553 5.342 7.865 C 5.342 8.177 5.459 8.478 5.669 8.708 C 5.88 8.939 6.169 9.082 6.48 9.11 L 25.4 9.11 C 25.564 9.111 25.726 9.08 25.878 9.018 C 26.029 8.957 26.167 8.866 26.283 8.75 C 26.399 8.635 26.492 8.498 26.555 8.347 C 26.618 8.196 26.65 8.034 26.65 7.87 Z" fill="currentColor" fill-rule="nonzero"/>
</svg>
