<svg xmlns="http://www.w3.org/2000/svg" width="40.005" height="31.359" viewBox="0 0 40.005 31.359" fill="none">
  <path d="M 0.305 11.48 L 19.205 31.04 C 19.411 31.245 19.689 31.359 19.98 31.359 C 20.27 31.359 20.549 31.245 20.755 31.04 L 39.695 11.48 C 39.876 11.307 39.986 11.073 40.003 10.823 C 40.019 10.573 39.941 10.325 39.785 10.13 L 32.315 0.42 C 32.206 0.29 32.07 0.184 31.916 0.112 C 31.762 0.039 31.595 0.001 31.425 0 L 8.575 0 C 8.405 0.002 8.237 0.04 8.084 0.113 C 7.93 0.185 7.794 0.29 7.685 0.42 L 0.225 10.13 C 0.066 10.324 -0.013 10.571 0.002 10.821 C 0.017 11.071 0.125 11.306 0.305 11.48 Z M 28.305 11.82 L 36.465 11.82 L 22.935 25.69 L 28.305 11.82 Z M 19.995 27.24 L 14.135 11.83 L 25.875 11.83 L 19.995 27.24 Z M 19.995 2.82 L 25.295 9.69 L 14.755 9.69 L 19.995 2.82 Z M 12.895 8.53 L 10.485 2.11 L 17.825 2.11 L 12.895 8.53 Z M 22.185 2.11 L 29.515 2.11 L 27.115 8.54 L 22.185 2.11 Z M 11.775 11.83 L 17.065 25.69 L 3.645 11.83 L 11.775 11.83 Z M 36.715 9.69 L 29.075 9.69 L 31.555 2.93 L 36.715 9.69 Z M 8.445 2.99 L 10.935 9.75 L 3.285 9.75 L 8.445 2.99 Z" fill="currentColor" fill-rule="nonzero"/>
</svg>
