<svg xmlns="http://www.w3.org/2000/svg" width="32.562" height="35.879" viewBox="0 0 32.562 35.879" fill="none">
  <path d="M 26.084 23.079 C 25.22 23.083 24.366 23.262 23.573 23.605 C 22.781 23.949 22.067 24.451 21.474 25.079 L 12.704 18.979 C 12.768 18.629 12.801 18.275 12.804 17.919 C 12.799 17.568 12.769 17.217 12.714 16.869 L 21.554 10.979 C 22.684 12.116 24.197 12.791 25.798 12.872 C 27.399 12.952 28.973 12.433 30.211 11.415 C 31.45 10.397 32.264 8.954 32.495 7.368 C 32.726 5.781 32.357 4.166 31.46 2.837 C 30.563 1.508 29.203 0.562 27.645 0.183 C 26.088 -0.196 24.445 0.019 23.037 0.787 C 21.63 1.555 20.56 2.82 20.036 4.335 C 19.512 5.85 19.572 7.506 20.204 8.979 L 11.844 14.579 C 11.112 13.395 10.013 12.481 8.715 11.978 C 7.417 11.474 5.99 11.407 4.651 11.788 C 3.312 12.168 2.133 12.975 1.293 14.086 C 0.454 15.197 0 16.552 0 17.944 C 0 19.337 0.454 20.691 1.293 21.802 C 2.133 22.913 3.312 23.72 4.651 24.101 C 5.99 24.481 7.417 24.414 8.715 23.911 C 10.013 23.407 11.112 22.494 11.844 21.309 L 20.164 27.059 C 19.648 28.332 19.554 29.737 19.896 31.067 C 20.239 32.398 20.999 33.583 22.066 34.448 C 23.133 35.313 24.45 35.813 25.822 35.873 C 27.194 35.933 28.549 35.551 29.688 34.783 C 30.827 34.015 31.689 32.902 32.147 31.607 C 32.605 30.312 32.635 28.904 32.232 27.59 C 31.83 26.277 31.016 25.128 29.911 24.312 C 28.806 23.496 27.468 23.057 26.094 23.059 L 26.084 23.079 Z M 26.084 2.459 C 26.875 2.459 27.648 2.694 28.306 3.133 C 28.964 3.573 29.477 4.198 29.779 4.928 C 30.082 5.659 30.161 6.464 30.007 7.24 C 29.853 8.016 29.472 8.728 28.912 9.288 C 28.353 9.847 27.64 10.228 26.864 10.382 C 26.088 10.537 25.284 10.457 24.553 10.155 C 23.822 9.852 23.198 9.339 22.758 8.682 C 22.319 8.024 22.084 7.25 22.084 6.459 C 22.084 5.398 22.505 4.381 23.256 3.631 C 24.006 2.881 25.023 2.459 26.084 2.459 Z M 6.394 21.889 C 5.603 21.889 4.829 21.655 4.172 21.215 C 3.514 20.776 3.001 20.151 2.698 19.42 C 2.396 18.689 2.316 17.885 2.471 17.109 C 2.625 16.333 3.006 15.62 3.566 15.061 C 4.125 14.501 4.838 14.12 5.614 13.966 C 6.39 13.812 7.194 13.891 7.925 14.194 C 8.656 14.496 9.28 15.009 9.72 15.667 C 10.159 16.325 10.394 17.098 10.394 17.889 C 10.394 18.95 9.973 19.968 9.222 20.718 C 8.472 21.468 7.455 21.889 6.394 21.889 Z M 26.084 33.459 C 25.293 33.459 24.519 33.225 23.862 32.785 C 23.204 32.346 22.691 31.721 22.388 30.99 C 22.086 30.259 22.006 29.455 22.161 28.679 C 22.315 27.903 22.696 27.19 23.256 26.631 C 23.815 26.071 24.528 25.69 25.304 25.536 C 26.08 25.382 26.884 25.461 27.615 25.764 C 28.346 26.066 28.97 26.579 29.41 27.237 C 29.849 27.895 30.084 28.668 30.084 29.459 C 30.084 30.52 29.663 31.538 28.912 32.288 C 28.162 33.038 27.145 33.459 26.084 33.459 Z" fill="currentColor" fill-rule="nonzero"/>
</svg>
