<svg xmlns="http://www.w3.org/2000/svg" width="33.442" height="36.100" viewBox="0 0 33.442 36.100" fill="none">
  <path d="M 3.137 13.9 L 30.237 13.9 C 31.637 13.9 32.837 13 33.237 11.7 C 33.637 10.4 33.137 9.1 32.037 8.3 L 31.937 8.2 L 18.737 0.6 C 17.537 -0.2 16.037 -0.2 14.837 0.6 L 1.437 8.3 L 1.337 8.4 C 0.237 9.2 -0.263 10.5 0.137 11.8 C 0.537 13.1 1.837 14 3.137 13.9 Z M 2.737 10.4 L 16.137 2.7 C 16.537 2.4 17.037 2.4 17.437 2.7 L 30.737 10.4 C 30.937 10.5 31.037 10.8 30.937 11 C 30.837 11.3 30.637 11.4 30.337 11.4 L 3.137 11.4 C 2.837 11.4 2.637 11.3 2.537 11 C 2.537 10.8 2.537 10.6 2.737 10.4 Z M 20.837 20.1 L 20.837 31 C 20.837 31.2 20.937 31.3 21.137 31.3 L 23.937 31.3 C 24.137 31.3 24.237 31.2 24.237 31 L 24.237 20.1 C 24.137 19.1 23.337 18.4 22.337 18.5 C 21.637 18.6 20.937 19.3 20.837 20.1 Z M 29.937 28.9 L 29.537 28.9 L 29.537 17.8 L 29.937 17.8 C 30.637 17.9 31.237 17.4 31.337 16.7 C 31.437 16 30.937 15.4 30.237 15.3 C 30.137 15.3 30.137 15.3 30.037 15.3 L 28.337 15.3 C 27.637 15.3 27.137 15.9 27.137 16.5 L 27.137 30.1 C 27.137 30.8 27.737 31.3 28.337 31.3 L 30.037 31.3 C 30.637 31.3 31.037 31.8 31.037 32.3 C 31.037 32.8 30.537 33.3 30.037 33.3 L 3.537 33.3 C 2.937 33.3 2.537 32.8 2.537 32.3 C 2.537 31.8 3.037 31.3 3.537 31.3 L 5.237 31.3 C 5.937 31.3 6.437 30.7 6.437 30.1 L 6.437 16.6 C 6.437 15.9 5.837 15.4 5.237 15.4 L 3.537 15.4 C 2.837 15.5 2.337 16.1 2.437 16.8 C 2.537 17.4 2.937 17.9 3.537 17.9 L 3.937 17.9 L 3.937 29 L 3.537 29 C 1.537 29.1 0.037 30.8 0.137 32.7 C 0.237 34.5 1.637 36 3.537 36.1 L 30.037 36.1 C 32.037 36 33.537 34.3 33.437 32.4 C 33.237 30.5 31.737 29 29.937 28.9 Z M 9.137 20.1 L 9.137 31 C 9.137 31.2 9.237 31.3 9.437 31.3 L 12.237 31.3 C 12.437 31.3 12.537 31.2 12.537 31 L 12.537 20.1 C 12.437 19.1 11.637 18.4 10.637 18.5 C 9.937 18.6 9.237 19.3 9.137 20.1 Z M 15.037 20.1 L 15.037 31 C 15.037 31.2 15.137 31.3 15.337 31.3 L 18.137 31.3 C 18.337 31.3 18.437 31.2 18.437 31 L 18.437 20.1 C 18.437 19.1 17.637 18.4 16.737 18.4 C 15.737 18.4 15.037 19.2 15.037 20.1 Z" fill="currentColor" fill-rule="nonzero"/>
</svg>
