<svg xmlns="http://www.w3.org/2000/svg" width="40.010" height="22.940" viewBox="0 0 40.010 22.940" fill="none">
  <path d="M 2.67 17.68 C 1.972 17.68 1.304 17.957 0.81 18.45 C 0.317 18.944 0.04 19.613 0.04 20.31 C 0.04 21.008 0.317 21.677 0.81 22.17 C 1.304 22.663 1.972 22.94 2.67 22.94 C 3.011 22.938 3.347 22.868 3.66 22.734 C 3.974 22.601 4.258 22.407 4.496 22.163 C 4.734 21.92 4.921 21.632 5.047 21.315 C 5.173 20.999 5.235 20.661 5.23 20.32 C 5.237 19.978 5.176 19.639 5.05 19.321 C 4.925 19.003 4.738 18.712 4.5 18.467 C 4.262 18.222 3.978 18.026 3.664 17.891 C 3.35 17.756 3.012 17.684 2.67 17.68 Z M 2.67 14.06 L 2.72 14.06 C 3.398 14.047 4.044 13.768 4.519 13.284 C 4.994 12.8 5.26 12.149 5.26 11.47 C 5.263 11.127 5.198 10.788 5.069 10.47 C 4.94 10.152 4.75 9.863 4.51 9.619 C 4.269 9.375 3.983 9.18 3.667 9.046 C 3.352 8.913 3.013 8.843 2.67 8.84 C 1.972 8.84 1.304 9.117 0.81 9.61 C 0.317 10.104 0.04 10.773 0.04 11.47 C 0.04 12.168 0.317 12.837 0.81 13.33 C 1.304 13.823 1.972 14.1 2.67 14.1 L 2.67 14.06 Z M 10.21 4.22 L 38.42 4.22 C 38.819 4.188 39.191 4.008 39.462 3.714 C 39.733 3.42 39.884 3.035 39.884 2.635 C 39.884 2.235 39.733 1.85 39.462 1.556 C 39.191 1.263 38.819 1.082 38.42 1.05 L 10.18 1.05 C 9.961 1.033 9.741 1.061 9.534 1.133 C 9.327 1.204 9.136 1.318 8.975 1.467 C 8.814 1.616 8.685 1.797 8.597 1.998 C 8.509 2.199 8.464 2.416 8.464 2.635 C 8.464 2.855 8.509 3.072 8.597 3.273 C 8.685 3.474 8.814 3.654 8.975 3.803 C 9.136 3.952 9.327 4.066 9.534 4.138 C 9.741 4.209 9.961 4.238 10.18 4.22 L 10.21 4.22 Z M 2.66 0 C 1.964 -0.008 1.294 0.26 0.795 0.746 C 0.296 1.231 0.011 1.894 0 2.59 C 0.003 3.297 0.283 3.974 0.781 4.475 C 1.278 4.977 1.954 5.262 2.66 5.27 C 3.004 5.268 3.344 5.197 3.661 5.063 C 3.978 4.929 4.265 4.734 4.507 4.489 C 4.748 4.244 4.939 3.953 5.068 3.634 C 5.197 3.315 5.263 2.974 5.26 2.63 C 5.265 2.619 5.268 2.607 5.268 2.595 C 5.268 2.583 5.265 2.571 5.26 2.56 C 5.259 2.221 5.19 1.885 5.059 1.573 C 4.927 1.26 4.735 0.977 4.493 0.739 C 4.251 0.501 3.965 0.313 3.65 0.186 C 3.336 0.059 2.999 -0.004 2.66 0 Z M 38.42 9.84 L 10.18 9.84 C 9.758 9.84 9.354 10.008 9.056 10.306 C 8.758 10.604 8.59 11.008 8.59 11.43 C 8.59 11.852 8.758 12.256 9.056 12.554 C 9.354 12.853 9.758 13.02 10.18 13.02 L 38.42 13.02 C 38.842 13.02 39.246 12.853 39.544 12.554 C 39.842 12.256 40.01 11.852 40.01 11.43 C 40.01 11.008 39.842 10.604 39.544 10.306 C 39.246 10.008 38.842 9.84 38.42 9.84 Z M 38.42 18.72 L 10.18 18.72 C 9.961 18.703 9.741 18.731 9.534 18.803 C 9.327 18.874 9.136 18.988 8.975 19.137 C 8.814 19.286 8.685 19.467 8.597 19.668 C 8.509 19.869 8.464 20.086 8.464 20.305 C 8.464 20.525 8.509 20.742 8.597 20.943 C 8.685 21.144 8.814 21.324 8.975 21.473 C 9.136 21.622 9.327 21.736 9.534 21.808 C 9.741 21.879 9.961 21.908 10.18 21.89 L 38.42 21.89 C 38.819 21.858 39.191 21.678 39.462 21.384 C 39.733 21.09 39.884 20.705 39.884 20.305 C 39.884 19.905 39.733 19.52 39.462 19.226 C 39.191 18.933 38.819 18.752 38.42 18.72 Z" fill="currentColor" fill-rule="nonzero"/>
</svg>
