<svg xmlns="http://www.w3.org/2000/svg" width="36" height="40.000" viewBox="0 0 36 40.000" fill="none">
  <path d="M 20.67 34.41 L 29.21 34.41 C 29.377 34.41 29.542 34.377 29.696 34.313 C 29.85 34.25 29.99 34.156 30.108 34.038 C 30.226 33.92 30.32 33.78 30.383 33.626 C 30.447 33.472 30.48 33.307 30.48 33.14 L 30.48 24.72 C 30.479 24.519 30.431 24.32 30.34 24.14 L 29.29 22.06 C 29.183 21.85 29.02 21.673 28.819 21.549 C 28.618 21.426 28.386 21.36 28.15 21.36 L 20.67 21.36 C 20.333 21.36 20.01 21.494 19.772 21.732 C 19.534 21.97 19.4 22.293 19.4 22.63 L 19.4 33.14 C 19.4 33.477 19.534 33.8 19.772 34.038 C 20.01 34.276 20.333 34.41 20.67 34.41 Z M 34.7 0 L 1.3 0 C 1.131 -0.002 0.963 0.028 0.806 0.091 C 0.649 0.153 0.506 0.246 0.385 0.364 C 0.265 0.482 0.168 0.623 0.102 0.779 C 0.036 0.934 0.001 1.101 0 1.27 L 0 38.73 C 0.001 38.899 0.036 39.066 0.102 39.222 C 0.168 39.377 0.265 39.518 0.385 39.636 C 0.506 39.754 0.649 39.847 0.806 39.909 C 0.963 39.972 1.131 40.003 1.3 40 L 34.7 40 C 34.869 40.003 35.037 39.972 35.194 39.909 C 35.351 39.847 35.494 39.754 35.615 39.636 C 35.735 39.518 35.832 39.377 35.898 39.222 C 35.964 39.066 35.999 38.899 36 38.73 L 36 1.27 C 35.999 1.101 35.964 0.934 35.898 0.779 C 35.832 0.623 35.735 0.482 35.615 0.364 C 35.494 0.246 35.351 0.153 35.194 0.091 C 35.037 0.028 34.869 -0.002 34.7 0 Z M 33.25 37.25 L 2.75 37.25 L 2.75 2.75 L 33.25 2.75 L 33.25 37.25 Z M 20.67 17.4 L 25.35 17.4 C 25.567 17.401 25.781 17.346 25.971 17.241 C 26.161 17.136 26.32 16.984 26.435 16.799 C 26.549 16.614 26.614 16.404 26.624 16.187 C 26.634 15.97 26.587 15.754 26.49 15.56 L 19.91 5.07 L 19.4 5.07 L 19.4 16.13 C 19.4 16.467 19.534 16.79 19.772 17.028 C 20.01 17.266 20.333 17.4 20.67 17.4 Z M 10.67 17.4 L 15.35 17.4 C 15.687 17.4 16.01 17.266 16.248 17.028 C 16.486 16.79 16.62 16.467 16.62 16.13 L 16.62 5.07 L 16.11 5.07 L 9.51 15.56 C 9.413 15.754 9.366 15.97 9.376 16.187 C 9.386 16.404 9.451 16.614 9.565 16.799 C 9.68 16.984 9.839 17.136 10.029 17.241 C 10.219 17.346 10.433 17.401 10.65 17.4 L 10.67 17.4 Z M 6.81 34.4 L 15.35 34.4 C 15.517 34.4 15.682 34.367 15.836 34.303 C 15.99 34.24 16.13 34.146 16.248 34.028 C 16.366 33.91 16.46 33.77 16.523 33.616 C 16.587 33.462 16.62 33.297 16.62 33.13 L 16.62 22.63 C 16.62 22.293 16.486 21.97 16.248 21.732 C 16.01 21.494 15.687 21.36 15.35 21.36 L 7.85 21.36 C 7.614 21.36 7.382 21.426 7.181 21.549 C 6.98 21.673 6.817 21.85 6.71 22.06 L 5.66 24.14 C 5.569 24.32 5.521 24.519 5.52 24.72 L 5.52 33.14 C 5.52 33.477 5.654 33.8 5.892 34.038 C 6.13 34.276 6.453 34.41 6.79 34.41 L 6.81 34.4 Z" fill="currentColor" fill-rule="nonzero"/>
</svg>
