<svg xmlns="http://www.w3.org/2000/svg" width="36.002" height="40" viewBox="0 0 36.002 40" fill="none">
  <path d="M 23.841 14.28 L 15.081 23 L 12.171 20 C 12.055 19.881 11.918 19.786 11.765 19.721 C 11.613 19.655 11.449 19.62 11.284 19.618 C 11.118 19.616 10.953 19.646 10.799 19.707 C 10.645 19.768 10.505 19.859 10.386 19.975 C 10.146 20.208 10.008 20.528 10.004 20.862 C 10.001 21.028 10.032 21.193 10.093 21.347 C 10.154 21.501 10.245 21.641 10.361 21.76 L 14.161 25.68 C 14.399 25.922 14.722 26.062 15.061 26.07 L 15.191 26.07 C 15.48 26.038 15.751 25.912 15.961 25.71 L 25.631 16.06 C 25.837 15.817 25.944 15.505 25.931 15.187 C 25.918 14.868 25.786 14.566 25.56 14.341 C 25.335 14.115 25.033 13.983 24.714 13.97 C 24.396 13.957 24.084 14.064 23.841 14.27 L 23.841 14.28 Z M 35.001 7.72 C 32.066 7.181 29.243 6.15 26.651 4.67 C 21.541 1.93 18.651 0.16 18.651 0.16 C 18.448 0.062 18.226 0.007 18.001 0 C 17.752 -0.002 17.506 0.053 17.281 0.16 C 17.281 0.16 14.421 1.93 9.281 4.67 C 6.711 6.142 3.912 7.173 1.001 7.72 C 0.694 7.857 0.435 8.083 0.257 8.368 C 0.079 8.653 -0.01 8.984 0.001 9.32 C 0.221 14.61 1.301 33.32 15.741 39.53 C 16.454 39.84 17.223 40 18.001 40 C 18.779 40 19.548 39.84 20.261 39.53 C 34.701 33.27 35.781 14.61 36.001 9.32 C 36.012 8.984 35.923 8.653 35.745 8.368 C 35.567 8.083 35.308 7.857 35.001 7.72 Z M 19.401 36.72 C 19.006 36.887 18.58 36.972 18.151 36.97 L 17.771 36.97 C 17.342 36.972 16.916 36.887 16.521 36.72 C 8.191 33.1 3.411 23.92 2.681 10.12 C 5.386 9.46 7.995 8.451 10.441 7.12 C 14.021 5.2 16.441 3.78 17.591 3.12 L 17.771 3 L 18.001 2.89 L 18.191 3.01 L 18.301 3.07 L 18.371 3.07 C 19.511 3.75 21.941 5.17 25.521 7.07 C 27.967 8.401 30.576 9.41 33.281 10.07 C 32.551 23.94 27.771 33.12 19.441 36.74 L 19.401 36.72 Z" fill="currentColor" fill-rule="nonzero"/>
</svg>
