<svg xmlns="http://www.w3.org/2000/svg" width="40.012" height="32.524" viewBox="0 0 40.012 32.524" fill="none">
  <path d="M 20.231 32.524 C 16.572 32.534 13.026 31.266 10.204 28.937 C 7.383 26.609 5.464 23.367 4.781 19.774 L 3.251 21.254 C 2.9 21.597 2.431 21.794 1.941 21.804 C 1.681 21.802 1.425 21.749 1.186 21.648 C 0.947 21.546 0.731 21.398 0.55 21.211 C 0.37 21.025 0.228 20.805 0.134 20.563 C 0.039 20.321 -0.006 20.063 0.001 19.804 C 0.013 19.288 0.225 18.797 0.591 18.434 L 5.421 13.754 C 5.789 13.408 6.275 13.215 6.781 13.214 C 7.242 13.211 7.69 13.374 8.041 13.674 L 13.191 18.194 C 13.388 18.356 13.55 18.557 13.666 18.784 C 13.783 19.011 13.853 19.259 13.871 19.514 C 13.891 19.768 13.859 20.024 13.778 20.266 C 13.698 20.508 13.569 20.732 13.401 20.924 C 13.238 21.119 13.037 21.28 12.81 21.395 C 12.583 21.51 12.335 21.578 12.081 21.594 L 11.941 21.594 C 11.479 21.587 11.034 21.421 10.681 21.124 L 8.681 19.424 C 9.193 21.678 10.354 23.734 12.02 25.337 C 13.686 26.94 15.784 28.021 18.057 28.446 C 20.329 28.871 22.677 28.622 24.81 27.73 C 26.943 26.837 28.768 25.341 30.061 23.424 C 30.203 23.212 30.386 23.03 30.599 22.889 C 30.811 22.749 31.05 22.652 31.301 22.604 C 31.424 22.594 31.548 22.594 31.671 22.604 C 32.059 22.609 32.438 22.727 32.761 22.944 C 32.974 23.086 33.155 23.27 33.295 23.485 C 33.434 23.7 33.528 23.941 33.571 24.194 C 33.621 24.442 33.621 24.699 33.572 24.948 C 33.522 25.197 33.423 25.433 33.281 25.644 C 31.832 27.769 29.886 29.507 27.611 30.706 C 25.336 31.905 22.802 32.529 20.231 32.524 Z M 33.231 19.264 C 32.758 19.276 32.299 19.112 31.941 18.804 L 26.741 14.354 C 26.351 14.017 26.11 13.54 26.071 13.027 C 26.032 12.514 26.197 12.006 26.531 11.614 C 26.696 11.419 26.899 11.259 27.128 11.144 C 27.356 11.029 27.605 10.961 27.861 10.944 L 28.011 10.944 C 28.472 10.95 28.917 11.116 29.271 11.414 L 31.271 13.114 C 30.758 10.859 29.598 8.804 27.932 7.2 C 26.266 5.597 24.167 4.517 21.894 4.091 C 19.622 3.666 17.274 3.915 15.142 4.808 C 13.009 5.7 11.183 7.197 9.891 9.114 C 9.748 9.326 9.566 9.507 9.353 9.648 C 9.14 9.789 8.901 9.886 8.651 9.934 C 8.528 9.948 8.404 9.948 8.281 9.934 C 7.932 9.931 7.591 9.835 7.293 9.655 C 6.995 9.475 6.751 9.218 6.586 8.911 C 6.421 8.604 6.342 8.259 6.357 7.911 C 6.372 7.563 6.48 7.225 6.671 6.934 C 8.413 4.353 10.882 2.346 13.765 1.169 C 16.647 -0.009 19.815 -0.305 22.866 0.318 C 25.917 0.941 28.715 2.455 30.905 4.669 C 33.095 6.883 34.58 9.696 35.171 12.754 L 36.701 11.274 C 37.072 10.925 37.562 10.731 38.071 10.731 C 38.58 10.731 39.07 10.925 39.441 11.274 C 39.622 11.454 39.765 11.668 39.864 11.904 C 39.962 12.14 40.012 12.393 40.012 12.649 C 40.012 12.904 39.962 13.157 39.864 13.393 C 39.765 13.629 39.622 13.843 39.441 14.024 L 34.541 18.724 C 34.172 19.069 33.686 19.262 33.181 19.264 L 33.231 19.264 Z" fill="currentColor" fill-rule="nonzero"/>
</svg>
