<svg xmlns="http://www.w3.org/2000/svg" width="40.029" height="36.421" viewBox="0 0 40.029 36.421" fill="none">
  <path d="M 38.496 36.413 L 1.636 36.413 C 1.288 36.447 0.938 36.37 0.636 36.193 C 0.361 36.052 0.153 35.807 0.057 35.513 C -0.038 35.219 -0.013 34.899 0.126 34.623 C 0.144 34.577 0.167 34.533 0.196 34.493 L 10.146 16.433 C 13.026 11.183 15.916 6.003 18.806 0.743 C 18.931 0.518 19.113 0.33 19.335 0.2 C 19.557 0.069 19.809 0 20.066 0 C 20.324 0 20.576 0.069 20.798 0.2 C 21.019 0.33 21.202 0.518 21.326 0.743 L 22.956 3.743 C 28.576 14.033 34.206 24.243 39.826 34.533 C 39.958 34.716 40.029 34.937 40.029 35.163 C 40.029 35.389 39.958 35.609 39.826 35.793 C 39.719 35.964 39.572 36.107 39.398 36.21 C 39.224 36.313 39.028 36.372 38.826 36.383 L 38.496 36.413 Z M 3.566 33.903 L 36.566 33.903 L 20.026 3.923 L 3.566 33.903 Z M 19.916 24.523 C 19.574 24.523 19.246 24.387 19.004 24.145 C 18.762 23.903 18.626 23.575 18.626 23.233 L 18.626 14.673 C 18.626 14.331 18.762 14.003 19.004 13.761 C 19.246 13.519 19.574 13.383 19.916 13.383 C 20.085 13.383 20.253 13.416 20.408 13.481 C 20.564 13.546 20.706 13.641 20.825 13.761 C 20.944 13.881 21.038 14.024 21.102 14.18 C 21.166 14.336 21.198 14.504 21.196 14.673 L 21.196 23.233 C 21.198 23.402 21.166 23.569 21.102 23.726 C 21.038 23.882 20.944 24.025 20.825 24.144 C 20.706 24.264 20.564 24.36 20.408 24.424 C 20.253 24.489 20.085 24.523 19.916 24.523 Z M 19.916 30.373 C 19.386 30.373 18.877 30.162 18.502 29.787 C 18.127 29.412 17.916 28.903 17.916 28.373 C 17.916 27.842 18.127 27.334 18.502 26.959 C 18.877 26.584 19.386 26.373 19.916 26.373 C 20.447 26.373 20.955 26.584 21.331 26.959 C 21.706 27.334 21.916 27.842 21.916 28.373 C 21.916 28.903 21.706 29.412 21.331 29.787 C 20.955 30.162 20.447 30.373 19.916 30.373 Z" fill="currentColor" fill-rule="nonzero"/>
</svg>
