<svg xmlns="http://www.w3.org/2000/svg" width="31.904" height="39.900" viewBox="0 0 31.904 39.900" fill="none">
  <path d="M 23.7 31.3 L 8.3 31.3 C 7.6 31.2 7 31.7 6.9 32.4 C 6.8 33.1 7.3 33.7 8 33.8 C 8.1 33.8 8.1 33.8 8.2 33.8 L 23.5 33.8 C 24.2 33.7 24.7 33.1 24.6 32.4 C 24.8 31.8 24.3 31.4 23.7 31.3 Z M 23.9 21 C 23.8 21 23.8 21 23.7 21 L 8.3 21 C 7.6 21 7 21.6 7 22.2 C 7 22.9 7.6 23.5 8.3 23.5 L 23.6 23.5 C 24.3 23.6 24.9 23.1 25 22.4 C 25.1 21.7 24.6 21.1 23.9 21 Z M 23.6 26.2 L 8.3 26.2 C 7.6 26.2 7 26.8 7 27.5 C 7 28.2 7.6 28.8 8.3 28.8 L 23.6 28.8 C 24.3 28.8 24.9 28.2 24.9 27.5 C 24.9 26.7 24.3 26.2 23.6 26.2 Z M 17.5 14.4 C 18.2 14.4 18.7 13.8 18.7 13.1 C 18.7 12.4 18.1 11.9 17.4 11.9 L 8.7 11.9 C 8 11.9 7.5 12.5 7.5 13.2 C 7.5 13.9 8.1 14.4 8.8 14.4 L 17.5 14.4 Z M 27.8 0 C 27.7 0 27.7 0 27.8 0 L 4.3 0 C 1.9 0 0 1.9 0 4.2 L 0 35.7 C 0 38 1.9 39.9 4.2 39.9 L 27.6 39.9 C 29.9 39.9 31.9 38 31.9 35.7 L 31.9 4.2 C 32 1.9 30.1 0 27.8 0 Z M 29.5 35.8 C 29.5 36.8 28.7 37.5 27.8 37.5 L 4.3 37.5 C 3.3 37.5 2.6 36.7 2.6 35.8 L 2.6 4.2 C 2.6 3.2 3.4 2.5 4.3 2.4 L 27.7 2.4 C 28.7 2.4 29.4 3.2 29.4 4.1 L 29.4 35.8 L 29.5 35.8 Z M 23.9 7.1 C 23.8 7.1 23.8 7.1 23.7 7.1 L 8.2 7.1 C 7.5 7.1 6.9 7.6 6.9 8.3 C 6.9 9 7.4 9.6 8.1 9.6 C 8.2 9.6 8.2 9.6 8.3 9.6 L 23.8 9.6 C 24.5 9.6 25.1 9.1 25.1 8.4 C 25.1 7.7 24.6 7.1 23.9 7.1 Z" fill="currentColor" fill-rule="nonzero"/>
</svg>
