<svg xmlns="http://www.w3.org/2000/svg" width="38.353" height="37.924" viewBox="0 0 38.353 37.924" fill="none">
  <path d="M 20.848 14.891 C 21.24 14.885 21.618 15.035 21.9 15.308 C 23.524 16.862 24.468 18.996 24.527 21.244 C 24.584 23.492 23.751 25.671 22.209 27.308 L 14.289 35.648 C 12.704 37.122 10.616 37.936 8.451 37.924 C 6.286 37.911 4.208 37.073 2.64 35.58 C 1.072 34.087 0.132 32.052 0.013 29.891 C -0.106 27.729 0.604 25.603 1.999 23.947 L 7.86 17.768 C 8.133 17.522 8.489 17.386 8.857 17.39 C 9.225 17.393 9.578 17.535 9.847 17.786 C 10.116 18.037 10.28 18.38 10.309 18.747 C 10.337 19.114 10.226 19.478 9.999 19.768 L 4.089 25.978 C 3.58 26.506 3.182 27.13 2.915 27.814 C 2.649 28.497 2.52 29.228 2.537 29.961 C 2.554 30.694 2.715 31.417 3.013 32.088 C 3.31 32.759 3.738 33.364 4.271 33.868 C 4.803 34.373 5.43 34.767 6.115 35.028 C 6.801 35.29 7.531 35.413 8.265 35.391 C 8.998 35.368 9.72 35.201 10.388 34.899 C 11.056 34.596 11.659 34.164 12.159 33.628 L 20.079 25.277 C 21.091 24.206 21.637 22.778 21.598 21.305 C 21.558 19.832 20.937 18.434 19.869 17.418 C 19.729 17.286 19.615 17.126 19.536 16.95 C 19.457 16.774 19.414 16.583 19.408 16.39 C 19.403 16.197 19.435 16.005 19.504 15.824 C 19.573 15.644 19.676 15.478 19.809 15.338 C 20.082 15.057 20.456 14.896 20.848 14.891 Z M 29.663 0.003 C 31.913 -0.057 34.096 0.779 35.73 2.327 C 37.348 3.876 38.29 6.003 38.35 8.242 C 38.41 10.482 37.582 12.654 36.049 14.287 L 29.749 20.928 C 29.476 21.174 29.12 21.308 28.752 21.305 C 28.384 21.301 28.031 21.161 27.762 20.909 C 27.493 20.658 27.328 20.315 27.3 19.948 C 27.272 19.581 27.382 19.217 27.61 18.928 L 33.909 12.287 C 34.418 11.759 34.817 11.135 35.083 10.451 C 35.35 9.768 35.478 9.038 35.461 8.305 C 35.444 7.571 35.283 6.848 34.985 6.178 C 34.688 5.507 34.26 4.902 33.728 4.398 C 33.195 3.893 32.569 3.498 31.883 3.236 C 31.197 2.975 30.467 2.853 29.734 2.875 C 29 2.897 28.279 3.065 27.61 3.367 C 26.942 3.67 26.34 4.102 25.839 4.638 L 17.919 12.987 C 16.905 14.058 16.357 15.487 16.397 16.961 C 16.436 18.435 17.059 19.833 18.129 20.848 C 18.289 20.973 18.422 21.131 18.518 21.311 C 18.614 21.49 18.672 21.688 18.688 21.891 C 18.703 22.094 18.676 22.298 18.609 22.49 C 18.541 22.682 18.435 22.859 18.296 23.008 C 18.157 23.157 17.988 23.275 17.801 23.356 C 17.614 23.436 17.412 23.476 17.208 23.474 C 17.004 23.472 16.803 23.428 16.617 23.344 C 16.432 23.26 16.265 23.139 16.129 22.987 C 14.503 21.434 13.557 19.302 13.497 17.054 C 13.437 14.806 14.268 12.625 15.809 10.987 L 23.73 2.648 C 25.279 1.014 27.413 0.063 29.663 0.003 Z" fill="currentColor" fill-rule="nonzero"/>
</svg>
