<svg xmlns="http://www.w3.org/2000/svg" width="40.033" height="16.588" viewBox="0 0 40.033 16.588" fill="none">
  <path d="M 8.285 16.588 C 6.403 16.582 4.578 15.941 3.105 14.768 C 1.826 13.743 0.879 12.361 0.385 10.797 C -0.109 9.233 -0.128 7.558 0.33 5.984 C 0.788 4.409 1.703 3.006 2.959 1.951 C 4.214 0.897 5.755 0.238 7.385 0.059 C 9.015 -0.12 10.661 0.188 12.116 0.945 C 13.571 1.702 14.768 2.873 15.557 4.311 C 16.346 5.748 16.691 7.387 16.549 9.021 C 16.406 10.655 15.782 12.209 14.755 13.488 C 14.736 13.52 14.726 13.556 14.726 13.593 C 14.726 13.63 14.736 13.667 14.755 13.698 C 14.773 13.732 14.798 13.761 14.83 13.782 C 14.861 13.803 14.898 13.815 14.935 13.818 L 25.105 13.818 C 25.143 13.816 25.18 13.804 25.212 13.783 C 25.244 13.762 25.269 13.733 25.285 13.698 C 25.305 13.667 25.315 13.63 25.315 13.593 C 25.315 13.556 25.305 13.52 25.285 13.488 C 24.123 12.044 23.478 10.252 23.454 8.398 C 23.43 6.545 24.028 4.736 25.152 3.262 C 26.276 1.788 27.862 0.734 29.656 0.267 C 31.45 -0.2 33.349 -0.052 35.049 0.688 C 36.749 1.427 38.152 2.715 39.034 4.345 C 39.917 5.976 40.227 7.855 39.916 9.682 C 39.604 11.51 38.689 13.18 37.317 14.427 C 35.945 15.673 34.194 16.423 32.345 16.558 L 32.055 16.558 L 8.285 16.588 Z M 31.535 2.488 C 30.417 2.504 29.328 2.85 28.406 3.483 C 27.484 4.116 26.77 5.008 26.353 6.045 C 25.937 7.083 25.837 8.221 26.065 9.316 C 26.294 10.411 26.841 11.414 27.638 12.198 C 28.435 12.983 29.446 13.514 30.544 13.725 C 31.643 13.937 32.779 13.818 33.81 13.386 C 34.841 12.953 35.722 12.224 36.34 11.292 C 36.958 10.361 37.287 9.267 37.285 8.148 C 37.272 6.649 36.67 5.216 35.61 4.157 C 34.549 3.098 33.114 2.499 31.615 2.488 L 31.535 2.488 Z M 8.395 2.638 C 6.917 2.627 5.494 3.2 4.434 4.231 C 3.375 5.262 2.764 6.67 2.735 8.148 C 2.714 9.631 3.283 11.061 4.316 12.124 C 5.349 13.188 6.763 13.797 8.245 13.818 C 9.728 13.839 11.158 13.271 12.222 12.237 C 13.285 11.204 13.894 9.791 13.915 8.308 C 13.934 6.825 13.363 5.394 12.328 4.331 C 11.293 3.268 9.879 2.659 8.395 2.638 Z" fill="currentColor" fill-rule="nonzero"/>
</svg>
