<svg xmlns="http://www.w3.org/2000/svg" width="40.027" height="28.010" viewBox="0 0 40.027 28.010" fill="none">
  <path d="M 39.652 10.5 C 39.252 9.9 38.652 9.5 37.952 9.3 C 38.252 9 38.552 8.7 38.952 8.4 C 39.452 8.1 39.552 7.5 39.252 7 C 38.952 6.5 38.352 6.4 37.852 6.7 C 36.752 7.5 35.852 8.5 35.352 9.5 C 34.952 9.6 34.552 9.8 34.152 10 C 32.652 4.4 26.252 0 18.552 0 C 15.952 0 13.452 0.5 11.352 1.4 C 10.552 1.5 10.152 1.5 9.452 1.3 C 7.652 0.4 5.252 0.4 3.352 1.5 C 3.252 1.5 3.252 1.5 3.252 1.6 C 2.952 1.7 2.952 2 3.152 2.2 C 3.752 2.9 3.952 3.2 4.552 3.9 C 5.152 4.7 5.152 5.8 4.652 6.7 C 3.852 7.9 3.352 9.2 3.052 10.5 C 2.952 11 2.552 11.4 2.052 11.5 L 0.852 11.8 C 0.252 11.9 -0.148 12.6 0.052 13.2 C 0.552 15 0.652 15.4 0.952 16.7 C 1.152 17.7 1.052 18.4 3.152 18.3 L 3.352 18.3 C 3.852 18.3 4.552 18.6 4.852 19 C 5.852 20.3 7.052 21.5 8.552 22.5 C 9.652 23.3 10.352 24.6 10.252 26 C 10.152 26.9 10.852 27.7 11.652 27.8 C 12.352 27.9 13.052 27.9 13.752 28 C 14.652 28.1 15.352 27.4 15.452 26.5 C 15.452 26 15.552 25.8 15.552 25.3 C 15.552 25.2 15.652 25.2 15.652 25.2 C 16.652 25.3 17.652 25.4 18.652 25.4 C 19.652 25.4 20.652 25.3 21.552 25.2 C 21.652 25.2 21.652 25.2 21.652 25.3 C 21.652 25.7 21.752 25.9 21.752 26.3 C 21.852 27.2 22.652 27.8 23.452 27.7 C 24.252 27.6 24.752 27.5 25.552 27.4 C 26.452 27.3 27.052 26.5 26.952 25.6 C 26.852 24.4 27.352 23.3 28.352 22.7 C 31.852 20.5 34.252 17.1 34.452 13.1 C 34.452 12.8 34.452 12.4 34.452 12.1 C 34.552 12.1 34.652 12 34.752 12 C 34.752 12.5 34.952 12.9 35.152 13.3 C 35.652 14.1 36.452 14.5 37.252 14.5 C 37.252 14.5 37.252 14.5 37.352 14.5 C 38.252 14.5 39.152 13.9 39.652 13.1 C 40.152 12.2 40.152 11.2 39.652 10.5 Z M 7.752 11.7 C 7.052 11.7 6.452 11.2 6.352 10.5 C 6.352 9.8 6.852 9.2 7.652 9.1 C 8.352 9.1 8.952 9.6 9.052 10.3 C 9.152 11 8.552 11.7 7.752 11.7 Z M 37.952 12 C 37.852 12.2 37.552 12.4 37.352 12.4 C 37.252 12.4 37.052 12.4 36.952 12.1 C 36.852 11.9 36.752 11.6 36.852 11.2 C 37.052 11.2 37.252 11.2 37.352 11.2 C 37.552 11.2 37.752 11.3 37.852 11.5 C 38.052 11.7 38.052 11.9 37.952 12 Z" fill="currentColor" fill-rule="nonzero"/>
</svg>
