<svg xmlns="http://www.w3.org/2000/svg" width="32.000" height="39.999" viewBox="0 0 32.000 39.999" fill="none">
  <path d="M 7.14 30.209 C 6.693 30.209 6.256 30.342 5.885 30.59 C 5.513 30.838 5.223 31.191 5.052 31.604 C 4.881 32.017 4.836 32.471 4.924 32.91 C 5.011 33.348 5.226 33.751 5.542 34.067 C 5.858 34.383 6.261 34.598 6.699 34.686 C 7.138 34.773 7.592 34.728 8.005 34.557 C 8.418 34.386 8.771 34.096 9.019 33.725 C 9.268 33.353 9.4 32.916 9.4 32.469 C 9.4 31.87 9.162 31.295 8.738 30.871 C 8.314 30.447 7.739 30.209 7.14 30.209 Z M 7.14 22.629 C 6.693 22.629 6.256 22.762 5.885 23.01 C 5.513 23.258 5.223 23.611 5.052 24.024 C 4.881 24.437 4.836 24.891 4.924 25.33 C 5.011 25.768 5.226 26.171 5.542 26.487 C 5.858 26.803 6.261 27.018 6.699 27.106 C 7.138 27.193 7.592 27.148 8.005 26.977 C 8.418 26.806 8.771 26.516 9.019 26.145 C 9.268 25.773 9.4 25.336 9.4 24.889 C 9.397 24.29 9.159 23.717 8.735 23.294 C 8.312 22.871 7.739 22.632 7.14 22.629 Z M 13.49 18.629 L 23.71 18.629 C 24.052 18.629 24.38 18.493 24.622 18.251 C 24.864 18.009 25 17.681 25 17.339 C 25 16.997 24.864 16.669 24.622 16.427 C 24.38 16.185 24.052 16.049 23.71 16.049 L 13.49 16.049 C 13.148 16.049 12.82 16.185 12.578 16.427 C 12.336 16.669 12.2 16.997 12.2 17.339 C 12.2 17.681 12.336 18.009 12.578 18.251 C 12.82 18.493 13.148 18.629 13.49 18.629 Z M 25.83 23.629 L 13.49 23.629 C 13.312 23.613 13.132 23.635 12.963 23.692 C 12.793 23.75 12.638 23.842 12.506 23.963 C 12.374 24.083 12.268 24.23 12.196 24.394 C 12.124 24.558 12.087 24.735 12.087 24.914 C 12.087 25.093 12.124 25.27 12.196 25.434 C 12.268 25.598 12.374 25.745 12.506 25.865 C 12.638 25.986 12.793 26.078 12.963 26.136 C 13.132 26.193 13.312 26.215 13.49 26.199 L 25.83 26.199 C 26.008 26.215 26.188 26.193 26.357 26.136 C 26.527 26.078 26.683 25.986 26.815 25.865 C 26.947 25.745 27.052 25.598 27.124 25.434 C 27.196 25.27 27.234 25.093 27.234 24.914 C 27.234 24.735 27.196 24.558 27.124 24.394 C 27.052 24.23 26.947 24.083 26.815 23.963 C 26.683 23.842 26.527 23.75 26.357 23.692 C 26.188 23.635 26.008 23.613 25.83 23.629 Z M 27.83 6.679 L 26.52 6.679 C 26.327 6.11 26.009 5.591 25.588 5.162 C 25.168 4.732 24.655 4.403 24.09 4.199 C 23.054 3.832 21.959 3.662 20.86 3.699 C 20.626 3.722 20.39 3.69 20.171 3.605 C 19.952 3.52 19.757 3.384 19.6 3.209 C 19.6 3.129 19.54 3.029 19.51 2.919 C 19.352 2.097 18.912 1.357 18.267 0.824 C 17.622 0.291 16.812 0 15.975 0 C 15.139 0 14.328 0.291 13.683 0.824 C 13.038 1.357 12.598 2.097 12.44 2.919 C 12.44 3.029 12.38 3.129 12.35 3.209 C 12.194 3.384 11.998 3.52 11.779 3.605 C 11.56 3.69 11.324 3.722 11.09 3.699 C 9.992 3.662 8.896 3.832 7.86 4.199 C 7.295 4.403 6.783 4.732 6.362 5.162 C 5.941 5.591 5.623 6.11 5.43 6.679 L 4.16 6.679 C 3.062 6.679 2.008 7.113 1.229 7.887 C 0.45 8.66 0.008 9.711 0 10.809 L 0 35.809 C -0.004 36.358 0.101 36.902 0.308 37.41 C 0.515 37.918 0.821 38.38 1.208 38.77 C 1.595 39.159 2.055 39.469 2.561 39.679 C 3.068 39.89 3.611 39.999 4.16 39.999 L 27.84 39.999 C 28.942 39.999 29.998 39.562 30.778 38.784 C 31.558 38.006 31.997 36.951 32 35.849 L 32 10.849 C 32.004 10.3 31.899 9.756 31.692 9.248 C 31.485 8.74 31.179 8.277 30.792 7.888 C 30.406 7.499 29.946 7.189 29.439 6.978 C 28.932 6.768 28.389 6.659 27.84 6.659 L 27.83 6.679 Z M 7.48 8.179 C 7.441 7.778 7.54 7.375 7.762 7.038 C 7.984 6.701 8.316 6.451 8.7 6.329 C 9.481 6.076 10.3 5.965 11.12 5.999 C 11.822 6.043 12.521 5.876 13.127 5.52 C 13.733 5.164 14.218 4.634 14.52 3.999 C 14.52 3.879 14.61 3.749 14.65 3.609 C 14.94 2.609 15.12 2.329 15.97 2.329 C 16.82 2.329 16.97 2.659 17.3 3.609 C 17.3 3.749 17.39 3.879 17.43 3.999 C 17.732 4.634 18.218 5.164 18.824 5.52 C 19.43 5.876 20.128 6.043 20.83 5.999 C 21.647 5.966 22.463 6.078 23.24 6.329 C 23.625 6.451 23.956 6.701 24.178 7.038 C 24.4 7.375 24.5 7.778 24.46 8.179 L 24.46 9.999 L 7.46 9.999 L 7.48 8.179 Z M 29.68 35.869 C 29.68 36.112 29.632 36.353 29.539 36.577 C 29.446 36.801 29.31 37.005 29.138 37.177 C 28.966 37.349 28.763 37.485 28.538 37.578 C 28.314 37.671 28.073 37.719 27.83 37.719 L 4.16 37.719 C 3.669 37.719 3.199 37.524 2.852 37.177 C 2.505 36.83 2.31 36.36 2.31 35.869 L 2.31 10.869 C 2.307 10.624 2.353 10.382 2.445 10.155 C 2.537 9.928 2.673 9.722 2.845 9.548 C 3.017 9.374 3.222 9.236 3.447 9.142 C 3.673 9.047 3.915 8.999 4.16 8.999 L 5.16 8.999 L 5.16 12.299 L 26.76 12.299 L 26.76 8.999 L 27.84 8.999 C 28.331 8.999 28.801 9.194 29.148 9.541 C 29.495 9.888 29.69 10.358 29.69 10.849 L 29.68 35.869 Z M 7.14 15.059 C 6.693 15.059 6.256 15.192 5.885 15.44 C 5.513 15.688 5.223 16.041 5.052 16.454 C 4.881 16.867 4.836 17.321 4.924 17.76 C 5.011 18.198 5.226 18.601 5.542 18.917 C 5.858 19.233 6.261 19.448 6.699 19.536 C 7.138 19.623 7.592 19.578 8.005 19.407 C 8.418 19.236 8.771 18.946 9.019 18.575 C 9.268 18.203 9.4 17.766 9.4 17.319 C 9.4 17.022 9.342 16.728 9.228 16.454 C 9.115 16.18 8.948 15.931 8.738 15.721 C 8.528 15.511 8.279 15.345 8.005 15.231 C 7.731 15.117 7.437 15.059 7.14 15.059 Z M 20.14 31.179 L 13.49 31.179 C 13.312 31.163 13.132 31.185 12.963 31.242 C 12.793 31.3 12.638 31.392 12.506 31.513 C 12.374 31.633 12.268 31.78 12.196 31.944 C 12.124 32.108 12.087 32.285 12.087 32.464 C 12.087 32.643 12.124 32.82 12.196 32.984 C 12.268 33.148 12.374 33.295 12.506 33.415 C 12.638 33.536 12.793 33.628 12.963 33.686 C 13.132 33.743 13.312 33.765 13.49 33.749 L 20.12 33.749 C 20.298 33.765 20.478 33.743 20.647 33.686 C 20.817 33.628 20.973 33.536 21.105 33.415 C 21.237 33.295 21.342 33.148 21.414 32.984 C 21.486 32.82 21.524 32.643 21.524 32.464 C 21.524 32.285 21.486 32.108 21.414 31.944 C 21.342 31.78 21.237 31.633 21.105 31.513 C 20.973 31.392 20.817 31.3 20.647 31.242 C 20.478 31.185 20.298 31.163 20.12 31.179 L 20.14 31.179 Z" fill="currentColor" fill-rule="nonzero"/>
</svg>
