<svg xmlns="http://www.w3.org/2000/svg" width="32.313" height="35.810" viewBox="0 0 32.313 35.810" fill="none">
  <path d="M 26.5 24.27 C 24.992 24.256 23.538 24.834 22.45 25.88 L 11.54 18.38 C 11.54 18.2 11.54 18.01 11.54 17.83 C 11.54 17.65 11.54 17.51 11.54 17.35 L 22.54 9.99 C 23.509 10.901 24.762 11.45 26.088 11.545 C 27.415 11.64 28.733 11.275 29.821 10.511 C 30.91 9.747 31.701 8.631 32.063 7.352 C 32.424 6.072 32.334 4.707 31.806 3.486 C 31.278 2.266 30.346 1.265 29.166 0.651 C 27.986 0.038 26.631 -0.15 25.329 0.12 C 24.027 0.389 22.858 1.099 22.018 2.131 C 21.179 3.162 20.72 4.451 20.72 5.78 C 20.719 6.499 20.855 7.212 21.12 7.88 L 10.72 14.88 C 10.066 13.802 9.076 12.968 7.903 12.504 C 6.73 12.041 5.437 11.974 4.222 12.314 C 3.008 12.654 1.937 13.382 1.175 14.387 C 0.413 15.392 0 16.619 0 17.88 C 0 19.142 0.413 20.369 1.175 21.374 C 1.937 22.379 3.008 23.107 4.222 23.446 C 5.437 23.786 6.73 23.72 7.903 23.256 C 9.076 22.793 10.066 21.959 10.72 20.88 L 21.13 28.04 C 20.705 29.193 20.658 30.451 20.996 31.631 C 21.335 32.812 22.042 33.854 23.014 34.605 C 23.986 35.357 25.172 35.778 26.4 35.809 C 27.628 35.839 28.834 35.477 29.842 34.774 C 30.85 34.072 31.607 33.066 32.004 31.904 C 32.4 30.741 32.416 29.482 32.047 28.31 C 31.679 27.138 30.946 26.115 29.956 25.388 C 28.965 24.661 27.769 24.27 26.54 24.27 L 26.5 24.27 Z" fill="currentColor" fill-rule="nonzero"/>
</svg>
