<svg xmlns="http://www.w3.org/2000/svg" width="35.200" height="35.400" viewBox="0 0 35.200 35.400" fill="none">
  <path d="M 22.4 29.2 C 23.5 26.4 24.6 23.5 25.7 20.7 C 25.8 20.5 25.7 20.4 25.6 20.3 C 23.8 18.5 22 16.7 20.3 15 L 15 9.7 C 14.9 9.6 14.7 9.5 14.6 9.6 L 6.1 12.9 C 5.8 13 5.5 13.1 5.3 13.3 C 4.9 13.6 4.6 14 4.5 14.5 C 3.9 17 3.4 19.5 2.8 22 C 2 25.6 1.2 29.2 0.3 32.9 C 0.2 33.3 0.1 33.7 0 34.2 L 0.1 34.1 L 8.5 25.8 C 8.6 25.7 8.6 25.6 8.5 25.5 C 8.2 25 8.1 24.5 8 23.9 C 7.8 21.7 9.5 19.7 11.7 19.6 C 12 19.6 12.2 19.6 12.5 19.6 C 14.3 19.8 15.8 21.3 16 23.1 C 16.2 25.3 14.7 27.3 12.4 27.5 C 12.1 27.5 11.9 27.5 11.6 27.5 C 11.1 27.5 10.5 27.3 10 27 C 9.9 26.9 9.8 26.9 9.7 27 L 1.2 35.2 L 1.1 35.4 L 2.4 35.1 L 13.3 32.7 L 20.8 31 C 21.3 30.9 21.7 30.6 22 30.2 C 22.2 29.8 22.3 29.5 22.4 29.2 Z M 16.3 7.9 L 16.2 8 C 18 9.8 19.9 11.7 21.7 13.5 C 23.5 15.3 25.4 17.2 27.2 19 L 27.3 18.9 C 27.2 19 35.2 17 35.2 17 L 26.7 8.5 L 18.2 0 C 18.2 0 16.2 8 16.3 7.9 Z" fill="currentColor" fill-rule="nonzero"/>
</svg>
