<svg xmlns="http://www.w3.org/2000/svg" width="38" height="38.250" viewBox="0 0 38 38.250" fill="none">
  <path d="M 17 19.13 C 17.53 19.13 18.039 19.341 18.414 19.716 C 18.789 20.091 19 20.599 19 21.13 L 19 36.25 C 19 36.78 18.789 37.289 18.414 37.664 C 18.039 38.039 17.53 38.25 17 38.25 C 16.47 38.25 15.961 38.039 15.586 37.664 C 15.211 37.289 15 36.78 15 36.25 L 15 23.13 L 2 23.13 C 1.47 23.13 0.961 22.919 0.586 22.544 C 0.211 22.169 0 21.66 0 21.13 C 0 20.599 0.211 20.091 0.586 19.716 C 0.961 19.341 1.47 19.13 2 19.13 L 17 19.13 Z M 21.05 0 C 21.58 0 22.089 0.211 22.464 0.586 C 22.839 0.961 23.05 1.47 23.05 2 L 23.05 15.13 L 36 15.13 C 36.53 15.13 37.039 15.341 37.414 15.716 C 37.789 16.091 38 16.599 38 17.13 C 38 17.66 37.789 18.169 37.414 18.544 C 37.039 18.919 36.53 19.13 36 19.13 L 21.05 19.13 C 20.519 19.13 20.011 18.919 19.636 18.544 C 19.261 18.169 19.05 17.66 19.05 17.13 L 19.05 2 C 19.05 1.47 19.261 0.961 19.636 0.586 C 20.011 0.211 20.519 0 21.05 0 Z" fill="currentColor" fill-rule="nonzero"/>
</svg>
