<svg xmlns="http://www.w3.org/2000/svg" width="39.276" height="39.948" viewBox="0 0 39.276 39.948" fill="none">
  <path d="M 20.625 14.158 C 20.882 14.155 21.135 14.224 21.355 14.358 C 21.522 14.453 21.669 14.581 21.786 14.733 C 21.903 14.886 21.988 15.062 22.035 15.248 C 22.131 15.624 22.077 16.022 21.885 16.358 L 17.435 23.948 L 26.875 23.028 C 26.91 23.035 26.943 23.051 26.971 23.073 C 26.999 23.096 27.021 23.125 27.035 23.158 C 27.055 23.19 27.064 23.227 27.064 23.264 C 27.064 23.301 27.055 23.337 27.035 23.368 L 16.935 39.269 C 16.805 39.478 16.623 39.65 16.408 39.769 C 16.193 39.888 15.951 39.949 15.705 39.948 C 15.51 39.947 15.318 39.907 15.139 39.831 C 14.96 39.755 14.797 39.644 14.661 39.504 C 14.525 39.364 14.419 39.199 14.348 39.018 C 14.276 38.837 14.241 38.643 14.245 38.448 C 14.246 38.169 14.325 37.895 14.475 37.658 L 21.635 26.479 L 12.365 27.368 C 12.333 27.369 12.301 27.362 12.273 27.346 C 12.244 27.33 12.221 27.306 12.205 27.278 C 12.188 27.248 12.178 27.214 12.178 27.179 C 12.178 27.144 12.188 27.109 12.205 27.078 L 19.355 14.878 C 19.486 14.659 19.672 14.477 19.895 14.351 C 20.117 14.224 20.369 14.158 20.625 14.158 Z M 13.905 0.238 C 15.128 -0.077 16.41 -0.08 17.633 0.232 C 18.856 0.543 19.982 1.158 20.905 2.019 C 21.87 1.602 22.908 1.381 23.958 1.369 C 25.009 1.357 26.052 1.554 27.025 1.948 C 28.001 2.363 28.883 2.967 29.623 3.726 C 30.363 4.484 30.945 5.383 31.335 6.368 L 31.635 6.368 C 33.584 6.367 35.46 7.112 36.878 8.448 C 38.296 9.785 39.15 11.613 39.265 13.559 C 39.273 13.658 39.277 13.758 39.275 13.858 C 39.282 15.73 38.631 17.544 37.439 18.985 C 36.246 20.427 34.584 21.404 32.745 21.748 L 27.295 21.748 C 26.908 21.748 26.537 21.594 26.263 21.32 C 25.989 21.047 25.835 20.675 25.835 20.288 C 25.835 19.901 25.989 19.53 26.263 19.256 C 26.537 18.982 26.908 18.828 27.295 18.828 L 32.415 18.828 C 33.53 18.586 34.529 17.971 35.245 17.083 C 35.962 16.195 36.353 15.089 36.355 13.948 C 36.288 12.845 35.851 11.797 35.114 10.973 C 34.378 10.149 33.384 9.598 32.295 9.408 L 29.335 9.408 C 29.293 9.408 29.251 9.394 29.217 9.369 C 29.183 9.344 29.157 9.309 29.145 9.269 L 28.905 8.269 C 28.721 7.477 28.353 6.74 27.832 6.116 C 27.311 5.493 26.651 5.001 25.905 4.679 C 25.312 4.448 24.681 4.328 24.045 4.328 C 23.101 4.324 22.175 4.589 21.375 5.089 L 20.485 5.618 L 20.385 5.618 C 20.332 5.617 20.282 5.596 20.245 5.559 L 19.555 4.809 C 19.107 4.233 18.534 3.766 17.879 3.443 C 17.224 3.121 16.505 2.952 15.775 2.948 C 15.379 2.938 14.981 2.979 14.595 3.068 C 12.225 3.678 10.995 5.259 10.735 8.068 L 10.615 9.389 C 10.614 9.414 10.607 9.439 10.595 9.461 C 10.583 9.484 10.566 9.504 10.545 9.519 C 10.506 9.533 10.463 9.533 10.425 9.519 L 8.865 9.318 L 8.355 9.248 C 8.172 9.238 7.988 9.238 7.805 9.248 C 6.61 9.25 5.458 9.69 4.566 10.484 C 3.674 11.279 3.104 12.372 2.965 13.559 C 2.915 14.056 2.936 14.558 3.025 15.049 C 3.252 16.144 3.847 17.128 4.711 17.838 C 5.575 18.548 6.657 18.939 7.775 18.948 L 7.875 18.948 C 8.065 18.947 8.254 18.983 8.431 19.055 C 8.607 19.126 8.768 19.233 8.903 19.366 C 9.039 19.5 9.147 19.659 9.221 19.834 C 9.295 20.009 9.334 20.198 9.335 20.389 C 9.332 20.773 9.179 21.141 8.908 21.414 C 8.637 21.687 8.269 21.843 7.885 21.849 L 7.805 21.849 C 6.026 21.859 4.299 21.257 2.911 20.145 C 1.524 19.032 0.561 17.476 0.185 15.738 C -0.088 14.525 -0.058 13.262 0.272 12.063 C 0.601 10.863 1.22 9.763 2.075 8.858 C 2.797 8.064 3.677 7.428 4.658 6.992 C 5.64 6.557 6.702 6.33 7.775 6.328 L 8.055 6.328 C 8.321 4.85 9.019 3.483 10.06 2.4 C 11.1 1.316 12.438 0.564 13.905 0.238 Z" fill="currentColor" fill-rule="nonzero"/>
</svg>
