<svg xmlns="http://www.w3.org/2000/svg" width="37.184" height="39.967" viewBox="0 0 37.184 39.967" fill="none">
  <path d="M 34.971 16.358 C 34.841 16.298 34.771 16.158 34.791 15.938 C 34.721 15.038 34.651 14.138 34.511 13.308 C 33.794 9.347 31.628 5.795 28.434 3.345 C 25.241 0.895 21.249 -0.278 17.238 0.056 C 13.227 0.389 9.484 2.205 6.738 5.149 C 3.993 8.092 2.443 11.953 2.391 15.978 C 2.395 16.067 2.371 16.156 2.323 16.231 C 2.274 16.306 2.204 16.365 2.121 16.398 C 1.467 16.769 0.925 17.31 0.552 17.962 C 0.179 18.615 -0.011 19.356 0.001 20.108 L 0.001 24.768 C 0.016 25.657 0.306 26.52 0.833 27.236 C 1.36 27.953 2.096 28.488 2.941 28.768 C 3.677 29.016 4.433 29.2 5.201 29.318 C 5.523 29.422 5.861 29.473 6.201 29.468 L 6.431 29.468 C 7.24 29.409 7.993 29.032 8.525 28.419 C 9.058 27.806 9.326 27.008 9.271 26.198 L 9.271 16.268 C 9.315 13.824 10.308 11.494 12.041 9.771 C 13.774 8.048 16.11 7.068 18.554 7.038 C 20.998 7.008 23.357 7.931 25.132 9.611 C 26.906 11.291 27.957 13.596 28.061 16.038 L 28.061 27.978 C 28.071 29.294 27.661 30.58 26.891 31.648 C 26.383 32.429 25.711 33.089 24.922 33.583 C 24.133 34.077 23.245 34.393 22.321 34.508 C 22.321 34.438 22.251 34.368 22.221 34.308 C 21.901 33.613 21.39 33.025 20.747 32.612 C 20.103 32.199 19.355 31.979 18.591 31.978 C 18.366 31.978 18.142 31.998 17.921 32.038 C 17.091 32.192 16.331 32.604 15.749 33.216 C 15.168 33.828 14.795 34.608 14.684 35.445 C 14.573 36.282 14.73 37.132 15.132 37.874 C 15.533 38.617 16.159 39.213 16.921 39.578 C 17.711 39.972 18.615 40.071 19.472 39.856 C 20.328 39.642 21.08 39.128 21.591 38.408 C 21.823 38.054 22.128 37.754 22.484 37.526 C 22.841 37.299 23.242 37.149 23.661 37.088 C 25.433 36.664 27.043 35.728 28.287 34.396 C 29.532 33.064 30.357 31.395 30.661 29.598 C 31.711 29.446 32.752 29.239 33.781 28.978 C 34.776 28.75 35.661 28.182 36.281 27.371 C 36.902 26.56 37.22 25.558 37.181 24.538 L 37.181 20.238 C 37.207 19.45 37.015 18.67 36.625 17.985 C 36.234 17.3 35.662 16.737 34.971 16.358 Z M 18.591 37.978 C 18.195 37.978 17.808 37.861 17.479 37.641 C 17.15 37.421 16.894 37.109 16.743 36.743 C 16.591 36.378 16.552 35.976 16.629 35.588 C 16.706 35.2 16.897 34.843 17.176 34.564 C 17.456 34.284 17.812 34.093 18.2 34.016 C 18.588 33.939 18.99 33.979 19.356 34.13 C 19.721 34.281 20.034 34.538 20.253 34.867 C 20.473 35.196 20.591 35.582 20.591 35.978 C 20.591 36.508 20.38 37.017 20.005 37.392 C 19.63 37.767 19.121 37.978 18.591 37.978 Z M 6.221 26.098 C 6.236 26.28 6.202 26.464 6.121 26.628 C 6.121 26.628 6.061 26.698 5.881 26.698 C 5.735 26.698 5.59 26.677 5.451 26.638 C 4.925 26.551 4.404 26.438 3.891 26.298 C 3.537 26.244 3.217 26.06 2.991 25.783 C 2.766 25.506 2.652 25.155 2.671 24.798 L 2.671 20.198 C 2.658 19.883 2.749 19.572 2.929 19.314 C 3.11 19.056 3.37 18.864 3.671 18.768 C 4.181 18.618 4.721 18.508 5.281 18.398 L 6.221 18.208 L 6.221 26.098 Z M 30.171 14.638 C 29.736 11.873 28.334 9.352 26.212 7.525 C 24.091 5.699 21.39 4.686 18.591 4.668 C 15.789 4.69 13.086 5.708 10.966 7.54 C 8.847 9.372 7.448 11.899 7.021 14.668 C 6.891 15.668 6.691 15.898 5.591 16.108 C 5.487 16.142 5.379 16.162 5.271 16.168 L 4.601 16.238 L 4.601 15.658 C 4.692 13.589 5.254 11.568 6.243 9.749 C 7.233 7.929 8.624 6.359 10.311 5.158 C 12.627 3.369 15.446 2.352 18.371 2.248 L 18.811 2.248 C 21.735 2.352 24.554 3.369 26.871 5.158 C 28.555 6.355 29.946 7.92 30.937 9.734 C 31.928 11.548 32.493 13.563 32.591 15.628 L 32.591 16.208 L 31.921 16.138 C 31.808 16.133 31.697 16.113 31.591 16.078 C 30.501 15.868 30.301 15.668 30.171 14.638 Z M 34.231 24.978 C 34.238 25.27 34.142 25.554 33.958 25.782 C 33.775 26.009 33.517 26.163 33.231 26.218 C 32.482 26.467 31.712 26.648 30.931 26.758 L 30.751 26.658 L 30.751 26.408 L 30.751 18.208 L 33.161 18.728 C 33.47 18.807 33.743 18.988 33.935 19.243 C 34.128 19.497 34.228 19.809 34.221 20.128 C 34.301 21.658 34.301 23.278 34.231 24.978 Z" fill="currentColor" fill-rule="nonzero"/>
</svg>
