<svg xmlns="http://www.w3.org/2000/svg" width="36.009" height="36" viewBox="0 0 36.009 36" fill="none">
  <path d="M 3.839 36 C 3.17 35.978 2.534 35.702 2.061 35.228 C 1.587 34.755 1.312 34.119 1.289 33.45 L 0.009 8.44 C -0.05 7.678 0.179 6.922 0.649 6.32 C 0.868 6.042 1.147 5.817 1.466 5.662 C 1.785 5.508 2.135 5.429 2.489 5.43 L 10.869 5.43 C 11.218 5.44 11.561 5.52 11.879 5.664 C 12.197 5.809 12.483 6.015 12.72 6.271 C 12.958 6.527 13.142 6.827 13.262 7.155 C 13.382 7.483 13.435 7.831 13.419 8.18 C 13.411 8.47 13.518 8.752 13.716 8.963 C 13.915 9.175 14.189 9.3 14.479 9.31 L 32.119 9.31 C 32.152 9.31 32.184 9.298 32.208 9.276 C 32.232 9.253 32.247 9.223 32.249 9.19 L 32.309 6.71 C 32.309 6.55 32.239 6.45 32.119 6.45 L 16.709 6.45 C 15.77 6.401 14.887 5.988 14.247 5.3 C 13.607 4.611 13.26 3.7 13.279 2.76 C 13.279 2.688 13.251 2.62 13.2 2.569 C 13.149 2.518 13.081 2.49 13.009 2.49 L 3.779 2.49 C 3.728 2.498 3.68 2.518 3.639 2.55 C 3.607 2.59 3.586 2.639 3.579 2.69 C 3.609 2.864 3.604 3.041 3.564 3.213 C 3.525 3.385 3.452 3.547 3.349 3.69 C 3.253 3.816 3.132 3.921 2.995 4 C 2.858 4.079 2.706 4.13 2.549 4.15 C 2.39 4.159 2.231 4.137 2.081 4.084 C 1.931 4.031 1.794 3.948 1.676 3.841 C 1.559 3.734 1.464 3.604 1.398 3.46 C 1.331 3.315 1.294 3.159 1.289 3 C 1.252 2.625 1.289 2.246 1.399 1.886 C 1.509 1.525 1.689 1.19 1.929 0.9 C 2.147 0.62 2.426 0.393 2.745 0.237 C 3.064 0.081 3.414 0 3.769 0 L 13.009 0 C 13.358 0.012 13.701 0.092 14.019 0.237 C 14.337 0.381 14.623 0.587 14.861 0.843 C 15.099 1.098 15.284 1.398 15.405 1.726 C 15.527 2.053 15.582 2.401 15.569 2.75 C 15.561 3.04 15.668 3.322 15.866 3.533 C 16.065 3.745 16.339 3.87 16.629 3.88 L 32.009 3.88 C 32.711 3.9 33.377 4.199 33.859 4.71 C 34.332 5.268 34.584 5.979 34.569 6.71 L 34.499 9.52 C 34.486 9.556 34.486 9.594 34.499 9.63 C 34.712 9.784 34.91 9.958 35.089 10.15 C 35.624 10.742 35.948 11.494 36.009 12.29 L 35.469 33.29 C 35.48 33.985 35.22 34.656 34.744 35.162 C 34.268 35.668 33.613 35.969 32.919 36 L 3.839 36 Z M 2.429 7.92 C 2.38 7.925 2.334 7.948 2.3 7.985 C 2.267 8.022 2.249 8.07 2.249 8.12 L 3.519 33.18 C 3.522 33.23 3.542 33.277 3.577 33.312 C 3.613 33.347 3.659 33.368 3.709 33.37 L 32.789 33.37 C 32.855 33.366 32.917 33.338 32.965 33.292 C 33.012 33.247 33.042 33.186 33.049 33.12 L 33.519 12.12 C 33.519 11.96 33.439 11.85 33.329 11.85 L 14.499 11.85 C 13.562 11.803 12.68 11.393 12.041 10.705 C 11.402 10.018 11.057 9.108 11.079 8.17 C 11.079 8.102 11.054 8.036 11.007 7.986 C 10.961 7.936 10.897 7.905 10.829 7.9 L 2.429 7.92 Z" fill="currentColor" fill-rule="nonzero"/>
</svg>
