<svg xmlns="http://www.w3.org/2000/svg" width="39.988" height="39.970" viewBox="0 0 39.988 39.970" fill="none">
  <path d="M 20.004 31.579 C 24.43 31.579 28.73 33.053 32.224 35.77 C 28.732 38.491 24.431 39.97 20.004 39.97 C 15.577 39.97 11.276 38.491 7.784 35.77 C 11.279 33.053 15.578 31.579 20.004 31.579 Z M 21.444 0 C 24.299 0.199 27.077 1.012 29.59 2.382 C 32.103 3.752 34.29 5.648 36.004 7.94 L 32.794 10.2 C 32.558 10.37 32.381 10.611 32.289 10.888 C 32.198 11.164 32.197 11.463 32.285 11.74 C 32.374 12.018 32.549 12.26 32.783 12.433 C 33.018 12.605 33.303 12.699 33.594 12.7 C 33.882 12.703 34.163 12.612 34.394 12.44 L 37.458 10.25 C 39.536 13.973 40.367 18.264 39.827 22.494 C 39.287 26.727 37.403 30.676 34.453 33.76 C 30.365 30.441 25.259 28.629 19.993 28.629 C 14.727 28.629 9.621 30.44 5.533 33.76 C 2.584 30.676 0.7 26.727 0.16 22.494 C -0.38 18.261 0.452 13.966 2.533 10.24 L 5.764 12.56 C 5.999 12.724 6.277 12.815 6.564 12.82 C 6.855 12.819 7.138 12.725 7.373 12.553 C 7.608 12.38 7.783 12.138 7.872 11.86 C 7.961 11.583 7.96 11.284 7.868 11.008 C 7.777 10.731 7.6 10.491 7.363 10.32 L 4.054 7.94 C 5.775 5.64 7.974 3.739 10.499 2.368 C 13.025 0.998 15.817 0.189 18.684 0 L 18.684 3.81 C 18.684 4.176 18.829 4.527 19.088 4.786 C 19.347 5.045 19.698 5.19 20.064 5.19 C 20.43 5.19 20.78 5.045 21.039 4.786 C 21.298 4.527 21.444 4.176 21.444 3.81 L 21.444 0 Z M 12.164 11.061 C 11.796 11.067 11.445 11.22 11.189 11.485 C 10.933 11.751 10.793 12.106 10.799 12.475 C 10.806 12.843 10.959 13.194 11.224 13.45 C 11.248 13.474 14.819 16.876 16.434 18.45 C 16.585 18.656 16.692 18.891 16.747 19.141 C 16.802 19.39 16.805 19.65 16.754 19.9 C 16.748 20.349 16.833 20.794 17.005 21.208 C 17.177 21.622 17.432 21.997 17.754 22.31 C 18.373 22.908 19.203 23.237 20.064 23.224 C 20.924 23.21 21.744 22.857 22.344 22.24 L 22.344 22.21 C 22.938 21.591 23.263 20.761 23.248 19.903 C 23.233 19.045 22.879 18.228 22.264 17.63 C 21.94 17.322 21.556 17.082 21.137 16.926 C 20.718 16.769 20.27 16.699 19.823 16.72 C 19.575 16.777 19.317 16.783 19.066 16.736 C 18.815 16.69 18.575 16.592 18.363 16.45 L 13.154 11.45 C 12.888 11.194 12.533 11.054 12.164 11.061 Z M 37.458 10.25 C 37.456 10.247 37.455 10.243 37.453 10.24 L 37.474 10.24 L 37.458 10.25 Z" fill="currentColor" fill-rule="nonzero"/>
</svg>
