<svg xmlns="http://www.w3.org/2000/svg" width="40" height="32.760" viewBox="0 0 40 32.760" fill="none">
  <path d="M 31.93 16.62 C 34.07 16.62 36.123 17.47 37.637 18.983 C 39.15 20.497 40 22.55 40 24.69 C 40 26.286 39.526 27.847 38.64 29.174 C 37.753 30.501 36.493 31.535 35.019 32.146 C 33.544 32.756 31.921 32.916 30.355 32.604 C 28.79 32.293 27.352 31.525 26.224 30.396 C 25.095 29.268 24.326 27.83 24.015 26.265 C 23.703 24.699 23.864 23.076 24.475 21.602 C 25.085 20.127 26.119 18.867 27.446 17.98 C 28.773 17.094 30.334 16.62 31.93 16.62 Z M 4.19 1.13 C 4.493 1.13 4.782 1.25 4.996 1.464 C 5.21 1.678 5.33 1.967 5.33 2.27 C 5.33 2.572 5.21 2.862 4.996 3.076 C 4.782 3.29 4.493 3.41 4.19 3.41 L 3.65 3.41 C 3.471 3.409 3.293 3.443 3.127 3.511 C 2.961 3.578 2.809 3.678 2.682 3.805 C 2.554 3.931 2.454 4.082 2.385 4.247 C 2.316 4.413 2.28 4.59 2.28 4.77 L 2.28 11.14 L 30.54 11.14 L 30.54 4.77 C 30.54 4.59 30.504 4.413 30.436 4.247 C 30.367 4.081 30.265 3.931 30.138 3.805 C 30.01 3.678 29.859 3.578 29.693 3.511 C 29.527 3.443 29.349 3.409 29.17 3.41 L 28.63 3.41 C 28.328 3.41 28.038 3.29 27.824 3.076 C 27.61 2.862 27.49 2.572 27.49 2.27 C 27.49 1.967 27.611 1.678 27.824 1.464 C 28.038 1.25 28.328 1.13 28.63 1.13 L 29.17 1.13 C 29.649 1.129 30.124 1.222 30.566 1.404 C 31.009 1.587 31.411 1.854 31.75 2.192 C 32.089 2.531 32.358 2.933 32.542 3.375 C 32.725 3.817 32.82 4.291 32.82 4.77 L 32.82 13.87 C 32.82 14.172 32.7 14.462 32.486 14.676 C 32.273 14.89 31.982 15.01 31.68 15.01 C 31.377 15.01 31.088 14.889 30.874 14.676 C 30.66 14.462 30.54 14.172 30.54 13.87 L 30.54 13.42 L 2.28 13.42 L 2.28 26.7 C 2.28 27.063 2.425 27.412 2.682 27.669 C 2.939 27.926 3.287 28.07 3.65 28.07 L 20.87 28.07 L 20.87 28.06 C 21.028 28.045 21.187 28.063 21.338 28.113 C 21.488 28.164 21.627 28.245 21.744 28.352 C 21.861 28.458 21.955 28.589 22.02 28.734 C 22.084 28.879 22.116 29.037 22.116 29.195 C 22.116 29.354 22.084 29.511 22.02 29.656 C 21.955 29.801 21.861 29.931 21.744 30.038 C 21.627 30.145 21.488 30.226 21.338 30.276 C 21.187 30.327 21.028 30.345 20.87 30.33 L 3.65 30.33 C 3.172 30.331 2.698 30.238 2.256 30.057 C 1.814 29.875 1.412 29.607 1.073 29.271 C 0.734 28.933 0.465 28.533 0.281 28.092 C 0.097 27.651 0.001 27.178 0 26.7 L 0 4.77 C 0 4.291 0.095 3.817 0.278 3.375 C 0.462 2.933 0.73 2.531 1.069 2.192 C 1.408 1.854 1.811 1.587 2.254 1.404 C 2.697 1.222 3.172 1.129 3.65 1.13 L 4.19 1.13 Z M 31.84 19.08 C 31.638 19.08 31.445 19.16 31.303 19.303 C 31.16 19.445 31.08 19.638 31.08 19.84 L 31.08 25.84 L 35.85 27.84 C 35.931 27.897 36.031 27.922 36.13 27.91 C 36.277 27.898 36.418 27.847 36.539 27.763 C 36.66 27.678 36.758 27.563 36.82 27.43 C 36.888 27.242 36.882 27.036 36.805 26.853 C 36.727 26.669 36.582 26.522 36.4 26.44 L 32.6 24.84 L 32.6 19.84 C 32.6 19.638 32.519 19.445 32.377 19.303 C 32.234 19.16 32.041 19.08 31.84 19.08 Z M 8.02 0 C 8.285 0 8.54 0.105 8.728 0.293 C 8.915 0.48 9.02 0.735 9.02 1 L 9.02 3.92 C 9.615 4.148 10.112 4.579 10.423 5.136 C 10.733 5.693 10.839 6.341 10.72 6.968 C 10.601 7.594 10.265 8.16 9.771 8.564 C 9.278 8.969 8.657 9.186 8.02 9.18 C 7.382 9.186 6.762 8.969 6.269 8.564 C 5.775 8.16 5.439 7.594 5.32 6.968 C 5.201 6.341 5.307 5.693 5.617 5.136 C 5.928 4.579 6.424 4.148 7.02 3.92 L 7.02 1 C 7.02 0.735 7.125 0.48 7.313 0.293 C 7.5 0.106 7.754 0 8.02 0 Z M 24.8 0 C 25.065 0 25.319 0.105 25.507 0.293 C 25.694 0.481 25.8 0.735 25.8 1 L 25.8 3.92 C 26.396 4.148 26.892 4.579 27.203 5.136 C 27.514 5.693 27.618 6.341 27.499 6.968 C 27.38 7.594 27.044 8.16 26.551 8.564 C 26.057 8.969 25.438 9.186 24.8 9.18 C 24.162 9.186 23.542 8.969 23.049 8.564 C 22.555 8.16 22.22 7.594 22.101 6.968 C 21.982 6.341 22.086 5.693 22.396 5.136 C 22.707 4.579 23.204 4.148 23.8 3.92 L 23.8 1 C 23.8 0.735 23.905 0.48 24.093 0.293 C 24.28 0.105 24.535 0 24.8 0 Z M 8.02 5.4 C 7.88 5.399 7.741 5.425 7.612 5.478 C 7.483 5.53 7.366 5.609 7.268 5.707 C 7.169 5.806 7.091 5.924 7.038 6.053 C 6.985 6.182 6.959 6.32 6.96 6.46 C 6.96 6.67 7.022 6.875 7.139 7.049 C 7.255 7.223 7.421 7.359 7.614 7.439 C 7.808 7.52 8.021 7.541 8.227 7.5 C 8.432 7.459 8.621 7.358 8.77 7.21 C 8.918 7.062 9.019 6.873 9.06 6.667 C 9.1 6.461 9.079 6.248 8.999 6.055 C 8.919 5.861 8.783 5.696 8.609 5.579 C 8.435 5.463 8.229 5.4 8.02 5.4 Z M 24.8 5.4 C 24.519 5.4 24.25 5.512 24.051 5.711 C 23.852 5.91 23.74 6.179 23.74 6.46 C 23.74 6.67 23.802 6.875 23.919 7.049 C 24.035 7.223 24.201 7.359 24.395 7.439 C 24.588 7.52 24.801 7.541 25.007 7.5 C 25.212 7.459 25.402 7.358 25.55 7.21 C 25.698 7.062 25.799 6.873 25.84 6.667 C 25.881 6.461 25.859 6.248 25.779 6.055 C 25.699 5.861 25.563 5.696 25.389 5.579 C 25.214 5.463 25.009 5.4 24.8 5.4 Z M 20.97 1.13 C 21.272 1.13 21.563 1.25 21.776 1.464 C 21.99 1.678 22.11 1.967 22.11 2.27 C 22.11 2.572 21.99 2.862 21.776 3.076 C 21.563 3.29 21.272 3.41 20.97 3.41 L 11.85 3.41 C 11.547 3.41 11.258 3.29 11.044 3.076 C 10.83 2.862 10.71 2.572 10.71 2.27 C 10.71 1.967 10.83 1.678 11.044 1.464 C 11.258 1.25 11.547 1.13 11.85 1.13 L 20.97 1.13 Z" fill="currentColor" fill-rule="nonzero"/>
</svg>
