<svg xmlns="http://www.w3.org/2000/svg" width="36" height="36" viewBox="0 0 36 36" fill="none">
  <path d="M 22.65 4 L 29.15 4 L 11.49 21.69 C 11.118 22.065 10.91 22.572 10.91 23.1 C 10.91 23.495 11.026 23.882 11.246 24.211 C 11.465 24.539 11.776 24.796 12.141 24.948 C 12.506 25.1 12.908 25.14 13.295 25.064 C 13.683 24.988 14.04 24.799 14.32 24.52 L 32 6.86 L 32 13.36 C 32 13.89 32.211 14.399 32.586 14.774 C 32.961 15.149 33.47 15.36 34 15.36 C 34.53 15.36 35.039 15.149 35.414 14.774 C 35.789 14.399 36 13.89 36 13.36 L 36 2 C 36 1.47 35.789 0.961 35.414 0.586 C 35.039 0.211 34.53 0 34 0 L 22.65 0 C 22.12 0 21.611 0.211 21.236 0.586 C 20.861 0.961 20.65 1.47 20.65 2 C 20.65 2.53 20.861 3.039 21.236 3.414 C 21.611 3.789 22.12 4 22.65 4 Z M 34 23.76 C 33.47 23.76 32.961 23.971 32.586 24.346 C 32.211 24.721 32 25.23 32 25.76 L 32 32 L 4 32 L 4 4 L 10.25 4 C 10.78 4 11.289 3.789 11.664 3.414 C 12.039 3.039 12.25 2.53 12.25 2 C 12.25 1.47 12.039 0.961 11.664 0.586 C 11.289 0.211 10.78 0 10.25 0 L 0 0 L 0 36 L 36 36 L 36 25.76 C 36 25.23 35.789 24.721 35.414 24.346 C 35.039 23.971 34.53 23.76 34 23.76 Z" fill="currentColor" fill-rule="nonzero"/>
</svg>
