<svg xmlns="http://www.w3.org/2000/svg" width="39.987" height="29.993" viewBox="0 0 39.987 29.993" fill="none">
  <path d="M 39.382 12.373 L 20.832 0.233 C 20.604 0.081 20.336 0 20.062 0 C 19.788 0 19.52 0.081 19.292 0.233 L 0.662 12.393 C 0.5 12.494 0.361 12.627 0.252 12.784 C 0.143 12.941 0.067 13.118 0.029 13.305 C -0.01 13.492 -0.01 13.685 0.029 13.872 C 0.067 14.059 0.143 14.236 0.252 14.393 C 0.383 14.583 0.56 14.737 0.766 14.842 C 0.972 14.947 1.201 14.999 1.432 14.993 C 1.706 14.997 1.975 14.916 2.202 14.763 L 4.652 13.173 L 4.652 26.173 C 4.648 26.672 4.743 27.167 4.931 27.63 C 5.119 28.093 5.397 28.514 5.748 28.869 C 6.099 29.224 6.517 29.506 6.978 29.699 C 7.439 29.891 7.933 29.991 8.432 29.993 L 31.432 29.993 C 31.929 29.993 32.42 29.895 32.879 29.705 C 33.337 29.515 33.754 29.237 34.105 28.886 C 34.456 28.535 34.734 28.118 34.924 27.659 C 35.114 27.201 35.212 26.709 35.212 26.213 L 35.212 12.993 L 37.882 14.743 C 38.196 14.915 38.563 14.963 38.91 14.877 C 39.258 14.79 39.56 14.576 39.756 14.276 C 39.952 13.977 40.027 13.614 39.967 13.261 C 39.907 12.908 39.716 12.591 39.432 12.373 L 39.382 12.373 Z M 20.772 23.723 L 20.772 24.853 C 20.77 25.091 20.674 25.318 20.506 25.486 C 20.337 25.655 20.11 25.75 19.872 25.753 C 19.633 25.753 19.405 25.658 19.236 25.489 C 19.067 25.32 18.972 25.091 18.972 24.853 L 18.972 23.853 C 18.195 23.81 17.432 23.624 16.722 23.303 C 16.531 23.201 16.378 23.041 16.286 22.845 C 16.194 22.649 16.168 22.428 16.212 22.217 C 16.256 22.005 16.368 21.813 16.53 21.67 C 16.692 21.527 16.896 21.44 17.112 21.423 C 17.249 21.424 17.385 21.451 17.512 21.503 C 18.141 21.787 18.822 21.94 19.512 21.953 C 20.722 21.953 21.512 21.313 21.512 20.363 C 21.512 19.413 20.922 18.923 19.512 18.313 C 17.752 17.623 16.122 16.713 16.122 14.663 C 16.14 13.847 16.442 13.063 16.978 12.448 C 17.513 11.832 18.247 11.423 19.052 11.293 L 19.052 10.173 C 19.076 9.949 19.181 9.742 19.348 9.592 C 19.515 9.441 19.732 9.358 19.957 9.358 C 20.182 9.358 20.399 9.441 20.566 9.592 C 20.733 9.742 20.839 9.949 20.862 10.173 L 20.862 11.173 C 21.455 11.213 22.039 11.345 22.592 11.563 C 22.832 11.661 23.024 11.848 23.128 12.085 C 23.233 12.322 23.241 12.59 23.152 12.833 C 23.078 13.009 22.954 13.16 22.796 13.268 C 22.639 13.376 22.453 13.437 22.262 13.443 C 22.132 13.444 22.003 13.421 21.882 13.373 C 21.357 13.135 20.789 13.006 20.212 12.993 C 18.902 12.993 18.442 13.703 18.442 14.363 C 18.442 15.023 18.942 15.563 20.642 16.303 C 22.862 17.233 23.812 18.373 23.812 20.113 C 23.811 20.976 23.505 21.811 22.949 22.471 C 22.393 23.131 21.622 23.575 20.772 23.723 Z" fill="currentColor" fill-rule="nonzero"/>
</svg>
