<svg xmlns="http://www.w3.org/2000/svg" width="40" height="28" viewBox="0 0 40 28" fill="none">
  <path d="M 36.49 10.57 L 35.66 5 C 35.475 3.625 34.801 2.364 33.762 1.445 C 32.722 0.527 31.387 0.014 30 0 L 10 0 C 8.611 0.012 7.274 0.524 6.232 1.442 C 5.191 2.361 4.515 3.624 4.33 5 L 3.5 10.6 C 2.464 11.055 1.581 11.8 0.96 12.746 C 0.339 13.692 0.005 14.798 0 15.93 L 0 19.11 C 0.001 20.314 0.374 21.488 1.07 22.47 L 1.07 26 C 1.07 26.53 1.281 27.039 1.656 27.414 C 2.031 27.789 2.54 28 3.07 28 C 3.6 28 4.109 27.789 4.484 27.414 C 4.859 27.039 5.07 26.53 5.07 26 L 5.07 24.9 C 5.329 24.932 5.589 24.949 5.85 24.95 L 34.15 24.95 C 34.353 24.96 34.557 24.96 34.76 24.95 L 34.76 26 C 34.76 26.53 34.971 27.039 35.346 27.414 C 35.721 27.789 36.23 28 36.76 28 C 37.29 28 37.799 27.789 38.174 27.414 C 38.549 27.039 38.76 26.53 38.76 26 L 38.76 22.7 C 39.561 21.675 39.997 20.411 40 19.11 L 40 15.93 C 40 14.792 39.667 13.679 39.044 12.727 C 38.421 11.775 37.533 11.025 36.49 10.57 Z M 6.82 5.33 C 6.919 4.554 7.295 3.84 7.88 3.319 C 8.465 2.799 9.218 2.508 10 2.5 L 30 2.5 C 30.784 2.506 31.54 2.796 32.126 3.316 C 32.713 3.837 33.091 4.552 33.19 5.33 L 33.9 10.08 L 6.11 10.08 L 6.82 5.33 Z M 9.82 18.33 C 9.754 18.585 9.639 18.824 9.481 19.034 C 9.323 19.245 9.125 19.422 8.898 19.555 C 8.672 19.689 8.421 19.777 8.16 19.814 C 7.9 19.85 7.635 19.836 7.38 19.77 C 7.125 19.704 6.886 19.589 6.676 19.431 C 6.465 19.273 6.288 19.075 6.155 18.848 C 6.021 18.622 5.933 18.371 5.896 18.11 C 5.86 17.85 5.874 17.585 5.94 17.33 C 6.032 16.982 6.217 16.666 6.474 16.414 C 6.731 16.163 7.051 15.985 7.4 15.9 C 7.737 15.813 8.09 15.815 8.425 15.906 C 8.761 15.997 9.067 16.174 9.313 16.419 C 9.56 16.664 9.738 16.969 9.83 17.305 C 9.922 17.64 9.926 17.993 9.84 18.33 L 9.82 18.33 Z M 26.05 19.09 L 13.93 19.09 C 13.598 19.09 13.281 18.958 13.046 18.724 C 12.812 18.489 12.68 18.172 12.68 17.84 C 12.68 17.508 12.812 17.191 13.046 16.956 C 13.281 16.722 13.598 16.59 13.93 16.59 L 26.07 16.59 C 26.402 16.59 26.719 16.722 26.954 16.956 C 27.188 17.191 27.32 17.508 27.32 17.84 C 27.32 18.172 27.188 18.489 26.954 18.724 C 26.719 18.958 26.402 19.09 26.07 19.09 L 26.05 19.09 Z M 34.05 18.33 C 33.963 18.679 33.783 18.998 33.529 19.253 C 33.276 19.508 32.958 19.69 32.61 19.78 C 32.272 19.868 31.918 19.866 31.581 19.775 C 31.245 19.683 30.938 19.506 30.691 19.259 C 30.444 19.012 30.267 18.705 30.175 18.369 C 30.084 18.032 30.082 17.678 30.17 17.34 C 30.303 16.825 30.634 16.385 31.092 16.115 C 31.549 15.845 32.095 15.767 32.61 15.9 C 33.125 16.033 33.565 16.364 33.835 16.822 C 34.105 17.279 34.183 17.825 34.05 18.34 L 34.05 18.33 Z" fill="currentColor" fill-rule="nonzero"/>
</svg>
