<svg xmlns="http://www.w3.org/2000/svg" width="40" height="31.640" viewBox="0 0 40 31.640" fill="none">
  <path d="M 8.02 6.38 C 8.23 6.38 8.435 6.318 8.609 6.201 C 8.783 6.085 8.919 5.919 8.999 5.726 C 9.08 5.532 9.101 5.319 9.06 5.113 C 9.019 4.908 8.918 4.719 8.77 4.57 C 8.621 4.422 8.432 4.321 8.227 4.28 C 8.021 4.239 7.808 4.26 7.614 4.341 C 7.421 4.421 7.255 4.557 7.139 4.731 C 7.022 4.905 6.96 5.11 6.96 5.32 C 6.959 5.46 6.985 5.598 7.038 5.727 C 7.091 5.856 7.169 5.974 7.267 6.073 C 7.366 6.171 7.484 6.249 7.613 6.302 C 7.742 6.355 7.88 6.381 8.02 6.38 Z M 24.8 6.38 C 25.01 6.38 25.215 6.318 25.389 6.201 C 25.563 6.085 25.699 5.919 25.779 5.726 C 25.86 5.532 25.881 5.319 25.84 5.113 C 25.799 4.908 25.698 4.719 25.55 4.57 C 25.401 4.422 25.212 4.321 25.007 4.28 C 24.801 4.239 24.588 4.26 24.394 4.341 C 24.201 4.421 24.035 4.557 23.919 4.731 C 23.802 4.905 23.74 5.11 23.74 5.32 C 23.74 5.601 23.852 5.871 24.05 6.07 C 24.249 6.268 24.519 6.38 24.8 6.38 Z M 31.93 15.48 C 30.332 15.478 28.768 15.95 27.438 16.837 C 26.108 17.724 25.071 18.985 24.458 20.461 C 23.845 21.937 23.683 23.562 23.994 25.13 C 24.305 26.698 25.073 28.139 26.203 29.27 C 27.333 30.401 28.772 31.171 30.34 31.484 C 31.908 31.797 33.533 31.637 35.01 31.026 C 36.487 30.415 37.749 29.379 38.638 28.05 C 39.526 26.721 40 25.159 40 23.56 C 40 21.419 39.15 19.365 37.637 17.85 C 36.124 16.335 34.071 15.483 31.93 15.48 Z M 36.82 26.3 C 36.757 26.434 36.66 26.548 36.539 26.633 C 36.418 26.717 36.277 26.768 36.13 26.78 C 36.031 26.792 35.931 26.767 35.85 26.71 L 31.08 24.71 L 31.08 18.71 C 31.08 18.508 31.16 18.315 31.303 18.173 C 31.445 18.03 31.638 17.95 31.84 17.95 C 32.042 17.95 32.235 18.03 32.377 18.173 C 32.52 18.315 32.6 18.508 32.6 18.71 L 32.6 23.71 L 36.4 25.31 C 36.582 25.392 36.727 25.539 36.804 25.723 C 36.882 25.906 36.888 26.112 36.82 26.3 Z M 20.87 26.93 L 3.65 26.93 C 3.471 26.931 3.293 26.897 3.126 26.829 C 2.96 26.762 2.809 26.662 2.682 26.535 C 2.555 26.409 2.453 26.258 2.384 26.093 C 2.316 25.927 2.28 25.749 2.28 25.57 L 2.28 12.29 L 30.54 12.29 L 30.54 12.74 C 30.54 13.042 30.66 13.332 30.874 13.546 C 31.088 13.76 31.378 13.88 31.68 13.88 C 31.982 13.88 32.272 13.76 32.486 13.546 C 32.7 13.332 32.82 13.042 32.82 12.74 L 32.82 3.64 C 32.82 3.161 32.726 2.687 32.542 2.245 C 32.358 1.802 32.089 1.401 31.75 1.063 C 31.411 0.724 31.009 0.457 30.566 0.274 C 30.123 0.092 29.649 -0.001 29.17 0 L 25.78 0 L 25.78 2.8 C 26.372 3.033 26.863 3.465 27.17 4.022 C 27.477 4.578 27.581 5.225 27.462 5.849 C 27.344 6.474 27.011 7.037 26.521 7.443 C 26.032 7.848 25.416 8.07 24.78 8.07 C 24.144 8.07 23.528 7.848 23.039 7.443 C 22.549 7.037 22.216 6.474 22.098 5.849 C 21.979 5.225 22.083 4.578 22.39 4.022 C 22.697 3.465 23.188 3.033 23.78 2.8 L 23.78 0 L 9 0 L 9 2.8 C 9.592 3.033 10.083 3.465 10.39 4.022 C 10.697 4.578 10.801 5.225 10.682 5.849 C 10.564 6.474 10.231 7.037 9.741 7.443 C 9.252 7.848 8.636 8.07 8 8.07 C 7.364 8.07 6.748 7.848 6.259 7.443 C 5.769 7.037 5.436 6.474 5.318 5.849 C 5.199 5.225 5.303 4.578 5.61 4.022 C 5.917 3.465 6.408 3.033 7 2.8 L 7 0 L 3.65 0 C 3.171 -0.001 2.697 0.092 2.254 0.274 C 1.811 0.457 1.409 0.724 1.07 1.063 C 0.731 1.401 0.462 1.802 0.278 2.245 C 0.094 2.687 0 3.161 0 3.64 L 0 25.57 C 0 26.049 0.094 26.523 0.278 26.965 C 0.462 27.408 0.731 27.809 1.07 28.147 C 1.409 28.486 1.811 28.753 2.254 28.936 C 2.697 29.118 3.171 29.211 3.65 29.21 L 20.87 29.21 C 21.172 29.21 21.462 29.09 21.676 28.876 C 21.89 28.662 22.01 28.372 22.01 28.07 C 22.01 27.768 21.89 27.478 21.676 27.264 C 21.462 27.05 21.172 26.93 20.87 26.93 Z" fill="currentColor" fill-rule="nonzero"/>
</svg>
