<svg xmlns="http://www.w3.org/2000/svg" width="40" height="40" viewBox="0 0 40 40" fill="none">
  <path d="M 20 0 C 9 0 0 9 0 20 C 0 31 9 40 20 40 C 31 40 40 31 40 20 C 40 9 31 0 20 0 Z M 31.1 20.3 L 22.2 29.2 C 22 29.4 21.7 29.4 21.5 29.2 C 21.4 29.1 21.4 29 21.4 28.9 L 21.4 21.8 L 14 29.2 C 13.8 29.4 13.5 29.4 13.3 29.2 C 13.2 29.1 13.2 29 13.2 28.9 L 13.2 11.2 C 13.2 10.9 13.4 10.7 13.7 10.7 C 13.8 10.7 13.9 10.8 14 10.8 L 21.5 18.3 L 21.5 11.2 C 21.5 10.9 21.7 10.7 22 10.7 C 22.1 10.7 22.3 10.8 22.3 10.8 L 31.1 19.6 C 31.3 19.8 31.3 20.2 31.1 20.3 Z" fill="currentColor" fill-rule="nonzero"/>
</svg>
