<svg xmlns="http://www.w3.org/2000/svg" width="39.992" height="17.427" viewBox="0 0 39.992 17.427" fill="none">
  <path d="M 11.996 6.766 C 11.6 6.766 11.214 6.883 10.885 7.103 C 10.556 7.323 10.299 7.635 10.148 8 C 9.997 8.366 9.957 8.768 10.034 9.156 C 10.111 9.544 10.302 9.9 10.582 10.18 C 10.861 10.46 11.218 10.65 11.606 10.727 C 11.994 10.804 12.396 10.765 12.761 10.613 C 13.127 10.462 13.439 10.206 13.659 9.877 C 13.879 9.548 13.996 9.161 13.996 8.766 C 13.996 8.235 13.785 7.727 13.41 7.351 C 13.035 6.976 12.526 6.766 11.996 6.766 Z M 39.626 7.866 L 32.166 0.406 C 32.05 0.281 31.91 0.181 31.754 0.111 C 31.599 0.041 31.431 0.004 31.26 0 C 31.09 -0.003 30.921 0.028 30.763 0.091 C 30.604 0.155 30.461 0.249 30.34 0.369 C 30.219 0.49 30.124 0.633 30.059 0.791 C 29.995 0.949 29.963 1.118 29.965 1.288 C 29.968 1.459 30.005 1.627 30.073 1.783 C 30.142 1.939 30.242 2.079 30.366 2.196 L 36.936 8.766 L 30.366 15.336 C 30.16 15.579 30.052 15.891 30.066 16.209 C 30.079 16.528 30.211 16.83 30.436 17.055 C 30.662 17.28 30.964 17.413 31.282 17.426 C 31.601 17.439 31.913 17.332 32.156 17.126 L 39.626 9.666 C 39.86 9.425 39.992 9.102 39.992 8.766 C 39.992 8.429 39.86 8.107 39.626 7.866 Z M 3.056 8.766 L 9.626 2.196 C 9.85 1.954 9.972 1.635 9.965 1.306 C 9.959 0.977 9.824 0.663 9.591 0.431 C 9.357 0.199 9.043 0.066 8.713 0.062 C 8.384 0.057 8.066 0.18 7.826 0.406 L 0.366 7.866 C 0.131 8.107 0 8.429 0 8.766 C 0 9.102 0.131 9.425 0.366 9.666 L 7.836 17.126 C 8.079 17.332 8.391 17.439 8.709 17.426 C 9.028 17.413 9.33 17.28 9.555 17.055 C 9.781 16.83 9.913 16.528 9.926 16.209 C 9.939 15.891 9.832 15.579 9.626 15.336 L 3.056 8.766 Z M 27.996 6.766 C 27.6 6.766 27.214 6.883 26.885 7.103 C 26.556 7.323 26.299 7.635 26.148 8 C 25.997 8.366 25.957 8.768 26.034 9.156 C 26.111 9.544 26.302 9.9 26.582 10.18 C 26.861 10.46 27.218 10.65 27.606 10.727 C 27.994 10.804 28.396 10.765 28.761 10.613 C 29.127 10.462 29.439 10.206 29.659 9.877 C 29.879 9.548 29.996 9.161 29.996 8.766 C 29.996 8.235 29.785 7.727 29.41 7.351 C 29.035 6.976 28.526 6.766 27.996 6.766 Z M 19.996 6.766 C 19.6 6.766 19.214 6.883 18.885 7.103 C 18.556 7.323 18.299 7.635 18.148 8 C 17.997 8.366 17.957 8.768 18.034 9.156 C 18.111 9.544 18.302 9.9 18.582 10.18 C 18.861 10.46 19.218 10.65 19.606 10.727 C 19.994 10.804 20.396 10.765 20.761 10.613 C 21.127 10.462 21.439 10.206 21.659 9.877 C 21.879 9.548 21.996 9.161 21.996 8.766 C 21.996 8.235 21.785 7.727 21.41 7.351 C 21.035 6.976 20.526 6.766 19.996 6.766 Z" fill="currentColor" fill-rule="nonzero"/>
</svg>
