<svg xmlns="http://www.w3.org/2000/svg" width="32.095" height="39.920" viewBox="0 0 32.095 39.920" fill="none">
  <path d="M 28.827 27.792 L 28.827 17.072 C 28.837 14.789 28.227 12.547 27.063 10.583 C 25.899 8.62 24.225 7.009 22.217 5.922 C 22.153 4.33 21.476 2.824 20.327 1.72 C 19.177 0.616 17.646 0 16.052 0 C 14.459 0 12.927 0.616 11.778 1.72 C 10.629 2.824 9.952 4.33 9.887 5.922 C 7.9 7.031 6.241 8.647 5.082 10.606 C 3.923 12.564 3.303 14.796 3.287 17.072 L 3.287 27.792 C 2.336 27.912 1.466 28.392 0.856 29.133 C 0.247 29.874 -0.056 30.82 0.009 31.777 C 0.074 32.735 0.503 33.631 1.207 34.282 C 1.911 34.934 2.838 35.291 3.797 35.282 L 10.057 35.282 C 10.403 36.61 11.18 37.786 12.266 38.625 C 13.351 39.464 14.685 39.92 16.057 39.92 C 17.43 39.92 18.763 39.464 19.849 38.625 C 20.935 37.786 21.712 36.61 22.057 35.282 L 28.297 35.282 C 29.257 35.291 30.184 34.934 30.888 34.282 C 31.592 33.631 32.021 32.735 32.086 31.777 C 32.151 30.82 31.848 29.874 31.239 29.133 C 30.629 28.392 29.759 27.912 28.807 27.792 L 28.827 27.792 Z M 16.057 37.042 C 15.453 37.047 14.859 36.885 14.34 36.575 C 13.822 36.264 13.399 35.817 13.117 35.282 L 18.917 35.282 C 18.661 35.82 18.255 36.272 17.747 36.584 C 17.24 36.896 16.653 37.055 16.057 37.042 Z M 28.317 32.342 L 3.877 32.342 C 3.663 32.342 3.457 32.256 3.305 32.104 C 3.153 31.953 3.067 31.746 3.067 31.532 C 3.067 31.317 3.153 31.111 3.305 30.959 C 3.457 30.807 3.663 30.722 3.877 30.722 C 4.164 30.632 4.471 30.632 4.757 30.722 C 5.145 30.722 5.516 30.568 5.79 30.294 C 6.064 30.02 6.217 29.649 6.217 29.262 L 6.217 17.152 C 6.217 14.542 7.254 12.039 9.1 10.194 C 10.945 8.348 13.448 7.312 16.057 7.312 C 16.447 7.312 16.821 7.157 17.097 6.881 C 17.373 6.605 17.527 6.232 17.527 5.842 C 17.527 5.452 17.373 5.078 17.097 4.802 C 16.821 4.527 16.447 4.372 16.057 4.372 C 15.096 4.361 14.136 4.462 13.197 4.672 C 13.479 4.155 13.892 3.72 14.393 3.411 C 14.895 3.103 15.469 2.93 16.057 2.912 C 16.912 2.917 17.731 3.259 18.336 3.863 C 18.94 4.468 19.282 5.287 19.287 6.142 C 19.275 6.244 19.3 6.346 19.357 6.432 C 19.285 6.752 19.327 7.088 19.474 7.382 C 19.622 7.675 19.867 7.908 20.167 8.042 C 21.873 8.849 23.315 10.123 24.327 11.716 C 25.339 13.308 25.88 15.155 25.887 17.042 L 25.887 29.112 C 25.893 29.5 26.049 29.871 26.324 30.145 C 26.598 30.42 26.969 30.576 27.357 30.582 C 27.642 30.482 27.953 30.482 28.237 30.582 C 28.451 30.582 28.655 30.666 28.807 30.815 C 28.958 30.965 29.045 31.169 29.047 31.382 C 29.047 31.832 28.757 32.382 28.317 32.382 L 28.317 32.342 Z" fill="currentColor" fill-rule="nonzero"/>
</svg>
