<svg xmlns="http://www.w3.org/2000/svg" width="39.999" height="39.900" viewBox="0 0 39.999 39.900" fill="none">
  <path d="M 38.059 22.96 L 37.889 22.58 C 38.115 22.344 38.326 22.094 38.519 21.83 C 39.378 20.712 39.893 19.367 39.999 17.96 C 39.995 17.365 39.873 16.776 39.639 16.228 C 39.406 15.681 39.066 15.185 38.639 14.77 C 38.468 14.609 38.288 14.459 38.099 14.32 C 38.179 14.089 38.239 13.851 38.279 13.61 C 38.506 12.433 38.258 11.214 37.589 10.22 C 36.746 9.124 35.571 8.33 34.239 7.96 C 33.939 7.86 33.629 7.78 33.319 7.71 C 33.319 7.62 33.319 7.52 33.319 7.43 C 33.319 7.19 33.249 6.96 33.209 6.77 C 32.872 5.369 32.098 4.111 30.999 3.18 C 30.221 2.546 29.252 2.194 28.249 2.18 C 28.052 2.165 27.855 2.165 27.659 2.18 C 27.439 2.18 27.189 2.26 26.939 2.32 C 26.817 2.117 26.677 1.926 26.519 1.75 C 26.16 1.246 25.694 0.828 25.155 0.525 C 24.615 0.223 24.016 0.043 23.399 0 L 22.999 0.06 C 22.957 0.046 22.911 0.046 22.869 0.06 C 21.641 0.121 20.455 0.519 19.439 1.21 C 19.169 1.39 18.899 1.59 18.639 1.79 L 18.499 1.71 C 18.272 1.573 18.035 1.456 17.789 1.36 C 16.894 0.916 15.908 0.687 14.909 0.69 C 14.503 0.693 14.098 0.73 13.699 0.8 C 12.55 1.092 11.554 1.806 10.909 2.8 C 10.782 3.009 10.668 3.226 10.569 3.45 L 9.839 3.4 C 8.63 3.448 7.485 3.956 6.639 4.82 C 5.736 5.896 5.197 7.229 5.099 8.63 C 5.099 8.96 5.099 9.28 5.099 9.63 L 4.879 9.71 C 4.647 9.787 4.423 9.884 4.209 10 C 2.943 10.658 1.912 11.692 1.259 12.96 C 1.006 13.502 0.864 14.089 0.84 14.686 C 0.816 15.283 0.911 15.88 1.119 16.44 C 1.209 16.66 1.309 16.88 1.409 17.1 C 1.229 17.275 1.062 17.462 0.909 17.66 C 0.548 18.142 0.287 18.691 0.14 19.274 C -0.008 19.858 -0.039 20.465 0.049 21.06 C 0.331 22.431 1.029 23.681 2.049 24.64 C 2.229 24.82 2.459 25 2.679 25.18 L 2.779 25.27 L 2.719 25.45 C 2.641 25.688 2.584 25.932 2.549 26.18 C 2.258 27.55 2.372 28.974 2.879 30.28 C 3.128 30.825 3.491 31.31 3.943 31.703 C 4.394 32.096 4.925 32.388 5.499 32.56 C 5.731 32.632 5.969 32.689 6.209 32.73 C 6.209 32.97 6.279 33.21 6.329 33.46 C 6.471 34.041 6.731 34.586 7.092 35.062 C 7.453 35.539 7.908 35.936 8.429 36.23 C 9.374 36.709 10.419 36.959 11.479 36.96 C 11.814 36.959 12.148 36.932 12.479 36.88 L 13.059 36.78 L 13.459 36.7 C 13.536 36.798 13.606 36.902 13.669 37.01 C 13.789 37.18 13.909 37.36 14.039 37.51 C 14.925 38.595 16.116 39.389 17.459 39.79 C 17.787 39.862 18.122 39.899 18.459 39.9 C 19.328 39.904 20.178 39.647 20.899 39.16 C 21.103 39.017 21.297 38.86 21.479 38.69 C 21.689 38.82 21.899 38.95 22.129 39.07 C 22.678 39.313 23.27 39.445 23.871 39.458 C 24.471 39.472 25.069 39.367 25.629 39.15 C 26.883 38.561 27.929 37.606 28.629 36.41 C 28.801 36.129 28.958 35.838 29.099 35.54 L 29.439 35.54 L 30.049 35.54 C 31.465 35.548 32.848 35.106 33.999 34.28 C 34.462 33.905 34.846 33.441 35.128 32.916 C 35.41 32.39 35.583 31.814 35.639 31.22 C 35.639 30.98 35.639 30.73 35.639 30.49 L 35.819 30.43 C 35.989 30.37 36.159 30.31 36.339 30.23 C 36.869 29.952 37.338 29.573 37.721 29.113 C 38.104 28.653 38.392 28.122 38.569 27.55 C 38.906 26.192 38.812 24.762 38.299 23.46 C 38.219 23.31 38.139 23.14 38.059 22.96 Z M 12.339 35.13 C 12.082 35.145 11.825 35.145 11.569 35.13 C 10.806 35.13 10.052 34.967 9.359 34.65 C 8.742 34.297 8.289 33.715 8.099 33.03 C 8.094 32.987 8.094 32.943 8.099 32.9 C 9.071 32.881 10.04 32.79 10.999 32.63 C 11.413 33.487 11.877 34.318 12.389 35.12 L 12.339 35.13 Z M 6.099 30.87 C 5.755 30.763 5.437 30.589 5.162 30.357 C 4.887 30.125 4.662 29.841 4.499 29.52 C 4.124 28.566 4.041 27.522 4.259 26.52 L 4.259 26.41 C 5.042 26.972 5.857 27.489 6.699 27.96 C 6.42 28.906 6.239 29.877 6.159 30.86 L 6.099 30.87 Z M 23.299 1.55 L 23.349 1.85 C 23.715 1.874 24.072 1.975 24.396 2.148 C 24.72 2.32 25.004 2.56 25.229 2.85 C 24.341 3.286 23.499 3.812 22.719 4.42 C 21.967 3.823 21.183 3.269 20.369 2.76 C 21.225 2.181 22.235 1.871 23.269 1.87 L 23.269 1.55 L 23.299 1.55 Z M 27.909 3.89 C 28.035 3.88 28.162 3.88 28.289 3.89 C 28.888 3.884 29.471 4.086 29.939 4.46 C 30.706 5.158 31.237 6.077 31.459 7.09 L 31.459 7.14 C 30.516 6.964 29.565 6.837 28.609 6.76 C 28.426 5.795 28.169 4.845 27.839 3.92 L 27.909 3.89 Z M 35.759 15.01 C 35.414 15.694 35.009 16.347 34.549 16.96 C 34.299 16.65 34.009 16.31 33.719 15.96 L 33.529 15.73 C 33.529 15.47 33.559 15.19 33.619 14.89 C 33.619 14.65 33.679 14.39 33.699 14.15 C 34.413 14.367 35.103 14.655 35.759 15.01 Z M 36.599 13.2 C 36.603 13.23 36.603 13.26 36.599 13.29 C 35.718 12.872 34.801 12.538 33.859 12.29 C 33.849 11.324 33.789 10.36 33.679 9.4 C 34.663 9.7 35.534 10.289 36.179 11.09 C 36.591 11.711 36.742 12.469 36.599 13.2 Z M 33.329 18.2 L 33.409 18.3 L 33.319 18.41 L 33.329 18.2 Z M 34.329 19.92 L 34.479 19.74 C 35.002 20.54 35.476 21.372 35.899 22.23 C 35.239 22.92 34.549 23.58 33.819 24.23 L 33.819 24.13 C 33.674 23.768 33.511 23.414 33.329 23.07 C 33.269 22.97 33.199 22.87 33.119 22.76 C 33.039 22.65 32.989 22.58 32.929 22.48 C 32.933 22.417 32.933 22.353 32.929 22.29 C 32.977 22.14 33.01 21.986 33.029 21.83 C 33.039 21.674 33.039 21.516 33.029 21.36 C 33.029 21.31 33.029 21.25 33.029 21.19 C 33.226 21.039 33.41 20.872 33.579 20.69 C 33.889 20.39 34.099 20.15 34.319 19.89 L 34.329 19.92 Z M 29.629 29.22 C 29.629 29.22 29.629 29.28 29.629 29.3 L 29.529 29.3 L 29.629 29.22 Z M 23.539 32.77 L 23.459 32.91 L 23.339 32.91 L 23.539 32.77 Z M 18.739 33.2 L 18.639 33.2 C 18.618 33.165 18.594 33.132 18.569 33.1 L 18.739 33.2 Z M 12.149 30.6 L 12.059 30.6 L 12.059 30.53 L 12.149 30.6 Z M 9.609 11.26 C 9.609 11.51 9.669 11.75 9.709 11.99 C 9.589 12.15 9.459 12.32 9.299 12.5 C 9.139 12.68 9.129 12.76 9.059 12.88 L 8.949 13.07 L 8.699 13.13 L 8.259 13.24 C 7.899 13.37 7.589 13.5 7.259 13.63 L 7.019 13.74 C 6.889 12.779 6.829 11.81 6.839 10.84 C 7.755 10.496 8.69 10.202 9.639 9.96 L 9.639 10.07 C 9.602 10.466 9.592 10.863 9.609 11.26 Z M 13.169 9.77 L 13.469 9.87 L 13.989 9.24 L 15.199 9.07 C 16.049 8.95 16.919 8.82 17.929 8.72 C 17.149 9.56 16.239 10.57 15.379 11.72 C 14.089 11.91 12.789 12.16 11.519 12.46 C 12.179 11.52 12.799 10.74 13.399 10 L 13.169 9.81 L 13.169 9.77 Z M 27.059 8.43 L 27.129 8.43 L 27.129 8.51 L 27.059 8.43 Z M 32.239 25.35 C 32.234 25.293 32.234 25.237 32.239 25.18 C 32.239 25.18 32.239 25.25 32.239 25.29 L 32.239 25.35 Z M 28.839 19.59 C 29.239 20.12 29.629 20.69 30.039 21.32 C 29.509 21.76 28.969 22.19 28.399 22.62 C 28.499 22.13 28.609 21.62 28.679 21.11 C 28.749 20.6 28.799 20.11 28.839 19.59 Z M 31.399 20.15 C 30.829 19.32 30.019 18.15 29.079 17.03 C 29.159 15.68 29.199 14.4 29.209 13.14 C 30.019 14.06 30.659 14.87 31.299 15.68 L 31.739 16.24 C 31.669 17.57 31.579 18.72 31.399 20.15 Z M 31.999 13.72 L 31.899 13.6 L 32.009 13.6 L 31.999 13.72 Z M 31.579 28.72 C 31.639 28.41 31.699 28.08 31.769 27.8 L 32.109 27.58 L 33.109 26.94 C 33.368 27.635 33.569 28.351 33.709 29.08 C 32.971 29.228 32.221 29.312 31.469 29.33 C 31.449 29.13 31.489 28.96 31.529 28.71 L 31.579 28.72 Z M 31.959 11.8 C 31.59 11.68 31.212 11.589 30.829 11.53 L 30.349 11.48 L 30.099 11.48 L 29.969 11.31 C 29.889 11.2 29.809 11.09 29.679 10.94 C 29.549 10.79 29.369 10.63 29.199 10.48 L 29.199 9.78 C 29.165 9.444 29.111 9.11 29.039 8.78 C 29.039 8.7 29.039 8.61 28.989 8.52 C 29.953 8.611 30.911 8.758 31.859 8.96 C 31.998 9.917 32.078 10.883 32.099 11.85 L 31.959 11.8 Z M 8.749 27.04 L 8.749 26.9 C 8.749 26.96 8.799 27.03 8.829 27.09 L 8.749 27.04 Z M 14.499 24.96 C 14.399 24.68 14.289 24.4 14.189 24.11 C 13.919 23.4 13.639 22.65 13.409 21.89 C 13.229 21.29 13.079 20.67 12.919 20.02 C 12.809 19.6 12.709 19.16 12.589 18.73 L 12.999 17.96 C 13.39 17.271 13.817 16.604 14.279 15.96 C 14.909 15.1 15.529 14.28 16.279 13.33 C 17.329 13.17 18.399 13 19.489 12.92 C 20.579 12.84 21.739 12.92 22.809 12.92 L 23.179 13.27 C 23.839 13.89 24.529 14.52 25.179 15.21 C 25.649 15.73 26.089 16.27 26.529 16.81 C 26.779 17.11 27.019 17.42 27.269 17.71 C 27.189 18.78 27.099 19.88 26.939 20.94 C 26.779 22 26.509 23.18 26.289 24.13 C 25.399 24.73 24.479 25.36 23.549 25.88 C 22.619 26.4 21.679 26.88 20.649 27.36 L 20.129 27.2 C 19.269 26.92 18.379 26.64 17.529 26.33 C 16.795 26.053 16.078 25.735 15.379 25.38 C 15.049 25.17 14.779 25.03 14.499 24.96 Z M 20.749 11.15 C 20.309 11.15 19.869 11.15 19.429 11.15 C 18.936 11.174 18.445 11.228 17.959 11.31 L 19.339 9.8 C 19.899 10.22 20.449 10.67 20.969 11.12 L 20.749 11.15 Z M 27.449 15.1 C 27.139 14.72 26.819 14.34 26.449 13.98 C 26.079 13.62 25.729 13.25 25.309 12.85 C 25.739 12.85 26.149 12.91 26.559 12.95 L 27.419 13.03 C 27.459 13.67 27.459 14.35 27.449 15.05 L 27.449 15.1 Z M 13.859 13.71 C 13.539 14.12 13.219 14.54 12.919 14.97 C 12.619 15.4 12.349 15.85 12.099 16.27 C 11.979 15.56 11.869 14.86 11.769 14.16 C 12.459 13.96 13.159 13.83 13.859 13.71 Z M 16.859 27.92 C 17.332 28.113 17.816 28.28 18.309 28.42 C 17.669 28.7 17.019 28.95 16.369 29.19 C 16.039 28.57 15.719 27.94 15.439 27.29 C 15.899 27.5 16.399 27.74 16.879 27.96 L 16.859 27.92 Z M 25.699 26.56 C 25.499 27.3 25.279 27.98 25.079 28.56 C 24.419 28.41 23.739 28.26 23.079 28.08 C 23.539 27.86 23.999 27.62 24.449 27.37 C 24.899 27.12 25.269 26.86 25.699 26.56 Z M 26.869 28.87 C 27.249 27.63 27.579 26.37 27.869 25.11 C 28.951 24.398 29.996 23.631 30.999 22.81 C 30.819 23.93 30.599 24.87 30.379 25.81 L 30.169 26.71 L 29.729 27.01 C 28.859 27.57 27.999 28.2 26.869 28.87 Z M 24.579 8.52 C 25.519 9.37 26.399 10.18 27.439 11.25 C 26.349 11.16 25.239 11.12 24.139 11.12 L 23.539 11.12 C 22.539 10.19 21.539 9.36 20.539 8.56 C 21.469 8.5 22.279 8.49 22.879 8.49 L 24.519 8.49 L 24.579 8.52 Z M 11.769 22.41 C 11.919 22.9 12.099 23.41 12.289 23.89 C 11.689 23.56 11.099 23.22 10.449 22.84 C 10.709 22.28 11.019 21.63 11.379 20.95 C 11.489 21.44 11.619 21.96 11.769 22.41 Z M 14.699 29.84 C 13.469 29.33 12.519 28.84 11.499 28.37 L 11.099 28.18 L 10.909 27.69 C 10.499 26.69 10.089 25.69 9.709 24.44 C 10.829 25.1 11.979 25.71 13.149 26.26 C 13.609 27.46 14.119 28.64 14.699 29.84 Z M 7.359 15.48 L 7.489 15.43 L 7.389 15.59 L 7.359 15.48 Z M 6.789 20.38 L 6.669 20.27 L 6.739 20.15 C 6.739 20.15 6.779 20.35 6.789 20.38 Z M 5.789 18.29 C 5.619 18.57 5.439 18.86 5.289 19.13 C 4.747 18.617 4.258 18.05 3.829 17.44 C 4.4 16.959 5.028 16.55 5.699 16.22 C 5.759 16.44 5.819 16.68 5.889 16.95 C 5.959 17.22 6.039 17.51 6.109 17.77 L 5.789 18.29 Z M 5.789 21.85 L 5.859 21.92 C 6.139 22.16 6.429 22.42 6.779 22.68 C 6.979 22.81 7.179 22.93 7.389 23.04 C 7.394 23.103 7.394 23.167 7.389 23.23 C 7.389 23.36 7.439 23.49 7.479 23.65 C 7.519 23.81 7.629 24.1 7.719 24.32 L 7.629 24.5 C 7.559 24.65 7.479 24.8 7.429 24.94 C 7.31 25.29 7.213 25.648 7.139 26.01 C 7.139 26.07 7.139 26.14 7.139 26.2 C 6.313 25.698 5.518 25.147 4.759 24.55 C 5.062 23.633 5.413 22.732 5.809 21.85 L 5.789 21.85 Z M 8.289 28.85 C 8.539 28.97 8.819 29.1 9.109 29.22 L 9.729 29.5 L 9.959 30.15 C 10.059 30.44 10.159 30.73 10.269 31 C 9.709 31.08 9.144 31.12 8.579 31.12 L 8.029 31.12 C 8.042 30.339 8.136 29.562 8.309 28.8 L 8.289 28.85 Z M 20.769 29.3 C 22.169 29.73 23.379 30.06 24.519 30.3 C 23.519 30.87 22.569 31.3 21.689 31.72 L 20.959 32.07 L 20.649 31.96 C 19.519 31.63 18.449 31.32 17.179 30.83 C 18.439 30.3 19.589 29.82 20.789 29.25 L 20.769 29.3 Z M 25.999 6.72 L 25.249 6.72 L 24.519 6.01 L 24.119 5.61 C 24.753 5.201 25.422 4.849 26.119 4.56 C 26.423 5.24 26.664 5.946 26.839 6.67 L 25.999 6.72 Z M 22.539 6.72 L 22.689 6.62 L 22.789 6.72 L 22.539 6.72 Z M 21.119 5.62 C 20.842 5.803 20.575 6 20.319 6.21 C 20.186 6.323 20.062 6.447 19.949 6.58 L 19.809 6.73 L 18.999 6.73 L 18.379 6.83 C 18.197 6.677 18.003 6.54 17.799 6.42 C 17.481 6.201 17.147 6.007 16.799 5.84 L 16.709 5.84 C 17.559 5.04 18.239 4.43 18.879 3.91 C 19.713 4.394 20.518 4.929 21.289 5.51 L 21.119 5.62 Z M 15.699 7.23 L 15.559 7.23 L 15.559 7.17 L 15.699 7.23 Z M 17.169 2.96 L 17.229 2.96 C 16.496 3.588 15.798 4.255 15.139 4.96 C 14.271 4.481 13.361 4.086 12.419 3.78 C 12.602 3.467 12.849 3.196 13.144 2.984 C 13.438 2.772 13.774 2.624 14.129 2.55 C 14.382 2.498 14.64 2.471 14.899 2.47 C 15.082 2.46 15.265 2.46 15.449 2.47 L 15.649 2.47 C 16.168 2.591 16.676 2.755 17.169 2.96 Z M 13.399 7.19 L 13.069 7.64 C 12.749 7.69 12.389 7.73 12.009 7.77 L 11.479 7.77 C 11.539 7.026 11.669 6.289 11.869 5.57 C 12.598 5.763 13.31 6.014 13.999 6.32 L 13.399 7.19 Z M 11.489 9.61 C 11.489 9.61 11.379 9.74 11.349 9.79 L 11.349 9.63 L 11.489 9.61 Z M 8.909 21.96 C 8.549 20.71 8.309 19.64 8.079 18.6 L 7.999 18.04 L 8.279 17.53 C 8.819 16.58 9.339 15.67 10.059 14.58 C 10.259 15.91 10.489 17.16 10.779 18.46 C 10.149 19.53 9.539 20.68 8.909 21.96 Z M 9.999 5.24 L 10.079 5.24 C 9.868 6.203 9.751 7.184 9.729 8.17 C 8.805 8.385 7.894 8.648 6.999 8.96 C 7.064 7.922 7.456 6.932 8.119 6.13 C 8.343 5.866 8.622 5.654 8.936 5.509 C 9.25 5.364 9.592 5.289 9.939 5.29 L 9.999 5.24 Z M 2.749 15.83 C 2.749 15.83 2.749 15.78 2.749 15.77 C 2.619 15.432 2.558 15.071 2.568 14.709 C 2.578 14.347 2.66 13.99 2.809 13.66 C 3.308 12.761 4.073 12.038 4.999 11.59 L 5.109 11.59 C 5.139 12.55 5.219 13.508 5.349 14.46 C 4.437 14.827 3.566 15.286 2.749 15.83 Z M 2.229 18.68 L 2.369 18.59 C 2.99 19.351 3.676 20.057 4.419 20.7 C 3.999 21.565 3.629 22.453 3.309 23.36 C 2.549 22.666 2.021 21.755 1.799 20.75 C 1.666 20.03 1.82 19.287 2.229 18.68 Z M 12.919 32.26 C 13.306 32.203 13.69 32.123 14.069 32.02 C 14.216 31.965 14.359 31.902 14.499 31.83 C 14.557 31.796 14.617 31.766 14.679 31.74 L 14.829 31.81 C 14.959 31.87 15.089 31.94 15.269 32.01 C 15.412 32.078 15.563 32.128 15.719 32.16 L 15.909 32.22 L 16.239 32.88 C 16.466 33.258 16.72 33.619 16.999 33.96 C 16.099 34.28 15.179 34.56 14.259 34.8 C 13.728 34 13.241 33.172 12.799 32.32 L 12.919 32.26 Z M 15.339 36.26 C 16.259 36 17.179 35.71 18.079 35.38 C 18.655 36.179 19.297 36.928 19.999 37.62 L 19.939 37.67 C 19.508 37.962 18.999 38.118 18.479 38.12 C 18.277 38.118 18.076 38.095 17.879 38.05 C 16.892 37.739 16.019 37.144 15.369 36.34 L 15.339 36.26 Z M 20.419 34.26 L 21.139 33.89 L 21.739 34.09 L 22.609 34.39 C 22.229 35.038 21.784 35.644 21.279 36.2 C 20.704 35.727 20.178 35.198 19.709 34.62 L 20.419 34.26 Z M 22.739 37.42 C 23.351 36.654 23.887 35.83 24.339 34.96 C 25.265 35.172 26.204 35.329 27.149 35.43 L 27.149 35.49 C 26.641 36.383 25.873 37.102 24.949 37.55 C 24.629 37.67 24.29 37.731 23.949 37.73 C 23.555 37.729 23.166 37.644 22.809 37.48 C 22.801 37.484 22.792 37.485 22.783 37.484 C 22.775 37.483 22.766 37.48 22.759 37.475 C 22.752 37.47 22.747 37.463 22.743 37.455 C 22.739 37.447 22.738 37.439 22.739 37.43 L 22.739 37.42 Z M 25.199 33.29 L 25.279 33.16 C 25.477 32.842 25.647 32.507 25.789 32.16 L 25.999 31.49 C 26.192 31.385 26.392 31.295 26.599 31.22 C 26.779 31.11 26.899 31.02 27.039 30.92 L 27.159 30.83 L 27.369 30.83 L 27.829 30.93 C 28.227 30.974 28.628 30.994 29.029 30.99 L 29.119 30.99 C 28.818 31.906 28.464 32.805 28.059 33.68 C 27.099 33.608 26.144 33.481 25.199 33.3 L 25.199 33.29 Z M 30.999 31.11 C 31.279 31.11 31.559 31.11 31.839 31.11 C 32.535 31.113 33.23 31.063 33.919 30.96 C 33.917 30.983 33.917 31.007 33.919 31.03 C 33.885 31.39 33.78 31.739 33.608 32.057 C 33.436 32.375 33.201 32.655 32.919 32.88 C 32.054 33.47 31.035 33.79 29.989 33.8 L 29.999 33.8 C 30.381 32.922 30.715 32.024 30.999 31.11 Z M 36.679 23.96 C 37.052 24.914 37.139 25.957 36.929 26.96 C 36.823 27.3 36.65 27.615 36.42 27.887 C 36.19 28.158 35.907 28.381 35.589 28.54 L 35.469 28.54 C 35.211 27.585 34.877 26.651 34.469 25.75 C 35.238 25.195 35.976 24.598 36.679 23.96 Z M 37.149 20.73 C 36.718 19.89 36.234 19.078 35.699 18.3 C 36.33 17.564 36.904 16.782 37.419 15.96 C 37.686 16.199 37.899 16.494 38.04 16.824 C 38.182 17.154 38.25 17.511 38.239 17.87 C 38.185 18.917 37.804 19.921 37.149 20.74 L 37.149 20.73 Z" fill="currentColor" fill-rule="nonzero"/>
</svg>
