<svg xmlns="http://www.w3.org/2000/svg" width="36" height="36" viewBox="0 0 36 36" fill="none">
  <path d="M 32.24 0 L 27.32 0 C 26.325 0 25.372 0.395 24.668 1.098 C 23.965 1.802 23.57 2.755 23.57 3.75 L 23.57 7.75 L 19.81 7.75 C 18.815 7.75 17.862 8.145 17.158 8.848 C 16.455 9.552 16.06 10.505 16.06 11.5 L 16.06 16.76 L 12.19 16.76 C 11.195 16.76 10.242 17.155 9.538 17.858 C 8.835 18.562 8.44 19.515 8.44 20.51 L 8.44 25.15 L 3.76 25.15 C 2.768 25.15 1.816 25.542 1.112 26.241 C 0.408 26.939 0.008 27.888 0 28.88 L 0 32.25 C 0 32.743 0.097 33.232 0.286 33.687 C 0.475 34.143 0.753 34.557 1.102 34.905 C 1.451 35.254 1.866 35.53 2.322 35.717 C 2.778 35.905 3.267 36.001 3.76 36 L 32.24 36 C 32.733 36.001 33.222 35.905 33.678 35.717 C 34.134 35.53 34.549 35.254 34.898 34.905 C 35.247 34.557 35.525 34.143 35.714 33.687 C 35.903 33.232 36 32.743 36 32.25 L 36 3.75 C 36 3.257 35.903 2.768 35.714 2.313 C 35.525 1.857 35.247 1.443 34.898 1.095 C 34.549 0.746 34.134 0.47 33.678 0.283 C 33.222 0.095 32.733 -0.001 32.24 0 Z M 33.5 32.25 C 33.5 32.415 33.467 32.578 33.404 32.731 C 33.34 32.883 33.247 33.021 33.13 33.137 C 33.013 33.254 32.874 33.346 32.721 33.408 C 32.569 33.47 32.405 33.501 32.24 33.5 L 3.76 33.5 C 3.595 33.501 3.431 33.47 3.279 33.408 C 3.126 33.346 2.987 33.254 2.87 33.137 C 2.753 33.021 2.66 32.883 2.596 32.731 C 2.533 32.578 2.5 32.415 2.5 32.25 L 2.5 28.88 C 2.5 28.546 2.633 28.225 2.869 27.989 C 3.105 27.753 3.426 27.62 3.76 27.62 L 10.94 27.62 L 10.94 20.48 C 10.94 20.148 11.072 19.831 11.306 19.596 C 11.541 19.362 11.858 19.23 12.19 19.23 L 18.56 19.23 L 18.56 11.47 C 18.56 11.138 18.692 10.821 18.926 10.586 C 19.161 10.352 19.478 10.22 19.81 10.22 L 26.07 10.22 L 26.07 3.75 C 26.07 3.418 26.202 3.101 26.436 2.866 C 26.671 2.632 26.988 2.5 27.32 2.5 L 32.24 2.5 C 32.405 2.499 32.569 2.53 32.721 2.592 C 32.874 2.655 33.013 2.746 33.13 2.863 C 33.247 2.979 33.34 3.117 33.404 3.269 C 33.467 3.422 33.5 3.585 33.5 3.75 L 33.5 32.25 Z" fill="currentColor" fill-rule="nonzero"/>
</svg>
