<svg xmlns="http://www.w3.org/2000/svg" width="33.705" height="39.860" viewBox="0 0 33.705 39.860" fill="none">
  <path d="M 25.74 23.86 C 27.859 23.87 29.888 24.719 31.381 26.222 C 32.874 27.725 33.71 29.759 33.705 31.877 C 33.7 33.996 32.855 36.027 31.355 37.523 C 29.856 39.02 27.824 39.86 25.705 39.86 C 23.587 39.86 21.554 39.02 20.055 37.523 C 18.555 36.027 17.71 33.996 17.705 31.877 C 17.701 29.759 18.536 27.725 20.029 26.222 C 21.522 24.719 23.551 23.87 25.67 23.86 L 25.74 23.86 Z M 25.7 27.64 C 25.504 27.64 25.316 27.718 25.177 27.856 C 25.038 27.995 24.96 28.184 24.96 28.38 L 24.96 31.19 L 22.16 31.19 C 21.964 31.19 21.776 31.268 21.637 31.407 C 21.498 31.546 21.42 31.734 21.42 31.93 C 21.42 32.126 21.498 32.314 21.637 32.453 C 21.776 32.592 21.964 32.67 22.16 32.67 L 24.95 32.67 L 24.95 35.46 C 24.95 35.656 25.028 35.845 25.167 35.983 C 25.306 36.122 25.494 36.2 25.69 36.2 C 25.886 36.2 26.074 36.122 26.213 35.983 C 26.352 35.845 26.43 35.656 26.43 35.46 L 26.43 32.67 L 29.24 32.67 L 29.24 32.64 C 29.436 32.64 29.625 32.562 29.764 32.423 C 29.902 32.284 29.98 32.096 29.98 31.9 C 29.98 31.704 29.902 31.516 29.764 31.377 C 29.625 31.238 29.436 31.16 29.24 31.16 L 26.44 31.16 L 26.44 28.38 C 26.44 28.184 26.362 27.995 26.224 27.856 C 26.085 27.718 25.896 27.64 25.7 27.64 Z M 14.67 0 C 15.004 0.006 15.338 0.03 15.67 0.07 C 16.606 0.153 17.519 0.411 18.36 0.83 C 19.683 1.435 20.833 2.361 21.706 3.524 C 22.579 4.688 23.149 6.051 23.36 7.49 C 23.688 9.767 23.122 12.082 21.78 13.95 C 21.756 13.984 21.738 14.023 21.729 14.064 C 21.721 14.106 21.721 14.149 21.73 14.19 C 21.74 14.232 21.758 14.271 21.784 14.306 C 21.81 14.34 21.842 14.369 21.88 14.39 C 24.386 15.726 26.278 17.98 27.16 20.68 C 27.216 20.843 27.239 21.016 27.227 21.188 C 27.215 21.359 27.168 21.526 27.09 21.68 C 27.013 21.835 26.907 21.974 26.776 22.087 C 26.646 22.2 26.494 22.286 26.33 22.34 C 26.195 22.387 26.053 22.411 25.91 22.41 C 25.634 22.412 25.365 22.326 25.142 22.164 C 24.919 22.002 24.753 21.773 24.67 21.51 C 24.267 20.277 23.585 19.153 22.679 18.226 C 21.772 17.298 20.664 16.591 19.44 16.16 C 19.152 16.079 18.889 15.921 18.684 15.703 C 18.478 15.485 18.335 15.215 18.271 14.922 C 18.208 14.629 18.226 14.324 18.322 14.04 C 18.419 13.756 18.591 13.503 18.82 13.31 C 19.564 12.622 20.129 11.764 20.467 10.81 C 20.805 9.855 20.905 8.832 20.76 7.83 C 20.609 6.82 20.209 5.863 19.594 5.047 C 18.979 4.231 18.17 3.583 17.24 3.16 C 16.683 2.879 16.08 2.699 15.46 2.63 C 15.197 2.614 14.933 2.614 14.67 2.63 C 13.395 2.617 12.149 3.017 11.12 3.77 C 10.331 4.345 9.686 5.097 9.236 5.965 C 8.787 6.832 8.545 7.793 8.53 8.77 C 8.535 9.63 8.723 10.481 9.081 11.264 C 9.44 12.046 9.962 12.744 10.61 13.31 L 10.9 13.66 L 10.96 13.77 C 11.151 14.173 11.18 14.635 11.04 15.06 C 10.971 15.275 10.859 15.475 10.711 15.646 C 10.563 15.818 10.382 15.959 10.18 16.06 C 10.03 16.14 9.9 16.19 9.77 16.25 L 9.42 16.41 C 7.922 17.132 6.59 18.156 5.509 19.42 C 4.428 20.683 3.621 22.158 3.14 23.75 C 2.756 24.966 2.564 26.235 2.57 27.51 C 2.572 27.6 2.607 27.686 2.67 27.75 C 6.031 30.577 10.277 32.138 14.67 32.16 C 14.845 32.161 15.018 32.198 15.179 32.267 C 15.34 32.335 15.486 32.435 15.607 32.561 C 15.729 32.686 15.826 32.835 15.89 32.998 C 15.953 33.161 15.984 33.335 15.98 33.51 C 15.98 33.857 15.842 34.191 15.597 34.437 C 15.351 34.682 15.017 34.82 14.67 34.82 C 9.615 34.788 4.736 32.963 0.9 29.67 C 0.7 29.538 0.515 29.383 0.35 29.21 L 0 28.83 L 0 27.54 C -0.001 26.004 0.232 24.476 0.69 23.01 C 1.795 19.365 4.277 16.294 7.61 14.45 C 7.648 14.429 7.68 14.4 7.706 14.366 C 7.732 14.332 7.75 14.292 7.76 14.25 C 7.77 14.165 7.749 14.08 7.7 14.01 C 6.584 12.504 5.975 10.683 5.96 8.81 C 5.977 7.408 6.322 6.031 6.966 4.786 C 7.61 3.541 8.536 2.463 9.67 1.64 C 11.123 0.581 12.872 0.007 14.67 0 Z" fill="currentColor" fill-rule="nonzero"/>
</svg>
