<svg xmlns="http://www.w3.org/2000/svg" width="39.987" height="29.993" viewBox="0 0 39.987 29.993" fill="none">
  <path d="M 19.072 9.203 L 19.072 10.273 C 18.267 10.403 17.533 10.812 16.998 11.428 C 16.462 12.043 16.16 12.827 16.142 13.643 C 16.142 15.693 17.782 16.643 19.532 17.293 C 20.982 17.903 21.532 18.493 21.532 19.343 C 21.532 20.193 20.712 20.933 19.532 20.933 C 18.842 20.92 18.161 20.767 17.532 20.483 C 17.405 20.431 17.269 20.404 17.132 20.403 C 16.916 20.42 16.712 20.507 16.55 20.65 C 16.388 20.793 16.276 20.985 16.232 21.197 C 16.188 21.408 16.214 21.629 16.306 21.825 C 16.398 22.021 16.551 22.181 16.742 22.283 C 17.452 22.604 18.215 22.79 18.992 22.833 L 18.992 23.883 C 18.992 24.121 19.087 24.35 19.256 24.519 C 19.425 24.688 19.653 24.783 19.892 24.783 C 20.13 24.78 20.357 24.685 20.526 24.516 C 20.694 24.348 20.79 24.121 20.792 23.883 L 20.792 22.753 C 21.63 22.597 22.388 22.155 22.935 21.502 C 23.483 20.848 23.786 20.025 23.792 19.173 C 23.792 17.433 22.842 16.293 20.622 15.363 C 18.922 14.623 18.422 14.193 18.422 13.423 C 18.422 12.653 18.882 12.053 20.192 12.053 C 20.773 12.051 21.348 12.166 21.882 12.393 C 22.004 12.436 22.133 12.46 22.262 12.463 C 22.453 12.457 22.639 12.396 22.796 12.288 C 22.954 12.18 23.078 12.029 23.152 11.853 C 23.241 11.61 23.233 11.342 23.128 11.105 C 23.024 10.868 22.832 10.681 22.592 10.583 C 22.039 10.365 21.455 10.233 20.862 10.193 L 20.862 9.193 C 20.839 8.969 20.733 8.762 20.566 8.612 C 20.399 8.461 20.182 8.378 19.957 8.378 C 19.732 8.378 19.515 8.461 19.348 8.612 C 19.181 8.762 19.076 8.969 19.052 9.193 L 19.072 9.203 Z M 39.382 12.373 L 20.832 0.233 C 20.604 0.081 20.336 0 20.062 0 C 19.788 0 19.52 0.081 19.292 0.233 L 0.662 12.393 C 0.5 12.494 0.361 12.627 0.252 12.784 C 0.143 12.941 0.067 13.118 0.029 13.305 C -0.01 13.492 -0.01 13.685 0.029 13.872 C 0.067 14.059 0.143 14.236 0.252 14.393 C 0.383 14.583 0.56 14.737 0.766 14.842 C 0.972 14.947 1.201 14.999 1.432 14.993 C 1.706 14.997 1.975 14.916 2.202 14.763 L 4.652 13.173 L 4.652 26.173 C 4.648 26.672 4.743 27.167 4.931 27.63 C 5.119 28.093 5.397 28.514 5.748 28.869 C 6.099 29.224 6.517 29.506 6.978 29.699 C 7.439 29.891 7.933 29.991 8.432 29.993 L 31.432 29.993 C 31.929 29.993 32.42 29.895 32.879 29.705 C 33.337 29.515 33.754 29.237 34.105 28.886 C 34.456 28.535 34.734 28.118 34.924 27.659 C 35.114 27.201 35.212 26.709 35.212 26.213 L 35.212 12.993 L 37.882 14.743 C 38.196 14.915 38.563 14.963 38.91 14.877 C 39.258 14.79 39.56 14.576 39.756 14.276 C 39.952 13.977 40.027 13.614 39.967 13.261 C 39.907 12.908 39.716 12.591 39.432 12.373 L 39.382 12.373 Z M 32.642 26.203 C 32.642 26.537 32.509 26.857 32.273 27.094 C 32.037 27.33 31.716 27.463 31.382 27.463 L 8.432 27.463 C 8.099 27.46 7.78 27.327 7.544 27.091 C 7.308 26.855 7.175 26.536 7.172 26.203 L 7.172 11.513 L 20.022 3.103 L 32.602 11.343 L 32.642 26.203 Z" fill="currentColor" fill-rule="nonzero"/>
</svg>
