<svg xmlns="http://www.w3.org/2000/svg" width="65.721" height="46.800" viewBox="0 0 65.721 46.800" fill="none">
  <path d="M 65.719 18.14 C 65.719 15.126 62.298 12.684 58.078 12.684 C 57.805 12.684 57.534 12.695 57.268 12.715 C 57.292 12.502 57.313 12.288 57.313 12.071 C 57.313 7.816 52.481 4.365 46.52 4.365 C 44.979 4.365 43.516 4.6 42.19 5.015 C 41.875 2.209 38.592 0 34.58 0 C 30.568 0 27.269 2.22 26.968 5.035 C 25.812 4.776 24.583 4.636 23.308 4.636 C 16.555 4.636 11.082 8.543 11.082 13.364 C 11.082 13.521 11.103 13.673 11.114 13.828 C 10.071 13.448 8.893 13.228 7.642 13.228 C 3.421 13.228 0 15.67 0 18.684 C 0 21.698 3.421 24.14 7.642 24.14 C 8.102 24.14 8.553 24.11 8.99 24.055 C 12.458 26.085 22.259 27.55 33.815 27.55 C 46.389 27.55 56.787 48.936 59.308 46.626 C 62.893 46.176 65.721 20.828 65.721 18.14 L 65.719 18.14 Z" fill="currentColor" fill-rule="nonzero"/>
</svg>
