<svg xmlns="http://www.w3.org/2000/svg" width="289.748" height="22.199" viewBox="0 0 289.748 22.199" fill="none">
  <path d="M 50.026 13.658 C 51.824 13.665 53.599 13.681 55.35 13.724 C 69.525 14.071 83.321 12.515 91.865 9.8 C 101.424 6.76 116.483 4.799 133.424 4.799 C 137.884 4.799 142.209 4.937 146.337 5.194 C 159.253 5.999 172.947 5.109 183.026 3.023 C 192.134 1.138 203.929 0 216.827 0 C 234.909 0 250.826 2.235 260.207 5.63 C 266.947 8.069 277.741 9.692 289.748 9.938 L 289.748 22.199 L 0 22.199 C 0.725 21.893 1.358 21.571 1.875 21.231 C 7.363 17.621 20.17 13.557 50.028 13.658 L 50.026 13.658 Z" fill="currentColor" fill-rule="nonzero"/>
</svg>
