<svg xmlns="http://www.w3.org/2000/svg" width="200.605" height="71.196" viewBox="0 0 200.605 71.196" fill="none">
  <path d="M -0.913 70.602 C -1.241 71.106 -1.098 71.781 -0.594 72.109 C -0.09 72.437 0.585 72.294 0.913 71.79 L -0.913 70.602 Z M 108.904 31.991 L 109.547 32.87 L 109.585 32.842 L 109.62 32.812 L 108.904 31.991 Z M 200.605 16.199 C 201.207 16.199 201.694 15.712 201.694 15.11 C 201.694 14.509 201.207 14.021 200.605 14.021 L 200.605 16.199 Z M 179.629 14.751 L 179.196 15.75 L 179.629 14.751 Z M 143.536 1.806 L 142.821 0.985 L 143.536 1.806 Z M 148.131 1.094 L 148.564 0.095 L 148.131 1.094 Z M 69.806 55.502 L 70.646 54.809 L 69.806 55.502 Z M 75.738 56.246 L 75.095 55.367 L 75.738 56.246 Z M 33.247 20.085 L 32.334 19.491 L 33.247 20.085 Z M 40.259 19.688 L 39.419 20.381 L 40.259 19.688 Z M 0.913 71.79 L 34.16 20.678 L 32.334 19.491 L -0.913 70.602 L 0.913 71.79 Z M 39.419 20.381 L 68.966 56.195 L 70.646 54.809 L 41.099 18.995 L 39.419 20.381 Z M 76.381 57.125 L 109.547 32.87 L 108.261 31.112 L 75.095 55.367 L 76.381 57.125 Z M 109.62 32.812 L 144.252 2.627 L 142.821 0.985 L 108.189 31.17 L 109.62 32.812 Z M 147.698 2.093 L 179.196 15.75 L 180.062 13.752 L 148.564 0.095 L 147.698 2.093 Z M 181.362 16.199 L 200.605 16.199 L 200.605 14.021 L 181.362 14.021 L 181.362 16.199 Z M 179.196 15.75 C 179.879 16.047 180.617 16.199 181.362 16.199 L 181.362 14.021 C 180.915 14.021 180.472 13.93 180.062 13.752 L 179.196 15.75 Z M 144.252 2.627 C 145.201 1.8 146.542 1.592 147.698 2.093 L 148.564 0.095 C 146.638 -0.741 144.403 -0.394 142.821 0.985 L 144.252 2.627 Z M 68.966 56.195 C 70.802 58.42 74.053 58.828 76.381 57.125 L 75.095 55.367 C 73.698 56.389 71.747 56.144 70.646 54.809 L 68.966 56.195 Z M 34.16 20.678 C 35.363 18.829 38.015 18.679 39.419 20.381 L 41.099 18.995 C 38.759 16.159 34.339 16.409 32.334 19.491 L 34.16 20.678 Z" fill="currentColor" fill-rule="nonzero"/>
</svg>
