<svg xmlns="http://www.w3.org/2000/svg" width="40.988" height="49.807" viewBox="0 0 40.988 49.807" fill="none">
  <path d="M 22.574 0.351 C 25.48 1.353 34.85 4.76 37.781 5.963 C 39.886 6.84 40.988 7.667 40.988 10.247 L 40.988 29.138 C 40.988 38.132 36.404 41.865 22.148 49.331 C 21.521 49.657 20.895 49.807 20.494 49.807 C 20.093 49.807 19.492 49.682 18.841 49.331 C 4.835 41.439 0 38.132 0 29.138 L 0 10.247 C 0 7.667 1.127 6.815 3.207 5.963 C 6.138 4.785 15.508 1.303 18.44 0.351 C 19.091 0.15 19.793 0 20.494 0 C 21.196 0 21.897 0.125 22.574 0.351 Z M 23.801 6.965 L 9.621 24.728 C 9.37 25.054 9.22 25.43 9.22 25.73 C 9.22 26.407 9.721 26.883 10.397 26.883 L 19.141 26.883 L 14.481 39.435 C 13.83 41.089 15.634 41.99 16.711 40.638 L 30.866 22.874 C 31.142 22.549 31.292 22.173 31.292 21.872 C 31.292 21.196 30.766 20.72 30.115 20.72 L 21.346 20.72 L 26.031 8.193 C 26.657 6.514 24.879 5.612 23.801 6.965 Z" fill="currentColor" fill-rule="nonzero"/>
</svg>
