<svg xmlns="http://www.w3.org/2000/svg" width="8.578" height="8.578" viewBox="0 0 8.578 8.578" fill="none">
  <path d="M 0.664 0 C 0.664 -0.367 0.367 -0.664 0 -0.664 C -0.367 -0.664 -0.664 -0.367 -0.664 0 L 0 0 L 0.664 0 Z M 0 8.578 L -0.664 8.578 C -0.664 8.945 -0.367 9.242 0 9.242 L 0 8.578 Z M 8.578 9.242 C 8.945 9.242 9.242 8.945 9.242 8.578 C 9.242 8.211 8.945 7.914 8.578 7.914 L 8.578 8.578 L 8.578 9.242 Z M 0 0 L -0.664 0 L -0.664 8.578 L 0 8.578 L 0.664 8.578 L 0.664 0 L 0 0 Z M 0 8.578 L 0 9.242 L 8.578 9.242 L 8.578 8.578 L 8.578 7.914 L 0 7.914 L 0 8.578 Z" fill="currentColor" fill-rule="nonzero"/>
</svg>
