<svg xmlns="http://www.w3.org/2000/svg" width="40.988" height="49.807" viewBox="0 0 40.988 49.807" fill="none">
  <path d="M 37.781 5.963 C 34.85 4.76 25.48 1.353 22.574 0.351 C 21.897 0.125 21.196 0 20.494 0 C 19.793 0 19.091 0.15 18.44 0.351 C 15.508 1.303 6.138 4.785 3.207 5.963 C 1.127 6.815 0 7.667 0 10.247 L 0 29.138 C 0 38.132 4.835 41.439 18.841 49.331 C 19.492 49.682 20.093 49.807 20.494 49.807 C 20.895 49.807 21.521 49.657 22.148 49.331 C 36.404 41.865 40.988 38.132 40.988 29.138 L 40.988 10.247 C 40.988 7.667 39.886 6.84 37.781 5.963 Z" fill="currentColor" fill-rule="nonzero"/>
  <path d="M 30.866 22.874 L 31.787 23.266 L 32.213 22.263 L 31.292 21.872 L 30.372 21.481 L 29.946 22.483 L 30.866 22.874 Z M 22.574 0.351 L 23.226 -1.54 L 23.216 -1.543 L 23.206 -1.547 L 22.574 0.351 Z M 37.781 5.963 L 38.551 4.117 L 38.541 4.112 L 37.781 5.963 Z M 22.148 49.331 L 23.071 51.105 L 23.076 51.103 L 22.148 49.331 Z M 18.841 49.331 L 17.859 51.074 L 17.875 51.083 L 17.892 51.092 L 18.841 49.331 Z M 3.207 5.963 L 2.461 4.107 L 2.449 4.112 L 3.207 5.963 Z M 18.44 0.351 L 17.852 -1.561 L 17.837 -1.556 L 17.822 -1.551 L 18.44 0.351 Z M 22.574 0.351 L 21.922 2.242 C 24.818 3.24 34.145 6.633 37.022 7.813 L 37.781 5.963 L 38.541 4.112 C 35.555 2.888 26.142 -0.534 23.226 -1.54 L 22.574 0.351 Z M 37.781 5.963 L 37.012 7.809 C 38.038 8.236 38.44 8.512 38.645 8.755 C 38.781 8.916 38.988 9.248 38.988 10.247 L 40.988 10.247 L 42.988 10.247 C 42.988 8.665 42.645 7.294 41.703 6.177 C 40.831 5.142 39.63 4.566 38.551 4.117 L 37.781 5.963 Z M 40.988 10.247 L 38.988 10.247 L 38.988 29.138 L 40.988 29.138 L 42.988 29.138 L 42.988 10.247 L 40.988 10.247 Z M 40.988 29.138 L 38.988 29.138 C 38.988 33.192 37.995 35.845 35.485 38.408 C 32.811 41.139 28.384 43.807 21.22 47.559 L 22.148 49.331 L 23.076 51.103 C 30.167 47.389 35.16 44.458 38.343 41.207 C 41.69 37.789 42.988 34.078 42.988 29.138 L 40.988 29.138 Z M 22.148 49.331 L 21.225 47.557 C 21.039 47.654 20.857 47.721 20.706 47.763 C 20.543 47.808 20.469 47.807 20.494 47.807 L 20.494 49.807 L 20.494 51.807 C 21.29 51.807 22.232 51.542 23.071 51.105 L 22.148 49.331 Z M 20.494 49.807 L 20.494 47.807 C 20.496 47.807 20.476 47.807 20.436 47.802 C 20.396 47.796 20.342 47.786 20.277 47.768 C 20.145 47.733 19.977 47.672 19.789 47.57 L 18.841 49.331 L 17.892 51.092 C 18.801 51.582 19.726 51.807 20.494 51.807 L 20.494 49.807 Z M 18.841 49.331 L 19.822 47.589 C 12.751 43.604 8.306 40.937 5.577 38.228 C 4.256 36.917 3.387 35.639 2.834 34.242 C 2.278 32.836 2 31.206 2 29.138 L 0 29.138 L -2 29.138 C -2 31.567 -1.673 33.723 -0.885 35.714 C -0.094 37.713 1.121 39.441 2.759 41.067 C 5.95 44.234 10.925 47.167 17.859 51.074 L 18.841 49.331 Z M 0 29.138 L 2 29.138 L 2 10.247 L 0 10.247 L -2 10.247 L -2 29.138 L 0 29.138 Z M 0 10.247 L 2 10.247 C 2 9.257 2.21 8.915 2.352 8.747 C 2.56 8.501 2.964 8.224 3.965 7.814 L 3.207 5.963 L 2.449 4.112 C 1.37 4.554 0.171 5.129 -0.705 6.167 C -1.646 7.282 -2 8.657 -2 10.247 L 0 10.247 Z M 3.207 5.963 L 3.952 7.819 C 6.858 6.651 16.183 3.186 19.058 2.253 L 18.44 0.351 L 17.822 -1.551 C 14.833 -0.581 5.418 2.919 2.461 4.107 L 3.207 5.963 Z M 18.44 0.351 L 19.028 2.262 C 19.576 2.094 20.066 2 20.494 2 L 20.494 0 L 20.494 -2 C 19.519 -2 18.607 -1.793 17.852 -1.561 L 18.44 0.351 Z M 20.494 0 L 20.494 2 C 20.958 2 21.446 2.083 21.941 2.248 L 22.574 0.351 L 23.206 -1.547 C 22.348 -1.832 21.433 -2 20.494 -2 L 20.494 0 Z" fill="currentColor" fill-rule="nonzero"/>
</svg>
