<svg xmlns="http://www.w3.org/2000/svg" width="17.124" height="28" viewBox="0 0 17.124 28" fill="none">
  <path d="M 10.463 25.289 L 6.612 25.289 C 6.281 25.289 6.033 25.554 6.033 25.884 C 6.033 25.917 6.033 25.967 6.033 26 C 6.116 27.107 7.207 28 8.529 28 C 9.851 28 10.942 27.124 11.025 26 C 11.025 25.967 11.025 25.917 11.025 25.884 C 11.025 25.554 10.76 25.289 10.446 25.289 L 10.463 25.289 Z M 10.479 23.405 L 6.595 23.405 C 6.281 23.405 6.033 23.669 6.033 23.983 C 6.033 24.298 6.281 24.562 6.595 24.562 L 10.479 24.562 C 10.793 24.562 11.041 24.298 11.041 23.983 C 11.041 23.669 10.793 23.405 10.479 23.405 Z M 8.562 0 C 3.835 0 0 3.587 0 8 C 0 14.231 5.554 16.331 5.554 21.273 C 5.554 22.826 6.893 22.711 8.562 22.711 C 10.215 22.711 11.57 22.81 11.57 21.273 C 11.57 16.331 17.124 14.231 17.124 8 C 17.124 3.587 13.289 0 8.562 0 Z" fill="currentColor" fill-rule="nonzero"/>
</svg>
