<svg xmlns="http://www.w3.org/2000/svg" width="5.085" height="4.196" viewBox="0 0 5.085 4.196" fill="none">
  <path d="M 3.967 4.196 C 3.789 4.196 3.623 4.148 3.468 4.041 L 0.394 1.964 C -0.01 1.691 -0.128 1.133 0.156 0.718 L 0.37 0.397 C 0.643 -0.018 1.201 -0.125 1.617 0.16 L 4.691 2.237 C 5.095 2.51 5.213 3.068 4.928 3.483 L 4.715 3.804 C 4.537 4.065 4.264 4.196 3.967 4.196 Z M 1.106 0.397 C 0.94 0.397 0.774 0.48 0.679 0.623 L 0.465 0.943 C 0.311 1.181 0.37 1.501 0.608 1.655 L 3.682 3.733 C 3.801 3.804 3.931 3.839 4.074 3.816 C 4.204 3.792 4.323 3.709 4.406 3.602 L 4.62 3.282 C 4.774 3.044 4.715 2.724 4.477 2.569 L 1.403 0.492 C 1.32 0.433 1.213 0.409 1.118 0.409 L 1.106 0.397 Z" fill="currentColor" fill-rule="nonzero"/>
</svg>
