<svg width="900" height="595" viewBox="0 0 900 595" fill="none" xmlns="http://www.w3.org/2000/svg">
<g clip-path="url(#clip0_791_2984)">
<path d="M53.1602 594.52C18.2111 594.52 -7.15512 561.399 1.81813 527.626C16.1448 473.704 48.5019 390.777 138.243 367.116C292.009 326.575 282.061 138 403.753 138C525.445 138 526.086 231.226 562.369 240.706C598.651 250.186 720.275 222.032 747.446 305.138C797.667 458.76 873.855 386.268 898.9 525.758C905.219 560.945 883.849 594.518 848.094 594.518L53.1602 594.52Z" fill="#F3F5FD"/>
<path d="M783.504 79.9756H533.471V404.264H783.504V79.9756Z" fill="#DEE8F5"/>
<path d="M760.642 189.129H556.333V238.718H760.642V189.129Z" fill="white"/>
<path d="M760.642 256.075H556.333V265.729H760.642V256.075Z" fill="white"/>
<path d="M760.642 279.883H556.333V289.536H760.642V279.883Z" fill="white"/>
<path d="M760.642 303.691H556.333V313.345H760.642V303.691Z" fill="white"/>
<path d="M760.642 325.033H556.333V334.687H760.642V325.033Z" fill="white"/>
<path d="M625.789 138.122C625.789 144.989 623.753 151.702 619.937 157.412C616.121 163.122 610.697 167.572 604.351 170.2C598.005 172.828 591.023 173.516 584.286 172.176C577.55 170.836 571.362 167.529 566.505 162.673C561.648 157.818 558.34 151.631 557 144.896C555.66 138.16 556.348 131.179 558.977 124.835C561.605 118.49 566.056 113.067 571.767 109.252C577.478 105.437 584.193 103.401 591.061 103.401C595.626 103.387 600.148 104.275 604.368 106.015C608.587 107.755 612.421 110.312 615.649 113.539C618.877 116.766 621.434 120.599 623.174 124.818C624.915 129.037 625.803 133.558 625.789 138.122Z" fill="white"/>
<path d="M591.061 141.699C598.655 141.699 604.81 135.545 604.81 127.953C604.81 120.361 598.655 114.207 591.061 114.207C583.468 114.207 577.312 120.361 577.312 127.953C577.312 135.545 583.468 141.699 591.061 141.699Z" fill="white"/>
<path d="M616.087 162.197C612.847 165.564 608.96 168.242 604.66 170.071C600.36 171.9 595.735 172.843 591.062 172.843C586.389 172.843 581.763 171.9 577.463 170.071C573.163 168.242 569.277 165.564 566.036 162.197C570.719 151.735 580.171 144.584 591.061 144.584C601.951 144.584 611.405 151.738 616.087 162.197Z" fill="white"/>
<path d="M710.053 103.616H639.94V124.8H710.053V103.616Z" fill="white"/>
<path d="M760.641 137.902H639.94V145.609H760.641V137.902Z" fill="white"/>
<path d="M760.641 158.714H639.94V166.421H760.641V158.714Z" fill="white"/>
<path d="M631.839 353.383H556.333V381.481H631.839V353.383Z" fill="white"/>
<path d="M705.345 48H406.005V436.239H705.345V48Z" fill="#DEE8F5"/>
<path d="M677.975 178.678H433.376V238.046H677.975V178.678Z" fill="white"/>
<path d="M677.975 258.827H433.376V270.385H677.975V258.827Z" fill="white"/>
<path d="M677.975 287.329H433.376V298.887H677.975V287.329Z" fill="white"/>
<path d="M677.975 315.833H433.376V327.391H677.975V315.833Z" fill="white"/>
<path d="M677.975 341.383H433.376V352.94H677.975V341.383Z" fill="white"/>
<path d="M516.53 117.612C516.53 125.833 514.091 133.87 509.523 140.706C504.954 147.542 498.461 152.87 490.864 156.016C483.267 159.162 474.907 159.986 466.842 158.382C458.777 156.778 451.369 152.819 445.554 147.005C439.739 141.192 435.779 133.785 434.175 125.722C432.571 117.658 433.394 109.3 436.541 101.705C439.687 94.109 445.016 87.6168 451.853 83.0491C458.691 78.4814 466.729 76.0433 474.952 76.0432C480.417 76.027 485.831 77.0911 490.882 79.1744C495.934 81.2577 500.524 84.319 504.388 88.1822C508.252 92.0454 511.314 96.6343 513.398 101.685C515.481 106.736 516.546 112.148 516.53 117.612Z" fill="white"/>
<path d="M474.952 121.895C484.043 121.895 491.412 114.527 491.412 105.438C491.412 96.3495 484.043 88.9814 474.952 88.9814C465.861 88.9814 458.492 96.3495 458.492 105.438C458.492 114.527 465.861 121.895 474.952 121.895Z" fill="white"/>
<path d="M504.914 146.436C501.034 150.466 496.381 153.672 491.233 155.861C486.084 158.051 480.547 159.18 474.953 159.18C469.358 159.18 463.821 158.051 458.673 155.861C453.525 153.672 448.871 150.466 444.992 146.436C450.598 133.909 461.915 125.349 474.952 125.349C487.989 125.349 499.308 133.909 504.914 146.436Z" fill="white"/>
<path d="M617.411 76.3008H533.471V101.662H617.411V76.3008Z" fill="white"/>
<path d="M677.975 117.351H533.471V126.578H677.975V117.351Z" fill="white"/>
<path d="M677.975 142.265H533.471V151.492H677.975V142.265Z" fill="white"/>
<path d="M523.773 375.323H433.376V408.962H523.773V375.323Z" fill="white"/>
<path d="M561.628 0H211.197V454.504H561.628V0Z" fill="#066DCE"/>
<path d="M529.586 152.983H243.239V222.484H529.586V152.983Z" fill="white"/>
<path d="M529.586 246.812H243.239V260.342H529.586V246.812Z" fill="white"/>
<path d="M529.586 280.181H243.239V293.71H529.586V280.181Z" fill="white"/>
<path d="M529.586 313.548H243.239V327.078H529.586V313.548Z" fill="white"/>
<path d="M529.586 343.459H243.239V356.989H529.586V343.459Z" fill="white"/>
<path d="M340.585 81.4935C340.585 91.1183 337.731 100.527 332.383 108.53C327.034 116.533 319.433 122.77 310.539 126.454C301.645 130.137 291.858 131.101 282.416 129.223C272.974 127.346 264.301 122.711 257.494 115.905C250.687 109.099 246.051 100.428 244.173 90.9884C242.295 81.5485 243.259 71.7638 246.943 62.8715C250.627 53.9793 256.865 46.379 264.87 41.0317C272.874 35.6844 282.285 32.8303 291.911 32.8303C298.309 32.8112 304.647 34.0569 310.56 36.4957C316.474 38.9345 321.848 42.5183 326.371 47.0409C330.895 51.5634 334.479 56.9356 336.919 62.8483C339.358 68.761 340.604 75.0976 340.585 81.4935Z" fill="white"/>
<path d="M291.911 86.5085C302.554 86.5085 311.181 77.8831 311.181 67.243C311.181 56.603 302.554 47.9775 291.911 47.9775C281.269 47.9775 272.642 56.603 272.642 67.243C272.642 77.8831 281.269 86.5085 291.911 86.5085Z" fill="#DEE8F5"/>
<path d="M326.987 115.237C322.445 119.955 316.997 123.709 310.971 126.272C304.944 128.836 298.462 130.157 291.912 130.157C285.362 130.157 278.88 128.836 272.853 126.272C266.827 123.709 261.379 119.955 256.837 115.237C263.4 100.573 276.649 90.5508 291.911 90.5508C307.174 90.5508 320.424 100.573 326.987 115.237Z" fill="#DEE8F5"/>
<path d="M458.685 33.1328H360.419V62.8232H458.685V33.1328Z" fill="white"/>
<path d="M529.586 81.1875H360.419V91.9897H529.586V81.1875Z" fill="white"/>
<path d="M529.586 110.354H360.419V121.157H529.586V110.354Z" fill="white"/>
<path d="M349.064 383.192H243.239V422.573H349.064V383.192Z" fill="white"/>
<path d="M762.356 548.637H839.052V466.626H762.356V548.637Z" fill="#D7E8F4"/>
<path d="M738.599 548.637H815.294V466.626H738.599V548.637Z" fill="white"/>
<path d="M760.944 486.178V502.182V551.718H844.89V502.182V486.178H760.944Z" fill="#C1D8ED"/>
<path d="M819.421 486.178H735.476V551.719H819.421V486.178Z" fill="#DEE8F5"/>
<path d="M819.421 486.178H735.476V491.091H819.421V486.178Z" fill="#C1D8ED"/>
<path d="M786.249 499.342H768.648C767.303 499.342 766.211 500.433 766.211 501.778V506.746C766.211 508.092 767.303 509.183 768.648 509.183H786.249C787.595 509.183 788.686 508.092 788.686 506.746V501.778C788.686 500.433 787.595 499.342 786.249 499.342Z" fill="white"/>
<path d="M760.774 472.047L844.162 481.702L846.004 465.804L762.616 456.149L760.774 472.047Z" fill="#C1D8ED"/>
<path d="M735.476 469.117L818.864 478.772L820.705 462.875L737.318 453.219L735.476 469.117Z" fill="#DEE8F5"/>
<path d="M766.138 479.05H738.598C737.124 480.281 736.039 481.913 735.476 483.75C735.476 483.75 744.98 480.851 766.138 479.05Z" fill="#DEE8F5"/>
<path d="M191.217 369.339L183.422 367.496L173.649 408.822L181.444 410.664L191.217 369.339Z" fill="#F0F6FF"/>
<path d="M174.85 364.287L170.523 365.085L177.216 401.358L181.543 400.56L174.85 364.287Z" fill="#C1D8ED"/>
<path d="M174.849 364.274L170.526 365.097L171.287 369.098L175.61 368.275L174.849 364.274Z" fill="#DEE8F5"/>
<path d="M188.244 373.511L174.221 409.1L176.624 410.046L190.647 374.457L188.244 373.511Z" fill="#1C7C35"/>
<path d="M191.316 389.08H170.177V416.091H191.316V389.08Z" fill="#C1D8ED"/>
<path d="M216.346 554.847H225.007V469.659H216.346V554.847Z" fill="#C1D8ED"/>
<path d="M223.474 554.847H232.135V469.659H223.474V554.847Z" fill="#DEE8F5"/>
<path d="M108.466 554.847H117.127L117.127 469.659H108.466L108.466 554.847Z" fill="#C1D8ED"/>
<path d="M115.594 554.847H124.254L124.254 469.659H115.594L115.594 554.847Z" fill="#DEE8F5"/>
<path d="M192.591 554.847H201.252V469.659H192.591V554.847Z" fill="#C1D8ED"/>
<path d="M199.72 554.847H208.381V469.659H199.72V554.847Z" fill="#DEE8F5"/>
<path d="M84.7102 554.847H93.3711L93.3711 469.659H84.7102L84.7102 554.847Z" fill="#C1D8ED"/>
<path d="M91.8391 554.847H100.5L100.5 469.659H91.8391L91.8391 554.847Z" fill="#DEE8F5"/>
<path d="M201.199 415.13H84.7104V471.701H201.199V415.13Z" fill="#C1D8ED"/>
<path d="M232.137 415.13H115.648V471.701H232.137V415.13Z" fill="#DEE8F5"/>
<g opacity="0.53">
<path d="M225.87 423.172H121.915V463.409H225.87V423.172Z" fill="#F3F5FD"/>
</g>
<path d="M173.892 447.906C176.442 447.906 178.509 445.84 178.509 443.291C178.509 440.741 176.442 438.675 173.892 438.675C171.342 438.675 169.275 440.741 169.275 443.291C169.275 445.84 171.342 447.906 173.892 447.906Z" fill="white"/>
</g>
<defs>
<clipPath id="clip0_791_2984">
<rect width="900" height="595" fill="white"/>
</clipPath>
</defs>
</svg>
