<svg xmlns="http://www.w3.org/2000/svg" width="24.104" height="25.674" viewBox="0 0 24.104 25.674" fill="none">
  <path d="M 11.971 25.674 C 11.347 25.674 10.684 25.674 10.02 25.654 L 8.089 25.654 L 8.206 24.952 C 8.323 24.347 8.284 23.528 8.05 23.333 C 7.797 23.118 7.446 22.767 7.075 22.436 C 6.763 22.143 6.431 21.831 6.197 21.616 L 4.773 20.056 C 4.539 19.744 4.285 19.334 3.993 18.807 C 3.661 18.261 3.271 17.579 2.764 16.837 C 2.549 16.525 2.218 16.116 1.847 15.667 C 1.262 14.945 0.657 14.204 0.365 13.677 C 0.014 13.111 -0.084 12.37 0.072 11.707 C 0.345 10.361 1.574 9.444 2.979 9.581 C 3.973 9.776 4.832 10.225 5.495 10.888 C 5.768 11.141 6.041 11.434 6.295 11.727 C 6.217 11.278 6.119 10.79 6.022 10.342 C 5.846 9.581 5.787 9.366 5.67 8.918 L 5.592 8.625 C 5.456 8.137 5.358 7.728 5.261 7.279 L 5.085 6.538 C 4.89 5.758 4.734 4.938 4.637 4.138 C 4.422 3.046 4.598 1.856 5.124 0.842 L 5.241 0.686 C 5.983 -0.016 7.036 -0.192 7.953 0.218 C 8.869 0.881 9.455 1.7 9.767 2.656 C 10.176 3.67 10.469 4.782 10.625 5.914 C 10.664 6.187 10.723 6.499 10.781 6.791 C 11.015 6.518 11.327 6.304 11.659 6.167 C 12.264 5.972 12.868 5.953 13.434 6.05 C 14.097 6.187 14.643 6.557 15.034 7.084 C 15.092 7.201 15.131 7.318 15.17 7.455 C 15.521 6.986 16.009 6.655 16.555 6.499 C 17.179 6.382 17.765 6.382 18.35 6.479 C 18.993 6.694 19.462 7.025 19.813 7.474 L 19.891 7.611 C 20.027 7.942 20.144 8.274 20.222 8.625 C 20.534 8.313 20.905 8.098 21.354 8.02 C 21.939 7.884 22.544 8.02 23.051 8.332 C 23.734 8.781 24.124 9.561 24.065 10.381 C 24.104 11.2 24.104 11.317 24.104 11.746 L 24.104 12.039 C 24.104 12.877 24.085 13.404 24.046 14.009 C 23.987 14.965 23.851 15.92 23.656 16.876 C 23.382 17.754 22.992 18.554 22.524 19.295 C 21.724 20.192 21.12 21.129 20.651 22.124 C 20.593 22.475 20.534 22.943 20.554 23.411 C 20.554 23.879 20.612 24.308 20.73 24.737 L 20.905 25.381 L 20.242 25.479 C 19.54 25.576 18.837 25.596 18.135 25.537 C 17.082 25.362 16.165 23.684 16.067 23.489 C 15.658 24.055 14.76 25.44 13.883 25.537 C 13.395 25.596 12.712 25.615 11.952 25.615 L 11.971 25.674 Z M 9.435 24.464 L 10.04 24.464 C 11.483 24.503 12.966 24.523 13.746 24.425 C 13.941 24.367 14.526 23.743 14.995 22.923 C 15.112 22.709 15.307 22.514 15.56 22.416 C 16.165 22.143 16.867 22.416 17.14 23.021 C 17.452 23.626 18.077 24.367 18.311 24.406 C 18.681 24.425 19.091 24.425 19.481 24.406 C 19.423 24.094 19.403 23.762 19.403 23.45 C 19.403 22.904 19.442 22.338 19.579 21.772 C 20.125 20.544 20.808 19.51 21.627 18.612 C 21.978 18.047 22.31 17.344 22.544 16.603 C 22.719 15.764 22.856 14.848 22.914 13.95 C 22.953 13.365 22.973 12.877 22.973 12.058 L 22.973 11.766 C 22.973 11.356 22.973 11.239 22.934 10.381 C 22.973 9.932 22.778 9.542 22.446 9.347 C 21.939 9.015 21.276 9.171 20.964 9.659 C 20.808 9.912 20.69 10.303 20.632 10.517 C 20.593 10.693 20.476 11.161 19.969 11.141 L 19.481 11.102 L 19.423 10.576 C 19.364 9.737 19.188 8.918 18.876 8.157 C 18.681 7.923 18.408 7.728 18.116 7.63 C 17.765 7.572 17.316 7.591 16.867 7.669 C 16.633 7.747 16.38 7.903 16.184 8.137 C 15.97 8.879 15.833 9.659 15.794 10.439 L 14.624 10.439 C 14.585 9.483 14.409 8.566 14.058 7.689 C 13.922 7.513 13.61 7.318 13.258 7.24 C 12.888 7.181 12.478 7.201 12.088 7.318 C 11.776 7.455 11.503 7.767 11.425 8.157 C 11.386 8.84 11.386 9.6 11.425 10.342 C 11.425 10.381 11.425 10.4 11.425 10.42 L 10.254 10.478 C 10.254 10.478 10.254 10.439 10.254 10.4 C 10.235 10.107 10.079 9.269 9.923 8.449 C 9.786 7.689 9.63 6.83 9.513 6.109 C 9.377 5.055 9.123 4.041 8.733 3.085 C 8.479 2.324 8.031 1.7 7.426 1.251 C 7.075 1.115 6.548 1.193 6.178 1.505 C 5.807 2.266 5.69 3.144 5.865 3.982 C 5.983 4.782 6.119 5.543 6.295 6.284 L 6.47 7.025 C 6.568 7.455 6.665 7.845 6.802 8.313 L 6.88 8.605 C 7.016 9.093 7.075 9.308 7.25 10.088 C 7.504 11.219 7.68 12.487 7.797 13.307 L 7.797 13.502 C 7.875 13.716 8.011 14.204 7.543 14.418 C 7.075 14.633 6.802 14.243 6.626 13.989 L 6.451 13.736 C 6.334 13.58 6.236 13.443 6.158 13.346 C 6.08 13.229 6.002 13.111 5.865 12.936 C 5.534 12.487 5.163 12.097 4.773 11.727 C 4.246 11.2 3.603 10.868 2.881 10.732 C 2.159 10.654 1.437 11.18 1.281 11.961 C 1.184 12.37 1.242 12.76 1.437 13.092 C 1.672 13.541 2.276 14.282 2.803 14.926 C 3.174 15.394 3.544 15.842 3.778 16.155 C 4.305 16.935 4.715 17.618 5.046 18.203 C 5.319 18.671 5.534 19.042 5.729 19.295 L 7.055 20.758 C 7.25 20.934 7.582 21.246 7.914 21.558 C 8.245 21.87 8.596 22.202 8.83 22.416 C 9.416 22.904 9.494 23.821 9.455 24.464 L 9.435 24.464 Z" fill="currentColor" fill-rule="nonzero"/>
</svg>
