<svg xmlns="http://www.w3.org/2000/svg" width="12.491" height="9.342" viewBox="0 0 12.491 9.342" fill="none">
  <path d="M 0.441 9.086 C 0.381 9.086 0.322 9.063 0.263 9.039 C 0.037 8.932 -0.07 8.647 0.049 8.422 C 0.049 8.422 0.832 6.795 1.841 5.027 C 3.23 2.617 4.37 1.086 5.236 0.457 C 5.545 0.219 5.913 0.077 6.305 0.017 C 6.673 -0.042 7.053 0.053 7.361 0.267 C 7.682 0.504 7.884 0.872 7.919 1.264 C 7.967 1.762 7.919 2.261 7.741 2.724 C 7.516 3.4 7.219 4.243 6.922 5.062 C 6.554 6.095 6.174 7.175 5.949 7.888 C 5.866 8.172 5.961 8.327 6.067 8.386 C 6.127 8.41 6.245 8.434 6.34 8.267 C 6.768 7.508 7.136 6.712 7.456 5.893 C 7.622 5.49 7.753 5.181 7.848 5.003 C 7.978 4.73 8.192 4.516 8.465 4.386 C 8.714 4.279 8.987 4.267 9.249 4.362 C 9.51 4.457 9.723 4.635 9.854 4.872 C 9.996 5.134 10.032 5.43 9.973 5.715 C 9.902 5.988 9.818 6.261 9.7 6.522 C 9.581 6.807 9.486 7.104 9.415 7.413 C 9.391 7.567 9.415 7.721 9.522 7.852 C 9.593 7.947 9.712 7.994 9.83 8.006 C 10.412 8.018 10.994 7.982 11.575 7.888 C 11.741 7.864 11.872 7.84 11.979 7.84 C 12.24 7.816 12.466 8.006 12.489 8.267 C 12.513 8.529 12.323 8.754 12.062 8.778 C 12.062 8.778 12.062 8.778 12.05 8.778 C 11.943 8.778 11.836 8.802 11.73 8.825 C 11.1 8.932 10.459 8.98 9.818 8.956 C 9.427 8.956 9.059 8.766 8.821 8.457 C 8.548 8.125 8.441 7.686 8.525 7.258 C 8.596 6.89 8.714 6.546 8.857 6.202 C 8.952 5.988 9.023 5.763 9.082 5.525 C 9.118 5.418 9.071 5.288 8.964 5.24 C 8.845 5.205 8.75 5.359 8.714 5.43 C 8.643 5.573 8.513 5.881 8.358 6.249 C 8.026 7.104 7.634 7.947 7.183 8.754 C 7.041 9.003 6.803 9.193 6.53 9.288 C 6.269 9.371 5.996 9.359 5.747 9.241 C 5.474 9.11 5.26 8.896 5.153 8.612 C 5.023 8.303 5.023 7.947 5.118 7.626 C 5.343 6.89 5.735 5.81 6.103 4.754 C 6.388 3.947 6.696 3.104 6.91 2.439 C 7.041 2.107 7.088 1.75 7.053 1.406 C 7.076 1.145 6.886 0.931 6.625 0.908 C 6.566 0.908 6.507 0.908 6.447 0.931 C 6.222 0.967 6.008 1.062 5.818 1.204 C 5.225 1.691 4.714 2.273 4.299 2.914 C 3.812 3.602 3.266 4.469 2.684 5.478 C 1.687 7.211 0.927 8.802 0.927 8.813 C 0.844 8.991 0.654 9.086 0.464 9.075 L 0.441 9.086 Z" fill="currentColor" fill-rule="nonzero"/>
</svg>
