<svg xmlns="http://www.w3.org/2000/svg" width="15.351" height="12.439" viewBox="0 0 15.351 12.439" fill="none">
  <path d="M 2.228 12.375 C 6.728 12.875 2.103 10.375 4.728 7.875 C 7.353 5.375 8.353 6.875 8.853 8.875 C 9.353 10.875 11.228 12.375 12.228 11.375 C 13.228 10.375 10.728 7.875 11.728 5.875 C 12.728 3.875 17.353 2.875 14.353 1.375 C 11.353 -0.125 6.728 -1.125 6.228 2.375 C 5.728 5.875 2.353 2.375 1.853 4.375 C 1.353 6.375 -2.272 11.875 2.228 12.375 Z" fill="currentColor" fill-rule="nonzero"/>
  <path d="M 2.228 12.375 L 2.173 12.872 C 2.748 12.936 3.205 12.955 3.561 12.926 C 3.904 12.898 4.231 12.819 4.471 12.616 C 4.743 12.386 4.812 12.079 4.804 11.815 C 4.797 11.574 4.725 11.319 4.659 11.105 C 4.516 10.632 4.358 10.19 4.363 9.708 C 4.367 9.266 4.514 8.769 5.073 8.237 L 4.728 7.875 L 4.383 7.513 C 3.629 8.231 3.37 8.984 3.363 9.698 C 3.356 10.372 3.58 10.993 3.703 11.395 C 3.77 11.618 3.802 11.754 3.805 11.845 C 3.807 11.913 3.793 11.88 3.825 11.853 C 3.828 11.85 3.812 11.865 3.755 11.883 C 3.697 11.901 3.609 11.919 3.479 11.929 C 3.216 11.951 2.833 11.939 2.283 11.878 L 2.228 12.375 Z M 4.728 7.875 L 5.073 8.237 C 5.705 7.634 6.204 7.309 6.588 7.162 C 6.958 7.021 7.197 7.053 7.368 7.137 C 7.557 7.229 7.747 7.425 7.926 7.759 C 8.103 8.091 8.248 8.515 8.368 8.996 L 8.853 8.875 L 9.338 8.754 C 9.208 8.235 9.04 7.722 8.807 7.287 C 8.576 6.856 8.258 6.458 7.807 6.238 C 7.337 6.009 6.803 6.01 6.231 6.228 C 5.673 6.441 5.063 6.865 4.383 7.513 L 4.728 7.875 Z M 8.853 8.875 L 8.368 8.996 C 8.644 10.099 9.298 11.075 10.05 11.648 C 10.426 11.934 10.857 12.142 11.301 12.185 C 11.764 12.23 12.219 12.091 12.582 11.729 L 12.228 11.375 L 11.874 11.021 C 11.737 11.159 11.583 11.208 11.397 11.19 C 11.193 11.17 10.936 11.066 10.656 10.852 C 10.096 10.425 9.562 9.651 9.338 8.754 L 8.853 8.875 Z M 12.228 11.375 L 12.582 11.729 C 13.008 11.303 13.012 10.746 12.922 10.281 C 12.834 9.821 12.624 9.3 12.446 8.824 C 12.058 7.79 11.787 6.875 12.175 6.099 L 11.728 5.875 L 11.281 5.651 C 10.669 6.875 11.148 8.21 11.51 9.176 C 11.707 9.7 11.872 10.116 11.94 10.469 C 12.007 10.816 11.948 10.947 11.874 11.021 L 12.228 11.375 Z M 11.728 5.875 L 12.175 6.099 C 12.371 5.708 12.767 5.328 13.283 4.938 C 13.536 4.747 13.803 4.564 14.071 4.381 C 14.335 4.2 14.604 4.017 14.843 3.836 C 15.079 3.656 15.308 3.463 15.485 3.255 C 15.66 3.05 15.822 2.787 15.847 2.47 C 15.875 2.133 15.741 1.832 15.513 1.581 C 15.295 1.341 14.977 1.128 14.577 0.928 L 14.353 1.375 L 14.129 1.822 C 14.479 1.997 14.673 2.144 14.772 2.253 C 14.82 2.305 14.838 2.341 14.845 2.359 C 14.851 2.374 14.851 2.382 14.851 2.389 C 14.849 2.409 14.833 2.478 14.724 2.607 C 14.617 2.733 14.455 2.875 14.238 3.039 C 14.024 3.202 13.777 3.37 13.507 3.555 C 13.241 3.737 12.955 3.933 12.681 4.14 C 12.142 4.547 11.585 5.042 11.281 5.651 L 11.728 5.875 Z M 14.353 1.375 L 14.577 0.928 C 13.041 0.16 11.055 -0.5 9.353 -0.5 C 8.499 -0.5 7.669 -0.334 7.005 0.118 C 6.325 0.581 5.875 1.308 5.733 2.304 L 6.228 2.375 L 6.723 2.446 C 6.831 1.692 7.147 1.231 7.568 0.945 C 8.006 0.646 8.613 0.5 9.353 0.5 C 10.839 0.5 12.665 1.09 14.129 1.822 L 14.353 1.375 Z M 6.228 2.375 L 5.733 2.304 C 5.62 3.098 5.367 3.343 5.182 3.435 C 4.951 3.549 4.619 3.54 4.136 3.447 C 4.021 3.425 3.906 3.399 3.786 3.373 C 3.668 3.347 3.544 3.32 3.423 3.296 C 3.184 3.248 2.921 3.206 2.667 3.211 C 2.411 3.216 2.123 3.27 1.87 3.454 C 1.611 3.642 1.451 3.921 1.368 4.254 L 1.853 4.375 L 2.338 4.496 C 2.38 4.329 2.435 4.28 2.458 4.263 C 2.487 4.242 2.549 4.214 2.687 4.211 C 2.828 4.208 3.004 4.232 3.228 4.277 C 3.337 4.298 3.45 4.323 3.572 4.35 C 3.691 4.376 3.818 4.404 3.946 4.428 C 4.43 4.522 5.067 4.607 5.626 4.331 C 6.229 4.032 6.586 3.402 6.723 2.446 L 6.228 2.375 Z M 1.853 4.375 L 1.368 4.254 C 1.255 4.705 0.959 5.371 0.607 6.204 C 0.268 7.008 -0.107 7.932 -0.321 8.82 C -0.531 9.693 -0.611 10.63 -0.253 11.405 C 0.128 12.23 0.935 12.734 2.173 12.872 L 2.228 12.375 L 2.283 11.878 C 1.271 11.766 0.844 11.395 0.655 10.986 C 0.442 10.526 0.456 9.869 0.652 9.054 C 0.844 8.255 1.188 7.398 1.528 6.593 C 1.856 5.817 2.201 5.045 2.338 4.496 L 1.853 4.375 Z" fill="currentColor" fill-rule="nonzero"/>
</svg>
