<svg width="900" height="595" viewBox="0 0 900 595" fill="none" xmlns="http://www.w3.org/2000/svg">
<g clip-path="url(#clip0_791_3503)">
<path d="M826.808 593.041C839.334 593.052 851.558 589.197 861.81 582.001C872.062 574.805 879.843 564.62 884.09 552.836C902.748 500.86 919.188 404.582 846.133 300.439C765.355 185.29 603.762 66.2506 490.104 54.0553C312.039 34.9595 262.271 242.559 182.374 290.868C113.343 332.607 13.3763 395.196 0.309601 526.009C-0.490645 533.971 0.285286 542.013 2.59309 549.675C4.9009 557.337 8.69538 564.47 13.7599 570.666C18.8244 576.862 25.0597 581.999 32.1099 585.786C39.1601 589.572 46.887 591.932 54.8495 592.732C56.8642 592.932 58.8852 593.034 60.9125 593.038L826.808 593.041Z" fill="#F3F5FD"/>
<path d="M817.14 588.66C836.92 582.53 856.111 574.52 873.597 552.101C877.185 547.507 880.558 541.621 878.59 536.123C877.11 531.985 872.829 529.332 868.48 528.657C866.859 528.421 865.217 528.376 863.586 528.523C863.578 528.523 863.57 528.523 863.567 528.523C861.06 528.78 858.582 529.266 856.164 529.975L855.473 530.175C843.932 533.454 832.939 538.419 822.848 544.909C821.933 545.491 820.849 545.747 819.77 545.635C818.692 545.524 817.683 545.05 816.908 544.292C816.132 543.534 815.636 542.536 815.5 541.461C815.364 540.385 815.595 539.295 816.157 538.368C817.186 536.686 818.384 535.113 819.732 533.674C821.721 531.596 823.898 529.707 826.237 528.033C829.347 525.765 832.665 523.739 835.912 521.669C847.981 513.982 859.416 505.341 870.107 495.829C877.736 489.032 885.199 481.49 888.825 471.934C890.492 467.54 891.25 462.474 889.262 458.216C885.983 451.225 876.692 449.265 869.095 450.716C855.782 453.265 845.149 463.024 835.718 472.75C827.897 480.832 819.134 489.78 807.898 490.277C805.982 490.456 804.056 490.07 802.358 489.166C799.153 487.225 798.329 482.727 799.472 479.156C800.614 475.585 803.258 472.731 805.809 469.99C820.641 454.08 835.236 437.529 844.866 418.033C854.496 398.536 858.762 375.52 852.07 354.819C850.109 348.768 847.16 342.88 842.561 338.484C837.962 334.088 831.513 331.332 825.199 332.173C816.597 333.306 810.119 340.562 805.761 348.06C790.78 373.777 791.696 405.289 787.477 434.749C786.296 442.996 784.581 451.455 779.667 458.244C779.214 458.897 778.626 459.445 777.943 459.851C773.901 462.192 770.273 457.472 768.755 453.466C762.763 437.62 761.265 419.497 750.537 406.381C746.443 401.388 740.651 397.214 734.194 397.255C726.309 397.309 719.558 403.894 717.257 411.436C714.957 418.977 716.334 427.171 718.798 434.66C723.374 448.547 731.576 461.024 741.241 471.988C746.334 477.78 752.096 483.627 753.624 491.18C754.093 493.748 753.897 496.392 753.056 498.862C752.214 501.332 750.756 503.546 748.818 505.294C747.912 506.083 746.857 506.681 745.716 507.054C744.574 507.428 743.369 507.568 742.173 507.467C739.584 507.23 737.243 505.91 734.982 504.627C734.034 504.088 733.085 503.54 732.129 503.004C728.36 500.859 724.591 498.711 720.822 496.56C711.234 491.094 699.669 485.508 689.688 490.216C684.595 492.622 681.258 497.355 679.688 502.784C678.283 507.713 678.283 512.936 679.688 517.864C682.661 528.113 701.4 556.633 709.129 563.988C718.158 572.577 749.462 609.634 817.14 588.66Z" fill="#8DDBE0"/>
<path d="M607.805 0V405.751H607.325L581.449 379.876L555.564 405.751H553.78L527.904 379.876L502.02 405.751H501.9L475.144 378.996L448.394 405.751H448.355L421.598 378.996L394.842 405.751H394.666L367.909 378.996L341.161 405.751H341.112L314.364 378.996L288 405.359V0H607.805Z" fill="#DEE8F5"/>
<path d="M460.823 96.4717H322.748V108.682H460.823V96.4717Z" fill="white"/>
<path d="M416.677 58.9688H322.748V71.1792H416.677V58.9688Z" fill="white"/>
<path d="M438.28 133.974H322.748V146.184H438.28V133.974Z" fill="white"/>
<path d="M408.223 171.477H322.748V183.687H408.223V171.477Z" fill="white"/>
<path d="M447.905 208.979H322.748V221.189H447.905V208.979Z" fill="white"/>
<path d="M430.766 246.481H322.748V258.692H430.766V246.481Z" fill="white"/>
<path d="M416.677 283.983H322.748V296.194H416.677V283.983Z" fill="white"/>
<path d="M399.77 321.486H322.748V333.697H399.77V321.486Z" fill="white"/>
<path d="M571.659 96.4717H520.937V108.682H571.659V96.4717Z" fill="white"/>
<path d="M571.659 58.9688H520.937V71.1792H571.659V58.9688Z" fill="white"/>
<path d="M571.659 133.974H520.937V146.184H571.659V133.974Z" fill="white"/>
<path d="M571.659 171.477H520.937V183.687H571.659V171.477Z" fill="white"/>
<path d="M571.659 208.979H520.937V221.189H571.659V208.979Z" fill="white"/>
<path d="M571.659 246.481H520.937V258.692H571.659V246.481Z" fill="white"/>
<path d="M571.659 283.983H520.937V296.194H571.659V283.983Z" fill="white"/>
<path d="M571.659 321.486H520.937V333.697H571.659V321.486Z" fill="white"/>
<path d="M601.727 439.448C632.504 439.448 657.454 414.5 657.454 383.724C657.454 352.948 632.504 328 601.727 328C570.95 328 546 352.948 546 383.724C546 414.5 570.95 439.448 601.727 439.448Z" fill="#1C7C35"/>
<path d="M592.171 414.148C591.009 414.148 589.892 413.704 589.047 412.907L567.879 392.935C567.025 392.101 566.533 390.965 566.509 389.772C566.484 388.579 566.929 387.424 567.748 386.556C568.567 385.688 569.694 385.176 570.887 385.131C572.079 385.086 573.242 385.511 574.124 386.314L591.919 403.101L629.08 362.154C629.894 361.272 631.024 360.746 632.224 360.693C633.424 360.64 634.596 361.062 635.485 361.869C636.374 362.677 636.909 363.802 636.971 365.001C637.034 366.201 636.621 367.376 635.821 368.272L595.541 412.656C595.135 413.104 594.643 413.467 594.095 413.723C593.546 413.978 592.952 414.122 592.348 414.146C592.289 414.147 592.23 414.148 592.171 414.148Z" fill="white"/>
<path d="M196.146 582.235L175.319 579.759C176.257 571.877 177.317 562.409 177.389 560.857C177.389 560.957 177.389 561.038 177.389 561.101H198.361C198.357 561.73 198.357 563.644 196.146 582.235Z" fill="#E98862"/>
<path d="M112.58 584.743L91.608 584.674C91.608 584.674 91.6779 563.02 91.6779 561.102H112.65C112.651 563.026 112.58 584.743 112.58 584.743Z" fill="#E98862"/>
<path d="M166.937 575.613L203.883 574.984C202.347 536.075 202.085 491.571 201.673 451.299C201.559 441.317 200.805 431.353 199.416 421.468C193.471 378.803 189.595 336.384 181.591 293.964L181.324 294.043L180.543 288.72L104.567 284.031L100.612 333.668C100.612 333.668 90.7162 505.38 86.2031 574.423L123.022 577.534C129.657 509.84 139.924 411.206 146.238 340.092C153.489 374.715 158.422 410.564 164.727 444.89C165.99 487.857 167.054 532.774 166.937 575.613Z" fill="#262626"/>
<path d="M138.076 592.854C138.64 592.851 139.197 592.732 139.713 592.504C140.229 592.277 140.692 591.945 141.074 591.53C141.456 591.115 141.749 590.626 141.933 590.093C142.117 589.56 142.19 588.995 142.146 588.433C142.086 587.653 141.803 586.907 141.333 586.283C140.863 585.659 140.223 585.182 139.491 584.909L115.081 576.733C114.608 576.576 114.107 576.524 113.612 576.579C113.116 576.634 112.639 576.795 112.212 577.051C108.856 579.38 104.842 580.57 100.76 580.447C97.5799 580.221 94.5273 579.106 91.9505 577.229C91.724 577.044 91.4495 576.926 91.1589 576.891C90.8683 576.855 90.5736 576.903 90.3091 577.029C90.0447 577.154 89.8213 577.353 89.6651 577.6C89.5089 577.848 89.4263 578.135 89.4269 578.427V590.363C89.4269 590.715 89.4964 591.064 89.6315 591.389C89.7666 591.714 89.9646 592.01 90.2141 592.258C90.4636 592.506 90.7597 592.703 91.0855 592.837C91.4112 592.971 91.7602 593.039 92.1123 593.037L138.076 592.854Z" fill="#C1D8ED"/>
<path d="M221.698 592.854C222.262 592.851 222.82 592.732 223.336 592.505C223.852 592.277 224.315 591.945 224.697 591.53C225.079 591.115 225.371 590.626 225.556 590.093C225.74 589.56 225.813 588.995 225.769 588.433C225.708 587.653 225.426 586.908 224.956 586.283C224.486 585.659 223.847 585.182 223.114 584.908L198.704 576.733C198.231 576.576 197.73 576.524 197.235 576.579C196.74 576.634 196.262 576.795 195.835 577.051C192.48 579.38 188.465 580.57 184.382 580.447C181.203 580.221 178.15 579.106 175.574 577.229C175.348 577.043 175.073 576.926 174.782 576.89C174.491 576.855 174.197 576.902 173.932 577.028C173.667 577.154 173.444 577.352 173.288 577.6C173.131 577.847 173.049 578.134 173.049 578.427V590.363C173.049 590.715 173.119 591.064 173.254 591.389C173.389 591.714 173.587 592.009 173.837 592.258C174.086 592.506 174.382 592.703 174.708 592.837C175.034 592.971 175.383 593.039 175.735 593.037L221.698 592.854Z" fill="#C1D8ED"/>
<path d="M204.363 208.241C204.363 208.241 214.793 198.853 215.374 195.67C215.956 192.486 207.85 186.816 207.85 186.816C207.85 186.816 209.927 184.446 211.936 181.771C214.256 178.683 216.487 175.187 215.34 174.451C214.234 173.741 211.508 176.368 208.79 179.544C205.295 183.628 201.825 188.624 201.825 188.624C201.825 188.624 203.175 183.101 201.054 182.876C200.182 182.784 199.556 183.675 198.44 187.591C197.172 192.055 194.506 198.82 194.506 198.82L204.363 208.241Z" fill="#E98862"/>
<path d="M183.489 260.312C185.655 260.312 187.772 259.666 189.568 258.456C191.365 257.247 192.76 255.528 193.575 253.521L213.149 205.321L192.976 197.133L187.043 211.722L182.391 188.475L161.038 192.747L172.808 251.56C173.267 253.856 174.454 255.943 176.193 257.51C177.932 259.078 180.13 260.044 182.461 260.263C182.804 260.296 183.148 260.312 183.489 260.312Z" fill="#066DCE"/>
<path d="M218.824 221.234L206.718 219.303C206.242 219.227 205.787 219.051 205.383 218.787C204.98 218.523 204.637 218.177 204.376 217.771C204.116 217.365 203.944 216.909 203.873 216.432C203.801 215.955 203.831 215.469 203.961 215.004L211.577 187.67C211.802 186.86 212.318 186.161 213.025 185.707C213.733 185.253 214.583 185.075 215.413 185.208L227.519 187.139C227.996 187.215 228.45 187.391 228.854 187.655C229.257 187.919 229.6 188.266 229.861 188.672C230.121 189.077 230.293 189.534 230.364 190.01C230.436 190.487 230.406 190.974 230.277 191.438L222.66 218.773C222.434 219.583 221.919 220.281 221.211 220.735C220.504 221.189 219.654 221.367 218.824 221.234Z" fill="#C1D8ED"/>
<path d="M199.329 214.07L206.468 223.756C206.468 223.756 225.658 219.91 227.458 205.127C227.666 203.429 227.486 198.715 225.378 199.347C219.885 200.993 213.049 209.421 208.257 210.542C209.35 208.583 210.685 205.818 209.824 205.312C207.561 203.983 201.475 212.008 199.329 214.07Z" fill="#E98862"/>
<path d="M102.812 183.647C107.377 179.083 115.257 176.137 124.863 176.127C125.583 181.729 159.598 181.749 159.857 176.257C161.155 176.277 162.164 176.297 162.793 176.327C185.88 177.325 185.813 195.929 183.542 216.493L202.537 208.114L211.326 228.037L181.093 241.369C181.073 241.969 181.057 242.568 181.051 243.167C180.66 275.583 189.419 281.694 185.105 291.601C180.921 301.217 98.6997 305.212 97.6011 288.295C96.902 277.53 106.39 268.133 106.39 247.152C106.39 226.17 87.085 199.375 102.812 183.647Z" fill="#066DCE"/>
<path d="M159.857 176.257C159.598 181.749 156.611 189.828 147.393 190.437C135.109 191.246 125.583 181.729 124.863 176.127H124.894C136.988 176.127 152.806 176.147 159.857 176.257Z" fill="#E98862"/>
<path d="M128.618 182.232C128.618 182.232 136.341 178.137 134.616 157.109L150.571 154.151C150.571 154.151 148.773 173.004 156.851 178.989L128.618 182.232Z" fill="#E98862"/>
<g opacity="0.15">
<path d="M153.581 175.048L140.327 164.909L150.737 164.801C151.038 168.364 152.003 171.839 153.581 175.048Z" fill="black"/>
</g>
<path d="M125.563 148.956C126.668 155.336 130.149 161.377 135.778 163.436C142.458 165.882 147.406 166.047 155.109 166.047C165.62 166.047 165.273 155.086 165.568 144.039C165.868 132.949 164.983 121.053 160.828 117.188C152.539 109.474 128.199 114.359 125.237 127.261C123.706 133.936 124.511 142.886 125.563 148.956Z" fill="#E98862"/>
<path d="M150.231 144.041C151.03 144.041 151.678 143.393 151.678 142.594C151.678 141.794 151.03 141.146 150.231 141.146C149.431 141.146 148.783 141.794 148.783 142.594C148.783 143.393 149.431 144.041 150.231 144.041Z" fill="#0F1011"/>
<path d="M161.646 143.105C162.446 143.105 163.094 142.457 163.094 141.658C163.094 140.859 162.446 140.211 161.646 140.211C160.847 140.211 160.199 140.859 160.199 141.658C160.199 142.457 160.847 143.105 161.646 143.105Z" fill="#0F1011"/>
<path d="M164.154 138.574H164.145L160.312 138.526C160.223 138.525 160.135 138.507 160.053 138.472C159.971 138.436 159.896 138.385 159.834 138.321C159.772 138.258 159.722 138.182 159.689 138.099C159.656 138.016 159.64 137.928 159.641 137.838C159.641 137.749 159.659 137.66 159.693 137.577C159.728 137.495 159.779 137.42 159.843 137.357C159.907 137.295 159.983 137.246 160.067 137.213C160.15 137.18 160.24 137.165 160.329 137.167L164.162 137.215C164.338 137.223 164.504 137.298 164.625 137.426C164.746 137.553 164.813 137.723 164.812 137.899C164.811 138.074 164.742 138.243 164.619 138.369C164.497 138.495 164.33 138.569 164.154 138.574Z" fill="#0F1011"/>
<path d="M147.106 139.972C146.939 139.972 146.779 139.91 146.655 139.8C146.531 139.689 146.451 139.537 146.432 139.372C146.412 139.206 146.454 139.04 146.549 138.903C146.644 138.767 146.786 138.67 146.948 138.631L150.727 137.721C150.814 137.699 150.905 137.694 150.994 137.707C151.083 137.721 151.169 137.751 151.246 137.798C151.323 137.844 151.39 137.906 151.443 137.978C151.496 138.051 151.535 138.133 151.556 138.221C151.577 138.309 151.58 138.399 151.566 138.488C151.552 138.577 151.52 138.662 151.473 138.739C151.425 138.815 151.363 138.882 151.29 138.934C151.216 138.986 151.133 139.023 151.045 139.043L147.265 139.953C147.213 139.965 147.159 139.972 147.106 139.972Z" fill="#0F1011"/>
<path d="M137.386 127.374C138.513 148.912 136.406 158.925 135.233 162.676C135.156 162.923 135.024 163.149 134.846 163.338C134.668 163.527 134.45 163.672 134.208 163.764C133.966 163.856 133.706 163.892 133.448 163.869C133.19 163.846 132.941 163.765 132.719 163.631C128.968 161.402 120.441 154.453 117.565 136.284C114.988 120.006 127.11 112.822 135.119 110.426C142.023 108.361 151.38 108.76 158.827 113.504C168.206 119.478 166.817 131.771 166.817 131.771C155.438 132.295 131.125 133.305 131.125 133.305" fill="#0F1011"/>
<path d="M142.702 146.135C142.78 146.944 142.696 147.761 142.455 148.537C142.215 149.313 141.822 150.034 141.3 150.658C140.779 151.281 140.138 151.795 139.416 152.168C138.694 152.542 137.905 152.769 137.095 152.835C136.285 152.901 135.469 152.806 134.696 152.554C133.923 152.302 133.208 151.899 132.592 151.369C131.976 150.838 131.472 150.191 131.108 149.464C130.745 148.737 130.529 147.944 130.475 147.133C130.395 146.328 130.478 145.514 130.719 144.742C130.96 143.969 131.354 143.253 131.877 142.635C132.401 142.018 133.044 141.513 133.767 141.149C134.49 140.785 135.279 140.571 136.087 140.518C140.459 140.38 142.426 142.758 142.702 146.135Z" fill="#E98862"/>
<g opacity="0.15">
<path d="M156.654 150.62C156.534 150.621 156.419 150.578 156.328 150.5C156.237 150.422 156.178 150.314 156.16 150.195C156.142 150.077 156.167 149.956 156.231 149.855C156.295 149.754 156.393 149.679 156.507 149.644L159.45 148.74L157.392 144.156C157.34 144.036 157.337 143.9 157.384 143.777C157.432 143.655 157.525 143.556 157.645 143.502C157.765 143.448 157.901 143.444 158.024 143.489C158.147 143.535 158.247 143.628 158.303 143.747L160.593 148.847C160.622 148.911 160.637 148.981 160.637 149.052C160.637 149.123 160.621 149.193 160.592 149.258C160.563 149.322 160.521 149.38 160.467 149.426C160.414 149.473 160.352 149.508 160.284 149.529L156.801 150.599C156.753 150.613 156.704 150.621 156.654 150.62Z" fill="black"/>
</g>
<path d="M150.901 153.99C150.901 153.99 156.243 154.553 159.989 153.245C159.989 153.245 159.959 156.763 155.732 157.11C151.506 157.456 150.901 153.99 150.901 153.99Z" fill="white"/>
</g>
<defs>
<clipPath id="clip0_791_3503">
<rect width="900" height="595" fill="white"/>
</clipPath>
</defs>
</svg>
