<svg xmlns="http://www.w3.org/2000/svg" width="36.458" height="43.388" viewBox="0 0 36.458 43.388" fill="none">
  <path d="M 30.097 0 L 6.362 0 C 2.848 0 0 2.848 0 6.362 L 0 37.027 C 0 40.54 2.848 43.388 6.362 43.388 L 30.097 43.388 C 33.61 43.388 36.458 40.54 36.458 37.027 L 36.458 6.362 C 36.458 2.848 33.61 0 30.097 0 Z" fill="currentColor" fill-rule="nonzero"/>
  <path d="M 6.362 0.041 L 30.097 0.041 L 30.097 -0.041 L 6.362 -0.041 L 6.362 0.041 Z M 30.097 0.041 C 33.587 0.041 36.417 2.871 36.417 6.362 L 36.5 6.362 C 36.5 2.825 33.633 -0.041 30.097 -0.041 L 30.097 0.041 Z M 36.417 6.362 L 36.417 37.027 L 36.5 37.027 L 36.5 6.362 L 36.417 6.362 Z M 36.417 37.027 C 36.417 40.517 33.587 43.347 30.097 43.347 L 30.097 43.43 C 33.633 43.43 36.5 40.563 36.5 37.027 L 36.417 37.027 Z M 30.097 43.347 L 6.362 43.347 L 6.362 43.43 L 30.097 43.43 L 30.097 43.347 Z M 6.362 43.347 C 2.871 43.347 0.041 40.517 0.041 37.027 L -0.041 37.027 C -0.041 40.563 2.825 43.43 6.362 43.43 L 6.362 43.347 Z M 0.041 37.027 L 0.041 6.362 L -0.041 6.362 L -0.041 37.027 L 0.041 37.027 Z M 0.041 6.362 C 0.041 2.871 2.871 0.041 6.362 0.041 L 6.362 -0.041 C 2.825 -0.041 -0.041 2.825 -0.041 6.362 L 0.041 6.362 Z" fill="currentColor" fill-rule="nonzero"/>
</svg>
