<svg xmlns="http://www.w3.org/2000/svg" width="45.790" height="39.020" viewBox="0 0 45.790 39.020" fill="none">
  <path d="M 44.66 15.4 L 35.16 15.4 L 35.16 13 L 40.68 13 C 41.3 13 41.81 12.5 41.81 11.87 C 41.81 11.24 41.31 10.74 40.68 10.74 L 35.16 10.74 L 35.16 9.36 L 35.14 9.36 L 35.14 4.99 C 35.14 3.14 35.09 0.52 38.07 0 L 37.64 0 L 14.15 0 C 9.65 0 6.01 2.94 6.01 6.58 L 6.01 11.19 L 6.01 29.19 L 0 29.19 L 0 33.24 C 0 36.43 2.87 39.02 6.4 39.02 L 30.71 39.02 C 33.14 39.02 35.12 36.67 35.12 33.77 L 35.12 29.18 L 35.16 29.18 L 35.16 17.63 L 44.66 17.63 C 45.28 17.63 45.79 17.13 45.79 16.5 C 45.79 15.87 45.29 15.37 44.66 15.37 L 44.66 15.4 Z" fill="currentColor" fill-rule="nonzero"/>
</svg>
