<svg xmlns="http://www.w3.org/2000/svg" width="15.195" height="15.195" viewBox="0 0 15.195 15.195" fill="none">
  <path d="M 8.233 0.272 L 8.582 0.623 C 9.012 1.053 9.643 1.222 10.233 1.063 L 10.713 0.942 C 11.193 0.822 11.682 1.103 11.812 1.583 L 11.943 2.053 C 12.102 2.642 12.562 3.102 13.152 3.263 L 13.623 3.393 C 14.102 3.523 14.382 4.012 14.262 4.492 L 14.143 4.972 C 13.993 5.563 14.152 6.193 14.582 6.622 L 14.932 6.972 C 15.282 7.322 15.282 7.892 14.932 8.242 L 14.582 8.592 C 14.152 9.023 13.983 9.652 14.143 10.242 L 14.262 10.722 C 14.382 11.202 14.102 11.693 13.623 11.823 L 13.152 11.952 C 13.002 11.992 12.852 12.052 12.722 12.132 C 12.342 12.362 12.063 12.722 11.943 13.153 L 11.812 13.622 C 11.682 14.102 11.193 14.382 10.713 14.262 L 10.233 14.142 C 9.643 13.993 9.012 14.152 8.582 14.582 L 8.233 14.932 C 7.883 15.283 7.313 15.283 6.963 14.932 L 6.612 14.582 C 6.182 14.152 5.553 13.983 4.963 14.142 L 4.483 14.262 C 4.003 14.382 3.513 14.102 3.383 13.622 L 3.252 13.153 C 3.092 12.563 2.633 12.102 2.043 11.943 L 1.572 11.813 C 1.092 11.682 0.813 11.192 0.933 10.712 L 1.053 10.233 C 1.203 9.642 1.043 9.012 0.613 8.582 L 0.262 8.233 C -0.088 7.883 -0.088 7.312 0.262 6.962 L 0.613 6.612 C 1.043 6.182 1.213 5.552 1.053 4.962 L 0.933 4.482 C 0.813 4.002 1.092 3.512 1.572 3.382 L 2.043 3.253 C 2.633 3.092 3.092 2.632 3.252 2.043 L 3.383 1.572 C 3.513 1.092 4.003 0.813 4.483 0.933 L 4.963 1.053 C 5.553 1.202 6.182 1.043 6.612 0.613 L 6.963 0.262 C 7.313 -0.088 7.883 -0.088 8.233 0.262 L 8.233 0.272 Z" fill="currentColor" fill-rule="nonzero"/>
</svg>
