<svg width="900" height="595" viewBox="0 0 900 595" fill="none" xmlns="http://www.w3.org/2000/svg">
<path d="M837.91 595C846.295 595 854.593 593.301 862.304 590.005C870.015 586.708 876.978 581.883 882.775 575.821C888.571 569.758 893.08 562.584 896.03 554.73C898.98 546.876 900.309 538.506 899.938 530.124C897.892 483.895 874.27 418.619 781.148 353.384C667.59 273.833 718.808 44.7915 477.527 60.5985C236.246 76.4055 259.251 245.666 111.304 323.247C17.129 372.632 0.00629541 469.259 0 532.972C0.0154378 549.435 6.56495 565.218 18.2083 576.85C29.8516 588.482 45.6353 595.011 62.0885 595H837.91Z" fill="#F3F5FD"/>
<path d="M137.772 240.605C137.651 228.897 143.849 220.067 150.12 216.084C156.306 212.153 174.133 208.732 181.488 223C186.288 232.311 184.393 235.64 185.753 250.552C187.113 265.465 192.337 267.03 197.636 285.106C201.791 299.284 178.513 306.811 158.359 306.161C138.205 305.51 125.426 301.043 124.256 288.218C122.576 269.81 138.009 263.548 137.772 240.605Z" fill="#0F1011"/>
<path d="M172.003 268.637L149.78 271.4C149.78 271.4 153.369 269.455 154.329 261.015C154.62 259.692 154.911 258.18 155.194 256.511C155.47 254.897 155.729 253.125 155.942 251.235L166.872 249.102C166.872 249.102 165.597 263.976 172.003 268.637Z" fill="#E98862"/>
<g opacity="0.15">
<path d="M169.398 265.558L158.88 257.657L167.083 257.499C167.346 260.306 168.131 263.04 169.398 265.558Z" fill="black"/>
</g>
<path d="M147.134 245.186C148.05 250.208 150.837 254.95 155.286 256.53C160.137 258.405 165.373 259.064 170.537 258.45C184.289 257.19 181.28 225.908 174.69 219.886C168.101 213.864 148.958 217.891 146.721 228.085C145.562 233.354 146.261 240.406 147.134 245.186Z" fill="#E98862"/>
<path d="M166.775 241.131C167.405 241.131 167.915 240.62 167.915 239.99C167.915 239.359 167.405 238.849 166.775 238.849C166.145 238.849 165.635 239.359 165.635 239.99C165.635 240.62 166.145 241.131 166.775 241.131Z" fill="#0F1011"/>
<path d="M175.763 240.309C176.393 240.309 176.903 239.798 176.903 239.168C176.903 238.538 176.393 238.027 175.763 238.027C175.133 238.027 174.623 238.538 174.623 239.168C174.623 239.798 175.133 240.309 175.763 240.309Z" fill="#0F1011"/>
<path d="M177.712 236.72L174.691 236.709C174.552 236.704 174.421 236.645 174.325 236.545C174.229 236.445 174.175 236.312 174.175 236.174C174.175 236.035 174.229 235.902 174.325 235.802C174.421 235.702 174.552 235.643 174.691 235.638L177.712 235.647C177.854 235.647 177.99 235.704 178.091 235.804C178.191 235.905 178.248 236.041 178.248 236.183C178.248 236.326 178.191 236.462 178.091 236.563C177.99 236.663 177.854 236.72 177.712 236.72Z" fill="#0F1011"/>
<path d="M164.29 237.945C164.159 237.945 164.032 237.897 163.934 237.811C163.836 237.724 163.773 237.604 163.757 237.474C163.741 237.344 163.773 237.213 163.847 237.105C163.922 236.997 164.033 236.92 164.16 236.888L167.131 236.144C167.268 236.112 167.412 236.135 167.533 236.208C167.653 236.282 167.739 236.399 167.773 236.536C167.808 236.672 167.787 236.817 167.715 236.938C167.644 237.06 167.528 237.148 167.392 237.184L164.42 237.929C164.378 237.939 164.334 237.945 164.29 237.945Z" fill="#0F1011"/>
<path d="M167.385 248.97C167.385 248.97 171.597 249.375 174.538 248.316C174.538 248.316 174.538 251.09 171.212 251.394C167.887 251.698 167.385 248.97 167.385 248.97Z" fill="white"/>
<path d="M156.548 236.204C156.493 234.842 156.398 233.464 156.272 232.07L153.636 236.661C153.636 236.661 154.754 236.504 156.548 236.204C156.736 241.223 156.534 246.249 155.942 251.236C155.729 253.126 155.47 254.897 155.194 256.511C154.911 258.181 154.62 259.692 154.329 261.015C153.518 264.818 143.036 250.614 141.415 236.842C139.889 223.937 149.34 216.22 155.753 214.723C180.132 209.039 181.824 226.826 181.824 226.826C180.573 231.652 163.504 235.023 156.548 236.204Z" fill="#0F1011"/>
<path d="M156.548 236.204C154.754 236.503 153.636 236.661 153.636 236.661L156.272 232.07C156.398 233.464 156.493 234.842 156.548 236.204Z" fill="#0F1011"/>
<path d="M161.062 244.959C161.173 246.233 160.775 247.5 159.955 248.481C159.134 249.462 157.959 250.078 156.686 250.195C155.413 250.311 154.146 249.918 153.161 249.101C152.177 248.285 151.556 247.112 151.434 245.838C151.366 245.204 151.425 244.562 151.61 243.951C151.794 243.339 152.1 242.772 152.508 242.281C152.917 241.791 153.42 241.387 153.987 241.095C154.555 240.803 155.175 240.629 155.811 240.582C159.253 240.44 160.82 242.299 161.062 244.959Z" fill="#E98862"/>
<g opacity="0.15">
<path d="M171.89 246.271C171.796 246.272 171.705 246.238 171.634 246.177C171.562 246.116 171.515 246.031 171.5 245.938C171.486 245.845 171.505 245.75 171.555 245.67C171.604 245.59 171.681 245.53 171.771 245.502L174.084 244.768L172.431 241.169C172.408 241.122 172.394 241.07 172.391 241.018C172.388 240.965 172.395 240.913 172.413 240.863C172.43 240.813 172.458 240.768 172.493 240.729C172.528 240.69 172.571 240.659 172.619 240.637C172.667 240.615 172.719 240.602 172.771 240.601C172.824 240.599 172.876 240.608 172.925 240.627C172.974 240.646 173.019 240.675 173.057 240.711C173.095 240.748 173.125 240.791 173.146 240.84L174.987 244.845C175.01 244.895 175.023 244.95 175.023 245.006C175.024 245.061 175.012 245.116 174.99 245.167C174.968 245.218 174.935 245.264 174.894 245.301C174.853 245.339 174.804 245.367 174.751 245.384L172.014 246.25C171.974 246.264 171.933 246.271 171.89 246.271Z" fill="black"/>
</g>
<path d="M637.43 0H272.83V473.261H637.43V0Z" fill="#DEE8F5"/>
<path d="M603.825 110.084H306.435V121.352H603.825V110.084Z" fill="white"/>
<path d="M603.825 277.199H306.435V288.467H603.825V277.199Z" fill="white"/>
<path d="M603.825 143.507H306.435V154.775H603.825V143.507Z" fill="white"/>
<path d="M603.825 176.931H306.435V188.198H603.825V176.931Z" fill="white"/>
<path d="M603.825 210.353H306.435V221.62H603.825V210.353Z" fill="white"/>
<path d="M603.825 243.775H306.435V255.043H603.825V243.775Z" fill="white"/>
<path d="M564.478 410.891H345.781V422.158H564.478V410.891Z" fill="white"/>
<path d="M603.825 310.622H306.435V321.89H603.825V310.622Z" fill="white"/>
<path d="M603.825 344.045H306.435V355.313H603.825V344.045Z" fill="white"/>
<path d="M603.825 377.469H306.435V388.736H603.825V377.469Z" fill="white"/>
<path d="M603.825 51.1025H306.435V81.8284H603.825V51.1025Z" fill="#C1D8ED"/>
<path d="M261.75 334.55C264.033 335.085 271.949 335.668 272.04 337.736C272.095 338.976 266.085 339.017 266.085 339.017" fill="#E98862"/>
<path d="M284.704 347.778C285.478 344.469 278.455 339.994 269.017 337.782C259.579 335.57 251.3 336.459 250.526 339.767C249.752 343.075 256.775 347.55 266.213 349.762C275.651 351.974 283.93 351.086 284.704 347.778Z" fill="#E98862"/>
<path d="M112.564 378.156C112.564 380.503 113.803 388.348 111.811 388.907C110.617 389.244 109.207 383.396 109.207 383.396" fill="#E98862"/>
<path d="M103.166 376.921C103.166 376.921 96.4307 384.183 101.009 392.798C101.644 393.992 107.833 394.693 107.833 393.23C107.833 387.084 108.31 382.271 112.353 383.743V373.851" fill="#E98862"/>
<path d="M407.66 271.038C407.66 271.038 401.575 267.81 402.934 251.231L390.361 248.897C390.361 248.897 391.774 263.763 385.414 268.482L407.66 271.038Z" fill="#E98862"/>
<path d="M410.067 244.801C409.197 249.831 406.453 254.595 402.019 256.219C396.755 258.147 392.855 258.278 386.786 258.278C378.503 258.278 378.777 249.635 378.545 240.925C378.309 232.18 379.006 222.8 382.28 219.753C388.811 213.671 407.991 217.523 410.324 227.696C411.53 232.96 410.896 240.013 410.067 244.801Z" fill="#E98862"/>
<path d="M372.803 216.133C372.803 211.974 377.976 205.159 391.777 214.558L391.791 214.567C395.376 214.466 398.958 214.858 402.437 215.731C408.748 217.621 416.661 222.915 414.634 235.752C413.425 243.397 411.266 248.392 408.978 252.047C407.56 254.282 405.75 256.244 403.637 257.838C400.277 259.885 386.352 260.673 381.446 257.539C377.858 255.247 377.259 245.674 378.613 245.674C379.549 245.674 379.626 245.633 380.68 245.633C382.605 245.633 382.797 234.163 383.16 229.089C382.864 229.048 382.566 229.028 382.267 229.027C373.209 229.023 372.803 220.008 372.803 216.133Z" fill="#0F1011"/>
<path d="M384.775 245.88C386.008 245.912 387.206 245.47 388.124 244.646C389.041 243.821 389.608 242.677 389.709 241.447C389.773 240.816 389.709 240.178 389.522 239.572C389.335 238.965 389.029 238.402 388.621 237.917C388.213 237.431 387.712 237.031 387.148 236.743C386.583 236.454 385.966 236.281 385.334 236.234C385.224 239.667 385.043 243.282 384.775 245.88Z" fill="#E98862"/>
<path d="M353.612 586.482C351.87 571.822 351.87 570.314 351.87 569.818H368.395C368.395 569.768 368.395 569.704 368.395 569.625C368.454 570.849 369.287 578.314 370.026 584.529L353.612 586.482Z" fill="#E98862"/>
<path d="M419.458 588.457C419.458 588.457 419.403 571.334 419.403 569.817H435.929C435.929 571.329 435.984 588.404 435.984 588.404L419.458 588.457Z" fill="#E98862"/>
<path d="M433.585 480.964C431.99 456.257 429.21 414.81 427.878 390.488C427.343 380.706 425.772 351.354 425.772 351.354L366.596 352.275C359.578 389.489 355.076 437.557 349.387 475.039C348.988 509.771 348.877 546.117 347.52 580.765L376.631 581.261C376.54 547.415 377.376 512.031 378.374 478.129C382.943 451.556 389.348 422.066 394.495 395.784C399.148 446.989 406.088 530.878 411.234 582.775L440.247 580.322L433.585 480.964Z" fill="#262626"/>
<path d="M399.37 594.853C398.925 594.851 398.486 594.757 398.08 594.578C397.673 594.398 397.308 594.137 397.007 593.81C396.706 593.483 396.475 593.097 396.33 592.677C396.185 592.256 396.128 591.811 396.162 591.367C396.21 590.753 396.432 590.165 396.803 589.672C397.173 589.18 397.677 588.804 398.254 588.588L417.489 582.142C417.861 582.019 418.256 581.977 418.646 582.021C419.036 582.064 419.412 582.191 419.749 582.393C422.393 584.23 425.556 585.168 428.773 585.071C431.279 584.892 433.684 584.013 435.715 582.534C435.893 582.387 436.109 582.294 436.338 582.266C436.568 582.238 436.8 582.276 437.008 582.375C437.217 582.474 437.393 582.63 437.516 582.826C437.639 583.021 437.704 583.248 437.703 583.478V592.889C437.703 593.167 437.648 593.442 437.542 593.698C437.435 593.955 437.279 594.188 437.083 594.384C436.886 594.58 436.653 594.735 436.396 594.84C436.14 594.946 435.865 594.999 435.587 594.998L399.37 594.853Z" fill="#C1D8ED"/>
<path d="M333.478 594.853C333.033 594.851 332.594 594.757 332.188 594.578C331.781 594.398 331.416 594.137 331.115 593.81C330.814 593.483 330.583 593.097 330.438 592.677C330.292 592.256 330.235 591.811 330.269 591.367C330.317 590.753 330.54 590.165 330.911 589.672C331.281 589.18 331.785 588.804 332.362 588.588L351.597 582.142C351.969 582.019 352.364 581.977 352.754 582.021C353.144 582.064 353.52 582.191 353.857 582.393C356.501 584.23 359.664 585.168 362.881 585.071C365.387 584.892 367.792 584.013 369.822 582.534C370 582.387 370.217 582.294 370.446 582.266C370.675 582.238 370.907 582.276 371.116 582.375C371.324 582.474 371.5 582.63 371.623 582.826C371.746 583.021 371.811 583.248 371.81 583.478V592.889C371.811 593.167 371.756 593.442 371.65 593.698C371.543 593.955 371.387 594.188 371.191 594.384C370.994 594.579 370.761 594.735 370.504 594.84C370.248 594.946 369.973 594.999 369.695 594.998L333.478 594.853Z" fill="#C1D8ED"/>
<path d="M443.392 379.726C443.392 382.072 442.154 389.916 444.145 390.477C445.339 390.813 446.749 384.965 446.749 384.965" fill="#E98862"/>
<path d="M452.797 378.494C452.797 378.494 459.3 394.331 451.882 403.43C451.693 403.661 451.439 403.83 451.152 403.915C450.865 403.999 450.56 403.995 450.276 403.903C449.991 403.811 449.741 403.636 449.558 403.4C449.375 403.163 449.268 402.877 449.249 402.579C448.889 396.444 447.653 383.843 443.61 385.315V375.423" fill="#E98862"/>
<path d="M290.297 335.785C288.009 336.302 280.089 337.607 279.981 339.675C279.916 340.914 290.874 341.003 290.874 341.003" fill="#E98862"/>
<path d="M301.911 341.783C302.659 345.098 295.599 348.728 286.143 350.864C276.688 352.999 268.416 352.832 267.669 349.516C266.921 346.201 273.981 341.784 283.436 339.649C292.892 337.513 301.164 338.472 301.911 341.783Z" fill="#E98862"/>
<path d="M449.177 329.774C449.091 329.193 448.945 328.622 448.743 328.071L430.681 278.926L430.572 278.966C429.786 276.546 428.429 274.352 426.618 272.567C423.023 268.969 416.798 266.641 409.214 266.641C397.926 266.641 382.51 266.665 379.35 266.798C370.064 267.197 365.531 271.221 363.56 277.222L336.047 321.632L288.604 335.202L293.146 351.101L343.659 336.652C345.634 336.087 347.328 334.806 348.411 333.059L364.094 307.743C364.551 311.768 364.925 315.745 364.969 319.489C365.271 345.055 358.372 349.87 361.772 357.686C365.072 365.265 429.859 368.418 430.725 355.074C431.275 346.588 423.8 339.177 423.8 322.637C423.862 319.494 424.277 316.367 425.038 313.317L432.332 333.164L439.493 381.436L456.466 378.917L449.177 329.774Z" fill="#066DCE"/>
<path d="M202.304 586.481L185.895 584.528C186.633 578.313 187.469 570.848 187.525 569.624C187.525 569.703 187.525 569.767 187.525 569.817H204.051C204.05 570.313 204.05 571.821 202.304 586.481Z" fill="#E98862"/>
<path d="M136.458 588.457L119.932 588.404C119.932 588.404 119.987 571.329 119.987 569.817H136.513C136.513 571.334 136.458 588.457 136.458 588.457Z" fill="#E98862"/>
<path d="M208.401 580.763C207.033 546.11 206.951 509.715 206.523 474.97C200.839 437.496 197.851 396.393 190.836 359.184L190.626 359.246L190.011 355.049L130.144 351.353L128.038 390.486C125.025 442.912 119.198 527.191 115.674 580.32L144.687 582.772C149.868 530.521 157.53 447.281 162.213 395.782C167.351 422.023 172.984 451.574 177.546 478.126C178.544 512.046 179.38 547.394 179.289 581.258L208.401 580.763Z" fill="#262626"/>
<path d="M156.547 594.853C156.992 594.851 157.431 594.757 157.837 594.578C158.244 594.398 158.609 594.137 158.91 593.81C159.211 593.483 159.441 593.097 159.587 592.677C159.732 592.256 159.789 591.811 159.755 591.367C159.707 590.753 159.485 590.165 159.114 589.672C158.743 589.18 158.24 588.803 157.662 588.588L138.428 582.142C138.055 582.019 137.661 581.977 137.27 582.021C136.88 582.064 136.504 582.191 136.167 582.393C133.523 584.229 130.36 585.168 127.144 585.071C124.638 584.892 122.233 584.013 120.202 582.534C120.024 582.387 119.807 582.294 119.578 582.266C119.349 582.238 119.117 582.276 118.908 582.375C118.7 582.474 118.524 582.63 118.401 582.826C118.278 583.021 118.213 583.248 118.214 583.478V592.89C118.214 593.167 118.268 593.442 118.375 593.699C118.481 593.955 118.637 594.188 118.834 594.384C119.03 594.58 119.264 594.735 119.52 594.84C119.777 594.946 120.052 594.999 120.33 594.998L156.547 594.853Z" fill="#C1D8ED"/>
<path d="M222.439 594.853C222.883 594.851 223.323 594.757 223.729 594.578C224.136 594.398 224.501 594.137 224.802 593.81C225.103 593.483 225.333 593.097 225.478 592.677C225.624 592.256 225.681 591.811 225.646 591.367C225.599 590.753 225.377 590.165 225.006 589.672C224.635 589.18 224.132 588.804 223.555 588.588L204.32 582.142C203.947 582.019 203.553 581.977 203.163 582.021C202.772 582.064 202.396 582.191 202.06 582.393C199.416 584.23 196.253 585.168 193.036 585.071C190.53 584.892 188.125 584.013 186.095 582.534C185.916 582.387 185.7 582.294 185.471 582.266C185.242 582.238 185.009 582.276 184.801 582.375C184.592 582.474 184.416 582.63 184.293 582.826C184.17 583.021 184.105 583.248 184.105 583.478V592.889C184.105 593.167 184.16 593.442 184.267 593.698C184.373 593.955 184.529 594.188 184.726 594.384C184.922 594.58 185.156 594.735 185.412 594.84C185.669 594.946 185.944 594.999 186.222 594.998L222.439 594.853Z" fill="#C1D8ED"/>
<path d="M220.67 317.102L191.366 273.284L191.193 273.4C188.675 269.557 184.347 267.101 177.206 266.796C176.711 266.773 175.917 266.757 174.893 266.741C174.689 271.072 147.886 271.056 147.319 266.639C139.749 266.647 133.54 268.969 129.944 272.568C128.271 274.224 126.989 276.233 126.188 278.447L126.093 278.404L107.072 321.257C106.741 322.002 106.518 322.79 106.41 323.598L99.0198 378.58L116.024 380.868L123.251 327.103L130.746 310.217C131.948 314.254 132.625 318.429 132.761 322.639C132.761 339.182 125.285 346.591 125.836 355.079C126.701 368.418 191.49 365.268 194.786 357.686C198.186 349.875 191.284 345.056 191.591 319.497C191.715 315.011 192.071 310.535 192.658 306.087L207.981 329C209.002 330.527 210.484 331.686 212.211 332.307L260.18 349.551L265.981 333.387L220.67 317.102Z" fill="#066DCE"/>
<path d="M174.893 266.739C174.688 271.07 172.335 277.44 165.072 277.92C155.393 278.558 147.885 271.054 147.319 266.637H147.342C156.872 266.639 169.337 266.655 174.893 266.739Z" fill="#E98862"/>
<path d="M145.377 400.733H124.098V395.336C124.096 393.411 123.331 391.565 121.97 390.204C120.61 388.842 118.765 388.077 116.841 388.074H93.4119C91.4878 388.077 89.6432 388.842 88.2827 390.204C86.9222 391.565 86.157 393.411 86.1549 395.336V400.733H64.8788C62.8197 400.733 60.8449 401.552 59.389 403.009C57.933 404.465 57.115 406.441 57.115 408.502V459.653C57.115 461.713 57.933 463.689 59.389 465.146C60.8449 466.603 62.8197 467.421 64.8788 467.421H145.381C147.44 467.421 149.415 466.603 150.871 465.146C152.327 463.689 153.145 461.713 153.145 459.653V408.502C153.145 407.481 152.944 406.471 152.554 405.528C152.163 404.585 151.591 403.729 150.87 403.007C150.148 402.286 149.292 401.714 148.35 401.323C147.407 400.933 146.397 400.733 145.377 400.733ZM90.8765 395.336C90.8769 394.664 91.1441 394.018 91.6195 393.543C92.0949 393.067 92.7395 392.799 93.4119 392.799H116.844C117.517 392.799 118.161 393.067 118.637 393.543C119.112 394.018 119.379 394.664 119.38 395.336V400.733H90.8765V395.336Z" fill="#1C7C35"/>
<path d="M802.638 374.987C799.955 374.108 797.201 375.096 794.565 377.099C798.037 368.33 799.469 360.406 793.535 360.053C789.383 359.802 786.204 362.991 783.787 367.521C782.938 359.554 780.745 353.613 775.834 355.582C770.443 357.746 769.623 365.158 770.44 372.912C768.063 368.951 765.507 366.743 763.186 369.065C756.255 375.999 773.266 395.541 773.266 395.541H777.491L779.902 398.16C779.412 399.192 779.146 399.807 779.146 399.807L782.208 406.043C782.208 406.043 813.777 378.634 802.638 374.987Z" fill="#8DDBE0"/>
<path d="M795.067 420.008H771.157L767.156 392.08H799.069L795.067 420.008Z" fill="#C1D8ED"/>
<path d="M749.438 580.943H736.693V595.001H749.438V580.943Z" fill="#C1D8ED"/>
<path d="M870.692 580.943H857.947V595.001H870.692V580.943Z" fill="#C1D8ED"/>
<path d="M881.663 420.663H828.19V582.573H881.663V420.663Z" fill="#C1D8ED"/>
<path d="M736.53 424.249H681.771V580.943H736.53V424.249Z" fill="#C1D8ED"/>
<path d="M831.792 582.573H678.173V420.663H831.796L831.792 582.573ZM685.373 575.365H824.589V427.871H685.373V575.365Z" fill="#DEE8F5"/>
<path d="M831.792 582.573H678.173V493.307H831.796L831.792 582.573ZM685.373 575.365H824.589V500.514H685.373V575.365Z" fill="#DEE8F5"/>
<path d="M747.811 440.714V451.024V493.247H813.07V451.024V440.714H747.811Z" fill="#C1D8ED"/>
<path d="M791.68 451.024H726.421V493.247H791.68V451.024Z" fill="#DEE8F5"/>
<path d="M791.68 451.024H726.421V454.19H791.68V451.024Z" fill="#C1D8ED"/>
<path d="M726.421 451.024H791.68V440.714H726.421V451.024Z" fill="#DEE8F5"/>
<path d="M766.283 459.504H751.819C750.988 459.504 750.315 460.178 750.315 461.009V464.339C750.315 465.17 750.988 465.844 751.819 465.844H766.283C767.114 465.844 767.787 465.17 767.787 464.339V461.009C767.787 460.178 767.114 459.504 766.283 459.504Z" fill="white"/>
<path d="M700.727 580.943H687.982V595.001H700.727V580.943Z" fill="#DEE8F5"/>
<path d="M821.98 580.943H809.235V595.001H821.98V580.943Z" fill="#DEE8F5"/>
<path d="M807.482 559.29H736.534V575.365H807.482V559.29Z" fill="#C1D8ED"/>
<path d="M808.701 527.177H737.753V543.252H808.701V527.177Z" fill="#C1D8ED"/>
<path d="M783.272 559.29H708.244V575.365H783.272V559.29Z" fill="#DEE8F5"/>
<g opacity="0.62">
<path d="M777.148 559.29H773.506V575.365H777.148V559.29Z" fill="#C1D8ED"/>
</g>
<g opacity="0.62">
<path d="M769.864 559.29H766.222V575.365H769.864V559.29Z" fill="#C1D8ED"/>
</g>
<path d="M716.846 572.511C719.708 572.511 722.027 570.19 722.027 567.327C722.027 564.464 719.708 562.143 716.846 562.143C713.985 562.143 711.665 564.464 711.665 567.327C711.665 570.19 713.985 572.511 716.846 572.511Z" fill="#F3F5FD"/>
<path d="M784.491 527.177H709.463V543.252H784.491V527.177Z" fill="#DEE8F5"/>
<path d="M766.651 530.797H714.295V539.631H766.651V530.797Z" fill="#F3F5FD"/>
<g opacity="0.62">
<path d="M778.366 527.177H771.475V543.252H778.366V527.177Z" fill="#C1D8ED"/>
</g>
<path d="M742.321 559.309H813.269V543.234H742.321V559.309Z" fill="#C1D8ED"/>
<path d="M714.031 559.309H789.059V543.234H714.031V559.309Z" fill="#F3F5FD"/>
<path d="M720.156 559.309H723.798V543.234H720.156V559.309Z" fill="#DEE8F5"/>
<path d="M727.439 559.309H731.081V543.234H727.439V559.309Z" fill="#DEE8F5"/>
<path d="M780.457 556.454C783.319 556.454 785.638 554.133 785.638 551.27C785.638 548.407 783.319 546.086 780.457 546.086C777.596 546.086 775.276 548.407 775.276 551.27C775.276 554.133 777.596 556.454 780.457 556.454Z" fill="#DEE8F5"/>
<path d="M769.813 547.33H736.693V555.21H769.813V547.33Z" fill="#DEE8F5"/>
</svg>
