<svg width="900" height="595" viewBox="0 0 900 595" fill="none" xmlns="http://www.w3.org/2000/svg">
<path d="M251.153 436.331C254.585 436.331 257.876 434.967 260.303 432.54C262.73 430.112 264.094 426.82 264.094 423.387C264.018 375.29 276.013 327.942 298.979 285.683C316.339 253.95 333.974 236.525 334.154 236.353C336.553 233.946 337.91 230.692 337.931 227.294C337.952 223.895 336.636 220.624 334.267 218.188C331.898 215.752 328.666 214.345 325.269 214.272C321.871 214.198 318.581 215.464 316.109 217.796C315.299 218.585 296.009 237.487 276.81 272.289C251.414 318.595 238.137 370.572 238.212 423.387C238.212 426.82 239.576 430.112 242.002 432.539C244.429 434.967 247.72 436.33 251.153 436.331Z" fill="#DEE8F5"/>
<path d="M422.591 307.883C429.548 293.883 411.131 267.541 381.444 249.044C351.757 230.547 322.047 226.902 315.085 240.901" fill="#8DDBE0"/>
<path d="M441.879 231.732C441.285 215.723 413.283 204.027 379.335 205.607C345.388 207.187 318.351 221.444 318.946 237.453" fill="#8DDBE0"/>
<path d="M195.19 237.113C197.637 221.67 227.919 210.896 262.829 213.047C297.739 215.198 324.057 229.462 321.61 244.905" fill="#8DDBE0"/>
<path d="M223.633 163.887C233.401 151.191 262.994 157.905 289.731 178.883C316.468 199.861 330.229 227.159 320.461 239.856" fill="#8DDBE0"/>
<path d="M303.32 120.159C319.208 118.13 335.324 143.846 339.315 177.6C343.306 211.354 333.663 240.363 317.774 242.393" fill="#8DDBE0"/>
<path d="M281.777 240.735C281.777 247.862 287.553 250.356 294.679 250.356C298.062 250.298 301.286 248.912 303.658 246.499C306.029 244.086 307.358 240.837 307.358 237.453C307.358 234.07 306.029 230.821 303.658 228.408C301.286 225.994 298.062 224.609 294.679 224.551C287.553 224.548 281.777 233.609 281.777 240.735Z" fill="#C1D8ED"/>
<path d="M327.985 262.227C335.111 262.227 340.887 256.45 340.887 249.324C340.887 242.197 335.111 236.42 327.985 236.42C320.86 236.42 315.083 242.197 315.083 249.324C315.083 256.45 320.86 262.227 327.985 262.227Z" fill="#C1D8ED"/>
<path d="M313.526 249.323C320.652 249.323 326.428 243.546 326.428 236.419C326.428 229.293 320.652 223.516 313.526 223.516C306.401 223.516 300.625 229.293 300.625 236.419C300.625 243.546 306.401 249.323 313.526 249.323Z" fill="#C1D8ED"/>
<path d="M200.298 390.076C196.866 390.076 193.574 388.712 191.147 386.285C188.72 383.858 187.357 380.565 187.357 377.133C187.432 329.035 175.438 281.687 152.472 239.429C135.111 207.695 117.477 190.271 117.297 190.099C114.883 187.696 113.514 184.437 113.487 181.031C113.459 177.625 114.776 174.345 117.15 171.903C119.525 169.461 122.766 168.053 126.171 167.986C129.576 167.918 132.871 169.196 135.34 171.542C136.151 172.33 155.44 191.234 174.64 226.035C200.034 272.343 213.31 324.32 213.232 377.136C213.231 380.567 211.868 383.857 209.443 386.283C207.018 388.71 203.729 390.074 200.298 390.076Z" fill="#DEE8F5"/>
<path d="M28.862 261.628C21.9043 247.629 40.3219 221.286 70.0089 202.79C99.696 184.294 129.406 180.648 136.369 194.646" fill="#8DDBE0"/>
<path d="M9.57568 185.477C10.17 169.469 38.1718 157.773 72.1194 159.352C106.067 160.931 133.104 175.19 132.509 191.198" fill="#8DDBE0"/>
<path d="M256.261 190.858C253.815 175.414 223.532 164.641 188.617 166.792C153.702 168.944 127.39 183.208 129.836 198.651" fill="#8DDBE0"/>
<path d="M227.818 117.633C218.05 104.937 188.457 111.651 161.72 132.629C134.983 153.608 121.222 180.906 130.99 193.601" fill="#8DDBE0"/>
<path d="M148.132 73.9053C132.244 71.8757 116.128 97.5921 112.137 131.346C108.146 165.1 117.79 194.109 133.678 196.139" fill="#8DDBE0"/>
<path d="M156.772 207.384C163.897 207.384 169.673 201.607 169.673 194.481C169.673 187.354 163.897 181.577 156.772 181.577C149.646 181.577 143.87 187.354 143.87 194.481C143.87 201.607 149.646 207.384 156.772 207.384Z" fill="#C1D8ED"/>
<path d="M123.466 215.973C130.592 215.973 136.368 210.196 136.368 203.07C136.368 195.943 130.592 190.166 123.466 190.166C116.341 190.166 110.564 195.943 110.564 203.07C110.564 210.196 116.341 215.973 123.466 215.973Z" fill="#C1D8ED"/>
<path d="M137.925 203.07C145.05 203.07 150.826 197.293 150.826 190.166C150.826 183.04 145.05 177.263 137.925 177.263C130.799 177.263 125.023 183.04 125.023 190.166C125.023 197.293 130.799 203.07 137.925 203.07Z" fill="#C1D8ED"/>
<path d="M218 530.793C311.888 530.793 388 496.543 388 454.293C388 412.043 311.888 377.793 218 377.793C124.112 377.793 48 412.043 48 454.293C48 496.543 124.112 530.793 218 530.793Z" fill="#DEE8F5"/>
<path d="M807.769 495.252C803.187 495.252 798.793 493.431 795.553 490.191C792.312 486.95 790.492 482.555 790.492 477.972C790.594 413.76 774.582 350.549 743.924 294.131C720.747 251.766 697.204 228.503 696.968 228.274C693.714 225.072 691.859 220.712 691.809 216.147C691.758 211.582 693.516 207.183 696.698 203.91C699.88 200.636 704.228 198.756 708.792 198.678C713.356 198.601 717.765 200.333 721.056 203.496C722.139 204.548 747.885 229.785 773.522 276.244C807.426 338.067 825.15 407.46 825.046 477.972C825.046 482.555 823.226 486.95 819.986 490.191C816.746 493.431 812.351 495.252 807.769 495.252Z" fill="#DEE8F5"/>
<path d="M813.465 439.897C788.11 439.897 788.11 451.993 762.757 451.993C737.403 451.993 737.403 439.897 712.049 439.897C686.695 439.897 686.695 451.993 661.341 451.993C635.987 451.993 635.987 439.897 610.633 439.897C585.278 439.897 585.281 451.993 559.924 451.993C534.568 451.993 534.572 439.897 509.217 439.897C483.861 439.897 483.863 451.993 458.508 451.993C433.154 451.993 433.156 439.897 407.805 439.897C382.453 439.897 382.452 451.993 357.097 451.993C331.742 451.993 331.744 439.897 306.389 439.897C281.033 439.897 281.037 451.993 255.687 451.993C230.336 451.993 230.336 439.897 204.986 439.897C179.635 439.897 179.636 451.993 154.286 451.993C128.937 451.993 128.935 439.897 103.584 439.897C78.2337 439.897 78.2346 451.993 52.8849 451.993C27.5352 451.993 26.0192 435.412 1.08759 439.997L0 594.586H358.704" fill="#9EBCEA"/>
<path d="M900 428.665V595H267.21C267.21 595 374.028 428.665 900 428.665Z" fill="#DEE8F5"/>
<path d="M439.84 316.808C439.84 316.808 444.84 314.156 443.724 300.538L454.055 298.622C454.055 298.622 452.894 310.832 458.12 314.708L439.84 316.808Z" fill="#E98862"/>
<g opacity="0.15">
<path d="M456.004 312.155L447.421 305.588L454.161 305.519C454.357 307.826 454.981 310.077 456.004 312.155Z" fill="black"/>
</g>
<path d="M437.863 295.257C438.578 299.389 440.832 303.302 444.476 304.635C448.802 306.219 452.006 306.327 456.993 306.327C463.799 306.327 463.574 299.227 463.765 292.073C463.959 284.891 463.386 277.187 460.696 274.684C455.329 269.689 439.568 272.852 437.652 281.208C436.66 285.53 437.182 291.322 437.863 295.257Z" fill="#E98862"/>
<path d="M468.483 271.711C468.483 268.294 464.232 262.697 452.891 270.417L452.88 270.425C449.934 270.342 446.991 270.664 444.132 271.381C438.946 272.933 432.443 277.281 434.109 287.824C435.972 299.592 440.791 302.732 443.22 304.176C443.839 304.543 443.989 304.24 444.203 303.557C444.877 301.016 445.359 298.429 445.645 295.816C446.069 293.273 446.261 290.698 446.219 288.12C446.219 286.978 446.225 282.817 451.892 282.769C455.079 282.743 453.887 282.87 457.288 282.87C457.773 282.87 458.202 282.848 458.596 282.813H458.6C470.345 282.812 468.483 275.127 468.483 271.711Z" fill="#0F1011"/>
<path d="M454.04 292.075C454.557 292.075 454.977 291.656 454.977 291.138C454.977 290.621 454.557 290.201 454.04 290.201C453.523 290.201 453.103 290.621 453.103 291.138C453.103 291.656 453.523 292.075 454.04 292.075Z" fill="#0F1011"/>
<path d="M461.432 291.468C461.95 291.468 462.369 291.048 462.369 290.531C462.369 290.013 461.95 289.594 461.432 289.594C460.915 289.594 460.495 290.013 460.495 290.531C460.495 291.048 460.915 291.468 461.432 291.468Z" fill="#0F1011"/>
<path d="M463.056 288.534H463.05L460.567 288.503C460.454 288.498 460.346 288.449 460.268 288.367C460.189 288.284 460.146 288.174 460.146 288.06C460.147 287.946 460.192 287.837 460.272 287.756C460.351 287.674 460.459 287.627 460.573 287.623H460.579L463.061 287.654C463.175 287.659 463.283 287.708 463.361 287.791C463.44 287.873 463.483 287.983 463.482 288.097C463.481 288.211 463.437 288.32 463.357 288.402C463.277 288.483 463.169 288.531 463.056 288.534Z" fill="#0F1011"/>
<path d="M452.017 289.44C451.909 289.44 451.804 289.401 451.724 289.329C451.643 289.257 451.591 289.158 451.578 289.051C451.566 288.943 451.593 288.835 451.655 288.746C451.717 288.658 451.81 288.595 451.915 288.571L454.362 287.981C454.419 287.966 454.478 287.963 454.536 287.971C454.595 287.979 454.65 287.999 454.701 288.029C454.751 288.059 454.795 288.099 454.83 288.146C454.864 288.194 454.889 288.247 454.903 288.304C454.917 288.361 454.919 288.421 454.91 288.479C454.9 288.536 454.879 288.592 454.848 288.642C454.817 288.691 454.776 288.734 454.728 288.768C454.68 288.802 454.625 288.825 454.568 288.838L452.121 289.427C452.087 289.435 452.052 289.44 452.017 289.44Z" fill="#0F1011"/>
<path d="M449.165 293.431C449.216 293.955 449.161 294.484 449.005 294.987C448.85 295.489 448.595 295.956 448.258 296.36C447.92 296.764 447.505 297.096 447.038 297.338C446.57 297.58 446.059 297.727 445.535 297.77C445.01 297.813 444.482 297.751 443.982 297.588C443.481 297.425 443.018 297.164 442.619 296.821C442.22 296.477 441.894 296.058 441.658 295.587C441.423 295.116 441.283 294.603 441.248 294.078C441.196 293.556 441.25 293.029 441.406 292.529C441.563 292.029 441.818 291.565 442.157 291.165C442.496 290.765 442.912 290.438 443.38 290.202C443.848 289.967 444.359 289.828 444.882 289.794C447.713 289.705 448.986 291.244 449.165 293.431Z" fill="#E98862"/>
<g opacity="0.15">
<path d="M458.199 296.336C458.121 296.336 458.047 296.308 457.988 296.258C457.929 296.207 457.891 296.137 457.88 296.061C457.868 295.984 457.885 295.906 457.926 295.841C457.967 295.775 458.03 295.727 458.104 295.704L460.009 295.119L458.677 292.15C458.643 292.072 458.641 291.983 458.672 291.904C458.702 291.825 458.763 291.761 458.841 291.726C458.918 291.691 459.006 291.688 459.086 291.718C459.166 291.747 459.231 291.807 459.266 291.884L460.75 295.187C460.769 295.229 460.778 295.275 460.778 295.32C460.778 295.366 460.769 295.412 460.75 295.454C460.731 295.495 460.703 295.533 460.669 295.563C460.634 295.593 460.594 295.616 460.55 295.629L458.295 296.322C458.264 296.332 458.231 296.337 458.199 296.336Z" fill="black"/>
</g>
<path d="M508.931 575.892L495.447 574.289C496.053 569.185 496.74 563.053 496.787 562.048C496.787 562.113 496.787 562.165 496.787 562.206H510.366C510.362 562.613 510.362 563.855 508.931 575.892Z" fill="#E98862"/>
<path d="M448.358 577.516L434.778 577.472C434.778 577.472 434.824 563.448 434.824 562.209H448.403C448.403 563.452 448.358 577.516 448.358 577.516Z" fill="#E98862"/>
<path d="M490.337 574.15L513.622 568.653C498.545 509.459 485.895 449.038 473.642 389.205L473.469 389.256L472.963 385.809L423.77 382.77C423.77 382.77 421.855 406.865 421.856 414.912C421.86 454.366 428.134 519.961 431.251 572.449L455.145 571.225C453.739 520.327 449.942 469.355 450.215 418.444C464.523 469.952 478.792 522.011 490.337 574.15Z" fill="#262626"/>
<path d="M464.865 582.768C465.23 582.767 465.591 582.69 465.925 582.542C466.259 582.395 466.559 582.18 466.806 581.912C467.054 581.643 467.243 581.326 467.362 580.981C467.482 580.636 467.529 580.27 467.5 579.905C467.461 579.401 467.278 578.918 466.974 578.513C466.669 578.109 466.255 577.8 465.781 577.623L449.976 572.326C449.67 572.225 449.345 572.191 449.025 572.227C448.704 572.262 448.395 572.367 448.119 572.533C445.946 574.041 443.347 574.811 440.703 574.732C438.644 574.585 436.668 573.863 434.999 572.648C434.853 572.528 434.675 572.452 434.487 572.429C434.299 572.406 434.108 572.437 433.936 572.518C433.765 572.599 433.621 572.728 433.519 572.888C433.418 573.048 433.365 573.234 433.365 573.424V581.154C433.365 581.382 433.41 581.607 433.498 581.818C433.585 582.029 433.713 582.22 433.875 582.381C434.037 582.542 434.228 582.669 434.439 582.756C434.65 582.842 434.876 582.886 435.104 582.886L464.865 582.768Z" fill="#C1D8ED"/>
<path d="M525.476 582.769C525.841 582.768 526.202 582.691 526.536 582.543C526.87 582.396 527.171 582.181 527.418 581.912C527.665 581.644 527.855 581.327 527.974 580.982C528.094 580.637 528.141 580.27 528.112 579.906C528.073 579.402 527.89 578.919 527.585 578.514C527.281 578.11 526.867 577.801 526.393 577.624L510.587 572.327C510.281 572.226 509.957 572.192 509.636 572.228C509.316 572.263 509.007 572.368 508.73 572.534C506.557 574.042 503.958 574.812 501.315 574.732C499.256 574.586 497.279 573.864 495.611 572.649C495.465 572.528 495.287 572.452 495.098 572.429C494.91 572.406 494.719 572.437 494.548 572.518C494.377 572.6 494.232 572.728 494.131 572.889C494.03 573.049 493.976 573.235 493.977 573.425V581.155C493.977 581.383 494.022 581.608 494.109 581.819C494.197 582.03 494.325 582.221 494.486 582.382C494.648 582.543 494.84 582.67 495.05 582.757C495.261 582.843 495.487 582.887 495.715 582.886L525.476 582.769Z" fill="#C1D8ED"/>
<path d="M508.116 323.193C508.116 323.193 509.15 315.497 514.612 316.566C518.058 317.241 534.67 318.483 534.733 320.019C534.889 323.818 519.667 322.889 517.875 326.192L508.116 323.193Z" fill="#E98862"/>
<path d="M512.63 316.575C512.63 316.575 520.605 315.008 522.435 315.685C524.056 316.285 520.247 318.579 520.247 318.579L512.63 316.575Z" fill="#E98862"/>
<path d="M391.165 323.193C391.165 323.193 390.13 315.497 384.669 316.566C381.223 317.241 364.611 318.485 364.546 320.019C364.39 323.818 379.613 322.889 381.404 326.192L391.165 323.193Z" fill="#E98862"/>
<path d="M386.65 316.575C386.65 316.575 378.676 315.008 376.845 315.685C375.225 316.285 379.034 318.579 379.034 318.579L386.65 316.575Z" fill="#E98862"/>
<path d="M460.86 300.734C460.86 300.734 457.444 300.087 454.958 300.734C454.958 300.734 455.164 298.465 457.909 298.465C460.655 298.465 460.86 300.734 460.86 300.734Z" fill="white"/>
<path d="M508.091 318.665L489.3 346.921L474.557 319.254L474.411 319.331C472.407 315.839 468.786 313.588 462.559 313.32C462.151 313.3 461.498 313.287 460.657 313.275C460.489 316.832 438.465 316.819 437.999 313.19C431.779 313.197 426.677 315.105 423.722 318.06C422.528 319.239 421.573 320.637 420.906 322.176L406.163 347.564L390.007 317.95L377.63 324.705L399.788 365.309C400.387 366.406 401.267 367.325 402.338 367.971C403.409 368.616 404.632 368.965 405.882 368.981H405.976C407.211 368.981 408.423 368.657 409.493 368.041C410.563 367.425 411.452 366.539 412.072 365.471L423.489 345.81C424.841 350.414 426.04 354.982 426.04 359.187C426.04 372.774 419.897 378.86 420.35 385.832C421.061 396.788 474.298 394.201 477.008 387.973C479.801 381.557 474.13 377.599 474.382 356.606C474.408 354.386 474.576 352.066 474.807 349.704L482.41 363.975C482.984 365.052 483.827 365.961 484.857 366.615C485.888 367.268 487.07 367.642 488.289 367.702C488.404 367.707 488.518 367.71 488.632 367.71C489.794 367.71 490.938 367.423 491.961 366.874C492.985 366.325 493.858 365.531 494.501 364.564L519.831 326.475L508.091 318.665Z" fill="#066DCE"/>
<path d="M460.66 313.275C460.492 316.832 458.558 322.064 452.59 322.458C444.636 322.982 438.468 316.819 438.002 313.19H438.021C445.852 313.19 456.095 313.203 460.66 313.275Z" fill="#E98862"/>
<path d="M578.894 323.768C569.599 305.079 594.193 269.909 633.827 245.216C673.46 220.522 713.128 215.656 722.42 234.345" fill="#8DDBE0"/>
<path d="M553.141 222.103C553.935 200.732 591.319 185.116 636.639 187.225C681.959 189.334 718.057 208.368 717.263 229.741" fill="#8DDBE0"/>
<path d="M882.481 229.287C879.216 208.67 838.787 194.287 792.18 197.159C745.574 200.032 710.44 219.075 713.705 239.692" fill="#8DDBE0"/>
<path d="M844.508 131.529C831.464 114.579 791.959 123.542 756.262 151.549C720.565 179.556 702.197 216.002 715.237 232.95" fill="#8DDBE0"/>
<path d="M738.123 73.15C716.909 70.4397 695.399 104.773 690.069 149.835C684.739 194.898 697.616 233.626 718.827 236.336" fill="#8DDBE0"/>
<path d="M749.66 249.902C759.173 249.902 766.884 242.189 766.884 232.675C766.884 223.161 759.173 215.448 749.66 215.448C740.147 215.448 732.436 223.161 732.436 232.675C732.436 242.189 740.147 249.902 749.66 249.902Z" fill="#C1D8ED"/>
<path d="M722.42 245.591C722.42 255.105 714.709 265.753 705.196 265.753C695.683 265.753 687.971 255.105 687.971 245.591C688.003 241.043 689.832 236.693 693.059 233.488C696.285 230.284 700.648 228.485 705.195 228.485C709.743 228.485 714.106 230.284 717.332 233.488C720.559 236.693 722.388 241.043 722.42 245.591Z" fill="#C1D8ED"/>
<path d="M724.497 248.525C734.009 248.525 741.721 240.812 741.721 231.298C741.721 221.784 734.009 214.071 724.497 214.071C714.984 214.071 707.272 221.784 707.272 231.298C707.272 240.812 714.984 248.525 724.497 248.525Z" fill="#C1D8ED"/>
<path d="M565.14 125.103L563.086 119.271C558.747 107.67 559.505 93.966 566.797 78.0205C572.761 65.3777 576.351 55.8231 573.958 46.891C571.381 37.2732 563.693 32.4594 550.776 35.6753C542.74 37.8287 534.233 42.8084 529.657 48.6979L517.371 30.3896C524.224 22.9078 536.436 15.2164 550.9 11.3403C579.369 3.7108 596.873 16.6913 601.782 35.0144C606.199 51.5019 599.166 65.6623 592.302 79.5292C586.172 92.464 585.012 102.836 588.417 113.708L589.934 118.456L565.14 125.103ZM567.929 158.475C565.106 147.94 570.49 138.644 580.592 135.937C590.922 133.169 599.773 138.652 602.826 149.123C605.525 159.199 600.724 168.83 590.163 171.66C579.832 174.431 570.628 168.551 567.929 158.475Z" fill="#1C7C35"/>
</svg>
