<svg width="900" height="595" viewBox="0 0 900 595" fill="none" xmlns="http://www.w3.org/2000/svg">
<path d="M648.056 60.6835L631.031 70.5215L664.391 128.353L681.416 118.515L648.056 60.6835Z" fill="#DEE8F5"/>
<path d="M635.326 61.1289H615.667V127.907H635.326V61.1289Z" fill="#DEE8F5"/>
<path d="M749.826 43H730.167V127.905H749.826V43Z" fill="#DEE8F5"/>
<path d="M729.607 61.1289H709.948V127.907H729.607V61.1289Z" fill="#C1D8ED"/>
<path d="M769.487 52.5479H749.828V127.906H769.487V52.5479Z" fill="#C1D8ED"/>
<path d="M709.64 50.1963H678.242V127.906H709.64V50.1963Z" fill="#DEE8F5"/>
<path d="M800.989 105.718C800.989 105.718 800.894 72.503 817.562 65.5657C834.229 58.6285 809.275 105.718 809.275 105.718H800.989Z" fill="#8DDBE0"/>
<path d="M809.275 105.718C809.275 105.718 817.979 43.5439 800.194 43.5439C782.409 43.5439 800.989 105.722 800.989 105.722" fill="#8DDBE0"/>
<path d="M803.944 108.457C803.944 108.457 795.597 53.0348 780.708 57.4848C765.82 61.9348 798.085 110.205 798.085 110.205L803.944 108.457Z" fill="#8DDBE0"/>
<path d="M820.353 89.0508H781.532V127.906H820.353V89.0508Z" fill="#DEE8F5"/>
<path d="M836.17 127.904H605.838V136.538H836.17V127.904Z" fill="#C1D8ED"/>
<path d="M785.019 127.904H605.838V136.538H785.019V127.904Z" fill="#DEE8F5"/>
<path d="M900.003 595H0C9.86169 569.83 28.0736 548.478 53.7459 542.143C91.3019 532.889 131.045 558.336 168.516 548.766C189.806 543.336 206.566 527.512 224.177 514.372C290.619 464.789 381.667 450.139 460.296 476.38C501.392 490.089 538.839 514.066 580.937 524.259C635.375 537.446 692.303 526.51 748.285 524.709C802.804 522.954 880.922 545.192 900.003 595Z" fill="#F3F5FD"/>
<path d="M122.144 437.195L81.0776 593.456L86.9323 594.997L127.999 438.736L122.144 437.195Z" fill="#C1D8ED"/>
<path d="M194.917 437.496L188.937 438.435L213.416 594.698L219.397 593.759L194.917 437.496Z" fill="#C1D8ED"/>
<path d="M116.646 288.071C116.646 288.071 66.6357 284.91 66.6357 328.64C66.6357 372.371 74.0012 433.489 110.856 440.339C147.711 447.188 202.149 445.122 214.788 442.978C230.317 440.345 237.086 404.29 216.403 401.878C157.703 395.027 186.133 292.813 116.646 288.071Z" fill="#C1D8ED"/>
<path d="M597.564 437.193L591.709 438.734L632.771 594.997L638.625 593.456L597.564 437.193Z" fill="#C1D8ED"/>
<path d="M524.789 437.494L500.304 593.756L506.284 594.695L530.77 438.432L524.789 437.494Z" fill="#C1D8ED"/>
<path d="M603.063 288.071C603.063 288.071 653.072 284.91 653.072 328.64C653.072 372.371 645.707 433.489 608.853 440.339C571.999 447.188 517.559 445.122 504.921 442.978C489.391 440.345 482.623 404.29 503.306 401.878C561.997 395.027 533.571 292.813 603.063 288.071Z" fill="#C1D8ED"/>
<path d="M188.514 222.578C188.817 226.284 192.28 230.097 191.642 233.585C190.984 237.198 186.367 239.536 184.828 242.775C183.267 246.062 184.363 251.114 182.022 253.869C179.681 256.624 174.524 256.356 171.528 258.428C168.58 260.47 167.019 265.408 163.564 266.639C160.223 267.83 155.903 265.024 152.202 265.327C148.5 265.63 144.689 269.095 141.204 268.457C137.594 267.799 135.258 263.177 132.022 261.637C128.738 260.074 123.69 261.171 120.937 258.828C118.183 256.485 118.451 251.324 116.382 248.326C114.342 245.375 109.408 243.813 108.177 240.348C106.987 237.004 109.791 232.682 109.489 228.976C109.186 225.27 105.723 221.457 106.361 217.969C107.019 214.356 111.636 212.018 113.176 208.779C114.736 205.491 113.641 200.44 115.981 197.684C118.322 194.928 123.479 195.197 126.47 193.126C129.418 191.083 130.979 186.146 134.436 184.914C137.776 183.723 142.095 186.529 145.798 186.226C149.501 185.923 153.31 182.458 156.795 183.096C160.405 183.754 162.741 188.375 165.977 189.916C169.262 191.479 174.309 190.382 177.063 192.724C179.816 195.066 179.548 200.229 181.617 203.226C183.657 206.177 188.591 207.739 189.822 211.198C191.021 214.55 188.214 218.873 188.514 222.578Z" fill="#0F1011"/>
<path d="M132.659 265.846C132.659 265.846 140.464 261.714 138.742 240.448L154.864 237.471C154.864 237.471 153.036 256.534 161.185 262.594L132.659 265.846Z" fill="#E98862"/>
<g opacity="0.15">
<path d="M157.886 258.605L144.503 248.34L155.021 248.239C155.323 251.843 156.294 255.359 157.886 258.605Z" fill="black"/>
</g>
<path d="M129.603 232.194C130.713 238.647 134.225 244.759 139.908 246.848C146.104 249.315 152.809 250.228 159.438 249.507C177.086 248.075 173.631 207.911 165.26 200.104C156.888 192.297 132.296 197.214 129.294 210.258C127.741 217.006 128.543 226.054 129.603 232.194Z" fill="#E98862"/>
<path d="M154.851 227.249C155.658 227.249 156.313 226.594 156.313 225.786C156.313 224.977 155.658 224.322 154.851 224.322C154.043 224.322 153.389 224.977 153.389 225.786C153.389 226.594 154.043 227.249 154.851 227.249Z" fill="#0F1011"/>
<path d="M166.386 226.312C167.194 226.312 167.848 225.657 167.848 224.849C167.848 224.041 167.194 223.386 166.386 223.386C165.579 223.386 164.924 224.041 164.924 224.849C164.924 225.657 165.579 226.312 166.386 226.312Z" fill="#0F1011"/>
<path d="M168.923 221.733H168.913L165.04 221.681C164.858 221.68 164.684 221.606 164.556 221.476C164.428 221.347 164.357 221.171 164.358 220.989C164.359 220.806 164.433 220.632 164.562 220.504C164.692 220.376 164.867 220.304 165.05 220.306H165.06L168.932 220.358C169.11 220.366 169.277 220.443 169.4 220.572C169.522 220.7 169.59 220.872 169.589 221.05C169.588 221.228 169.518 221.398 169.393 221.526C169.269 221.653 169.101 221.727 168.923 221.733Z" fill="#0F1011"/>
<path d="M151.699 223.131C151.53 223.132 151.367 223.07 151.241 222.958C151.114 222.846 151.034 222.691 151.014 222.524C150.994 222.356 151.037 222.187 151.134 222.048C151.231 221.91 151.375 221.812 151.539 221.774L155.358 220.858C155.447 220.834 155.54 220.828 155.631 220.84C155.722 220.853 155.81 220.883 155.889 220.93C155.968 220.977 156.037 221.04 156.091 221.114C156.146 221.188 156.185 221.272 156.206 221.362C156.227 221.451 156.231 221.544 156.216 221.635C156.201 221.725 156.167 221.812 156.118 221.89C156.069 221.968 156.005 222.035 155.929 222.087C155.854 222.139 155.768 222.176 155.678 222.195L151.859 223.112C151.807 223.124 151.753 223.131 151.699 223.131Z" fill="#0F1011"/>
<path d="M155.517 237.31C155.517 237.31 160.914 237.884 164.698 236.564C164.698 236.564 164.665 240.122 160.394 240.469C156.123 240.815 155.517 237.31 155.517 237.31Z" fill="white"/>
<path d="M141.491 215.491C142.55 230.613 140.886 245.802 136.581 260.335C136.581 260.335 124.278 239.103 122.376 221.425C120.592 204.853 132.801 195.081 141.042 193.243C172.373 186.261 174.627 209.166 174.627 209.166C168.92 221.045 138.102 220.994 138.102 220.994" fill="#0F1011"/>
<path d="M147.464 232.085C147.577 233.714 147.044 235.322 145.98 236.56C144.916 237.798 143.408 238.567 141.781 238.699C140.155 238.831 138.543 238.315 137.293 237.265C136.044 236.215 135.259 234.713 135.109 233.087C135.029 232.273 135.114 231.45 135.358 230.669C135.602 229.888 136.001 229.164 136.531 228.54C137.06 227.917 137.71 227.406 138.441 227.039C139.172 226.672 139.969 226.456 140.785 226.403C145.203 226.263 147.187 228.67 147.464 232.085Z" fill="#E98862"/>
<g opacity="0.15">
<path d="M161.335 233.91C161.213 233.911 161.096 233.868 161.003 233.789C160.911 233.71 160.85 233.6 160.832 233.48C160.814 233.36 160.84 233.237 160.905 233.134C160.97 233.032 161.07 232.956 161.187 232.921L164.161 232.012L162.086 227.375C162.056 227.314 162.039 227.248 162.035 227.181C162.032 227.113 162.042 227.046 162.065 226.982C162.088 226.918 162.124 226.86 162.17 226.811C162.216 226.761 162.271 226.721 162.333 226.694C162.394 226.666 162.461 226.651 162.529 226.65C162.596 226.648 162.663 226.66 162.726 226.685C162.789 226.71 162.846 226.748 162.894 226.795C162.942 226.843 162.98 226.9 163.006 226.962L165.315 232.122C165.344 232.187 165.359 232.258 165.359 232.329C165.359 232.401 165.343 232.471 165.314 232.536C165.284 232.602 165.241 232.66 165.188 232.707C165.134 232.754 165.071 232.789 165.002 232.81L161.482 233.89C161.434 233.904 161.385 233.911 161.335 233.91Z" fill="black"/>
</g>
<path d="M586.885 266.257C586.885 266.257 578.899 262.015 580.682 240.252L564.182 237.19C564.182 237.19 566.036 256.705 557.688 262.9L586.885 266.257Z" fill="#E98862"/>
<g opacity="0.15">
<path d="M561.069 258.82L574.777 248.325L564.016 248.214C563.702 251.902 562.703 255.499 561.069 258.82Z" fill="black"/>
</g>
<path d="M590.047 231.813C588.905 238.417 585.305 244.67 579.484 246.804C573.14 249.323 566.277 250.251 559.493 249.507C541.432 248.024 545.002 206.917 553.578 198.932C562.154 190.947 587.322 196.003 590.384 209.359C591.964 216.266 591.132 225.529 590.047 231.813Z" fill="#E98862"/>
<path d="M579.714 246.013C580.057 247.112 580.297 247.591 581.285 247.003C585.165 244.696 592.862 239.676 595.837 220.869C598.501 204.017 588.115 197.067 579.832 194.587C572.693 192.449 556.029 192.01 548.209 196.727C541.47 200.792 548.209 210.249 548.209 210.249C551.187 210.386 551.788 212.948 558.815 212.948C564.247 212.948 562.347 212.746 567.435 212.787C576.484 212.86 573.56 219.522 573.396 221.34C572.925 226.539 576.826 229.294 577.412 233.641C577.868 237.817 578.638 241.953 579.714 246.013Z" fill="#0F1011"/>
<path d="M571.986 228.893C571.907 229.73 571.995 230.574 572.244 231.377C572.494 232.18 572.9 232.925 573.439 233.569C573.978 234.213 574.64 234.744 575.386 235.13C576.132 235.517 576.947 235.751 577.784 235.82C578.621 235.888 579.464 235.79 580.262 235.53C581.061 235.271 581.801 234.855 582.437 234.307C583.074 233.759 583.596 233.09 583.973 232.339C584.35 231.587 584.574 230.769 584.632 229.93C584.714 229.096 584.628 228.255 584.379 227.455C584.13 226.655 583.722 225.913 583.18 225.274C582.639 224.636 581.974 224.112 581.226 223.736C580.478 223.36 579.662 223.138 578.827 223.083C574.307 222.936 572.276 225.398 571.986 228.893Z" fill="#E98862"/>
<path d="M574.777 208.751L579.449 210.468C579.449 210.468 577.792 233.826 576.484 240.212C575.177 246.597 571.52 250.756 567.374 251.111C561.009 251.656 556.397 251.701 551.728 250.03C546.462 248.147 547.2 234.003 547.2 234.003C547.2 234.003 564.143 235.84 568.831 233.586C573.52 231.332 574.777 208.751 574.777 208.751Z" fill="#0F1011"/>
<path d="M564.205 226.726C565.031 226.726 565.701 226.055 565.701 225.228C565.701 224.401 565.031 223.73 564.205 223.73C563.378 223.73 562.708 224.401 562.708 225.228C562.708 226.055 563.378 226.726 564.205 226.726Z" fill="#0F1011"/>
<path d="M552.399 225.757C553.225 225.757 553.895 225.086 553.895 224.259C553.895 223.432 553.225 222.762 552.399 222.762C551.573 222.762 550.903 223.432 550.903 224.259C550.903 225.086 551.573 225.757 552.399 225.757Z" fill="#0F1011"/>
<path d="M549.806 221.068C549.632 221.051 549.469 220.971 549.351 220.841C549.233 220.712 549.167 220.544 549.166 220.368C549.164 220.193 549.228 220.024 549.345 219.893C549.462 219.762 549.623 219.679 549.797 219.661L553.761 219.61C553.945 219.616 554.12 219.691 554.252 219.819C554.384 219.948 554.463 220.121 554.473 220.305C554.475 220.492 554.403 220.671 554.273 220.805C554.143 220.938 553.966 221.015 553.779 221.018L549.815 221.068H549.806Z" fill="#0F1011"/>
<path d="M567.435 222.515C567.379 222.515 567.323 222.508 567.269 222.495L563.361 221.553C563.264 221.539 563.171 221.505 563.087 221.453C563.004 221.401 562.932 221.332 562.876 221.251C562.821 221.169 562.783 221.077 562.766 220.98C562.748 220.883 562.751 220.784 562.774 220.688C562.797 220.592 562.84 220.502 562.9 220.424C562.959 220.346 563.035 220.281 563.121 220.234C563.207 220.186 563.303 220.157 563.401 220.149C563.499 220.141 563.597 220.153 563.69 220.185L567.599 221.126C567.762 221.171 567.904 221.272 567.999 221.413C568.093 221.553 568.135 221.723 568.115 221.891C568.095 222.059 568.015 222.215 567.89 222.329C567.766 222.444 567.604 222.51 567.435 222.515Z" fill="#0F1011"/>
<g opacity="0.15">
<path d="M557.558 233.536C557.507 233.536 557.455 233.528 557.406 233.513L553.804 232.402C553.734 232.381 553.669 232.344 553.614 232.296C553.559 232.247 553.515 232.188 553.485 232.121C553.454 232.054 553.439 231.981 553.439 231.908C553.439 231.835 553.455 231.762 553.485 231.695L555.853 226.416C555.911 226.294 556.015 226.2 556.141 226.154C556.268 226.107 556.408 226.112 556.53 226.167C556.653 226.223 556.75 226.324 556.8 226.449C556.849 226.575 556.848 226.714 556.796 226.839L554.667 231.585L557.71 232.52C557.827 232.557 557.927 232.635 557.992 232.74C558.057 232.844 558.083 232.968 558.064 233.09C558.046 233.211 557.985 233.323 557.892 233.403C557.8 233.484 557.681 233.529 557.558 233.53V233.536Z" fill="black"/>
</g>
<path d="M563.511 237.023C563.511 237.023 557.987 237.607 554.114 236.253C554.114 236.253 554.146 239.894 558.516 240.253C562.887 240.611 563.511 237.023 563.511 237.023Z" fill="white"/>
<path d="M588.836 199.218C588.836 199.218 583.957 205.378 565.845 193.046C547.733 180.714 540.943 189.656 540.943 195.116C540.943 200.577 537.968 212.86 556.722 212.86" fill="#0F1011"/>
<path d="M642.048 288.206C642.048 288.206 641.485 276.088 650.169 276.208C655.648 276.284 681.497 273.546 682.023 275.888C683.322 281.681 659.697 284.509 657.866 290.084L642.048 288.206Z" fill="#E98862"/>
<path d="M647.13 276.777C647.13 276.777 658.935 272.14 661.933 272.668C664.589 273.136 659.382 277.725 659.382 277.725L647.13 276.777Z" fill="#E98862"/>
<path d="M212.249 563.984L210.346 588.685L231.471 590.315L233.374 565.615L212.249 563.984Z" fill="#E98862"/>
<path d="M258.315 594.041C258.885 594.038 259.448 593.918 259.969 593.688C260.491 593.457 260.959 593.122 261.345 592.702C261.731 592.283 262.026 591.788 262.213 591.249C262.399 590.71 262.472 590.139 262.428 589.57C262.366 588.782 262.081 588.028 261.606 587.397C261.131 586.765 260.486 586.283 259.746 586.006L235.084 577.739C234.606 577.58 234.099 577.527 233.599 577.583C233.099 577.639 232.617 577.802 232.186 578.062C228.795 580.416 224.74 581.619 220.615 581.495C217.402 581.267 214.319 580.139 211.716 578.242C211.487 578.054 211.209 577.935 210.916 577.899C210.622 577.863 210.324 577.911 210.057 578.038C209.789 578.165 209.563 578.366 209.406 578.616C209.248 578.867 209.164 579.157 209.165 579.453V591.523C209.165 591.879 209.235 592.232 209.372 592.561C209.508 592.889 209.708 593.188 209.96 593.439C210.212 593.69 210.512 593.889 210.841 594.025C211.17 594.16 211.522 594.229 211.878 594.227L258.315 594.041Z" fill="#C1D8ED"/>
<path d="M317.307 563.041L296.412 566.559L300.563 591.259L321.458 587.741L317.307 563.041Z" fill="#E98862"/>
<path d="M328.104 568.447L281.583 389.316C280.543 385.313 278.205 381.768 274.936 379.237C271.666 376.707 267.65 375.334 263.517 375.334H161.568V375.4H104.451V392.918C104.451 403.119 108.499 412.902 115.706 420.115C122.913 427.328 132.687 431.38 142.879 431.38H170.736V431.49H219.369L205.977 573.995L243.146 577.494L256.094 439.695L291.973 577.842L328.104 568.447Z" fill="#262626"/>
<path d="M250.427 289.785C250.427 289.785 250.578 277.656 259.24 278.286C264.705 278.684 290.671 277.479 291.057 279.846C292.014 285.703 268.262 287.135 266.107 292.593L250.427 289.785Z" fill="#E98862"/>
<path d="M256.17 278.676C256.17 278.676 268.226 274.743 271.189 275.444C273.813 276.068 268.344 280.342 268.344 280.342L256.17 278.676Z" fill="#E98862"/>
<path d="M213.499 351.134C211.541 351.132 209.62 350.609 207.932 349.618C206.244 348.627 204.851 347.203 203.895 345.494L167.455 280.211L186.66 269.473L215.553 321.236L249.997 282.45L268.537 292.885L221.721 347.439C220.689 348.601 219.422 349.531 218.005 350.168C216.588 350.805 215.052 351.134 213.499 351.134Z" fill="#066DCE"/>
<path d="M225.039 337.084C228.046 337.084 238.098 335.496 238.817 338.052C239.246 339.584 231.754 341.394 231.754 341.394" fill="#E98862"/>
<path d="M223.461 349.15C223.461 349.15 243.755 357.496 255.414 347.977C255.711 347.734 255.927 347.407 256.035 347.04C256.144 346.672 256.139 346.28 256.021 345.915C255.903 345.55 255.678 345.229 255.375 344.994C255.072 344.759 254.706 344.621 254.323 344.598C246.461 344.135 230.31 342.549 232.202 337.361H219.525" fill="#E98862"/>
<path d="M225.521 331.211H186.852C186.839 329.948 186.834 328.657 186.852 327.305C187.175 299.302 201.886 261.17 168.418 259.726C167.783 259.706 166.764 259.676 165.452 259.656C165.19 265.21 130.814 265.19 130.088 259.524C120.381 259.535 112.41 262.524 107.809 267.129C91.9182 283.034 111.422 310.138 111.422 331.345C111.422 352.551 101.836 362.064 102.543 372.95C103.653 390.057 186.721 386.018 190.949 376.293C193.784 369.777 191.037 364.882 188.874 353.231H225.524L225.521 331.211Z" fill="#066DCE"/>
<path d="M345.393 594.041C345.963 594.038 346.526 593.918 347.047 593.687C347.568 593.457 348.037 593.122 348.423 592.702C348.809 592.283 349.104 591.788 349.29 591.249C349.477 590.71 349.55 590.139 349.506 589.57C349.444 588.782 349.159 588.028 348.684 587.396C348.208 586.765 347.563 586.283 346.823 586.006L322.165 577.739C321.687 577.58 321.18 577.527 320.68 577.583C320.18 577.639 319.697 577.802 319.266 578.062C315.876 580.416 311.82 581.619 307.696 581.495C304.483 581.267 301.399 580.139 298.796 578.242C298.567 578.054 298.29 577.935 297.996 577.899C297.702 577.863 297.404 577.911 297.137 578.038C296.869 578.165 296.644 578.366 296.486 578.616C296.328 578.867 296.245 579.157 296.246 579.453V591.523C296.246 591.879 296.316 592.232 296.453 592.561C296.589 592.889 296.789 593.188 297.041 593.439C297.293 593.691 297.593 593.89 297.922 594.025C298.251 594.16 298.603 594.229 298.959 594.227L345.393 594.041Z" fill="#C1D8ED"/>
<path d="M165.449 259.656C165.187 265.21 162.16 273.379 152.857 273.985C140.437 274.813 130.811 265.19 130.085 259.524H130.125C142.334 259.524 158.316 259.545 165.449 259.656Z" fill="#E98862"/>
<path d="M507.459 563.979L486.333 565.609L488.236 590.31L509.362 588.679L507.459 563.979Z" fill="#E98862"/>
<path d="M461.389 594.041C460.819 594.038 460.256 593.918 459.735 593.688C459.213 593.457 458.745 593.122 458.359 592.702C457.973 592.283 457.678 591.788 457.491 591.249C457.305 590.71 457.232 590.139 457.276 589.57C457.338 588.782 457.623 588.028 458.098 587.396C458.573 586.765 459.219 586.283 459.959 586.006L484.62 577.739C485.098 577.58 485.604 577.527 486.105 577.583C486.605 577.639 487.087 577.802 487.518 578.062C490.909 580.416 494.964 581.619 499.089 581.495C502.302 581.267 505.386 580.139 507.989 578.242C508.218 578.054 508.495 577.935 508.789 577.899C509.083 577.863 509.381 577.911 509.648 578.038C509.916 578.165 510.141 578.365 510.299 578.616C510.457 578.867 510.54 579.157 510.539 579.453V591.523C510.539 591.879 510.469 592.232 510.332 592.561C510.196 592.889 509.996 593.188 509.744 593.439C509.492 593.69 509.192 593.889 508.863 594.025C508.534 594.16 508.182 594.229 507.826 594.227L461.389 594.041Z" fill="#C1D8ED"/>
<path d="M432.663 563.037L428.512 587.737L449.407 591.255L453.558 566.555L432.663 563.037Z" fill="#E98862"/>
<path d="M558.137 375.4V375.334H456.188C451.529 375.334 447.039 377.077 443.599 380.221C440.159 383.365 438.018 387.683 437.597 392.327L421.347 571.457L458.524 574.834L467.26 478.544L476.558 577.492L513.726 573.993L500.336 431.49H548.968V431.38H576.829C587.021 431.38 596.796 427.328 604.002 420.115C611.209 412.902 615.258 403.119 615.258 392.918V375.4H558.137Z" fill="#262626"/>
<path d="M459.99 307.659C459.99 307.659 456.771 295.966 448.552 298.773C443.366 300.545 417.943 305.967 418.169 308.356C418.729 314.267 442.066 309.622 445.534 314.354L459.99 307.659Z" fill="#E98862"/>
<path d="M451.616 298.373C451.616 298.373 438.957 297.629 436.269 299.062C433.89 300.331 440.262 303.078 440.262 303.078L451.616 298.373Z" fill="#E98862"/>
<path d="M404.581 594.041C404.011 594.038 403.448 593.918 402.926 593.688C402.405 593.457 401.937 593.122 401.551 592.702C401.165 592.283 400.87 591.788 400.683 591.249C400.497 590.71 400.424 590.139 400.468 589.57C400.53 588.782 400.815 588.028 401.29 587.397C401.765 586.765 402.41 586.283 403.15 586.006L427.812 577.739C428.29 577.58 428.796 577.527 429.297 577.583C429.797 577.639 430.279 577.802 430.71 578.062C434.101 580.416 438.156 581.619 442.281 581.495C445.493 581.267 448.577 580.139 451.18 578.242C451.409 578.054 451.686 577.935 451.98 577.899C452.274 577.863 452.572 577.911 452.839 578.038C453.107 578.165 453.332 578.366 453.49 578.616C453.648 578.867 453.732 579.157 453.731 579.453V591.523C453.731 591.879 453.661 592.232 453.524 592.561C453.388 592.889 453.188 593.188 452.935 593.439C452.683 593.69 452.384 593.889 452.055 594.025C451.726 594.16 451.373 594.229 451.018 594.227L404.581 594.041Z" fill="#C1D8ED"/>
<path d="M640.164 283.233L634.525 310.953L616.666 274.261L616.575 274.307C615.542 271.609 613.947 269.162 611.896 267.129C607.295 262.524 599.324 259.535 589.618 259.524C588.891 265.19 554.516 265.21 554.253 259.656C552.942 259.676 551.923 259.706 551.287 259.726C539.973 260.215 534.17 264.899 531.451 271.964L497.255 326.588L455.604 297.597L443.042 315.673L494.168 351.259C495.39 352.11 496.773 352.704 498.231 353.004C499.689 353.305 501.194 353.306 502.652 353.007C504.111 352.709 505.494 352.117 506.718 351.267C507.941 350.418 508.979 349.329 509.77 348.066L531.804 312.87C532.357 317.818 532.801 322.697 532.853 327.304C533.236 360.094 524.398 366.274 528.757 376.292C532.984 386.017 616.053 390.056 617.163 372.949C617.869 362.063 608.284 352.561 608.284 331.344C608.284 325.745 609.647 319.73 611.355 313.628L628.946 349.768C629.951 351.838 631.58 353.54 633.602 354.635C635.625 355.73 637.939 356.163 640.22 355.873C642.501 355.583 644.634 354.585 646.319 353.019C648.004 351.453 649.156 349.398 649.613 347.143L661.721 287.622L640.164 283.233Z" fill="#066DCE"/>
<path d="M554.254 259.656C554.517 265.21 557.544 273.379 566.846 273.985C579.267 274.813 588.892 265.19 589.619 259.524H589.579C577.37 259.524 561.392 259.545 554.254 259.656Z" fill="#E98862"/>
<path d="M45.0085 363.019H35.5332V594.23H45.0085V363.019Z" fill="#DEE8F5"/>
<path d="M657.805 363.019H648.33V594.23H657.805V363.019Z" fill="#DEE8F5"/>
<path d="M694.508 353.469H0V366.509H694.508V353.469Z" fill="#DEE8F5"/>
<path d="M778.167 561.04H763.065V592.336H778.167V561.04Z" fill="#C1D8ED"/>
<path d="M872.966 561.04H857.864V592.336H872.966V561.04Z" fill="#C1D8ED"/>
<path d="M886.809 428.454H749.223V582.244H886.809V428.454Z" fill="#C1D8ED"/>
<path d="M850.268 428.454H712.682V582.244H850.268V428.454Z" fill="#DEE8F5"/>
<path d="M741.627 561.04H726.525V592.336H741.627V561.04Z" fill="#DEE8F5"/>
<path d="M836.425 561.04H821.324V592.336H836.425V561.04Z" fill="#DEE8F5"/>
<g opacity="0.53">
<path d="M842.866 437.963H720.084V476.968H842.866V437.963Z" fill="#F3F5FD"/>
</g>
<g opacity="0.53">
<path d="M842.866 486.516H720.084V525.521H842.866V486.516Z" fill="#F3F5FD"/>
</g>
<g opacity="0.53">
<path d="M842.866 535.066H720.084V574.072H842.866V535.066Z" fill="#F3F5FD"/>
</g>
<path d="M781.475 462.923C784.487 462.923 786.929 460.48 786.929 457.465C786.929 454.451 784.487 452.007 781.475 452.007C778.463 452.007 776.021 454.451 776.021 457.465C776.021 460.48 778.463 462.923 781.475 462.923Z" fill="white"/>
<path d="M781.475 511.476C784.487 511.476 786.929 509.032 786.929 506.018C786.929 503.003 784.487 500.56 781.475 500.56C778.463 500.56 776.021 503.003 776.021 506.018C776.021 509.032 778.463 511.476 781.475 511.476Z" fill="white"/>
<path d="M781.475 560.028C784.487 560.028 786.929 557.584 786.929 554.57C786.929 551.555 784.487 549.111 781.475 549.111C778.463 549.111 776.021 551.555 776.021 554.57C776.021 557.584 778.463 560.028 781.475 560.028Z" fill="white"/>
<path d="M865.051 394.15C864.808 394.589 864.481 394.975 864.089 395.288C863.697 395.6 863.247 395.831 862.766 395.969C862.284 396.107 861.78 396.148 861.282 396.091C860.784 396.034 860.303 395.879 859.865 395.635C859.231 395.422 858.554 395.373 857.896 395.491C857.238 395.609 856.62 395.891 856.099 396.312C853.952 398.299 852.941 399.857 852.718 401.563H832.64C832.565 400.351 832.409 399.146 832.175 397.956C831.634 394.705 830.102 391.7 827.789 389.355C827.239 388.755 826.502 388.359 825.698 388.232C824.79 388.677 823.742 388.743 822.785 388.416C821.828 388.088 821.04 387.393 820.595 386.484C820.15 385.575 820.084 384.526 820.411 383.568C820.739 382.61 821.433 381.821 822.341 381.376C825.57 379.768 829.649 380.675 832.963 383.742C833.99 384.694 834.911 385.753 835.711 386.903C835.406 384.954 834.931 383.036 834.291 381.171C833.525 378.816 832.117 376.722 830.226 375.124C829.432 374.506 828.914 373.6 828.783 372.602C828.653 371.604 828.921 370.594 829.53 369.793C830.139 368.992 831.039 368.463 832.034 368.322C833.03 368.181 834.041 368.438 834.848 369.039C837.927 371.517 840.228 374.83 841.474 378.582C841.611 378.96 841.742 379.346 841.859 379.737C844.235 373.813 846.668 368.802 851.574 365.915C852.447 365.401 853.488 365.256 854.468 365.51C854.954 365.636 855.41 365.856 855.81 366.159C856.21 366.461 856.547 366.839 856.801 367.272C857.055 367.705 857.222 368.183 857.291 368.68C857.361 369.177 857.332 369.683 857.206 370.169C857.08 370.654 856.86 371.111 856.558 371.511C856.256 371.912 855.878 372.249 855.446 372.503C852.449 374.267 850.656 378.246 848.634 383.357C850.862 380.779 853.533 378.619 856.519 376.98C856.959 376.74 857.442 376.589 857.94 376.536C858.439 376.482 858.943 376.528 859.423 376.669C859.904 376.811 860.352 377.046 860.742 377.361C861.132 377.676 861.456 378.065 861.696 378.505C861.936 378.945 862.087 379.429 862.14 379.927C862.193 380.426 862.148 380.93 862.007 381.412C861.865 381.893 861.63 382.341 861.316 382.732C861.001 383.122 860.613 383.446 860.173 383.686C857.848 384.966 855.786 386.674 854.095 388.72C855.593 388.051 857.221 387.725 858.86 387.765C860.5 387.805 862.11 388.209 863.574 388.95C864.012 389.194 864.398 389.522 864.71 389.916C865.021 390.31 865.252 390.761 865.389 391.244C865.526 391.727 865.567 392.232 865.509 392.731C865.451 393.23 865.295 393.712 865.051 394.15Z" fill="#8DDBE0"/>
<path d="M860.612 401.559H825.129V411.884H860.612V401.559Z" fill="#DEE8F5"/>
<path d="M860.61 411.885V423.205C860.609 424.613 860.05 425.963 859.055 426.958C858.061 427.954 856.712 428.513 855.305 428.514H830.427C829.021 428.513 827.672 427.954 826.677 426.958C825.683 425.963 825.124 424.613 825.123 423.205V411.885H860.61Z" fill="#262626"/>
<path d="M807.944 397.098H739.322V412.65H807.944V397.098Z" fill="#C1D8ED"/>
<path d="M784.528 397.098H711.96V412.65H784.528V397.098Z" fill="#DEE8F5"/>
<path d="M767.273 400.601H716.632V409.147H767.273V400.601Z" fill="#F3F5FD"/>
<g opacity="0.62">
<path d="M778.605 397.098H771.939V412.65H778.605V397.098Z" fill="#C1D8ED"/>
</g>
<path d="M743.741 428.185H812.363V412.632H743.741V428.185Z" fill="#C1D8ED"/>
<path d="M716.379 428.185H788.947V412.632H716.379V428.185Z" fill="#F3F5FD"/>
<path d="M722.301 428.185H725.823V412.632H722.301V428.185Z" fill="#DEE8F5"/>
<path d="M729.346 428.185H732.868V412.632H729.346V428.185Z" fill="#DEE8F5"/>
<path d="M780.627 425.423C783.394 425.423 785.637 423.178 785.637 420.408C785.637 417.639 783.394 415.394 780.627 415.394C777.86 415.394 775.616 417.639 775.616 420.408C775.616 423.178 777.86 425.423 780.627 425.423Z" fill="#DEE8F5"/>
<path d="M770.331 416.597H738.297V424.221H770.331V416.597Z" fill="#DEE8F5"/>
<path d="M314.576 337.499C314.574 334.372 313.332 331.375 311.122 329.165C308.912 326.956 305.916 325.715 302.792 325.717V320.92H276.088V355.082H302.792V349.292C304.34 349.292 305.872 348.987 307.302 348.394C308.732 347.802 310.031 346.933 311.125 345.838C312.219 344.743 313.087 343.443 313.679 342.012C314.272 340.581 314.576 339.047 314.576 337.499ZM302.792 344.423V330.588C303.714 330.566 304.631 330.728 305.489 331.066C306.347 331.404 307.129 331.91 307.789 332.554C308.448 333.199 308.973 333.969 309.331 334.819C309.688 335.669 309.873 336.583 309.873 337.506C309.873 338.428 309.688 339.342 309.331 340.192C308.973 341.043 308.448 341.813 307.789 342.457C307.129 343.102 306.347 343.608 305.489 343.945C304.631 344.283 303.714 344.445 302.792 344.423Z" fill="#C1D8ED"/>
<path d="M405.109 349.292V355.082H431.816V320.92H405.109V325.717C403.554 325.702 402.01 325.997 400.569 326.582C399.127 327.168 397.816 328.034 396.711 329.13C395.606 330.226 394.728 331.531 394.13 332.968C393.531 334.405 393.223 335.947 393.223 337.504C393.223 339.061 393.531 340.603 394.13 342.04C394.728 343.478 395.606 344.782 396.711 345.878C397.816 346.974 399.127 347.84 400.569 348.426C402.01 349.012 403.554 349.306 405.109 349.292ZM398.191 337.499C398.192 335.663 398.922 333.904 400.22 332.608C401.517 331.311 403.276 330.583 405.109 330.584V344.419C404.201 344.419 403.302 344.241 402.462 343.893C401.623 343.546 400.86 343.036 400.218 342.393C399.575 341.751 399.066 340.988 398.718 340.148C398.37 339.308 398.191 338.408 398.191 337.499Z" fill="#1C7C35"/>
</svg>
