<svg width="900" height="595" viewBox="0 0 900 595" fill="none" xmlns="http://www.w3.org/2000/svg">
<path d="M69.776 595C33.0292 595 0.0115334 566.638 1.8179e-05 529.872C-0.0708447 311.074 207.051 266.905 247.032 194.167C315.661 69.311 373.857 29.6035 471.938 29.6035C632.073 29.6035 631.521 148.391 712.96 237.749C821.595 356.951 900.003 398.655 900.003 529.877C900.003 566.642 866.971 594.997 830.228 594.997L69.776 595Z" fill="#F3F5FD"/>
<path d="M720.44 0H223.437V398.657H720.44V0Z" fill="#DEE8F5"/>
<path d="M720.44 0H223.437V59.2119H720.44V0Z" fill="#C1D8ED"/>
<path d="M341.146 106.881H280.994V167.07H341.146V106.881Z" fill="white"/>
<path d="M448.391 106.881H388.239V167.07H448.391V106.881Z" fill="white"/>
<path d="M555.638 106.881H495.485V167.07H555.638V106.881Z" fill="white"/>
<path d="M662.881 106.881H602.729V167.07H662.881V106.881Z" fill="white"/>
<path d="M341.146 198.083H280.994V258.273H341.146V198.083Z" fill="white"/>
<path d="M460.033 228.176C460.033 205.123 441.355 186.434 418.316 186.434C395.276 186.434 376.598 205.123 376.598 228.176C376.598 251.23 395.276 269.919 418.316 269.919C441.355 269.919 460.033 251.23 460.033 228.176Z" fill="#1C7C35"/>
<path d="M425.248 252.307C417.952 252.307 410.501 248.087 404.119 239.925C393.874 226.82 394.148 213.484 404.835 205.119C405.377 204.695 405.996 204.382 406.658 204.197C407.321 204.013 408.013 203.961 408.695 204.044C409.377 204.128 410.036 204.345 410.635 204.683C411.233 205.022 411.759 205.475 412.183 206.016L418.786 214.463C419.641 215.557 420.027 216.946 419.859 218.325C419.691 219.703 418.982 220.958 417.889 221.814L412.177 226.287C411.14 227.104 409.831 227.495 408.516 227.38C409.563 229.55 410.854 231.593 412.364 233.47C413.9 235.501 415.682 237.333 417.667 238.928C417.75 238.246 417.966 237.587 418.304 236.989C418.642 236.392 419.095 235.867 419.636 235.444L425.162 231.118C425.704 230.694 426.324 230.38 426.986 230.196C427.649 230.011 428.341 229.959 429.024 230.042C429.707 230.125 430.366 230.343 430.965 230.681C431.564 231.02 432.091 231.473 432.514 232.015L438.955 240.258C439.379 240.8 439.693 241.42 439.877 242.083C440.062 242.746 440.114 243.439 440.03 244.122C439.947 244.806 439.73 245.466 439.391 246.065C439.053 246.664 438.6 247.191 438.058 247.614C434.444 250.589 429.927 252.243 425.248 252.307Z" fill="white"/>
<path d="M555.638 198.083H495.485V258.273H555.638V198.083Z" fill="white"/>
<path d="M662.881 198.083H602.729V258.273H662.881V198.083Z" fill="white"/>
<path d="M341.146 289.285H280.994V349.474H341.146V289.285Z" fill="white"/>
<path d="M448.391 289.285H388.239V349.474H448.391V289.285Z" fill="white"/>
<path d="M555.638 289.285H495.485V349.474H555.638V289.285Z" fill="white"/>
<path d="M662.881 289.285H602.729V349.474H662.881V289.285Z" fill="white"/>
<path d="M179.359 350.575C197.032 428.474 213.032 506.894 225.66 585.778L207.91 589.431C188.395 511.966 172.16 433.59 157.67 355.04L179.359 350.575Z" fill="#E98862"/>
<path d="M142.831 355.401C144.454 432.788 144.337 510.35 140.82 587.685H122.697C119.182 510.351 119.066 432.787 120.687 355.401H142.831Z" fill="#E98862"/>
<path d="M164.266 594.834C164.766 594.831 165.261 594.726 165.719 594.524C166.176 594.322 166.587 594.027 166.926 593.659C167.265 593.291 167.524 592.857 167.688 592.384C167.851 591.911 167.916 591.409 167.877 590.91C167.823 590.218 167.573 589.556 167.155 589.002C166.738 588.448 166.172 588.025 165.522 587.782L143.871 580.526C143.452 580.387 143.007 580.34 142.568 580.389C142.129 580.438 141.706 580.581 141.327 580.809C138.35 582.875 134.79 583.932 131.169 583.823C128.348 583.622 125.641 582.632 123.355 580.967C123.155 580.802 122.911 580.698 122.653 580.666C122.395 580.634 122.134 580.677 121.899 580.788C121.664 580.9 121.466 581.076 121.328 581.296C121.189 581.516 121.116 581.771 121.117 582.031V592.624C121.117 592.936 121.179 593.246 121.298 593.534C121.418 593.823 121.594 594.085 121.815 594.306C122.036 594.526 122.299 594.701 122.588 594.82C122.877 594.938 123.187 594.999 123.499 594.997L164.266 594.834Z" fill="#C1D8ED"/>
<path d="M247.294 594.834C247.794 594.831 248.288 594.726 248.746 594.524C249.204 594.322 249.615 594.027 249.954 593.659C250.293 593.291 250.552 592.857 250.716 592.384C250.879 591.911 250.944 591.409 250.905 590.91C250.851 590.218 250.6 589.556 250.183 589.002C249.766 588.448 249.199 588.025 248.55 587.782L226.898 580.526C226.479 580.387 226.035 580.34 225.595 580.389C225.156 580.438 224.733 580.581 224.354 580.809C221.378 582.875 217.817 583.932 214.196 583.823C211.376 583.622 208.669 582.632 206.384 580.967C206.183 580.802 205.939 580.698 205.681 580.666C205.424 580.634 205.162 580.677 204.927 580.788C204.693 580.9 204.494 581.076 204.356 581.296C204.217 581.516 204.144 581.771 204.145 582.031V592.624C204.145 592.936 204.207 593.246 204.327 593.534C204.446 593.823 204.622 594.085 204.843 594.305C205.064 594.526 205.327 594.701 205.616 594.819C205.905 594.938 206.214 594.999 206.526 594.997L247.294 594.834Z" fill="#C1D8ED"/>
<path d="M109.46 321.99C109.46 321.99 99.3984 367.079 99.3984 404.998C99.3984 442.918 87.8442 501.646 87.8442 501.646C87.8442 501.646 120.589 496.347 142.803 501.646C181.077 510.775 215.394 490.893 215.394 490.893L176.848 326.152L109.46 321.99Z" fill="#262626"/>
<path d="M130.291 229.345C130.291 229.345 137.141 225.712 135.611 207.049L149.762 204.423C149.762 204.423 148.168 221.156 155.332 226.468L130.291 229.345Z" fill="#E98862"/>
<g opacity="0.15">
<path d="M152.432 222.97L140.676 213.971L149.909 213.875C150.177 217.038 151.033 220.122 152.432 222.97Z" fill="black"/>
</g>
<path d="M127.581 199.812C128.561 205.474 131.649 210.836 136.641 212.664C142.082 214.825 147.969 215.621 153.787 214.982C169.28 213.711 166.215 178.466 158.86 171.617C151.506 164.768 129.919 169.107 127.293 180.557C125.935 186.483 126.65 194.422 127.581 199.812Z" fill="#E98862"/>
<path d="M149.743 195.45C150.452 195.45 151.026 194.875 151.026 194.166C151.026 193.457 150.452 192.882 149.743 192.882C149.034 192.882 148.459 193.457 148.459 194.166C148.459 194.875 149.034 195.45 149.743 195.45Z" fill="#0F1011"/>
<path d="M159.868 194.619C160.577 194.619 161.152 194.044 161.152 193.335C161.152 192.626 160.577 192.051 159.868 192.051C159.16 192.051 158.585 192.626 158.585 193.335C158.585 194.044 159.16 194.619 159.868 194.619Z" fill="#0F1011"/>
<path d="M162.093 190.598H162.085L158.684 190.56C158.605 190.559 158.527 190.542 158.454 190.511C158.381 190.48 158.316 190.435 158.26 190.378C158.205 190.321 158.162 190.254 158.132 190.181C158.103 190.107 158.089 190.028 158.09 189.949C158.099 189.791 158.166 189.643 158.279 189.532C158.392 189.422 158.542 189.358 158.7 189.354L162.101 189.396C162.257 189.403 162.404 189.47 162.511 189.583C162.619 189.696 162.678 189.847 162.677 190.003C162.676 190.159 162.615 190.309 162.506 190.421C162.397 190.532 162.249 190.597 162.093 190.602V190.598Z" fill="#0F1011"/>
<path d="M146.972 191.839C146.825 191.838 146.683 191.784 146.572 191.686C146.462 191.588 146.392 191.452 146.375 191.306C146.358 191.159 146.395 191.011 146.479 190.89C146.563 190.769 146.689 190.683 146.832 190.648L150.184 189.841C150.34 189.804 150.504 189.829 150.64 189.913C150.777 189.997 150.875 190.131 150.912 190.287C150.95 190.443 150.924 190.607 150.84 190.743C150.757 190.88 150.622 190.978 150.467 191.015L147.114 191.822C147.068 191.833 147.02 191.839 146.972 191.839Z" fill="#0F1011"/>
<path d="M136.441 211.989C136.147 212.93 135.941 213.341 135.094 212.837C131.767 210.858 125.165 206.554 122.614 190.429C120.328 175.981 129.236 170.02 136.344 167.893C142.467 166.06 155.216 167.355 162.096 171.099C167.2 173.876 163.466 181.322 163.466 181.322C160.911 181.44 161.471 174.656 155.444 174.656C150.785 174.656 146.681 181.554 142.318 181.737C138.325 181.905 137.505 184.34 137.647 185.903C138.502 195.37 137.481 208.659 136.441 211.989Z" fill="#0F1011"/>
<path d="M143.066 197.308C143.135 198.026 143.06 198.751 142.847 199.44C142.633 200.129 142.285 200.769 141.822 201.323C141.36 201.876 140.792 202.332 140.151 202.663C139.511 202.995 138.811 203.196 138.092 203.255C137.374 203.314 136.651 203.229 135.965 203.005C135.279 202.782 134.645 202.425 134.099 201.954C133.552 201.483 133.105 200.908 132.782 200.263C132.46 199.617 132.269 198.914 132.22 198.195C132.15 197.48 132.223 196.758 132.437 196.072C132.651 195.386 133.001 194.75 133.465 194.203C133.93 193.655 134.499 193.206 135.141 192.883C135.782 192.56 136.482 192.37 137.199 192.323C141.077 192.2 142.821 194.312 143.066 197.308Z" fill="#E98862"/>
<g opacity="0.15">
<path d="M155.44 201.29C155.484 201.29 155.528 201.283 155.571 201.27L158.66 200.32C158.72 200.302 158.776 200.271 158.823 200.229C158.87 200.188 158.908 200.136 158.933 200.079C158.959 200.022 158.973 199.96 158.973 199.897C158.973 199.834 158.96 199.772 158.934 199.715L156.903 195.188C156.879 195.135 156.845 195.087 156.802 195.047C156.76 195.007 156.71 194.976 156.656 194.956C156.601 194.935 156.543 194.925 156.485 194.927C156.427 194.929 156.369 194.942 156.316 194.966C156.263 194.99 156.215 195.024 156.175 195.066C156.136 195.109 156.104 195.159 156.084 195.213C156.063 195.268 156.053 195.326 156.055 195.384C156.057 195.442 156.07 195.499 156.094 195.553L157.921 199.621L155.311 200.419C155.21 200.45 155.123 200.516 155.066 200.606C155.01 200.696 154.987 200.803 155.003 200.908C155.019 201.013 155.071 201.108 155.152 201.178C155.232 201.247 155.334 201.285 155.44 201.285V201.29Z" fill="black"/>
</g>
<path d="M150.336 204.28C150.336 204.28 155.074 204.78 158.397 203.619C158.397 203.619 158.371 206.742 154.622 207.049C150.873 207.357 150.336 204.28 150.336 204.28Z" fill="white"/>
<path d="M162.517 171.578C167.11 174.655 166.205 180.551 165.343 185.671H159.658L157.274 177.391L154.366 185.671L132.202 186.437L134.874 175.44" fill="#0F1011"/>
<path d="M120.836 216.837C127.688 216.837 133.243 211.279 133.243 204.423C133.243 197.567 127.688 192.009 120.836 192.009C113.984 192.009 108.43 197.567 108.43 204.423C108.43 211.279 113.984 216.837 120.836 216.837Z" fill="#0F1011"/>
<path d="M200.331 252.464C200.331 252.464 206.963 241.922 206.691 239.067C206.419 236.212 198.131 233.324 198.131 233.324C198.131 233.324 199.33 230.8 200.399 228.028C201.632 224.831 202.693 221.307 201.536 220.955C200.42 220.616 198.728 223.519 197.177 226.893C195.185 231.225 193.427 236.331 193.427 236.331C193.427 236.331 193.244 231.287 191.38 231.608C190.614 231.74 190.291 232.652 190.288 236.267C190.288 240.386 189.644 246.807 189.644 246.807L200.331 252.464Z" fill="#E98862"/>
<path d="M179.276 299.724C181.197 299.724 183.075 299.151 184.669 298.077C186.262 297.003 187.5 295.478 188.222 293.697L205.584 250.917L187.691 243.649L182.435 256.602L178.309 235.969L159.37 239.76L169.805 291.955C170.212 293.993 171.265 295.845 172.807 297.236C174.35 298.628 176.3 299.485 178.367 299.68C178.67 299.709 178.975 299.724 179.276 299.724Z" fill="#066DCE"/>
<path d="M210.617 265.042L199.879 263.328C199.457 263.26 199.054 263.104 198.697 262.87C198.339 262.636 198.035 262.33 197.804 261.97C197.573 261.61 197.421 261.205 197.357 260.783C197.293 260.36 197.319 259.928 197.434 259.516L204.189 235.255C204.389 234.536 204.847 233.917 205.474 233.514C206.102 233.111 206.856 232.954 207.592 233.071L218.329 234.785C218.751 234.853 219.154 235.009 219.512 235.243C219.869 235.477 220.173 235.784 220.404 236.143C220.635 236.503 220.787 236.908 220.851 237.33C220.915 237.753 220.889 238.185 220.775 238.597L214.019 262.858C213.819 263.576 213.362 264.196 212.734 264.599C212.107 265.002 211.353 265.159 210.617 265.042Z" fill="#C1D8ED"/>
<path d="M193.325 258.683L199.658 267.28C199.658 267.28 216.678 263.867 218.275 250.747C218.46 249.24 218.3 245.056 216.43 245.617C211.558 247.077 205.495 254.558 201.244 255.553C202.214 253.814 203.398 251.36 202.634 250.911C200.631 249.729 195.227 256.857 193.325 258.683Z" fill="#E98862"/>
<path d="M107.719 231.686C111.768 227.635 118.757 225.021 127.278 225.012C127.915 229.984 158.085 230.002 158.316 225.127C159.467 225.145 160.362 225.162 160.92 225.189C181.397 226.075 181.337 242.587 179.323 260.837L196.172 253.402L203.967 271.084L177.149 282.915C177.132 283.447 177.118 283.979 177.112 284.511C176.766 313.281 184.535 318.705 180.708 327.498C176.998 336.033 104.071 339.578 103.096 324.564C102.476 315.009 110.891 306.669 110.891 288.047C110.891 269.426 93.7683 245.641 107.719 231.686Z" fill="#066DCE"/>
<path d="M158.316 225.127C158.086 230.001 155.437 237.172 147.261 237.712C136.366 238.43 127.916 229.984 127.278 225.011H127.305C138.032 225.007 152.062 225.025 158.316 225.127Z" fill="#E98862"/>
<path d="M744.724 469.193L719.41 592.742C719.248 593.387 718.875 593.959 718.351 594.368C717.827 594.777 717.181 594.999 716.517 594.999C716.063 594.999 715.615 594.896 715.208 594.697C714.8 594.498 714.443 594.208 714.164 593.85C713.885 593.492 713.691 593.076 713.597 592.631C713.504 592.187 713.512 591.728 713.623 591.287L739.299 466.315L744.724 469.193Z" fill="#C1D8ED"/>
<path d="M804.205 468.996L829.517 592.545C829.679 593.19 830.051 593.763 830.576 594.172C831.1 594.581 831.745 594.803 832.41 594.803C832.864 594.803 833.312 594.7 833.719 594.501C834.127 594.301 834.484 594.012 834.763 593.654C835.042 593.296 835.235 592.879 835.329 592.435C835.423 591.991 835.414 591.531 835.303 591.091L809.628 466.119L804.205 468.996Z" fill="#C1D8ED"/>
<path d="M830.81 457.11H718.116C715.267 457.11 712.958 459.421 712.958 462.272V473.638C712.958 476.489 715.267 478.8 718.116 478.8H830.81C833.659 478.8 835.968 476.489 835.968 473.638V462.272C835.968 459.421 833.659 457.11 830.81 457.11Z" fill="#DEE8F5"/>
<path d="M800.32 396.38C796.738 395.207 793.056 396.524 789.543 399.203C794.176 387.493 796.089 376.918 788.167 376.442C782.624 376.108 778.377 380.364 775.151 386.414C774.017 375.778 771.089 367.843 764.533 370.473C757.335 373.361 756.24 383.257 757.332 393.612C754.16 388.323 750.746 385.374 747.646 388.471C738.393 397.729 761.104 423.822 761.104 423.822H766.744L769.963 427.319C769.311 428.697 768.955 429.518 768.955 429.518L773.043 437.845C773.043 437.845 815.189 401.251 800.32 396.38Z" fill="#8DDBE0"/>
<path d="M790.208 456.492H758.286L752.941 419.204H795.551L790.208 456.492Z" fill="#C1D8ED"/>
</svg>
