<svg width="900" height="595" viewBox="0 0 900 595" fill="none" xmlns="http://www.w3.org/2000/svg">
<path d="M798.892 411.684C792.607 430.724 770.911 447.643 777.393 461.645C779.859 466.966 782.334 472.534 783.473 478.22C784.212 481.61 784.335 485.106 783.836 488.54C781.498 503.367 767.621 513.215 754.717 520.884C753.919 521.356 753.116 521.836 752.31 522.317C740.083 529.643 727.276 538.077 723.347 551.599C721.167 559.111 722.13 567.145 721.227 574.909C720.37 582.048 717.945 588.909 714.125 595H631.712C624.395 586.938 625.004 573.388 630.573 563.883C636.534 553.71 646.601 546.797 655.69 539.276C663.538 532.775 671.189 524.949 674.184 515.405C674.66 513.894 675.011 512.347 675.234 510.78C675.961 505.615 675.568 479.231 684.526 462.99C698.373 437.912 720.835 444.088 727.699 429.939C730.331 424.517 732.6 357.913 776.353 370.217C780.62 371.359 784.609 373.356 788.078 376.088C791.547 378.821 794.424 382.23 796.532 386.11C798.641 389.99 799.938 394.258 800.343 398.655C800.749 403.051 800.255 407.485 798.892 411.684Z" fill="#C1D8ED"/>
<path d="M878.924 515.827C877.668 516.692 876.317 517.41 874.898 517.968C863.093 522.396 830.26 521.905 825.461 533.561C823.202 539.042 822.662 545.089 820.728 550.695C816.342 563.412 804.748 572.946 791.784 576.53C787.119 577.816 782.287 578.415 777.672 579.849C768.753 582.627 761.368 588.22 754.876 594.996H648.442C648.395 587.939 650.131 580.985 653.489 574.778C656.847 568.571 661.718 563.312 667.651 559.489C679.486 552.027 694.434 550.632 706.052 542.836C713.713 537.691 719.222 530.258 723.595 522.038C726.375 516.662 728.832 511.124 730.951 505.454C734.201 497.019 737.6 487.966 744.985 482.742C748.607 480.389 752.622 478.706 756.84 477.773C767.504 474.983 775.706 476.624 783.475 478.216C792.902 480.14 801.702 481.977 813.517 475.702C834.476 464.566 865.118 409.035 895.74 461.797C908.014 482.962 891.073 507.697 878.924 515.827Z" fill="#8DDBE0"/>
<path d="M101.108 411.684C107.394 430.724 129.09 447.643 122.607 461.645C120.142 466.966 117.666 472.534 116.527 478.22C115.788 481.61 115.664 485.106 116.163 488.54C118.501 503.367 132.379 513.215 145.283 520.884C146.08 521.356 146.884 521.836 147.689 522.317C159.917 529.643 172.723 538.077 176.651 551.599C178.832 559.111 177.869 567.145 178.773 574.909C179.629 582.048 182.054 588.909 185.874 595H268.284C275.599 586.938 274.991 573.388 269.423 563.883C263.462 553.71 253.395 546.797 244.306 539.275C236.459 532.775 228.808 524.949 225.813 515.405C225.337 513.894 224.985 512.347 224.761 510.78C224.035 505.615 224.428 479.231 215.471 462.99C201.623 437.912 179.162 444.088 172.297 429.939C169.666 424.517 167.396 357.913 123.644 370.217C119.378 371.359 115.389 373.357 111.92 376.089C108.451 378.822 105.575 382.232 103.467 386.111C101.358 389.991 100.062 394.259 99.6565 398.655C99.251 403.052 99.7449 407.485 101.108 411.684Z" fill="#C1D8ED"/>
<path d="M21.0764 515.827C22.3323 516.692 23.683 517.41 25.1021 517.968C36.9071 522.396 69.7396 521.905 74.5388 533.561C76.7973 539.042 77.3375 545.089 79.2721 550.695C83.6626 563.412 95.2513 572.946 108.215 576.53C112.88 577.816 117.712 578.415 122.328 579.849C131.245 582.627 138.631 588.22 145.123 594.996H251.559C251.606 587.939 249.87 580.985 246.511 574.778C243.153 568.571 238.281 563.312 232.348 559.489C220.514 552.026 205.566 550.632 193.947 542.836C186.287 537.691 180.778 530.258 176.405 522.038C173.625 516.662 171.168 511.124 169.049 505.454C165.798 497.019 162.4 487.965 155.015 482.742C151.393 480.389 147.377 478.706 143.16 477.773C132.495 474.983 124.294 476.624 116.526 478.216C107.097 480.14 98.2972 481.976 86.4823 475.701C65.5265 464.567 34.8848 409.043 4.26198 461.801C-8.01445 482.962 8.92657 507.696 21.0764 515.827Z" fill="#8DDBE0"/>
<path d="M626.313 450.084H277.614V0H552.103L626.313 78.4107V450.084Z" fill="#F3F5FD"/>
<path d="M552.103 0V78.4107H626.312L552.103 0Z" fill="#DEE8F5"/>
<path d="M532.794 190.775V213.807C532.794 217.725 531.238 221.483 528.469 224.254C525.699 227.025 521.943 228.582 518.026 228.582H221.769C217.852 228.582 214.095 230.139 211.326 232.91C208.556 235.681 207 239.439 207 243.358V580.223C207 584.142 208.556 587.901 211.326 590.672C214.095 593.443 217.852 595 221.769 595H678.232C680.172 595 682.092 594.618 683.884 593.875C685.676 593.133 687.304 592.044 688.675 590.672C690.046 589.3 691.134 587.671 691.876 585.878C692.618 584.085 693 582.164 693 580.223V190.775C693 188.835 692.618 186.914 691.876 185.121C691.134 183.328 690.046 181.7 688.675 180.328C687.303 178.956 685.675 177.867 683.884 177.125C682.092 176.382 680.172 176 678.232 176H547.563C545.623 176 543.703 176.382 541.911 177.124C540.119 177.867 538.491 178.955 537.12 180.327C535.748 181.699 534.66 183.328 533.918 185.121C533.176 186.913 532.794 188.835 532.794 190.775Z" fill="#DEE8F5"/>
<path d="M450.3 517.56C506.798 517.56 552.6 471.768 552.6 415.28C552.6 358.792 506.798 313 450.3 313C393.801 313 348 358.792 348 415.28C348 471.768 393.801 517.56 450.3 517.56Z" fill="#F3F5FD"/>
<path d="M489.891 397.167H484.25V384.572C484.2 375.602 480.6 367.017 474.239 360.692C467.877 354.367 459.27 350.816 450.298 350.816C441.326 350.816 432.719 354.367 426.357 360.692C419.996 367.017 416.396 375.602 416.346 384.572V397.167H410.707C408.13 397.167 405.658 398.191 403.836 400.013C402.013 401.835 400.989 404.306 400.989 406.883V470.216C400.989 472.793 402.013 475.264 403.836 477.086C405.658 478.908 408.13 479.932 410.707 479.932H489.889C491.165 479.932 492.428 479.681 493.607 479.192C494.786 478.704 495.858 477.988 496.76 477.086C497.662 476.184 498.378 475.113 498.866 473.934C499.354 472.755 499.606 471.492 499.606 470.216V406.883C499.606 404.307 498.583 401.836 496.761 400.014C494.939 398.192 492.468 397.168 489.891 397.167ZM427.385 384.572C427.385 378.496 429.799 372.669 434.096 368.372C438.394 364.076 444.222 361.662 450.3 361.662C456.377 361.662 462.205 364.076 466.503 368.372C470.8 372.669 473.214 378.496 473.214 384.572V397.167H427.385V384.572Z" fill="#1C7C35"/>
<path d="M450.3 453.26C458.066 453.26 464.361 446.966 464.361 439.201C464.361 431.437 458.066 425.143 450.3 425.143C442.534 425.143 436.238 431.437 436.238 439.201C436.238 446.966 442.534 453.26 450.3 453.26Z" fill="white"/>
</svg>
